  0
SECTION
  2
BLOCKS
  0
BLOCK
  8
1
  2
1
 70
64
 10
0.0
 20
0.0
  0
LINE
  8
7
 10
1821.57687753
 20
427.37960711
 11
2182.06711191
 21
427.37960711
  0
TEXT
  8
1
 10
0.00000000
 20
0.00000000
 40
10.00000000
 50
0.00000000
  1
Size: 48
  0
TEXT
  8
1
 10
2001.82199472
 20
442.37960711
 40
20.00000000
 50
0.00000000
  1
Piece Name: ABONNO.D
  0
TEXT
  8
1
 10
2001.82199472
 20
442.37960711
 40
20.00000000
 50
0.00000000
  1
Quantity: 1
  0
TEXT
  8
1
 10
2001.82199472
 20
442.37960711
 40
20.00000000
 50
0.00000000
  1
Rotation: 0
  0
TEXT
  8
1
 10
2001.82199472
 20
442.37960711
 40
20.00000000
 50
0.00000000
  1
Tilt: 0
  0
TEXT
  8
1
 10
2001.82199472
 20
442.37960711
 40
20.00000000
 50
0.00000000
  1
Fold: N
  0
TEXT
  8
1
 10
2001.82199472
 20
442.37960711
 40
20.00000000
 50
0.00000000
  1
Material: 1
  0
POLYLINE
  8
1
 66
1
 70
1
  0
VERTEX
  8
1
 10
2069.65332509
 20
435.15422795
  0
VERTEX
  8
1
 10
1871.22168447
 20
427.56267521
  0
VERTEX
  8
1
 10
1736.19873525
 20
422.52678654
  0
VERTEX
  8
1
 10
1727.96902421
 20
442.99107839
  0
VERTEX
  8
1
 10
1719.01270009
 20
463.12175725
  0
VERTEX
  8
1
 10
1709.31914405
 20
482.91977829
  0
VERTEX
  8
1
 10
1698.96094228
 20
502.38176701
  0
VERTEX
  8
1
 10
1688.01008243
 20
521.50552294
  0
VERTEX
  8
1
 10
1676.45654775
 20
540.29082463
  0
VERTEX
  8
1
 10
1696.43799306
 20
551.54875920
  0
VERTEX
  8
1
 10
1716.71484853
 20
562.20720646
  0
VERTEX
  8
1
 10
1737.00195791
 20
572.91252873
  0
VERTEX
  8
1
 10
1756.74316884
 20
584.83757756
  0
VERTEX
  8
1
 10
1766.80771763
 20
590.28052823
  0
VERTEX
  8
1
 10
1777.29980947
 20
594.63396428
  0
VERTEX
  8
1
 10
1788.31009978
 20
597.40540773
  0
VERTEX
  8
1
 10
1799.79541494
 20
598.64861271
  0
VERTEX
  8
1
 10
1801.82303646
 20
598.71183101
  0
VERTEX
  8
1
 10
1805.87576063
 20
598.71822866
  0
VERTEX
  8
1
 10
1809.15315040
 20
598.60622798
  0
VERTEX
  8
1
 10
1810.79102041
 20
598.51091740
  0
VERTEX
  8
1
 10
2011.66895009
 20
598.98833439
  0
VERTEX
  8
1
 10
2015.72125273
 20
599.05849612
  0
VERTEX
  8
1
 10
2023.82617120
 20
599.14049789
  0
VERTEX
  8
1
 10
2032.04449198
 20
599.14424695
  0
VERTEX
  8
1
 10
2036.15381337
 20
599.11614201
  0
VERTEX
  8
1
 10
2056.44693809
 20
599.07288765
  0
VERTEX
  8
1
 10
2076.50391103
 20
597.15557072
  0
VERTEX
  8
1
 10
2087.95314257
 20
595.23005138
  0
VERTEX
  8
1
 10
2099.30186919
 20
592.67602998
  0
VERTEX
  8
1
 10
2110.47524955
 20
589.45687173
  0
VERTEX
  8
1
 10
2121.39844228
 20
585.53594182
  0
VERTEX
  8
1
 10
2141.58318366
 20
576.31371186
  0
VERTEX
  8
1
 10
2161.46973134
 20
566.40093205
  0
VERTEX
  8
1
 10
2181.42539088
 20
557.53040461
  0
VERTEX
  8
1
 10
2201.71973134
 20
549.43926213
  0
VERTEX
  8
1
 10
2218.97342423
 20
542.93140969
  0
VERTEX
  8
1
 10
2236.36816884
 20
536.84075139
  0
VERTEX
  8
1
 10
2256.76611918
 20
530.42608543
  0
VERTEX
  8
1
 10
2277.24414541
 20
524.23735783
  0
VERTEX
  8
1
 10
2296.45590686
 20
518.25083959
  0
VERTEX
  8
1
 10
2315.74219228
 20
512.54766057
  0
VERTEX
  8
1
 10
2336.05885148
 20
507.39045088
  0
VERTEX
  8
1
 10
2356.50244619
 20
502.70940373
  0
VERTEX
  8
1
 10
2376.95721602
 20
498.09068400
  0
VERTEX
  8
1
 10
2397.43701650
 20
493.59404728
  0
VERTEX
  8
1
 10
2354.87158681
 20
387.07732365
  0
VERTEX
  8
1
 10
2333.33870048
 20
393.06975153
  0
VERTEX
  8
1
 10
2311.53027822
 20
397.60326359
  0
VERTEX
  8
1
 10
2289.42416849
 20
400.69529053
  0
VERTEX
  8
1
 10
2267.16602041
 20
402.22460148
  0
VERTEX
  8
1
 10
2244.90829123
 20
402.07071115
  0
VERTEX
  8
1
 10
2222.62207509
 20
400.25176213
  0
VERTEX
  8
1
 10
2214.61814712
 20
399.46983216
  0
VERTEX
  8
1
 10
2206.78350599
 20
398.19836079
  0
VERTEX
  8
1
 10
2191.46313955
 20
394.31914494
  0
VERTEX
  8
1
 10
2183.94905516
 20
391.76460782
  0
VERTEX
  8
1
 10
2176.60327799
 20
388.72362986
  0
VERTEX
  8
1
 10
2169.54436519
 20
385.09749013
  0
VERTEX
  8
1
 10
2162.89087392
 20
380.78746769
  0
VERTEX
  8
1
 10
2156.75957662
 20
375.74222795
  0
VERTEX
  8
1
 10
2151.19429504
 20
370.04346374
  0
VERTEX
  8
1
 10
2146.23896062
 20
363.81742476
  0
VERTEX
  8
1
 10
2141.93750478
 20
357.19036076
  0
VERTEX
  8
1
 10
2138.31997299
 20
350.25153630
  0
VERTEX
  8
1
 10
2135.38733989
 20
342.99507037
  0
VERTEX
  8
1
 10
2133.12493084
 20
335.37879114
  0
VERTEX
  8
1
 10
2131.51807119
 20
327.36052678
  0
VERTEX
  8
1
 10
2113.12089924
 20
327.44120843
  0
VERTEX
  8
1
 10
2094.72995470
 20
327.33526765
  0
VERTEX
  8
1
 10
2076.34329790
 20
327.05129787
  0
VERTEX
  8
1
 10
2057.95898916
 20
326.59789250
  0
VERTEX
  8
1
 10
2039.57682527
 20
325.97793296
  0
VERTEX
  8
1
 10
2021.20088853
 20
325.17135980
  0
VERTEX
  8
1
 10
2002.83699771
 20
324.15239381
  0
VERTEX
  8
1
 10
1984.49097158
 20
322.89525578
  0
VERTEX
  8
1
 10
1966.16922519
 20
321.38006509
  0
VERTEX
  8
1
 10
1947.86921813
 20
319.60956920
  0
VERTEX
  8
1
 10
1929.58901113
 20
317.59235973
  0
VERTEX
  8
1
 10
1911.32666494
 20
315.33702824
  0
VERTEX
  8
1
 10
1888.81395190
 20
311.93131725
  0
VERTEX
  8
1
 10
1866.41599170
 20
307.98849115
  0
VERTEX
  8
1
 10
1844.13278434
 20
303.50854993
  0
VERTEX
  8
1
 10
1821.96301582
 20
298.49117950
  0
VERTEX
  8
1
 10
1799.90801378
 20
292.93663011
  0
VERTEX
  8
1
 10
1777.96777822
 20
286.84490178
  0
VERTEX
  8
1
 10
1771.22556140
 20
306.96134327
  0
VERTEX
  8
1
 10
1763.92480947
 20
326.86418889
  0
VERTEX
  8
1
 10
1759.15467896
 20
338.89240258
  0
VERTEX
  8
1
 10
1754.19647958
 20
350.84839821
  0
VERTEX
  8
1
 10
1743.99121572
 20
374.64495060
  0
VERTEX
  8
1
 10
1732.52246572
 20
401.09123967
  0
VERTEX
  8
1
 10
1736.79687978
 20
412.16716740
  0
SEQEND
  0
POLYLINE
  8
84
 66
1
 70
1
  0
VERTEX
  8
84
 10
2069.65332509
 20
435.15422795
  0
VERTEX
  8
84
 10
1871.22168447
 20
427.56267521
  0
VERTEX
  8
84
 10
1736.19873525
 20
422.52678654
  0
VERTEX
  8
84
 10
1727.96902421
 20
442.99107839
  0
VERTEX
  8
84
 10
1719.01270009
 20
463.12175725
  0
VERTEX
  8
84
 10
1709.31914405
 20
482.91977829
  0
VERTEX
  8
84
 10
1698.96094228
 20
502.38176701
  0
VERTEX
  8
84
 10
1688.01008243
 20
521.50552294
  0
VERTEX
  8
84
 10
1676.45654775
 20
540.29082463
  0
VERTEX
  8
84
 10
1696.43799306
 20
551.54875920
  0
VERTEX
  8
84
 10
1716.71484853
 20
562.20720646
  0
VERTEX
  8
84
 10
1737.00195791
 20
572.91252873
  0
VERTEX
  8
84
 10
1756.74316884
 20
584.83757756
  0
VERTEX
  8
84
 10
1766.80771763
 20
590.28052823
  0
VERTEX
  8
84
 10
1777.29980947
 20
594.63396428
  0
VERTEX
  8
84
 10
1788.31009978
 20
597.40540773
  0
VERTEX
  8
84
 10
1799.79541494
 20
598.64861271
  0
VERTEX
  8
84
 10
1801.82303646
 20
598.71183101
  0
VERTEX
  8
84
 10
1805.87576063
 20
598.71822866
  0
VERTEX
  8
84
 10
1809.15315040
 20
598.60622798
  0
VERTEX
  8
84
 10
1810.79102041
 20
598.51091740
  0
VERTEX
  8
84
 10
2011.66895009
 20
598.98833439
  0
VERTEX
  8
84
 10
2015.72125273
 20
599.05849612
  0
VERTEX
  8
84
 10
2023.82617120
 20
599.14049789
  0
VERTEX
  8
84
 10
2032.04449198
 20
599.14424695
  0
VERTEX
  8
84
 10
2036.15381337
 20
599.11614201
  0
VERTEX
  8
84
 10
2056.44693809
 20
599.07288765
  0
VERTEX
  8
84
 10
2076.50391103
 20
597.15557072
  0
VERTEX
  8
84
 10
2087.95314257
 20
595.23005138
  0
VERTEX
  8
84
 10
2099.30186919
 20
592.67602998
  0
VERTEX
  8
84
 10
2110.47524955
 20
589.45687173
  0
VERTEX
  8
84
 10
2121.39844228
 20
585.53594182
  0
VERTEX
  8
84
 10
2141.58318366
 20
576.31371186
  0
VERTEX
  8
84
 10
2161.46973134
 20
566.40093205
  0
VERTEX
  8
84
 10
2181.42539088
 20
557.53040461
  0
VERTEX
  8
84
 10
2201.71973134
 20
549.43926213
  0
VERTEX
  8
84
 10
2218.97342423
 20
542.93140969
  0
VERTEX
  8
84
 10
2236.36816884
 20
536.84075139
  0
VERTEX
  8
84
 10
2256.76611918
 20
530.42608543
  0
VERTEX
  8
84
 10
2277.24414541
 20
524.23735783
  0
VERTEX
  8
84
 10
2296.45590686
 20
518.25083959
  0
VERTEX
  8
84
 10
2315.74219228
 20
512.54766057
  0
VERTEX
  8
84
 10
2336.05885148
 20
507.39045088
  0
VERTEX
  8
84
 10
2356.50244619
 20
502.70940373
  0
VERTEX
  8
84
 10
2376.95721602
 20
498.09068400
  0
VERTEX
  8
84
 10
2397.43701650
 20
493.59404728
  0
VERTEX
  8
84
 10
2354.87158681
 20
387.07732365
  0
VERTEX
  8
84
 10
2333.33870048
 20
393.06975153
  0
VERTEX
  8
84
 10
2311.53027822
 20
397.60326359
  0
VERTEX
  8
84
 10
2289.42416849
 20
400.69529053
  0
VERTEX
  8
84
 10
2267.16602041
 20
402.22460148
  0
VERTEX
  8
84
 10
2244.90829123
 20
402.07071115
  0
VERTEX
  8
84
 10
2222.62207509
 20
400.25176213
  0
VERTEX
  8
84
 10
2214.61814712
 20
399.46983216
  0
VERTEX
  8
84
 10
2206.78350599
 20
398.19836079
  0
VERTEX
  8
84
 10
2191.46313955
 20
394.31914494
  0
VERTEX
  8
84
 10
2183.94905516
 20
391.76460782
  0
VERTEX
  8
84
 10
2176.60327799
 20
388.72362986
  0
VERTEX
  8
84
 10
2169.54436519
 20
385.09749013
  0
VERTEX
  8
84
 10
2162.89087392
 20
380.78746769
  0
VERTEX
  8
84
 10
2156.75957662
 20
375.74222795
  0
VERTEX
  8
84
 10
2151.19429504
 20
370.04346374
  0
VERTEX
  8
84
 10
2146.23896062
 20
363.81742476
  0
VERTEX
  8
84
 10
2141.93750478
 20
357.19036076
  0
VERTEX
  8
84
 10
2138.31997299
 20
350.25153630
  0
VERTEX
  8
84
 10
2135.38733989
 20
342.99507037
  0
VERTEX
  8
84
 10
2133.12493084
 20
335.37879114
  0
VERTEX
  8
84
 10
2131.51807119
 20
327.36052678
  0
VERTEX
  8
84
 10
2113.12089924
 20
327.44120843
  0
VERTEX
  8
84
 10
2094.72995470
 20
327.33526765
  0
VERTEX
  8
84
 10
2076.34329790
 20
327.05129787
  0
VERTEX
  8
84
 10
2057.95898916
 20
326.59789250
  0
VERTEX
  8
84
 10
2039.57682527
 20
325.97793296
  0
VERTEX
  8
84
 10
2021.20088853
 20
325.17135980
  0
VERTEX
  8
84
 10
2002.83699771
 20
324.15239381
  0
VERTEX
  8
84
 10
1984.49097158
 20
322.89525578
  0
VERTEX
  8
84
 10
1966.16922519
 20
321.38006509
  0
VERTEX
  8
84
 10
1947.86921813
 20
319.60956920
  0
VERTEX
  8
84
 10
1929.58901113
 20
317.59235973
  0
VERTEX
  8
84
 10
1911.32666494
 20
315.33702824
  0
VERTEX
  8
84
 10
1888.81395190
 20
311.93131725
  0
VERTEX
  8
84
 10
1866.41599170
 20
307.98849115
  0
VERTEX
  8
84
 10
1844.13278434
 20
303.50854993
  0
VERTEX
  8
84
 10
1821.96301582
 20
298.49117950
  0
VERTEX
  8
84
 10
1799.90801378
 20
292.93663011
  0
VERTEX
  8
84
 10
1777.96777822
 20
286.84490178
  0
VERTEX
  8
84
 10
1771.22556140
 20
306.96134327
  0
VERTEX
  8
84
 10
1763.92480947
 20
326.86418889
  0
VERTEX
  8
84
 10
1759.15467896
 20
338.89240258
  0
VERTEX
  8
84
 10
1754.19647958
 20
350.84839821
  0
VERTEX
  8
84
 10
1743.99121572
 20
374.64495060
  0
VERTEX
  8
84
 10
1732.52246572
 20
401.09123967
  0
VERTEX
  8
84
 10
1736.79687978
 20
412.16716740
  0
SEQEND
  0
POINT
  8
2
 10
2069.65332509
 20
435.15422795
  0
TEXT
  8
2
 10
2069.65332509
 20
435.15422795
 40
10.00000000
 50
0.00000000
  1
# 1
  0
POINT
  8
2
 10
1871.22168447
 20
427.56267521
  0
TEXT
  8
2
 10
1871.22168447
 20
427.56267521
 40
10.00000000
 50
0.00000000
  1
# 2
  0
POINT
  8
2
 10
1736.19873525
 20
422.52678654
  0
TEXT
  8
2
 10
1736.19873525
 20
422.52678654
 40
10.00000000
 50
0.00000000
  1
# 3
  0
POINT
  8
3
 10
1727.96902421
 20
442.99107839
  0
POINT
  8
3
 10
1719.01270009
 20
463.12175725
  0
POINT
  8
3
 10
1709.31914405
 20
482.91977829
  0
POINT
  8
3
 10
1698.96094228
 20
502.38176701
  0
POINT
  8
3
 10
1688.01008243
 20
521.50552294
  0
POINT
  8
2
 10
1676.45654775
 20
540.29082463
  0
TEXT
  8
2
 10
1676.45654775
 20
540.29082463
 40
10.00000000
 50
0.00000000
  1
# 4
  0
POINT
  8
3
 10
1696.43799306
 20
551.54875920
  0
POINT
  8
3
 10
1716.71484853
 20
562.20720646
  0
POINT
  8
3
 10
1737.00195791
 20
572.91252873
  0
POINT
  8
3
 10
1756.74316884
 20
584.83757756
  0
POINT
  8
3
 10
1766.80771763
 20
590.28052823
  0
POINT
  8
3
 10
1777.29980947
 20
594.63396428
  0
POINT
  8
3
 10
1788.31009978
 20
597.40540773
  0
POINT
  8
2
 10
1799.79541494
 20
598.64861271
  0
TEXT
  8
2
 10
1799.79541494
 20
598.64861271
 40
10.00000000
 50
0.00000000
  1
# 5
  0
POINT
  8
3
 10
1801.82303646
 20
598.71183101
  0
POINT
  8
3
 10
1805.87576063
 20
598.71822866
  0
POINT
  8
3
 10
1809.15315040
 20
598.60622798
  0
POINT
  8
2
 10
1810.79102041
 20
598.51091740
  0
TEXT
  8
2
 10
1810.79102041
 20
598.51091740
 40
10.00000000
 50
0.00000000
  1
# 6
  0
POINT
  8
2
 10
2011.66895009
 20
598.98833439
  0
TEXT
  8
2
 10
2011.66895009
 20
598.98833439
 40
10.00000000
 50
0.00000000
  1
# 7
  0
POINT
  8
3
 10
2015.72125273
 20
599.05849612
  0
POINT
  8
3
 10
2023.82617120
 20
599.14049789
  0
POINT
  8
3
 10
2032.04449198
 20
599.14424695
  0
POINT
  8
2
 10
2036.15381337
 20
599.11614201
  0
TEXT
  8
2
 10
2036.15381337
 20
599.11614201
 40
10.00000000
 50
0.00000000
  1
# 8
  0
POINT
  8
3
 10
2056.44693809
 20
599.07288765
  0
POINT
  8
3
 10
2076.50391103
 20
597.15557072
  0
POINT
  8
3
 10
2087.95314257
 20
595.23005138
  0
POINT
  8
3
 10
2099.30186919
 20
592.67602998
  0
POINT
  8
3
 10
2110.47524955
 20
589.45687173
  0
POINT
  8
3
 10
2121.39844228
 20
585.53594182
  0
POINT
  8
3
 10
2141.58318366
 20
576.31371186
  0
POINT
  8
3
 10
2161.46973134
 20
566.40093205
  0
POINT
  8
3
 10
2181.42539088
 20
557.53040461
  0
POINT
  8
3
 10
2201.71973134
 20
549.43926213
  0
POINT
  8
3
 10
2218.97342423
 20
542.93140969
  0
POINT
  8
3
 10
2236.36816884
 20
536.84075139
  0
POINT
  8
3
 10
2256.76611918
 20
530.42608543
  0
POINT
  8
3
 10
2277.24414541
 20
524.23735783
  0
POINT
  8
3
 10
2296.45590686
 20
518.25083959
  0
POINT
  8
3
 10
2315.74219228
 20
512.54766057
  0
POINT
  8
3
 10
2336.05885148
 20
507.39045088
  0
POINT
  8
3
 10
2356.50244619
 20
502.70940373
  0
POINT
  8
3
 10
2376.95721602
 20
498.09068400
  0
POINT
  8
2
 10
2397.43701650
 20
493.59404728
  0
TEXT
  8
2
 10
2397.43701650
 20
493.59404728
 40
10.00000000
 50
0.00000000
  1
# 9
  0
POINT
  8
2
 10
2354.87158681
 20
387.07732365
  0
TEXT
  8
2
 10
2354.87158681
 20
387.07732365
 40
10.00000000
 50
0.00000000
  1
# 10
  0
POINT
  8
3
 10
2333.33870048
 20
393.06975153
  0
POINT
  8
3
 10
2311.53027822
 20
397.60326359
  0
POINT
  8
3
 10
2289.42416849
 20
400.69529053
  0
POINT
  8
3
 10
2267.16602041
 20
402.22460148
  0
POINT
  8
3
 10
2244.90829123
 20
402.07071115
  0
POINT
  8
2
 10
2222.62207509
 20
400.25176213
  0
TEXT
  8
2
 10
2222.62207509
 20
400.25176213
 40
10.00000000
 50
0.00000000
  1
# 11
  0
POINT
  8
3
 10
2214.61814712
 20
399.46983216
  0
POINT
  8
3
 10
2206.78350599
 20
398.19836079
  0
POINT
  8
3
 10
2191.46313955
 20
394.31914494
  0
POINT
  8
3
 10
2183.94905516
 20
391.76460782
  0
POINT
  8
3
 10
2176.60327799
 20
388.72362986
  0
POINT
  8
3
 10
2169.54436519
 20
385.09749013
  0
POINT
  8
3
 10
2162.89087392
 20
380.78746769
  0
POINT
  8
3
 10
2156.75957662
 20
375.74222795
  0
POINT
  8
3
 10
2151.19429504
 20
370.04346374
  0
POINT
  8
3
 10
2146.23896062
 20
363.81742476
  0
POINT
  8
3
 10
2141.93750478
 20
357.19036076
  0
POINT
  8
3
 10
2138.31997299
 20
350.25153630
  0
POINT
  8
3
 10
2135.38733989
 20
342.99507037
  0
POINT
  8
3
 10
2133.12493084
 20
335.37879114
  0
POINT
  8
2
 10
2131.51807119
 20
327.36052678
  0
TEXT
  8
2
 10
2131.51807119
 20
327.36052678
 40
10.00000000
 50
0.00000000
  1
# 12
  0
POINT
  8
3
 10
2113.12089924
 20
327.44120843
  0
POINT
  8
3
 10
2094.72995470
 20
327.33526765
  0
POINT
  8
3
 10
2076.34329790
 20
327.05129787
  0
POINT
  8
3
 10
2057.95898916
 20
326.59789250
  0
POINT
  8
3
 10
2039.57682527
 20
325.97793296
  0
POINT
  8
3
 10
2021.20088853
 20
325.17135980
  0
POINT
  8
3
 10
2002.83699771
 20
324.15239381
  0
POINT
  8
3
 10
1984.49097158
 20
322.89525578
  0
POINT
  8
3
 10
1966.16922519
 20
321.38006509
  0
POINT
  8
3
 10
1947.86921813
 20
319.60956920
  0
POINT
  8
3
 10
1929.58901113
 20
317.59235973
  0
POINT
  8
2
 10
1911.32666494
 20
315.33702824
  0
TEXT
  8
2
 10
1911.32666494
 20
315.33702824
 40
10.00000000
 50
0.00000000
  1
# 13
  0
POINT
  8
3
 10
1888.81395190
 20
311.93131725
  0
POINT
  8
3
 10
1866.41599170
 20
307.98849115
  0
POINT
  8
3
 10
1844.13278434
 20
303.50854993
  0
POINT
  8
3
 10
1821.96301582
 20
298.49117950
  0
POINT
  8
3
 10
1799.90801378
 20
292.93663011
  0
POINT
  8
2
 10
1777.96777822
 20
286.84490178
  0
TEXT
  8
2
 10
1777.96777822
 20
286.84490178
 40
10.00000000
 50
0.00000000
  1
# 14
  0
POINT
  8
3
 10
1771.22556140
 20
306.96134327
  0
POINT
  8
3
 10
1763.92480947
 20
326.86418889
  0
POINT
  8
3
 10
1759.15467896
 20
338.89240258
  0
POINT
  8
3
 10
1754.19647958
 20
350.84839821
  0
POINT
  8
3
 10
1743.99121572
 20
374.64495060
  0
POINT
  8
2
 10
1732.52246572
 20
401.09123967
  0
TEXT
  8
2
 10
1732.52246572
 20
401.09123967
 40
10.00000000
 50
0.00000000
  1
# 15
  0
POINT
  8
2
 10
1736.79687978
 20
412.16716740
  0
TEXT
  8
2
 10
1736.79687978
 20
412.16716740
 40
10.00000000
 50
0.00000000
  1
# 16
  0
POINT
  8
4
 10
1871.22168447
 20
427.56267521
 30
7.50000000
 50
92.16344234
  0
TEXT
  8
1
 10
1871.22168447
 20
427.56267521
 40
10.00000000
 50
0.00000000
  1
# 17
  0
POINT
  8
4
 10
1810.79102041
 20
598.51091740
 30
7.50000000
 50
268.40289200
  0
TEXT
  8
1
 10
1810.79102041
 20
598.51091740
 40
10.00000000
 50
0.00000000
  1
# 18
  0
POINT
  8
4
 10
2011.66895009
 20
598.98833439
 30
7.50000000
 50
270.56404711
  0
TEXT
  8
1
 10
2011.66895009
 20
598.98833439
 40
10.00000000
 50
0.00000000
  1
# 19
  0
POINT
  8
4
 10
2036.15381337
 20
599.11614201
 30
5.70635741
 50
304.47292084
  0
TEXT
  8
1
 10
2036.15381337
 20
599.11614201
 40
10.00000000
 50
0.00000000
  1
# 20
  0
ENDBLK
  0
BLOCK
  8
1
  2
2
 70
64
 10
0.0
 20
0.0
  0
LINE
  8
7
 10
1581.69600871
 20
910.33868473
 11
1940.52962687
 21
910.33868473
  0
TEXT
  8
1
 10
0.00000000
 20
0.00000000
 40
20.00000000
 50
0.00000000
  1
Size: 48
  0
TEXT
  8
1
 10
1761.11281779
 20
925.33868473
 40
20.00000000
 50
0.00000000
  1
Piece Name: ABONNO.P
  0
TEXT
  8
1
 10
1761.11281779
 20
925.33868473
 40
20.00000000
 50
0.00000000
  1
Quantity: 1
  0
TEXT
  8
1
 10
1761.11281779
 20
925.33868473
 40
20.00000000
 50
0.00000000
  1
Rotation: 0
  0
TEXT
  8
1
 10
1761.11281779
 20
925.33868473
 40
20.00000000
 50
0.00000000
  1
Tilt: 0
  0
TEXT
  8
1
 10
1761.11281779
 20
925.33868473
 40
20.00000000
 50
0.00000000
  1
Fold: N
  0
TEXT
  8
1
 10
1761.11281779
 20
925.33868473
 40
20.00000000
 50
0.00000000
  1
Material: 1
  0
POLYLINE
  8
1
 66
1
 70
1
  0
VERTEX
  8
1
 10
2188.53278676
 20
793.66522119
  0
VERTEX
  8
1
 10
2169.46943067
 20
799.44957944
  0
VERTEX
  8
1
 10
2150.35875253
 20
805.05697251
  0
VERTEX
  8
1
 10
2131.20032588
 20
810.48853997
  0
VERTEX
  8
1
 10
2111.99372426
 20
815.74542139
  0
VERTEX
  8
1
 10
2092.92735628
 20
820.77913211
  0
VERTEX
  8
1
 10
2073.81459149
 20
825.63931118
  0
VERTEX
  8
1
 10
2054.65668850
 20
830.32259541
  0
VERTEX
  8
1
 10
2035.45490590
 20
834.82562158
  0
VERTEX
  8
1
 10
2016.41333253
 20
839.08281397
  0
VERTEX
  8
1
 10
1997.31330434
 20
843.05474756
  0
VERTEX
  8
1
 10
1978.14923181
 20
846.65801533
  0
VERTEX
  8
1
 10
1958.91559926
 20
849.90594385
  0
VERTEX
  8
1
 10
1943.77471255
 20
852.02676257
  0
VERTEX
  8
1
 10
1928.61450302
 20
853.91546036
  0
VERTEX
  8
1
 10
1913.43296662
 20
855.56313280
  0
VERTEX
  8
1
 10
1898.22809926
 20
856.96087549
  0
VERTEX
  8
1
 10
1882.99844939
 20
858.10577266
  0
VERTEX
  8
1
 10
1867.74947462
 20
859.01852456
  0
VERTEX
  8
1
 10
1852.48718765
 20
859.72584670
  0
VERTEX
  8
1
 10
1837.21760122
 20
860.25445459
  0
VERTEX
  8
1
 10
1821.94343843
 20
860.63166879
  0
VERTEX
  8
1
 10
1806.66822081
 20
860.88691318
  0
VERTEX
  8
1
 10
1776.11555043
 20
861.15179346
  0
VERTEX
  8
1
 10
1745.55876493
 20
861.24845408
  0
VERTEX
  8
1
 10
1715.00178090
 20
861.21124170
  0
VERTEX
  8
1
 10
1684.44995558
 20
861.03484447
  0
VERTEX
  8
1
 10
1653.89875356
 20
860.72003076
  0
VERTEX
  8
1
 10
1508.82746450
 20
860.70660303
  0
VERTEX
  8
1
 10
1491.24348012
 20
890.73199365
  0
VERTEX
  8
1
 10
1513.86945668
 20
903.32086084
  0
VERTEX
  8
1
 10
1556.79035512
 20
927.67193506
  0
VERTEX
  8
1
 10
1568.56713881
 20
934.14982986
  0
VERTEX
  8
1
 10
1580.51935903
 20
940.34429834
  0
VERTEX
  8
1
 10
1591.44269887
 20
945.01910303
  0
VERTEX
  8
1
 10
1596.75649636
 20
946.39308713
  0
VERTEX
  8
1
 10
1602.18390981
 20
947.27105615
  0
VERTEX
  8
1
 10
1610.69367543
 20
947.85699365
  0
VERTEX
  8
1
 10
1622.25910512
 20
948.30425928
  0
VERTEX
  8
1
 10
1661.85065786
 20
948.41924951
  0
VERTEX
  8
1
 10
1761.67536489
 20
948.91876123
  0
VERTEX
  8
1
 10
1823.13776723
 20
948.78301905
  0
VERTEX
  8
1
 10
1847.62287465
 20
948.91290186
  0
VERTEX
  8
1
 10
1858.64196361
 20
949.22983924
  0
VERTEX
  8
1
 10
1869.56190104
 20
948.96550141
  0
VERTEX
  8
1
 10
1880.40166854
 20
948.12209891
  0
VERTEX
  8
1
 10
1891.18024770
 20
946.70184229
  0
VERTEX
  8
1
 10
1901.86102391
 20
944.71463483
  0
VERTEX
  8
1
 10
1912.44336721
 20
942.15080113
  0
VERTEX
  8
1
 10
1922.87071325
 20
939.00375388
  0
VERTEX
  8
1
 10
1933.08649770
 20
935.26690576
  0
VERTEX
  8
1
 10
1953.08690206
 20
926.19149965
  0
VERTEX
  8
1
 10
1972.81086293
 20
916.50274561
  0
VERTEX
  8
1
 10
1992.48831057
 20
907.80058991
  0
VERTEX
  8
1
 10
2012.44977895
 20
899.73126123
  0
VERTEX
  8
1
 10
2029.85193603
 20
892.97149988
  0
VERTEX
  8
1
 10
2047.43586293
 20
886.75335596
  0
VERTEX
  8
1
 10
2065.72301699
 20
881.20283291
  0
VERTEX
  8
1
 10
2084.08015004
 20
875.84210108
  0
VERTEX
  8
1
 10
2105.62702389
 20
868.99970188
  0
VERTEX
  8
1
 10
2127.23176137
 20
862.39837549
  0
VERTEX
  8
1
 10
2147.54911256
 20
857.25098444
  0
VERTEX
  8
1
 10
2168.01032583
 20
852.62884424
  0
VERTEX
  8
1
 10
2208.91071645
 20
843.39361475
  0
SEQEND
  0
POLYLINE
  8
84
 66
1
 70
1
  0
VERTEX
  8
84
 10
2188.53278676
 20
793.66522119
  0
VERTEX
  8
84
 10
2169.46943067
 20
799.44957944
  0
VERTEX
  8
84
 10
2150.35875253
 20
805.05697251
  0
VERTEX
  8
84
 10
2131.20032588
 20
810.48853997
  0
VERTEX
  8
84
 10
2111.99372426
 20
815.74542139
  0
VERTEX
  8
84
 10
2092.92735628
 20
820.77913211
  0
VERTEX
  8
84
 10
2073.81459149
 20
825.63931118
  0
VERTEX
  8
84
 10
2054.65668850
 20
830.32259541
  0
VERTEX
  8
84
 10
2035.45490590
 20
834.82562158
  0
VERTEX
  8
84
 10
2016.41333253
 20
839.08281397
  0
VERTEX
  8
84
 10
1997.31330434
 20
843.05474756
  0
VERTEX
  8
84
 10
1978.14923181
 20
846.65801533
  0
VERTEX
  8
84
 10
1958.91559926
 20
849.90594385
  0
VERTEX
  8
84
 10
1943.77471255
 20
852.02676257
  0
VERTEX
  8
84
 10
1928.61450302
 20
853.91546036
  0
VERTEX
  8
84
 10
1913.43296662
 20
855.56313280
  0
VERTEX
  8
84
 10
1898.22809926
 20
856.96087549
  0
VERTEX
  8
84
 10
1882.99844939
 20
858.10577266
  0
VERTEX
  8
84
 10
1867.74947462
 20
859.01852456
  0
VERTEX
  8
84
 10
1852.48718765
 20
859.72584670
  0
VERTEX
  8
84
 10
1837.21760122
 20
860.25445459
  0
VERTEX
  8
84
 10
1821.94343843
 20
860.63166879
  0
VERTEX
  8
84
 10
1806.66822081
 20
860.88691318
  0
VERTEX
  8
84
 10
1776.11555043
 20
861.15179346
  0
VERTEX
  8
84
 10
1745.55876493
 20
861.24845408
  0
VERTEX
  8
84
 10
1715.00178090
 20
861.21124170
  0
VERTEX
  8
84
 10
1684.44995558
 20
861.03484447
  0
VERTEX
  8
84
 10
1653.89875356
 20
860.72003076
  0
VERTEX
  8
84
 10
1508.82746450
 20
860.70660303
  0
VERTEX
  8
84
 10
1491.24348012
 20
890.73199365
  0
VERTEX
  8
84
 10
1513.86945668
 20
903.32086084
  0
VERTEX
  8
84
 10
1556.79035512
 20
927.67193506
  0
VERTEX
  8
84
 10
1568.56713881
 20
934.14982986
  0
VERTEX
  8
84
 10
1580.51935903
 20
940.34429834
  0
VERTEX
  8
84
 10
1591.44269887
 20
945.01910303
  0
VERTEX
  8
84
 10
1596.75649636
 20
946.39308713
  0
VERTEX
  8
84
 10
1602.18390981
 20
947.27105615
  0
VERTEX
  8
84
 10
1610.69367543
 20
947.85699365
  0
VERTEX
  8
84
 10
1622.25910512
 20
948.30425928
  0
VERTEX
  8
84
 10
1661.85065786
 20
948.41924951
  0
VERTEX
  8
84
 10
1761.67536489
 20
948.91876123
  0
VERTEX
  8
84
 10
1823.13776723
 20
948.78301905
  0
VERTEX
  8
84
 10
1847.62287465
 20
948.91290186
  0
VERTEX
  8
84
 10
1858.64196361
 20
949.22983924
  0
VERTEX
  8
84
 10
1869.56190104
 20
948.96550141
  0
VERTEX
  8
84
 10
1880.40166854
 20
948.12209891
  0
VERTEX
  8
84
 10
1891.18024770
 20
946.70184229
  0
VERTEX
  8
84
 10
1901.86102391
 20
944.71463483
  0
VERTEX
  8
84
 10
1912.44336721
 20
942.15080113
  0
VERTEX
  8
84
 10
1922.87071325
 20
939.00375388
  0
VERTEX
  8
84
 10
1933.08649770
 20
935.26690576
  0
VERTEX
  8
84
 10
1953.08690206
 20
926.19149965
  0
VERTEX
  8
84
 10
1972.81086293
 20
916.50274561
  0
VERTEX
  8
84
 10
1992.48831057
 20
907.80058991
  0
VERTEX
  8
84
 10
2012.44977895
 20
899.73126123
  0
VERTEX
  8
84
 10
2029.85193603
 20
892.97149988
  0
VERTEX
  8
84
 10
2047.43586293
 20
886.75335596
  0
VERTEX
  8
84
 10
2065.72301699
 20
881.20283291
  0
VERTEX
  8
84
 10
2084.08015004
 20
875.84210108
  0
VERTEX
  8
84
 10
2105.62702389
 20
868.99970188
  0
VERTEX
  8
84
 10
2127.23176137
 20
862.39837549
  0
VERTEX
  8
84
 10
2147.54911256
 20
857.25098444
  0
VERTEX
  8
84
 10
2168.01032583
 20
852.62884424
  0
VERTEX
  8
84
 10
2208.91071645
 20
843.39361475
  0
SEQEND
  0
POINT
  8
2
 10
2188.53278676
 20
793.66522119
  0
TEXT
  8
2
 10
2188.53278676
 20
793.66522119
 40
10.00000000
 50
0.00000000
  1
# 21
  0
POINT
  8
3
 10
2169.46943067
 20
799.44957944
  0
POINT
  8
3
 10
2150.35875253
 20
805.05697251
  0
POINT
  8
3
 10
2131.20032588
 20
810.48853997
  0
POINT
  8
3
 10
2111.99372426
 20
815.74542139
  0
POINT
  8
3
 10
2092.92735628
 20
820.77913211
  0
POINT
  8
3
 10
2073.81459149
 20
825.63931118
  0
POINT
  8
3
 10
2054.65668850
 20
830.32259541
  0
POINT
  8
3
 10
2035.45490590
 20
834.82562158
  0
POINT
  8
3
 10
2016.41333253
 20
839.08281397
  0
POINT
  8
3
 10
1997.31330434
 20
843.05474756
  0
POINT
  8
3
 10
1978.14923181
 20
846.65801533
  0
POINT
  8
2
 10
1958.91559926
 20
849.90594385
  0
TEXT
  8
2
 10
1958.91559926
 20
849.90594385
 40
10.00000000
 50
0.00000000
  1
# 22
  0
POINT
  8
3
 10
1943.77471255
 20
852.02676257
  0
POINT
  8
3
 10
1928.61450302
 20
853.91546036
  0
POINT
  8
3
 10
1913.43296662
 20
855.56313280
  0
POINT
  8
3
 10
1898.22809926
 20
856.96087549
  0
POINT
  8
3
 10
1882.99844939
 20
858.10577266
  0
POINT
  8
3
 10
1867.74947462
 20
859.01852456
  0
POINT
  8
3
 10
1852.48718765
 20
859.72584670
  0
POINT
  8
3
 10
1837.21760122
 20
860.25445459
  0
POINT
  8
3
 10
1821.94343843
 20
860.63166879
  0
POINT
  8
3
 10
1806.66822081
 20
860.88691318
  0
POINT
  8
3
 10
1776.11555043
 20
861.15179346
  0
POINT
  8
3
 10
1745.55876493
 20
861.24845408
  0
POINT
  8
3
 10
1715.00178090
 20
861.21124170
  0
POINT
  8
3
 10
1684.44995558
 20
861.03484447
  0
POINT
  8
2
 10
1653.89875356
 20
860.72003076
  0
TEXT
  8
2
 10
1653.89875356
 20
860.72003076
 40
10.00000000
 50
0.00000000
  1
# 23
  0
POINT
  8
2
 10
1508.82746450
 20
860.70660303
  0
TEXT
  8
2
 10
1508.82746450
 20
860.70660303
 40
10.00000000
 50
0.00000000
  1
# 24
  0
POINT
  8
2
 10
1491.24348012
 20
890.73199365
  0
TEXT
  8
2
 10
1491.24348012
 20
890.73199365
 40
10.00000000
 50
0.00000000
  1
# 25
  0
POINT
  8
3
 10
1513.86945668
 20
903.32086084
  0
POINT
  8
3
 10
1556.79035512
 20
927.67193506
  0
POINT
  8
3
 10
1568.56713881
 20
934.14982986
  0
POINT
  8
3
 10
1580.51935903
 20
940.34429834
  0
POINT
  8
3
 10
1591.44269887
 20
945.01910303
  0
POINT
  8
3
 10
1596.75649636
 20
946.39308713
  0
POINT
  8
3
 10
1602.18390981
 20
947.27105615
  0
POINT
  8
2
 10
1610.69367543
 20
947.85699365
  0
TEXT
  8
2
 10
1610.69367543
 20
947.85699365
 40
10.00000000
 50
0.00000000
  1
# 26
  0
POINT
  8
2
 10
1622.25910512
 20
948.30425928
  0
TEXT
  8
2
 10
1622.25910512
 20
948.30425928
 40
10.00000000
 50
0.00000000
  1
# 27
  0
POINT
  8
3
 10
1661.85065786
 20
948.41924951
  0
POINT
  8
3
 10
1761.67536489
 20
948.91876123
  0
POINT
  8
2
 10
1823.13776723
 20
948.78301905
  0
TEXT
  8
2
 10
1823.13776723
 20
948.78301905
 40
10.00000000
 50
0.00000000
  1
# 28
  0
POINT
  8
2
 10
1847.62287465
 20
948.91290186
  0
TEXT
  8
2
 10
1847.62287465
 20
948.91290186
 40
10.00000000
 50
0.00000000
  1
# 29
  0
POINT
  8
3
 10
1858.64196361
 20
949.22983924
  0
POINT
  8
3
 10
1869.56190104
 20
948.96550141
  0
POINT
  8
3
 10
1880.40166854
 20
948.12209891
  0
POINT
  8
3
 10
1891.18024770
 20
946.70184229
  0
POINT
  8
3
 10
1901.86102391
 20
944.71463483
  0
POINT
  8
3
 10
1912.44336721
 20
942.15080113
  0
POINT
  8
3
 10
1922.87071325
 20
939.00375388
  0
POINT
  8
3
 10
1933.08649770
 20
935.26690576
  0
POINT
  8
3
 10
1953.08690206
 20
926.19149965
  0
POINT
  8
3
 10
1972.81086293
 20
916.50274561
  0
POINT
  8
3
 10
1992.48831057
 20
907.80058991
  0
POINT
  8
3
 10
2012.44977895
 20
899.73126123
  0
POINT
  8
3
 10
2029.85193603
 20
892.97149988
  0
POINT
  8
3
 10
2047.43586293
 20
886.75335596
  0
POINT
  8
3
 10
2065.72301699
 20
881.20283291
  0
POINT
  8
3
 10
2084.08015004
 20
875.84210108
  0
POINT
  8
3
 10
2105.62702389
 20
868.99970188
  0
POINT
  8
3
 10
2127.23176137
 20
862.39837549
  0
POINT
  8
3
 10
2147.54911256
 20
857.25098444
  0
POINT
  8
3
 10
2168.01032583
 20
852.62884424
  0
POINT
  8
2
 10
2208.91071645
 20
843.39361475
  0
TEXT
  8
2
 10
2208.91071645
 20
843.39361475
 40
10.00000000
 50
0.00000000
  1
# 30
  0
POINT
  8
4
 10
1958.91559926
 20
849.90594385
 30
7.50000000
 50
441.22068930
  0
TEXT
  8
1
 10
1958.91559926
 20
849.90594385
 40
10.00000000
 50
0.00000000
  1
# 31
  0
POINT
  8
4
 10
1653.89875356
 20
860.72003076
 30
7.50000000
 50
90.29784228
  0
TEXT
  8
1
 10
1653.89875356
 20
860.72003076
 40
10.00000000
 50
0.00000000
  1
# 32
  0
POINT
  8
4
 10
1622.25910512
 20
948.30425928
 30
7.50000000
 50
271.19054261
  0
TEXT
  8
1
 10
1622.25910512
 20
948.30425928
 40
10.00000000
 50
0.00000000
  1
# 33
  0
POINT
  8
4
 10
1823.13776723
 20
948.78301905
 30
7.50000000
 50
270.08869322
  0
TEXT
  8
1
 10
1823.13776723
 20
948.78301905
 40
10.00000000
 50
0.00000000
  1
# 34
  0
ENDBLK
  0
BLOCK
  8
1
  2
3
 70
64
 10
0.0
 20
0.0
  0
LINE
  8
7
 10
2662.75699662
 20
1419.25915401
 11
2724.20816849
 21
1419.25915401
  0
TEXT
  8
1
 10
0.00000000
 20
0.00000000
 40
20.00000000
 50
0.00000000
  1
Size: 48
  0
TEXT
  8
1
 10
2693.48258255
 20
1426.75915401
 40
10.00000000
 50
0.00000000
  1
Piece Name: ABONNO.T
  0
TEXT
  8
1
 10
2693.48258255
 20
1426.75915401
 40
10.00000000
 50
0.00000000
  1
Quantity: 1
  0
TEXT
  8
1
 10
2693.48258255
 20
1426.75915401
 40
10.00000000
 50
0.00000000
  1
Rotation: 0
  0
TEXT
  8
1
 10
2693.48258255
 20
1426.75915401
 40
10.00000000
 50
0.00000000
  1
Tilt: 0
  0
TEXT
  8
1
 10
2693.48258255
 20
1426.75915401
 40
10.00000000
 50
0.00000000
  1
Fold: N
  0
TEXT
  8
1
 10
2693.48258255
 20
1426.75915401
 40
10.00000000
 50
0.00000000
  1
Material: 1
  0
POLYLINE
  8
1
 66
1
 70
1
  0
VERTEX
  8
1
 10
2676.22564750
 20
1376.47667415
  0
VERTEX
  8
1
 10
2672.97752045
 20
1389.92039479
  0
VERTEX
  8
1
 10
2669.62290574
 20
1403.33519239
  0
VERTEX
  8
1
 10
2666.15535528
 20
1416.71910734
  0
VERTEX
  8
1
 10
2662.56842093
 20
1430.07018001
  0
VERTEX
  8
1
 10
2658.85993274
 20
1443.38782989
  0
VERTEX
  8
1
 10
2655.04495570
 20
1456.67655640
  0
VERTEX
  8
1
 10
2647.17291312
 20
1483.19075496
  0
VERTEX
  8
1
 10
2639.00039865
 20
1509.62671241
  0
VERTEX
  8
1
 10
2634.69337623
 20
1522.76890343
  0
VERTEX
  8
1
 10
2630.16021781
 20
1535.82918269
  0
VERTEX
  8
1
 10
2625.35788662
 20
1548.78135205
  0
VERTEX
  8
1
 10
2620.29026843
 20
1561.63603721
  0
VERTEX
  8
1
 10
2614.97708294
 20
1574.40107686
  0
VERTEX
  8
1
 10
2609.43804984
 20
1587.08430965
  0
VERTEX
  8
1
 10
2615.84674125
 20
1597.23421199
  0
VERTEX
  8
1
 10
2629.26959281
 20
1595.37434871
  0
VERTEX
  8
1
 10
2666.08355765
 20
1590.44099910
  0
VERTEX
  8
1
 10
2732.34039359
 20
1386.21202571
  0
VERTEX
  8
1
 10
2723.10162406
 20
1380.18150813
  0
SEQEND
  0
POLYLINE
  8
84
 66
1
 70
1
  0
VERTEX
  8
84
 10
2676.22564750
 20
1376.47667415
  0
VERTEX
  8
84
 10
2672.97752045
 20
1389.92039479
  0
VERTEX
  8
84
 10
2669.62290574
 20
1403.33519239
  0
VERTEX
  8
84
 10
2666.15535528
 20
1416.71910734
  0
VERTEX
  8
84
 10
2662.56842093
 20
1430.07018001
  0
VERTEX
  8
84
 10
2658.85993274
 20
1443.38782989
  0
VERTEX
  8
84
 10
2655.04495570
 20
1456.67655640
  0
VERTEX
  8
84
 10
2647.17291312
 20
1483.19075496
  0
VERTEX
  8
84
 10
2639.00039865
 20
1509.62671241
  0
VERTEX
  8
84
 10
2634.69337623
 20
1522.76890343
  0
VERTEX
  8
84
 10
2630.16021781
 20
1535.82918269
  0
VERTEX
  8
84
 10
2625.35788662
 20
1548.78135205
  0
VERTEX
  8
84
 10
2620.29026843
 20
1561.63603721
  0
VERTEX
  8
84
 10
2614.97708294
 20
1574.40107686
  0
VERTEX
  8
84
 10
2609.43804984
 20
1587.08430965
  0
VERTEX
  8
84
 10
2615.84674125
 20
1597.23421199
  0
VERTEX
  8
84
 10
2629.26959281
 20
1595.37434871
  0
VERTEX
  8
84
 10
2666.08355765
 20
1590.44099910
  0
VERTEX
  8
84
 10
2732.34039359
 20
1386.21202571
  0
VERTEX
  8
84
 10
2723.10162406
 20
1380.18150813
  0
SEQEND
  0
POINT
  8
2
 10
2676.22564750
 20
1376.47667415
  0
TEXT
  8
2
 10
2676.22564750
 20
1376.47667415
 40
10.00000000
 50
0.00000000
  1
# 35
  0
POINT
  8
3
 10
2672.97752045
 20
1389.92039479
  0
POINT
  8
3
 10
2669.62290574
 20
1403.33519239
  0
POINT
  8
3
 10
2666.15535528
 20
1416.71910734
  0
POINT
  8
3
 10
2662.56842093
 20
1430.07018001
  0
POINT
  8
3
 10
2658.85993274
 20
1443.38782989
  0
POINT
  8
3
 10
2655.04495570
 20
1456.67655640
  0
POINT
  8
3
 10
2647.17291312
 20
1483.19075496
  0
POINT
  8
3
 10
2639.00039865
 20
1509.62671241
  0
POINT
  8
3
 10
2634.69337623
 20
1522.76890343
  0
POINT
  8
3
 10
2630.16021781
 20
1535.82918269
  0
POINT
  8
3
 10
2625.35788662
 20
1548.78135205
  0
POINT
  8
3
 10
2620.29026843
 20
1561.63603721
  0
POINT
  8
3
 10
2614.97708294
 20
1574.40107686
  0
POINT
  8
2
 10
2609.43804984
 20
1587.08430965
  0
TEXT
  8
2
 10
2609.43804984
 20
1587.08430965
 40
10.00000000
 50
0.00000000
  1
# 36
  0
POINT
  8
2
 10
2615.84674125
 20
1597.23421199
  0
TEXT
  8
2
 10
2615.84674125
 20
1597.23421199
 40
10.00000000
 50
0.00000000
  1
# 37
  0
POINT
  8
2
 10
2629.26959281
 20
1595.37434871
  0
TEXT
  8
2
 10
2629.26959281
 20
1595.37434871
 40
10.00000000
 50
0.00000000
  1
# 38
  0
POINT
  8
2
 10
2666.08355765
 20
1590.44099910
  0
TEXT
  8
2
 10
2666.08355765
 20
1590.44099910
 40
10.00000000
 50
0.00000000
  1
# 39
  0
POINT
  8
2
 10
2732.34039359
 20
1386.21202571
  0
TEXT
  8
2
 10
2732.34039359
 20
1386.21202571
 40
10.00000000
 50
0.00000000
  1
# 40
  0
POINT
  8
2
 10
2723.10162406
 20
1380.18150813
  0
TEXT
  8
2
 10
2723.10162406
 20
1380.18150813
 40
10.00000000
 50
0.00000000
  1
# 41
  0
POINT
  8
13
 10
2659.55328422
 20
1516.84749324
  0
TEXT
  8
13
 10
2659.55328422
 20
1516.84749324
 40
10.00000000
 50
0.00000000
  1
# 42
  0
POINT
  8
13
 10
2684.75347953
 20
1433.64757258
  0
TEXT
  8
13
 10
2684.75347953
 20
1433.64757258
 40
10.00000000
 50
0.00000000
  1
# 43
  0
POINT
  8
4
 10
2629.26959281
 20
1595.37434871
 30
5.00000000
 50
270.00000000
  0
TEXT
  8
1
 10
2629.26959281
 20
1595.37434871
 40
10.00000000
 50
0.00000000
  1
# 44
  0
ENDBLK
  0
BLOCK
  8
1
  2
4
 70
64
 10
0.0
 20
0.0
  0
LINE
  8
7
 10
26.21139670
 20
769.34568232
 11
81.74325705
 21
769.34568232
  0
TEXT
  8
1
 10
0.00000000
 20
0.00000000
 40
10.00000000
 50
0.00000000
  1
Size: 48
  0
TEXT
  8
1
 10
53.97732688
 20
773.09568232
 40
5.00000000
 50
0.00000000
  1
Piece Name: ABONNO.CX
  0
TEXT
  8
1
 10
53.97732688
 20
773.09568232
 40
5.00000000
 50
0.00000000
  1
Quantity: 1
  0
TEXT
  8
1
 10
53.97732688
 20
773.09568232
 40
5.00000000
 50
0.00000000
  1
Rotation: 0
  0
TEXT
  8
1
 10
53.97732688
 20
773.09568232
 40
5.00000000
 50
0.00000000
  1
Tilt: 0
  0
TEXT
  8
1
 10
53.97732688
 20
773.09568232
 40
5.00000000
 50
0.00000000
  1
Fold: N
  0
TEXT
  8
1
 10
53.97732688
 20
773.09568232
 40
5.00000000
 50
0.00000000
  1
Material: 1
  0
POLYLINE
  8
1
 66
1
 70
1
  0
VERTEX
  8
1
 10
34.16350340
 20
775.97300051
  0
VERTEX
  8
1
 10
47.32536863
 20
773.47122477
  0
VERTEX
  8
1
 10
56.85233608
 20
772.41508903
  0
VERTEX
  8
1
 10
66.41191648
 20
772.32720851
  0
VERTEX
  8
1
 10
76.76429870
 20
773.75161749
  0
VERTEX
  8
1
 10
86.88139890
 20
776.51058482
  0
VERTEX
  8
1
 10
98.84017412
 20
781.11856432
  0
VERTEX
  8
1
 10
110.48015379
 20
786.46652125
  0
VERTEX
  8
1
 10
122.52348875
 20
792.39003276
  0
VERTEX
  8
1
 10
135.12077879
 20
769.82362078
  0
VERTEX
  8
1
 10
115.51360105
 20
760.74740313
  0
VERTEX
  8
1
 10
103.66700001
 20
756.19427367
  0
VERTEX
  8
1
 10
91.49846433
 20
752.71894930
  0
VERTEX
  8
1
 10
79.94544093
 20
750.94829163
  0
VERTEX
  8
1
 10
68.22124265
 20
750.49121379
  0
VERTEX
  8
1
 10
58.35844842
 20
751.05629637
  0
VERTEX
  8
1
 10
48.67229246
 20
752.77549838
  0
VERTEX
  8
1
 10
40.60729186
 20
755.37717054
  0
VERTEX
  8
1
 10
32.86699461
 20
758.84920405
  0
VERTEX
  8
1
 10
24.05705808
 20
763.93085574
  0
SEQEND
  0
POLYLINE
  8
84
 66
1
 70
1
  0
VERTEX
  8
84
 10
34.16350340
 20
775.97300051
  0
VERTEX
  8
84
 10
47.32536863
 20
773.47122477
  0
VERTEX
  8
84
 10
56.85233608
 20
772.41508903
  0
VERTEX
  8
84
 10
66.41191648
 20
772.32720851
  0
VERTEX
  8
84
 10
76.76429870
 20
773.75161749
  0
VERTEX
  8
84
 10
86.88139890
 20
776.51058482
  0
VERTEX
  8
84
 10
98.84017412
 20
781.11856432
  0
VERTEX
  8
84
 10
110.48015379
 20
786.46652125
  0
VERTEX
  8
84
 10
122.52348875
 20
792.39003276
  0
VERTEX
  8
84
 10
135.12077879
 20
769.82362078
  0
VERTEX
  8
84
 10
115.51360105
 20
760.74740313
  0
VERTEX
  8
84
 10
103.66700001
 20
756.19427367
  0
VERTEX
  8
84
 10
91.49846433
 20
752.71894930
  0
VERTEX
  8
84
 10
79.94544093
 20
750.94829163
  0
VERTEX
  8
84
 10
68.22124265
 20
750.49121379
  0
VERTEX
  8
84
 10
58.35844842
 20
751.05629637
  0
VERTEX
  8
84
 10
48.67229246
 20
752.77549838
  0
VERTEX
  8
84
 10
40.60729186
 20
755.37717054
  0
VERTEX
  8
84
 10
32.86699461
 20
758.84920405
  0
VERTEX
  8
84
 10
24.05705808
 20
763.93085574
  0
SEQEND
  0
POINT
  8
2
 10
34.16350340
 20
775.97300051
  0
TEXT
  8
2
 10
34.16350340
 20
775.97300051
 40
10.00000000
 50
0.00000000
  1
# 45
  0
POINT
  8
3
 10
47.32536863
 20
773.47122477
  0
POINT
  8
3
 10
56.85233608
 20
772.41508903
  0
POINT
  8
3
 10
66.41191648
 20
772.32720851
  0
POINT
  8
3
 10
76.76429870
 20
773.75161749
  0
POINT
  8
3
 10
86.88139890
 20
776.51058482
  0
POINT
  8
3
 10
98.84017412
 20
781.11856432
  0
POINT
  8
3
 10
110.48015379
 20
786.46652125
  0
POINT
  8
2
 10
122.52348875
 20
792.39003276
  0
TEXT
  8
2
 10
122.52348875
 20
792.39003276
 40
10.00000000
 50
0.00000000
  1
# 46
  0
POINT
  8
2
 10
135.12077879
 20
769.82362078
  0
TEXT
  8
2
 10
135.12077879
 20
769.82362078
 40
10.00000000
 50
0.00000000
  1
# 47
  0
POINT
  8
3
 10
115.51360105
 20
760.74740313
  0
POINT
  8
3
 10
103.66700001
 20
756.19427367
  0
POINT
  8
3
 10
91.49846433
 20
752.71894930
  0
POINT
  8
3
 10
79.94544093
 20
750.94829163
  0
POINT
  8
3
 10
68.22124265
 20
750.49121379
  0
POINT
  8
3
 10
58.35844842
 20
751.05629637
  0
POINT
  8
3
 10
48.67229246
 20
752.77549838
  0
POINT
  8
3
 10
40.60729186
 20
755.37717054
  0
POINT
  8
3
 10
32.86699461
 20
758.84920405
  0
POINT
  8
2
 10
24.05705808
 20
763.93085574
  0
TEXT
  8
2
 10
24.05705808
 20
763.93085574
 40
10.00000000
 50
0.00000000
  1
# 48
  0
ENDBLK
  0
BLOCK
  8
1
  2
5
 70
64
 10
0.0
 20
0.0
  0
LINE
  8
7
 10
805.88610762
 20
426.16813354
 11
1143.94128340
 21
426.16813354
  0
TEXT
  8
1
 10
0.00000000
 20
0.00000000
 40
5.00000000
 50
0.00000000
  1
Size: 48
  0
TEXT
  8
1
 10
974.91369551
 20
441.16813354
 40
20.00000000
 50
0.00000000
  1
Piece Name: ABONNO.DC
  0
TEXT
  8
1
 10
974.91369551
 20
441.16813354
 40
20.00000000
 50
0.00000000
  1
Quantity: 1
  0
TEXT
  8
1
 10
974.91369551
 20
441.16813354
 40
20.00000000
 50
0.00000000
  1
Rotation: 0
  0
TEXT
  8
1
 10
974.91369551
 20
441.16813354
 40
20.00000000
 50
0.00000000
  1
Tilt: 0
  0
TEXT
  8
1
 10
974.91369551
 20
441.16813354
 40
20.00000000
 50
0.00000000
  1
Fold: N
  0
TEXT
  8
1
 10
974.91369551
 20
441.16813354
 40
20.00000000
 50
0.00000000
  1
Material: 1
  0
POLYLINE
  8
1
 66
1
 70
1
  0
VERTEX
  8
1
 10
772.47339717
 20
271.86135559
  0
VERTEX
  8
1
 10
670.50757686
 20
461.50948792
  0
VERTEX
  8
1
 10
682.40357295
 20
476.62740784
  0
VERTEX
  8
1
 10
701.49792479
 20
476.55066875
  0
VERTEX
  8
1
 10
720.59146030
 20
476.56971267
  0
VERTEX
  8
1
 10
739.68417948
 20
476.68453958
  0
VERTEX
  8
1
 10
758.77619338
 20
476.89515100
  0
VERTEX
  8
1
 10
777.86739095
 20
477.20154654
  0
VERTEX
  8
1
 10
796.95777217
 20
477.60372620
  0
VERTEX
  8
1
 10
828.23603893
 20
477.20993598
  0
VERTEX
  8
1
 10
843.87537496
 20
477.09459919
  0
VERTEX
  8
1
 10
859.51490108
 20
477.04806213
  0
VERTEX
  8
1
 10
922.07495967
 20
477.30465393
  0
VERTEX
  8
1
 10
937.71446029
 20
477.32712244
  0
VERTEX
  8
1
 10
953.35391457
 20
477.28330582
  0
VERTEX
  8
1
 10
968.99353985
 20
477.15714568
  0
VERTEX
  8
1
 10
984.63355342
 20
476.93258362
  0
VERTEX
  8
1
 10
1000.27251116
 20
476.59065066
  0
VERTEX
  8
1
 10
1015.90720225
 20
476.10062461
  0
VERTEX
  8
1
 10
1031.53275446
 20
475.42886078
  0
VERTEX
  8
1
 10
1047.14429561
 20
474.54171448
  0
VERTEX
  8
1
 10
1062.73691614
 20
473.41310759
  0
VERTEX
  8
1
 10
1078.31227998
 20
472.04672288
  0
VERTEX
  8
1
 10
1093.87201102
 20
470.45377392
  0
VERTEX
  8
1
 10
1109.41773311
 20
468.64547424
  0
VERTEX
  8
1
 10
1133.59380863
 20
465.29831662
  0
VERTEX
  8
1
 10
1157.66138545
 20
461.32906799
  0
VERTEX
  8
1
 10
1181.67695582
 20
456.71949100
  0
VERTEX
  8
1
 10
1205.57740108
 20
451.52608948
  0
VERTEX
  8
1
 10
1229.39712993
 20
445.79505309
  0
VERTEX
  8
1
 10
1253.09204952
 20
439.57217102
  0
VERTEX
  8
1
 10
1276.67135265
 20
432.89049696
  0
VERTEX
  8
1
 10
1300.13062373
 20
425.80154114
  0
VERTEX
  8
1
 10
1323.43244517
 20
418.35990797
  0
VERTEX
  8
1
 10
1346.61792842
 20
410.54751282
  0
VERTEX
  8
1
 10
1337.11988155
 20
386.34292297
  0
VERTEX
  8
1
 10
1329.55014446
 20
368.28543708
  0
VERTEX
  8
1
 10
1322.33423702
 20
350.09853821
  0
VERTEX
  8
1
 10
1316.84693233
 20
333.75344543
  0
VERTEX
  8
1
 10
1300.87042897
 20
337.96930484
  0
VERTEX
  8
1
 10
1284.74341670
 20
341.41701965
  0
VERTEX
  8
1
 10
1268.46319576
 20
344.09453304
  0
VERTEX
  8
1
 10
1252.06519405
 20
346.01418762
  0
VERTEX
  8
1
 10
1235.58227664
 20
347.18803430
  0
VERTEX
  8
1
 10
1219.07349483
 20
347.61037903
  0
VERTEX
  8
1
 10
1202.59113340
 20
347.27634239
  0
VERTEX
  8
1
 10
1186.11158077
 20
346.18764954
  0
VERTEX
  8
1
 10
1178.11026272
 20
345.34883719
  0
VERTEX
  8
1
 10
1170.28069594
 20
344.02199036
  0
VERTEX
  8
1
 10
1155.03638545
 20
339.96902161
  0
VERTEX
  8
1
 10
1147.59671058
 20
337.26789588
  0
VERTEX
  8
1
 10
1140.32841905
 20
334.07984474
  0
VERTEX
  8
1
 10
1133.30668886
 20
330.35634054
  0
VERTEX
  8
1
 10
1126.60669795
 20
326.04885559
  0
VERTEX
  8
1
 10
1120.32254894
 20
321.14254771
  0
VERTEX
  8
1
 10
1114.52010377
 20
315.67355181
  0
VERTEX
  8
1
 10
1109.28634632
 20
309.70818682
  0
VERTEX
  8
1
 10
1104.70826045
 20
303.31277161
  0
VERTEX
  8
1
 10
1100.87718380
 20
296.58610959
  0
VERTEX
  8
1
 10
1097.75004772
 20
289.47878067
  0
VERTEX
  8
1
 10
1095.29818499
 20
281.96892817
  0
VERTEX
  8
1
 10
1093.49292842
 20
274.03469543
  0
VERTEX
  8
1
 10
1074.98323117
 20
275.97456778
  0
VERTEX
  8
1
 10
1056.45983269
 20
277.64750379
  0
VERTEX
  8
1
 10
1037.92051137
 20
279.05018560
  0
VERTEX
  8
1
 10
1019.36304561
 20
280.17929535
  0
VERTEX
  8
1
 10
1000.78641800
 20
281.03373778
  0
VERTEX
  8
1
 10
982.19608871
 20
281.62123586
  0
VERTEX
  8
1
 10
963.59872274
 20
281.95174341
  0
VERTEX
  8
1
 10
945.00098506
 20
282.03521423
  0
VERTEX
  8
1
 10
926.40817113
 20
281.87939184
  0
VERTEX
  8
1
 10
907.81942876
 20
281.48317149
  0
VERTEX
  8
1
 10
889.23253632
 20
280.84323526
  0
VERTEX
  8
1
 10
870.64527217
 20
279.95626526
  0
VERTEX
  8
1
 10
854.24904118
 20
279.02272707
  0
VERTEX
  8
1
 10
837.86651812
 20
277.92294433
  0
VERTEX
  8
1
 10
821.49770300
 20
276.65691704
  0
VERTEX
  8
1
 10
805.14255972
 20
275.22464185
  0
VERTEX
  8
1
 10
788.80112445
 20
273.62612136
  0
SEQEND
  0
POLYLINE
  8
84
 66
1
 70
1
  0
VERTEX
  8
84
 10
772.47339717
 20
271.86135559
  0
VERTEX
  8
84
 10
670.50757686
 20
461.50948792
  0
VERTEX
  8
84
 10
682.40357295
 20
476.62740784
  0
VERTEX
  8
84
 10
701.49792479
 20
476.55066875
  0
VERTEX
  8
84
 10
720.59146030
 20
476.56971267
  0
VERTEX
  8
84
 10
739.68417948
 20
476.68453958
  0
VERTEX
  8
84
 10
758.77619338
 20
476.89515100
  0
VERTEX
  8
84
 10
777.86739095
 20
477.20154654
  0
VERTEX
  8
84
 10
796.95777217
 20
477.60372620
  0
VERTEX
  8
84
 10
828.23603893
 20
477.20993598
  0
VERTEX
  8
84
 10
843.87537496
 20
477.09459919
  0
VERTEX
  8
84
 10
859.51490108
 20
477.04806213
  0
VERTEX
  8
84
 10
922.07495967
 20
477.30465393
  0
VERTEX
  8
84
 10
937.71446029
 20
477.32712244
  0
VERTEX
  8
84
 10
953.35391457
 20
477.28330582
  0
VERTEX
  8
84
 10
968.99353985
 20
477.15714568
  0
VERTEX
  8
84
 10
984.63355342
 20
476.93258362
  0
VERTEX
  8
84
 10
1000.27251116
 20
476.59065066
  0
VERTEX
  8
84
 10
1015.90720225
 20
476.10062461
  0
VERTEX
  8
84
 10
1031.53275446
 20
475.42886078
  0
VERTEX
  8
84
 10
1047.14429561
 20
474.54171448
  0
VERTEX
  8
84
 10
1062.73691614
 20
473.41310759
  0
VERTEX
  8
84
 10
1078.31227998
 20
472.04672288
  0
VERTEX
  8
84
 10
1093.87201102
 20
470.45377392
  0
VERTEX
  8
84
 10
1109.41773311
 20
468.64547424
  0
VERTEX
  8
84
 10
1133.59380863
 20
465.29831662
  0
VERTEX
  8
84
 10
1157.66138545
 20
461.32906799
  0
VERTEX
  8
84
 10
1181.67695582
 20
456.71949100
  0
VERTEX
  8
84
 10
1205.57740108
 20
451.52608948
  0
VERTEX
  8
84
 10
1229.39712993
 20
445.79505309
  0
VERTEX
  8
84
 10
1253.09204952
 20
439.57217102
  0
VERTEX
  8
84
 10
1276.67135265
 20
432.89049696
  0
VERTEX
  8
84
 10
1300.13062373
 20
425.80154114
  0
VERTEX
  8
84
 10
1323.43244517
 20
418.35990797
  0
VERTEX
  8
84
 10
1346.61792842
 20
410.54751282
  0
VERTEX
  8
84
 10
1337.11988155
 20
386.34292297
  0
VERTEX
  8
84
 10
1329.55014446
 20
368.28543708
  0
VERTEX
  8
84
 10
1322.33423702
 20
350.09853821
  0
VERTEX
  8
84
 10
1316.84693233
 20
333.75344543
  0
VERTEX
  8
84
 10
1300.87042897
 20
337.96930484
  0
VERTEX
  8
84
 10
1284.74341670
 20
341.41701965
  0
VERTEX
  8
84
 10
1268.46319576
 20
344.09453304
  0
VERTEX
  8
84
 10
1252.06519405
 20
346.01418762
  0
VERTEX
  8
84
 10
1235.58227664
 20
347.18803430
  0
VERTEX
  8
84
 10
1219.07349483
 20
347.61037903
  0
VERTEX
  8
84
 10
1202.59113340
 20
347.27634239
  0
VERTEX
  8
84
 10
1186.11158077
 20
346.18764954
  0
VERTEX
  8
84
 10
1178.11026272
 20
345.34883719
  0
VERTEX
  8
84
 10
1170.28069594
 20
344.02199036
  0
VERTEX
  8
84
 10
1155.03638545
 20
339.96902161
  0
VERTEX
  8
84
 10
1147.59671058
 20
337.26789588
  0
VERTEX
  8
84
 10
1140.32841905
 20
334.07984474
  0
VERTEX
  8
84
 10
1133.30668886
 20
330.35634054
  0
VERTEX
  8
84
 10
1126.60669795
 20
326.04885559
  0
VERTEX
  8
84
 10
1120.32254894
 20
321.14254771
  0
VERTEX
  8
84
 10
1114.52010377
 20
315.67355181
  0
VERTEX
  8
84
 10
1109.28634632
 20
309.70818682
  0
VERTEX
  8
84
 10
1104.70826045
 20
303.31277161
  0
VERTEX
  8
84
 10
1100.87718380
 20
296.58610959
  0
VERTEX
  8
84
 10
1097.75004772
 20
289.47878067
  0
VERTEX
  8
84
 10
1095.29818499
 20
281.96892817
  0
VERTEX
  8
84
 10
1093.49292842
 20
274.03469543
  0
VERTEX
  8
84
 10
1074.98323117
 20
275.97456778
  0
VERTEX
  8
84
 10
1056.45983269
 20
277.64750379
  0
VERTEX
  8
84
 10
1037.92051137
 20
279.05018560
  0
VERTEX
  8
84
 10
1019.36304561
 20
280.17929535
  0
VERTEX
  8
84
 10
1000.78641800
 20
281.03373778
  0
VERTEX
  8
84
 10
982.19608871
 20
281.62123586
  0
VERTEX
  8
84
 10
963.59872274
 20
281.95174341
  0
VERTEX
  8
84
 10
945.00098506
 20
282.03521423
  0
VERTEX
  8
84
 10
926.40817113
 20
281.87939184
  0
VERTEX
  8
84
 10
907.81942876
 20
281.48317149
  0
VERTEX
  8
84
 10
889.23253632
 20
280.84323526
  0
VERTEX
  8
84
 10
870.64527217
 20
279.95626526
  0
VERTEX
  8
84
 10
854.24904118
 20
279.02272707
  0
VERTEX
  8
84
 10
837.86651812
 20
277.92294433
  0
VERTEX
  8
84
 10
821.49770300
 20
276.65691704
  0
VERTEX
  8
84
 10
805.14255972
 20
275.22464185
  0
VERTEX
  8
84
 10
788.80112445
 20
273.62612136
  0
SEQEND
  0
POINT
  8
2
 10
772.47339717
 20
271.86135559
  0
TEXT
  8
2
 10
772.47339717
 20
271.86135559
 40
10.00000000
 50
0.00000000
  1
# 49
  0
POINT
  8
2
 10
670.50757686
 20
461.50948792
  0
TEXT
  8
2
 10
670.50757686
 20
461.50948792
 40
10.00000000
 50
0.00000000
  1
# 50
  0
POINT
  8
2
 10
682.40357295
 20
476.62740784
  0
TEXT
  8
2
 10
682.40357295
 20
476.62740784
 40
10.00000000
 50
0.00000000
  1
# 51
  0
POINT
  8
3
 10
701.49792479
 20
476.55066875
  0
POINT
  8
3
 10
720.59146030
 20
476.56971267
  0
POINT
  8
3
 10
739.68417948
 20
476.68453958
  0
POINT
  8
3
 10
758.77619338
 20
476.89515100
  0
POINT
  8
3
 10
777.86739095
 20
477.20154654
  0
POINT
  8
2
 10
796.95777217
 20
477.60372620
  0
TEXT
  8
2
 10
796.95777217
 20
477.60372620
 40
10.00000000
 50
0.00000000
  1
# 52
  0
POINT
  8
3
 10
828.23603893
 20
477.20993598
  0
POINT
  8
3
 10
843.87537496
 20
477.09459919
  0
POINT
  8
3
 10
859.51490108
 20
477.04806213
  0
POINT
  8
3
 10
922.07495967
 20
477.30465393
  0
POINT
  8
3
 10
937.71446029
 20
477.32712244
  0
POINT
  8
3
 10
953.35391457
 20
477.28330582
  0
POINT
  8
3
 10
968.99353985
 20
477.15714568
  0
POINT
  8
3
 10
984.63355342
 20
476.93258362
  0
POINT
  8
3
 10
1000.27251116
 20
476.59065066
  0
POINT
  8
3
 10
1015.90720225
 20
476.10062461
  0
POINT
  8
3
 10
1031.53275446
 20
475.42886078
  0
POINT
  8
3
 10
1047.14429561
 20
474.54171448
  0
POINT
  8
3
 10
1062.73691614
 20
473.41310759
  0
POINT
  8
3
 10
1078.31227998
 20
472.04672288
  0
POINT
  8
3
 10
1093.87201102
 20
470.45377392
  0
POINT
  8
2
 10
1109.41773311
 20
468.64547424
  0
TEXT
  8
2
 10
1109.41773311
 20
468.64547424
 40
10.00000000
 50
0.00000000
  1
# 53
  0
POINT
  8
3
 10
1133.59380863
 20
465.29831662
  0
POINT
  8
3
 10
1157.66138545
 20
461.32906799
  0
POINT
  8
3
 10
1181.67695582
 20
456.71949100
  0
POINT
  8
3
 10
1205.57740108
 20
451.52608948
  0
POINT
  8
3
 10
1229.39712993
 20
445.79505309
  0
POINT
  8
3
 10
1253.09204952
 20
439.57217102
  0
POINT
  8
3
 10
1276.67135265
 20
432.89049696
  0
POINT
  8
3
 10
1300.13062373
 20
425.80154114
  0
POINT
  8
3
 10
1323.43244517
 20
418.35990797
  0
POINT
  8
2
 10
1346.61792842
 20
410.54751282
  0
TEXT
  8
2
 10
1346.61792842
 20
410.54751282
 40
10.00000000
 50
0.00000000
  1
# 54
  0
POINT
  8
3
 10
1337.11988155
 20
386.34292297
  0
POINT
  8
3
 10
1329.55014446
 20
368.28543708
  0
POINT
  8
3
 10
1322.33423702
 20
350.09853821
  0
POINT
  8
2
 10
1316.84693233
 20
333.75344543
  0
TEXT
  8
2
 10
1316.84693233
 20
333.75344543
 40
10.00000000
 50
0.00000000
  1
# 55
  0
POINT
  8
3
 10
1300.87042897
 20
337.96930484
  0
POINT
  8
3
 10
1284.74341670
 20
341.41701965
  0
POINT
  8
3
 10
1268.46319576
 20
344.09453304
  0
POINT
  8
3
 10
1252.06519405
 20
346.01418762
  0
POINT
  8
3
 10
1235.58227664
 20
347.18803430
  0
POINT
  8
3
 10
1219.07349483
 20
347.61037903
  0
POINT
  8
3
 10
1202.59113340
 20
347.27634239
  0
POINT
  8
2
 10
1186.11158077
 20
346.18764954
  0
TEXT
  8
2
 10
1186.11158077
 20
346.18764954
 40
10.00000000
 50
0.00000000
  1
# 56
  0
POINT
  8
3
 10
1178.11026272
 20
345.34883719
  0
POINT
  8
3
 10
1170.28069594
 20
344.02199036
  0
POINT
  8
3
 10
1155.03638545
 20
339.96902161
  0
POINT
  8
3
 10
1147.59671058
 20
337.26789588
  0
POINT
  8
3
 10
1140.32841905
 20
334.07984474
  0
POINT
  8
3
 10
1133.30668886
 20
330.35634054
  0
POINT
  8
3
 10
1126.60669795
 20
326.04885559
  0
POINT
  8
3
 10
1120.32254894
 20
321.14254771
  0
POINT
  8
3
 10
1114.52010377
 20
315.67355181
  0
POINT
  8
3
 10
1109.28634632
 20
309.70818682
  0
POINT
  8
3
 10
1104.70826045
 20
303.31277161
  0
POINT
  8
3
 10
1100.87718380
 20
296.58610959
  0
POINT
  8
3
 10
1097.75004772
 20
289.47878067
  0
POINT
  8
3
 10
1095.29818499
 20
281.96892817
  0
POINT
  8
2
 10
1093.49292842
 20
274.03469543
  0
TEXT
  8
2
 10
1093.49292842
 20
274.03469543
 40
10.00000000
 50
0.00000000
  1
# 57
  0
POINT
  8
3
 10
1074.98323117
 20
275.97456778
  0
POINT
  8
3
 10
1056.45983269
 20
277.64750379
  0
POINT
  8
3
 10
1037.92051137
 20
279.05018560
  0
POINT
  8
3
 10
1019.36304561
 20
280.17929535
  0
POINT
  8
3
 10
1000.78641800
 20
281.03373778
  0
POINT
  8
3
 10
982.19608871
 20
281.62123586
  0
POINT
  8
3
 10
963.59872274
 20
281.95174341
  0
POINT
  8
3
 10
945.00098506
 20
282.03521423
  0
POINT
  8
3
 10
926.40817113
 20
281.87939184
  0
POINT
  8
3
 10
907.81942876
 20
281.48317149
  0
POINT
  8
3
 10
889.23253632
 20
280.84323526
  0
POINT
  8
2
 10
870.64527217
 20
279.95626526
  0
TEXT
  8
2
 10
870.64527217
 20
279.95626526
 40
10.00000000
 50
0.00000000
  1
# 58
  0
POINT
  8
3
 10
854.24904118
 20
279.02272707
  0
POINT
  8
3
 10
837.86651812
 20
277.92294433
  0
POINT
  8
3
 10
821.49770300
 20
276.65691704
  0
POINT
  8
3
 10
805.14255972
 20
275.22464185
  0
POINT
  8
3
 10
788.80112445
 20
273.62612136
  0
POINT
  8
13
 10
1044.28296748
 20
334.13479309
  0
TEXT
  8
13
 10
1044.28296748
 20
334.13479309
 40
10.00000000
 50
0.00000000
  1
# 59
  0
POINT
  8
13
 10
1044.28296748
 20
444.13479309
  0
TEXT
  8
13
 10
1044.28296748
 20
444.13479309
 40
10.00000000
 50
0.00000000
  1
# 60
  0
POINT
  8
4
 10
796.95777217
 20
477.60372620
 30
7.50000000
 50
270.24278474
  0
TEXT
  8
1
 10
796.95777217
 20
477.60372620
 40
10.00000000
 50
0.00000000
  1
# 61
  0
POINT
  8
4
 10
1109.41773311
 20
468.64547424
 30
7.50000000
 50
262.74132505
  0
TEXT
  8
1
 10
1109.41773311
 20
468.64547424
 40
10.00000000
 50
0.00000000
  1
# 62
  0
ENDBLK
  0
BLOCK
  8
1
  2
6
 70
64
 10
0.0
 20
0.0
  0
LINE
  8
7
 10
774.62033209
 20
1526.88411912
 11
1128.25387701
 21
1526.88411912
  0
TEXT
  8
1
 10
0.00000000
 20
0.00000000
 40
20.00000000
 50
0.00000000
  1
Size: 48
  0
TEXT
  8
1
 10
951.43710455
 20
1541.88411912
 40
20.00000000
 50
0.00000000
  1
Piece Name: ABONNO.DE
  0
TEXT
  8
1
 10
951.43710455
 20
1541.88411912
 40
20.00000000
 50
0.00000000
  1
Quantity: 1
  0
TEXT
  8
1
 10
951.43710455
 20
1541.88411912
 40
20.00000000
 50
0.00000000
  1
Rotation: 0
  0
TEXT
  8
1
 10
951.43710455
 20
1541.88411912
 40
20.00000000
 50
0.00000000
  1
Tilt: 0
  0
TEXT
  8
1
 10
951.43710455
 20
1541.88411912
 40
20.00000000
 50
0.00000000
  1
Fold: N
  0
TEXT
  8
1
 10
951.43710455
 20
1541.88411912
 40
20.00000000
 50
0.00000000
  1
Material: 1
  0
POLYLINE
  8
1
 66
1
 70
1
  0
VERTEX
  8
1
 10
1026.46615558
 20
1533.60561707
  0
VERTEX
  8
1
 10
996.46859698
 20
1535.22658875
  0
VERTEX
  8
1
 10
820.76644855
 20
1530.00625184
  0
VERTEX
  8
1
 10
689.19467120
 20
1525.09914734
  0
VERTEX
  8
1
 10
681.57565965
 20
1544.20319913
  0
VERTEX
  8
1
 10
673.30551105
 20
1563.01125672
  0
VERTEX
  8
1
 10
663.55211939
 20
1583.14606679
  0
VERTEX
  8
1
 10
653.09847980
 20
1602.93044617
  0
VERTEX
  8
1
 10
643.37957789
 20
1620.06684703
  0
VERTEX
  8
1
 10
633.17221026
 20
1636.93154480
  0
VERTEX
  8
1
 10
648.56527667
 20
1645.60403016
  0
VERTEX
  8
1
 10
668.78109698
 20
1656.23061707
  0
VERTEX
  8
1
 10
689.19955401
 20
1667.00515320
  0
VERTEX
  8
1
 10
708.85336261
 20
1678.87746766
  0
VERTEX
  8
1
 10
718.51136481
 20
1684.09961368
  0
VERTEX
  8
1
 10
728.57846026
 20
1688.27737000
  0
VERTEX
  8
1
 10
738.91971941
 20
1690.89160636
  0
VERTEX
  8
1
 10
749.70101886
 20
1692.09670594
  0
VERTEX
  8
1
 10
751.66643907
 20
1692.15722926
  0
VERTEX
  8
1
 10
755.59484984
 20
1692.16248607
  0
VERTEX
  8
1
 10
758.80679641
 20
1692.05194400
  0
VERTEX
  8
1
 10
760.41195636
 20
1691.95791199
  0
VERTEX
  8
1
 10
961.44125323
 20
1692.43545105
  0
VERTEX
  8
1
 10
965.41549474
 20
1692.50501696
  0
VERTEX
  8
1
 10
973.36428832
 20
1692.58639875
  0
VERTEX
  8
1
 10
981.27649831
 20
1692.59093846
  0
VERTEX
  8
1
 10
985.23275714
 20
1692.56460144
  0
VERTEX
  8
1
 10
1005.54617391
 20
1692.01414215
  0
VERTEX
  8
1
 10
1025.67465167
 20
1689.91152527
  0
VERTEX
  8
1
 10
1045.63655858
 20
1686.33674693
  0
VERTEX
  8
1
 10
1055.45617375
 20
1683.84808207
  0
VERTEX
  8
1
 10
1065.08627276
 20
1680.78408387
  0
VERTEX
  8
1
 10
1074.78044083
 20
1676.98469209
  0
VERTEX
  8
1
 10
1084.28719725
 20
1672.69522460
  0
VERTEX
  8
1
 10
1103.05697589
 20
1663.47841980
  0
VERTEX
  8
1
 10
1121.95469191
 20
1654.55638034
  0
VERTEX
  8
1
 10
1141.16293292
 20
1646.41421082
  0
VERTEX
  8
1
 10
1160.68219134
 20
1639.17195537
  0
VERTEX
  8
1
 10
1180.37484698
 20
1632.36123230
  0
VERTEX
  8
1
 10
1200.23812056
 20
1625.49650605
  0
VERTEX
  8
1
 10
1220.17074542
 20
1618.86098816
  0
VERTEX
  8
1
 10
1240.06581396
 20
1612.82854501
  0
VERTEX
  8
1
 10
1260.12191730
 20
1607.34255555
  0
VERTEX
  8
1
 10
1280.12689724
 20
1602.36251787
  0
VERTEX
  8
1
 10
1300.19955401
 20
1597.66396668
  0
VERTEX
  8
1
 10
1320.30246137
 20
1593.09048513
  0
VERTEX
  8
1
 10
1340.43930011
 20
1588.66482117
  0
VERTEX
  8
1
 10
1301.60140948
 20
1491.47561219
  0
VERTEX
  8
1
 10
1287.49577233
 20
1495.50820135
  0
VERTEX
  8
1
 10
1273.24594073
 20
1498.86855652
  0
VERTEX
  8
1
 10
1256.53859474
 20
1501.91757792
  0
VERTEX
  8
1
 10
1239.67855792
 20
1504.09475281
  0
VERTEX
  8
1
 10
1222.70909416
 20
1505.42508833
  0
VERTEX
  8
1
 10
1205.71176105
 20
1505.83071473
  0
VERTEX
  8
1
 10
1188.71433579
 20
1505.23285407
  0
VERTEX
  8
1
 10
1171.73031573
 20
1503.64150574
  0
VERTEX
  8
1
 10
1163.47650732
 20
1502.83699329
  0
VERTEX
  8
1
 10
1155.39519812
 20
1501.53172008
  0
VERTEX
  8
1
 10
1139.59457355
 20
1497.54604676
  0
VERTEX
  8
1
 10
1131.72552303
 20
1494.87188449
  0
VERTEX
  8
1
 10
1124.03287033
 20
1491.68460413
  0
VERTEX
  8
1
 10
1116.63571768
 20
1487.88681584
  0
VERTEX
  8
1
 10
1109.65316730
 20
1483.38112976
  0
VERTEX
  8
1
 10
1103.09432860
 20
1478.01644023
  0
VERTEX
  8
1
 10
1097.14279797
 20
1471.95031186
  0
VERTEX
  8
1
 10
1091.85489927
 20
1465.31266617
  0
VERTEX
  8
1
 10
1087.28695636
 20
1458.23342469
  0
VERTEX
  8
1
 10
1083.93485879
 20
1451.79895502
  0
VERTEX
  8
1
 10
1081.15502591
 20
1445.09452122
  0
VERTEX
  8
1
 10
1078.93261333
 20
1438.08588193
  0
VERTEX
  8
1
 10
1077.25277667
 20
1430.73879578
  0
VERTEX
  8
1
 10
1059.10149489
 20
1430.80758875
  0
VERTEX
  8
1
 10
1040.95651031
 20
1430.69165542
  0
VERTEX
  8
1
 10
1022.81589060
 20
1430.39950894
  0
VERTEX
  8
1
 10
1004.67770343
 20
1429.93966248
  0
VERTEX
  8
1
 10
986.54173371
 20
1429.31497048
  0
VERTEX
  8
1
 10
968.41206094
 20
1428.50556072
  0
VERTEX
  8
1
 10
950.29448188
 20
1427.48589470
  0
VERTEX
  8
1
 10
932.19479327
 20
1426.23043396
  0
VERTEX
  8
1
 10
914.11923829
 20
1424.71947278
  0
VERTEX
  8
1
 10
896.06543403
 20
1422.95574004
  0
VERTEX
  8
1
 10
878.03144855
 20
1420.94774721
  0
VERTEX
  8
1
 10
860.01534991
 20
1418.70400574
  0
VERTEX
  8
1
 10
838.22781722
 20
1415.39924452
  0
VERTEX
  8
1
 10
816.54734646
 20
1411.58991149
  0
VERTEX
  8
1
 10
794.97393764
 20
1407.27600667
  0
VERTEX
  8
1
 10
773.50635921
 20
1402.45723841
  0
VERTEX
  8
1
 10
752.14585504
 20
1397.13384032
  0
VERTEX
  8
1
 10
730.89242511
 20
1391.30581238
  0
VERTEX
  8
1
 10
724.84732121
 20
1409.29439076
  0
VERTEX
  8
1
 10
718.33138995
 20
1427.10293152
  0
VERTEX
  8
1
 10
713.55651526
 20
1439.17742864
  0
VERTEX
  8
1
 10
708.58099264
 20
1451.17491472
  0
VERTEX
  8
1
 10
698.32846026
 20
1475.04946473
  0
VERTEX
  8
1
 10
687.66097980
 20
1499.64895203
  0
VERTEX
  8
1
 10
690.05209308
 20
1506.84560730
  0
VERTEX
  8
1
 10
996.56820636
 20
1529.13857605
  0
SEQEND
  0
POLYLINE
  8
84
 66
1
 70
1
  0
VERTEX
  8
84
 10
1026.46615558
 20
1533.60561707
  0
VERTEX
  8
84
 10
996.46859698
 20
1535.22658875
  0
VERTEX
  8
84
 10
820.76644855
 20
1530.00625184
  0
VERTEX
  8
84
 10
689.19467120
 20
1525.09914734
  0
VERTEX
  8
84
 10
681.57565965
 20
1544.20319913
  0
VERTEX
  8
84
 10
673.30551105
 20
1563.01125672
  0
VERTEX
  8
84
 10
663.55211939
 20
1583.14606679
  0
VERTEX
  8
84
 10
653.09847980
 20
1602.93044617
  0
VERTEX
  8
84
 10
643.37957789
 20
1620.06684703
  0
VERTEX
  8
84
 10
633.17221026
 20
1636.93154480
  0
VERTEX
  8
84
 10
648.56527667
 20
1645.60403016
  0
VERTEX
  8
84
 10
668.78109698
 20
1656.23061707
  0
VERTEX
  8
84
 10
689.19955401
 20
1667.00515320
  0
VERTEX
  8
84
 10
708.85336261
 20
1678.87746766
  0
VERTEX
  8
84
 10
718.51136481
 20
1684.09961368
  0
VERTEX
  8
84
 10
728.57846026
 20
1688.27737000
  0
VERTEX
  8
84
 10
738.91971941
 20
1690.89160636
  0
VERTEX
  8
84
 10
749.70101886
 20
1692.09670594
  0
VERTEX
  8
84
 10
751.66643907
 20
1692.15722926
  0
VERTEX
  8
84
 10
755.59484984
 20
1692.16248607
  0
VERTEX
  8
84
 10
758.80679641
 20
1692.05194400
  0
VERTEX
  8
84
 10
760.41195636
 20
1691.95791199
  0
VERTEX
  8
84
 10
961.44125323
 20
1692.43545105
  0
VERTEX
  8
84
 10
965.41549474
 20
1692.50501696
  0
VERTEX
  8
84
 10
973.36428832
 20
1692.58639875
  0
VERTEX
  8
84
 10
981.27649831
 20
1692.59093846
  0
VERTEX
  8
84
 10
985.23275714
 20
1692.56460144
  0
VERTEX
  8
84
 10
1005.54617391
 20
1692.01414215
  0
VERTEX
  8
84
 10
1025.67465167
 20
1689.91152527
  0
VERTEX
  8
84
 10
1045.63655858
 20
1686.33674693
  0
VERTEX
  8
84
 10
1055.45617375
 20
1683.84808207
  0
VERTEX
  8
84
 10
1065.08627276
 20
1680.78408387
  0
VERTEX
  8
84
 10
1074.78044083
 20
1676.98469209
  0
VERTEX
  8
84
 10
1084.28719725
 20
1672.69522460
  0
VERTEX
  8
84
 10
1103.05697589
 20
1663.47841980
  0
VERTEX
  8
84
 10
1121.95469191
 20
1654.55638034
  0
VERTEX
  8
84
 10
1141.16293292
 20
1646.41421082
  0
VERTEX
  8
84
 10
1160.68219134
 20
1639.17195537
  0
VERTEX
  8
84
 10
1180.37484698
 20
1632.36123230
  0
VERTEX
  8
84
 10
1200.23812056
 20
1625.49650605
  0
VERTEX
  8
84
 10
1220.17074542
 20
1618.86098816
  0
VERTEX
  8
84
 10
1240.06581396
 20
1612.82854501
  0
VERTEX
  8
84
 10
1260.12191730
 20
1607.34255555
  0
VERTEX
  8
84
 10
1280.12689724
 20
1602.36251787
  0
VERTEX
  8
84
 10
1300.19955401
 20
1597.66396668
  0
VERTEX
  8
84
 10
1320.30246137
 20
1593.09048513
  0
VERTEX
  8
84
 10
1340.43930011
 20
1588.66482117
  0
VERTEX
  8
84
 10
1301.60140948
 20
1491.47561219
  0
VERTEX
  8
84
 10
1287.49577233
 20
1495.50820135
  0
VERTEX
  8
84
 10
1273.24594073
 20
1498.86855652
  0
VERTEX
  8
84
 10
1256.53859474
 20
1501.91757792
  0
VERTEX
  8
84
 10
1239.67855792
 20
1504.09475281
  0
VERTEX
  8
84
 10
1222.70909416
 20
1505.42508833
  0
VERTEX
  8
84
 10
1205.71176105
 20
1505.83071473
  0
VERTEX
  8
84
 10
1188.71433579
 20
1505.23285407
  0
VERTEX
  8
84
 10
1171.73031573
 20
1503.64150574
  0
VERTEX
  8
84
 10
1163.47650732
 20
1502.83699329
  0
VERTEX
  8
84
 10
1155.39519812
 20
1501.53172008
  0
VERTEX
  8
84
 10
1139.59457355
 20
1497.54604676
  0
VERTEX
  8
84
 10
1131.72552303
 20
1494.87188449
  0
VERTEX
  8
84
 10
1124.03287033
 20
1491.68460413
  0
VERTEX
  8
84
 10
1116.63571768
 20
1487.88681584
  0
VERTEX
  8
84
 10
1109.65316730
 20
1483.38112976
  0
VERTEX
  8
84
 10
1103.09432860
 20
1478.01644023
  0
VERTEX
  8
84
 10
1097.14279797
 20
1471.95031186
  0
VERTEX
  8
84
 10
1091.85489927
 20
1465.31266617
  0
VERTEX
  8
84
 10
1087.28695636
 20
1458.23342469
  0
VERTEX
  8
84
 10
1083.93485879
 20
1451.79895502
  0
VERTEX
  8
84
 10
1081.15502591
 20
1445.09452122
  0
VERTEX
  8
84
 10
1078.93261333
 20
1438.08588193
  0
VERTEX
  8
84
 10
1077.25277667
 20
1430.73879578
  0
VERTEX
  8
84
 10
1059.10149489
 20
1430.80758875
  0
VERTEX
  8
84
 10
1040.95651031
 20
1430.69165542
  0
VERTEX
  8
84
 10
1022.81589060
 20
1430.39950894
  0
VERTEX
  8
84
 10
1004.67770343
 20
1429.93966248
  0
VERTEX
  8
84
 10
986.54173371
 20
1429.31497048
  0
VERTEX
  8
84
 10
968.41206094
 20
1428.50556072
  0
VERTEX
  8
84
 10
950.29448188
 20
1427.48589470
  0
VERTEX
  8
84
 10
932.19479327
 20
1426.23043396
  0
VERTEX
  8
84
 10
914.11923829
 20
1424.71947278
  0
VERTEX
  8
84
 10
896.06543403
 20
1422.95574004
  0
VERTEX
  8
84
 10
878.03144855
 20
1420.94774721
  0
VERTEX
  8
84
 10
860.01534991
 20
1418.70400574
  0
VERTEX
  8
84
 10
838.22781722
 20
1415.39924452
  0
VERTEX
  8
84
 10
816.54734646
 20
1411.58991149
  0
VERTEX
  8
84
 10
794.97393764
 20
1407.27600667
  0
VERTEX
  8
84
 10
773.50635921
 20
1402.45723841
  0
VERTEX
  8
84
 10
752.14585504
 20
1397.13384032
  0
VERTEX
  8
84
 10
730.89242511
 20
1391.30581238
  0
VERTEX
  8
84
 10
724.84732121
 20
1409.29439076
  0
VERTEX
  8
84
 10
718.33138995
 20
1427.10293152
  0
VERTEX
  8
84
 10
713.55651526
 20
1439.17742864
  0
VERTEX
  8
84
 10
708.58099264
 20
1451.17491472
  0
VERTEX
  8
84
 10
698.32846026
 20
1475.04946473
  0
VERTEX
  8
84
 10
687.66097980
 20
1499.64895203
  0
VERTEX
  8
84
 10
690.05209308
 20
1506.84560730
  0
VERTEX
  8
84
 10
996.56820636
 20
1529.13857605
  0
SEQEND
  0
POINT
  8
2
 10
1026.46615558
 20
1533.60561707
  0
TEXT
  8
2
 10
1026.46615558
 20
1533.60561707
 40
10.00000000
 50
0.00000000
  1
# 63
  0
POINT
  8
2
 10
996.46859698
 20
1535.22658875
  0
TEXT
  8
2
 10
996.46859698
 20
1535.22658875
 40
10.00000000
 50
0.00000000
  1
# 64
  0
POINT
  8
2
 10
820.76644855
 20
1530.00625184
  0
TEXT
  8
2
 10
820.76644855
 20
1530.00625184
 40
10.00000000
 50
0.00000000
  1
# 65
  0
POINT
  8
2
 10
689.19467120
 20
1525.09914734
  0
TEXT
  8
2
 10
689.19467120
 20
1525.09914734
 40
10.00000000
 50
0.00000000
  1
# 66
  0
POINT
  8
3
 10
681.57565965
 20
1544.20319913
  0
POINT
  8
3
 10
673.30551105
 20
1563.01125672
  0
POINT
  8
3
 10
663.55211939
 20
1583.14606679
  0
POINT
  8
3
 10
653.09847980
 20
1602.93044617
  0
POINT
  8
3
 10
643.37957789
 20
1620.06684703
  0
POINT
  8
2
 10
633.17221026
 20
1636.93154480
  0
TEXT
  8
2
 10
633.17221026
 20
1636.93154480
 40
10.00000000
 50
0.00000000
  1
# 67
  0
POINT
  8
3
 10
648.56527667
 20
1645.60403016
  0
POINT
  8
3
 10
668.78109698
 20
1656.23061707
  0
POINT
  8
3
 10
689.19955401
 20
1667.00515320
  0
POINT
  8
3
 10
708.85336261
 20
1678.87746766
  0
POINT
  8
3
 10
718.51136481
 20
1684.09961368
  0
POINT
  8
3
 10
728.57846026
 20
1688.27737000
  0
POINT
  8
3
 10
738.91971941
 20
1690.89160636
  0
POINT
  8
2
 10
749.70101886
 20
1692.09670594
  0
TEXT
  8
2
 10
749.70101886
 20
1692.09670594
 40
10.00000000
 50
0.00000000
  1
# 68
  0
POINT
  8
3
 10
751.66643907
 20
1692.15722926
  0
POINT
  8
3
 10
755.59484984
 20
1692.16248607
  0
POINT
  8
3
 10
758.80679641
 20
1692.05194400
  0
POINT
  8
2
 10
760.41195636
 20
1691.95791199
  0
TEXT
  8
2
 10
760.41195636
 20
1691.95791199
 40
10.00000000
 50
0.00000000
  1
# 69
  0
POINT
  8
2
 10
961.44125323
 20
1692.43545105
  0
TEXT
  8
2
 10
961.44125323
 20
1692.43545105
 40
10.00000000
 50
0.00000000
  1
# 70
  0
POINT
  8
3
 10
965.41549474
 20
1692.50501696
  0
POINT
  8
3
 10
973.36428832
 20
1692.58639875
  0
POINT
  8
3
 10
981.27649831
 20
1692.59093846
  0
POINT
  8
2
 10
985.23275714
 20
1692.56460144
  0
TEXT
  8
2
 10
985.23275714
 20
1692.56460144
 40
10.00000000
 50
0.00000000
  1
# 71
  0
POINT
  8
3
 10
1005.54617391
 20
1692.01414215
  0
POINT
  8
3
 10
1025.67465167
 20
1689.91152527
  0
POINT
  8
3
 10
1045.63655858
 20
1686.33674693
  0
POINT
  8
3
 10
1055.45617375
 20
1683.84808207
  0
POINT
  8
3
 10
1065.08627276
 20
1680.78408387
  0
POINT
  8
3
 10
1074.78044083
 20
1676.98469209
  0
POINT
  8
3
 10
1084.28719725
 20
1672.69522460
  0
POINT
  8
3
 10
1103.05697589
 20
1663.47841980
  0
POINT
  8
3
 10
1121.95469191
 20
1654.55638034
  0
POINT
  8
3
 10
1141.16293292
 20
1646.41421082
  0
POINT
  8
3
 10
1160.68219134
 20
1639.17195537
  0
POINT
  8
3
 10
1180.37484698
 20
1632.36123230
  0
POINT
  8
3
 10
1200.23812056
 20
1625.49650605
  0
POINT
  8
3
 10
1220.17074542
 20
1618.86098816
  0
POINT
  8
3
 10
1240.06581396
 20
1612.82854501
  0
POINT
  8
3
 10
1260.12191730
 20
1607.34255555
  0
POINT
  8
3
 10
1280.12689724
 20
1602.36251787
  0
POINT
  8
3
 10
1300.19955401
 20
1597.66396668
  0
POINT
  8
3
 10
1320.30246137
 20
1593.09048513
  0
POINT
  8
2
 10
1340.43930011
 20
1588.66482117
  0
TEXT
  8
2
 10
1340.43930011
 20
1588.66482117
 40
10.00000000
 50
0.00000000
  1
# 72
  0
POINT
  8
2
 10
1301.60140948
 20
1491.47561219
  0
TEXT
  8
2
 10
1301.60140948
 20
1491.47561219
 40
10.00000000
 50
0.00000000
  1
# 73
  0
POINT
  8
3
 10
1287.49577233
 20
1495.50820135
  0
POINT
  8
3
 10
1273.24594073
 20
1498.86855652
  0
POINT
  8
3
 10
1256.53859474
 20
1501.91757792
  0
POINT
  8
3
 10
1239.67855792
 20
1504.09475281
  0
POINT
  8
3
 10
1222.70909416
 20
1505.42508833
  0
POINT
  8
3
 10
1205.71176105
 20
1505.83071473
  0
POINT
  8
3
 10
1188.71433579
 20
1505.23285407
  0
POINT
  8
2
 10
1171.73031573
 20
1503.64150574
  0
TEXT
  8
2
 10
1171.73031573
 20
1503.64150574
 40
10.00000000
 50
0.00000000
  1
# 74
  0
POINT
  8
3
 10
1163.47650732
 20
1502.83699329
  0
POINT
  8
3
 10
1155.39519812
 20
1501.53172008
  0
POINT
  8
3
 10
1139.59457355
 20
1497.54604676
  0
POINT
  8
3
 10
1131.72552303
 20
1494.87188449
  0
POINT
  8
3
 10
1124.03287033
 20
1491.68460413
  0
POINT
  8
3
 10
1116.63571768
 20
1487.88681584
  0
POINT
  8
3
 10
1109.65316730
 20
1483.38112976
  0
POINT
  8
3
 10
1103.09432860
 20
1478.01644023
  0
POINT
  8
3
 10
1097.14279797
 20
1471.95031186
  0
POINT
  8
3
 10
1091.85489927
 20
1465.31266617
  0
POINT
  8
3
 10
1087.28695636
 20
1458.23342469
  0
POINT
  8
3
 10
1083.93485879
 20
1451.79895502
  0
POINT
  8
3
 10
1081.15502591
 20
1445.09452122
  0
POINT
  8
3
 10
1078.93261333
 20
1438.08588193
  0
POINT
  8
2
 10
1077.25277667
 20
1430.73879578
  0
TEXT
  8
2
 10
1077.25277667
 20
1430.73879578
 40
10.00000000
 50
0.00000000
  1
# 75
  0
POINT
  8
3
 10
1059.10149489
 20
1430.80758875
  0
POINT
  8
3
 10
1040.95651031
 20
1430.69165542
  0
POINT
  8
3
 10
1022.81589060
 20
1430.39950894
  0
POINT
  8
3
 10
1004.67770343
 20
1429.93966248
  0
POINT
  8
3
 10
986.54173371
 20
1429.31497048
  0
POINT
  8
3
 10
968.41206094
 20
1428.50556072
  0
POINT
  8
3
 10
950.29448188
 20
1427.48589470
  0
POINT
  8
3
 10
932.19479327
 20
1426.23043396
  0
POINT
  8
3
 10
914.11923829
 20
1424.71947278
  0
POINT
  8
3
 10
896.06543403
 20
1422.95574004
  0
POINT
  8
3
 10
878.03144855
 20
1420.94774721
  0
POINT
  8
2
 10
860.01534991
 20
1418.70400574
  0
TEXT
  8
2
 10
860.01534991
 20
1418.70400574
 40
10.00000000
 50
0.00000000
  1
# 76
  0
POINT
  8
3
 10
838.22781722
 20
1415.39924452
  0
POINT
  8
3
 10
816.54734646
 20
1411.58991149
  0
POINT
  8
3
 10
794.97393764
 20
1407.27600667
  0
POINT
  8
3
 10
773.50635921
 20
1402.45723841
  0
POINT
  8
3
 10
752.14585504
 20
1397.13384032
  0
POINT
  8
2
 10
730.89242511
 20
1391.30581238
  0
TEXT
  8
2
 10
730.89242511
 20
1391.30581238
 40
10.00000000
 50
0.00000000
  1
# 77
  0
POINT
  8
3
 10
724.84732121
 20
1409.29439076
  0
POINT
  8
3
 10
718.33138995
 20
1427.10293152
  0
POINT
  8
3
 10
713.55651526
 20
1439.17742864
  0
POINT
  8
3
 10
708.58099264
 20
1451.17491472
  0
POINT
  8
3
 10
698.32846026
 20
1475.04946473
  0
POINT
  8
2
 10
687.66097980
 20
1499.64895203
  0
TEXT
  8
2
 10
687.66097980
 20
1499.64895203
 40
10.00000000
 50
0.00000000
  1
# 78
  0
POINT
  8
2
 10
690.05209308
 20
1506.84560730
  0
TEXT
  8
2
 10
690.05209308
 20
1506.84560730
 40
10.00000000
 50
0.00000000
  1
# 79
  0
POINT
  8
2
 10
996.56820636
 20
1529.13857605
  0
TEXT
  8
2
 10
996.56820636
 20
1529.13857605
 40
10.00000000
 50
0.00000000
  1
# 80
  0
ENDBLK
  0
BLOCK
  8
1
  2
7
 70
64
 10
0.0
 20
0.0
  0
LINE
  8
7
 10
414.41886930
 20
902.40134560
 11
766.41508512
 21
902.40134560
  0
TEXT
  8
1
 10
0.00000000
 20
0.00000000
 40
20.00000000
 50
0.00000000
  1
Size: 48
  0
TEXT
  8
1
 10
590.41697721
 20
917.40134560
 40
20.00000000
 50
0.00000000
  1
Piece Name: ABONNO.PE
  0
TEXT
  8
1
 10
590.41697721
 20
917.40134560
 40
20.00000000
 50
0.00000000
  1
Quantity: 1
  0
TEXT
  8
1
 10
590.41697721
 20
917.40134560
 40
20.00000000
 50
0.00000000
  1
Rotation: 0
  0
TEXT
  8
1
 10
590.41697721
 20
917.40134560
 40
20.00000000
 50
0.00000000
  1
Tilt: 0
  0
TEXT
  8
1
 10
590.41697721
 20
917.40134560
 40
20.00000000
 50
0.00000000
  1
Fold: N
  0
TEXT
  8
1
 10
590.41697721
 20
917.40134560
 40
20.00000000
 50
0.00000000
  1
Material: 1
  0
POLYLINE
  8
1
 66
1
 70
1
  0
VERTEX
  8
1
 10
1016.69316646
 20
794.00899801
  0
VERTEX
  8
1
 10
998.67984687
 20
799.46728940
  0
VERTEX
  8
1
 10
980.62319494
 20
804.76353751
  0
VERTEX
  8
1
 10
962.52261032
 20
809.89800048
  0
VERTEX
  8
1
 10
944.37749263
 20
814.87093648
  0
VERTEX
  8
1
 10
925.27108154
 20
819.92029655
  0
VERTEX
  8
1
 10
906.11683537
 20
824.79090741
  0
VERTEX
  8
1
 10
886.91670934
 20
829.48192832
  0
VERTEX
  8
1
 10
867.67265865
 20
833.99251851
  0
VERTEX
  8
1
 10
848.54835368
 20
838.26780679
  0
VERTEX
  8
1
 10
829.36552974
 20
842.25716695
  0
VERTEX
  8
1
 10
810.06282967
 20
845.88531352
  0
VERTEX
  8
1
 10
790.68974849
 20
849.15389547
  0
VERTEX
  8
1
 10
775.48285996
 20
851.28465045
  0
VERTEX
  8
1
 10
760.25654889
 20
853.18212090
  0
VERTEX
  8
1
 10
745.00880051
 20
854.83735973
  0
VERTEX
  8
1
 10
729.73760005
 20
856.24141988
  0
VERTEX
  8
1
 10
714.44494573
 20
857.39114059
  0
VERTEX
  8
1
 10
699.13287600
 20
858.30765969
  0
VERTEX
  8
1
 10
683.80743343
 20
859.01781059
  0
VERTEX
  8
1
 10
668.47466060
 20
859.54842672
  0
VERTEX
  8
1
 10
653.16747610
 20
859.92634030
  0
VERTEX
  8
1
 10
637.85923911
 20
860.18217092
  0
VERTEX
  8
1
 10
607.24052974
 20
860.44784078
  0
VERTEX
  8
1
 10
576.65518103
 20
860.54468486
  0
VERTEX
  8
1
 10
546.06963130
 20
860.50741109
  0
VERTEX
  8
1
 10
515.51609675
 20
860.33094456
  0
VERTEX
  8
1
 10
484.96318599
 20
860.01607808
  0
VERTEX
  8
1
 10
342.77959224
 20
860.00289449
  0
VERTEX
  8
1
 10
329.22710201
 20
883.14412984
  0
VERTEX
  8
1
 10
347.40459224
 20
893.25789937
  0
VERTEX
  8
1
 10
390.28789302
 20
917.58761129
  0
VERTEX
  8
1
 10
401.94161589
 20
923.99850211
  0
VERTEX
  8
1
 10
413.77031490
 20
930.12850484
  0
VERTEX
  8
1
 10
424.03935786
 20
934.52328023
  0
VERTEX
  8
1
 10
433.95732661
 20
936.60262594
  0
VERTEX
  8
1
 10
442.18095943
 20
937.16488179
  0
VERTEX
  8
1
 10
453.44756099
 20
937.60055074
  0
VERTEX
  8
1
 10
492.96294185
 20
937.71529683
  0
VERTEX
  8
1
 10
592.77226802
 20
938.21480855
  0
VERTEX
  8
1
 10
654.23369380
 20
938.07894429
  0
VERTEX
  8
1
 10
678.48808833
 20
938.20760640
  0
VERTEX
  8
1
 10
689.30740835
 20
938.53212813
  0
VERTEX
  8
1
 10
700.02976593
 20
938.28443085
  0
VERTEX
  8
1
 10
710.67360649
 20
937.46630841
  0
VERTEX
  8
1
 10
721.25737544
 20
936.07955465
  0
VERTEX
  8
1
 10
731.69023798
 20
934.14541584
  0
VERTEX
  8
1
 10
742.02775173
 20
931.64956028
  0
VERTEX
  8
1
 10
752.21542889
 20
928.58668897
  0
VERTEX
  8
1
 10
762.19878169
 20
924.95150289
  0
VERTEX
  8
1
 10
782.08718080
 20
915.95764679
  0
VERTEX
  8
1
 10
801.69658443
 20
906.34249410
  0
VERTEX
  8
1
 10
821.54590719
 20
897.58497954
  0
VERTEX
  8
1
 10
841.68315669
 20
889.47079000
  0
VERTEX
  8
1
 10
859.28619638
 20
882.65330845
  0
VERTEX
  8
1
 10
877.07231685
 20
876.38350972
  0
VERTEX
  8
1
 10
895.48580755
 20
870.81518639
  0
VERTEX
  8
1
 10
913.96928951
 20
865.43709859
  0
VERTEX
  8
1
 10
935.65275656
 20
858.57434976
  0
VERTEX
  8
1
 10
957.39458247
 20
851.95528707
  0
VERTEX
  8
1
 10
977.88225833
 20
846.78873689
  0
VERTEX
  8
1
 10
998.51299068
 20
842.14766988
  0
VERTEX
  8
1
 10
1033.21953365
 20
834.33846578
  0
SEQEND
  0
POLYLINE
  8
84
 66
1
 70
1
  0
VERTEX
  8
84
 10
1016.69316646
 20
794.00899801
  0
VERTEX
  8
84
 10
998.67984687
 20
799.46728940
  0
VERTEX
  8
84
 10
980.62319494
 20
804.76353751
  0
VERTEX
  8
84
 10
962.52261032
 20
809.89800048
  0
VERTEX
  8
84
 10
944.37749263
 20
814.87093648
  0
VERTEX
  8
84
 10
925.27108154
 20
819.92029655
  0
VERTEX
  8
84
 10
906.11683537
 20
824.79090741
  0
VERTEX
  8
84
 10
886.91670934
 20
829.48192832
  0
VERTEX
  8
84
 10
867.67265865
 20
833.99251851
  0
VERTEX
  8
84
 10
848.54835368
 20
838.26780679
  0
VERTEX
  8
84
 10
829.36552974
 20
842.25716695
  0
VERTEX
  8
84
 10
810.06282967
 20
845.88531352
  0
VERTEX
  8
84
 10
790.68974849
 20
849.15389547
  0
VERTEX
  8
84
 10
775.48285996
 20
851.28465045
  0
VERTEX
  8
84
 10
760.25654889
 20
853.18212090
  0
VERTEX
  8
84
 10
745.00880051
 20
854.83735973
  0
VERTEX
  8
84
 10
729.73760005
 20
856.24141988
  0
VERTEX
  8
84
 10
714.44494573
 20
857.39114059
  0
VERTEX
  8
84
 10
699.13287600
 20
858.30765969
  0
VERTEX
  8
84
 10
683.80743343
 20
859.01781059
  0
VERTEX
  8
84
 10
668.47466060
 20
859.54842672
  0
VERTEX
  8
84
 10
653.16747610
 20
859.92634030
  0
VERTEX
  8
84
 10
637.85923911
 20
860.18217092
  0
VERTEX
  8
84
 10
607.24052974
 20
860.44784078
  0
VERTEX
  8
84
 10
576.65518103
 20
860.54468486
  0
VERTEX
  8
84
 10
546.06963130
 20
860.50741109
  0
VERTEX
  8
84
 10
515.51609675
 20
860.33094456
  0
VERTEX
  8
84
 10
484.96318599
 20
860.01607808
  0
VERTEX
  8
84
 10
342.77959224
 20
860.00289449
  0
VERTEX
  8
84
 10
329.22710201
 20
883.14412984
  0
VERTEX
  8
84
 10
347.40459224
 20
893.25789937
  0
VERTEX
  8
84
 10
390.28789302
 20
917.58761129
  0
VERTEX
  8
84
 10
401.94161589
 20
923.99850211
  0
VERTEX
  8
84
 10
413.77031490
 20
930.12850484
  0
VERTEX
  8
84
 10
424.03935786
 20
934.52328023
  0
VERTEX
  8
84
 10
433.95732661
 20
936.60262594
  0
VERTEX
  8
84
 10
442.18095943
 20
937.16488179
  0
VERTEX
  8
84
 10
453.44756099
 20
937.60055074
  0
VERTEX
  8
84
 10
492.96294185
 20
937.71529683
  0
VERTEX
  8
84
 10
592.77226802
 20
938.21480855
  0
VERTEX
  8
84
 10
654.23369380
 20
938.07894429
  0
VERTEX
  8
84
 10
678.48808833
 20
938.20760640
  0
VERTEX
  8
84
 10
689.30740835
 20
938.53212813
  0
VERTEX
  8
84
 10
700.02976593
 20
938.28443085
  0
VERTEX
  8
84
 10
710.67360649
 20
937.46630841
  0
VERTEX
  8
84
 10
721.25737544
 20
936.07955465
  0
VERTEX
  8
84
 10
731.69023798
 20
934.14541584
  0
VERTEX
  8
84
 10
742.02775173
 20
931.64956028
  0
VERTEX
  8
84
 10
752.21542889
 20
928.58668897
  0
VERTEX
  8
84
 10
762.19878169
 20
924.95150289
  0
VERTEX
  8
84
 10
782.08718080
 20
915.95764679
  0
VERTEX
  8
84
 10
801.69658443
 20
906.34249410
  0
VERTEX
  8
84
 10
821.54590719
 20
897.58497954
  0
VERTEX
  8
84
 10
841.68315669
 20
889.47079000
  0
VERTEX
  8
84
 10
859.28619638
 20
882.65330845
  0
VERTEX
  8
84
 10
877.07231685
 20
876.38350972
  0
VERTEX
  8
84
 10
895.48580755
 20
870.81518639
  0
VERTEX
  8
84
 10
913.96928951
 20
865.43709859
  0
VERTEX
  8
84
 10
935.65275656
 20
858.57434976
  0
VERTEX
  8
84
 10
957.39458247
 20
851.95528707
  0
VERTEX
  8
84
 10
977.88225833
 20
846.78873689
  0
VERTEX
  8
84
 10
998.51299068
 20
842.14766988
  0
VERTEX
  8
84
 10
1033.21953365
 20
834.33846578
  0
SEQEND
  0
POINT
  8
2
 10
1016.69316646
 20
794.00899801
  0
TEXT
  8
2
 10
1016.69316646
 20
794.00899801
 40
10.00000000
 50
0.00000000
  1
# 81
  0
POINT
  8
3
 10
998.67984687
 20
799.46728940
  0
POINT
  8
3
 10
980.62319494
 20
804.76353751
  0
POINT
  8
3
 10
962.52261032
 20
809.89800048
  0
POINT
  8
3
 10
944.37749263
 20
814.87093648
  0
POINT
  8
3
 10
925.27108154
 20
819.92029655
  0
POINT
  8
3
 10
906.11683537
 20
824.79090741
  0
POINT
  8
3
 10
886.91670934
 20
829.48192832
  0
POINT
  8
3
 10
867.67265865
 20
833.99251851
  0
POINT
  8
3
 10
848.54835368
 20
838.26780679
  0
POINT
  8
3
 10
829.36552974
 20
842.25716695
  0
POINT
  8
3
 10
810.06282967
 20
845.88531352
  0
POINT
  8
2
 10
790.68974849
 20
849.15389547
  0
TEXT
  8
2
 10
790.68974849
 20
849.15389547
 40
10.00000000
 50
0.00000000
  1
# 82
  0
POINT
  8
3
 10
775.48285996
 20
851.28465045
  0
POINT
  8
3
 10
760.25654889
 20
853.18212090
  0
POINT
  8
3
 10
745.00880051
 20
854.83735973
  0
POINT
  8
3
 10
729.73760005
 20
856.24141988
  0
POINT
  8
3
 10
714.44494573
 20
857.39114059
  0
POINT
  8
3
 10
699.13287600
 20
858.30765969
  0
POINT
  8
3
 10
683.80743343
 20
859.01781059
  0
POINT
  8
3
 10
668.47466060
 20
859.54842672
  0
POINT
  8
3
 10
653.16747610
 20
859.92634030
  0
POINT
  8
3
 10
637.85923911
 20
860.18217092
  0
POINT
  8
3
 10
607.24052974
 20
860.44784078
  0
POINT
  8
3
 10
576.65518103
 20
860.54468486
  0
POINT
  8
3
 10
546.06963130
 20
860.50741109
  0
POINT
  8
3
 10
515.51609675
 20
860.33094456
  0
POINT
  8
2
 10
484.96318599
 20
860.01607808
  0
TEXT
  8
2
 10
484.96318599
 20
860.01607808
 40
10.00000000
 50
0.00000000
  1
# 83
  0
POINT
  8
2
 10
342.77959224
 20
860.00289449
  0
TEXT
  8
2
 10
342.77959224
 20
860.00289449
 40
10.00000000
 50
0.00000000
  1
# 84
  0
POINT
  8
2
 10
329.22710201
 20
883.14412984
  0
TEXT
  8
2
 10
329.22710201
 20
883.14412984
 40
10.00000000
 50
0.00000000
  1
# 85
  0
POINT
  8
3
 10
347.40459224
 20
893.25789937
  0
POINT
  8
3
 10
390.28789302
 20
917.58761129
  0
POINT
  8
3
 10
401.94161589
 20
923.99850211
  0
POINT
  8
3
 10
413.77031490
 20
930.12850484
  0
POINT
  8
3
 10
424.03935786
 20
934.52328023
  0
POINT
  8
3
 10
433.95732661
 20
936.60262594
  0
POINT
  8
2
 10
442.18095943
 20
937.16488179
  0
TEXT
  8
2
 10
442.18095943
 20
937.16488179
 40
10.00000000
 50
0.00000000
  1
# 86
  0
POINT
  8
2
 10
453.44756099
 20
937.60055074
  0
TEXT
  8
2
 10
453.44756099
 20
937.60055074
 40
10.00000000
 50
0.00000000
  1
# 87
  0
POINT
  8
3
 10
492.96294185
 20
937.71529683
  0
POINT
  8
3
 10
592.77226802
 20
938.21480855
  0
POINT
  8
2
 10
654.23369380
 20
938.07894429
  0
TEXT
  8
2
 10
654.23369380
 20
938.07894429
 40
10.00000000
 50
0.00000000
  1
# 88
  0
POINT
  8
2
 10
678.48808833
 20
938.20760640
  0
TEXT
  8
2
 10
678.48808833
 20
938.20760640
 40
10.00000000
 50
0.00000000
  1
# 89
  0
POINT
  8
3
 10
689.30740835
 20
938.53212813
  0
POINT
  8
3
 10
700.02976593
 20
938.28443085
  0
POINT
  8
3
 10
710.67360649
 20
937.46630841
  0
POINT
  8
3
 10
721.25737544
 20
936.07955465
  0
POINT
  8
3
 10
731.69023798
 20
934.14541584
  0
POINT
  8
3
 10
742.02775173
 20
931.64956028
  0
POINT
  8
3
 10
752.21542889
 20
928.58668897
  0
POINT
  8
3
 10
762.19878169
 20
924.95150289
  0
POINT
  8
3
 10
782.08718080
 20
915.95764679
  0
POINT
  8
3
 10
801.69658443
 20
906.34249410
  0
POINT
  8
3
 10
821.54590719
 20
897.58497954
  0
POINT
  8
3
 10
841.68315669
 20
889.47079000
  0
POINT
  8
3
 10
859.28619638
 20
882.65330845
  0
POINT
  8
3
 10
877.07231685
 20
876.38350972
  0
POINT
  8
3
 10
895.48580755
 20
870.81518639
  0
POINT
  8
3
 10
913.96928951
 20
865.43709859
  0
POINT
  8
3
 10
935.65275656
 20
858.57434976
  0
POINT
  8
3
 10
957.39458247
 20
851.95528707
  0
POINT
  8
3
 10
977.88225833
 20
846.78873689
  0
POINT
  8
3
 10
998.51299068
 20
842.14766988
  0
POINT
  8
2
 10
1033.21953365
 20
834.33846578
  0
TEXT
  8
2
 10
1033.21953365
 20
834.33846578
 40
10.00000000
 50
0.00000000
  1
# 90
  0
ENDBLK
  0
BLOCK
  8
1
  2
8
 70
64
 10
0.0
 20
0.0
  0
LINE
  8
7
 10
70.37113063
 20
1309.81811244
 11
127.77515285
 21
1309.81811244
  0
TEXT
  8
1
 10
0.00000000
 20
0.00000000
 40
20.00000000
 50
0.00000000
  1
Size: 48
  0
TEXT
  8
1
 10
99.07314174
 20
1317.31811244
 40
10.00000000
 50
0.00000000
  1
Piece Name: ABONNO.TE
  0
TEXT
  8
1
 10
99.07314174
 20
1317.31811244
 40
10.00000000
 50
0.00000000
  1
Quantity: 1
  0
TEXT
  8
1
 10
99.07314174
 20
1317.31811244
 40
10.00000000
 50
0.00000000
  1
Rotation: 0
  0
TEXT
  8
1
 10
99.07314174
 20
1317.31811244
 40
10.00000000
 50
0.00000000
  1
Tilt: 0
  0
TEXT
  8
1
 10
99.07314174
 20
1317.31811244
 40
10.00000000
 50
0.00000000
  1
Fold: N
  0
TEXT
  8
1
 10
99.07314174
 20
1317.31811244
 40
10.00000000
 50
0.00000000
  1
Material: 1
  0
POLYLINE
  8
1
 66
1
 70
1
  0
VERTEX
  8
1
 10
89.23341370
 20
1254.85197169
  0
VERTEX
  8
1
 10
82.97048984
 20
1280.30493772
  0
VERTEX
  8
1
 10
79.68567834
 20
1292.98957449
  0
VERTEX
  8
1
 10
76.29005432
 20
1305.64371974
  0
VERTEX
  8
1
 10
72.57710790
 20
1318.98873262
  0
VERTEX
  8
1
 10
68.75428838
 20
1332.30389301
  0
VERTEX
  8
1
 10
60.86378479
 20
1358.87028224
  0
VERTEX
  8
1
 10
52.66687025
 20
1385.39132572
  0
VERTEX
  8
1
 10
48.34647016
 20
1398.57560461
  0
VERTEX
  8
1
 10
43.79689026
 20
1411.67692287
  0
VERTEX
  8
1
 10
39.13656493
 20
1424.24402410
  0
VERTEX
  8
1
 10
34.22438634
 20
1436.71868805
  0
VERTEX
  8
1
 10
29.07953881
 20
1449.10850456
  0
VERTEX
  8
1
 10
23.72120667
 20
1461.42106349
  0
VERTEX
  8
1
 10
27.94581604
 20
1468.11149318
  0
VERTEX
  8
1
 10
39.14308167
 20
1466.56022365
  0
VERTEX
  8
1
 10
73.77882385
 20
1461.91862208
  0
VERTEX
  8
1
 10
138.52925110
 20
1262.33317287
  0
VERTEX
  8
1
 10
132.27973938
 20
1258.25407130
  0
SEQEND
  0
POLYLINE
  8
84
 66
1
 70
1
  0
VERTEX
  8
84
 10
89.23341370
 20
1254.85197169
  0
VERTEX
  8
84
 10
82.97048984
 20
1280.30493772
  0
VERTEX
  8
84
 10
79.68567834
 20
1292.98957449
  0
VERTEX
  8
84
 10
76.29005432
 20
1305.64371974
  0
VERTEX
  8
84
 10
72.57710790
 20
1318.98873262
  0
VERTEX
  8
84
 10
68.75428838
 20
1332.30389301
  0
VERTEX
  8
84
 10
60.86378479
 20
1358.87028224
  0
VERTEX
  8
84
 10
52.66687025
 20
1385.39132572
  0
VERTEX
  8
84
 10
48.34647016
 20
1398.57560461
  0
VERTEX
  8
84
 10
43.79689026
 20
1411.67692287
  0
VERTEX
  8
84
 10
39.13656493
 20
1424.24402410
  0
VERTEX
  8
84
 10
34.22438634
 20
1436.71868805
  0
VERTEX
  8
84
 10
29.07953881
 20
1449.10850456
  0
VERTEX
  8
84
 10
23.72120667
 20
1461.42106349
  0
VERTEX
  8
84
 10
27.94581604
 20
1468.11149318
  0
VERTEX
  8
84
 10
39.14308167
 20
1466.56022365
  0
VERTEX
  8
84
 10
73.77882385
 20
1461.91862208
  0
VERTEX
  8
84
 10
138.52925110
 20
1262.33317287
  0
VERTEX
  8
84
 10
132.27973938
 20
1258.25407130
  0
SEQEND
  0
POINT
  8
2
 10
89.23341370
 20
1254.85197169
  0
TEXT
  8
2
 10
89.23341370
 20
1254.85197169
 40
10.00000000
 50
0.00000000
  1
# 91
  0
POINT
  8
3
 10
82.97048984
 20
1280.30493772
  0
POINT
  8
3
 10
79.68567834
 20
1292.98957449
  0
POINT
  8
3
 10
76.29005432
 20
1305.64371974
  0
POINT
  8
3
 10
72.57710790
 20
1318.98873262
  0
POINT
  8
3
 10
68.75428838
 20
1332.30389301
  0
POINT
  8
3
 10
60.86378479
 20
1358.87028224
  0
POINT
  8
3
 10
52.66687025
 20
1385.39132572
  0
POINT
  8
3
 10
48.34647016
 20
1398.57560461
  0
POINT
  8
3
 10
43.79689026
 20
1411.67692287
  0
POINT
  8
3
 10
39.13656493
 20
1424.24402410
  0
POINT
  8
3
 10
34.22438634
 20
1436.71868805
  0
POINT
  8
3
 10
29.07953881
 20
1449.10850456
  0
POINT
  8
2
 10
23.72120667
 20
1461.42106349
  0
TEXT
  8
2
 10
23.72120667
 20
1461.42106349
 40
10.00000000
 50
0.00000000
  1
# 92
  0
POINT
  8
2
 10
27.94581604
 20
1468.11149318
  0
TEXT
  8
2
 10
27.94581604
 20
1468.11149318
 40
10.00000000
 50
0.00000000
  1
# 93
  0
POINT
  8
2
 10
39.14308167
 20
1466.56022365
  0
TEXT
  8
2
 10
39.14308167
 20
1466.56022365
 40
10.00000000
 50
0.00000000
  1
# 94
  0
POINT
  8
2
 10
73.77882385
 20
1461.91862208
  0
TEXT
  8
2
 10
73.77882385
 20
1461.91862208
 40
10.00000000
 50
0.00000000
  1
# 95
  0
POINT
  8
2
 10
138.52925110
 20
1262.33317287
  0
TEXT
  8
2
 10
138.52925110
 20
1262.33317287
 40
10.00000000
 50
0.00000000
  1
# 96
  0
POINT
  8
2
 10
132.27973938
 20
1258.25407130
  0
TEXT
  8
2
 10
132.27973938
 20
1258.25407130
 40
10.00000000
 50
0.00000000
  1
# 97
  0
POINT
  8
13
 10
69.89747620
 20
1391.50138576
  0
TEXT
  8
13
 10
69.89747620
 20
1391.50138576
 40
10.00000000
 50
0.00000000
  1
# 98
  0
POINT
  8
13
 10
95.09767151
 20
1308.30143458
  0
TEXT
  8
13
 10
95.09767151
 20
1308.30143458
 40
10.00000000
 50
0.00000000
  1
# 99
  0
ENDBLK
  0
BLOCK
  8
1
  2
9
 70
64
 10
0.0
 20
0.0
  0
LINE
  8
7
 10
1843.74375015
 20
1349.67997462
 11
2189.42099624
 21
1349.67997462
  0
TEXT
  8
1
 10
0.00000000
 20
0.00000000
 40
10.00000000
 50
0.00000000
  1
Size: 48
  0
TEXT
  8
1
 10
2016.58237320
 20
1364.67997462
 40
20.00000000
 50
0.00000000
  1
Piece Name: ABONNO.TR
  0
TEXT
  8
1
 10
2016.58237320
 20
1364.67997462
 40
20.00000000
 50
0.00000000
  1
Quantity: 1
  0
TEXT
  8
1
 10
2016.58237320
 20
1364.67997462
 40
20.00000000
 50
0.00000000
  1
Rotation: 0
  0
TEXT
  8
1
 10
2016.58237320
 20
1364.67997462
 40
20.00000000
 50
0.00000000
  1
Tilt: 0
  0
TEXT
  8
1
 10
2016.58237320
 20
1364.67997462
 40
20.00000000
 50
0.00000000
  1
Fold: N
  0
TEXT
  8
1
 10
2016.58237320
 20
1364.67997462
 40
20.00000000
 50
0.00000000
  1
Material: 1
  0
POLYLINE
  8
1
 66
1
 70
1
  0
VERTEX
  8
1
 10
1673.09503391
 20
1196.25477626
  0
VERTEX
  8
1
 10
1673.09503391
 20
1296.42469813
  0
VERTEX
  8
1
 10
1832.69708469
 20
1296.42079188
  0
VERTEX
  8
1
 10
1842.69708469
 20
1296.42079188
  0
VERTEX
  8
1
 10
1853.52520969
 20
1296.42079188
  0
VERTEX
  8
1
 10
2013.57354953
 20
1300.82270839
  0
VERTEX
  8
1
 10
1854.28741672
 20
1306.48872401
  0
VERTEX
  8
1
 10
1843.45929172
 20
1306.48970058
  0
VERTEX
  8
1
 10
1833.45929172
 20
1306.49067714
  0
VERTEX
  8
1
 10
1673.09503391
 20
1306.49067714
  0
VERTEX
  8
1
 10
1683.09503391
 20
1537.19966151
  0
VERTEX
  8
1
 10
1707.25785619
 20
1534.31480023
  0
VERTEX
  8
1
 10
1731.44884597
 20
1531.76224667
  0
VERTEX
  8
1
 10
1755.66800325
 20
1529.54200084
  0
VERTEX
  8
1
 10
1779.91511437
 20
1527.65407789
  0
VERTEX
  8
1
 10
1804.19039249
 20
1526.09845680
  0
VERTEX
  8
1
 10
1828.49383762
 20
1524.87513759
  0
VERTEX
  8
1
 10
1865.26132853
 20
1523.88928308
  0
VERTEX
  8
1
 10
1883.64676363
 20
1523.50623631
  0
VERTEX
  8
1
 10
1902.03381565
 20
1523.22639491
  0
VERTEX
  8
1
 10
1975.59546115
 20
1522.62989833
  0
VERTEX
  8
1
 10
1993.98272283
 20
1522.30447481
  0
VERTEX
  8
1
 10
2012.36792262
 20
1521.85760752
  0
VERTEX
  8
1
 10
2049.13360813
 20
1520.68940761
  0
VERTEX
  8
1
 10
2049.08413764
 20
1501.89548533
  0
VERTEX
  8
1
 10
2050.60327365
 20
1483.25837733
  0
VERTEX
  8
1
 10
2053.54267882
 20
1464.73974624
  0
VERTEX
  8
1
 10
2055.83803604
 20
1455.65577738
  0
VERTEX
  8
1
 10
2058.89654758
 20
1446.79243495
  0
VERTEX
  8
1
 10
2062.82132383
 20
1438.26406486
  0
VERTEX
  8
1
 10
2067.57929036
 20
1430.14531309
  0
VERTEX
  8
1
 10
2073.08763660
 20
1422.54953937
  0
VERTEX
  8
1
 10
2079.26355197
 20
1415.59010341
  0
VERTEX
  8
1
 10
2086.05253361
 20
1409.34696426
  0
VERTEX
  8
1
 10
2093.45558031
 20
1403.81774855
  0
VERTEX
  8
1
 10
2101.50036004
 20
1398.96458148
  0
VERTEX
  8
1
 10
2110.21454074
 20
1394.74958827
  0
VERTEX
  8
1
 10
2123.30385947
 20
1389.73605564
  0
VERTEX
  8
1
 10
2136.51851483
 20
1385.44732720
  0
VERTEX
  8
1
 10
2149.87705106
 20
1381.91046783
  0
VERTEX
  8
1
 10
2163.39801242
 20
1379.15254237
  0
VERTEX
  8
1
 10
2177.11577179
 20
1377.17934851
  0
VERTEX
  8
1
 10
2190.95941940
 20
1375.93398432
  0
VERTEX
  8
1
 10
2204.87313256
 20
1375.33497801
  0
VERTEX
  8
1
 10
2218.80108860
 20
1375.30085780
  0
VERTEX
  8
1
 10
2232.70964464
 20
1375.74932100
  0
VERTEX
  8
1
 10
2246.58349177
 20
1376.59198644
  0
VERTEX
  8
1
 10
2260.42957115
 20
1377.73882512
  0
VERTEX
  8
1
 10
2274.25482395
 20
1379.09980800
  0
VERTEX
  8
1
 10
2288.06705935
 20
1380.60518677
  0
VERTEX
  8
1
 10
2301.86309009
 20
1382.26474249
  0
VERTEX
  8
1
 10
2315.64060178
 20
1384.10849356
  0
VERTEX
  8
1
 10
2329.39728000
 20
1386.16645839
  0
VERTEX
  8
1
 10
2334.34955281
 20
1369.47170288
  0
VERTEX
  8
1
 10
2339.65762481
 20
1352.90385880
  0
VERTEX
  8
1
 10
2345.32149599
 20
1336.46292615
  0
VERTEX
  8
1
 10
2351.34165117
 20
1320.14763370
  0
VERTEX
  8
1
 10
2357.71766121
 20
1303.95927254
  0
VERTEX
  8
1
 10
2364.44952610
 20
1287.89784267
  0
VERTEX
  8
1
 10
2356.03864819
 20
1278.73407241
  0
VERTEX
  8
1
 10
2352.50278077
 20
1273.78293174
  0
VERTEX
  8
1
 10
2349.43048313
 20
1268.55555751
  0
VERTEX
  8
1
 10
2344.64264113
 20
1257.25079106
  0
VERTEX
  8
1
 10
2341.46563938
 20
1245.28553798
  0
VERTEX
  8
1
 10
2339.53300166
 20
1233.09722257
  0
VERTEX
  8
1
 10
2338.27911594
 20
1220.84559657
  0
VERTEX
  8
1
 10
2336.41583469
 20
1196.25477626
  0
SEQEND
  0
POLYLINE
  8
84
 66
1
 70
1
  0
VERTEX
  8
84
 10
1673.09503391
 20
1196.25477626
  0
VERTEX
  8
84
 10
1673.09503391
 20
1296.42469813
  0
VERTEX
  8
84
 10
1832.69708469
 20
1296.42079188
  0
VERTEX
  8
84
 10
1842.69708469
 20
1296.42079188
  0
VERTEX
  8
84
 10
1853.52520969
 20
1296.42079188
  0
VERTEX
  8
84
 10
2013.57354953
 20
1300.82270839
  0
VERTEX
  8
84
 10
1854.28741672
 20
1306.48872401
  0
VERTEX
  8
84
 10
1843.45929172
 20
1306.48970058
  0
VERTEX
  8
84
 10
1833.45929172
 20
1306.49067714
  0
VERTEX
  8
84
 10
1673.09503391
 20
1306.49067714
  0
VERTEX
  8
84
 10
1683.09503391
 20
1537.19966151
  0
VERTEX
  8
84
 10
1707.25785619
 20
1534.31480023
  0
VERTEX
  8
84
 10
1731.44884597
 20
1531.76224667
  0
VERTEX
  8
84
 10
1755.66800325
 20
1529.54200084
  0
VERTEX
  8
84
 10
1779.91511437
 20
1527.65407789
  0
VERTEX
  8
84
 10
1804.19039249
 20
1526.09845680
  0
VERTEX
  8
84
 10
1828.49383762
 20
1524.87513759
  0
VERTEX
  8
84
 10
1865.26132853
 20
1523.88928308
  0
VERTEX
  8
84
 10
1883.64676363
 20
1523.50623631
  0
VERTEX
  8
84
 10
1902.03381565
 20
1523.22639491
  0
VERTEX
  8
84
 10
1975.59546115
 20
1522.62989833
  0
VERTEX
  8
84
 10
1993.98272283
 20
1522.30447481
  0
VERTEX
  8
84
 10
2012.36792262
 20
1521.85760752
  0
VERTEX
  8
84
 10
2049.13360813
 20
1520.68940761
  0
VERTEX
  8
84
 10
2049.08413764
 20
1501.89548533
  0
VERTEX
  8
84
 10
2050.60327365
 20
1483.25837733
  0
VERTEX
  8
84
 10
2053.54267882
 20
1464.73974624
  0
VERTEX
  8
84
 10
2055.83803604
 20
1455.65577738
  0
VERTEX
  8
84
 10
2058.89654758
 20
1446.79243495
  0
VERTEX
  8
84
 10
2062.82132383
 20
1438.26406486
  0
VERTEX
  8
84
 10
2067.57929036
 20
1430.14531309
  0
VERTEX
  8
84
 10
2073.08763660
 20
1422.54953937
  0
VERTEX
  8
84
 10
2079.26355197
 20
1415.59010341
  0
VERTEX
  8
84
 10
2086.05253361
 20
1409.34696426
  0
VERTEX
  8
84
 10
2093.45558031
 20
1403.81774855
  0
VERTEX
  8
84
 10
2101.50036004
 20
1398.96458148
  0
VERTEX
  8
84
 10
2110.21454074
 20
1394.74958827
  0
VERTEX
  8
84
 10
2123.30385947
 20
1389.73605564
  0
VERTEX
  8
84
 10
2136.51851483
 20
1385.44732720
  0
VERTEX
  8
84
 10
2149.87705106
 20
1381.91046783
  0
VERTEX
  8
84
 10
2163.39801242
 20
1379.15254237
  0
VERTEX
  8
84
 10
2177.11577179
 20
1377.17934851
  0
VERTEX
  8
84
 10
2190.95941940
 20
1375.93398432
  0
VERTEX
  8
84
 10
2204.87313256
 20
1375.33497801
  0
VERTEX
  8
84
 10
2218.80108860
 20
1375.30085780
  0
VERTEX
  8
84
 10
2232.70964464
 20
1375.74932100
  0
VERTEX
  8
84
 10
2246.58349177
 20
1376.59198644
  0
VERTEX
  8
84
 10
2260.42957115
 20
1377.73882512
  0
VERTEX
  8
84
 10
2274.25482395
 20
1379.09980800
  0
VERTEX
  8
84
 10
2288.06705935
 20
1380.60518677
  0
VERTEX
  8
84
 10
2301.86309009
 20
1382.26474249
  0
VERTEX
  8
84
 10
2315.64060178
 20
1384.10849356
  0
VERTEX
  8
84
 10
2329.39728000
 20
1386.16645839
  0
VERTEX
  8
84
 10
2334.34955281
 20
1369.47170288
  0
VERTEX
  8
84
 10
2339.65762481
 20
1352.90385880
  0
VERTEX
  8
84
 10
2345.32149599
 20
1336.46292615
  0
VERTEX
  8
84
 10
2351.34165117
 20
1320.14763370
  0
VERTEX
  8
84
 10
2357.71766121
 20
1303.95927254
  0
VERTEX
  8
84
 10
2364.44952610
 20
1287.89784267
  0
VERTEX
  8
84
 10
2356.03864819
 20
1278.73407241
  0
VERTEX
  8
84
 10
2352.50278077
 20
1273.78293174
  0
VERTEX
  8
84
 10
2349.43048313
 20
1268.55555751
  0
VERTEX
  8
84
 10
2344.64264113
 20
1257.25079106
  0
VERTEX
  8
84
 10
2341.46563938
 20
1245.28553798
  0
VERTEX
  8
84
 10
2339.53300166
 20
1233.09722257
  0
VERTEX
  8
84
 10
2338.27911594
 20
1220.84559657
  0
VERTEX
  8
84
 10
2336.41583469
 20
1196.25477626
  0
SEQEND
  0
POINT
  8
2
 10
1673.09503391
 20
1196.25477626
  0
TEXT
  8
2
 10
1673.09503391
 20
1196.25477626
 40
10.00000000
 50
0.00000000
  1
# 100
  0
POINT
  8
2
 10
1673.09503391
 20
1296.42469813
  0
TEXT
  8
2
 10
1673.09503391
 20
1296.42469813
 40
10.00000000
 50
0.00000000
  1
# 101
  0
POINT
  8
2
 10
1832.69708469
 20
1296.42079188
  0
TEXT
  8
2
 10
1832.69708469
 20
1296.42079188
 40
10.00000000
 50
0.00000000
  1
# 102
  0
POINT
  8
2
 10
1842.69708469
 20
1296.42079188
  0
TEXT
  8
2
 10
1842.69708469
 20
1296.42079188
 40
10.00000000
 50
0.00000000
  1
# 103
  0
POINT
  8
2
 10
1853.52520969
 20
1296.42079188
  0
TEXT
  8
2
 10
1853.52520969
 20
1296.42079188
 40
10.00000000
 50
0.00000000
  1
# 104
  0
POINT
  8
2
 10
2013.57354953
 20
1300.82270839
  0
TEXT
  8
2
 10
2013.57354953
 20
1300.82270839
 40
10.00000000
 50
0.00000000
  1
# 105
  0
POINT
  8
2
 10
1854.28741672
 20
1306.48872401
  0
TEXT
  8
2
 10
1854.28741672
 20
1306.48872401
 40
10.00000000
 50
0.00000000
  1
# 106
  0
POINT
  8
2
 10
1843.45929172
 20
1306.48970058
  0
TEXT
  8
2
 10
1843.45929172
 20
1306.48970058
 40
10.00000000
 50
0.00000000
  1
# 107
  0
POINT
  8
2
 10
1833.45929172
 20
1306.49067714
  0
TEXT
  8
2
 10
1833.45929172
 20
1306.49067714
 40
10.00000000
 50
0.00000000
  1
# 108
  0
POINT
  8
2
 10
1673.09503391
 20
1306.49067714
  0
TEXT
  8
2
 10
1673.09503391
 20
1306.49067714
 40
10.00000000
 50
0.00000000
  1
# 109
  0
POINT
  8
2
 10
1683.09503391
 20
1537.19966151
  0
TEXT
  8
2
 10
1683.09503391
 20
1537.19966151
 40
10.00000000
 50
0.00000000
  1
# 110
  0
POINT
  8
3
 10
1707.25785619
 20
1534.31480023
  0
POINT
  8
3
 10
1731.44884597
 20
1531.76224667
  0
POINT
  8
3
 10
1755.66800325
 20
1529.54200084
  0
POINT
  8
3
 10
1779.91511437
 20
1527.65407789
  0
POINT
  8
3
 10
1804.19039249
 20
1526.09845680
  0
POINT
  8
2
 10
1828.49383762
 20
1524.87513759
  0
TEXT
  8
2
 10
1828.49383762
 20
1524.87513759
 40
10.00000000
 50
0.00000000
  1
# 111
  0
POINT
  8
3
 10
1865.26132853
 20
1523.88928308
  0
POINT
  8
3
 10
1883.64676363
 20
1523.50623631
  0
POINT
  8
3
 10
1902.03381565
 20
1523.22639491
  0
POINT
  8
3
 10
1975.59546115
 20
1522.62989833
  0
POINT
  8
3
 10
1993.98272283
 20
1522.30447481
  0
POINT
  8
3
 10
2012.36792262
 20
1521.85760752
  0
POINT
  8
2
 10
2049.13360813
 20
1520.68940761
  0
TEXT
  8
2
 10
2049.13360813
 20
1520.68940761
 40
10.00000000
 50
0.00000000
  1
# 112
  0
POINT
  8
3
 10
2049.08413764
 20
1501.89548533
  0
POINT
  8
3
 10
2050.60327365
 20
1483.25837733
  0
POINT
  8
3
 10
2053.54267882
 20
1464.73974624
  0
POINT
  8
3
 10
2055.83803604
 20
1455.65577738
  0
POINT
  8
3
 10
2058.89654758
 20
1446.79243495
  0
POINT
  8
3
 10
2062.82132383
 20
1438.26406486
  0
POINT
  8
3
 10
2067.57929036
 20
1430.14531309
  0
POINT
  8
3
 10
2073.08763660
 20
1422.54953937
  0
POINT
  8
3
 10
2079.26355197
 20
1415.59010341
  0
POINT
  8
3
 10
2086.05253361
 20
1409.34696426
  0
POINT
  8
3
 10
2093.45558031
 20
1403.81774855
  0
POINT
  8
3
 10
2101.50036004
 20
1398.96458148
  0
POINT
  8
2
 10
2110.21454074
 20
1394.74958827
  0
TEXT
  8
2
 10
2110.21454074
 20
1394.74958827
 40
10.00000000
 50
0.00000000
  1
# 113
  0
POINT
  8
3
 10
2123.30385947
 20
1389.73605564
  0
POINT
  8
3
 10
2136.51851483
 20
1385.44732720
  0
POINT
  8
3
 10
2149.87705106
 20
1381.91046783
  0
POINT
  8
3
 10
2163.39801242
 20
1379.15254237
  0
POINT
  8
3
 10
2177.11577179
 20
1377.17934851
  0
POINT
  8
3
 10
2190.95941940
 20
1375.93398432
  0
POINT
  8
3
 10
2204.87313256
 20
1375.33497801
  0
POINT
  8
3
 10
2218.80108860
 20
1375.30085780
  0
POINT
  8
3
 10
2232.70964464
 20
1375.74932100
  0
POINT
  8
3
 10
2246.58349177
 20
1376.59198644
  0
POINT
  8
3
 10
2260.42957115
 20
1377.73882512
  0
POINT
  8
3
 10
2274.25482395
 20
1379.09980800
  0
POINT
  8
3
 10
2288.06705935
 20
1380.60518677
  0
POINT
  8
3
 10
2301.86309009
 20
1382.26474249
  0
POINT
  8
3
 10
2315.64060178
 20
1384.10849356
  0
POINT
  8
2
 10
2329.39728000
 20
1386.16645839
  0
TEXT
  8
2
 10
2329.39728000
 20
1386.16645839
 40
10.00000000
 50
0.00000000
  1
# 114
  0
POINT
  8
3
 10
2334.34955281
 20
1369.47170288
  0
POINT
  8
3
 10
2339.65762481
 20
1352.90385880
  0
POINT
  8
3
 10
2345.32149599
 20
1336.46292615
  0
POINT
  8
3
 10
2351.34165117
 20
1320.14763370
  0
POINT
  8
3
 10
2357.71766121
 20
1303.95927254
  0
POINT
  8
2
 10
2364.44952610
 20
1287.89784267
  0
TEXT
  8
2
 10
2364.44952610
 20
1287.89784267
 40
10.00000000
 50
0.00000000
  1
# 115
  0
POINT
  8
3
 10
2356.03864819
 20
1278.73407241
  0
POINT
  8
3
 10
2352.50278077
 20
1273.78293174
  0
POINT
  8
3
 10
2349.43048313
 20
1268.55555751
  0
POINT
  8
3
 10
2344.64264113
 20
1257.25079106
  0
POINT
  8
3
 10
2341.46563938
 20
1245.28553798
  0
POINT
  8
3
 10
2339.53300166
 20
1233.09722257
  0
POINT
  8
3
 10
2338.27911594
 20
1220.84559657
  0
POINT
  8
2
 10
2336.41583469
 20
1196.25477626
  0
TEXT
  8
2
 10
2336.41583469
 20
1196.25477626
 40
10.00000000
 50
0.00000000
  1
# 116
  0
POINT
  8
4
 10
1842.69708469
 20
1296.42079188
 30
7.50000000
 50
270.00000000
  0
TEXT
  8
1
 10
1842.69708469
 20
1296.42079188
 40
10.00000000
 50
0.00000000
  1
# 117
  0
POINT
  8
4
 10
2013.57354953
 20
1300.82270839
 30
5.09901951
 50
348.69006753
  0
TEXT
  8
1
 10
2013.57354953
 20
1300.82270839
 40
10.00000000
 50
0.00000000
  1
# 118
  0
POINT
  8
4
 10
2013.57354953
 20
1300.82270839
 30
5.09901951
 50
371.30993247
  0
TEXT
  8
1
 10
2013.57354953
 20
1300.82270839
 40
10.00000000
 50
0.00000000
  1
# 119
  0
POINT
  8
4
 10
1843.45929172
 20
1306.48970058
 30
7.50000000
 50
449.99461867
  0
TEXT
  8
1
 10
1843.45929172
 20
1306.48970058
 40
10.00000000
 50
0.00000000
  1
# 120
  0
ENDBLK
  0
BLOCK
  8
1
  2
10
 70
64
 10
0.0
 20
0.0
  0
LINE
  8
7
 10
424.05292709
 20
1168.60577113
 11
469.07953841
 21
1168.60577113
  0
TEXT
  8
1
 10
0.00000000
 20
0.00000000
 40
20.00000000
 50
0.00000000
  1
Size: 48
  0
TEXT
  8
1
 10
446.56623275
 20
1172.35577113
 40
5.00000000
 50
0.00000000
  1
Piece Name: ABONNO.VG
  0
TEXT
  8
1
 10
446.56623275
 20
1172.35577113
 40
5.00000000
 50
0.00000000
  1
Quantity: 1
  0
TEXT
  8
1
 10
446.56623275
 20
1172.35577113
 40
5.00000000
 50
0.00000000
  1
Rotation: 0
  0
TEXT
  8
1
 10
446.56623275
 20
1172.35577113
 40
5.00000000
 50
0.00000000
  1
Tilt: 0
  0
TEXT
  8
1
 10
446.56623275
 20
1172.35577113
 40
5.00000000
 50
0.00000000
  1
Fold: N
  0
TEXT
  8
1
 10
446.56623275
 20
1172.35577113
 40
5.00000000
 50
0.00000000
  1
Material: 1
  0
POLYLINE
  8
1
 66
1
 70
1
  0
VERTEX
  8
1
 10
415.61622925
 20
1132.47776210
  0
VERTEX
  8
1
 10
395.50844116
 20
1261.39035976
  0
VERTEX
  8
1
 10
401.08803101
 20
1271.47544276
  0
VERTEX
  8
1
 10
466.73402710
 20
1271.47928798
  0
VERTEX
  8
1
 10
485.56166382
 20
1153.51804530
  0
VERTEX
  8
1
 10
465.07289429
 20
1138.02744472
  0
VERTEX
  8
1
 10
447.56093140
 20
1138.96421229
  0
VERTEX
  8
1
 10
440.58168335
 20
1128.76951015
  0
SEQEND
  0
POLYLINE
  8
84
 66
1
 70
1
  0
VERTEX
  8
84
 10
415.61622925
 20
1132.47776210
  0
VERTEX
  8
84
 10
395.50844116
 20
1261.39035976
  0
VERTEX
  8
84
 10
401.08803101
 20
1271.47544276
  0
VERTEX
  8
84
 10
466.73402710
 20
1271.47928798
  0
VERTEX
  8
84
 10
485.56166382
 20
1153.51804530
  0
VERTEX
  8
84
 10
465.07289429
 20
1138.02744472
  0
VERTEX
  8
84
 10
447.56093140
 20
1138.96421229
  0
VERTEX
  8
84
 10
440.58168335
 20
1128.76951015
  0
SEQEND
  0
POINT
  8
2
 10
415.61622925
 20
1132.47776210
  0
TEXT
  8
2
 10
415.61622925
 20
1132.47776210
 40
10.00000000
 50
0.00000000
  1
# 121
  0
POINT
  8
2
 10
395.50844116
 20
1261.39035976
  0
TEXT
  8
2
 10
395.50844116
 20
1261.39035976
 40
10.00000000
 50
0.00000000
  1
# 122
  0
POINT
  8
2
 10
401.08803101
 20
1271.47544276
  0
TEXT
  8
2
 10
401.08803101
 20
1271.47544276
 40
10.00000000
 50
0.00000000
  1
# 123
  0
POINT
  8
2
 10
466.73402710
 20
1271.47928798
  0
TEXT
  8
2
 10
466.73402710
 20
1271.47928798
 40
10.00000000
 50
0.00000000
  1
# 124
  0
POINT
  8
2
 10
485.56166382
 20
1153.51804530
  0
TEXT
  8
2
 10
485.56166382
 20
1153.51804530
 40
10.00000000
 50
0.00000000
  1
# 125
  0
POINT
  8
2
 10
465.07289429
 20
1138.02744472
  0
TEXT
  8
2
 10
465.07289429
 20
1138.02744472
 40
10.00000000
 50
0.00000000
  1
# 126
  0
POINT
  8
2
 10
447.56093140
 20
1138.96421229
  0
TEXT
  8
2
 10
447.56093140
 20
1138.96421229
 40
10.00000000
 50
0.00000000
  1
# 127
  0
POINT
  8
2
 10
440.58168335
 20
1128.76951015
  0
TEXT
  8
2
 10
440.58168335
 20
1128.76951015
 40
10.00000000
 50
0.00000000
  1
# 128
  0
ENDBLK
  0
BLOCK
  8
1
  2
11
 70
64
 10
0.0
 20
0.0
  0
LINE
  8
7
 10
43.32014973
 20
913.54031398
 11
87.59700519
 21
913.54031398
  0
TEXT
  8
1
 10
0.00000000
 20
0.00000000
 40
5.00000000
 50
0.00000000
  1
Size: 48
  0
TEXT
  8
1
 10
65.45857746
 20
917.29031398
 40
5.00000000
 50
0.00000000
  1
Piece Name: ABONNO.VP
  0
TEXT
  8
1
 10
65.45857746
 20
917.29031398
 40
5.00000000
 50
0.00000000
  1
Quantity: 1
  0
TEXT
  8
1
 10
65.45857746
 20
917.29031398
 40
5.00000000
 50
0.00000000
  1
Rotation: 0
  0
TEXT
  8
1
 10
65.45857746
 20
917.29031398
 40
5.00000000
 50
0.00000000
  1
Tilt: 0
  0
TEXT
  8
1
 10
65.45857746
 20
917.29031398
 40
5.00000000
 50
0.00000000
  1
Fold: N
  0
TEXT
  8
1
 10
65.45857746
 20
917.29031398
 40
5.00000000
 50
0.00000000
  1
Material: 1
  0
POLYLINE
  8
1
 66
1
 70
1
  0
VERTEX
  8
1
 10
35.14096680
 20
953.04861476
  0
VERTEX
  8
1
 10
60.10629883
 20
956.75662257
  0
VERTEX
  8
1
 10
67.08579102
 20
946.56228664
  0
VERTEX
  8
1
 10
84.59750977
 20
947.49881007
  0
VERTEX
  8
1
 10
105.08676758
 20
932.00808742
  0
VERTEX
  8
1
 10
87.75864258
 20
826.04714992
  0
VERTEX
  8
1
 10
22.11313477
 20
826.05105617
  0
VERTEX
  8
1
 10
16.53305664
 20
836.13601710
  0
SEQEND
  0
POLYLINE
  8
84
 66
1
 70
1
  0
VERTEX
  8
84
 10
35.14096680
 20
953.04861476
  0
VERTEX
  8
84
 10
60.10629883
 20
956.75662257
  0
VERTEX
  8
84
 10
67.08579102
 20
946.56228664
  0
VERTEX
  8
84
 10
84.59750977
 20
947.49881007
  0
VERTEX
  8
84
 10
105.08676758
 20
932.00808742
  0
VERTEX
  8
84
 10
87.75864258
 20
826.04714992
  0
VERTEX
  8
84
 10
22.11313477
 20
826.05105617
  0
VERTEX
  8
84
 10
16.53305664
 20
836.13601710
  0
SEQEND
  0
POINT
  8
2
 10
35.14096680
 20
953.04861476
  0
TEXT
  8
2
 10
35.14096680
 20
953.04861476
 40
10.00000000
 50
0.00000000
  1
# 129
  0
POINT
  8
2
 10
60.10629883
 20
956.75662257
  0
TEXT
  8
2
 10
60.10629883
 20
956.75662257
 40
10.00000000
 50
0.00000000
  1
# 130
  0
POINT
  8
2
 10
67.08579102
 20
946.56228664
  0
TEXT
  8
2
 10
67.08579102
 20
946.56228664
 40
10.00000000
 50
0.00000000
  1
# 131
  0
POINT
  8
2
 10
84.59750977
 20
947.49881007
  0
TEXT
  8
2
 10
84.59750977
 20
947.49881007
 40
10.00000000
 50
0.00000000
  1
# 132
  0
POINT
  8
2
 10
105.08676758
 20
932.00808742
  0
TEXT
  8
2
 10
105.08676758
 20
932.00808742
 40
10.00000000
 50
0.00000000
  1
# 133
  0
POINT
  8
2
 10
87.75864258
 20
826.04714992
  0
TEXT
  8
2
 10
87.75864258
 20
826.04714992
 40
10.00000000
 50
0.00000000
  1
# 134
  0
POINT
  8
2
 10
22.11313477
 20
826.05105617
  0
TEXT
  8
2
 10
22.11313477
 20
826.05105617
 40
10.00000000
 50
0.00000000
  1
# 135
  0
POINT
  8
2
 10
16.53305664
 20
836.13601710
  0
TEXT
  8
2
 10
16.53305664
 20
836.13601710
 40
10.00000000
 50
0.00000000
  1
# 136
  0
ENDBLK
  0
BLOCK
  8
1
  2
12
 70
64
 10
0.0
 20
0.0
  0
LINE
  8
7
 10
2471.32920912
 20
812.28032470
 11
2536.84095839
 21
812.28032470
  0
TEXT
  8
1
 10
0.00000000
 20
0.00000000
 40
5.00000000
 50
0.00000000
  1
Size: 48
  0
TEXT
  8
1
 10
2504.08508375
 20
816.03032470
 40
5.00000000
 50
0.00000000
  1
Piece Name: ABONNO.GOC
  0
TEXT
  8
1
 10
2504.08508375
 20
816.03032470
 40
5.00000000
 50
0.00000000
  1
Quantity: 1
  0
TEXT
  8
1
 10
2504.08508375
 20
816.03032470
 40
5.00000000
 50
0.00000000
  1
Rotation: 0
  0
TEXT
  8
1
 10
2504.08508375
 20
816.03032470
 40
5.00000000
 50
0.00000000
  1
Tilt: 0
  0
TEXT
  8
1
 10
2504.08508375
 20
816.03032470
 40
5.00000000
 50
0.00000000
  1
Fold: N
  0
TEXT
  8
1
 10
2504.08508375
 20
816.03032470
 40
5.00000000
 50
0.00000000
  1
Material: 1
  0
POLYLINE
  8
1
 66
1
 70
1
  0
VERTEX
  8
1
 10
2570.94532183
 20
832.33633361
  0
VERTEX
  8
1
 10
2549.69971636
 20
780.12985168
  0
VERTEX
  8
1
 10
2536.36796977
 20
782.63792068
  0
VERTEX
  8
1
 10
2522.94483355
 20
784.30514465
  0
VERTEX
  8
1
 10
2509.42085359
 20
785.14919611
  0
VERTEX
  8
1
 10
2495.88324907
 20
785.04617248
  0
VERTEX
  8
1
 10
2482.42482372
 20
783.87191218
  0
VERTEX
  8
1
 10
2469.03046587
 20
781.64425597
  0
VERTEX
  8
1
 10
2465.78760784
 20
781.32978159
  0
VERTEX
  8
1
 10
2462.63349321
 20
781.68325744
  0
VERTEX
  8
1
 10
2460.06146170
 20
782.46623006
  0
VERTEX
  8
1
 10
2457.79096392
 20
783.76284728
  0
VERTEX
  8
1
 10
2455.80398396
 20
786.13702801
  0
VERTEX
  8
1
 10
2454.62690142
 20
789.36721740
  0
VERTEX
  8
1
 10
2439.92182329
 20
825.83724914
  0
VERTEX
  8
1
 10
2449.47187212
 20
829.16690002
  0
VERTEX
  8
1
 10
2501.37397173
 20
851.57534728
  0
VERTEX
  8
1
 10
2524.35108355
 20
844.44515929
  0
VERTEX
  8
1
 10
2547.72046831
 20
838.65670715
  0
SEQEND
  0
POLYLINE
  8
84
 66
1
 70
1
  0
VERTEX
  8
84
 10
2570.94532183
 20
832.33633361
  0
VERTEX
  8
84
 10
2549.69971636
 20
780.12985168
  0
VERTEX
  8
84
 10
2536.36796977
 20
782.63792068
  0
VERTEX
  8
84
 10
2522.94483355
 20
784.30514465
  0
VERTEX
  8
84
 10
2509.42085359
 20
785.14919611
  0
VERTEX
  8
84
 10
2495.88324907
 20
785.04617248
  0
VERTEX
  8
84
 10
2482.42482372
 20
783.87191218
  0
VERTEX
  8
84
 10
2469.03046587
 20
781.64425597
  0
VERTEX
  8
84
 10
2465.78760784
 20
781.32978159
  0
VERTEX
  8
84
 10
2462.63349321
 20
781.68325744
  0
VERTEX
  8
84
 10
2460.06146170
 20
782.46623006
  0
VERTEX
  8
84
 10
2457.79096392
 20
783.76284728
  0
VERTEX
  8
84
 10
2455.80398396
 20
786.13702801
  0
VERTEX
  8
84
 10
2454.62690142
 20
789.36721740
  0
VERTEX
  8
84
 10
2439.92182329
 20
825.83724914
  0
VERTEX
  8
84
 10
2449.47187212
 20
829.16690002
  0
VERTEX
  8
84
 10
2501.37397173
 20
851.57534728
  0
VERTEX
  8
84
 10
2524.35108355
 20
844.44515929
  0
VERTEX
  8
84
 10
2547.72046831
 20
838.65670715
  0
SEQEND
  0
POINT
  8
2
 10
2570.94532183
 20
832.33633361
  0
TEXT
  8
2
 10
2570.94532183
 20
832.33633361
 40
10.00000000
 50
0.00000000
  1
# 137
  0
POINT
  8
2
 10
2549.69971636
 20
780.12985168
  0
TEXT
  8
2
 10
2549.69971636
 20
780.12985168
 40
10.00000000
 50
0.00000000
  1
# 138
  0
POINT
  8
3
 10
2536.36796977
 20
782.63792068
  0
POINT
  8
3
 10
2522.94483355
 20
784.30514465
  0
POINT
  8
3
 10
2509.42085359
 20
785.14919611
  0
POINT
  8
3
 10
2495.88324907
 20
785.04617248
  0
POINT
  8
3
 10
2482.42482372
 20
783.87191218
  0
POINT
  8
2
 10
2469.03046587
 20
781.64425597
  0
TEXT
  8
2
 10
2469.03046587
 20
781.64425597
 40
10.00000000
 50
0.00000000
  1
# 139
  0
POINT
  8
3
 10
2465.78760784
 20
781.32978159
  0
POINT
  8
3
 10
2462.63349321
 20
781.68325744
  0
POINT
  8
3
 10
2460.06146170
 20
782.46623006
  0
POINT
  8
3
 10
2457.79096392
 20
783.76284728
  0
POINT
  8
3
 10
2455.80398396
 20
786.13702801
  0
POINT
  8
2
 10
2454.62690142
 20
789.36721740
  0
TEXT
  8
2
 10
2454.62690142
 20
789.36721740
 40
10.00000000
 50
0.00000000
  1
# 140
  0
POINT
  8
2
 10
2439.92182329
 20
825.83724914
  0
TEXT
  8
2
 10
2439.92182329
 20
825.83724914
 40
10.00000000
 50
0.00000000
  1
# 141
  0
POINT
  8
2
 10
2449.47187212
 20
829.16690002
  0
TEXT
  8
2
 10
2449.47187212
 20
829.16690002
 40
10.00000000
 50
0.00000000
  1
# 142
  0
POINT
  8
2
 10
2501.37397173
 20
851.57534728
  0
TEXT
  8
2
 10
2501.37397173
 20
851.57534728
 40
10.00000000
 50
0.00000000
  1
# 143
  0
POINT
  8
3
 10
2524.35108355
 20
844.44515929
  0
POINT
  8
3
 10
2547.72046831
 20
838.65670715
  0
POINT
  8
4
 10
2469.03046587
 20
781.64425597
 30
3.86213643
 50
110.83004073
  0
TEXT
  8
1
 10
2469.03046587
 20
781.64425597
 40
10.00000000
 50
0.00000000
  1
# 144
  0
POINT
  8
4
 10
2449.47187212
 20
829.16690002
 30
3.83136067
 50
293.20891371
  0
TEXT
  8
1
 10
2449.47187212
 20
829.16690002
 40
10.00000000
 50
0.00000000
  1
# 145
  0
ENDBLK
  0
BLOCK
  8
1
  2
13
 70
64
 10
0.0
 20
0.0
  0
LINE
  8
7
 10
54.57129035
 20
686.03936728
 11
115.40811286
 21
686.03936728
  0
TEXT
  8
1
 10
0.00000000
 20
0.00000000
 40
5.00000000
 50
0.00000000
  1
Size: 48
  0
TEXT
  8
1
 10
84.98970160
 20
689.78936728
 40
5.00000000
 50
0.00000000
  1
Piece Name: ABONNO.GOE
  0
TEXT
  8
1
 10
84.98970160
 20
689.78936728
 40
5.00000000
 50
0.00000000
  1
Quantity: 1
  0
TEXT
  8
1
 10
84.98970160
 20
689.78936728
 40
5.00000000
 50
0.00000000
  1
Rotation: 0
  0
TEXT
  8
1
 10
84.98970160
 20
689.78936728
 40
5.00000000
 50
0.00000000
  1
Tilt: 0
  0
TEXT
  8
1
 10
84.98970160
 20
689.78936728
 40
5.00000000
 50
0.00000000
  1
Fold: N
  0
TEXT
  8
1
 10
84.98970160
 20
689.78936728
 40
5.00000000
 50
0.00000000
  1
Material: 1
  0
POLYLINE
  8
1
 66
1
 70
1
  0
VERTEX
  8
1
 10
147.11969168
 20
703.29547995
  0
VERTEX
  8
1
 10
128.40741140
 20
657.31415671
  0
VERTEX
  8
1
 10
116.32726189
 20
659.56602217
  0
VERTEX
  8
1
 10
104.16876394
 20
661.09674949
  0
VERTEX
  8
1
 10
90.40079590
 20
661.96989522
  0
VERTEX
  8
1
 10
76.61578543
 20
661.85120505
  0
VERTEX
  8
1
 10
63.11261459
 20
660.66964956
  0
VERTEX
  8
1
 10
49.67370779
 20
658.44489402
  0
VERTEX
  8
1
 10
46.92553226
 20
658.14413574
  0
VERTEX
  8
1
 10
44.26873953
 20
658.47785300
  0
VERTEX
  8
1
 10
41.16308767
 20
659.81159324
  0
VERTEX
  8
1
 10
39.48580331
 20
661.75627409
  0
VERTEX
  8
1
 10
38.56573660
 20
664.50190085
  0
VERTEX
  8
1
 10
25.44604666
 20
697.04004783
  0
VERTEX
  8
1
 10
31.64837820
 20
699.20246238
  0
VERTEX
  8
1
 10
82.47815115
 20
721.14795798
  0
VERTEX
  8
1
 10
104.31591970
 20
714.37128562
  0
VERTEX
  8
1
 10
127.74536306
 20
708.56794089
  0
SEQEND
  0
POLYLINE
  8
84
 66
1
 70
1
  0
VERTEX
  8
84
 10
147.11969168
 20
703.29547995
  0
VERTEX
  8
84
 10
128.40741140
 20
657.31415671
  0
VERTEX
  8
84
 10
116.32726189
 20
659.56602217
  0
VERTEX
  8
84
 10
104.16876394
 20
661.09674949
  0
VERTEX
  8
84
 10
90.40079590
 20
661.96989522
  0
VERTEX
  8
84
 10
76.61578543
 20
661.85120505
  0
VERTEX
  8
84
 10
63.11261459
 20
660.66964956
  0
VERTEX
  8
84
 10
49.67370779
 20
658.44489402
  0
VERTEX
  8
84
 10
46.92553226
 20
658.14413574
  0
VERTEX
  8
84
 10
44.26873953
 20
658.47785300
  0
VERTEX
  8
84
 10
41.16308767
 20
659.81159324
  0
VERTEX
  8
84
 10
39.48580331
 20
661.75627409
  0
VERTEX
  8
84
 10
38.56573660
 20
664.50190085
  0
VERTEX
  8
84
 10
25.44604666
 20
697.04004783
  0
VERTEX
  8
84
 10
31.64837820
 20
699.20246238
  0
VERTEX
  8
84
 10
82.47815115
 20
721.14795798
  0
VERTEX
  8
84
 10
104.31591970
 20
714.37128562
  0
VERTEX
  8
84
 10
127.74536306
 20
708.56794089
  0
SEQEND
  0
POINT
  8
2
 10
147.11969168
 20
703.29547995
  0
TEXT
  8
2
 10
147.11969168
 20
703.29547995
 40
10.00000000
 50
0.00000000
  1
# 146
  0
POINT
  8
2
 10
128.40741140
 20
657.31415671
  0
TEXT
  8
2
 10
128.40741140
 20
657.31415671
 40
10.00000000
 50
0.00000000
  1
# 147
  0
POINT
  8
3
 10
116.32726189
 20
659.56602217
  0
POINT
  8
3
 10
104.16876394
 20
661.09674949
  0
POINT
  8
3
 10
90.40079590
 20
661.96989522
  0
POINT
  8
3
 10
76.61578543
 20
661.85120505
  0
POINT
  8
3
 10
63.11261459
 20
660.66964956
  0
POINT
  8
2
 10
49.67370779
 20
658.44489402
  0
TEXT
  8
2
 10
49.67370779
 20
658.44489402
 40
10.00000000
 50
0.00000000
  1
# 148
  0
POINT
  8
3
 10
46.92553226
 20
658.14413574
  0
POINT
  8
3
 10
44.26873953
 20
658.47785300
  0
POINT
  8
3
 10
41.16308767
 20
659.81159324
  0
POINT
  8
3
 10
39.48580331
 20
661.75627409
  0
POINT
  8
2
 10
38.56573660
 20
664.50190085
  0
TEXT
  8
2
 10
38.56573660
 20
664.50190085
 40
10.00000000
 50
0.00000000
  1
# 149
  0
POINT
  8
2
 10
25.44604666
 20
697.04004783
  0
TEXT
  8
2
 10
25.44604666
 20
697.04004783
 40
10.00000000
 50
0.00000000
  1
# 150
  0
POINT
  8
2
 10
31.64837820
 20
699.20246238
  0
TEXT
  8
2
 10
31.64837820
 20
699.20246238
 40
10.00000000
 50
0.00000000
  1
# 151
  0
POINT
  8
2
 10
82.47815115
 20
721.14795798
  0
TEXT
  8
2
 10
82.47815115
 20
721.14795798
 40
10.00000000
 50
0.00000000
  1
# 152
  0
POINT
  8
3
 10
104.31591970
 20
714.37128562
  0
POINT
  8
3
 10
127.74536306
 20
708.56794089
  0
ENDBLK
  0
BLOCK
  8
1
  2
14
 70
64
 10
0.0
 20
0.0
  0
LINE
  8
7
 10
602.58444117
 20
628.82737841
 11
668.09615992
 21
628.82737841
  0
TEXT
  8
1
 10
0.00000000
 20
0.00000000
 40
5.00000000
 50
0.00000000
  1
Size: 48
  0
TEXT
  8
1
 10
635.34030054
 20
632.57737841
 40
5.00000000
 50
0.00000000
  1
Piece Name: ABONNO.GOF
  0
TEXT
  8
1
 10
635.34030054
 20
632.57737841
 40
5.00000000
 50
0.00000000
  1
Quantity: 1
  0
TEXT
  8
1
 10
635.34030054
 20
632.57737841
 40
5.00000000
 50
0.00000000
  1
Rotation: 0
  0
TEXT
  8
1
 10
635.34030054
 20
632.57737841
 40
5.00000000
 50
0.00000000
  1
Tilt: 0
  0
TEXT
  8
1
 10
635.34030054
 20
632.57737841
 40
5.00000000
 50
0.00000000
  1
Fold: N
  0
TEXT
  8
1
 10
635.34030054
 20
632.57737841
 40
5.00000000
 50
0.00000000
  1
Material: 1
  0
POLYLINE
  8
1
 66
1
 70
1
  0
VERTEX
  8
1
 10
702.20047758
 20
648.88338732
  0
VERTEX
  8
1
 10
680.95487211
 20
596.67690539
  0
VERTEX
  8
1
 10
667.62312549
 20
599.18497525
  0
VERTEX
  8
1
 10
654.19998930
 20
600.85219836
  0
VERTEX
  8
1
 10
640.67604018
 20
601.69624511
  0
VERTEX
  8
1
 10
627.13846586
 20
601.59322619
  0
VERTEX
  8
1
 10
613.67991852
 20
600.41896938
  0
VERTEX
  8
1
 10
600.28543852
 20
598.19130968
  0
VERTEX
  8
1
 10
597.04283824
 20
597.87689541
  0
VERTEX
  8
1
 10
593.88895414
 20
598.23031115
  0
VERTEX
  8
1
 10
591.31679066
 20
599.01326242
  0
VERTEX
  8
1
 10
589.04618071
 20
600.30990099
  0
VERTEX
  8
1
 10
587.05920025
 20
602.68407342
  0
VERTEX
  8
1
 10
585.88211821
 20
605.91427111
  0
VERTEX
  8
1
 10
571.17704008
 20
642.38430285
  0
VERTEX
  8
1
 10
580.72684477
 20
645.71395373
  0
VERTEX
  8
1
 10
632.62918852
 20
668.12240099
  0
VERTEX
  8
1
 10
655.60623930
 20
660.99221300
  0
VERTEX
  8
1
 10
678.97586821
 20
655.20376086
  0
SEQEND
  0
POLYLINE
  8
84
 66
1
 70
1
  0
VERTEX
  8
84
 10
702.20047758
 20
648.88338732
  0
VERTEX
  8
84
 10
680.95487211
 20
596.67690539
  0
VERTEX
  8
84
 10
667.62312549
 20
599.18497525
  0
VERTEX
  8
84
 10
654.19998930
 20
600.85219836
  0
VERTEX
  8
84
 10
640.67604018
 20
601.69624511
  0
VERTEX
  8
84
 10
627.13846586
 20
601.59322619
  0
VERTEX
  8
84
 10
613.67991852
 20
600.41896938
  0
VERTEX
  8
84
 10
600.28543852
 20
598.19130968
  0
VERTEX
  8
84
 10
597.04283824
 20
597.87689541
  0
VERTEX
  8
84
 10
593.88895414
 20
598.23031115
  0
VERTEX
  8
84
 10
591.31679066
 20
599.01326242
  0
VERTEX
  8
84
 10
589.04618071
 20
600.30990099
  0
VERTEX
  8
84
 10
587.05920025
 20
602.68407342
  0
VERTEX
  8
84
 10
585.88211821
 20
605.91427111
  0
VERTEX
  8
84
 10
571.17704008
 20
642.38430285
  0
VERTEX
  8
84
 10
580.72684477
 20
645.71395373
  0
VERTEX
  8
84
 10
632.62918852
 20
668.12240099
  0
VERTEX
  8
84
 10
655.60623930
 20
660.99221300
  0
VERTEX
  8
84
 10
678.97586821
 20
655.20376086
  0
SEQEND
  0
POINT
  8
2
 10
702.20047758
 20
648.88338732
  0
TEXT
  8
2
 10
702.20047758
 20
648.88338732
 40
10.00000000
 50
0.00000000
  1
# 153
  0
POINT
  8
2
 10
680.95487211
 20
596.67690539
  0
TEXT
  8
2
 10
680.95487211
 20
596.67690539
 40
10.00000000
 50
0.00000000
  1
# 154
  0
POINT
  8
3
 10
667.62312549
 20
599.18497525
  0
POINT
  8
3
 10
654.19998930
 20
600.85219836
  0
POINT
  8
3
 10
640.67604018
 20
601.69624511
  0
POINT
  8
3
 10
627.13846586
 20
601.59322619
  0
POINT
  8
3
 10
613.67991852
 20
600.41896938
  0
POINT
  8
2
 10
600.28543852
 20
598.19130968
  0
TEXT
  8
2
 10
600.28543852
 20
598.19130968
 40
10.00000000
 50
0.00000000
  1
# 155
  0
POINT
  8
3
 10
597.04283824
 20
597.87689541
  0
POINT
  8
3
 10
593.88895414
 20
598.23031115
  0
POINT
  8
3
 10
591.31679066
 20
599.01326242
  0
POINT
  8
3
 10
589.04618071
 20
600.30990099
  0
POINT
  8
3
 10
587.05920025
 20
602.68407342
  0
POINT
  8
2
 10
585.88211821
 20
605.91427111
  0
TEXT
  8
2
 10
585.88211821
 20
605.91427111
 40
10.00000000
 50
0.00000000
  1
# 156
  0
POINT
  8
2
 10
571.17704008
 20
642.38430285
  0
TEXT
  8
2
 10
571.17704008
 20
642.38430285
 40
10.00000000
 50
0.00000000
  1
# 157
  0
POINT
  8
2
 10
580.72684477
 20
645.71395373
  0
TEXT
  8
2
 10
580.72684477
 20
645.71395373
 40
10.00000000
 50
0.00000000
  1
# 158
  0
POINT
  8
2
 10
632.62918852
 20
668.12240099
  0
TEXT
  8
2
 10
632.62918852
 20
668.12240099
 40
10.00000000
 50
0.00000000
  1
# 159
  0
POINT
  8
3
 10
655.60623930
 20
660.99221300
  0
POINT
  8
3
 10
678.97586821
 20
655.20376086
  0
POINT
  8
4
 10
600.28543852
 20
598.19130968
 30
3.86213643
 50
110.83004073
  0
TEXT
  8
1
 10
600.28543852
 20
598.19130968
 40
10.00000000
 50
0.00000000
  1
# 160
  0
POINT
  8
4
 10
580.72684477
 20
645.71395373
 30
3.83136067
 50
293.20891371
  0
TEXT
  8
1
 10
580.72684477
 20
645.71395373
 40
10.00000000
 50
0.00000000
  1
# 161
  0
ENDBLK
  0
BLOCK
  8
1
  2
15
 70
64
 10
0.0
 20
0.0
  0
LINE
  8
7
 10
257.52249615
 20
119.07578914
 11
409.59500591
 21
119.07578914
  0
TEXT
  8
1
 10
0.00000000
 20
0.00000000
 40
5.00000000
 50
0.00000000
  1
Size: 48
  0
TEXT
  8
1
 10
333.55875103
 20
126.57578914
 40
10.00000000
 50
0.00000000
  1
Piece Name: ABONNO.P2C
  0
TEXT
  8
1
 10
333.55875103
 20
126.57578914
 40
10.00000000
 50
0.00000000
  1
Quantity: 1
  0
TEXT
  8
1
 10
333.55875103
 20
126.57578914
 40
10.00000000
 50
0.00000000
  1
Rotation: 0
  0
TEXT
  8
1
 10
333.55875103
 20
126.57578914
 40
10.00000000
 50
0.00000000
  1
Tilt: 0
  0
TEXT
  8
1
 10
333.55875103
 20
126.57578914
 40
10.00000000
 50
0.00000000
  1
Fold: N
  0
TEXT
  8
1
 10
333.55875103
 20
126.57578914
 40
10.00000000
 50
0.00000000
  1
Material: 1
  0
POLYLINE
  8
1
 66
1
 70
1
  0
VERTEX
  8
1
 10
160.69175283
 20
188.71221821
  0
VERTEX
  8
1
 10
163.56870596
 20
197.19561665
  0
VERTEX
  8
1
 10
181.68432808
 20
198.09776320
  0
VERTEX
  8
1
 10
190.66834642
 20
197.83056203
  0
VERTEX
  8
1
 10
199.60703604
 20
197.05279439
  0
VERTEX
  8
1
 10
216.28667405
 20
194.23705047
  0
VERTEX
  8
1
 10
232.75352041
 20
190.04766743
  0
VERTEX
  8
1
 10
250.36882285
 20
184.34641933
  0
VERTEX
  8
1
 10
267.41709463
 20
177.26214497
  0
VERTEX
  8
1
 10
282.32275093
 20
169.62383266
  0
VERTEX
  8
1
 10
297.22471182
 20
161.98004048
  0
VERTEX
  8
1
 10
313.39636339
 20
155.10048317
  0
VERTEX
  8
1
 10
329.90220205
 20
148.97527974
  0
VERTEX
  8
1
 10
346.43354436
 20
142.96616728
  0
VERTEX
  8
1
 10
363.01450674
 20
137.13641255
  0
VERTEX
  8
1
 10
379.72012922
 20
131.67170547
  0
VERTEX
  8
1
 10
396.53428213
 20
126.53314107
  0
VERTEX
  8
1
 10
413.42218263
 20
121.63544244
  0
VERTEX
  8
1
 10
430.36362783
 20
116.93133442
  0
VERTEX
  8
1
 10
453.40854971
 20
110.83123677
  0
VERTEX
  8
1
 10
464.83677236
 20
107.95757954
  0
VERTEX
  8
1
 10
460.00376455
 20
94.55816548
  0
VERTEX
  8
1
 10
406.75962393
 20
70.91046040
  0
VERTEX
  8
1
 10
374.44321768
 20
56.06011860
  0
VERTEX
  8
1
 10
371.55614654
 20
54.95244271
  0
VERTEX
  8
1
 10
368.59751455
 20
54.42144673
  0
VERTEX
  8
1
 10
365.54466115
 20
54.46456421
  0
VERTEX
  8
1
 10
362.56821768
 20
55.09771626
  0
VERTEX
  8
1
 10
359.92078841
 20
56.28990061
  0
VERTEX
  8
1
 10
357.48325674
 20
58.04937642
  0
VERTEX
  8
1
 10
334.70487007
 20
71.94079881
  0
VERTEX
  8
1
 10
311.99644033
 20
85.94488423
  0
VERTEX
  8
1
 10
284.49350504
 20
103.09491265
  0
VERTEX
  8
1
 10
270.79618410
 20
111.75682874
  0
VERTEX
  8
1
 10
257.14927236
 20
120.49944966
  0
VERTEX
  8
1
 10
243.56626532
 20
129.34083804
  0
VERTEX
  8
1
 10
230.06549942
 20
138.30704375
  0
VERTEX
  8
1
 10
216.66808240
 20
147.42511647
  0
VERTEX
  8
1
 10
203.39512197
 20
156.72210591
  0
VERTEX
  8
1
 10
192.57464351
 20
164.52520828
  0
VERTEX
  8
1
 10
181.85117666
 20
172.46063130
  0
VERTEX
  8
1
 10
171.22350469
 20
180.52268528
  0
SEQEND
  0
POLYLINE
  8
84
 66
1
 70
1
  0
VERTEX
  8
84
 10
160.69175283
 20
188.71221821
  0
VERTEX
  8
84
 10
163.56870596
 20
197.19561665
  0
VERTEX
  8
84
 10
181.68432808
 20
198.09776320
  0
VERTEX
  8
84
 10
190.66834642
 20
197.83056203
  0
VERTEX
  8
84
 10
199.60703604
 20
197.05279439
  0
VERTEX
  8
84
 10
216.28667405
 20
194.23705047
  0
VERTEX
  8
84
 10
232.75352041
 20
190.04766743
  0
VERTEX
  8
84
 10
250.36882285
 20
184.34641933
  0
VERTEX
  8
84
 10
267.41709463
 20
177.26214497
  0
VERTEX
  8
84
 10
282.32275093
 20
169.62383266
  0
VERTEX
  8
84
 10
297.22471182
 20
161.98004048
  0
VERTEX
  8
84
 10
313.39636339
 20
155.10048317
  0
VERTEX
  8
84
 10
329.90220205
 20
148.97527974
  0
VERTEX
  8
84
 10
346.43354436
 20
142.96616728
  0
VERTEX
  8
84
 10
363.01450674
 20
137.13641255
  0
VERTEX
  8
84
 10
379.72012922
 20
131.67170547
  0
VERTEX
  8
84
 10
396.53428213
 20
126.53314107
  0
VERTEX
  8
84
 10
413.42218263
 20
121.63544244
  0
VERTEX
  8
84
 10
430.36362783
 20
116.93133442
  0
VERTEX
  8
84
 10
453.40854971
 20
110.83123677
  0
VERTEX
  8
84
 10
464.83677236
 20
107.95757954
  0
VERTEX
  8
84
 10
460.00376455
 20
94.55816548
  0
VERTEX
  8
84
 10
406.75962393
 20
70.91046040
  0
VERTEX
  8
84
 10
374.44321768
 20
56.06011860
  0
VERTEX
  8
84
 10
371.55614654
 20
54.95244271
  0
VERTEX
  8
84
 10
368.59751455
 20
54.42144673
  0
VERTEX
  8
84
 10
365.54466115
 20
54.46456421
  0
VERTEX
  8
84
 10
362.56821768
 20
55.09771626
  0
VERTEX
  8
84
 10
359.92078841
 20
56.28990061
  0
VERTEX
  8
84
 10
357.48325674
 20
58.04937642
  0
VERTEX
  8
84
 10
334.70487007
 20
71.94079881
  0
VERTEX
  8
84
 10
311.99644033
 20
85.94488423
  0
VERTEX
  8
84
 10
284.49350504
 20
103.09491265
  0
VERTEX
  8
84
 10
270.79618410
 20
111.75682874
  0
VERTEX
  8
84
 10
257.14927236
 20
120.49944966
  0
VERTEX
  8
84
 10
243.56626532
 20
129.34083804
  0
VERTEX
  8
84
 10
230.06549942
 20
138.30704375
  0
VERTEX
  8
84
 10
216.66808240
 20
147.42511647
  0
VERTEX
  8
84
 10
203.39512197
 20
156.72210591
  0
VERTEX
  8
84
 10
192.57464351
 20
164.52520828
  0
VERTEX
  8
84
 10
181.85117666
 20
172.46063130
  0
VERTEX
  8
84
 10
171.22350469
 20
180.52268528
  0
SEQEND
  0
POINT
  8
2
 10
160.69175283
 20
188.71221821
  0
TEXT
  8
2
 10
160.69175283
 20
188.71221821
 40
10.00000000
 50
0.00000000
  1
# 162
  0
POINT
  8
2
 10
163.56870596
 20
197.19561665
  0
TEXT
  8
2
 10
163.56870596
 20
197.19561665
 40
10.00000000
 50
0.00000000
  1
# 163
  0
POINT
  8
3
 10
181.68432808
 20
198.09776320
  0
POINT
  8
3
 10
190.66834642
 20
197.83056203
  0
POINT
  8
3
 10
199.60703604
 20
197.05279439
  0
POINT
  8
3
 10
216.28667405
 20
194.23705047
  0
POINT
  8
3
 10
232.75352041
 20
190.04766743
  0
POINT
  8
3
 10
250.36882285
 20
184.34641933
  0
POINT
  8
3
 10
267.41709463
 20
177.26214497
  0
POINT
  8
3
 10
282.32275093
 20
169.62383266
  0
POINT
  8
3
 10
297.22471182
 20
161.98004048
  0
POINT
  8
3
 10
313.39636339
 20
155.10048317
  0
POINT
  8
3
 10
329.90220205
 20
148.97527974
  0
POINT
  8
3
 10
346.43354436
 20
142.96616728
  0
POINT
  8
3
 10
363.01450674
 20
137.13641255
  0
POINT
  8
3
 10
379.72012922
 20
131.67170547
  0
POINT
  8
3
 10
396.53428213
 20
126.53314107
  0
POINT
  8
3
 10
413.42218263
 20
121.63544244
  0
POINT
  8
3
 10
430.36362783
 20
116.93133442
  0
POINT
  8
3
 10
453.40854971
 20
110.83123677
  0
POINT
  8
2
 10
464.83677236
 20
107.95757954
  0
TEXT
  8
2
 10
464.83677236
 20
107.95757954
 40
10.00000000
 50
0.00000000
  1
# 164
  0
POINT
  8
2
 10
460.00376455
 20
94.55816548
  0
TEXT
  8
2
 10
460.00376455
 20
94.55816548
 40
10.00000000
 50
0.00000000
  1
# 165
  0
POINT
  8
2
 10
406.75962393
 20
70.91046040
  0
TEXT
  8
2
 10
406.75962393
 20
70.91046040
 40
10.00000000
 50
0.00000000
  1
# 166
  0
POINT
  8
2
 10
374.44321768
 20
56.06011860
  0
TEXT
  8
2
 10
374.44321768
 20
56.06011860
 40
10.00000000
 50
0.00000000
  1
# 167
  0
POINT
  8
3
 10
371.55614654
 20
54.95244271
  0
POINT
  8
3
 10
368.59751455
 20
54.42144673
  0
POINT
  8
3
 10
365.54466115
 20
54.46456421
  0
POINT
  8
3
 10
362.56821768
 20
55.09771626
  0
POINT
  8
3
 10
359.92078841
 20
56.28990061
  0
POINT
  8
2
 10
357.48325674
 20
58.04937642
  0
TEXT
  8
2
 10
357.48325674
 20
58.04937642
 40
10.00000000
 50
0.00000000
  1
# 168
  0
POINT
  8
3
 10
334.70487007
 20
71.94079881
  0
POINT
  8
3
 10
311.99644033
 20
85.94488423
  0
POINT
  8
3
 10
284.49350504
 20
103.09491265
  0
POINT
  8
3
 10
270.79618410
 20
111.75682874
  0
POINT
  8
3
 10
257.14927236
 20
120.49944966
  0
POINT
  8
3
 10
243.56626532
 20
129.34083804
  0
POINT
  8
3
 10
230.06549942
 20
138.30704375
  0
POINT
  8
3
 10
216.66808240
 20
147.42511647
  0
POINT
  8
3
 10
203.39512197
 20
156.72210591
  0
POINT
  8
3
 10
192.57464351
 20
164.52520828
  0
POINT
  8
3
 10
181.85117666
 20
172.46063130
  0
POINT
  8
3
 10
171.22350469
 20
180.52268528
  0
POINT
  8
4
 10
406.75962393
 20
70.91046040
 30
7.50000000
 50
114.31398245
  0
TEXT
  8
1
 10
406.75962393
 20
70.91046040
 40
10.00000000
 50
0.00000000
  1
# 169
  0
ENDBLK
  0
BLOCK
  8
1
  2
16
 70
64
 10
0.0
 20
0.0
  0
LINE
  8
7
 10
149.29817473
 20
507.70265531
 11
297.10005462
 21
507.70265531
  0
TEXT
  8
1
 10
0.00000000
 20
0.00000000
 40
10.00000000
 50
0.00000000
  1
Size: 48
  0
TEXT
  8
1
 10
223.19911467
 20
515.20265531
 40
10.00000000
 50
0.00000000
  1
Piece Name: ABONNO.P2E
  0
TEXT
  8
1
 10
223.19911467
 20
515.20265531
 40
10.00000000
 50
0.00000000
  1
Quantity: 1
  0
TEXT
  8
1
 10
223.19911467
 20
515.20265531
 40
10.00000000
 50
0.00000000
  1
Rotation: 0
  0
TEXT
  8
1
 10
223.19911467
 20
515.20265531
 40
10.00000000
 50
0.00000000
  1
Tilt: 0
  0
TEXT
  8
1
 10
223.19911467
 20
515.20265531
 40
10.00000000
 50
0.00000000
  1
Fold: N
  0
TEXT
  8
1
 10
223.19911467
 20
515.20265531
 40
10.00000000
 50
0.00000000
  1
Material: 1
  0
POLYLINE
  8
1
 66
1
 70
1
  0
VERTEX
  8
1
 10
54.41056387
 20
577.97653974
  0
VERTEX
  8
1
 10
55.74161856
 20
581.90158856
  0
VERTEX
  8
1
 10
72.12690207
 20
582.71592335
  0
VERTEX
  8
1
 10
88.34708731
 20
581.83249677
  0
VERTEX
  8
1
 10
104.74292671
 20
579.11574195
  0
VERTEX
  8
1
 10
120.92863027
 20
575.00962079
  0
VERTEX
  8
1
 10
138.36019437
 20
569.39516608
  0
VERTEX
  8
1
 10
155.23624746
 20
562.42710126
  0
VERTEX
  8
1
 10
170.19270546
 20
554.80260819
  0
VERTEX
  8
1
 10
185.14249746
 20
547.16391767
  0
VERTEX
  8
1
 10
201.51443799
 20
540.23232099
  0
VERTEX
  8
1
 10
218.22477285
 20
534.06894696
  0
VERTEX
  8
1
 10
234.90354761
 20
528.04182178
  0
VERTEX
  8
1
 10
251.63151113
 20
522.19419110
  0
VERTEX
  8
1
 10
268.47902681
 20
516.71675738
  0
VERTEX
  8
1
 10
285.43571035
 20
511.56961835
  0
VERTEX
  8
1
 10
302.44739833
 20
506.67215487
  0
VERTEX
  8
1
 10
319.51163809
 20
501.96579755
  0
VERTEX
  8
1
 10
342.71940176
 20
495.86844647
  0
VERTEX
  8
1
 10
350.01432363
 20
494.04837811
  0
VERTEX
  8
1
 10
346.93229238
 20
485.50309003
  0
VERTEX
  8
1
 10
295.03361074
 20
462.45328534
  0
VERTEX
  8
1
 10
262.94620840
 20
447.70804608
  0
VERTEX
  8
1
 10
258.02384512
 20
446.32816327
  0
VERTEX
  8
1
 10
253.40299551
 20
446.84659589
  0
VERTEX
  8
1
 10
249.56998770
 20
448.98123944
  0
VERTEX
  8
1
 10
226.64029703
 20
462.92548417
  0
VERTEX
  8
1
 10
203.78092520
 20
476.98331464
  0
VERTEX
  8
1
 10
176.23381511
 20
494.11265544
  0
VERTEX
  8
1
 10
162.51442192
 20
502.76445671
  0
VERTEX
  8
1
 10
148.84562246
 20
511.49741376
  0
VERTEX
  8
1
 10
135.25225148
 20
520.32229976
  0
VERTEX
  8
1
 10
121.74088467
 20
529.27199680
  0
VERTEX
  8
1
 10
108.33217973
 20
538.37303758
  0
VERTEX
  8
1
 10
95.04679434
 20
547.65195478
  0
VERTEX
  8
1
 10
84.24451021
 20
555.41884262
  0
VERTEX
  8
1
 10
73.54142324
 20
563.32126630
  0
SEQEND
  0
POLYLINE
  8
84
 66
1
 70
1
  0
VERTEX
  8
84
 10
54.41056387
 20
577.97653974
  0
VERTEX
  8
84
 10
55.74161856
 20
581.90158856
  0
VERTEX
  8
84
 10
72.12690207
 20
582.71592335
  0
VERTEX
  8
84
 10
88.34708731
 20
581.83249677
  0
VERTEX
  8
84
 10
104.74292671
 20
579.11574195
  0
VERTEX
  8
84
 10
120.92863027
 20
575.00962079
  0
VERTEX
  8
84
 10
138.36019437
 20
569.39516608
  0
VERTEX
  8
84
 10
155.23624746
 20
562.42710126
  0
VERTEX
  8
84
 10
170.19270546
 20
554.80260819
  0
VERTEX
  8
84
 10
185.14249746
 20
547.16391767
  0
VERTEX
  8
84
 10
201.51443799
 20
540.23232099
  0
VERTEX
  8
84
 10
218.22477285
 20
534.06894696
  0
VERTEX
  8
84
 10
234.90354761
 20
528.04182178
  0
VERTEX
  8
84
 10
251.63151113
 20
522.19419110
  0
VERTEX
  8
84
 10
268.47902681
 20
516.71675738
  0
VERTEX
  8
84
 10
285.43571035
 20
511.56961835
  0
VERTEX
  8
84
 10
302.44739833
 20
506.67215487
  0
VERTEX
  8
84
 10
319.51163809
 20
501.96579755
  0
VERTEX
  8
84
 10
342.71940176
 20
495.86844647
  0
VERTEX
  8
84
 10
350.01432363
 20
494.04837811
  0
VERTEX
  8
84
 10
346.93229238
 20
485.50309003
  0
VERTEX
  8
84
 10
295.03361074
 20
462.45328534
  0
VERTEX
  8
84
 10
262.94620840
 20
447.70804608
  0
VERTEX
  8
84
 10
258.02384512
 20
446.32816327
  0
VERTEX
  8
84
 10
253.40299551
 20
446.84659589
  0
VERTEX
  8
84
 10
249.56998770
 20
448.98123944
  0
VERTEX
  8
84
 10
226.64029703
 20
462.92548417
  0
VERTEX
  8
84
 10
203.78092520
 20
476.98331464
  0
VERTEX
  8
84
 10
176.23381511
 20
494.11265544
  0
VERTEX
  8
84
 10
162.51442192
 20
502.76445671
  0
VERTEX
  8
84
 10
148.84562246
 20
511.49741376
  0
VERTEX
  8
84
 10
135.25225148
 20
520.32229976
  0
VERTEX
  8
84
 10
121.74088467
 20
529.27199680
  0
VERTEX
  8
84
 10
108.33217973
 20
538.37303758
  0
VERTEX
  8
84
 10
95.04679434
 20
547.65195478
  0
VERTEX
  8
84
 10
84.24451021
 20
555.41884262
  0
VERTEX
  8
84
 10
73.54142324
 20
563.32126630
  0
SEQEND
  0
POINT
  8
2
 10
54.41056387
 20
577.97653974
  0
TEXT
  8
2
 10
54.41056387
 20
577.97653974
 40
10.00000000
 50
0.00000000
  1
# 170
  0
POINT
  8
2
 10
55.74161856
 20
581.90158856
  0
TEXT
  8
2
 10
55.74161856
 20
581.90158856
 40
10.00000000
 50
0.00000000
  1
# 171
  0
POINT
  8
3
 10
72.12690207
 20
582.71592335
  0
POINT
  8
3
 10
88.34708731
 20
581.83249677
  0
POINT
  8
3
 10
104.74292671
 20
579.11574195
  0
POINT
  8
3
 10
120.92863027
 20
575.00962079
  0
POINT
  8
3
 10
138.36019437
 20
569.39516608
  0
POINT
  8
3
 10
155.23624746
 20
562.42710126
  0
POINT
  8
3
 10
170.19270546
 20
554.80260819
  0
POINT
  8
3
 10
185.14249746
 20
547.16391767
  0
POINT
  8
3
 10
201.51443799
 20
540.23232099
  0
POINT
  8
3
 10
218.22477285
 20
534.06894696
  0
POINT
  8
3
 10
234.90354761
 20
528.04182178
  0
POINT
  8
3
 10
251.63151113
 20
522.19419110
  0
POINT
  8
3
 10
268.47902681
 20
516.71675738
  0
POINT
  8
3
 10
285.43571035
 20
511.56961835
  0
POINT
  8
3
 10
302.44739833
 20
506.67215487
  0
POINT
  8
3
 10
319.51163809
 20
501.96579755
  0
POINT
  8
3
 10
342.71940176
 20
495.86844647
  0
POINT
  8
2
 10
350.01432363
 20
494.04837811
  0
TEXT
  8
2
 10
350.01432363
 20
494.04837811
 40
10.00000000
 50
0.00000000
  1
# 172
  0
POINT
  8
2
 10
346.93229238
 20
485.50309003
  0
TEXT
  8
2
 10
346.93229238
 20
485.50309003
 40
10.00000000
 50
0.00000000
  1
# 173
  0
POINT
  8
2
 10
295.03361074
 20
462.45328534
  0
TEXT
  8
2
 10
295.03361074
 20
462.45328534
 40
10.00000000
 50
0.00000000
  1
# 174
  0
POINT
  8
2
 10
262.94620840
 20
447.70804608
  0
TEXT
  8
2
 10
262.94620840
 20
447.70804608
 40
10.00000000
 50
0.00000000
  1
# 175
  0
POINT
  8
3
 10
258.02384512
 20
446.32816327
  0
POINT
  8
3
 10
253.40299551
 20
446.84659589
  0
POINT
  8
2
 10
249.56998770
 20
448.98123944
  0
TEXT
  8
2
 10
249.56998770
 20
448.98123944
 40
10.00000000
 50
0.00000000
  1
# 176
  0
POINT
  8
3
 10
226.64029703
 20
462.92548417
  0
POINT
  8
3
 10
203.78092520
 20
476.98331464
  0
POINT
  8
3
 10
176.23381511
 20
494.11265544
  0
POINT
  8
3
 10
162.51442192
 20
502.76445671
  0
POINT
  8
3
 10
148.84562246
 20
511.49741376
  0
POINT
  8
3
 10
135.25225148
 20
520.32229976
  0
POINT
  8
3
 10
121.74088467
 20
529.27199680
  0
POINT
  8
3
 10
108.33217973
 20
538.37303758
  0
POINT
  8
3
 10
95.04679434
 20
547.65195478
  0
POINT
  8
3
 10
84.24451021
 20
555.41884262
  0
POINT
  8
3
 10
73.54142324
 20
563.32126630
  0
ENDBLK
  0
BLOCK
  8
1
  2
17
 70
64
 10
0.0
 20
0.0
  0
LINE
  8
7
 10
152.52294413
 20
1658.42620362
 11
304.59569804
 21
1658.42620362
  0
TEXT
  8
1
 10
0.00000000
 20
0.00000000
 40
10.00000000
 50
0.00000000
  1
Size: 48
  0
TEXT
  8
1
 10
228.55932109
 20
1665.92620362
 40
10.00000000
 50
0.00000000
  1
Piece Name: ABONNO.P2F
  0
TEXT
  8
1
 10
228.55932109
 20
1665.92620362
 40
10.00000000
 50
0.00000000
  1
Quantity: 1
  0
TEXT
  8
1
 10
228.55932109
 20
1665.92620362
 40
10.00000000
 50
0.00000000
  1
Rotation: 0
  0
TEXT
  8
1
 10
228.55932109
 20
1665.92620362
 40
10.00000000
 50
0.00000000
  1
Tilt: 0
  0
TEXT
  8
1
 10
228.55932109
 20
1665.92620362
 40
10.00000000
 50
0.00000000
  1
Fold: N
  0
TEXT
  8
1
 10
228.55932109
 20
1665.92620362
 40
10.00000000
 50
0.00000000
  1
Material: 1
  0
POLYLINE
  8
1
 66
1
 70
1
  0
VERTEX
  8
1
 10
55.69182608
 20
1728.06263789
  0
VERTEX
  8
1
 10
58.56877920
 20
1736.54603632
  0
VERTEX
  8
1
 10
76.68451951
 20
1737.44817134
  0
VERTEX
  8
1
 10
85.66859927
 20
1737.18097101
  0
VERTEX
  8
1
 10
94.60735342
 20
1736.40321406
  0
VERTEX
  8
1
 10
111.28699497
 20
1733.58753979
  0
VERTEX
  8
1
 10
127.75383779
 20
1729.39820917
  0
VERTEX
  8
1
 10
145.36914337
 20
1723.69691420
  0
VERTEX
  8
1
 10
162.41741201
 20
1716.61256464
  0
VERTEX
  8
1
 10
177.32306414
 20
1708.97423976
  0
VERTEX
  8
1
 10
192.22502920
 20
1701.33046015
  0
VERTEX
  8
1
 10
208.39668177
 20
1694.45090572
  0
VERTEX
  8
1
 10
224.90251943
 20
1688.32569941
  0
VERTEX
  8
1
 10
241.43386223
 20
1682.31658891
  0
VERTEX
  8
1
 10
258.01482412
 20
1676.48683222
  0
VERTEX
  8
1
 10
274.72044367
 20
1671.02211444
  0
VERTEX
  8
1
 10
291.53459951
 20
1665.88356074
  0
VERTEX
  8
1
 10
308.42262641
 20
1660.98587867
  0
VERTEX
  8
1
 10
325.36418936
 20
1656.28175410
  0
VERTEX
  8
1
 10
348.40886709
 20
1650.18165644
  0
VERTEX
  8
1
 10
359.83733389
 20
1647.30799921
  0
VERTEX
  8
1
 10
355.00432608
 20
1633.90858515
  0
VERTEX
  8
1
 10
301.76018545
 20
1610.26088007
  0
VERTEX
  8
1
 10
269.44377920
 20
1595.41053828
  0
VERTEX
  8
1
 10
266.55670807
 20
1594.30286238
  0
VERTEX
  8
1
 10
263.59807608
 20
1593.77186640
  0
VERTEX
  8
1
 10
260.54522267
 20
1593.81498388
  0
VERTEX
  8
1
 10
257.56877920
 20
1594.44813593
  0
VERTEX
  8
1
 10
254.92134994
 20
1595.64032028
  0
VERTEX
  8
1
 10
252.48381826
 20
1597.39979609
  0
VERTEX
  8
1
 10
229.70544440
 20
1611.29123789
  0
VERTEX
  8
1
 10
206.99700186
 20
1625.29530390
  0
VERTEX
  8
1
 10
179.49391213
 20
1642.44528696
  0
VERTEX
  8
1
 10
165.79652839
 20
1651.10720016
  0
VERTEX
  8
1
 10
152.14958975
 20
1659.84986933
  0
VERTEX
  8
1
 10
138.56668541
 20
1668.69131319
  0
VERTEX
  8
1
 10
125.06602750
 20
1677.65758352
  0
VERTEX
  8
1
 10
111.66867415
 20
1686.77566081
  0
VERTEX
  8
1
 10
98.39568350
 20
1696.07252558
  0
VERTEX
  8
1
 10
87.57482640
 20
1703.87561168
  0
VERTEX
  8
1
 10
76.85100576
 20
1711.81105097
  0
VERTEX
  8
1
 10
66.22340722
 20
1719.87303910
  0
SEQEND
  0
POLYLINE
  8
84
 66
1
 70
1
  0
VERTEX
  8
84
 10
55.69182608
 20
1728.06263789
  0
VERTEX
  8
84
 10
58.56877920
 20
1736.54603632
  0
VERTEX
  8
84
 10
76.68451951
 20
1737.44817134
  0
VERTEX
  8
84
 10
85.66859927
 20
1737.18097101
  0
VERTEX
  8
84
 10
94.60735342
 20
1736.40321406
  0
VERTEX
  8
84
 10
111.28699497
 20
1733.58753979
  0
VERTEX
  8
84
 10
127.75383779
 20
1729.39820917
  0
VERTEX
  8
84
 10
145.36914337
 20
1723.69691420
  0
VERTEX
  8
84
 10
162.41741201
 20
1716.61256464
  0
VERTEX
  8
84
 10
177.32306414
 20
1708.97423976
  0
VERTEX
  8
84
 10
192.22502920
 20
1701.33046015
  0
VERTEX
  8
84
 10
208.39668177
 20
1694.45090572
  0
VERTEX
  8
84
 10
224.90251943
 20
1688.32569941
  0
VERTEX
  8
84
 10
241.43386223
 20
1682.31658891
  0
VERTEX
  8
84
 10
258.01482412
 20
1676.48683222
  0
VERTEX
  8
84
 10
274.72044367
 20
1671.02211444
  0
VERTEX
  8
84
 10
291.53459951
 20
1665.88356074
  0
VERTEX
  8
84
 10
308.42262641
 20
1660.98587867
  0
VERTEX
  8
84
 10
325.36418936
 20
1656.28175410
  0
VERTEX
  8
84
 10
348.40886709
 20
1650.18165644
  0
VERTEX
  8
84
 10
359.83733389
 20
1647.30799921
  0
VERTEX
  8
84
 10
355.00432608
 20
1633.90858515
  0
VERTEX
  8
84
 10
301.76018545
 20
1610.26088007
  0
VERTEX
  8
84
 10
269.44377920
 20
1595.41053828
  0
VERTEX
  8
84
 10
266.55670807
 20
1594.30286238
  0
VERTEX
  8
84
 10
263.59807608
 20
1593.77186640
  0
VERTEX
  8
84
 10
260.54522267
 20
1593.81498388
  0
VERTEX
  8
84
 10
257.56877920
 20
1594.44813593
  0
VERTEX
  8
84
 10
254.92134994
 20
1595.64032028
  0
VERTEX
  8
84
 10
252.48381826
 20
1597.39979609
  0
VERTEX
  8
84
 10
229.70544440
 20
1611.29123789
  0
VERTEX
  8
84
 10
206.99700186
 20
1625.29530390
  0
VERTEX
  8
84
 10
179.49391213
 20
1642.44528696
  0
VERTEX
  8
84
 10
165.79652839
 20
1651.10720016
  0
VERTEX
  8
84
 10
152.14958975
 20
1659.84986933
  0
VERTEX
  8
84
 10
138.56668541
 20
1668.69131319
  0
VERTEX
  8
84
 10
125.06602750
 20
1677.65758352
  0
VERTEX
  8
84
 10
111.66867415
 20
1686.77566081
  0
VERTEX
  8
84
 10
98.39568350
 20
1696.07252558
  0
VERTEX
  8
84
 10
87.57482640
 20
1703.87561168
  0
VERTEX
  8
84
 10
76.85100576
 20
1711.81105097
  0
VERTEX
  8
84
 10
66.22340722
 20
1719.87303910
  0
SEQEND
  0
POINT
  8
2
 10
55.69182608
 20
1728.06263789
  0
TEXT
  8
2
 10
55.69182608
 20
1728.06263789
 40
10.00000000
 50
0.00000000
  1
# 177
  0
POINT
  8
2
 10
58.56877920
 20
1736.54603632
  0
TEXT
  8
2
 10
58.56877920
 20
1736.54603632
 40
10.00000000
 50
0.00000000
  1
# 178
  0
POINT
  8
3
 10
76.68451951
 20
1737.44817134
  0
POINT
  8
3
 10
85.66859927
 20
1737.18097101
  0
POINT
  8
3
 10
94.60735342
 20
1736.40321406
  0
POINT
  8
3
 10
111.28699497
 20
1733.58753979
  0
POINT
  8
3
 10
127.75383779
 20
1729.39820917
  0
POINT
  8
3
 10
145.36914337
 20
1723.69691420
  0
POINT
  8
3
 10
162.41741201
 20
1716.61256464
  0
POINT
  8
3
 10
177.32306414
 20
1708.97423976
  0
POINT
  8
3
 10
192.22502920
 20
1701.33046015
  0
POINT
  8
3
 10
208.39668177
 20
1694.45090572
  0
POINT
  8
3
 10
224.90251943
 20
1688.32569941
  0
POINT
  8
3
 10
241.43386223
 20
1682.31658891
  0
POINT
  8
3
 10
258.01482412
 20
1676.48683222
  0
POINT
  8
3
 10
274.72044367
 20
1671.02211444
  0
POINT
  8
3
 10
291.53459951
 20
1665.88356074
  0
POINT
  8
3
 10
308.42262641
 20
1660.98587867
  0
POINT
  8
3
 10
325.36418936
 20
1656.28175410
  0
POINT
  8
3
 10
348.40886709
 20
1650.18165644
  0
POINT
  8
2
 10
359.83733389
 20
1647.30799921
  0
TEXT
  8
2
 10
359.83733389
 20
1647.30799921
 40
10.00000000
 50
0.00000000
  1
# 179
  0
POINT
  8
2
 10
355.00432608
 20
1633.90858515
  0
TEXT
  8
2
 10
355.00432608
 20
1633.90858515
 40
10.00000000
 50
0.00000000
  1
# 180
  0
POINT
  8
2
 10
301.76018545
 20
1610.26088007
  0
TEXT
  8
2
 10
301.76018545
 20
1610.26088007
 40
10.00000000
 50
0.00000000
  1
# 181
  0
POINT
  8
2
 10
269.44377920
 20
1595.41053828
  0
TEXT
  8
2
 10
269.44377920
 20
1595.41053828
 40
10.00000000
 50
0.00000000
  1
# 182
  0
POINT
  8
3
 10
266.55670807
 20
1594.30286238
  0
POINT
  8
3
 10
263.59807608
 20
1593.77186640
  0
POINT
  8
3
 10
260.54522267
 20
1593.81498388
  0
POINT
  8
3
 10
257.56877920
 20
1594.44813593
  0
POINT
  8
3
 10
254.92134994
 20
1595.64032028
  0
POINT
  8
2
 10
252.48381826
 20
1597.39979609
  0
TEXT
  8
2
 10
252.48381826
 20
1597.39979609
 40
10.00000000
 50
0.00000000
  1
# 183
  0
POINT
  8
3
 10
229.70544440
 20
1611.29123789
  0
POINT
  8
3
 10
206.99700186
 20
1625.29530390
  0
POINT
  8
3
 10
179.49391213
 20
1642.44528696
  0
POINT
  8
3
 10
165.79652839
 20
1651.10720016
  0
POINT
  8
3
 10
152.14958975
 20
1659.84986933
  0
POINT
  8
3
 10
138.56668541
 20
1668.69131319
  0
POINT
  8
3
 10
125.06602750
 20
1677.65758352
  0
POINT
  8
3
 10
111.66867415
 20
1686.77566081
  0
POINT
  8
3
 10
98.39568350
 20
1696.07252558
  0
POINT
  8
3
 10
87.57482640
 20
1703.87561168
  0
POINT
  8
3
 10
76.85100576
 20
1711.81105097
  0
POINT
  8
3
 10
66.22340722
 20
1719.87303910
  0
POINT
  8
4
 10
301.76018545
 20
1610.26088007
 30
7.50000000
 50
114.31398245
  0
TEXT
  8
1
 10
301.76018545
 20
1610.26088007
 40
10.00000000
 50
0.00000000
  1
# 184
  0
ENDBLK
  0
BLOCK
  8
1
  2
18
 70
64
 10
0.0
 20
0.0
  0
LINE
  8
7
 10
491.84561035
 20
1019.25067775
 11
622.84181854
 21
1019.25067775
  0
TEXT
  8
1
 10
0.00000000
 20
0.00000000
 40
10.00000000
 50
0.00000000
  1
Size: 48
  0
TEXT
  8
1
 10
557.34371444
 20
1026.75067775
 40
10.00000000
 50
0.00000000
  1
Piece Name: ABONNO.PER
  0
TEXT
  8
1
 10
557.34371444
 20
1026.75067775
 40
10.00000000
 50
0.00000000
  1
Quantity: 1
  0
TEXT
  8
1
 10
557.34371444
 20
1026.75067775
 40
10.00000000
 50
0.00000000
  1
Rotation: 0
  0
TEXT
  8
1
 10
557.34371444
 20
1026.75067775
 40
10.00000000
 50
0.00000000
  1
Tilt: 0
  0
TEXT
  8
1
 10
557.34371444
 20
1026.75067775
 40
10.00000000
 50
0.00000000
  1
Fold: N
  0
TEXT
  8
1
 10
557.34371444
 20
1026.75067775
 40
10.00000000
 50
0.00000000
  1
Material: 1
  0
POLYLINE
  8
1
 66
1
 70
1
  0
VERTEX
  8
1
 10
441.56738663
 20
993.64745204
  0
VERTEX
  8
1
 10
424.54932022
 20
1022.60344569
  0
VERTEX
  8
1
 10
441.31335831
 20
1050.54350917
  0
VERTEX
  8
1
 10
671.54173660
 20
1050.54350917
  0
VERTEX
  8
1
 10
678.73424149
 20
1042.20378749
  0
VERTEX
  8
1
 10
681.94495235
 20
1037.67630219
  0
VERTEX
  8
1
 10
684.51109695
 20
1032.83830897
  0
VERTEX
  8
1
 10
686.01763444
 20
1027.65029670
  0
VERTEX
  8
1
 10
686.54173660
 20
1022.09355800
  0
VERTEX
  8
1
 10
686.04378634
 20
1016.52471338
  0
VERTEX
  8
1
 10
684.53825760
 20
1011.33684413
  0
VERTEX
  8
1
 10
681.94273334
 20
1006.51232112
  0
VERTEX
  8
1
 10
678.70122147
 20
1001.99687831
  0
VERTEX
  8
1
 10
671.54173660
 20
993.64745204
  0
SEQEND
  0
POLYLINE
  8
84
 66
1
 70
1
  0
VERTEX
  8
84
 10
441.56738663
 20
993.64745204
  0
VERTEX
  8
84
 10
424.54932022
 20
1022.60344569
  0
VERTEX
  8
84
 10
441.31335831
 20
1050.54350917
  0
VERTEX
  8
84
 10
671.54173660
 20
1050.54350917
  0
VERTEX
  8
84
 10
678.73424149
 20
1042.20378749
  0
VERTEX
  8
84
 10
681.94495235
 20
1037.67630219
  0
VERTEX
  8
84
 10
684.51109695
 20
1032.83830897
  0
VERTEX
  8
84
 10
686.01763444
 20
1027.65029670
  0
VERTEX
  8
84
 10
686.54173660
 20
1022.09355800
  0
VERTEX
  8
84
 10
686.04378634
 20
1016.52471338
  0
VERTEX
  8
84
 10
684.53825760
 20
1011.33684413
  0
VERTEX
  8
84
 10
681.94273334
 20
1006.51232112
  0
VERTEX
  8
84
 10
678.70122147
 20
1001.99687831
  0
VERTEX
  8
84
 10
671.54173660
 20
993.64745204
  0
SEQEND
  0
POINT
  8
2
 10
441.56738663
 20
993.64745204
  0
TEXT
  8
2
 10
441.56738663
 20
993.64745204
 40
10.00000000
 50
0.00000000
  1
# 185
  0
POINT
  8
2
 10
424.54932022
 20
1022.60344569
  0
TEXT
  8
2
 10
424.54932022
 20
1022.60344569
 40
10.00000000
 50
0.00000000
  1
# 186
  0
POINT
  8
2
 10
441.31335831
 20
1050.54350917
  0
TEXT
  8
2
 10
441.31335831
 20
1050.54350917
 40
10.00000000
 50
0.00000000
  1
# 187
  0
POINT
  8
2
 10
671.54173660
 20
1050.54350917
  0
TEXT
  8
2
 10
671.54173660
 20
1050.54350917
 40
10.00000000
 50
0.00000000
  1
# 188
  0
POINT
  8
3
 10
678.73424149
 20
1042.20378749
  0
POINT
  8
3
 10
681.94495235
 20
1037.67630219
  0
POINT
  8
3
 10
684.51109695
 20
1032.83830897
  0
POINT
  8
3
 10
686.01763444
 20
1027.65029670
  0
POINT
  8
2
 10
686.54173660
 20
1022.09355800
  0
TEXT
  8
2
 10
686.54173660
 20
1022.09355800
 40
10.00000000
 50
0.00000000
  1
# 189
  0
POINT
  8
3
 10
686.04378634
 20
1016.52471338
  0
POINT
  8
3
 10
684.53825760
 20
1011.33684413
  0
POINT
  8
3
 10
681.94273334
 20
1006.51232112
  0
POINT
  8
3
 10
678.70122147
 20
1001.99687831
  0
POINT
  8
2
 10
671.54173660
 20
993.64745204
  0
TEXT
  8
2
 10
671.54173660
 20
993.64745204
 40
10.00000000
 50
0.00000000
  1
# 190
  0
POINT
  8
13
 10
509.85547256
 20
1022.60344569
  0
TEXT
  8
13
 10
509.85547256
 20
1022.60344569
 40
10.00000000
 50
0.00000000
  1
# 191
  0
POINT
  8
13
 10
638.37968826
 20
1022.60344569
  0
TEXT
  8
13
 10
638.37968826
 20
1022.60344569
 40
10.00000000
 50
0.00000000
  1
# 192
  0
ENDBLK
  0
BLOCK
  8
1
  2
19
 70
64
 10
0.0
 20
0.0
  0
LINE
  8
7
 10
464.47659096
 20
558.25000496
 11
504.47659096
 21
558.25000496
  0
TEXT
  8
1
 10
0.00000000
 20
0.00000000
 40
10.00000000
 50
0.00000000
  1
Size: 48
  0
TEXT
  8
1
 10
484.47659096
 20
562.00000496
 40
5.00000000
 50
0.00000000
  1
Piece Name: ABONNO.VIC
  0
TEXT
  8
1
 10
484.47659096
 20
562.00000496
 40
5.00000000
 50
0.00000000
  1
Quantity: 1
  0
TEXT
  8
1
 10
484.47659096
 20
562.00000496
 40
5.00000000
 50
0.00000000
  1
Rotation: 0
  0
TEXT
  8
1
 10
484.47659096
 20
562.00000496
 40
5.00000000
 50
0.00000000
  1
Tilt: 0
  0
TEXT
  8
1
 10
484.47659096
 20
562.00000496
 40
5.00000000
 50
0.00000000
  1
Fold: N
  0
TEXT
  8
1
 10
484.47659096
 20
562.00000496
 40
5.00000000
 50
0.00000000
  1
Material: 1
  0
POLYLINE
  8
1
 66
1
 70
1
  0
VERTEX
  8
1
 10
444.47488686
 20
418.25000114
  0
VERTEX
  8
1
 10
444.47488686
 20
578.25000877
  0
VERTEX
  8
1
 10
524.47488686
 20
578.25000877
  0
VERTEX
  8
1
 10
524.47488686
 20
418.25000114
  0
SEQEND
  0
POLYLINE
  8
84
 66
1
 70
1
  0
VERTEX
  8
84
 10
444.47488686
 20
418.25000114
  0
VERTEX
  8
84
 10
444.47488686
 20
578.25000877
  0
VERTEX
  8
84
 10
524.47488686
 20
578.25000877
  0
VERTEX
  8
84
 10
524.47488686
 20
418.25000114
  0
SEQEND
  0
POINT
  8
2
 10
444.47488686
 20
418.25000114
  0
TEXT
  8
2
 10
444.47488686
 20
418.25000114
 40
10.00000000
 50
0.00000000
  1
# 193
  0
POINT
  8
2
 10
444.47488686
 20
578.25000877
  0
TEXT
  8
2
 10
444.47488686
 20
578.25000877
 40
10.00000000
 50
0.00000000
  1
# 194
  0
POINT
  8
2
 10
524.47488686
 20
578.25000877
  0
TEXT
  8
2
 10
524.47488686
 20
578.25000877
 40
10.00000000
 50
0.00000000
  1
# 195
  0
POINT
  8
2
 10
524.47488686
 20
418.25000114
  0
TEXT
  8
2
 10
524.47488686
 20
418.25000114
 40
10.00000000
 50
0.00000000
  1
# 196
  0
ENDBLK
  0
BLOCK
  8
1
  2
20
 70
64
 10
0.0
 20
0.0
  0
LINE
  8
7
 10
230.50072144
 20
1063.86304347
 11
310.50072144
 21
1063.86304347
  0
TEXT
  8
1
 10
0.00000000
 20
0.00000000
 40
5.00000000
 50
0.00000000
  1
Size: 48
  0
TEXT
  8
1
 10
270.50072144
 20
1067.61304347
 40
5.00000000
 50
0.00000000
  1
Piece Name: ABONNO.VIF
  0
TEXT
  8
1
 10
270.50072144
 20
1067.61304347
 40
5.00000000
 50
0.00000000
  1
Quantity: 1
  0
TEXT
  8
1
 10
270.50072144
 20
1067.61304347
 40
5.00000000
 50
0.00000000
  1
Rotation: 0
  0
TEXT
  8
1
 10
270.50072144
 20
1067.61304347
 40
5.00000000
 50
0.00000000
  1
Tilt: 0
  0
TEXT
  8
1
 10
270.50072144
 20
1067.61304347
 40
5.00000000
 50
0.00000000
  1
Fold: N
  0
TEXT
  8
1
 10
270.50072144
 20
1067.61304347
 40
5.00000000
 50
0.00000000
  1
Material: 1
  0
POLYLINE
  8
1
 66
1
 70
1
  0
VERTEX
  8
1
 10
190.50045776
 20
1086.36304347
  0
VERTEX
  8
1
 10
350.50045776
 20
1086.36304347
  0
VERTEX
  8
1
 10
350.50045776
 20
996.36304347
  0
VERTEX
  8
1
 10
190.50045776
 20
996.36304347
  0
SEQEND
  0
POLYLINE
  8
84
 66
1
 70
1
  0
VERTEX
  8
84
 10
190.50045776
 20
1086.36304347
  0
VERTEX
  8
84
 10
350.50045776
 20
1086.36304347
  0
VERTEX
  8
84
 10
350.50045776
 20
996.36304347
  0
VERTEX
  8
84
 10
190.50045776
 20
996.36304347
  0
SEQEND
  0
POINT
  8
2
 10
190.50045776
 20
1086.36304347
  0
TEXT
  8
2
 10
190.50045776
 20
1086.36304347
 40
10.00000000
 50
0.00000000
  1
# 197
  0
POINT
  8
2
 10
350.50045776
 20
1086.36304347
  0
TEXT
  8
2
 10
350.50045776
 20
1086.36304347
 40
10.00000000
 50
0.00000000
  1
# 198
  0
POINT
  8
2
 10
350.50045776
 20
996.36304347
  0
TEXT
  8
2
 10
350.50045776
 20
996.36304347
 40
10.00000000
 50
0.00000000
  1
# 199
  0
POINT
  8
2
 10
190.50045776
 20
996.36304347
  0
TEXT
  8
2
 10
190.50045776
 20
996.36304347
 40
10.00000000
 50
0.00000000
  1
# 200
  0
ENDBLK
  0
BLOCK
  8
1
  2
21
 70
64
 10
0.0
 20
0.0
  0
LINE
  8
7
 10
33.25170410
 20
347.50000000
 11
70.75170410
 21
347.50000000
  0
TEXT
  8
1
 10
0.00000000
 20
0.00000000
 40
5.00000000
 50
0.00000000
  1
Size: 48
  0
TEXT
  8
1
 10
52.00170410
 20
351.25000000
 40
5.00000000
 50
0.00000000
  1
Piece Name: ABONNO.VICG
  0
TEXT
  8
1
 10
52.00170410
 20
351.25000000
 40
5.00000000
 50
0.00000000
  1
Quantity: 1
  0
TEXT
  8
1
 10
52.00170410
 20
351.25000000
 40
5.00000000
 50
0.00000000
  1
Rotation: 0
  0
TEXT
  8
1
 10
52.00170410
 20
351.25000000
 40
5.00000000
 50
0.00000000
  1
Tilt: 0
  0
TEXT
  8
1
 10
52.00170410
 20
351.25000000
 40
5.00000000
 50
0.00000000
  1
Fold: N
  0
TEXT
  8
1
 10
52.00170410
 20
351.25000000
 40
5.00000000
 50
0.00000000
  1
Material: 1
  0
POLYLINE
  8
1
 66
1
 70
1
  0
VERTEX
  8
1
 10
14.50000000
 20
203.75000000
  0
VERTEX
  8
1
 10
14.50000000
 20
363.75000000
  0
VERTEX
  8
1
 10
89.50000000
 20
363.75000000
  0
VERTEX
  8
1
 10
89.50000000
 20
203.75000000
  0
SEQEND
  0
POLYLINE
  8
84
 66
1
 70
1
  0
VERTEX
  8
84
 10
14.50000000
 20
203.75000000
  0
VERTEX
  8
84
 10
14.50000000
 20
363.75000000
  0
VERTEX
  8
84
 10
89.50000000
 20
363.75000000
  0
VERTEX
  8
84
 10
89.50000000
 20
203.75000000
  0
SEQEND
  0
POINT
  8
2
 10
14.50000000
 20
203.75000000
  0
TEXT
  8
2
 10
14.50000000
 20
203.75000000
 40
10.00000000
 50
0.00000000
  1
# 201
  0
POINT
  8
2
 10
14.50000000
 20
363.75000000
  0
TEXT
  8
2
 10
14.50000000
 20
363.75000000
 40
10.00000000
 50
0.00000000
  1
# 202
  0
POINT
  8
2
 10
89.50000000
 20
363.75000000
  0
TEXT
  8
2
 10
89.50000000
 20
363.75000000
 40
10.00000000
 50
0.00000000
  1
# 203
  0
POINT
  8
2
 10
89.50000000
 20
203.75000000
  0
TEXT
  8
2
 10
89.50000000
 20
203.75000000
 40
10.00000000
 50
0.00000000
  1
# 204
  0
ENDBLK
  0
BLOCK
  8
1
  2
22
 70
64
 10
0.0
 20
0.0
  0
LINE
  8
7
 10
33.25170410
 20
136.50000000
 11
70.75170410
 21
136.50000000
  0
TEXT
  8
1
 10
0.00000000
 20
0.00000000
 40
5.00000000
 50
0.00000000
  1
Size: 48
  0
TEXT
  8
1
 10
52.00170410
 20
140.25000000
 40
5.00000000
 50
0.00000000
  1
Piece Name: ABONNO.VICP
  0
TEXT
  8
1
 10
52.00170410
 20
140.25000000
 40
5.00000000
 50
0.00000000
  1
Quantity: 1
  0
TEXT
  8
1
 10
52.00170410
 20
140.25000000
 40
5.00000000
 50
0.00000000
  1
Rotation: 0
  0
TEXT
  8
1
 10
52.00170410
 20
140.25000000
 40
5.00000000
 50
0.00000000
  1
Tilt: 0
  0
TEXT
  8
1
 10
52.00170410
 20
140.25000000
 40
5.00000000
 50
0.00000000
  1
Fold: N
  0
TEXT
  8
1
 10
52.00170410
 20
140.25000000
 40
5.00000000
 50
0.00000000
  1
Material: 1
  0
POLYLINE
  8
1
 66
1
 70
1
  0
VERTEX
  8
1
 10
14.50000000
 20
22.75000000
  0
VERTEX
  8
1
 10
14.50000000
 20
152.75000000
  0
VERTEX
  8
1
 10
89.50000000
 20
152.75000000
  0
VERTEX
  8
1
 10
89.50000000
 20
22.75000000
  0
SEQEND
  0
POLYLINE
  8
84
 66
1
 70
1
  0
VERTEX
  8
84
 10
14.50000000
 20
22.75000000
  0
VERTEX
  8
84
 10
14.50000000
 20
152.75000000
  0
VERTEX
  8
84
 10
89.50000000
 20
152.75000000
  0
VERTEX
  8
84
 10
89.50000000
 20
22.75000000
  0
SEQEND
  0
POINT
  8
2
 10
14.50000000
 20
22.75000000
  0
TEXT
  8
2
 10
14.50000000
 20
22.75000000
 40
10.00000000
 50
0.00000000
  1
# 205
  0
POINT
  8
2
 10
14.50000000
 20
152.75000000
  0
TEXT
  8
2
 10
14.50000000
 20
152.75000000
 40
10.00000000
 50
0.00000000
  1
# 206
  0
POINT
  8
2
 10
89.50000000
 20
152.75000000
  0
TEXT
  8
2
 10
89.50000000
 20
152.75000000
 40
10.00000000
 50
0.00000000
  1
# 207
  0
POINT
  8
2
 10
89.50000000
 20
22.75000000
  0
TEXT
  8
2
 10
89.50000000
 20
22.75000000
 40
10.00000000
 50
0.00000000
  1
# 208
  0
ENDBLK
  0
BLOCK
  8
1
  2
23
 70
64
 10
0.0
 20
0.0
  0
LINE
  8
7
 10
1274.58259920
 20
903.66806775
 11
1319.58259920
 21
903.66806775
  0
TEXT
  8
1
 10
0.00000000
 20
0.00000000
 40
5.00000000
 50
0.00000000
  1
Size: 48
  0
TEXT
  8
1
 10
1297.08259920
 20
907.41806775
 40
5.00000000
 50
0.00000000
  1
Piece Name: ABONNO.VIFG
  0
TEXT
  8
1
 10
1297.08259920
 20
907.41806775
 40
5.00000000
 50
0.00000000
  1
Quantity: 1
  0
TEXT
  8
1
 10
1297.08259920
 20
907.41806775
 40
5.00000000
 50
0.00000000
  1
Rotation: 0
  0
TEXT
  8
1
 10
1297.08259920
 20
907.41806775
 40
5.00000000
 50
0.00000000
  1
Tilt: 0
  0
TEXT
  8
1
 10
1297.08259920
 20
907.41806775
 40
5.00000000
 50
0.00000000
  1
Fold: N
  0
TEXT
  8
1
 10
1297.08259920
 20
907.41806775
 40
5.00000000
 50
0.00000000
  1
Material: 1
  0
POLYLINE
  8
1
 66
1
 70
1
  0
VERTEX
  8
1
 10
1252.08089510
 20
765.16803723
  0
VERTEX
  8
1
 10
1252.08089510
 20
925.16809827
  0
VERTEX
  8
1
 10
1342.08089510
 20
925.16809827
  0
VERTEX
  8
1
 10
1342.08089510
 20
765.16803723
  0
SEQEND
  0
POLYLINE
  8
84
 66
1
 70
1
  0
VERTEX
  8
84
 10
1252.08089510
 20
765.16803723
  0
VERTEX
  8
84
 10
1252.08089510
 20
925.16809827
  0
VERTEX
  8
84
 10
1342.08089510
 20
925.16809827
  0
VERTEX
  8
84
 10
1342.08089510
 20
765.16803723
  0
SEQEND
  0
POINT
  8
2
 10
1252.08089510
 20
765.16803723
  0
TEXT
  8
2
 10
1252.08089510
 20
765.16803723
 40
10.00000000
 50
0.00000000
  1
# 209
  0
POINT
  8
2
 10
1252.08089510
 20
925.16809827
  0
TEXT
  8
2
 10
1252.08089510
 20
925.16809827
 40
10.00000000
 50
0.00000000
  1
# 210
  0
POINT
  8
2
 10
1342.08089510
 20
925.16809827
  0
TEXT
  8
2
 10
1342.08089510
 20
925.16809827
 40
10.00000000
 50
0.00000000
  1
# 211
  0
POINT
  8
2
 10
1342.08089510
 20
765.16803723
  0
TEXT
  8
2
 10
1342.08089510
 20
765.16803723
 40
10.00000000
 50
0.00000000
  1
# 212
  0
ENDBLK
  0
BLOCK
  8
1
  2
24
 70
64
 10
0.0
 20
0.0
  0
LINE
  8
7
 10
417.00216187
 20
1434.38575465
 11
462.00216187
 21
1434.38575465
  0
TEXT
  8
1
 10
0.00000000
 20
0.00000000
 40
5.00000000
 50
0.00000000
  1
Size: 48
  0
TEXT
  8
1
 10
439.50216187
 20
1438.13575465
 40
5.00000000
 50
0.00000000
  1
Piece Name: ABONNO.VIFP
  0
TEXT
  8
1
 10
439.50216187
 20
1438.13575465
 40
5.00000000
 50
0.00000000
  1
Quantity: 1
  0
TEXT
  8
1
 10
439.50216187
 20
1438.13575465
 40
5.00000000
 50
0.00000000
  1
Rotation: 0
  0
TEXT
  8
1
 10
439.50216187
 20
1438.13575465
 40
5.00000000
 50
0.00000000
  1
Tilt: 0
  0
TEXT
  8
1
 10
439.50216187
 20
1438.13575465
 40
5.00000000
 50
0.00000000
  1
Fold: N
  0
TEXT
  8
1
 10
439.50216187
 20
1438.13575465
 40
5.00000000
 50
0.00000000
  1
Material: 1
  0
POLYLINE
  8
1
 66
1
 70
1
  0
VERTEX
  8
1
 10
394.50045776
 20
1319.88575465
  0
VERTEX
  8
1
 10
394.50045776
 20
1449.88575465
  0
VERTEX
  8
1
 10
484.50045776
 20
1449.88575465
  0
VERTEX
  8
1
 10
484.50045776
 20
1319.88575465
  0
SEQEND
  0
POLYLINE
  8
84
 66
1
 70
1
  0
VERTEX
  8
84
 10
394.50045776
 20
1319.88575465
  0
VERTEX
  8
84
 10
394.50045776
 20
1449.88575465
  0
VERTEX
  8
84
 10
484.50045776
 20
1449.88575465
  0
VERTEX
  8
84
 10
484.50045776
 20
1319.88575465
  0
SEQEND
  0
POINT
  8
2
 10
394.50045776
 20
1319.88575465
  0
TEXT
  8
2
 10
394.50045776
 20
1319.88575465
 40
10.00000000
 50
0.00000000
  1
# 213
  0
POINT
  8
2
 10
394.50045776
 20
1449.88575465
  0
TEXT
  8
2
 10
394.50045776
 20
1449.88575465
 40
10.00000000
 50
0.00000000
  1
# 214
  0
POINT
  8
2
 10
484.50045776
 20
1449.88575465
  0
TEXT
  8
2
 10
484.50045776
 20
1449.88575465
 40
10.00000000
 50
0.00000000
  1
# 215
  0
POINT
  8
2
 10
484.50045776
 20
1319.88575465
  0
TEXT
  8
2
 10
484.50045776
 20
1319.88575465
 40
10.00000000
 50
0.00000000
  1
# 216
  0
ENDBLK
  0
ENDSEC
  0
SECTION
  2
ENTITIES
  0
LINE
  8
9
 10
0.00000000
 20
0.00000000
 11
0.00000000
 21
0.00000000
  0
LINE
  8
10
 10
0.00000000
 20
0.00000000
 11
0.00000000
 21
0.00000000
  0
INSERT
  8
1
  2
1
 10
0.0
 20
0.0
  0
INSERT
  8
1
  2
2
 10
0.0
 20
0.0
  0
INSERT
  8
1
  2
3
 10
0.0
 20
0.0
  0
INSERT
  8
1
  2
4
 10
0.0
 20
0.0
  0
INSERT
  8
1
  2
5
 10
0.0
 20
0.0
  0
INSERT
  8
1
  2
6
 10
0.0
 20
0.0
  0
INSERT
  8
1
  2
7
 10
0.0
 20
0.0
  0
INSERT
  8
1
  2
8
 10
0.0
 20
0.0
  0
INSERT
  8
1
  2
9
 10
0.0
 20
0.0
  0
INSERT
  8
1
  2
10
 10
0.0
 20
0.0
  0
INSERT
  8
1
  2
11
 10
0.0
 20
0.0
  0
INSERT
  8
1
  2
12
 10
0.0
 20
0.0
  0
INSERT
  8
1
  2
13
 10
0.0
 20
0.0
  0
INSERT
  8
1
  2
14
 10
0.0
 20
0.0
  0
INSERT
  8
1
  2
15
 10
0.0
 20
0.0
  0
INSERT
  8
1
  2
16
 10
0.0
 20
0.0
  0
INSERT
  8
1
  2
17
 10
0.0
 20
0.0
  0
INSERT
  8
1
  2
18
 10
0.0
 20
0.0
  0
INSERT
  8
1
  2
19
 10
0.0
 20
0.0
  0
INSERT
  8
1
  2
20
 10
0.0
 20
0.0
  0
INSERT
  8
1
  2
21
 10
0.0
 20
0.0
  0
INSERT
  8
1
  2
22
 10
0.0
 20
0.0
  0
INSERT
  8
1
  2
23
 10
0.0
 20
0.0
  0
INSERT
  8
1
  2
24
 10
0.0
 20
0.0
  0
TEXT
  8
1
 10
0.00000000
 20
0.00000000
 40
10.00000000
 50
0.00000000
  1
Style Name: ASTM D 6673
  0
TEXT
  8
1
 10
0.00000000
 20
0.00000000
 40
10.00000000
 50
0.00000000
  1
Grade Rule Table: BONNO
  0
TEXT
  8
1
 10
0.00000000
 20
0.00000000
 40
10.00000000
 50
0.00000000
  1
Sample Size: 48
  0
TEXT
  8
1
 10
0.00000000
 20
0.00000000
 40
10.00000000
 50
0.00000000
  1
Units: METRIC
  0
TEXT
  8
1
 10
0.00000000
 20
0.00000000
 40
10.00000000
 50
0.00000000
  1
Creation Date: 12-1-2025
  0
TEXT
  8
1
 10
0.00000000
 20
0.00000000
 40
10.00000000
 50
0.00000000
  1
Creation Time: 20:56
  0
TEXT
  8
1
 10
0.00000000
 20
0.00000000
 40
10.00000000
 50
0.00000000
  1
Author: Audaces; Audaces Vesturio 2015
  0
TEXT
  8
1
 10
0.00000000
 20
0.00000000
 40
10.00000000
 50
0.00000000
  1
Curve Tolerance: 0.025
  0
TEXT
  8
1
 10
0.00000000
 20
0.00000000
 40
10.00000000
 50
0.00000000
  1
ASTM/PDE: 1
  0
ENDSEC
  0
EOF
