  0
SECTION
  2
BLOCKS
  0
BLOCK
  8
1
  2
1
 70
64
 10
0.0
 20
0.0
  0
LINE
  8
7
 10
1237.81428253
 20
1051.03863525
 11
1565.88929474
 21
1051.03863525
  0
TEXT
  8
1
 10
0.00000000
 20
0.00000000
 40
10.00000000
 50
0.00000000
  1
Size: 46
  0
TEXT
  8
1
 10
1401.85178863
 20
1066.03863525
 40
20.00000000
 50
0.00000000
  1
Piece Name: AFERIA.D
  0
TEXT
  8
1
 10
1401.85178863
 20
1066.03863525
 40
20.00000000
 50
0.00000000
  1
Quantity: 1
  0
TEXT
  8
1
 10
1401.85178863
 20
1066.03863525
 40
20.00000000
 50
0.00000000
  1
Rotation: 0
  0
TEXT
  8
1
 10
1401.85178863
 20
1066.03863525
 40
20.00000000
 50
0.00000000
  1
Tilt: 0
  0
TEXT
  8
1
 10
1401.85178863
 20
1066.03863525
 40
20.00000000
 50
0.00000000
  1
Fold: N
  0
TEXT
  8
1
 10
1401.85178863
 20
1066.03863525
 40
20.00000000
 50
0.00000000
  1
Material: 1
  0
POLYLINE
  8
1
 66
1
 70
1
  0
VERTEX
  8
1
 10
1370.30073166
 20
1040.47182922
  0
VERTEX
  8
1
 10
1133.92133713
 20
1040.95827942
  0
VERTEX
  8
1
 10
1131.12226486
 20
1050.55849915
  0
VERTEX
  8
1
 10
1115.96015549
 20
1102.55746155
  0
VERTEX
  8
1
 10
1103.36371994
 20
1145.75845032
  0
VERTEX
  8
1
 10
1170.90766525
 20
1183.26693420
  0
VERTEX
  8
1
 10
1322.23090744
 20
1229.73519592
  0
VERTEX
  8
1
 10
1361.44379807
 20
1241.73861389
  0
VERTEX
  8
1
 10
1374.65526047
 20
1228.84145148
  0
VERTEX
  8
1
 10
1388.29467572
 20
1216.53302913
  0
VERTEX
  8
1
 10
1402.37413066
 20
1204.80652514
  0
VERTEX
  8
1
 10
1416.90571213
 20
1193.65511780
  0
VERTEX
  8
1
 10
1431.86763841
 20
1183.09399314
  0
VERTEX
  8
1
 10
1447.25604638
 20
1173.11962439
  0
VERTEX
  8
1
 10
1463.03477795
 20
1163.75241884
  0
VERTEX
  8
1
 10
1479.16767502
 20
1155.01278381
  0
VERTEX
  8
1
 10
1495.65550258
 20
1146.89294531
  0
VERTEX
  8
1
 10
1512.42321793
 20
1139.38051921
  0
VERTEX
  8
1
 10
1529.43126484
 20
1132.43201289
  0
VERTEX
  8
1
 10
1546.64008713
 20
1126.00393372
  0
VERTEX
  8
1
 10
1564.00329486
 20
1120.05092447
  0
VERTEX
  8
1
 10
1581.49922929
 20
1114.50262490
  0
VERTEX
  8
1
 10
1599.09955871
 20
1109.28728564
  0
VERTEX
  8
1
 10
1616.77595139
 20
1104.33315735
  0
VERTEX
  8
1
 10
1634.51115556
 20
1099.57431097
  0
VERTEX
  8
1
 10
1652.28745121
 20
1094.98002006
  0
VERTEX
  8
1
 10
1670.09815808
 20
1090.52521893
  0
VERTEX
  8
1
 10
1687.93659592
 20
1086.18484192
  0
VERTEX
  8
1
 10
1705.79375554
 20
1081.94028965
  0
VERTEX
  8
1
 10
1723.67418285
 20
1077.79340996
  0
VERTEX
  8
1
 10
1741.58010380
 20
1073.75255508
  0
VERTEX
  8
1
 10
1759.51374435
 20
1069.82607727
  0
VERTEX
  8
1
 10
1753.23172716
 20
1055.94302517
  0
VERTEX
  8
1
 10
1747.19440842
 20
1041.95718079
  0
VERTEX
  8
1
 10
1740.50839470
 20
1025.46237672
  0
VERTEX
  8
1
 10
1733.80817795
 20
1008.96792297
  0
VERTEX
  8
1
 10
1727.87524350
 20
995.05654139
  0
VERTEX
  8
1
 10
1722.22468185
 20
981.04092102
  0
VERTEX
  8
1
 10
1717.04304123
 20
965.80111389
  0
VERTEX
  8
1
 10
1693.13082702
 20
971.78548697
  0
VERTEX
  8
1
 10
1669.10261154
 20
977.24465637
  0
VERTEX
  8
1
 10
1644.95313633
 20
982.22498968
  0
VERTEX
  8
1
 10
1620.65290451
 20
986.41421204
  0
VERTEX
  8
1
 10
1596.20069213
 20
989.46819037
  0
VERTEX
  8
1
 10
1571.63764572
 20
991.27773743
  0
VERTEX
  8
1
 10
1547.03245408
 20
991.79792947
  0
VERTEX
  8
1
 10
1522.37739182
 20
991.03493958
  0
VERTEX
  8
1
 10
1515.19125097
 20
989.10880850
  0
VERTEX
  8
1
 10
1508.34194764
 20
986.65984671
  0
VERTEX
  8
1
 10
1501.78990742
 20
983.68782955
  0
VERTEX
  8
1
 10
1495.49555588
 20
980.19253235
  0
VERTEX
  8
1
 10
1489.42521598
 20
976.15908341
  0
VERTEX
  8
1
 10
1483.69390874
 20
971.59918270
  0
VERTEX
  8
1
 10
1478.42104226
 20
966.51350809
  0
VERTEX
  8
1
 10
1473.72602463
 20
960.90273743
  0
VERTEX
  8
1
 10
1469.73908595
 20
954.84600648
  0
VERTEX
  8
1
 10
1466.41560075
 20
948.38863382
  0
VERTEX
  8
1
 10
1463.73469322
 20
941.64467283
  0
VERTEX
  8
1
 10
1461.67548752
 20
934.72817688
  0
VERTEX
  8
1
 10
1460.21155368
 20
927.66550029
  0
VERTEX
  8
1
 10
1459.36620682
 20
920.50471990
  0
VERTEX
  8
1
 10
1459.14650862
 20
913.20725492
  0
VERTEX
  8
1
 10
1459.55952072
 20
905.73452454
  0
VERTEX
  8
1
 10
1446.29337377
 20
906.34758066
  0
VERTEX
  8
1
 10
1433.02924469
 20
906.81563409
  0
VERTEX
  8
1
 10
1419.76713348
 20
907.13868483
  0
VERTEX
  8
1
 10
1406.50704014
 20
907.31673289
  0
VERTEX
  8
1
 10
1393.24896468
 20
907.34977826
  0
VERTEX
  8
1
 10
1379.99290710
 20
907.23782095
  0
VERTEX
  8
1
 10
1366.73887354
 20
906.98086110
  0
VERTEX
  8
1
 10
1353.48685786
 20
906.57889869
  0
VERTEX
  8
1
 10
1340.23686005
 20
906.03193374
  0
VERTEX
  8
1
 10
1326.98888011
 20
905.33996623
  0
VERTEX
  8
1
 10
1313.74291804
 20
904.50299617
  0
VERTEX
  8
1
 10
1300.49897385
 20
903.52102356
  0
VERTEX
  8
1
 10
1286.98883438
 20
903.26828251
  0
VERTEX
  8
1
 10
1273.48809136
 20
902.83533925
  0
VERTEX
  8
1
 10
1259.99674479
 20
902.22219378
  0
VERTEX
  8
1
 10
1246.51478406
 20
901.42884539
  0
VERTEX
  8
1
 10
1233.04221978
 20
900.45529451
  0
VERTEX
  8
1
 10
1219.57905197
 20
899.30154114
  0
VERTEX
  8
1
 10
1176.17597580
 20
895.01138000
  0
VERTEX
  8
1
 10
1130.86005783
 20
1026.94204407
  0
VERTEX
  8
1
 10
1133.60786057
 20
1037.55764465
  0
SEQEND
  0
POLYLINE
  8
84
 66
1
 70
1
  0
VERTEX
  8
84
 10
1370.30073166
 20
1040.47182922
  0
VERTEX
  8
84
 10
1133.92133713
 20
1040.95827942
  0
VERTEX
  8
84
 10
1131.12226486
 20
1050.55849915
  0
VERTEX
  8
84
 10
1115.96015549
 20
1102.55746155
  0
VERTEX
  8
84
 10
1103.36371994
 20
1145.75845032
  0
VERTEX
  8
84
 10
1170.90766525
 20
1183.26693420
  0
VERTEX
  8
84
 10
1322.23090744
 20
1229.73519592
  0
VERTEX
  8
84
 10
1361.44379807
 20
1241.73861389
  0
VERTEX
  8
84
 10
1374.65526047
 20
1228.84145148
  0
VERTEX
  8
84
 10
1388.29467572
 20
1216.53302913
  0
VERTEX
  8
84
 10
1402.37413066
 20
1204.80652514
  0
VERTEX
  8
84
 10
1416.90571213
 20
1193.65511780
  0
VERTEX
  8
84
 10
1431.86763841
 20
1183.09399314
  0
VERTEX
  8
84
 10
1447.25604638
 20
1173.11962439
  0
VERTEX
  8
84
 10
1463.03477795
 20
1163.75241884
  0
VERTEX
  8
84
 10
1479.16767502
 20
1155.01278381
  0
VERTEX
  8
84
 10
1495.65550258
 20
1146.89294531
  0
VERTEX
  8
84
 10
1512.42321793
 20
1139.38051921
  0
VERTEX
  8
84
 10
1529.43126484
 20
1132.43201289
  0
VERTEX
  8
84
 10
1546.64008713
 20
1126.00393372
  0
VERTEX
  8
84
 10
1564.00329486
 20
1120.05092447
  0
VERTEX
  8
84
 10
1581.49922929
 20
1114.50262490
  0
VERTEX
  8
84
 10
1599.09955871
 20
1109.28728564
  0
VERTEX
  8
84
 10
1616.77595139
 20
1104.33315735
  0
VERTEX
  8
84
 10
1634.51115556
 20
1099.57431097
  0
VERTEX
  8
84
 10
1652.28745121
 20
1094.98002006
  0
VERTEX
  8
84
 10
1670.09815808
 20
1090.52521893
  0
VERTEX
  8
84
 10
1687.93659592
 20
1086.18484192
  0
VERTEX
  8
84
 10
1705.79375554
 20
1081.94028965
  0
VERTEX
  8
84
 10
1723.67418285
 20
1077.79340996
  0
VERTEX
  8
84
 10
1741.58010380
 20
1073.75255508
  0
VERTEX
  8
84
 10
1759.51374435
 20
1069.82607727
  0
VERTEX
  8
84
 10
1753.23172716
 20
1055.94302517
  0
VERTEX
  8
84
 10
1747.19440842
 20
1041.95718079
  0
VERTEX
  8
84
 10
1740.50839470
 20
1025.46237672
  0
VERTEX
  8
84
 10
1733.80817795
 20
1008.96792297
  0
VERTEX
  8
84
 10
1727.87524350
 20
995.05654139
  0
VERTEX
  8
84
 10
1722.22468185
 20
981.04092102
  0
VERTEX
  8
84
 10
1717.04304123
 20
965.80111389
  0
VERTEX
  8
84
 10
1693.13082702
 20
971.78548697
  0
VERTEX
  8
84
 10
1669.10261154
 20
977.24465637
  0
VERTEX
  8
84
 10
1644.95313633
 20
982.22498968
  0
VERTEX
  8
84
 10
1620.65290451
 20
986.41421204
  0
VERTEX
  8
84
 10
1596.20069213
 20
989.46819037
  0
VERTEX
  8
84
 10
1571.63764572
 20
991.27773743
  0
VERTEX
  8
84
 10
1547.03245408
 20
991.79792947
  0
VERTEX
  8
84
 10
1522.37739182
 20
991.03493958
  0
VERTEX
  8
84
 10
1515.19125097
 20
989.10880850
  0
VERTEX
  8
84
 10
1508.34194764
 20
986.65984671
  0
VERTEX
  8
84
 10
1501.78990742
 20
983.68782955
  0
VERTEX
  8
84
 10
1495.49555588
 20
980.19253235
  0
VERTEX
  8
84
 10
1489.42521598
 20
976.15908341
  0
VERTEX
  8
84
 10
1483.69390874
 20
971.59918270
  0
VERTEX
  8
84
 10
1478.42104226
 20
966.51350809
  0
VERTEX
  8
84
 10
1473.72602463
 20
960.90273743
  0
VERTEX
  8
84
 10
1469.73908595
 20
954.84600648
  0
VERTEX
  8
84
 10
1466.41560075
 20
948.38863382
  0
VERTEX
  8
84
 10
1463.73469322
 20
941.64467283
  0
VERTEX
  8
84
 10
1461.67548752
 20
934.72817688
  0
VERTEX
  8
84
 10
1460.21155368
 20
927.66550029
  0
VERTEX
  8
84
 10
1459.36620682
 20
920.50471990
  0
VERTEX
  8
84
 10
1459.14650862
 20
913.20725492
  0
VERTEX
  8
84
 10
1459.55952072
 20
905.73452454
  0
VERTEX
  8
84
 10
1446.29337377
 20
906.34758066
  0
VERTEX
  8
84
 10
1433.02924469
 20
906.81563409
  0
VERTEX
  8
84
 10
1419.76713348
 20
907.13868483
  0
VERTEX
  8
84
 10
1406.50704014
 20
907.31673289
  0
VERTEX
  8
84
 10
1393.24896468
 20
907.34977826
  0
VERTEX
  8
84
 10
1379.99290710
 20
907.23782095
  0
VERTEX
  8
84
 10
1366.73887354
 20
906.98086110
  0
VERTEX
  8
84
 10
1353.48685786
 20
906.57889869
  0
VERTEX
  8
84
 10
1340.23686005
 20
906.03193374
  0
VERTEX
  8
84
 10
1326.98888011
 20
905.33996623
  0
VERTEX
  8
84
 10
1313.74291804
 20
904.50299617
  0
VERTEX
  8
84
 10
1300.49897385
 20
903.52102356
  0
VERTEX
  8
84
 10
1286.98883438
 20
903.26828251
  0
VERTEX
  8
84
 10
1273.48809136
 20
902.83533925
  0
VERTEX
  8
84
 10
1259.99674479
 20
902.22219378
  0
VERTEX
  8
84
 10
1246.51478406
 20
901.42884539
  0
VERTEX
  8
84
 10
1233.04221978
 20
900.45529451
  0
VERTEX
  8
84
 10
1219.57905197
 20
899.30154114
  0
VERTEX
  8
84
 10
1176.17597580
 20
895.01138000
  0
VERTEX
  8
84
 10
1130.86005783
 20
1026.94204407
  0
VERTEX
  8
84
 10
1133.60786057
 20
1037.55764465
  0
SEQEND
  0
POINT
  8
2
 10
1370.30073166
 20
1040.47182922
  0
TEXT
  8
2
 10
1370.30073166
 20
1040.47182922
 40
10.00000000
 50
0.00000000
  1
# 1
  0
POINT
  8
2
 10
1133.92133713
 20
1040.95827942
  0
TEXT
  8
2
 10
1133.92133713
 20
1040.95827942
 40
10.00000000
 50
0.00000000
  1
# 2
  0
POINT
  8
2
 10
1131.12226486
 20
1050.55849915
  0
TEXT
  8
2
 10
1131.12226486
 20
1050.55849915
 40
10.00000000
 50
0.00000000
  1
# 3
  0
POINT
  8
2
 10
1115.96015549
 20
1102.55746155
  0
TEXT
  8
2
 10
1115.96015549
 20
1102.55746155
 40
10.00000000
 50
0.00000000
  1
# 4
  0
POINT
  8
2
 10
1103.36371994
 20
1145.75845032
  0
TEXT
  8
2
 10
1103.36371994
 20
1145.75845032
 40
10.00000000
 50
0.00000000
  1
# 5
  0
POINT
  8
2
 10
1170.90766525
 20
1183.26693420
  0
TEXT
  8
2
 10
1170.90766525
 20
1183.26693420
 40
10.00000000
 50
0.00000000
  1
# 6
  0
POINT
  8
2
 10
1322.23090744
 20
1229.73519592
  0
TEXT
  8
2
 10
1322.23090744
 20
1229.73519592
 40
10.00000000
 50
0.00000000
  1
# 7
  0
POINT
  8
2
 10
1361.44379807
 20
1241.73861389
  0
TEXT
  8
2
 10
1361.44379807
 20
1241.73861389
 40
10.00000000
 50
0.00000000
  1
# 8
  0
POINT
  8
3
 10
1374.65526047
 20
1228.84145148
  0
POINT
  8
3
 10
1388.29467572
 20
1216.53302913
  0
POINT
  8
3
 10
1402.37413066
 20
1204.80652514
  0
POINT
  8
3
 10
1416.90571213
 20
1193.65511780
  0
POINT
  8
3
 10
1431.86763841
 20
1183.09399314
  0
POINT
  8
3
 10
1447.25604638
 20
1173.11962439
  0
POINT
  8
3
 10
1463.03477795
 20
1163.75241884
  0
POINT
  8
3
 10
1479.16767502
 20
1155.01278381
  0
POINT
  8
3
 10
1495.65550258
 20
1146.89294531
  0
POINT
  8
3
 10
1512.42321793
 20
1139.38051921
  0
POINT
  8
3
 10
1529.43126484
 20
1132.43201289
  0
POINT
  8
3
 10
1546.64008713
 20
1126.00393372
  0
POINT
  8
3
 10
1564.00329486
 20
1120.05092447
  0
POINT
  8
3
 10
1581.49922929
 20
1114.50262490
  0
POINT
  8
3
 10
1599.09955871
 20
1109.28728564
  0
POINT
  8
3
 10
1616.77595139
 20
1104.33315735
  0
POINT
  8
3
 10
1634.51115556
 20
1099.57431097
  0
POINT
  8
3
 10
1652.28745121
 20
1094.98002006
  0
POINT
  8
3
 10
1670.09815808
 20
1090.52521893
  0
POINT
  8
3
 10
1687.93659592
 20
1086.18484192
  0
POINT
  8
3
 10
1705.79375554
 20
1081.94028965
  0
POINT
  8
3
 10
1723.67418285
 20
1077.79340996
  0
POINT
  8
3
 10
1741.58010380
 20
1073.75255508
  0
POINT
  8
2
 10
1759.51374435
 20
1069.82607727
  0
TEXT
  8
2
 10
1759.51374435
 20
1069.82607727
 40
10.00000000
 50
0.00000000
  1
# 9
  0
POINT
  8
3
 10
1753.23172716
 20
1055.94302517
  0
POINT
  8
3
 10
1747.19440842
 20
1041.95718079
  0
POINT
  8
3
 10
1740.50839470
 20
1025.46237672
  0
POINT
  8
3
 10
1733.80817795
 20
1008.96792297
  0
POINT
  8
3
 10
1727.87524350
 20
995.05654139
  0
POINT
  8
3
 10
1722.22468185
 20
981.04092102
  0
POINT
  8
2
 10
1717.04304123
 20
965.80111389
  0
TEXT
  8
2
 10
1717.04304123
 20
965.80111389
 40
10.00000000
 50
0.00000000
  1
# 10
  0
POINT
  8
3
 10
1693.13082702
 20
971.78548697
  0
POINT
  8
3
 10
1669.10261154
 20
977.24465637
  0
POINT
  8
3
 10
1644.95313633
 20
982.22498968
  0
POINT
  8
3
 10
1620.65290451
 20
986.41421204
  0
POINT
  8
3
 10
1596.20069213
 20
989.46819037
  0
POINT
  8
3
 10
1571.63764572
 20
991.27773743
  0
POINT
  8
3
 10
1547.03245408
 20
991.79792947
  0
POINT
  8
2
 10
1522.37739182
 20
991.03493958
  0
TEXT
  8
2
 10
1522.37739182
 20
991.03493958
 40
10.00000000
 50
0.00000000
  1
# 11
  0
POINT
  8
3
 10
1515.19125097
 20
989.10880850
  0
POINT
  8
3
 10
1508.34194764
 20
986.65984671
  0
POINT
  8
3
 10
1501.78990742
 20
983.68782955
  0
POINT
  8
3
 10
1495.49555588
 20
980.19253235
  0
POINT
  8
3
 10
1489.42521598
 20
976.15908341
  0
POINT
  8
3
 10
1483.69390874
 20
971.59918270
  0
POINT
  8
3
 10
1478.42104226
 20
966.51350809
  0
POINT
  8
3
 10
1473.72602463
 20
960.90273743
  0
POINT
  8
3
 10
1469.73908595
 20
954.84600648
  0
POINT
  8
3
 10
1466.41560075
 20
948.38863382
  0
POINT
  8
3
 10
1463.73469322
 20
941.64467283
  0
POINT
  8
3
 10
1461.67548752
 20
934.72817688
  0
POINT
  8
3
 10
1460.21155368
 20
927.66550029
  0
POINT
  8
3
 10
1459.36620682
 20
920.50471990
  0
POINT
  8
3
 10
1459.14650862
 20
913.20725492
  0
POINT
  8
2
 10
1459.55952072
 20
905.73452454
  0
TEXT
  8
2
 10
1459.55952072
 20
905.73452454
 40
10.00000000
 50
0.00000000
  1
# 12
  0
POINT
  8
3
 10
1446.29337377
 20
906.34758066
  0
POINT
  8
3
 10
1433.02924469
 20
906.81563409
  0
POINT
  8
3
 10
1419.76713348
 20
907.13868483
  0
POINT
  8
3
 10
1406.50704014
 20
907.31673289
  0
POINT
  8
3
 10
1393.24896468
 20
907.34977826
  0
POINT
  8
3
 10
1379.99290710
 20
907.23782095
  0
POINT
  8
3
 10
1366.73887354
 20
906.98086110
  0
POINT
  8
3
 10
1353.48685786
 20
906.57889869
  0
POINT
  8
3
 10
1340.23686005
 20
906.03193374
  0
POINT
  8
3
 10
1326.98888011
 20
905.33996623
  0
POINT
  8
3
 10
1313.74291804
 20
904.50299617
  0
POINT
  8
2
 10
1300.49897385
 20
903.52102356
  0
TEXT
  8
2
 10
1300.49897385
 20
903.52102356
 40
10.00000000
 50
0.00000000
  1
# 13
  0
POINT
  8
3
 10
1286.98883438
 20
903.26828251
  0
POINT
  8
3
 10
1273.48809136
 20
902.83533925
  0
POINT
  8
3
 10
1259.99674479
 20
902.22219378
  0
POINT
  8
3
 10
1246.51478406
 20
901.42884539
  0
POINT
  8
3
 10
1233.04221978
 20
900.45529451
  0
POINT
  8
2
 10
1219.57905197
 20
899.30154114
  0
TEXT
  8
2
 10
1219.57905197
 20
899.30154114
 40
10.00000000
 50
0.00000000
  1
# 14
  0
POINT
  8
2
 10
1176.17597580
 20
895.01138000
  0
TEXT
  8
2
 10
1176.17597580
 20
895.01138000
 40
10.00000000
 50
0.00000000
  1
# 15
  0
POINT
  8
2
 10
1130.86005783
 20
1026.94204407
  0
TEXT
  8
2
 10
1130.86005783
 20
1026.94204407
 40
10.00000000
 50
0.00000000
  1
# 16
  0
POINT
  8
2
 10
1133.60786057
 20
1037.55764465
  0
TEXT
  8
2
 10
1133.60786057
 20
1037.55764465
 40
10.00000000
 50
0.00000000
  1
# 17
  0
POINT
  8
4
 10
1170.90766525
 20
1183.26693420
 30
7.50000000
 50
293.05746223
  0
TEXT
  8
1
 10
1170.90766525
 20
1183.26693420
 40
10.00000000
 50
0.00000000
  1
# 18
  0
POINT
  8
4
 10
1322.23090744
 20
1229.73519592
 30
7.50000000
 50
287.04523376
  0
TEXT
  8
1
 10
1322.23090744
 20
1229.73519592
 40
10.00000000
 50
0.00000000
  1
# 19
  0
POINT
  8
4
 10
1219.57905197
 20
899.30154114
 30
7.50000000
 50
95.27157696
  0
TEXT
  8
1
 10
1219.57905197
 20
899.30154114
 40
10.00000000
 50
0.00000000
  1
# 20
  0
ENDBLK
  0
BLOCK
  8
1
  2
2
 70
64
 10
0.0
 20
0.0
  0
LINE
  8
7
 10
78.97364495
 20
810.95610113
 11
407.05103753
 21
810.95610113
  0
TEXT
  8
1
 10
0.00000000
 20
0.00000000
 40
20.00000000
 50
0.00000000
  1
Size: 46
  0
TEXT
  8
1
 10
243.01234124
 20
825.95610113
 40
20.00000000
 50
0.00000000
  1
Piece Name: AFERIA.P
  0
TEXT
  8
1
 10
243.01234124
 20
825.95610113
 40
20.00000000
 50
0.00000000
  1
Quantity: 1
  0
TEXT
  8
1
 10
243.01234124
 20
825.95610113
 40
20.00000000
 50
0.00000000
  1
Rotation: 0
  0
TEXT
  8
1
 10
243.01234124
 20
825.95610113
 40
20.00000000
 50
0.00000000
  1
Tilt: 0
  0
TEXT
  8
1
 10
243.01234124
 20
825.95610113
 40
20.00000000
 50
0.00000000
  1
Fold: N
  0
TEXT
  8
1
 10
243.01234124
 20
825.95610113
 40
20.00000000
 50
0.00000000
  1
Material: 1
  0
POLYLINE
  8
1
 66
1
 70
1
  0
VERTEX
  8
1
 10
140.89677200
 20
857.15625677
  0
VERTEX
  8
1
 10
166.09705388
 20
851.45351517
  0
VERTEX
  8
1
 10
191.32401810
 20
845.86463079
  0
VERTEX
  8
1
 10
241.81522903
 20
834.89356146
  0
VERTEX
  8
1
 10
292.21366653
 20
823.33331976
  0
VERTEX
  8
1
 10
304.86258470
 20
820.63249896
  0
VERTEX
  8
1
 10
317.55865356
 20
818.18504560
  0
VERTEX
  8
1
 10
330.30171133
 20
816.11922444
  0
VERTEX
  8
1
 10
343.09159622
 20
814.56330023
  0
VERTEX
  8
1
 10
355.92651092
 20
813.61711657
  0
VERTEX
  8
1
 10
368.80813274
 20
813.26618307
  0
VERTEX
  8
1
 10
381.73651560
 20
813.46775407
  0
VERTEX
  8
1
 10
394.71171341
 20
814.17908392
  0
VERTEX
  8
1
 10
408.04631555
 20
818.44746559
  0
VERTEX
  8
1
 10
421.25145170
 20
823.02146140
  0
VERTEX
  8
1
 10
434.29731441
 20
827.96856473
  0
VERTEX
  8
1
 10
447.15409622
 20
833.35626898
  0
VERTEX
  8
1
 10
459.85082030
 20
839.22594367
  0
VERTEX
  8
1
 10
472.41718110
 20
845.40334171
  0
VERTEX
  8
1
 10
484.94306391
 20
851.68493471
  0
VERTEX
  8
1
 10
497.51835403
 20
857.86719427
  0
VERTEX
  8
1
 10
510.19814419
 20
863.77638674
  0
VERTEX
  8
1
 10
523.00230635
 20
869.40586014
  0
VERTEX
  8
1
 10
535.91629899
 20
874.77793298
  0
VERTEX
  8
1
 10
548.92558060
 20
879.91492376
  0
VERTEX
  8
1
 10
562.02069467
 20
884.83722200
  0
VERTEX
  8
1
 10
575.19230527
 20
889.54996468
  0
VERTEX
  8
1
 10
588.43611994
 20
894.05646926
  0
VERTEX
  8
1
 10
601.74784622
 20
898.36005316
  0
VERTEX
  8
1
 10
614.38131179
 20
902.24039206
  0
VERTEX
  8
1
 10
627.06974328
 20
905.93600449
  0
VERTEX
  8
1
 10
639.81133757
 20
909.44027517
  0
VERTEX
  8
1
 10
652.60429153
 20
912.74658880
  0
VERTEX
  8
1
 10
665.44625742
 20
915.85976412
  0
VERTEX
  8
1
 10
678.32321758
 20
918.82808952
  0
VERTEX
  8
1
 10
704.12382278
 20
924.56928167
  0
VERTEX
  8
1
 10
755.71268997
 20
936.09375677
  0
VERTEX
  8
1
 10
779.15800247
 20
880.48462591
  0
VERTEX
  8
1
 10
761.25398352
 20
876.46785379
  0
VERTEX
  8
1
 10
743.37994706
 20
872.33011968
  0
VERTEX
  8
1
 10
725.53873713
 20
868.06353822
  0
VERTEX
  8
1
 10
707.73319778
 20
863.66022406
  0
VERTEX
  8
1
 10
689.95893917
 20
859.11616172
  0
VERTEX
  8
1
 10
672.21468194
 20
854.45106227
  0
VERTEX
  8
1
 10
636.78202591
 20
844.85242376
  0
VERTEX
  8
1
 10
619.08441253
 20
839.93840933
  0
VERTEX
  8
1
 10
601.44377368
 20
834.83502725
  0
VERTEX
  8
1
 10
583.91269063
 20
829.40295634
  0
VERTEX
  8
1
 10
566.54374466
 20
823.50287542
  0
VERTEX
  8
1
 10
549.40557301
 20
817.03396515
  0
VERTEX
  8
1
 10
532.48340842
 20
809.99265328
  0
VERTEX
  8
1
 10
515.77915610
 20
802.41212570
  0
VERTEX
  8
1
 10
499.29472122
 20
794.32556829
  0
VERTEX
  8
1
 10
483.04679049
 20
785.75222612
  0
VERTEX
  8
1
 10
467.10037331
 20
776.64982589
  0
VERTEX
  8
1
 10
451.53530977
 20
766.96204858
  0
VERTEX
  8
1
 10
436.43143997
 20
756.63257513
  0
VERTEX
  8
1
 10
421.85044063
 20
745.61726753
  0
VERTEX
  8
1
 10
407.78389229
 20
733.92267760
  0
VERTEX
  8
1
 10
394.20518030
 20
721.56757928
  0
VERTEX
  8
1
 10
381.08768997
 20
708.57074652
  0
VERTEX
  8
1
 10
341.87577591
 20
720.57123480
  0
VERTEX
  8
1
 10
190.55009232
 20
767.03882513
  0
VERTEX
  8
1
 10
123.00321732
 20
804.55322943
  0
SEQEND
  0
POLYLINE
  8
84
 66
1
 70
1
  0
VERTEX
  8
84
 10
140.89677200
 20
857.15625677
  0
VERTEX
  8
84
 10
166.09705388
 20
851.45351517
  0
VERTEX
  8
84
 10
191.32401810
 20
845.86463079
  0
VERTEX
  8
84
 10
241.81522903
 20
834.89356146
  0
VERTEX
  8
84
 10
292.21366653
 20
823.33331976
  0
VERTEX
  8
84
 10
304.86258470
 20
820.63249896
  0
VERTEX
  8
84
 10
317.55865356
 20
818.18504560
  0
VERTEX
  8
84
 10
330.30171133
 20
816.11922444
  0
VERTEX
  8
84
 10
343.09159622
 20
814.56330023
  0
VERTEX
  8
84
 10
355.92651092
 20
813.61711657
  0
VERTEX
  8
84
 10
368.80813274
 20
813.26618307
  0
VERTEX
  8
84
 10
381.73651560
 20
813.46775407
  0
VERTEX
  8
84
 10
394.71171341
 20
814.17908392
  0
VERTEX
  8
84
 10
408.04631555
 20
818.44746559
  0
VERTEX
  8
84
 10
421.25145170
 20
823.02146140
  0
VERTEX
  8
84
 10
434.29731441
 20
827.96856473
  0
VERTEX
  8
84
 10
447.15409622
 20
833.35626898
  0
VERTEX
  8
84
 10
459.85082030
 20
839.22594367
  0
VERTEX
  8
84
 10
472.41718110
 20
845.40334171
  0
VERTEX
  8
84
 10
484.94306391
 20
851.68493471
  0
VERTEX
  8
84
 10
497.51835403
 20
857.86719427
  0
VERTEX
  8
84
 10
510.19814419
 20
863.77638674
  0
VERTEX
  8
84
 10
523.00230635
 20
869.40586014
  0
VERTEX
  8
84
 10
535.91629899
 20
874.77793298
  0
VERTEX
  8
84
 10
548.92558060
 20
879.91492376
  0
VERTEX
  8
84
 10
562.02069467
 20
884.83722200
  0
VERTEX
  8
84
 10
575.19230527
 20
889.54996468
  0
VERTEX
  8
84
 10
588.43611994
 20
894.05646926
  0
VERTEX
  8
84
 10
601.74784622
 20
898.36005316
  0
VERTEX
  8
84
 10
614.38131179
 20
902.24039206
  0
VERTEX
  8
84
 10
627.06974328
 20
905.93600449
  0
VERTEX
  8
84
 10
639.81133757
 20
909.44027517
  0
VERTEX
  8
84
 10
652.60429153
 20
912.74658880
  0
VERTEX
  8
84
 10
665.44625742
 20
915.85976412
  0
VERTEX
  8
84
 10
678.32321758
 20
918.82808952
  0
VERTEX
  8
84
 10
704.12382278
 20
924.56928167
  0
VERTEX
  8
84
 10
755.71268997
 20
936.09375677
  0
VERTEX
  8
84
 10
779.15800247
 20
880.48462591
  0
VERTEX
  8
84
 10
761.25398352
 20
876.46785379
  0
VERTEX
  8
84
 10
743.37994706
 20
872.33011968
  0
VERTEX
  8
84
 10
725.53873713
 20
868.06353822
  0
VERTEX
  8
84
 10
707.73319778
 20
863.66022406
  0
VERTEX
  8
84
 10
689.95893917
 20
859.11616172
  0
VERTEX
  8
84
 10
672.21468194
 20
854.45106227
  0
VERTEX
  8
84
 10
636.78202591
 20
844.85242376
  0
VERTEX
  8
84
 10
619.08441253
 20
839.93840933
  0
VERTEX
  8
84
 10
601.44377368
 20
834.83502725
  0
VERTEX
  8
84
 10
583.91269063
 20
829.40295634
  0
VERTEX
  8
84
 10
566.54374466
 20
823.50287542
  0
VERTEX
  8
84
 10
549.40557301
 20
817.03396515
  0
VERTEX
  8
84
 10
532.48340842
 20
809.99265328
  0
VERTEX
  8
84
 10
515.77915610
 20
802.41212570
  0
VERTEX
  8
84
 10
499.29472122
 20
794.32556829
  0
VERTEX
  8
84
 10
483.04679049
 20
785.75222612
  0
VERTEX
  8
84
 10
467.10037331
 20
776.64982589
  0
VERTEX
  8
84
 10
451.53530977
 20
766.96204858
  0
VERTEX
  8
84
 10
436.43143997
 20
756.63257513
  0
VERTEX
  8
84
 10
421.85044063
 20
745.61726753
  0
VERTEX
  8
84
 10
407.78389229
 20
733.92267760
  0
VERTEX
  8
84
 10
394.20518030
 20
721.56757928
  0
VERTEX
  8
84
 10
381.08768997
 20
708.57074652
  0
VERTEX
  8
84
 10
341.87577591
 20
720.57123480
  0
VERTEX
  8
84
 10
190.55009232
 20
767.03882513
  0
VERTEX
  8
84
 10
123.00321732
 20
804.55322943
  0
SEQEND
  0
POINT
  8
2
 10
140.89677200
 20
857.15625677
  0
TEXT
  8
2
 10
140.89677200
 20
857.15625677
 40
10.00000000
 50
0.00000000
  1
# 21
  0
POINT
  8
3
 10
166.09705388
 20
851.45351517
  0
POINT
  8
3
 10
191.32401810
 20
845.86463079
  0
POINT
  8
3
 10
241.81522903
 20
834.89356146
  0
POINT
  8
3
 10
292.21366653
 20
823.33331976
  0
POINT
  8
3
 10
304.86258470
 20
820.63249896
  0
POINT
  8
3
 10
317.55865356
 20
818.18504560
  0
POINT
  8
3
 10
330.30171133
 20
816.11922444
  0
POINT
  8
3
 10
343.09159622
 20
814.56330023
  0
POINT
  8
3
 10
355.92651092
 20
813.61711657
  0
POINT
  8
3
 10
368.80813274
 20
813.26618307
  0
POINT
  8
3
 10
381.73651560
 20
813.46775407
  0
POINT
  8
2
 10
394.71171341
 20
814.17908392
  0
TEXT
  8
2
 10
394.71171341
 20
814.17908392
 40
10.00000000
 50
0.00000000
  1
# 22
  0
POINT
  8
3
 10
408.04631555
 20
818.44746559
  0
POINT
  8
3
 10
421.25145170
 20
823.02146140
  0
POINT
  8
3
 10
434.29731441
 20
827.96856473
  0
POINT
  8
3
 10
447.15409622
 20
833.35626898
  0
POINT
  8
3
 10
459.85082030
 20
839.22594367
  0
POINT
  8
3
 10
472.41718110
 20
845.40334171
  0
POINT
  8
3
 10
484.94306391
 20
851.68493471
  0
POINT
  8
3
 10
497.51835403
 20
857.86719427
  0
POINT
  8
3
 10
510.19814419
 20
863.77638674
  0
POINT
  8
3
 10
523.00230635
 20
869.40586014
  0
POINT
  8
3
 10
535.91629899
 20
874.77793298
  0
POINT
  8
3
 10
548.92558060
 20
879.91492376
  0
POINT
  8
3
 10
562.02069467
 20
884.83722200
  0
POINT
  8
3
 10
575.19230527
 20
889.54996468
  0
POINT
  8
3
 10
588.43611994
 20
894.05646926
  0
POINT
  8
3
 10
601.74784622
 20
898.36005316
  0
POINT
  8
3
 10
614.38131179
 20
902.24039206
  0
POINT
  8
3
 10
627.06974328
 20
905.93600449
  0
POINT
  8
3
 10
639.81133757
 20
909.44027517
  0
POINT
  8
3
 10
652.60429153
 20
912.74658880
  0
POINT
  8
3
 10
665.44625742
 20
915.85976412
  0
POINT
  8
3
 10
678.32321758
 20
918.82808952
  0
POINT
  8
3
 10
704.12382278
 20
924.56928167
  0
POINT
  8
2
 10
755.71268997
 20
936.09375677
  0
TEXT
  8
2
 10
755.71268997
 20
936.09375677
 40
10.00000000
 50
0.00000000
  1
# 23
  0
POINT
  8
2
 10
779.15800247
 20
880.48462591
  0
TEXT
  8
2
 10
779.15800247
 20
880.48462591
 40
10.00000000
 50
0.00000000
  1
# 24
  0
POINT
  8
3
 10
761.25398352
 20
876.46785379
  0
POINT
  8
3
 10
743.37994706
 20
872.33011968
  0
POINT
  8
3
 10
725.53873713
 20
868.06353822
  0
POINT
  8
3
 10
707.73319778
 20
863.66022406
  0
POINT
  8
3
 10
689.95893917
 20
859.11616172
  0
POINT
  8
3
 10
672.21468194
 20
854.45106227
  0
POINT
  8
3
 10
636.78202591
 20
844.85242376
  0
POINT
  8
3
 10
619.08441253
 20
839.93840933
  0
POINT
  8
3
 10
601.44377368
 20
834.83502725
  0
POINT
  8
3
 10
583.91269063
 20
829.40295634
  0
POINT
  8
3
 10
566.54374466
 20
823.50287542
  0
POINT
  8
3
 10
549.40557301
 20
817.03396515
  0
POINT
  8
3
 10
532.48340842
 20
809.99265328
  0
POINT
  8
3
 10
515.77915610
 20
802.41212570
  0
POINT
  8
3
 10
499.29472122
 20
794.32556829
  0
POINT
  8
3
 10
483.04679049
 20
785.75222612
  0
POINT
  8
3
 10
467.10037331
 20
776.64982589
  0
POINT
  8
3
 10
451.53530977
 20
766.96204858
  0
POINT
  8
3
 10
436.43143997
 20
756.63257513
  0
POINT
  8
3
 10
421.85044063
 20
745.61726753
  0
POINT
  8
3
 10
407.78389229
 20
733.92267760
  0
POINT
  8
3
 10
394.20518030
 20
721.56757928
  0
POINT
  8
2
 10
381.08768997
 20
708.57074652
  0
TEXT
  8
2
 10
381.08768997
 20
708.57074652
 40
10.00000000
 50
0.00000000
  1
# 25
  0
POINT
  8
2
 10
341.87577591
 20
720.57123480
  0
TEXT
  8
2
 10
341.87577591
 20
720.57123480
 40
10.00000000
 50
0.00000000
  1
# 26
  0
POINT
  8
2
 10
190.55009232
 20
767.03882513
  0
TEXT
  8
2
 10
190.55009232
 20
767.03882513
 40
10.00000000
 50
0.00000000
  1
# 27
  0
POINT
  8
2
 10
123.00321732
 20
804.55322943
  0
TEXT
  8
2
 10
123.00321732
 20
804.55322943
 40
10.00000000
 50
0.00000000
  1
# 28
  0
POINT
  8
4
 10
394.71171341
 20
814.17908392
 30
7.50000000
 50
280.44385861
  0
TEXT
  8
1
 10
394.71171341
 20
814.17908392
 40
10.00000000
 50
0.00000000
  1
# 29
  0
POINT
  8
4
 10
601.74784622
 20
898.36005316
 30
7.50000000
 50
287.91564129
  0
TEXT
  8
1
 10
601.74784622
 20
898.36005316
 40
10.00000000
 50
0.00000000
  1
# 30
  0
POINT
  8
4
 10
341.87577591
 20
720.57123480
 30
7.50000000
 50
432.95676946
  0
TEXT
  8
1
 10
341.87577591
 20
720.57123480
 40
10.00000000
 50
0.00000000
  1
# 31
  0
POINT
  8
4
 10
190.55009232
 20
767.03882513
 30
7.50000000
 50
426.94139190
  0
TEXT
  8
1
 10
190.55009232
 20
767.03882513
 40
10.00000000
 50
0.00000000
  1
# 32
  0
ENDBLK
  0
BLOCK
  8
1
  2
3
 70
64
 10
0.0
 20
0.0
  0
LINE
  8
7
 10
1988.06574143
 20
1069.42642517
 11
2018.13214768
 21
1069.42642517
  0
TEXT
  8
1
 10
0.00000000
 20
0.00000000
 40
20.00000000
 50
0.00000000
  1
Size: 46
  0
TEXT
  8
1
 10
2003.09894455
 20
1076.92642517
 40
10.00000000
 50
0.00000000
  1
Piece Name: AFERIA.T
  0
TEXT
  8
1
 10
2003.09894455
 20
1076.92642517
 40
10.00000000
 50
0.00000000
  1
Quantity: 1
  0
TEXT
  8
1
 10
2003.09894455
 20
1076.92642517
 40
10.00000000
 50
0.00000000
  1
Rotation: 0
  0
TEXT
  8
1
 10
2003.09894455
 20
1076.92642517
 40
10.00000000
 50
0.00000000
  1
Tilt: 0
  0
TEXT
  8
1
 10
2003.09894455
 20
1076.92642517
 40
10.00000000
 50
0.00000000
  1
Fold: N
  0
TEXT
  8
1
 10
2003.09894455
 20
1076.92642517
 40
10.00000000
 50
0.00000000
  1
Material: 1
  0
POLYLINE
  8
1
 66
1
 70
1
  0
VERTEX
  8
1
 10
1984.13948669
 20
880.43763733
  0
VERTEX
  8
1
 10
1976.23616638
 20
1079.58979797
  0
VERTEX
  8
1
 10
2004.49593201
 20
1079.85273743
  0
VERTEX
  8
1
 10
2029.19515076
 20
1080.04231262
  0
VERTEX
  8
1
 10
2036.36897888
 20
874.24171448
  0
VERTEX
  8
1
 10
2026.50569763
 20
872.39881897
  0
SEQEND
  0
POLYLINE
  8
84
 66
1
 70
1
  0
VERTEX
  8
84
 10
1984.13948669
 20
880.43763733
  0
VERTEX
  8
84
 10
1976.23616638
 20
1079.58979797
  0
VERTEX
  8
84
 10
2004.49593201
 20
1079.85273743
  0
VERTEX
  8
84
 10
2029.19515076
 20
1080.04231262
  0
VERTEX
  8
84
 10
2036.36897888
 20
874.24171448
  0
VERTEX
  8
84
 10
2026.50569763
 20
872.39881897
  0
SEQEND
  0
POINT
  8
2
 10
1984.13948669
 20
880.43763733
  0
TEXT
  8
2
 10
1984.13948669
 20
880.43763733
 40
10.00000000
 50
0.00000000
  1
# 33
  0
POINT
  8
2
 10
1976.23616638
 20
1079.58979797
  0
TEXT
  8
2
 10
1976.23616638
 20
1079.58979797
 40
10.00000000
 50
0.00000000
  1
# 34
  0
POINT
  8
2
 10
2004.49593201
 20
1079.85273743
  0
TEXT
  8
2
 10
2004.49593201
 20
1079.85273743
 40
10.00000000
 50
0.00000000
  1
# 35
  0
POINT
  8
2
 10
2029.19515076
 20
1080.04231262
  0
TEXT
  8
2
 10
2029.19515076
 20
1080.04231262
 40
10.00000000
 50
0.00000000
  1
# 36
  0
POINT
  8
2
 10
2036.36897888
 20
874.24171448
  0
TEXT
  8
2
 10
2036.36897888
 20
874.24171448
 40
10.00000000
 50
0.00000000
  1
# 37
  0
POINT
  8
2
 10
2026.50569763
 20
872.39881897
  0
TEXT
  8
2
 10
2026.50569763
 20
872.39881897
 40
10.00000000
 50
0.00000000
  1
# 38
  0
POINT
  8
13
 10
2004.21272888
 20
1031.81922913
  0
TEXT
  8
13
 10
2004.21272888
 20
1031.81922913
 40
10.00000000
 50
0.00000000
  1
# 39
  0
POINT
  8
13
 10
2004.21272888
 20
913.53578186
  0
TEXT
  8
13
 10
2004.21272888
 20
913.53578186
 40
10.00000000
 50
0.00000000
  1
# 40
  0
POINT
  8
4
 10
2004.49593201
 20
1079.85273743
 30
7.50000000
 50
270.48642133
  0
TEXT
  8
1
 10
2004.49593201
 20
1079.85273743
 40
10.00000000
 50
0.00000000
  1
# 41
  0
ENDBLK
  0
BLOCK
  8
1
  2
4
 70
64
 10
0.0
 20
0.0
  0
LINE
  8
7
 10
239.81640061
 20
1195.28183765
 11
556.76403245
 21
1195.28183765
  0
TEXT
  8
1
 10
0.00000000
 20
0.00000000
 40
10.00000000
 50
0.00000000
  1
Size: 46
  0
TEXT
  8
1
 10
398.29021653
 20
1210.28183765
 40
20.00000000
 50
0.00000000
  1
Piece Name: AFERIA.DC
  0
TEXT
  8
1
 10
398.29021653
 20
1210.28183765
 40
20.00000000
 50
0.00000000
  1
Quantity: 1
  0
TEXT
  8
1
 10
398.29021653
 20
1210.28183765
 40
20.00000000
 50
0.00000000
  1
Rotation: 0
  0
TEXT
  8
1
 10
398.29021653
 20
1210.28183765
 40
20.00000000
 50
0.00000000
  1
Tilt: 0
  0
TEXT
  8
1
 10
398.29021653
 20
1210.28183765
 40
20.00000000
 50
0.00000000
  1
Fold: N
  0
TEXT
  8
1
 10
398.29021653
 20
1210.28183765
 40
20.00000000
 50
0.00000000
  1
Material: 1
  0
POLYLINE
  8
1
 66
1
 70
1
  0
VERTEX
  8
1
 10
186.95799026
 20
1335.54983082
  0
VERTEX
  8
1
 10
207.38450394
 20
1320.79824390
  0
VERTEX
  8
1
 10
229.87595901
 20
1320.16408863
  0
VERTEX
  8
1
 10
252.37254105
 20
1319.75954762
  0
VERTEX
  8
1
 10
272.72619072
 20
1319.59215672
  0
VERTEX
  8
1
 10
293.08054886
 20
1319.60903492
  0
VERTEX
  8
1
 10
317.72556839
 20
1319.87343922
  0
VERTEX
  8
1
 10
322.36961136
 20
1319.95437183
  0
VERTEX
  8
1
 10
342.36472855
 20
1320.42202320
  0
VERTEX
  8
1
 10
360.56384375
 20
1321.02366318
  0
VERTEX
  8
1
 10
378.75584183
 20
1321.79983082
  0
VERTEX
  8
1
 10
400.14846034
 20
1322.94697401
  0
VERTEX
  8
1
 10
421.52630327
 20
1324.34774628
  0
VERTEX
  8
1
 10
442.89000923
 20
1326.00059231
  0
VERTEX
  8
1
 10
464.24021683
 20
1327.90395679
  0
VERTEX
  8
1
 10
464.46503209
 20
1320.48445450
  0
VERTEX
  8
1
 10
465.27723606
 20
1313.27401069
  0
VERTEX
  8
1
 10
466.66492455
 20
1306.22892750
  0
VERTEX
  8
1
 10
468.61619339
 20
1299.30550709
  0
VERTEX
  8
1
 10
471.09665909
 20
1292.56297746
  0
VERTEX
  8
1
 10
474.15189408
 20
1286.02544077
  0
VERTEX
  8
1
 10
477.81696426
 20
1279.82161704
  0
VERTEX
  8
1
 10
482.12693558
 20
1274.08022633
  0
VERTEX
  8
1
 10
487.15605317
 20
1268.83907429
  0
VERTEX
  8
1
 10
492.74348635
 20
1264.16182184
  0
VERTEX
  8
1
 10
498.75006114
 20
1260.00598172
  0
VERTEX
  8
1
 10
505.03660355
 20
1256.32906666
  0
VERTEX
  8
1
 10
518.09188086
 20
1250.33610011
  0
VERTEX
  8
1
 10
524.94447054
 20
1248.02475180
  0
VERTEX
  8
1
 10
532.07517776
 20
1246.18892994
  0
VERTEX
  8
1
 10
556.71298586
 20
1245.74412428
  0
VERTEX
  8
1
 10
581.27146683
 20
1246.66860523
  0
VERTEX
  8
1
 10
605.78415402
 20
1248.98938042
  0
VERTEX
  8
1
 10
630.17088089
 20
1252.53914967
  0
VERTEX
  8
1
 10
654.37976757
 20
1257.10437733
  0
VERTEX
  8
1
 10
678.41453323
 20
1262.47353687
  0
VERTEX
  8
1
 10
702.29347852
 20
1268.48333015
  0
VERTEX
  8
1
 10
726.01267776
 20
1275.15682545
  0
VERTEX
  8
1
 10
734.95847855
 20
1251.87014332
  0
VERTEX
  8
1
 10
744.40818558
 20
1228.78206959
  0
VERTEX
  8
1
 10
753.55955276
 20
1205.57448902
  0
VERTEX
  8
1
 10
739.85000289
 20
1202.57562919
  0
VERTEX
  8
1
 10
726.15697813
 20
1199.50837603
  0
VERTEX
  8
1
 10
698.78953323
 20
1193.27364674
  0
VERTEX
  8
1
 10
685.10430779
 20
1190.14104589
  0
VERTEX
  8
1
 10
671.43560835
 20
1186.94004782
  0
VERTEX
  8
1
 10
657.80666433
 20
1183.59193014
  0
VERTEX
  8
1
 10
644.24070511
 20
1180.01797047
  0
VERTEX
  8
1
 10
630.75673275
 20
1176.16611874
  0
VERTEX
  8
1
 10
617.33612007
 20
1172.08499001
  0
VERTEX
  8
1
 10
603.95605675
 20
1167.84971553
  0
VERTEX
  8
1
 10
590.59373245
 20
1163.53542652
  0
VERTEX
  8
1
 10
576.88597792
 20
1159.07122753
  0
VERTEX
  8
1
 10
563.22266484
 20
1154.48740971
  0
VERTEX
  8
1
 10
549.65357698
 20
1149.66844502
  0
VERTEX
  8
1
 10
536.22849808
 20
1144.49880543
  0
VERTEX
  8
1
 10
522.97745943
 20
1138.89150759
  0
VERTEX
  8
1
 10
509.88860566
 20
1132.88975273
  0
VERTEX
  8
1
 10
496.93014731
 20
1126.56572368
  0
VERTEX
  8
1
 10
484.07029495
 20
1119.99160328
  0
VERTEX
  8
1
 10
471.26281865
 20
1113.27197753
  0
VERTEX
  8
1
 10
458.42050086
 20
1106.64996455
  0
VERTEX
  8
1
 10
445.44165434
 20
1100.40116352
  0
VERTEX
  8
1
 10
432.22459183
 20
1094.80117359
  0
VERTEX
  8
1
 10
418.75402482
 20
1090.08431454
  0
VERTEX
  8
1
 10
404.98034612
 20
1086.19212140
  0
VERTEX
  8
1
 10
390.93718871
 20
1083.03343995
  0
VERTEX
  8
1
 10
376.65818558
 20
1080.51711597
  0
VERTEX
  8
1
 10
361.72256634
 20
1080.69632022
  0
VERTEX
  8
1
 10
346.86811561
 20
1081.41244383
  0
VERTEX
  8
1
 10
332.11011588
 20
1082.76070698
  0
VERTEX
  8
1
 10
317.46384964
 20
1084.83632984
  0
VERTEX
  8
1
 10
302.89524166
 20
1087.67975557
  0
VERTEX
  8
1
 10
288.40828368
 20
1091.06326968
  0
VERTEX
  8
1
 10
259.49509964
 20
1098.30276051
  0
VERTEX
  8
1
 10
244.99440015
 20
1101.65160786
  0
VERTEX
  8
1
 10
230.45965121
 20
1104.80178809
  0
VERTEX
  8
1
 10
201.37766800
 20
1110.99343433
  0
VERTEX
  8
1
 10
186.86839276
 20
1114.25190792
  0
VERTEX
  8
1
 10
172.38485043
 20
1117.63660721
  0
VERTEX
  8
1
 10
143.46507034
 20
1124.62221851
  0
VERTEX
  8
1
 10
119.66428909
 20
1134.69057789
  0
SEQEND
  0
POLYLINE
  8
84
 66
1
 70
1
  0
VERTEX
  8
84
 10
186.95799026
 20
1335.54983082
  0
VERTEX
  8
84
 10
207.38450394
 20
1320.79824390
  0
VERTEX
  8
84
 10
229.87595901
 20
1320.16408863
  0
VERTEX
  8
84
 10
252.37254105
 20
1319.75954762
  0
VERTEX
  8
84
 10
272.72619072
 20
1319.59215672
  0
VERTEX
  8
84
 10
293.08054886
 20
1319.60903492
  0
VERTEX
  8
84
 10
317.72556839
 20
1319.87343922
  0
VERTEX
  8
84
 10
322.36961136
 20
1319.95437183
  0
VERTEX
  8
84
 10
342.36472855
 20
1320.42202320
  0
VERTEX
  8
84
 10
360.56384375
 20
1321.02366318
  0
VERTEX
  8
84
 10
378.75584183
 20
1321.79983082
  0
VERTEX
  8
84
 10
400.14846034
 20
1322.94697401
  0
VERTEX
  8
84
 10
421.52630327
 20
1324.34774628
  0
VERTEX
  8
84
 10
442.89000923
 20
1326.00059231
  0
VERTEX
  8
84
 10
464.24021683
 20
1327.90395679
  0
VERTEX
  8
84
 10
464.46503209
 20
1320.48445450
  0
VERTEX
  8
84
 10
465.27723606
 20
1313.27401069
  0
VERTEX
  8
84
 10
466.66492455
 20
1306.22892750
  0
VERTEX
  8
84
 10
468.61619339
 20
1299.30550709
  0
VERTEX
  8
84
 10
471.09665909
 20
1292.56297746
  0
VERTEX
  8
84
 10
474.15189408
 20
1286.02544077
  0
VERTEX
  8
84
 10
477.81696426
 20
1279.82161704
  0
VERTEX
  8
84
 10
482.12693558
 20
1274.08022633
  0
VERTEX
  8
84
 10
487.15605317
 20
1268.83907429
  0
VERTEX
  8
84
 10
492.74348635
 20
1264.16182184
  0
VERTEX
  8
84
 10
498.75006114
 20
1260.00598172
  0
VERTEX
  8
84
 10
505.03660355
 20
1256.32906666
  0
VERTEX
  8
84
 10
518.09188086
 20
1250.33610011
  0
VERTEX
  8
84
 10
524.94447054
 20
1248.02475180
  0
VERTEX
  8
84
 10
532.07517776
 20
1246.18892994
  0
VERTEX
  8
84
 10
556.71298586
 20
1245.74412428
  0
VERTEX
  8
84
 10
581.27146683
 20
1246.66860523
  0
VERTEX
  8
84
 10
605.78415402
 20
1248.98938042
  0
VERTEX
  8
84
 10
630.17088089
 20
1252.53914967
  0
VERTEX
  8
84
 10
654.37976757
 20
1257.10437733
  0
VERTEX
  8
84
 10
678.41453323
 20
1262.47353687
  0
VERTEX
  8
84
 10
702.29347852
 20
1268.48333015
  0
VERTEX
  8
84
 10
726.01267776
 20
1275.15682545
  0
VERTEX
  8
84
 10
734.95847855
 20
1251.87014332
  0
VERTEX
  8
84
 10
744.40818558
 20
1228.78206959
  0
VERTEX
  8
84
 10
753.55955276
 20
1205.57448902
  0
VERTEX
  8
84
 10
739.85000289
 20
1202.57562919
  0
VERTEX
  8
84
 10
726.15697813
 20
1199.50837603
  0
VERTEX
  8
84
 10
698.78953323
 20
1193.27364674
  0
VERTEX
  8
84
 10
685.10430779
 20
1190.14104589
  0
VERTEX
  8
84
 10
671.43560835
 20
1186.94004782
  0
VERTEX
  8
84
 10
657.80666433
 20
1183.59193014
  0
VERTEX
  8
84
 10
644.24070511
 20
1180.01797047
  0
VERTEX
  8
84
 10
630.75673275
 20
1176.16611874
  0
VERTEX
  8
84
 10
617.33612007
 20
1172.08499001
  0
VERTEX
  8
84
 10
603.95605675
 20
1167.84971553
  0
VERTEX
  8
84
 10
590.59373245
 20
1163.53542652
  0
VERTEX
  8
84
 10
576.88597792
 20
1159.07122753
  0
VERTEX
  8
84
 10
563.22266484
 20
1154.48740971
  0
VERTEX
  8
84
 10
549.65357698
 20
1149.66844502
  0
VERTEX
  8
84
 10
536.22849808
 20
1144.49880543
  0
VERTEX
  8
84
 10
522.97745943
 20
1138.89150759
  0
VERTEX
  8
84
 10
509.88860566
 20
1132.88975273
  0
VERTEX
  8
84
 10
496.93014731
 20
1126.56572368
  0
VERTEX
  8
84
 10
484.07029495
 20
1119.99160328
  0
VERTEX
  8
84
 10
471.26281865
 20
1113.27197753
  0
VERTEX
  8
84
 10
458.42050086
 20
1106.64996455
  0
VERTEX
  8
84
 10
445.44165434
 20
1100.40116352
  0
VERTEX
  8
84
 10
432.22459183
 20
1094.80117359
  0
VERTEX
  8
84
 10
418.75402482
 20
1090.08431454
  0
VERTEX
  8
84
 10
404.98034612
 20
1086.19212140
  0
VERTEX
  8
84
 10
390.93718871
 20
1083.03343995
  0
VERTEX
  8
84
 10
376.65818558
 20
1080.51711597
  0
VERTEX
  8
84
 10
361.72256634
 20
1080.69632022
  0
VERTEX
  8
84
 10
346.86811561
 20
1081.41244383
  0
VERTEX
  8
84
 10
332.11011588
 20
1082.76070698
  0
VERTEX
  8
84
 10
317.46384964
 20
1084.83632984
  0
VERTEX
  8
84
 10
302.89524166
 20
1087.67975557
  0
VERTEX
  8
84
 10
288.40828368
 20
1091.06326968
  0
VERTEX
  8
84
 10
259.49509964
 20
1098.30276051
  0
VERTEX
  8
84
 10
244.99440015
 20
1101.65160786
  0
VERTEX
  8
84
 10
230.45965121
 20
1104.80178809
  0
VERTEX
  8
84
 10
201.37766800
 20
1110.99343433
  0
VERTEX
  8
84
 10
186.86839276
 20
1114.25190792
  0
VERTEX
  8
84
 10
172.38485043
 20
1117.63660721
  0
VERTEX
  8
84
 10
143.46507034
 20
1124.62221851
  0
VERTEX
  8
84
 10
119.66428909
 20
1134.69057789
  0
SEQEND
  0
POINT
  8
2
 10
186.95799026
 20
1335.54983082
  0
TEXT
  8
2
 10
186.95799026
 20
1335.54983082
 40
10.00000000
 50
0.00000000
  1
# 42
  0
POINT
  8
2
 10
207.38450394
 20
1320.79824390
  0
TEXT
  8
2
 10
207.38450394
 20
1320.79824390
 40
10.00000000
 50
0.00000000
  1
# 43
  0
POINT
  8
3
 10
229.87595901
 20
1320.16408863
  0
POINT
  8
3
 10
252.37254105
 20
1319.75954762
  0
POINT
  8
3
 10
272.72619072
 20
1319.59215672
  0
POINT
  8
3
 10
293.08054886
 20
1319.60903492
  0
POINT
  8
3
 10
317.72556839
 20
1319.87343922
  0
POINT
  8
2
 10
322.36961136
 20
1319.95437183
  0
TEXT
  8
2
 10
322.36961136
 20
1319.95437183
 40
10.00000000
 50
0.00000000
  1
# 44
  0
POINT
  8
3
 10
342.36472855
 20
1320.42202320
  0
POINT
  8
3
 10
360.56384375
 20
1321.02366318
  0
POINT
  8
3
 10
378.75584183
 20
1321.79983082
  0
POINT
  8
3
 10
400.14846034
 20
1322.94697401
  0
POINT
  8
3
 10
421.52630327
 20
1324.34774628
  0
POINT
  8
3
 10
442.89000923
 20
1326.00059231
  0
POINT
  8
2
 10
464.24021683
 20
1327.90395679
  0
TEXT
  8
2
 10
464.24021683
 20
1327.90395679
 40
10.00000000
 50
0.00000000
  1
# 45
  0
POINT
  8
3
 10
464.46503209
 20
1320.48445450
  0
POINT
  8
3
 10
465.27723606
 20
1313.27401069
  0
POINT
  8
3
 10
466.66492455
 20
1306.22892750
  0
POINT
  8
3
 10
468.61619339
 20
1299.30550709
  0
POINT
  8
3
 10
471.09665909
 20
1292.56297746
  0
POINT
  8
3
 10
474.15189408
 20
1286.02544077
  0
POINT
  8
3
 10
477.81696426
 20
1279.82161704
  0
POINT
  8
3
 10
482.12693558
 20
1274.08022633
  0
POINT
  8
3
 10
487.15605317
 20
1268.83907429
  0
POINT
  8
3
 10
492.74348635
 20
1264.16182184
  0
POINT
  8
3
 10
498.75006114
 20
1260.00598172
  0
POINT
  8
3
 10
505.03660355
 20
1256.32906666
  0
POINT
  8
3
 10
518.09188086
 20
1250.33610011
  0
POINT
  8
3
 10
524.94447054
 20
1248.02475180
  0
POINT
  8
2
 10
532.07517776
 20
1246.18892994
  0
TEXT
  8
2
 10
532.07517776
 20
1246.18892994
 40
10.00000000
 50
0.00000000
  1
# 46
  0
POINT
  8
3
 10
556.71298586
 20
1245.74412428
  0
POINT
  8
3
 10
581.27146683
 20
1246.66860523
  0
POINT
  8
3
 10
605.78415402
 20
1248.98938042
  0
POINT
  8
3
 10
630.17088089
 20
1252.53914967
  0
POINT
  8
3
 10
654.37976757
 20
1257.10437733
  0
POINT
  8
3
 10
678.41453323
 20
1262.47353687
  0
POINT
  8
3
 10
702.29347852
 20
1268.48333015
  0
POINT
  8
2
 10
726.01267776
 20
1275.15682545
  0
TEXT
  8
2
 10
726.01267776
 20
1275.15682545
 40
10.00000000
 50
0.00000000
  1
# 47
  0
POINT
  8
3
 10
734.95847855
 20
1251.87014332
  0
POINT
  8
3
 10
744.40818558
 20
1228.78206959
  0
POINT
  8
2
 10
753.55955276
 20
1205.57448902
  0
TEXT
  8
2
 10
753.55955276
 20
1205.57448902
 40
10.00000000
 50
0.00000000
  1
# 48
  0
POINT
  8
3
 10
739.85000289
 20
1202.57562919
  0
POINT
  8
3
 10
726.15697813
 20
1199.50837603
  0
POINT
  8
3
 10
698.78953323
 20
1193.27364674
  0
POINT
  8
3
 10
685.10430779
 20
1190.14104589
  0
POINT
  8
3
 10
671.43560835
 20
1186.94004782
  0
POINT
  8
3
 10
657.80666433
 20
1183.59193014
  0
POINT
  8
3
 10
644.24070511
 20
1180.01797047
  0
POINT
  8
3
 10
630.75673275
 20
1176.16611874
  0
POINT
  8
3
 10
617.33612007
 20
1172.08499001
  0
POINT
  8
3
 10
603.95605675
 20
1167.84971553
  0
POINT
  8
3
 10
590.59373245
 20
1163.53542652
  0
POINT
  8
3
 10
576.88597792
 20
1159.07122753
  0
POINT
  8
3
 10
563.22266484
 20
1154.48740971
  0
POINT
  8
3
 10
549.65357698
 20
1149.66844502
  0
POINT
  8
3
 10
536.22849808
 20
1144.49880543
  0
POINT
  8
3
 10
522.97745943
 20
1138.89150759
  0
POINT
  8
3
 10
509.88860566
 20
1132.88975273
  0
POINT
  8
3
 10
496.93014731
 20
1126.56572368
  0
POINT
  8
3
 10
484.07029495
 20
1119.99160328
  0
POINT
  8
3
 10
471.26281865
 20
1113.27197753
  0
POINT
  8
3
 10
458.42050086
 20
1106.64996455
  0
POINT
  8
3
 10
445.44165434
 20
1100.40116352
  0
POINT
  8
3
 10
432.22459183
 20
1094.80117359
  0
POINT
  8
3
 10
418.75402482
 20
1090.08431454
  0
POINT
  8
3
 10
404.98034612
 20
1086.19212140
  0
POINT
  8
3
 10
390.93718871
 20
1083.03343995
  0
POINT
  8
2
 10
376.65818558
 20
1080.51711597
  0
TEXT
  8
2
 10
376.65818558
 20
1080.51711597
 40
10.00000000
 50
0.00000000
  1
# 49
  0
POINT
  8
3
 10
361.72256634
 20
1080.69632022
  0
POINT
  8
3
 10
346.86811561
 20
1081.41244383
  0
POINT
  8
3
 10
332.11011588
 20
1082.76070698
  0
POINT
  8
3
 10
317.46384964
 20
1084.83632984
  0
POINT
  8
3
 10
302.89524166
 20
1087.67975557
  0
POINT
  8
3
 10
288.40828368
 20
1091.06326968
  0
POINT
  8
3
 10
259.49509964
 20
1098.30276051
  0
POINT
  8
3
 10
244.99440015
 20
1101.65160786
  0
POINT
  8
3
 10
230.45965121
 20
1104.80178809
  0
POINT
  8
3
 10
201.37766800
 20
1110.99343433
  0
POINT
  8
3
 10
186.86839276
 20
1114.25190792
  0
POINT
  8
3
 10
172.38485043
 20
1117.63660721
  0
POINT
  8
2
 10
143.46507034
 20
1124.62221851
  0
TEXT
  8
2
 10
143.46507034
 20
1124.62221851
 40
10.00000000
 50
0.00000000
  1
# 50
  0
POINT
  8
2
 10
119.66428909
 20
1134.69057789
  0
TEXT
  8
2
 10
119.66428909
 20
1134.69057789
 40
10.00000000
 50
0.00000000
  1
# 51
  0
POINT
  8
4
 10
590.59373245
 20
1163.53542652
 30
7.50000000
 50
107.89369356
  0
TEXT
  8
1
 10
590.59373245
 20
1163.53542652
 40
10.00000000
 50
0.00000000
  1
# 52
  0
POINT
  8
4
 10
376.65818558
 20
1080.51711597
 30
7.50000000
 50
94.65346574
  0
TEXT
  8
1
 10
376.65818558
 20
1080.51711597
 40
10.00000000
 50
0.00000000
  1
# 53
  0
ENDBLK
  0
BLOCK
  8
1
  2
5
 70
64
 10
0.0
 20
0.0
  0
LINE
  8
7
 10
250.46766511
 20
386.96259766
 11
572.01893464
 21
386.96259766
  0
TEXT
  8
1
 10
0.00000000
 20
0.00000000
 40
20.00000000
 50
0.00000000
  1
Size: 46
  0
TEXT
  8
1
 10
411.24329987
 20
401.96259766
 40
20.00000000
 50
0.00000000
  1
Piece Name: AFERIA.DE
  0
TEXT
  8
1
 10
411.24329987
 20
401.96259766
 40
20.00000000
 50
0.00000000
  1
Quantity: 1
  0
TEXT
  8
1
 10
411.24329987
 20
401.96259766
 40
20.00000000
 50
0.00000000
  1
Rotation: 0
  0
TEXT
  8
1
 10
411.24329987
 20
401.96259766
 40
20.00000000
 50
0.00000000
  1
Tilt: 0
  0
TEXT
  8
1
 10
411.24329987
 20
401.96259766
 40
20.00000000
 50
0.00000000
  1
Fold: N
  0
TEXT
  8
1
 10
411.24329987
 20
401.96259766
 40
20.00000000
 50
0.00000000
  1
Material: 1
  0
POLYLINE
  8
1
 66
1
 70
1
  0
VERTEX
  8
1
 10
391.01022415
 20
375.96147461
  0
VERTEX
  8
1
 10
352.01852493
 20
378.66801758
  0
VERTEX
  8
1
 10
149.49752884
 20
379.43974609
  0
VERTEX
  8
1
 10
146.71994095
 20
389.04625244
  0
VERTEX
  8
1
 10
133.54391556
 20
434.61748047
  0
VERTEX
  8
1
 10
121.04538040
 20
477.84685059
  0
VERTEX
  8
1
 10
184.04391556
 20
513.97526855
  0
VERTEX
  8
1
 10
335.37204056
 20
560.44499512
  0
VERTEX
  8
1
 10
371.93356400
 20
571.63664551
  0
VERTEX
  8
1
 10
384.73147508
 20
559.17352968
  0
VERTEX
  8
1
 10
397.93412720
 20
547.26721994
  0
VERTEX
  8
1
 10
411.55422233
 20
535.91299358
  0
VERTEX
  8
1
 10
425.60446243
 20
525.10612793
  0
VERTEX
  8
1
 10
440.71416040
 20
514.42113872
  0
VERTEX
  8
1
 10
456.26428807
 20
504.34106957
  0
VERTEX
  8
1
 10
472.21399510
 20
494.88110895
  0
VERTEX
  8
1
 10
488.52243118
 20
486.05644531
  0
VERTEX
  8
1
 10
505.15667825
 20
477.86922133
  0
VERTEX
  8
1
 10
522.07054699
 20
470.29115541
  0
VERTEX
  8
1
 10
539.22549455
 20
463.28033526
  0
VERTEX
  8
1
 10
556.58297806
 20
456.79484863
  0
VERTEX
  8
1
 10
574.03823699
 20
450.80986352
  0
VERTEX
  8
1
 10
591.62746165
 20
445.23212829
  0
VERTEX
  8
1
 10
609.32188592
 20
439.98918951
  0
VERTEX
  8
1
 10
627.09274368
 20
435.00859375
  0
VERTEX
  8
1
 10
644.87316675
 20
430.23690820
  0
VERTEX
  8
1
 10
662.69462679
 20
425.63002687
  0
VERTEX
  8
1
 10
680.55071656
 20
421.16375344
  0
VERTEX
  8
1
 10
698.43502884
 20
416.81389160
  0
VERTEX
  8
1
 10
714.83121004
 20
412.91667021
  0
VERTEX
  8
1
 10
731.24752392
 20
409.10372122
  0
VERTEX
  8
1
 10
747.68581291
 20
405.38200244
  0
VERTEX
  8
1
 10
764.14791946
 20
401.75847168
  0
VERTEX
  8
1
 10
754.26364212
 20
379.39787598
  0
VERTEX
  8
1
 10
747.55826479
 20
362.87977492
  0
VERTEX
  8
1
 10
740.85543900
 20
346.35515137
  0
VERTEX
  8
1
 10
734.88683446
 20
332.38056875
  0
VERTEX
  8
1
 10
729.21676712
 20
318.29472656
  0
VERTEX
  8
1
 10
725.37692337
 20
307.18498535
  0
VERTEX
  8
1
 10
703.50600872
 20
312.64984791
  0
VERTEX
  8
1
 10
681.53341751
 20
317.65422363
  0
VERTEX
  8
1
 10
657.27020113
 20
322.66484864
  0
VERTEX
  8
1
 10
632.85299759
 20
326.87126465
  0
VERTEX
  8
1
 10
608.21862078
 20
329.95095853
  0
VERTEX
  8
1
 10
583.47287064
 20
331.77489014
  0
VERTEX
  8
1
 10
559.23815472
 20
332.29142606
  0
VERTEX
  8
1
 10
534.95456009
 20
331.56291504
  0
VERTEX
  8
1
 10
532.89694290
 20
331.14702148
  0
VERTEX
  8
1
 10
525.69643190
 20
329.27811861
  0
VERTEX
  8
1
 10
518.65880643
 20
326.81036221
  0
VERTEX
  8
1
 10
511.82582049
 20
323.77421059
  0
VERTEX
  8
1
 10
505.23922806
 20
320.20012207
  0
VERTEX
  8
1
 10
498.73030598
 20
315.95730066
  0
VERTEX
  8
1
 10
492.62950580
 20
311.16569799
  0
VERTEX
  8
1
 10
487.03583725
 20
305.82093383
  0
VERTEX
  8
1
 10
482.04831009
 20
299.91862793
  0
VERTEX
  8
1
 10
477.77811905
 20
293.52568178
  0
VERTEX
  8
1
 10
474.19710007
 20
286.69933664
  0
VERTEX
  8
1
 10
471.29980377
 20
279.55972455
  0
VERTEX
  8
1
 10
469.08078079
 20
272.22697754
  0
VERTEX
  8
1
 10
466.85316272
 20
259.49037811
  0
VERTEX
  8
1
 10
466.58981400
 20
246.29729004
  0
VERTEX
  8
1
 10
453.85470578
 20
246.87514613
  0
VERTEX
  8
1
 10
441.12146412
 20
247.31556794
  0
VERTEX
  8
1
 10
428.39008903
 20
247.61855545
  0
VERTEX
  8
1
 10
415.66058049
 20
247.78410866
  0
VERTEX
  8
1
 10
402.93293851
 20
247.81222758
  0
VERTEX
  8
1
 10
390.20716308
 20
247.70291221
  0
VERTEX
  8
1
 10
377.15860879
 20
247.44806820
  0
VERTEX
  8
1
 10
364.11201752
 20
247.04868671
  0
VERTEX
  8
1
 10
351.06738928
 20
246.50476777
  0
VERTEX
  8
1
 10
338.02472407
 20
245.81631135
  0
VERTEX
  8
1
 10
324.98402189
 20
244.98331747
  0
VERTEX
  8
1
 10
311.94528275
 20
244.00578613
  0
VERTEX
  8
1
 10
298.40479632
 20
243.75206271
  0
VERTEX
  8
1
 10
284.87372862
 20
243.31775338
  0
VERTEX
  8
1
 10
271.35207964
 20
242.70285815
  0
VERTEX
  8
1
 10
257.82064192
 20
241.90611726
  0
VERTEX
  8
1
 10
244.29864972
 20
240.92827653
  0
VERTEX
  8
1
 10
230.78610306
 20
239.76933594
  0
VERTEX
  8
1
 10
191.29342728
 20
235.86564941
  0
VERTEX
  8
1
 10
147.75045853
 20
362.63383789
  0
VERTEX
  8
1
 10
149.16403275
 20
370.59453125
  0
VERTEX
  8
1
 10
352.02731400
 20
372.94841309
  0
SEQEND
  0
POLYLINE
  8
84
 66
1
 70
1
  0
VERTEX
  8
84
 10
391.01022415
 20
375.96147461
  0
VERTEX
  8
84
 10
352.01852493
 20
378.66801758
  0
VERTEX
  8
84
 10
149.49752884
 20
379.43974609
  0
VERTEX
  8
84
 10
146.71994095
 20
389.04625244
  0
VERTEX
  8
84
 10
133.54391556
 20
434.61748047
  0
VERTEX
  8
84
 10
121.04538040
 20
477.84685059
  0
VERTEX
  8
84
 10
184.04391556
 20
513.97526855
  0
VERTEX
  8
84
 10
335.37204056
 20
560.44499512
  0
VERTEX
  8
84
 10
371.93356400
 20
571.63664551
  0
VERTEX
  8
84
 10
384.73147508
 20
559.17352968
  0
VERTEX
  8
84
 10
397.93412720
 20
547.26721994
  0
VERTEX
  8
84
 10
411.55422233
 20
535.91299358
  0
VERTEX
  8
84
 10
425.60446243
 20
525.10612793
  0
VERTEX
  8
84
 10
440.71416040
 20
514.42113872
  0
VERTEX
  8
84
 10
456.26428807
 20
504.34106957
  0
VERTEX
  8
84
 10
472.21399510
 20
494.88110895
  0
VERTEX
  8
84
 10
488.52243118
 20
486.05644531
  0
VERTEX
  8
84
 10
505.15667825
 20
477.86922133
  0
VERTEX
  8
84
 10
522.07054699
 20
470.29115541
  0
VERTEX
  8
84
 10
539.22549455
 20
463.28033526
  0
VERTEX
  8
84
 10
556.58297806
 20
456.79484863
  0
VERTEX
  8
84
 10
574.03823699
 20
450.80986352
  0
VERTEX
  8
84
 10
591.62746165
 20
445.23212829
  0
VERTEX
  8
84
 10
609.32188592
 20
439.98918951
  0
VERTEX
  8
84
 10
627.09274368
 20
435.00859375
  0
VERTEX
  8
84
 10
644.87316675
 20
430.23690820
  0
VERTEX
  8
84
 10
662.69462679
 20
425.63002687
  0
VERTEX
  8
84
 10
680.55071656
 20
421.16375344
  0
VERTEX
  8
84
 10
698.43502884
 20
416.81389160
  0
VERTEX
  8
84
 10
714.83121004
 20
412.91667021
  0
VERTEX
  8
84
 10
731.24752392
 20
409.10372122
  0
VERTEX
  8
84
 10
747.68581291
 20
405.38200244
  0
VERTEX
  8
84
 10
764.14791946
 20
401.75847168
  0
VERTEX
  8
84
 10
754.26364212
 20
379.39787598
  0
VERTEX
  8
84
 10
747.55826479
 20
362.87977492
  0
VERTEX
  8
84
 10
740.85543900
 20
346.35515137
  0
VERTEX
  8
84
 10
734.88683446
 20
332.38056875
  0
VERTEX
  8
84
 10
729.21676712
 20
318.29472656
  0
VERTEX
  8
84
 10
725.37692337
 20
307.18498535
  0
VERTEX
  8
84
 10
703.50600872
 20
312.64984791
  0
VERTEX
  8
84
 10
681.53341751
 20
317.65422363
  0
VERTEX
  8
84
 10
657.27020113
 20
322.66484864
  0
VERTEX
  8
84
 10
632.85299759
 20
326.87126465
  0
VERTEX
  8
84
 10
608.21862078
 20
329.95095853
  0
VERTEX
  8
84
 10
583.47287064
 20
331.77489014
  0
VERTEX
  8
84
 10
559.23815472
 20
332.29142606
  0
VERTEX
  8
84
 10
534.95456009
 20
331.56291504
  0
VERTEX
  8
84
 10
532.89694290
 20
331.14702148
  0
VERTEX
  8
84
 10
525.69643190
 20
329.27811861
  0
VERTEX
  8
84
 10
518.65880643
 20
326.81036221
  0
VERTEX
  8
84
 10
511.82582049
 20
323.77421059
  0
VERTEX
  8
84
 10
505.23922806
 20
320.20012207
  0
VERTEX
  8
84
 10
498.73030598
 20
315.95730066
  0
VERTEX
  8
84
 10
492.62950580
 20
311.16569799
  0
VERTEX
  8
84
 10
487.03583725
 20
305.82093383
  0
VERTEX
  8
84
 10
482.04831009
 20
299.91862793
  0
VERTEX
  8
84
 10
477.77811905
 20
293.52568178
  0
VERTEX
  8
84
 10
474.19710007
 20
286.69933664
  0
VERTEX
  8
84
 10
471.29980377
 20
279.55972455
  0
VERTEX
  8
84
 10
469.08078079
 20
272.22697754
  0
VERTEX
  8
84
 10
466.85316272
 20
259.49037811
  0
VERTEX
  8
84
 10
466.58981400
 20
246.29729004
  0
VERTEX
  8
84
 10
453.85470578
 20
246.87514613
  0
VERTEX
  8
84
 10
441.12146412
 20
247.31556794
  0
VERTEX
  8
84
 10
428.39008903
 20
247.61855545
  0
VERTEX
  8
84
 10
415.66058049
 20
247.78410866
  0
VERTEX
  8
84
 10
402.93293851
 20
247.81222758
  0
VERTEX
  8
84
 10
390.20716308
 20
247.70291221
  0
VERTEX
  8
84
 10
377.15860879
 20
247.44806820
  0
VERTEX
  8
84
 10
364.11201752
 20
247.04868671
  0
VERTEX
  8
84
 10
351.06738928
 20
246.50476777
  0
VERTEX
  8
84
 10
338.02472407
 20
245.81631135
  0
VERTEX
  8
84
 10
324.98402189
 20
244.98331747
  0
VERTEX
  8
84
 10
311.94528275
 20
244.00578613
  0
VERTEX
  8
84
 10
298.40479632
 20
243.75206271
  0
VERTEX
  8
84
 10
284.87372862
 20
243.31775338
  0
VERTEX
  8
84
 10
271.35207964
 20
242.70285815
  0
VERTEX
  8
84
 10
257.82064192
 20
241.90611726
  0
VERTEX
  8
84
 10
244.29864972
 20
240.92827653
  0
VERTEX
  8
84
 10
230.78610306
 20
239.76933594
  0
VERTEX
  8
84
 10
191.29342728
 20
235.86564941
  0
VERTEX
  8
84
 10
147.75045853
 20
362.63383789
  0
VERTEX
  8
84
 10
149.16403275
 20
370.59453125
  0
VERTEX
  8
84
 10
352.02731400
 20
372.94841309
  0
SEQEND
  0
POINT
  8
2
 10
391.01022415
 20
375.96147461
  0
TEXT
  8
2
 10
391.01022415
 20
375.96147461
 40
10.00000000
 50
0.00000000
  1
# 54
  0
POINT
  8
2
 10
352.01852493
 20
378.66801758
  0
TEXT
  8
2
 10
352.01852493
 20
378.66801758
 40
10.00000000
 50
0.00000000
  1
# 55
  0
POINT
  8
2
 10
149.49752884
 20
379.43974609
  0
TEXT
  8
2
 10
149.49752884
 20
379.43974609
 40
10.00000000
 50
0.00000000
  1
# 56
  0
POINT
  8
2
 10
146.71994095
 20
389.04625244
  0
TEXT
  8
2
 10
146.71994095
 20
389.04625244
 40
10.00000000
 50
0.00000000
  1
# 57
  0
POINT
  8
2
 10
133.54391556
 20
434.61748047
  0
TEXT
  8
2
 10
133.54391556
 20
434.61748047
 40
10.00000000
 50
0.00000000
  1
# 58
  0
POINT
  8
2
 10
121.04538040
 20
477.84685059
  0
TEXT
  8
2
 10
121.04538040
 20
477.84685059
 40
10.00000000
 50
0.00000000
  1
# 59
  0
POINT
  8
2
 10
184.04391556
 20
513.97526855
  0
TEXT
  8
2
 10
184.04391556
 20
513.97526855
 40
10.00000000
 50
0.00000000
  1
# 60
  0
POINT
  8
2
 10
335.37204056
 20
560.44499512
  0
TEXT
  8
2
 10
335.37204056
 20
560.44499512
 40
10.00000000
 50
0.00000000
  1
# 61
  0
POINT
  8
2
 10
371.93356400
 20
571.63664551
  0
TEXT
  8
2
 10
371.93356400
 20
571.63664551
 40
10.00000000
 50
0.00000000
  1
# 62
  0
POINT
  8
3
 10
384.73147508
 20
559.17352968
  0
POINT
  8
3
 10
397.93412720
 20
547.26721994
  0
POINT
  8
3
 10
411.55422233
 20
535.91299358
  0
POINT
  8
3
 10
425.60446243
 20
525.10612793
  0
POINT
  8
3
 10
440.71416040
 20
514.42113872
  0
POINT
  8
3
 10
456.26428807
 20
504.34106957
  0
POINT
  8
3
 10
472.21399510
 20
494.88110895
  0
POINT
  8
3
 10
488.52243118
 20
486.05644531
  0
POINT
  8
3
 10
505.15667825
 20
477.86922133
  0
POINT
  8
3
 10
522.07054699
 20
470.29115541
  0
POINT
  8
3
 10
539.22549455
 20
463.28033526
  0
POINT
  8
3
 10
556.58297806
 20
456.79484863
  0
POINT
  8
3
 10
574.03823699
 20
450.80986352
  0
POINT
  8
3
 10
591.62746165
 20
445.23212829
  0
POINT
  8
3
 10
609.32188592
 20
439.98918951
  0
POINT
  8
3
 10
627.09274368
 20
435.00859375
  0
POINT
  8
3
 10
644.87316675
 20
430.23690820
  0
POINT
  8
3
 10
662.69462679
 20
425.63002687
  0
POINT
  8
3
 10
680.55071656
 20
421.16375344
  0
POINT
  8
3
 10
698.43502884
 20
416.81389160
  0
POINT
  8
3
 10
714.83121004
 20
412.91667021
  0
POINT
  8
3
 10
731.24752392
 20
409.10372122
  0
POINT
  8
3
 10
747.68581291
 20
405.38200244
  0
POINT
  8
2
 10
764.14791946
 20
401.75847168
  0
TEXT
  8
2
 10
764.14791946
 20
401.75847168
 40
10.00000000
 50
0.00000000
  1
# 63
  0
POINT
  8
3
 10
754.26364212
 20
379.39787598
  0
POINT
  8
3
 10
747.55826479
 20
362.87977492
  0
POINT
  8
3
 10
740.85543900
 20
346.35515137
  0
POINT
  8
3
 10
734.88683446
 20
332.38056875
  0
POINT
  8
3
 10
729.21676712
 20
318.29472656
  0
POINT
  8
2
 10
725.37692337
 20
307.18498535
  0
TEXT
  8
2
 10
725.37692337
 20
307.18498535
 40
10.00000000
 50
0.00000000
  1
# 64
  0
POINT
  8
3
 10
703.50600872
 20
312.64984791
  0
POINT
  8
3
 10
681.53341751
 20
317.65422363
  0
POINT
  8
3
 10
657.27020113
 20
322.66484864
  0
POINT
  8
3
 10
632.85299759
 20
326.87126465
  0
POINT
  8
3
 10
608.21862078
 20
329.95095853
  0
POINT
  8
3
 10
583.47287064
 20
331.77489014
  0
POINT
  8
3
 10
559.23815472
 20
332.29142606
  0
POINT
  8
2
 10
534.95456009
 20
331.56291504
  0
TEXT
  8
2
 10
534.95456009
 20
331.56291504
 40
10.00000000
 50
0.00000000
  1
# 65
  0
POINT
  8
3
 10
532.89694290
 20
331.14702148
  0
POINT
  8
3
 10
525.69643190
 20
329.27811861
  0
POINT
  8
3
 10
518.65880643
 20
326.81036221
  0
POINT
  8
3
 10
511.82582049
 20
323.77421059
  0
POINT
  8
3
 10
505.23922806
 20
320.20012207
  0
POINT
  8
3
 10
498.73030598
 20
315.95730066
  0
POINT
  8
3
 10
492.62950580
 20
311.16569799
  0
POINT
  8
3
 10
487.03583725
 20
305.82093383
  0
POINT
  8
3
 10
482.04831009
 20
299.91862793
  0
POINT
  8
3
 10
477.77811905
 20
293.52568178
  0
POINT
  8
3
 10
474.19710007
 20
286.69933664
  0
POINT
  8
3
 10
471.29980377
 20
279.55972455
  0
POINT
  8
3
 10
469.08078079
 20
272.22697754
  0
POINT
  8
3
 10
466.85316272
 20
259.49037811
  0
POINT
  8
2
 10
466.58981400
 20
246.29729004
  0
TEXT
  8
2
 10
466.58981400
 20
246.29729004
 40
10.00000000
 50
0.00000000
  1
# 66
  0
POINT
  8
3
 10
453.85470578
 20
246.87514613
  0
POINT
  8
3
 10
441.12146412
 20
247.31556794
  0
POINT
  8
3
 10
428.39008903
 20
247.61855545
  0
POINT
  8
3
 10
415.66058049
 20
247.78410866
  0
POINT
  8
3
 10
402.93293851
 20
247.81222758
  0
POINT
  8
3
 10
390.20716308
 20
247.70291221
  0
POINT
  8
3
 10
377.15860879
 20
247.44806820
  0
POINT
  8
3
 10
364.11201752
 20
247.04868671
  0
POINT
  8
3
 10
351.06738928
 20
246.50476777
  0
POINT
  8
3
 10
338.02472407
 20
245.81631135
  0
POINT
  8
3
 10
324.98402189
 20
244.98331747
  0
POINT
  8
2
 10
311.94528275
 20
244.00578613
  0
TEXT
  8
2
 10
311.94528275
 20
244.00578613
 40
10.00000000
 50
0.00000000
  1
# 67
  0
POINT
  8
3
 10
298.40479632
 20
243.75206271
  0
POINT
  8
3
 10
284.87372862
 20
243.31775338
  0
POINT
  8
3
 10
271.35207964
 20
242.70285815
  0
POINT
  8
3
 10
257.82064192
 20
241.90611726
  0
POINT
  8
3
 10
244.29864972
 20
240.92827653
  0
POINT
  8
2
 10
230.78610306
 20
239.76933594
  0
TEXT
  8
2
 10
230.78610306
 20
239.76933594
 40
10.00000000
 50
0.00000000
  1
# 68
  0
POINT
  8
2
 10
191.29342728
 20
235.86564941
  0
TEXT
  8
2
 10
191.29342728
 20
235.86564941
 40
10.00000000
 50
0.00000000
  1
# 69
  0
POINT
  8
2
 10
147.75045853
 20
362.63383789
  0
TEXT
  8
2
 10
147.75045853
 20
362.63383789
 40
10.00000000
 50
0.00000000
  1
# 70
  0
POINT
  8
2
 10
149.16403275
 20
370.59453125
  0
TEXT
  8
2
 10
149.16403275
 20
370.59453125
 40
10.00000000
 50
0.00000000
  1
# 71
  0
POINT
  8
2
 10
352.02731400
 20
372.94841309
  0
TEXT
  8
2
 10
352.02731400
 20
372.94841309
 40
10.00000000
 50
0.00000000
  1
# 72
  0
ENDBLK
  0
BLOCK
  8
1
  2
6
 70
64
 10
0.0
 20
0.0
  0
LINE
  8
7
 10
1022.65387815
 20
1705.92933283
 11
1344.25226682
 21
1705.92933283
  0
TEXT
  8
1
 10
0.00000000
 20
0.00000000
 40
20.00000000
 50
0.00000000
  1
Size: 46
  0
TEXT
  8
1
 10
1183.45307248
 20
1720.92933283
 40
20.00000000
 50
0.00000000
  1
Piece Name: AFERIA.PE
  0
TEXT
  8
1
 10
1183.45307248
 20
1720.92933283
 40
20.00000000
 50
0.00000000
  1
Quantity: 1
  0
TEXT
  8
1
 10
1183.45307248
 20
1720.92933283
 40
20.00000000
 50
0.00000000
  1
Rotation: 0
  0
TEXT
  8
1
 10
1183.45307248
 20
1720.92933283
 40
20.00000000
 50
0.00000000
  1
Tilt: 0
  0
TEXT
  8
1
 10
1183.45307248
 20
1720.92933283
 40
20.00000000
 50
0.00000000
  1
Fold: N
  0
TEXT
  8
1
 10
1183.45307248
 20
1720.92933283
 40
20.00000000
 50
0.00000000
  1
Material: 1
  0
POLYLINE
  8
1
 66
1
 70
1
  0
VERTEX
  8
1
 10
1087.97798500
 20
1745.72142878
  0
VERTEX
  8
1
 10
1110.82387518
 20
1740.55409268
  0
VERTEX
  8
1
 10
1133.69234047
 20
1735.48510065
  0
VERTEX
  8
1
 10
1184.17085609
 20
1724.51683893
  0
VERTEX
  8
1
 10
1234.67427406
 20
1712.93236628
  0
VERTEX
  8
1
 10
1247.44653012
 20
1710.20225296
  0
VERTEX
  8
1
 10
1260.26788717
 20
1707.72875051
  0
VERTEX
  8
1
 10
1273.14644157
 20
1705.64135770
  0
VERTEX
  8
1
 10
1286.09028969
 20
1704.06957331
  0
VERTEX
  8
1
 10
1302.07661781
 20
1702.98302546
  0
VERTEX
  8
1
 10
1318.11177406
 20
1702.79100885
  0
VERTEX
  8
1
 10
1334.12935219
 20
1703.41515436
  0
VERTEX
  8
1
 10
1339.11763344
 20
1703.76720514
  0
VERTEX
  8
1
 10
1352.70930325
 20
1708.09333027
  0
VERTEX
  8
1
 10
1366.16689104
 20
1712.73638931
  0
VERTEX
  8
1
 10
1379.45971331
 20
1717.76591949
  0
VERTEX
  8
1
 10
1392.55708656
 20
1723.25145807
  0
VERTEX
  8
1
 10
1405.28422242
 20
1729.13639800
  0
VERTEX
  8
1
 10
1417.88109399
 20
1735.32928569
  0
VERTEX
  8
1
 10
1430.43778802
 20
1741.62595976
  0
VERTEX
  8
1
 10
1443.04439125
 20
1747.82225885
  0
VERTEX
  8
1
 10
1455.65817737
 20
1753.69959999
  0
VERTEX
  8
1
 10
1468.39521163
 20
1759.29961433
  0
VERTEX
  8
1
 10
1481.24125953
 20
1764.64404420
  0
VERTEX
  8
1
 10
1494.18208656
 20
1769.75463190
  0
VERTEX
  8
1
 10
1507.20130465
 20
1774.64866934
  0
VERTEX
  8
1
 10
1520.29669474
 20
1779.33413916
  0
VERTEX
  8
1
 10
1533.46393114
 20
1783.81445008
  0
VERTEX
  8
1
 10
1546.69868813
 20
1788.09301081
  0
VERTEX
  8
1
 10
1559.26642724
 20
1791.95306979
  0
VERTEX
  8
1
 10
1571.88883297
 20
1795.62936836
  0
VERTEX
  8
1
 10
1584.56411549
 20
1799.11533850
  0
VERTEX
  8
1
 10
1597.29048500
 20
1802.40441217
  0
VERTEX
  8
1
 10
1610.09842609
 20
1805.50913778
  0
VERTEX
  8
1
 10
1622.94129704
 20
1808.46928733
  0
VERTEX
  8
1
 10
1648.67329750
 20
1814.19579401
  0
VERTEX
  8
1
 10
1696.17232094
 20
1824.80687799
  0
VERTEX
  8
1
 10
1715.68013344
 20
1778.53795710
  0
VERTEX
  8
1
 10
1699.20989323
 20
1774.82018563
  0
VERTEX
  8
1
 10
1682.76544401
 20
1770.99845685
  0
VERTEX
  8
1
 10
1666.34938442
 20
1767.06552726
  0
VERTEX
  8
1
 10
1649.96431313
 20
1763.01415339
  0
VERTEX
  8
1
 10
1632.15065249
 20
1758.46303322
  0
VERTEX
  8
1
 10
1614.36785355
 20
1753.78783160
  0
VERTEX
  8
1
 10
1578.85884438
 20
1744.16552057
  0
VERTEX
  8
1
 10
1561.07057716
 20
1739.22586324
  0
VERTEX
  8
1
 10
1543.33940647
 20
1734.09653097
  0
VERTEX
  8
1
 10
1525.71854067
 20
1728.63697793
  0
VERTEX
  8
1
 10
1508.26118813
 20
1722.70665827
  0
VERTEX
  8
1
 10
1490.98107258
 20
1716.18219291
  0
VERTEX
  8
1
 10
1473.91885018
 20
1709.07997386
  0
VERTEX
  8
1
 10
1457.07491590
 20
1701.43575033
  0
VERTEX
  8
1
 10
1440.44966469
 20
1693.28527155
  0
VERTEX
  8
1
 10
1424.02593540
 20
1684.63049891
  0
VERTEX
  8
1
 10
1407.90771774
 20
1675.44001958
  0
VERTEX
  8
1
 10
1392.18059074
 20
1665.65046824
  0
VERTEX
  8
1
 10
1376.93013344
 20
1655.19847956
  0
VERTEX
  8
1
 10
1362.82643364
 20
1644.51576911
  0
VERTEX
  8
1
 10
1349.21240694
 20
1633.18632205
  0
VERTEX
  8
1
 10
1336.06149154
 20
1621.22980555
  0
VERTEX
  8
1
 10
1323.34712563
 20
1608.66588678
  0
VERTEX
  8
1
 10
1286.78950844
 20
1619.85411921
  0
VERTEX
  8
1
 10
1135.46236000
 20
1666.32189264
  0
VERTEX
  8
1
 10
1072.48335609
 20
1702.44908991
  0
SEQEND
  0
POLYLINE
  8
84
 66
1
 70
1
  0
VERTEX
  8
84
 10
1087.97798500
 20
1745.72142878
  0
VERTEX
  8
84
 10
1110.82387518
 20
1740.55409268
  0
VERTEX
  8
84
 10
1133.69234047
 20
1735.48510065
  0
VERTEX
  8
84
 10
1184.17085609
 20
1724.51683893
  0
VERTEX
  8
84
 10
1234.67427406
 20
1712.93236628
  0
VERTEX
  8
84
 10
1247.44653012
 20
1710.20225296
  0
VERTEX
  8
84
 10
1260.26788717
 20
1707.72875051
  0
VERTEX
  8
84
 10
1273.14644157
 20
1705.64135770
  0
VERTEX
  8
84
 10
1286.09028969
 20
1704.06957331
  0
VERTEX
  8
84
 10
1302.07661781
 20
1702.98302546
  0
VERTEX
  8
84
 10
1318.11177406
 20
1702.79100885
  0
VERTEX
  8
84
 10
1334.12935219
 20
1703.41515436
  0
VERTEX
  8
84
 10
1339.11763344
 20
1703.76720514
  0
VERTEX
  8
84
 10
1352.70930325
 20
1708.09333027
  0
VERTEX
  8
84
 10
1366.16689104
 20
1712.73638931
  0
VERTEX
  8
84
 10
1379.45971331
 20
1717.76591949
  0
VERTEX
  8
84
 10
1392.55708656
 20
1723.25145807
  0
VERTEX
  8
84
 10
1405.28422242
 20
1729.13639800
  0
VERTEX
  8
84
 10
1417.88109399
 20
1735.32928569
  0
VERTEX
  8
84
 10
1430.43778802
 20
1741.62595976
  0
VERTEX
  8
84
 10
1443.04439125
 20
1747.82225885
  0
VERTEX
  8
84
 10
1455.65817737
 20
1753.69959999
  0
VERTEX
  8
84
 10
1468.39521163
 20
1759.29961433
  0
VERTEX
  8
84
 10
1481.24125953
 20
1764.64404420
  0
VERTEX
  8
84
 10
1494.18208656
 20
1769.75463190
  0
VERTEX
  8
84
 10
1507.20130465
 20
1774.64866934
  0
VERTEX
  8
84
 10
1520.29669474
 20
1779.33413916
  0
VERTEX
  8
84
 10
1533.46393114
 20
1783.81445008
  0
VERTEX
  8
84
 10
1546.69868813
 20
1788.09301081
  0
VERTEX
  8
84
 10
1559.26642724
 20
1791.95306979
  0
VERTEX
  8
84
 10
1571.88883297
 20
1795.62936836
  0
VERTEX
  8
84
 10
1584.56411549
 20
1799.11533850
  0
VERTEX
  8
84
 10
1597.29048500
 20
1802.40441217
  0
VERTEX
  8
84
 10
1610.09842609
 20
1805.50913778
  0
VERTEX
  8
84
 10
1622.94129704
 20
1808.46928733
  0
VERTEX
  8
84
 10
1648.67329750
 20
1814.19579401
  0
VERTEX
  8
84
 10
1696.17232094
 20
1824.80687799
  0
VERTEX
  8
84
 10
1715.68013344
 20
1778.53795710
  0
VERTEX
  8
84
 10
1699.20989323
 20
1774.82018563
  0
VERTEX
  8
84
 10
1682.76544401
 20
1770.99845685
  0
VERTEX
  8
84
 10
1666.34938442
 20
1767.06552726
  0
VERTEX
  8
84
 10
1649.96431313
 20
1763.01415339
  0
VERTEX
  8
84
 10
1632.15065249
 20
1758.46303322
  0
VERTEX
  8
84
 10
1614.36785355
 20
1753.78783160
  0
VERTEX
  8
84
 10
1578.85884438
 20
1744.16552057
  0
VERTEX
  8
84
 10
1561.07057716
 20
1739.22586324
  0
VERTEX
  8
84
 10
1543.33940647
 20
1734.09653097
  0
VERTEX
  8
84
 10
1525.71854067
 20
1728.63697793
  0
VERTEX
  8
84
 10
1508.26118813
 20
1722.70665827
  0
VERTEX
  8
84
 10
1490.98107258
 20
1716.18219291
  0
VERTEX
  8
84
 10
1473.91885018
 20
1709.07997386
  0
VERTEX
  8
84
 10
1457.07491590
 20
1701.43575033
  0
VERTEX
  8
84
 10
1440.44966469
 20
1693.28527155
  0
VERTEX
  8
84
 10
1424.02593540
 20
1684.63049891
  0
VERTEX
  8
84
 10
1407.90771774
 20
1675.44001958
  0
VERTEX
  8
84
 10
1392.18059074
 20
1665.65046824
  0
VERTEX
  8
84
 10
1376.93013344
 20
1655.19847956
  0
VERTEX
  8
84
 10
1362.82643364
 20
1644.51576911
  0
VERTEX
  8
84
 10
1349.21240694
 20
1633.18632205
  0
VERTEX
  8
84
 10
1336.06149154
 20
1621.22980555
  0
VERTEX
  8
84
 10
1323.34712563
 20
1608.66588678
  0
VERTEX
  8
84
 10
1286.78950844
 20
1619.85411921
  0
VERTEX
  8
84
 10
1135.46236000
 20
1666.32189264
  0
VERTEX
  8
84
 10
1072.48335609
 20
1702.44908991
  0
SEQEND
  0
POINT
  8
2
 10
1087.97798500
 20
1745.72142878
  0
TEXT
  8
2
 10
1087.97798500
 20
1745.72142878
 40
10.00000000
 50
0.00000000
  1
# 73
  0
POINT
  8
3
 10
1110.82387518
 20
1740.55409268
  0
POINT
  8
3
 10
1133.69234047
 20
1735.48510065
  0
POINT
  8
3
 10
1184.17085609
 20
1724.51683893
  0
POINT
  8
3
 10
1234.67427406
 20
1712.93236628
  0
POINT
  8
3
 10
1247.44653012
 20
1710.20225296
  0
POINT
  8
3
 10
1260.26788717
 20
1707.72875051
  0
POINT
  8
3
 10
1273.14644157
 20
1705.64135770
  0
POINT
  8
3
 10
1286.09028969
 20
1704.06957331
  0
POINT
  8
3
 10
1302.07661781
 20
1702.98302546
  0
POINT
  8
3
 10
1318.11177406
 20
1702.79100885
  0
POINT
  8
2
 10
1334.12935219
 20
1703.41515436
  0
TEXT
  8
2
 10
1334.12935219
 20
1703.41515436
 40
10.00000000
 50
0.00000000
  1
# 74
  0
POINT
  8
2
 10
1339.11763344
 20
1703.76720514
  0
TEXT
  8
2
 10
1339.11763344
 20
1703.76720514
 40
10.00000000
 50
0.00000000
  1
# 75
  0
POINT
  8
3
 10
1352.70930325
 20
1708.09333027
  0
POINT
  8
3
 10
1366.16689104
 20
1712.73638931
  0
POINT
  8
3
 10
1379.45971331
 20
1717.76591949
  0
POINT
  8
3
 10
1392.55708656
 20
1723.25145807
  0
POINT
  8
3
 10
1405.28422242
 20
1729.13639800
  0
POINT
  8
3
 10
1417.88109399
 20
1735.32928569
  0
POINT
  8
3
 10
1430.43778802
 20
1741.62595976
  0
POINT
  8
3
 10
1443.04439125
 20
1747.82225885
  0
POINT
  8
3
 10
1455.65817737
 20
1753.69959999
  0
POINT
  8
3
 10
1468.39521163
 20
1759.29961433
  0
POINT
  8
3
 10
1481.24125953
 20
1764.64404420
  0
POINT
  8
3
 10
1494.18208656
 20
1769.75463190
  0
POINT
  8
3
 10
1507.20130465
 20
1774.64866934
  0
POINT
  8
3
 10
1520.29669474
 20
1779.33413916
  0
POINT
  8
3
 10
1533.46393114
 20
1783.81445008
  0
POINT
  8
3
 10
1546.69868813
 20
1788.09301081
  0
POINT
  8
3
 10
1559.26642724
 20
1791.95306979
  0
POINT
  8
3
 10
1571.88883297
 20
1795.62936836
  0
POINT
  8
3
 10
1584.56411549
 20
1799.11533850
  0
POINT
  8
3
 10
1597.29048500
 20
1802.40441217
  0
POINT
  8
3
 10
1610.09842609
 20
1805.50913778
  0
POINT
  8
3
 10
1622.94129704
 20
1808.46928733
  0
POINT
  8
3
 10
1648.67329750
 20
1814.19579401
  0
POINT
  8
2
 10
1696.17232094
 20
1824.80687799
  0
TEXT
  8
2
 10
1696.17232094
 20
1824.80687799
 40
10.00000000
 50
0.00000000
  1
# 76
  0
POINT
  8
2
 10
1715.68013344
 20
1778.53795710
  0
TEXT
  8
2
 10
1715.68013344
 20
1778.53795710
 40
10.00000000
 50
0.00000000
  1
# 77
  0
POINT
  8
3
 10
1699.20989323
 20
1774.82018563
  0
POINT
  8
3
 10
1682.76544401
 20
1770.99845685
  0
POINT
  8
3
 10
1666.34938442
 20
1767.06552726
  0
POINT
  8
3
 10
1649.96431313
 20
1763.01415339
  0
POINT
  8
3
 10
1632.15065249
 20
1758.46303322
  0
POINT
  8
3
 10
1614.36785355
 20
1753.78783160
  0
POINT
  8
3
 10
1578.85884438
 20
1744.16552057
  0
POINT
  8
3
 10
1561.07057716
 20
1739.22586324
  0
POINT
  8
3
 10
1543.33940647
 20
1734.09653097
  0
POINT
  8
3
 10
1525.71854067
 20
1728.63697793
  0
POINT
  8
3
 10
1508.26118813
 20
1722.70665827
  0
POINT
  8
3
 10
1490.98107258
 20
1716.18219291
  0
POINT
  8
3
 10
1473.91885018
 20
1709.07997386
  0
POINT
  8
3
 10
1457.07491590
 20
1701.43575033
  0
POINT
  8
3
 10
1440.44966469
 20
1693.28527155
  0
POINT
  8
3
 10
1424.02593540
 20
1684.63049891
  0
POINT
  8
3
 10
1407.90771774
 20
1675.44001958
  0
POINT
  8
3
 10
1392.18059074
 20
1665.65046824
  0
POINT
  8
3
 10
1376.93013344
 20
1655.19847956
  0
POINT
  8
3
 10
1362.82643364
 20
1644.51576911
  0
POINT
  8
3
 10
1349.21240694
 20
1633.18632205
  0
POINT
  8
3
 10
1336.06149154
 20
1621.22980555
  0
POINT
  8
2
 10
1323.34712563
 20
1608.66588678
  0
TEXT
  8
2
 10
1323.34712563
 20
1608.66588678
 40
10.00000000
 50
0.00000000
  1
# 78
  0
POINT
  8
2
 10
1286.78950844
 20
1619.85411921
  0
TEXT
  8
2
 10
1286.78950844
 20
1619.85411921
 40
10.00000000
 50
0.00000000
  1
# 79
  0
POINT
  8
2
 10
1135.46236000
 20
1666.32189264
  0
TEXT
  8
2
 10
1135.46236000
 20
1666.32189264
 40
10.00000000
 50
0.00000000
  1
# 80
  0
POINT
  8
2
 10
1072.48335609
 20
1702.44908991
  0
TEXT
  8
2
 10
1072.48335609
 20
1702.44908991
 40
10.00000000
 50
0.00000000
  1
# 81
  0
ENDBLK
  0
BLOCK
  8
1
  2
7
 70
64
 10
0.0
 20
0.0
  0
LINE
  8
7
 10
107.89602895
 20
1843.59802418
 11
208.17410512
 21
1843.59802418
  0
TEXT
  8
1
 10
0.00000000
 20
0.00000000
 40
20.00000000
 50
0.00000000
  1
Size: 46
  0
TEXT
  8
1
 10
158.03506703
 20
1851.09802418
 40
10.00000000
 50
0.00000000
  1
Piece Name: AFERIA.TE
  0
TEXT
  8
1
 10
158.03506703
 20
1851.09802418
 40
10.00000000
 50
0.00000000
  1
Quantity: 1
  0
TEXT
  8
1
 10
158.03506703
 20
1851.09802418
 40
10.00000000
 50
0.00000000
  1
Rotation: 0
  0
TEXT
  8
1
 10
158.03506703
 20
1851.09802418
 40
10.00000000
 50
0.00000000
  1
Tilt: 0
  0
TEXT
  8
1
 10
158.03506703
 20
1851.09802418
 40
10.00000000
 50
0.00000000
  1
Fold: N
  0
TEXT
  8
1
 10
158.03506703
 20
1851.09802418
 40
10.00000000
 50
0.00000000
  1
Material: 1
  0
POLYLINE
  8
1
 66
1
 70
1
  0
VERTEX
  8
1
 10
252.99211426
 20
1827.44774342
  0
VERTEX
  8
1
 10
60.22600098
 20
1819.79735279
  0
VERTEX
  8
1
 10
59.99650879
 20
1844.44994068
  0
VERTEX
  8
1
 10
59.83342285
 20
1865.73692799
  0
VERTEX
  8
1
 10
259.22062988
 20
1872.68773365
  0
VERTEX
  8
1
 10
260.38957520
 20
1866.43175220
  0
SEQEND
  0
POLYLINE
  8
84
 66
1
 70
1
  0
VERTEX
  8
84
 10
252.99211426
 20
1827.44774342
  0
VERTEX
  8
84
 10
60.22600098
 20
1819.79735279
  0
VERTEX
  8
84
 10
59.99650879
 20
1844.44994068
  0
VERTEX
  8
84
 10
59.83342285
 20
1865.73692799
  0
VERTEX
  8
84
 10
259.22062988
 20
1872.68773365
  0
VERTEX
  8
84
 10
260.38957520
 20
1866.43175220
  0
SEQEND
  0
POINT
  8
2
 10
252.99211426
 20
1827.44774342
  0
TEXT
  8
2
 10
252.99211426
 20
1827.44774342
 40
10.00000000
 50
0.00000000
  1
# 82
  0
POINT
  8
2
 10
60.22600098
 20
1819.79735279
  0
TEXT
  8
2
 10
60.22600098
 20
1819.79735279
 40
10.00000000
 50
0.00000000
  1
# 83
  0
POINT
  8
2
 10
59.99650879
 20
1844.44994068
  0
TEXT
  8
2
 10
59.99650879
 20
1844.44994068
 40
10.00000000
 50
0.00000000
  1
# 84
  0
POINT
  8
2
 10
59.83342285
 20
1865.73692799
  0
TEXT
  8
2
 10
59.83342285
 20
1865.73692799
 40
10.00000000
 50
0.00000000
  1
# 85
  0
POINT
  8
2
 10
259.22062988
 20
1872.68773365
  0
TEXT
  8
2
 10
259.22062988
 20
1872.68773365
 40
10.00000000
 50
0.00000000
  1
# 86
  0
POINT
  8
2
 10
260.38957520
 20
1866.43175220
  0
TEXT
  8
2
 10
260.38957520
 20
1866.43175220
 40
10.00000000
 50
0.00000000
  1
# 87
  0
ENDBLK
  0
BLOCK
  8
1
  2
8
 70
64
 10
0.0
 20
0.0
  0
LINE
  8
7
 10
63.25162720
 20
1622.07649097
 11
138.25080322
 21
1622.07649097
  0
TEXT
  8
1
 10
0.00000000
 20
0.00000000
 40
10.00000000
 50
0.00000000
  1
Size: 46
  0
TEXT
  8
1
 10
100.75121521
 20
1625.82649097
 40
5.00000000
 50
0.00000000
  1
Piece Name: AFERIA.VG
  0
TEXT
  8
1
 10
100.75121521
 20
1625.82649097
 40
5.00000000
 50
0.00000000
  1
Quantity: 1
  0
TEXT
  8
1
 10
100.75121521
 20
1625.82649097
 40
5.00000000
 50
0.00000000
  1
Rotation: 0
  0
TEXT
  8
1
 10
100.75121521
 20
1625.82649097
 40
5.00000000
 50
0.00000000
  1
Tilt: 0
  0
TEXT
  8
1
 10
100.75121521
 20
1625.82649097
 40
5.00000000
 50
0.00000000
  1
Fold: N
  0
TEXT
  8
1
 10
100.75121521
 20
1625.82649097
 40
5.00000000
 50
0.00000000
  1
Material: 1
  0
POLYLINE
  8
1
 66
1
 70
1
  0
VERTEX
  8
1
 10
25.74975281
 20
1638.33253345
  0
VERTEX
  8
1
 10
175.74810486
 20
1638.33253345
  0
VERTEX
  8
1
 10
175.74810486
 20
1573.30836353
  0
VERTEX
  8
1
 10
25.74975281
 20
1573.30836353
  0
SEQEND
  0
POLYLINE
  8
84
 66
1
 70
1
  0
VERTEX
  8
84
 10
25.74975281
 20
1638.33253345
  0
VERTEX
  8
84
 10
175.74810486
 20
1638.33253345
  0
VERTEX
  8
84
 10
175.74810486
 20
1573.30836353
  0
VERTEX
  8
84
 10
25.74975281
 20
1573.30836353
  0
SEQEND
  0
POINT
  8
2
 10
25.74975281
 20
1638.33253345
  0
TEXT
  8
2
 10
25.74975281
 20
1638.33253345
 40
10.00000000
 50
0.00000000
  1
# 88
  0
POINT
  8
2
 10
175.74810486
 20
1638.33253345
  0
TEXT
  8
2
 10
175.74810486
 20
1638.33253345
 40
10.00000000
 50
0.00000000
  1
# 89
  0
POINT
  8
2
 10
175.74810486
 20
1573.30836353
  0
TEXT
  8
2
 10
175.74810486
 20
1573.30836353
 40
10.00000000
 50
0.00000000
  1
# 90
  0
POINT
  8
2
 10
25.74975281
 20
1573.30836353
  0
TEXT
  8
2
 10
25.74975281
 20
1573.30836353
 40
10.00000000
 50
0.00000000
  1
# 91
  0
ENDBLK
  0
BLOCK
  8
1
  2
9
 70
64
 10
0.0
 20
0.0
  0
LINE
  8
7
 10
2108.77314921
 20
1212.35543823
 11
2175.43391581
 21
1212.35543823
  0
TEXT
  8
1
 10
0.00000000
 20
0.00000000
 40
5.00000000
 50
0.00000000
  1
Size: 46
  0
TEXT
  8
1
 10
2142.10353251
 20
1216.10543823
 40
5.00000000
 50
0.00000000
  1
Piece Name: AFERIA.GOC
  0
TEXT
  8
1
 10
2142.10353251
 20
1216.10543823
 40
5.00000000
 50
0.00000000
  1
Quantity: 1
  0
TEXT
  8
1
 10
2142.10353251
 20
1216.10543823
 40
5.00000000
 50
0.00000000
  1
Rotation: 0
  0
TEXT
  8
1
 10
2142.10353251
 20
1216.10543823
 40
5.00000000
 50
0.00000000
  1
Tilt: 0
  0
TEXT
  8
1
 10
2142.10353251
 20
1216.10543823
 40
5.00000000
 50
0.00000000
  1
Fold: N
  0
TEXT
  8
1
 10
2142.10353251
 20
1216.10543823
 40
5.00000000
 50
0.00000000
  1
Material: 1
  0
POLYLINE
  8
1
 66
1
 70
1
  0
VERTEX
  8
1
 10
2212.12296877
 20
1216.54866333
  0
VERTEX
  8
1
 10
2194.06806765
 20
1205.67299194
  0
VERTEX
  8
1
 10
2172.62769489
 20
1193.26570663
  0
VERTEX
  8
1
 10
2151.07984743
 20
1181.04176636
  0
VERTEX
  8
1
 10
2128.43369875
 20
1168.13502808
  0
VERTEX
  8
1
 10
2118.52265749
 20
1161.98048706
  0
VERTEX
  8
1
 10
2080.37013063
 20
1190.98561401
  0
VERTEX
  8
1
 10
2084.98826418
 20
1201.42042847
  0
VERTEX
  8
1
 10
2108.21903811
 20
1255.18153687
  0
VERTEX
  8
1
 10
2143.41419802
 20
1261.22416992
  0
VERTEX
  8
1
 10
2161.02590365
 20
1264.16438832
  0
VERTEX
  8
1
 10
2178.62190065
 20
1267.19099731
  0
VERTEX
  8
1
 10
2196.17600045
 20
1270.45151546
  0
VERTEX
  8
1
 10
2213.69166384
 20
1273.92482300
  0
SEQEND
  0
POLYLINE
  8
84
 66
1
 70
1
  0
VERTEX
  8
84
 10
2212.12296877
 20
1216.54866333
  0
VERTEX
  8
84
 10
2194.06806765
 20
1205.67299194
  0
VERTEX
  8
84
 10
2172.62769489
 20
1193.26570663
  0
VERTEX
  8
84
 10
2151.07984743
 20
1181.04176636
  0
VERTEX
  8
84
 10
2128.43369875
 20
1168.13502808
  0
VERTEX
  8
84
 10
2118.52265749
 20
1161.98048706
  0
VERTEX
  8
84
 10
2080.37013063
 20
1190.98561401
  0
VERTEX
  8
84
 10
2084.98826418
 20
1201.42042847
  0
VERTEX
  8
84
 10
2108.21903811
 20
1255.18153687
  0
VERTEX
  8
84
 10
2143.41419802
 20
1261.22416992
  0
VERTEX
  8
84
 10
2161.02590365
 20
1264.16438832
  0
VERTEX
  8
84
 10
2178.62190065
 20
1267.19099731
  0
VERTEX
  8
84
 10
2196.17600045
 20
1270.45151546
  0
VERTEX
  8
84
 10
2213.69166384
 20
1273.92482300
  0
SEQEND
  0
POINT
  8
2
 10
2212.12296877
 20
1216.54866333
  0
TEXT
  8
2
 10
2212.12296877
 20
1216.54866333
 40
10.00000000
 50
0.00000000
  1
# 92
  0
POINT
  8
3
 10
2194.06806765
 20
1205.67299194
  0
POINT
  8
3
 10
2172.62769489
 20
1193.26570663
  0
POINT
  8
3
 10
2151.07984743
 20
1181.04176636
  0
POINT
  8
2
 10
2128.43369875
 20
1168.13502808
  0
TEXT
  8
2
 10
2128.43369875
 20
1168.13502808
 40
10.00000000
 50
0.00000000
  1
# 93
  0
POINT
  8
2
 10
2118.52265749
 20
1161.98048706
  0
TEXT
  8
2
 10
2118.52265749
 20
1161.98048706
 40
10.00000000
 50
0.00000000
  1
# 94
  0
POINT
  8
2
 10
2080.37013063
 20
1190.98561401
  0
TEXT
  8
2
 10
2080.37013063
 20
1190.98561401
 40
10.00000000
 50
0.00000000
  1
# 95
  0
POINT
  8
2
 10
2084.98826418
 20
1201.42042847
  0
TEXT
  8
2
 10
2084.98826418
 20
1201.42042847
 40
10.00000000
 50
0.00000000
  1
# 96
  0
POINT
  8
2
 10
2108.21903811
 20
1255.18153687
  0
TEXT
  8
2
 10
2108.21903811
 20
1255.18153687
 40
10.00000000
 50
0.00000000
  1
# 97
  0
POINT
  8
3
 10
2143.41419802
 20
1261.22416992
  0
POINT
  8
3
 10
2161.02590365
 20
1264.16438832
  0
POINT
  8
3
 10
2178.62190065
 20
1267.19099731
  0
POINT
  8
3
 10
2196.17600045
 20
1270.45151546
  0
POINT
  8
2
 10
2213.69166384
 20
1273.92482300
  0
TEXT
  8
2
 10
2213.69166384
 20
1273.92482300
 40
10.00000000
 50
0.00000000
  1
# 98
  0
POINT
  8
4
 10
2128.43369875
 20
1168.13502808
 30
3.68151090
 50
146.48725279
  0
TEXT
  8
1
 10
2128.43369875
 20
1168.13502808
 40
10.00000000
 50
0.00000000
  1
# 99
  0
POINT
  8
4
 10
2084.98826418
 20
1201.42042847
 30
4.63729117
 50
323.10757254
  0
TEXT
  8
1
 10
2084.98826418
 20
1201.42042847
 40
10.00000000
 50
0.00000000
  1
# 100
  0
ENDBLK
  0
BLOCK
  8
1
  2
10
 70
64
 10
0.0
 20
0.0
  0
LINE
  8
7
 10
270.25836103
 20
1717.07346363
 11
333.29022139
 21
1717.07346363
  0
TEXT
  8
1
 10
0.00000000
 20
0.00000000
 40
5.00000000
 50
0.00000000
  1
Size: 46
  0
TEXT
  8
1
 10
301.77429121
 20
1720.82346363
 40
5.00000000
 50
0.00000000
  1
Piece Name: AFERIA.GOE
  0
TEXT
  8
1
 10
301.77429121
 20
1720.82346363
 40
5.00000000
 50
0.00000000
  1
Quantity: 1
  0
TEXT
  8
1
 10
301.77429121
 20
1720.82346363
 40
5.00000000
 50
0.00000000
  1
Rotation: 0
  0
TEXT
  8
1
 10
301.77429121
 20
1720.82346363
 40
5.00000000
 50
0.00000000
  1
Tilt: 0
  0
TEXT
  8
1
 10
301.77429121
 20
1720.82346363
 40
5.00000000
 50
0.00000000
  1
Fold: N
  0
TEXT
  8
1
 10
301.77429121
 20
1720.82346363
 40
5.00000000
 50
0.00000000
  1
Material: 1
  0
POLYLINE
  8
1
 66
1
 70
1
  0
VERTEX
  8
1
 10
368.54895506
 20
1722.73331470
  0
VERTEX
  8
1
 10
352.02374754
 20
1712.77912159
  0
VERTEX
  8
1
 10
330.60176330
 20
1700.37865519
  0
VERTEX
  8
1
 10
309.06903563
 20
1688.16709156
  0
VERTEX
  8
1
 10
286.37177000
 20
1675.23111744
  0
VERTEX
  8
1
 10
278.28271971
 20
1670.20798512
  0
VERTEX
  8
1
 10
243.89655027
 20
1696.34973927
  0
VERTEX
  8
1
 10
247.49707518
 20
1704.48520679
  0
VERTEX
  8
1
 10
270.04584227
 20
1756.66797657
  0
VERTEX
  8
1
 10
303.53259764
 20
1762.41727467
  0
VERTEX
  8
1
 10
321.15834185
 20
1765.35838606
  0
VERTEX
  8
1
 10
338.76788816
 20
1768.38880177
  0
VERTEX
  8
1
 10
354.37966339
 20
1771.28468433
  0
VERTEX
  8
1
 10
369.96027098
 20
1774.35349293
  0
SEQEND
  0
POLYLINE
  8
84
 66
1
 70
1
  0
VERTEX
  8
84
 10
368.54895506
 20
1722.73331470
  0
VERTEX
  8
84
 10
352.02374754
 20
1712.77912159
  0
VERTEX
  8
84
 10
330.60176330
 20
1700.37865519
  0
VERTEX
  8
84
 10
309.06903563
 20
1688.16709156
  0
VERTEX
  8
84
 10
286.37177000
 20
1675.23111744
  0
VERTEX
  8
84
 10
278.28271971
 20
1670.20798512
  0
VERTEX
  8
84
 10
243.89655027
 20
1696.34973927
  0
VERTEX
  8
84
 10
247.49707518
 20
1704.48520679
  0
VERTEX
  8
84
 10
270.04584227
 20
1756.66797657
  0
VERTEX
  8
84
 10
303.53259764
 20
1762.41727467
  0
VERTEX
  8
84
 10
321.15834185
 20
1765.35838606
  0
VERTEX
  8
84
 10
338.76788816
 20
1768.38880177
  0
VERTEX
  8
84
 10
354.37966339
 20
1771.28468433
  0
VERTEX
  8
84
 10
369.96027098
 20
1774.35349293
  0
SEQEND
  0
POINT
  8
2
 10
368.54895506
 20
1722.73331470
  0
TEXT
  8
2
 10
368.54895506
 20
1722.73331470
 40
10.00000000
 50
0.00000000
  1
# 101
  0
POINT
  8
3
 10
352.02374754
 20
1712.77912159
  0
POINT
  8
3
 10
330.60176330
 20
1700.37865519
  0
POINT
  8
3
 10
309.06903563
 20
1688.16709156
  0
POINT
  8
2
 10
286.37177000
 20
1675.23111744
  0
TEXT
  8
2
 10
286.37177000
 20
1675.23111744
 40
10.00000000
 50
0.00000000
  1
# 102
  0
POINT
  8
2
 10
278.28271971
 20
1670.20798512
  0
TEXT
  8
2
 10
278.28271971
 20
1670.20798512
 40
10.00000000
 50
0.00000000
  1
# 103
  0
POINT
  8
2
 10
243.89655027
 20
1696.34973927
  0
TEXT
  8
2
 10
243.89655027
 20
1696.34973927
 40
10.00000000
 50
0.00000000
  1
# 104
  0
POINT
  8
2
 10
247.49707518
 20
1704.48520679
  0
TEXT
  8
2
 10
247.49707518
 20
1704.48520679
 40
10.00000000
 50
0.00000000
  1
# 105
  0
POINT
  8
2
 10
270.04584227
 20
1756.66797657
  0
TEXT
  8
2
 10
270.04584227
 20
1756.66797657
 40
10.00000000
 50
0.00000000
  1
# 106
  0
POINT
  8
3
 10
303.53259764
 20
1762.41727467
  0
POINT
  8
3
 10
321.15834185
 20
1765.35838606
  0
POINT
  8
3
 10
338.76788816
 20
1768.38880177
  0
POINT
  8
3
 10
354.37966339
 20
1771.28468433
  0
POINT
  8
2
 10
369.96027098
 20
1774.35349293
  0
TEXT
  8
2
 10
369.96027098
 20
1774.35349293
 40
10.00000000
 50
0.00000000
  1
# 107
  0
ENDBLK
  0
BLOCK
  8
1
  2
11
 70
64
 10
0.0
 20
0.0
  0
LINE
  8
7
 10
55.88421793
 20
1722.75276051
 11
122.54498453
 21
1722.75276051
  0
TEXT
  8
1
 10
0.00000000
 20
0.00000000
 40
5.00000000
 50
0.00000000
  1
Size: 46
  0
TEXT
  8
1
 10
89.21460123
 20
1726.50276051
 40
5.00000000
 50
0.00000000
  1
Piece Name: AFERIA.GOF
  0
TEXT
  8
1
 10
89.21460123
 20
1726.50276051
 40
5.00000000
 50
0.00000000
  1
Quantity: 1
  0
TEXT
  8
1
 10
89.21460123
 20
1726.50276051
 40
5.00000000
 50
0.00000000
  1
Rotation: 0
  0
TEXT
  8
1
 10
89.21460123
 20
1726.50276051
 40
5.00000000
 50
0.00000000
  1
Tilt: 0
  0
TEXT
  8
1
 10
89.21460123
 20
1726.50276051
 40
5.00000000
 50
0.00000000
  1
Fold: N
  0
TEXT
  8
1
 10
89.21460123
 20
1726.50276051
 40
5.00000000
 50
0.00000000
  1
Material: 1
  0
POLYLINE
  8
1
 66
1
 70
1
  0
VERTEX
  8
1
 10
159.23403749
 20
1726.94598560
  0
VERTEX
  8
1
 10
141.17910585
 20
1716.07031422
  0
VERTEX
  8
1
 10
119.73869536
 20
1703.66304141
  0
VERTEX
  8
1
 10
98.19082460
 20
1691.43908863
  0
VERTEX
  8
1
 10
75.54482851
 20
1678.53235035
  0
VERTEX
  8
1
 10
65.63369570
 20
1672.37780933
  0
VERTEX
  8
1
 10
27.48122988
 20
1701.38293629
  0
VERTEX
  8
1
 10
32.09927187
 20
1711.81775074
  0
VERTEX
  8
1
 10
55.33010683
 20
1765.57885914
  0
VERTEX
  8
1
 10
90.52529726
 20
1771.62149220
  0
VERTEX
  8
1
 10
108.13697227
 20
1774.56171113
  0
VERTEX
  8
1
 10
125.73293886
 20
1777.58831959
  0
VERTEX
  8
1
 10
143.28706867
 20
1780.84884052
  0
VERTEX
  8
1
 10
160.80276308
 20
1784.32214527
  0
SEQEND
  0
POLYLINE
  8
84
 66
1
 70
1
  0
VERTEX
  8
84
 10
159.23403749
 20
1726.94598560
  0
VERTEX
  8
84
 10
141.17910585
 20
1716.07031422
  0
VERTEX
  8
84
 10
119.73869536
 20
1703.66304141
  0
VERTEX
  8
84
 10
98.19082460
 20
1691.43908863
  0
VERTEX
  8
84
 10
75.54482851
 20
1678.53235035
  0
VERTEX
  8
84
 10
65.63369570
 20
1672.37780933
  0
VERTEX
  8
84
 10
27.48122988
 20
1701.38293629
  0
VERTEX
  8
84
 10
32.09927187
 20
1711.81775074
  0
VERTEX
  8
84
 10
55.33010683
 20
1765.57885914
  0
VERTEX
  8
84
 10
90.52529726
 20
1771.62149220
  0
VERTEX
  8
84
 10
108.13697227
 20
1774.56171113
  0
VERTEX
  8
84
 10
125.73293886
 20
1777.58831959
  0
VERTEX
  8
84
 10
143.28706867
 20
1780.84884052
  0
VERTEX
  8
84
 10
160.80276308
 20
1784.32214527
  0
SEQEND
  0
POINT
  8
2
 10
159.23403749
 20
1726.94598560
  0
TEXT
  8
2
 10
159.23403749
 20
1726.94598560
 40
10.00000000
 50
0.00000000
  1
# 108
  0
POINT
  8
3
 10
141.17910585
 20
1716.07031422
  0
POINT
  8
3
 10
119.73869536
 20
1703.66304141
  0
POINT
  8
3
 10
98.19082460
 20
1691.43908863
  0
POINT
  8
2
 10
75.54482851
 20
1678.53235035
  0
TEXT
  8
2
 10
75.54482851
 20
1678.53235035
 40
10.00000000
 50
0.00000000
  1
# 109
  0
POINT
  8
2
 10
65.63369570
 20
1672.37780933
  0
TEXT
  8
2
 10
65.63369570
 20
1672.37780933
 40
10.00000000
 50
0.00000000
  1
# 110
  0
POINT
  8
2
 10
27.48122988
 20
1701.38293629
  0
TEXT
  8
2
 10
27.48122988
 20
1701.38293629
 40
10.00000000
 50
0.00000000
  1
# 111
  0
POINT
  8
2
 10
32.09927187
 20
1711.81775074
  0
TEXT
  8
2
 10
32.09927187
 20
1711.81775074
 40
10.00000000
 50
0.00000000
  1
# 112
  0
POINT
  8
2
 10
55.33010683
 20
1765.57885914
  0
TEXT
  8
2
 10
55.33010683
 20
1765.57885914
 40
10.00000000
 50
0.00000000
  1
# 113
  0
POINT
  8
3
 10
90.52529726
 20
1771.62149220
  0
POINT
  8
3
 10
108.13697227
 20
1774.56171113
  0
POINT
  8
3
 10
125.73293886
 20
1777.58831959
  0
POINT
  8
3
 10
143.28706867
 20
1780.84884052
  0
POINT
  8
2
 10
160.80276308
 20
1784.32214527
  0
TEXT
  8
2
 10
160.80276308
 20
1784.32214527
 40
10.00000000
 50
0.00000000
  1
# 114
  0
POINT
  8
4
 10
75.54482851
 20
1678.53235035
 30
3.68151090
 50
146.48725279
  0
TEXT
  8
1
 10
75.54482851
 20
1678.53235035
 40
10.00000000
 50
0.00000000
  1
# 115
  0
POINT
  8
4
 10
32.09927187
 20
1711.81775074
 30
4.63729117
 50
323.10757254
  0
TEXT
  8
1
 10
32.09927187
 20
1711.81775074
 40
10.00000000
 50
0.00000000
  1
# 116
  0
ENDBLK
  0
BLOCK
  8
1
  2
12
 70
64
 10
0.0
 20
0.0
  0
LINE
  8
7
 10
2416.84407010
 20
1298.71856079
 11
2586.86799589
 21
1298.71856079
  0
TEXT
  8
1
 10
0.00000000
 20
0.00000000
 40
5.00000000
 50
0.00000000
  1
Size: 46
  0
TEXT
  8
1
 10
2501.85603299
 20
1306.21856079
 40
10.00000000
 50
0.00000000
  1
Piece Name: AFERIA.P2C
  0
TEXT
  8
1
 10
2501.85603299
 20
1306.21856079
 40
10.00000000
 50
0.00000000
  1
Quantity: 1
  0
TEXT
  8
1
 10
2501.85603299
 20
1306.21856079
 40
10.00000000
 50
0.00000000
  1
Rotation: 0
  0
TEXT
  8
1
 10
2501.85603299
 20
1306.21856079
 40
10.00000000
 50
0.00000000
  1
Tilt: 0
  0
TEXT
  8
1
 10
2501.85603299
 20
1306.21856079
 40
10.00000000
 50
0.00000000
  1
Fold: N
  0
TEXT
  8
1
 10
2501.85603299
 20
1306.21856079
 40
10.00000000
 50
0.00000000
  1
Material: 1
  0
POLYLINE
  8
1
 66
1
 70
1
  0
VERTEX
  8
1
 10
2634.84840269
 20
1185.25876770
  0
VERTEX
  8
1
 10
2622.80940693
 20
1188.67359269
  0
VERTEX
  8
1
 10
2610.85346544
 20
1192.31793989
  0
VERTEX
  8
1
 10
2587.17799253
 20
1200.28513489
  0
VERTEX
  8
1
 10
2575.44725608
 20
1204.60726439
  0
VERTEX
  8
1
 10
2563.79967088
 20
1209.15918786
  0
VERTEX
  8
1
 10
2552.24481095
 20
1213.94846228
  0
VERTEX
  8
1
 10
2540.79225035
 20
1218.98264465
  0
VERTEX
  8
1
 10
2518.27221562
 20
1229.82970837
  0
VERTEX
  8
1
 10
2496.38844175
 20
1241.89170227
  0
VERTEX
  8
1
 10
2483.26325985
 20
1250.02374043
  0
VERTEX
  8
1
 10
2470.45077388
 20
1258.65064928
  0
VERTEX
  8
1
 10
2457.94855252
 20
1267.72474477
  0
VERTEX
  8
1
 10
2445.75416441
 20
1277.19834290
  0
VERTEX
  8
1
 10
2442.80787535
 20
1279.58054504
  0
VERTEX
  8
1
 10
2430.66759555
 20
1289.84529232
  0
VERTEX
  8
1
 10
2418.86110771
 20
1300.48514353
  0
VERTEX
  8
1
 10
2407.30534744
 20
1311.44640766
  0
VERTEX
  8
1
 10
2395.91725035
 20
1322.67539368
  0
VERTEX
  8
1
 10
2384.70949102
 20
1334.12416800
  0
VERTEX
  8
1
 10
2373.91734284
 20
1345.93119694
  0
VERTEX
  8
1
 10
2363.87221872
 20
1358.24171768
  0
VERTEX
  8
1
 10
2354.90553160
 20
1371.20096741
  0
VERTEX
  8
1
 10
2347.28602972
 20
1384.89957266
  0
VERTEX
  8
1
 10
2340.96173873
 20
1399.34134803
  0
VERTEX
  8
1
 10
2335.82247894
 20
1414.47800877
  0
VERTEX
  8
1
 10
2331.75807066
 20
1430.26127014
  0
VERTEX
  8
1
 10
2356.83717222
 20
1437.39164124
  0
VERTEX
  8
1
 10
2367.61829475
 20
1426.80363694
  0
VERTEX
  8
1
 10
2378.68831855
 20
1416.58459681
  0
VERTEX
  8
1
 10
2390.05005435
 20
1406.72842948
  0
VERTEX
  8
1
 10
2401.70631285
 20
1397.22904358
  0
VERTEX
  8
1
 10
2413.42357125
 20
1388.25828145
  0
VERTEX
  8
1
 10
2425.41858690
 20
1379.64243511
  0
VERTEX
  8
1
 10
2437.68319794
 20
1371.39919294
  0
VERTEX
  8
1
 10
2450.20924253
 20
1363.54624329
  0
VERTEX
  8
1
 10
2464.14120254
 20
1355.46124685
  0
VERTEX
  8
1
 10
2478.36354626
 20
1347.90714210
  0
VERTEX
  8
1
 10
2492.86615999
 20
1340.93076666
  0
VERTEX
  8
1
 10
2507.63893003
 20
1334.57895813
  0
VERTEX
  8
1
 10
2520.81239555
 20
1329.52930786
  0
VERTEX
  8
1
 10
2534.13537603
 20
1324.87069198
  0
VERTEX
  8
1
 10
2547.55705734
 20
1320.47691474
  0
VERTEX
  8
1
 10
2561.02662535
 20
1316.22178040
  0
VERTEX
  8
1
 10
2589.52551130
 20
1307.36451563
  0
VERTEX
  8
1
 10
2603.80367210
 20
1303.05431248
  0
VERTEX
  8
1
 10
2618.11891050
 20
1298.87510071
  0
VERTEX
  8
1
 10
2631.07664467
 20
1295.24231407
  0
VERTEX
  8
1
 10
2644.07174454
 20
1291.73700798
  0
VERTEX
  8
1
 10
2657.10043715
 20
1288.34823360
  0
VERTEX
  8
1
 10
2670.15894957
 20
1285.06504211
  0
VERTEX
  8
1
 10
2671.80592222
 20
1277.51889954
  0
VERTEX
  8
1
 10
2630.22584410
 20
1237.58725891
  0
VERTEX
  8
1
 10
2650.79810972
 20
1208.07810364
  0
SEQEND
  0
POLYLINE
  8
84
 66
1
 70
1
  0
VERTEX
  8
84
 10
2634.84840269
 20
1185.25876770
  0
VERTEX
  8
84
 10
2622.80940693
 20
1188.67359269
  0
VERTEX
  8
84
 10
2610.85346544
 20
1192.31793989
  0
VERTEX
  8
84
 10
2587.17799253
 20
1200.28513489
  0
VERTEX
  8
84
 10
2575.44725608
 20
1204.60726439
  0
VERTEX
  8
84
 10
2563.79967088
 20
1209.15918786
  0
VERTEX
  8
84
 10
2552.24481095
 20
1213.94846228
  0
VERTEX
  8
84
 10
2540.79225035
 20
1218.98264465
  0
VERTEX
  8
84
 10
2518.27221562
 20
1229.82970837
  0
VERTEX
  8
84
 10
2496.38844175
 20
1241.89170227
  0
VERTEX
  8
84
 10
2483.26325985
 20
1250.02374043
  0
VERTEX
  8
84
 10
2470.45077388
 20
1258.65064928
  0
VERTEX
  8
84
 10
2457.94855252
 20
1267.72474477
  0
VERTEX
  8
84
 10
2445.75416441
 20
1277.19834290
  0
VERTEX
  8
84
 10
2442.80787535
 20
1279.58054504
  0
VERTEX
  8
84
 10
2430.66759555
 20
1289.84529232
  0
VERTEX
  8
84
 10
2418.86110771
 20
1300.48514353
  0
VERTEX
  8
84
 10
2407.30534744
 20
1311.44640766
  0
VERTEX
  8
84
 10
2395.91725035
 20
1322.67539368
  0
VERTEX
  8
84
 10
2384.70949102
 20
1334.12416800
  0
VERTEX
  8
84
 10
2373.91734284
 20
1345.93119694
  0
VERTEX
  8
84
 10
2363.87221872
 20
1358.24171768
  0
VERTEX
  8
84
 10
2354.90553160
 20
1371.20096741
  0
VERTEX
  8
84
 10
2347.28602972
 20
1384.89957266
  0
VERTEX
  8
84
 10
2340.96173873
 20
1399.34134803
  0
VERTEX
  8
84
 10
2335.82247894
 20
1414.47800877
  0
VERTEX
  8
84
 10
2331.75807066
 20
1430.26127014
  0
VERTEX
  8
84
 10
2356.83717222
 20
1437.39164124
  0
VERTEX
  8
84
 10
2367.61829475
 20
1426.80363694
  0
VERTEX
  8
84
 10
2378.68831855
 20
1416.58459681
  0
VERTEX
  8
84
 10
2390.05005435
 20
1406.72842948
  0
VERTEX
  8
84
 10
2401.70631285
 20
1397.22904358
  0
VERTEX
  8
84
 10
2413.42357125
 20
1388.25828145
  0
VERTEX
  8
84
 10
2425.41858690
 20
1379.64243511
  0
VERTEX
  8
84
 10
2437.68319794
 20
1371.39919294
  0
VERTEX
  8
84
 10
2450.20924253
 20
1363.54624329
  0
VERTEX
  8
84
 10
2464.14120254
 20
1355.46124685
  0
VERTEX
  8
84
 10
2478.36354626
 20
1347.90714210
  0
VERTEX
  8
84
 10
2492.86615999
 20
1340.93076666
  0
VERTEX
  8
84
 10
2507.63893003
 20
1334.57895813
  0
VERTEX
  8
84
 10
2520.81239555
 20
1329.52930786
  0
VERTEX
  8
84
 10
2534.13537603
 20
1324.87069198
  0
VERTEX
  8
84
 10
2547.55705734
 20
1320.47691474
  0
VERTEX
  8
84
 10
2561.02662535
 20
1316.22178040
  0
VERTEX
  8
84
 10
2589.52551130
 20
1307.36451563
  0
VERTEX
  8
84
 10
2603.80367210
 20
1303.05431248
  0
VERTEX
  8
84
 10
2618.11891050
 20
1298.87510071
  0
VERTEX
  8
84
 10
2631.07664467
 20
1295.24231407
  0
VERTEX
  8
84
 10
2644.07174454
 20
1291.73700798
  0
VERTEX
  8
84
 10
2657.10043715
 20
1288.34823360
  0
VERTEX
  8
84
 10
2670.15894957
 20
1285.06504211
  0
VERTEX
  8
84
 10
2671.80592222
 20
1277.51889954
  0
VERTEX
  8
84
 10
2630.22584410
 20
1237.58725891
  0
VERTEX
  8
84
 10
2650.79810972
 20
1208.07810364
  0
SEQEND
  0
POINT
  8
2
 10
2634.84840269
 20
1185.25876770
  0
TEXT
  8
2
 10
2634.84840269
 20
1185.25876770
 40
10.00000000
 50
0.00000000
  1
# 117
  0
POINT
  8
3
 10
2622.80940693
 20
1188.67359269
  0
POINT
  8
3
 10
2610.85346544
 20
1192.31793989
  0
POINT
  8
3
 10
2587.17799253
 20
1200.28513489
  0
POINT
  8
3
 10
2575.44725608
 20
1204.60726439
  0
POINT
  8
3
 10
2563.79967088
 20
1209.15918786
  0
POINT
  8
3
 10
2552.24481095
 20
1213.94846228
  0
POINT
  8
3
 10
2540.79225035
 20
1218.98264465
  0
POINT
  8
3
 10
2518.27221562
 20
1229.82970837
  0
POINT
  8
3
 10
2496.38844175
 20
1241.89170227
  0
POINT
  8
3
 10
2483.26325985
 20
1250.02374043
  0
POINT
  8
3
 10
2470.45077388
 20
1258.65064928
  0
POINT
  8
3
 10
2457.94855252
 20
1267.72474477
  0
POINT
  8
3
 10
2445.75416441
 20
1277.19834290
  0
POINT
  8
3
 10
2442.80787535
 20
1279.58054504
  0
POINT
  8
3
 10
2430.66759555
 20
1289.84529232
  0
POINT
  8
3
 10
2418.86110771
 20
1300.48514353
  0
POINT
  8
3
 10
2407.30534744
 20
1311.44640766
  0
POINT
  8
3
 10
2395.91725035
 20
1322.67539368
  0
POINT
  8
3
 10
2384.70949102
 20
1334.12416800
  0
POINT
  8
3
 10
2373.91734284
 20
1345.93119694
  0
POINT
  8
3
 10
2363.87221872
 20
1358.24171768
  0
POINT
  8
3
 10
2354.90553160
 20
1371.20096741
  0
POINT
  8
3
 10
2347.28602972
 20
1384.89957266
  0
POINT
  8
3
 10
2340.96173873
 20
1399.34134803
  0
POINT
  8
3
 10
2335.82247894
 20
1414.47800877
  0
POINT
  8
2
 10
2331.75807066
 20
1430.26127014
  0
TEXT
  8
2
 10
2331.75807066
 20
1430.26127014
 40
10.00000000
 50
0.00000000
  1
# 118
  0
POINT
  8
2
 10
2356.83717222
 20
1437.39164124
  0
TEXT
  8
2
 10
2356.83717222
 20
1437.39164124
 40
10.00000000
 50
0.00000000
  1
# 119
  0
POINT
  8
3
 10
2367.61829475
 20
1426.80363694
  0
POINT
  8
3
 10
2378.68831855
 20
1416.58459681
  0
POINT
  8
3
 10
2390.05005435
 20
1406.72842948
  0
POINT
  8
3
 10
2401.70631285
 20
1397.22904358
  0
POINT
  8
3
 10
2413.42357125
 20
1388.25828145
  0
POINT
  8
3
 10
2425.41858690
 20
1379.64243511
  0
POINT
  8
3
 10
2437.68319794
 20
1371.39919294
  0
POINT
  8
3
 10
2450.20924253
 20
1363.54624329
  0
POINT
  8
3
 10
2464.14120254
 20
1355.46124685
  0
POINT
  8
3
 10
2478.36354626
 20
1347.90714210
  0
POINT
  8
3
 10
2492.86615999
 20
1340.93076666
  0
POINT
  8
3
 10
2507.63893003
 20
1334.57895813
  0
POINT
  8
3
 10
2520.81239555
 20
1329.52930786
  0
POINT
  8
3
 10
2534.13537603
 20
1324.87069198
  0
POINT
  8
3
 10
2547.55705734
 20
1320.47691474
  0
POINT
  8
3
 10
2561.02662535
 20
1316.22178040
  0
POINT
  8
3
 10
2589.52551130
 20
1307.36451563
  0
POINT
  8
3
 10
2603.80367210
 20
1303.05431248
  0
POINT
  8
3
 10
2618.11891050
 20
1298.87510071
  0
POINT
  8
3
 10
2631.07664467
 20
1295.24231407
  0
POINT
  8
3
 10
2644.07174454
 20
1291.73700798
  0
POINT
  8
3
 10
2657.10043715
 20
1288.34823360
  0
POINT
  8
2
 10
2670.15894957
 20
1285.06504211
  0
TEXT
  8
2
 10
2670.15894957
 20
1285.06504211
 40
10.00000000
 50
0.00000000
  1
# 120
  0
POINT
  8
2
 10
2671.80592222
 20
1277.51889954
  0
TEXT
  8
2
 10
2671.80592222
 20
1277.51889954
 40
10.00000000
 50
0.00000000
  1
# 121
  0
POINT
  8
2
 10
2630.22584410
 20
1237.58725891
  0
TEXT
  8
2
 10
2630.22584410
 20
1237.58725891
 40
10.00000000
 50
0.00000000
  1
# 122
  0
POINT
  8
2
 10
2650.79810972
 20
1208.07810364
  0
TEXT
  8
2
 10
2650.79810972
 20
1208.07810364
 40
10.00000000
 50
0.00000000
  1
# 123
  0
POINT
  8
4
 10
2445.75416441
 20
1277.19834290
 30
7.50000000
 50
412.15701653
  0
TEXT
  8
1
 10
2445.75416441
 20
1277.19834290
 40
10.00000000
 50
0.00000000
  1
# 124
  0
POINT
  8
4
 10
2507.63893003
 20
1334.57895813
 30
7.50000000
 50
246.73387486
  0
TEXT
  8
1
 10
2507.63893003
 20
1334.57895813
 40
10.00000000
 50
0.00000000
  1
# 125
  0
ENDBLK
  0
BLOCK
  8
1
  2
13
 70
64
 10
0.0
 20
0.0
  0
LINE
  8
7
 10
2264.47451750
 20
879.07500000
 11
2428.56753508
 21
879.07500000
  0
TEXT
  8
1
 10
0.00000000
 20
0.00000000
 40
10.00000000
 50
0.00000000
  1
Size: 46
  0
TEXT
  8
1
 10
2346.52102629
 20
886.57500000
 40
10.00000000
 50
0.00000000
  1
Piece Name: AFERIA.P2E
  0
TEXT
  8
1
 10
2346.52102629
 20
886.57500000
 40
10.00000000
 50
0.00000000
  1
Quantity: 1
  0
TEXT
  8
1
 10
2346.52102629
 20
886.57500000
 40
10.00000000
 50
0.00000000
  1
Rotation: 0
  0
TEXT
  8
1
 10
2346.52102629
 20
886.57500000
 40
10.00000000
 50
0.00000000
  1
Tilt: 0
  0
TEXT
  8
1
 10
2346.52102629
 20
886.57500000
 40
10.00000000
 50
0.00000000
  1
Fold: N
  0
TEXT
  8
1
 10
2346.52102629
 20
886.57500000
 40
10.00000000
 50
0.00000000
  1
Material: 1
  0
POLYLINE
  8
1
 66
1
 70
1
  0
VERTEX
  8
1
 10
2439.66035280
 20
847.48771973
  0
VERTEX
  8
1
 10
2417.22948978
 20
841.31259866
  0
VERTEX
  8
1
 10
2394.83808718
 20
835.00334473
  0
VERTEX
  8
1
 10
2380.52587321
 20
830.91076143
  0
VERTEX
  8
1
 10
2366.23153459
 20
826.75560554
  0
VERTEX
  8
1
 10
2351.96117540
 20
822.51068093
  0
VERTEX
  8
1
 10
2337.72089968
 20
818.14879150
  0
VERTEX
  8
1
 10
2323.46104564
 20
813.61199087
  0
VERTEX
  8
1
 10
2309.28067235
 20
808.83783304
  0
VERTEX
  8
1
 10
2295.22275647
 20
803.73438271
  0
VERTEX
  8
1
 10
2281.33027468
 20
798.20970459
  0
VERTEX
  8
1
 10
2267.46066114
 20
792.10852510
  0
VERTEX
  8
1
 10
2253.81363887
 20
785.50746824
  0
VERTEX
  8
1
 10
2240.39783489
 20
778.43349391
  0
VERTEX
  8
1
 10
2227.22187624
 20
770.91356201
  0
VERTEX
  8
1
 10
2214.29090021
 20
762.96937781
  0
VERTEX
  8
1
 10
2201.62357107
 20
754.61871840
  0
VERTEX
  8
1
 10
2189.23488671
 20
745.87440413
  0
VERTEX
  8
1
 10
2177.13984499
 20
736.74925537
  0
VERTEX
  8
1
 10
2165.80036298
 20
727.62736146
  0
VERTEX
  8
1
 10
2154.74142935
 20
718.16136803
  0
VERTEX
  8
1
 10
2143.95836370
 20
708.34727420
  0
VERTEX
  8
1
 10
2133.44648561
 20
698.18107910
  0
VERTEX
  8
1
 10
2112.47480593
 20
705.01652832
  0
VERTEX
  8
1
 10
2116.45290583
 20
719.08109145
  0
VERTEX
  8
1
 10
2121.30442146
 20
732.61304715
  0
VERTEX
  8
1
 10
2127.12357562
 20
745.56972012
  0
VERTEX
  8
1
 10
2134.00459108
 20
757.90843506
  0
VERTEX
  8
1
 10
2142.93963317
 20
770.88615200
  0
VERTEX
  8
1
 10
2152.96632184
 20
783.20002474
  0
VERTEX
  8
1
 10
2163.74688634
 20
795.00303612
  0
VERTEX
  8
1
 10
2174.94355593
 20
806.44816895
  0
VERTEX
  8
1
 10
2186.43501355
 20
817.79601801
  0
VERTEX
  8
1
 10
2198.09284122
 20
828.87740409
  0
VERTEX
  8
1
 10
2210.00305261
 20
839.63604881
  0
VERTEX
  8
1
 10
2222.25166140
 20
850.01567383
  0
VERTEX
  8
1
 10
2224.96894655
 20
852.21721191
  0
VERTEX
  8
1
 10
2236.93090651
 20
861.45061571
  0
VERTEX
  8
1
 10
2249.24457323
 20
870.22320060
  0
VERTEX
  8
1
 10
2261.88673521
 20
878.51900575
  0
VERTEX
  8
1
 10
2274.83418093
 20
886.32207031
  0
VERTEX
  8
1
 10
2296.25861854
 20
897.85041764
  0
VERTEX
  8
1
 10
2318.26679811
 20
908.22490234
  0
VERTEX
  8
1
 10
2340.84031560
 20
917.63647818
  0
VERTEX
  8
1
 10
2363.77900515
 20
926.09355469
  0
VERTEX
  8
1
 10
2385.39007666
 20
933.13351772
  0
VERTEX
  8
1
 10
2407.27412233
 20
939.37297363
  0
VERTEX
  8
1
 10
2419.12226686
 20
922.42167969
  0
VERTEX
  8
1
 10
2398.10224733
 20
892.27006836
  0
VERTEX
  8
1
 10
2440.66084108
 20
851.39848633
  0
SEQEND
  0
POLYLINE
  8
84
 66
1
 70
1
  0
VERTEX
  8
84
 10
2439.66035280
 20
847.48771973
  0
VERTEX
  8
84
 10
2417.22948978
 20
841.31259866
  0
VERTEX
  8
84
 10
2394.83808718
 20
835.00334473
  0
VERTEX
  8
84
 10
2380.52587321
 20
830.91076143
  0
VERTEX
  8
84
 10
2366.23153459
 20
826.75560554
  0
VERTEX
  8
84
 10
2351.96117540
 20
822.51068093
  0
VERTEX
  8
84
 10
2337.72089968
 20
818.14879150
  0
VERTEX
  8
84
 10
2323.46104564
 20
813.61199087
  0
VERTEX
  8
84
 10
2309.28067235
 20
808.83783304
  0
VERTEX
  8
84
 10
2295.22275647
 20
803.73438271
  0
VERTEX
  8
84
 10
2281.33027468
 20
798.20970459
  0
VERTEX
  8
84
 10
2267.46066114
 20
792.10852510
  0
VERTEX
  8
84
 10
2253.81363887
 20
785.50746824
  0
VERTEX
  8
84
 10
2240.39783489
 20
778.43349391
  0
VERTEX
  8
84
 10
2227.22187624
 20
770.91356201
  0
VERTEX
  8
84
 10
2214.29090021
 20
762.96937781
  0
VERTEX
  8
84
 10
2201.62357107
 20
754.61871840
  0
VERTEX
  8
84
 10
2189.23488671
 20
745.87440413
  0
VERTEX
  8
84
 10
2177.13984499
 20
736.74925537
  0
VERTEX
  8
84
 10
2165.80036298
 20
727.62736146
  0
VERTEX
  8
84
 10
2154.74142935
 20
718.16136803
  0
VERTEX
  8
84
 10
2143.95836370
 20
708.34727420
  0
VERTEX
  8
84
 10
2133.44648561
 20
698.18107910
  0
VERTEX
  8
84
 10
2112.47480593
 20
705.01652832
  0
VERTEX
  8
84
 10
2116.45290583
 20
719.08109145
  0
VERTEX
  8
84
 10
2121.30442146
 20
732.61304715
  0
VERTEX
  8
84
 10
2127.12357562
 20
745.56972012
  0
VERTEX
  8
84
 10
2134.00459108
 20
757.90843506
  0
VERTEX
  8
84
 10
2142.93963317
 20
770.88615200
  0
VERTEX
  8
84
 10
2152.96632184
 20
783.20002474
  0
VERTEX
  8
84
 10
2163.74688634
 20
795.00303612
  0
VERTEX
  8
84
 10
2174.94355593
 20
806.44816895
  0
VERTEX
  8
84
 10
2186.43501355
 20
817.79601801
  0
VERTEX
  8
84
 10
2198.09284122
 20
828.87740409
  0
VERTEX
  8
84
 10
2210.00305261
 20
839.63604881
  0
VERTEX
  8
84
 10
2222.25166140
 20
850.01567383
  0
VERTEX
  8
84
 10
2224.96894655
 20
852.21721191
  0
VERTEX
  8
84
 10
2236.93090651
 20
861.45061571
  0
VERTEX
  8
84
 10
2249.24457323
 20
870.22320060
  0
VERTEX
  8
84
 10
2261.88673521
 20
878.51900575
  0
VERTEX
  8
84
 10
2274.83418093
 20
886.32207031
  0
VERTEX
  8
84
 10
2296.25861854
 20
897.85041764
  0
VERTEX
  8
84
 10
2318.26679811
 20
908.22490234
  0
VERTEX
  8
84
 10
2340.84031560
 20
917.63647818
  0
VERTEX
  8
84
 10
2363.77900515
 20
926.09355469
  0
VERTEX
  8
84
 10
2385.39007666
 20
933.13351772
  0
VERTEX
  8
84
 10
2407.27412233
 20
939.37297363
  0
VERTEX
  8
84
 10
2419.12226686
 20
922.42167969
  0
VERTEX
  8
84
 10
2398.10224733
 20
892.27006836
  0
VERTEX
  8
84
 10
2440.66084108
 20
851.39848633
  0
SEQEND
  0
POINT
  8
2
 10
2439.66035280
 20
847.48771973
  0
TEXT
  8
2
 10
2439.66035280
 20
847.48771973
 40
10.00000000
 50
0.00000000
  1
# 126
  0
POINT
  8
3
 10
2417.22948978
 20
841.31259866
  0
POINT
  8
3
 10
2394.83808718
 20
835.00334473
  0
POINT
  8
3
 10
2380.52587321
 20
830.91076143
  0
POINT
  8
3
 10
2366.23153459
 20
826.75560554
  0
POINT
  8
3
 10
2351.96117540
 20
822.51068093
  0
POINT
  8
3
 10
2337.72089968
 20
818.14879150
  0
POINT
  8
3
 10
2323.46104564
 20
813.61199087
  0
POINT
  8
3
 10
2309.28067235
 20
808.83783304
  0
POINT
  8
3
 10
2295.22275647
 20
803.73438271
  0
POINT
  8
3
 10
2281.33027468
 20
798.20970459
  0
POINT
  8
3
 10
2267.46066114
 20
792.10852510
  0
POINT
  8
3
 10
2253.81363887
 20
785.50746824
  0
POINT
  8
3
 10
2240.39783489
 20
778.43349391
  0
POINT
  8
3
 10
2227.22187624
 20
770.91356201
  0
POINT
  8
3
 10
2214.29090021
 20
762.96937781
  0
POINT
  8
3
 10
2201.62357107
 20
754.61871840
  0
POINT
  8
3
 10
2189.23488671
 20
745.87440413
  0
POINT
  8
3
 10
2177.13984499
 20
736.74925537
  0
POINT
  8
3
 10
2165.80036298
 20
727.62736146
  0
POINT
  8
3
 10
2154.74142935
 20
718.16136803
  0
POINT
  8
3
 10
2143.95836370
 20
708.34727420
  0
POINT
  8
2
 10
2133.44648561
 20
698.18107910
  0
TEXT
  8
2
 10
2133.44648561
 20
698.18107910
 40
10.00000000
 50
0.00000000
  1
# 127
  0
POINT
  8
2
 10
2112.47480593
 20
705.01652832
  0
TEXT
  8
2
 10
2112.47480593
 20
705.01652832
 40
10.00000000
 50
0.00000000
  1
# 128
  0
POINT
  8
3
 10
2116.45290583
 20
719.08109145
  0
POINT
  8
3
 10
2121.30442146
 20
732.61304715
  0
POINT
  8
3
 10
2127.12357562
 20
745.56972012
  0
POINT
  8
3
 10
2134.00459108
 20
757.90843506
  0
POINT
  8
3
 10
2142.93963317
 20
770.88615200
  0
POINT
  8
3
 10
2152.96632184
 20
783.20002474
  0
POINT
  8
3
 10
2163.74688634
 20
795.00303612
  0
POINT
  8
3
 10
2174.94355593
 20
806.44816895
  0
POINT
  8
3
 10
2186.43501355
 20
817.79601801
  0
POINT
  8
3
 10
2198.09284122
 20
828.87740409
  0
POINT
  8
3
 10
2210.00305261
 20
839.63604881
  0
POINT
  8
3
 10
2222.25166140
 20
850.01567383
  0
POINT
  8
3
 10
2224.96894655
 20
852.21721191
  0
POINT
  8
3
 10
2236.93090651
 20
861.45061571
  0
POINT
  8
3
 10
2249.24457323
 20
870.22320060
  0
POINT
  8
3
 10
2261.88673521
 20
878.51900575
  0
POINT
  8
3
 10
2274.83418093
 20
886.32207031
  0
POINT
  8
3
 10
2296.25861854
 20
897.85041764
  0
POINT
  8
3
 10
2318.26679811
 20
908.22490234
  0
POINT
  8
3
 10
2340.84031560
 20
917.63647818
  0
POINT
  8
3
 10
2363.77900515
 20
926.09355469
  0
POINT
  8
3
 10
2385.39007666
 20
933.13351772
  0
POINT
  8
2
 10
2407.27412233
 20
939.37297363
  0
TEXT
  8
2
 10
2407.27412233
 20
939.37297363
 40
10.00000000
 50
0.00000000
  1
# 129
  0
POINT
  8
2
 10
2419.12226686
 20
922.42167969
  0
TEXT
  8
2
 10
2419.12226686
 20
922.42167969
 40
10.00000000
 50
0.00000000
  1
# 130
  0
POINT
  8
2
 10
2398.10224733
 20
892.27006836
  0
TEXT
  8
2
 10
2398.10224733
 20
892.27006836
 40
10.00000000
 50
0.00000000
  1
# 131
  0
POINT
  8
2
 10
2440.66084108
 20
851.39848633
  0
TEXT
  8
2
 10
2440.66084108
 20
851.39848633
 40
10.00000000
 50
0.00000000
  1
# 132
  0
ENDBLK
  0
BLOCK
  8
1
  2
14
 70
64
 10
0.0
 20
0.0
  0
LINE
  8
7
 10
2087.96084509
 20
1719.43787668
 11
2245.32984156
 21
1783.80505998
  0
TEXT
  8
1
 10
0.00000000
 20
0.00000000
 40
10.00000000
 50
0.00000000
  1
Size: 46
  0
TEXT
  8
1
 10
2163.80601426
 20
1758.56324119
 40
10.00000000
 50
22.24557953
  1
Piece Name: AFERIA.P2F
  0
TEXT
  8
1
 10
2163.80601426
 20
1758.56324119
 40
10.00000000
 50
22.24557953
  1
Quantity: 1
  0
TEXT
  8
1
 10
2163.80601426
 20
1758.56324119
 40
10.00000000
 50
22.24557953
  1
Rotation: 0
  0
TEXT
  8
1
 10
2163.80601426
 20
1758.56324119
 40
10.00000000
 50
22.24557953
  1
Tilt: 0
  0
TEXT
  8
1
 10
2163.80601426
 20
1758.56324119
 40
10.00000000
 50
22.24557953
  1
Fold: N
  0
TEXT
  8
1
 10
2163.80601426
 20
1758.56324119
 40
10.00000000
 50
22.24557953
  1
Material: 1
  0
POLYLINE
  8
1
 66
1
 70
1
  0
VERTEX
  8
1
 10
1976.30483294
 20
1610.75498829
  0
VERTEX
  8
1
 10
1980.36937682
 20
1626.53824774
  0
VERTEX
  8
1
 10
1985.50873876
 20
1641.67491110
  0
VERTEX
  8
1
 10
1991.83313509
 20
1656.11670400
  0
VERTEX
  8
1
 10
1999.45278215
 20
1669.81535206
  0
VERTEX
  8
1
 10
2008.41963826
 20
1682.77463608
  0
VERTEX
  8
1
 10
2018.46489112
 20
1695.08519969
  0
VERTEX
  8
1
 10
2029.25701918
 20
1706.89224817
  0
VERTEX
  8
1
 10
2040.46450090
 20
1718.34098682
  0
VERTEX
  8
1
 10
2051.85196840
 20
1729.56980374
  0
VERTEX
  8
1
 10
2063.40715451
 20
1740.53093250
  0
VERTEX
  8
1
 10
2075.21354800
 20
1751.17080057
  0
VERTEX
  8
1
 10
2087.35463762
 20
1761.43583546
  0
VERTEX
  8
1
 10
2090.30190325
 20
1763.81803761
  0
VERTEX
  8
1
 10
2102.49809301
 20
1773.26251721
  0
VERTEX
  8
1
 10
2115.00166457
 20
1782.29501919
  0
VERTEX
  8
1
 10
2127.81380274
 20
1790.91567528
  0
VERTEX
  8
1
 10
2140.93569231
 20
1799.12461720
  0
VERTEX
  8
1
 10
2151.85194078
 20
1805.25090233
  0
VERTEX
  8
1
 10
2162.88732413
 20
1811.11474954
  0
VERTEX
  8
1
 10
2185.33901262
 20
1822.03367481
  0
VERTEX
  8
1
 10
2196.77430100
 20
1827.08636335
  0
VERTEX
  8
1
 10
2208.32896117
 20
1831.87609946
  0
VERTEX
  8
1
 10
2219.98532676
 20
1836.41900069
  0
VERTEX
  8
1
 10
2231.72573137
 20
1840.73118458
  0
VERTEX
  8
1
 10
2255.40458125
 20
1848.69453249
  0
VERTEX
  8
1
 10
2267.35814814
 20
1852.34128957
  0
VERTEX
  8
1
 10
2279.39565325
 20
1855.75761280
  0
VERTEX
  8
1
 10
2295.34487200
 20
1832.93821583
  0
VERTEX
  8
1
 10
2274.77260637
 20
1803.42912159
  0
VERTEX
  8
1
 10
2316.35268450
 20
1763.49741993
  0
VERTEX
  8
1
 10
2313.91225481
 20
1753.95982227
  0
VERTEX
  8
1
 10
2290.10501418
 20
1747.40827374
  0
VERTEX
  8
1
 10
2266.34096575
 20
1740.70988331
  0
VERTEX
  8
1
 10
2237.81686445
 20
1732.48467383
  0
VERTEX
  8
1
 10
2223.58731575
 20
1728.25245733
  0
VERTEX
  8
1
 10
2209.38784075
 20
1723.90348682
  0
VERTEX
  8
1
 10
2195.23571508
 20
1719.40101334
  0
VERTEX
  8
1
 10
2181.16249637
 20
1714.66289445
  0
VERTEX
  8
1
 10
2167.21073891
 20
1709.59789767
  0
VERTEX
  8
1
 10
2153.42299700
 20
1704.11479053
  0
VERTEX
  8
1
 10
2139.70099533
 20
1698.07925136
  0
VERTEX
  8
1
 10
2126.19906135
 20
1691.54965453
  0
VERTEX
  8
1
 10
2112.92652684
 20
1684.55155758
  0
VERTEX
  8
1
 10
2099.89272356
 20
1677.11051807
  0
VERTEX
  8
1
 10
2087.10146427
 20
1669.24665463
  0
VERTEX
  8
1
 10
2074.57075460
 20
1660.98090189
  0
VERTEX
  8
1
 10
2062.31284582
 20
1652.32915158
  0
VERTEX
  8
1
 10
2050.33998919
 20
1643.30729542
  0
VERTEX
  8
1
 10
2038.66551844
 20
1633.93084753
  0
VERTEX
  8
1
 10
2027.28407341
 20
1624.19512492
  0
VERTEX
  8
1
 10
2016.19157260
 20
1614.09483326
  0
VERTEX
  8
1
 10
2005.38393450
 20
1603.62467823
  0
SEQEND
  0
POLYLINE
  8
84
 66
1
 70
1
  0
VERTEX
  8
84
 10
1976.30483294
 20
1610.75498829
  0
VERTEX
  8
84
 10
1980.36937682
 20
1626.53824774
  0
VERTEX
  8
84
 10
1985.50873876
 20
1641.67491110
  0
VERTEX
  8
84
 10
1991.83313509
 20
1656.11670400
  0
VERTEX
  8
84
 10
1999.45278215
 20
1669.81535206
  0
VERTEX
  8
84
 10
2008.41963826
 20
1682.77463608
  0
VERTEX
  8
84
 10
2018.46489112
 20
1695.08519969
  0
VERTEX
  8
84
 10
2029.25701918
 20
1706.89224817
  0
VERTEX
  8
84
 10
2040.46450090
 20
1718.34098682
  0
VERTEX
  8
84
 10
2051.85196840
 20
1729.56980374
  0
VERTEX
  8
84
 10
2063.40715451
 20
1740.53093250
  0
VERTEX
  8
84
 10
2075.21354800
 20
1751.17080057
  0
VERTEX
  8
84
 10
2087.35463762
 20
1761.43583546
  0
VERTEX
  8
84
 10
2090.30190325
 20
1763.81803761
  0
VERTEX
  8
84
 10
2102.49809301
 20
1773.26251721
  0
VERTEX
  8
84
 10
2115.00166457
 20
1782.29501919
  0
VERTEX
  8
84
 10
2127.81380274
 20
1790.91567528
  0
VERTEX
  8
84
 10
2140.93569231
 20
1799.12461720
  0
VERTEX
  8
84
 10
2151.85194078
 20
1805.25090233
  0
VERTEX
  8
84
 10
2162.88732413
 20
1811.11474954
  0
VERTEX
  8
84
 10
2185.33901262
 20
1822.03367481
  0
VERTEX
  8
84
 10
2196.77430100
 20
1827.08636335
  0
VERTEX
  8
84
 10
2208.32896117
 20
1831.87609946
  0
VERTEX
  8
84
 10
2219.98532676
 20
1836.41900069
  0
VERTEX
  8
84
 10
2231.72573137
 20
1840.73118458
  0
VERTEX
  8
84
 10
2255.40458125
 20
1848.69453249
  0
VERTEX
  8
84
 10
2267.35814814
 20
1852.34128957
  0
VERTEX
  8
84
 10
2279.39565325
 20
1855.75761280
  0
VERTEX
  8
84
 10
2295.34487200
 20
1832.93821583
  0
VERTEX
  8
84
 10
2274.77260637
 20
1803.42912159
  0
VERTEX
  8
84
 10
2316.35268450
 20
1763.49741993
  0
VERTEX
  8
84
 10
2313.91225481
 20
1753.95982227
  0
VERTEX
  8
84
 10
2290.10501418
 20
1747.40827374
  0
VERTEX
  8
84
 10
2266.34096575
 20
1740.70988331
  0
VERTEX
  8
84
 10
2237.81686445
 20
1732.48467383
  0
VERTEX
  8
84
 10
2223.58731575
 20
1728.25245733
  0
VERTEX
  8
84
 10
2209.38784075
 20
1723.90348682
  0
VERTEX
  8
84
 10
2195.23571508
 20
1719.40101334
  0
VERTEX
  8
84
 10
2181.16249637
 20
1714.66289445
  0
VERTEX
  8
84
 10
2167.21073891
 20
1709.59789767
  0
VERTEX
  8
84
 10
2153.42299700
 20
1704.11479053
  0
VERTEX
  8
84
 10
2139.70099533
 20
1698.07925136
  0
VERTEX
  8
84
 10
2126.19906135
 20
1691.54965453
  0
VERTEX
  8
84
 10
2112.92652684
 20
1684.55155758
  0
VERTEX
  8
84
 10
2099.89272356
 20
1677.11051807
  0
VERTEX
  8
84
 10
2087.10146427
 20
1669.24665463
  0
VERTEX
  8
84
 10
2074.57075460
 20
1660.98090189
  0
VERTEX
  8
84
 10
2062.31284582
 20
1652.32915158
  0
VERTEX
  8
84
 10
2050.33998919
 20
1643.30729542
  0
VERTEX
  8
84
 10
2038.66551844
 20
1633.93084753
  0
VERTEX
  8
84
 10
2027.28407341
 20
1624.19512492
  0
VERTEX
  8
84
 10
2016.19157260
 20
1614.09483326
  0
VERTEX
  8
84
 10
2005.38393450
 20
1603.62467823
  0
SEQEND
  0
POINT
  8
2
 10
1976.30483294
 20
1610.75498829
  0
TEXT
  8
2
 10
1976.30483294
 20
1610.75498829
 40
10.00000000
 50
0.00000000
  1
# 133
  0
POINT
  8
3
 10
1980.36937682
 20
1626.53824774
  0
POINT
  8
3
 10
1985.50873876
 20
1641.67491110
  0
POINT
  8
3
 10
1991.83313509
 20
1656.11670400
  0
POINT
  8
3
 10
1999.45278215
 20
1669.81535206
  0
POINT
  8
3
 10
2008.41963826
 20
1682.77463608
  0
POINT
  8
3
 10
2018.46489112
 20
1695.08519969
  0
POINT
  8
3
 10
2029.25701918
 20
1706.89224817
  0
POINT
  8
3
 10
2040.46450090
 20
1718.34098682
  0
POINT
  8
3
 10
2051.85196840
 20
1729.56980374
  0
POINT
  8
3
 10
2063.40715451
 20
1740.53093250
  0
POINT
  8
3
 10
2075.21354800
 20
1751.17080057
  0
POINT
  8
3
 10
2087.35463762
 20
1761.43583546
  0
POINT
  8
3
 10
2090.30190325
 20
1763.81803761
  0
POINT
  8
3
 10
2102.49809301
 20
1773.26251721
  0
POINT
  8
3
 10
2115.00166457
 20
1782.29501919
  0
POINT
  8
3
 10
2127.81380274
 20
1790.91567528
  0
POINT
  8
2
 10
2140.93569231
 20
1799.12461720
  0
TEXT
  8
2
 10
2140.93569231
 20
1799.12461720
 40
10.00000000
 50
0.00000000
  1
# 134
  0
POINT
  8
3
 10
2151.85194078
 20
1805.25090233
  0
POINT
  8
3
 10
2162.88732413
 20
1811.11474954
  0
POINT
  8
3
 10
2185.33901262
 20
1822.03367481
  0
POINT
  8
3
 10
2196.77430100
 20
1827.08636335
  0
POINT
  8
3
 10
2208.32896117
 20
1831.87609946
  0
POINT
  8
3
 10
2219.98532676
 20
1836.41900069
  0
POINT
  8
3
 10
2231.72573137
 20
1840.73118458
  0
POINT
  8
3
 10
2255.40458125
 20
1848.69453249
  0
POINT
  8
3
 10
2267.35814814
 20
1852.34128957
  0
POINT
  8
2
 10
2279.39565325
 20
1855.75761280
  0
TEXT
  8
2
 10
2279.39565325
 20
1855.75761280
 40
10.00000000
 50
0.00000000
  1
# 135
  0
POINT
  8
2
 10
2295.34487200
 20
1832.93821583
  0
TEXT
  8
2
 10
2295.34487200
 20
1832.93821583
 40
10.00000000
 50
0.00000000
  1
# 136
  0
POINT
  8
2
 10
2274.77260637
 20
1803.42912159
  0
TEXT
  8
2
 10
2274.77260637
 20
1803.42912159
 40
10.00000000
 50
0.00000000
  1
# 137
  0
POINT
  8
2
 10
2316.35268450
 20
1763.49741993
  0
TEXT
  8
2
 10
2316.35268450
 20
1763.49741993
 40
10.00000000
 50
0.00000000
  1
# 138
  0
POINT
  8
2
 10
2313.91225481
 20
1753.95982227
  0
TEXT
  8
2
 10
2313.91225481
 20
1753.95982227
 40
10.00000000
 50
0.00000000
  1
# 139
  0
POINT
  8
3
 10
2290.10501418
 20
1747.40827374
  0
POINT
  8
3
 10
2266.34096575
 20
1740.70988331
  0
POINT
  8
3
 10
2237.81686445
 20
1732.48467383
  0
POINT
  8
3
 10
2223.58731575
 20
1728.25245733
  0
POINT
  8
3
 10
2209.38784075
 20
1723.90348682
  0
POINT
  8
3
 10
2195.23571508
 20
1719.40101334
  0
POINT
  8
3
 10
2181.16249637
 20
1714.66289445
  0
POINT
  8
3
 10
2167.21073891
 20
1709.59789767
  0
POINT
  8
3
 10
2153.42299700
 20
1704.11479053
  0
POINT
  8
3
 10
2139.70099533
 20
1698.07925136
  0
POINT
  8
3
 10
2126.19906135
 20
1691.54965453
  0
POINT
  8
3
 10
2112.92652684
 20
1684.55155758
  0
POINT
  8
3
 10
2099.89272356
 20
1677.11051807
  0
POINT
  8
3
 10
2087.10146427
 20
1669.24665463
  0
POINT
  8
3
 10
2074.57075460
 20
1660.98090189
  0
POINT
  8
3
 10
2062.31284582
 20
1652.32915158
  0
POINT
  8
3
 10
2050.33998919
 20
1643.30729542
  0
POINT
  8
3
 10
2038.66551844
 20
1633.93084753
  0
POINT
  8
3
 10
2027.28407341
 20
1624.19512492
  0
POINT
  8
3
 10
2016.19157260
 20
1614.09483326
  0
POINT
  8
2
 10
2005.38393450
 20
1603.62467823
  0
TEXT
  8
2
 10
2005.38393450
 20
1603.62467823
 40
10.00000000
 50
0.00000000
  1
# 140
  0
POINT
  8
4
 10
2090.30190325
 20
1763.81803761
 30
7.50000000
 50
308.94775474
  0
TEXT
  8
1
 10
2090.30190325
 20
1763.81803761
 40
10.00000000
 50
0.00000000
  1
# 141
  0
POINT
  8
4
 10
2153.42299700
 20
1704.11479053
 30
7.50000000
 50
111.68671893
  0
TEXT
  8
1
 10
2153.42299700
 20
1704.11479053
 40
10.00000000
 50
0.00000000
  1
# 142
  0
ENDBLK
  0
BLOCK
  8
1
  2
15
 70
64
 10
0.0
 20
0.0
  0
LINE
  8
7
 10
1084.45609218
 20
1370.88536987
 11
1205.45230800
 21
1370.88536987
  0
TEXT
  8
1
 10
0.00000000
 20
0.00000000
 40
10.00000000
 50
0.00000000
  1
Size: 46
  0
TEXT
  8
1
 10
1144.95420009
 20
1378.38536987
 40
10.00000000
 50
0.00000000
  1
Piece Name: AFERIA.PRE
  0
TEXT
  8
1
 10
1144.95420009
 20
1378.38536987
 40
10.00000000
 50
0.00000000
  1
Quantity: 1
  0
TEXT
  8
1
 10
1144.95420009
 20
1378.38536987
 40
10.00000000
 50
0.00000000
  1
Rotation: 0
  0
TEXT
  8
1
 10
1144.95420009
 20
1378.38536987
 40
10.00000000
 50
0.00000000
  1
Tilt: 0
  0
TEXT
  8
1
 10
1144.95420009
 20
1378.38536987
 40
10.00000000
 50
0.00000000
  1
Fold: N
  0
TEXT
  8
1
 10
1144.95420009
 20
1378.38536987
 40
10.00000000
 50
0.00000000
  1
Material: 1
  0
POLYLINE
  8
1
 66
1
 70
1
  0
VERTEX
  8
1
 10
1039.17814789
 20
1345.28211670
  0
VERTEX
  8
1
 10
1022.16008148
 20
1374.23804932
  0
VERTEX
  8
1
 10
1038.92399750
 20
1402.17823486
  0
VERTEX
  8
1
 10
1249.15251312
 20
1402.17823486
  0
VERTEX
  8
1
 10
1256.34489594
 20
1393.83851318
  0
VERTEX
  8
1
 10
1259.55559488
 20
1389.31102282
  0
VERTEX
  8
1
 10
1262.12175140
 20
1384.47303467
  0
VERTEX
  8
1
 10
1263.62833608
 20
1379.28502060
  0
VERTEX
  8
1
 10
1264.15251312
 20
1373.72828369
  0
VERTEX
  8
1
 10
1263.65444872
 20
1368.15938571
  0
VERTEX
  8
1
 10
1262.14885101
 20
1362.97144775
  0
VERTEX
  8
1
 10
1259.55337302
 20
1358.14692872
  0
VERTEX
  8
1
 10
1256.31193695
 20
1353.63148193
  0
VERTEX
  8
1
 10
1249.15251312
 20
1345.28211670
  0
SEQEND
  0
POLYLINE
  8
84
 66
1
 70
1
  0
VERTEX
  8
84
 10
1039.17814789
 20
1345.28211670
  0
VERTEX
  8
84
 10
1022.16008148
 20
1374.23804932
  0
VERTEX
  8
84
 10
1038.92399750
 20
1402.17823486
  0
VERTEX
  8
84
 10
1249.15251312
 20
1402.17823486
  0
VERTEX
  8
84
 10
1256.34489594
 20
1393.83851318
  0
VERTEX
  8
84
 10
1259.55559488
 20
1389.31102282
  0
VERTEX
  8
84
 10
1262.12175140
 20
1384.47303467
  0
VERTEX
  8
84
 10
1263.62833608
 20
1379.28502060
  0
VERTEX
  8
84
 10
1264.15251312
 20
1373.72828369
  0
VERTEX
  8
84
 10
1263.65444872
 20
1368.15938571
  0
VERTEX
  8
84
 10
1262.14885101
 20
1362.97144775
  0
VERTEX
  8
84
 10
1259.55337302
 20
1358.14692872
  0
VERTEX
  8
84
 10
1256.31193695
 20
1353.63148193
  0
VERTEX
  8
84
 10
1249.15251312
 20
1345.28211670
  0
SEQEND
  0
POINT
  8
2
 10
1039.17814789
 20
1345.28211670
  0
TEXT
  8
2
 10
1039.17814789
 20
1345.28211670
 40
10.00000000
 50
0.00000000
  1
# 143
  0
POINT
  8
2
 10
1022.16008148
 20
1374.23804932
  0
TEXT
  8
2
 10
1022.16008148
 20
1374.23804932
 40
10.00000000
 50
0.00000000
  1
# 144
  0
POINT
  8
2
 10
1038.92399750
 20
1402.17823486
  0
TEXT
  8
2
 10
1038.92399750
 20
1402.17823486
 40
10.00000000
 50
0.00000000
  1
# 145
  0
POINT
  8
2
 10
1249.15251312
 20
1402.17823486
  0
TEXT
  8
2
 10
1249.15251312
 20
1402.17823486
 40
10.00000000
 50
0.00000000
  1
# 146
  0
POINT
  8
3
 10
1256.34489594
 20
1393.83851318
  0
POINT
  8
3
 10
1259.55559488
 20
1389.31102282
  0
POINT
  8
3
 10
1262.12175140
 20
1384.47303467
  0
POINT
  8
3
 10
1263.62833608
 20
1379.28502060
  0
POINT
  8
2
 10
1264.15251312
 20
1373.72828369
  0
TEXT
  8
2
 10
1264.15251312
 20
1373.72828369
 40
10.00000000
 50
0.00000000
  1
# 147
  0
POINT
  8
3
 10
1263.65444872
 20
1368.15938571
  0
POINT
  8
3
 10
1262.14885101
 20
1362.97144775
  0
POINT
  8
3
 10
1259.55337302
 20
1358.14692872
  0
POINT
  8
3
 10
1256.31193695
 20
1353.63148193
  0
POINT
  8
2
 10
1249.15251312
 20
1345.28211670
  0
TEXT
  8
2
 10
1249.15251312
 20
1345.28211670
 40
10.00000000
 50
0.00000000
  1
# 148
  0
ENDBLK
  0
BLOCK
  8
1
  2
16
 70
64
 10
0.0
 20
0.0
  0
LINE
  8
7
 10
2173.30172170
 20
431.61127930
 11
2475.59322560
 21
431.61127930
  0
TEXT
  8
1
 10
0.00000000
 20
0.00000000
 40
10.00000000
 50
0.00000000
  1
Size: 46
  0
TEXT
  8
1
 10
2324.44747365
 20
446.61127930
 40
20.00000000
 50
0.00000000
  1
Piece Name: AFERIA.TC1
  0
TEXT
  8
1
 10
2324.44747365
 20
446.61127930
 40
20.00000000
 50
0.00000000
  1
Quantity: 1
  0
TEXT
  8
1
 10
2324.44747365
 20
446.61127930
 40
20.00000000
 50
0.00000000
  1
Rotation: 0
  0
TEXT
  8
1
 10
2324.44747365
 20
446.61127930
 40
20.00000000
 50
0.00000000
  1
Tilt: 0
  0
TEXT
  8
1
 10
2324.44747365
 20
446.61127930
 40
20.00000000
 50
0.00000000
  1
Fold: N
  0
TEXT
  8
1
 10
2324.44747365
 20
446.61127930
 40
20.00000000
 50
0.00000000
  1
Material: 1
  0
POLYLINE
  8
1
 66
1
 70
1
  0
VERTEX
  8
1
 10
2250.11078110
 20
367.97498779
  0
VERTEX
  8
1
 10
2159.16546860
 20
369.56153564
  0
VERTEX
  8
1
 10
2031.16937485
 20
369.56092529
  0
VERTEX
  8
1
 10
2031.17035141
 20
490.63288574
  0
VERTEX
  8
1
 10
2077.90765610
 20
500.52717285
  0
VERTEX
  8
1
 10
2600.83636703
 20
500.53107910
  0
VERTEX
  8
1
 10
2601.07171860
 20
477.23103027
  0
VERTEX
  8
1
 10
2601.84766928
 20
465.60209035
  0
VERTEX
  8
1
 10
2603.34613266
 20
454.04578857
  0
VERTEX
  8
1
 10
2605.90373454
 20
442.67401396
  0
VERTEX
  8
1
 10
2609.68792953
 20
431.65321045
  0
VERTEX
  8
1
 10
2614.75007077
 20
421.16424439
  0
VERTEX
  8
1
 10
2620.88031235
 20
411.26990967
  0
VERTEX
  8
1
 10
2627.87179767
 20
401.99406890
  0
VERTEX
  8
1
 10
2635.74749985
 20
393.34608154
  0
VERTEX
  8
1
 10
2628.98913169
 20
380.63698938
  0
VERTEX
  8
1
 10
2622.67523422
 20
367.71595459
  0
VERTEX
  8
1
 10
2616.79819574
 20
354.57535851
  0
VERTEX
  8
1
 10
2611.39691391
 20
341.23371582
  0
VERTEX
  8
1
 10
2606.50899021
 20
327.70851780
  0
VERTEX
  8
1
 10
2602.12738266
 20
313.99348145
  0
VERTEX
  8
1
 10
2578.05740509
 20
319.38413523
  0
VERTEX
  8
1
 10
2553.80707016
 20
323.61555176
  0
VERTEX
  8
1
 10
2529.37169338
 20
326.68102130
  0
VERTEX
  8
1
 10
2504.79828110
 20
328.62629395
  0
VERTEX
  8
1
 10
2480.14862312
 20
329.45807521
  0
VERTEX
  8
1
 10
2455.52093735
 20
328.97578125
  0
VERTEX
  8
1
 10
2431.02817868
 20
326.98808167
  0
VERTEX
  8
1
 10
2406.62152328
 20
323.52326660
  0
VERTEX
  8
1
 10
2398.32336459
 20
320.66759351
  0
VERTEX
  8
1
 10
2390.29945288
 20
317.36449497
  0
VERTEX
  8
1
 10
2374.97894516
 20
309.44099121
  0
VERTEX
  8
1
 10
2367.64496356
 20
304.82517877
  0
VERTEX
  8
1
 10
2360.58563442
 20
299.76125410
  0
VERTEX
  8
1
 10
2353.87261885
 20
294.23046581
  0
VERTEX
  8
1
 10
2347.57757797
 20
288.21406250
  0
VERTEX
  8
1
 10
2341.80106690
 20
281.74792705
  0
VERTEX
  8
1
 10
2336.55150954
 20
274.84749118
  0
VERTEX
  8
1
 10
2331.87211530
 20
267.57675209
  0
VERTEX
  8
1
 10
2327.80609360
 20
259.99970703
  0
VERTEX
  8
1
 10
2324.36703373
 20
252.11458166
  0
VERTEX
  8
1
 10
2321.57853091
 20
243.96243498
  0
VERTEX
  8
1
 10
2319.42602623
 20
235.52170386
  0
VERTEX
  8
1
 10
2317.89496078
 20
226.77082520
  0
VERTEX
  8
1
 10
2304.68301683
 20
227.66711431
  0
VERTEX
  8
1
 10
2291.46865621
 20
228.45314667
  0
VERTEX
  8
1
 10
2278.25187893
 20
229.12892229
  0
VERTEX
  8
1
 10
2265.03268498
 20
229.69444115
  0
VERTEX
  8
1
 10
2251.81107437
 20
230.14970328
  0
VERTEX
  8
1
 10
2238.58704709
 20
230.49470865
  0
VERTEX
  8
1
 10
2225.36055358
 20
230.72945795
  0
VERTEX
  8
1
 10
2212.13164339
 20
230.85394967
  0
VERTEX
  8
1
 10
2198.90031651
 20
230.86818382
  0
VERTEX
  8
1
 10
2185.66657295
 20
230.77216039
  0
VERTEX
  8
1
 10
2172.43041271
 20
230.56587939
  0
VERTEX
  8
1
 10
2159.19183578
 20
230.24934082
  0
VERTEX
  8
1
 10
2145.31755678
 20
230.48086919
  0
VERTEX
  8
1
 10
2131.44649800
 20
230.52465234
  0
VERTEX
  8
1
 10
2117.57865944
 20
230.38069028
  0
VERTEX
  8
1
 10
2103.71407614
 20
230.04898407
  0
VERTEX
  8
1
 10
2089.85271304
 20
229.52953360
  0
VERTEX
  8
1
 10
2075.99457016
 20
228.82233887
  0
VERTEX
  8
1
 10
2068.50957148
 20
228.32709869
  0
VERTEX
  8
1
 10
2053.55727401
 20
227.13681005
  0
VERTEX
  8
1
 10
2038.62871221
 20
225.68012482
  0
VERTEX
  8
1
 10
2031.17328110
 20
224.85187988
  0
VERTEX
  8
1
 10
2031.16449203
 20
366.64686279
  0
VERTEX
  8
1
 10
2159.16253891
 20
366.64869385
  0
SEQEND
  0
POLYLINE
  8
84
 66
1
 70
1
  0
VERTEX
  8
84
 10
2250.11078110
 20
367.97498779
  0
VERTEX
  8
84
 10
2159.16546860
 20
369.56153564
  0
VERTEX
  8
84
 10
2031.16937485
 20
369.56092529
  0
VERTEX
  8
84
 10
2031.17035141
 20
490.63288574
  0
VERTEX
  8
84
 10
2077.90765610
 20
500.52717285
  0
VERTEX
  8
84
 10
2600.83636703
 20
500.53107910
  0
VERTEX
  8
84
 10
2601.07171860
 20
477.23103027
  0
VERTEX
  8
84
 10
2601.84766928
 20
465.60209035
  0
VERTEX
  8
84
 10
2603.34613266
 20
454.04578857
  0
VERTEX
  8
84
 10
2605.90373454
 20
442.67401396
  0
VERTEX
  8
84
 10
2609.68792953
 20
431.65321045
  0
VERTEX
  8
84
 10
2614.75007077
 20
421.16424439
  0
VERTEX
  8
84
 10
2620.88031235
 20
411.26990967
  0
VERTEX
  8
84
 10
2627.87179767
 20
401.99406890
  0
VERTEX
  8
84
 10
2635.74749985
 20
393.34608154
  0
VERTEX
  8
84
 10
2628.98913169
 20
380.63698938
  0
VERTEX
  8
84
 10
2622.67523422
 20
367.71595459
  0
VERTEX
  8
84
 10
2616.79819574
 20
354.57535851
  0
VERTEX
  8
84
 10
2611.39691391
 20
341.23371582
  0
VERTEX
  8
84
 10
2606.50899021
 20
327.70851780
  0
VERTEX
  8
84
 10
2602.12738266
 20
313.99348145
  0
VERTEX
  8
84
 10
2578.05740509
 20
319.38413523
  0
VERTEX
  8
84
 10
2553.80707016
 20
323.61555176
  0
VERTEX
  8
84
 10
2529.37169338
 20
326.68102130
  0
VERTEX
  8
84
 10
2504.79828110
 20
328.62629395
  0
VERTEX
  8
84
 10
2480.14862312
 20
329.45807521
  0
VERTEX
  8
84
 10
2455.52093735
 20
328.97578125
  0
VERTEX
  8
84
 10
2431.02817868
 20
326.98808167
  0
VERTEX
  8
84
 10
2406.62152328
 20
323.52326660
  0
VERTEX
  8
84
 10
2398.32336459
 20
320.66759351
  0
VERTEX
  8
84
 10
2390.29945288
 20
317.36449497
  0
VERTEX
  8
84
 10
2374.97894516
 20
309.44099121
  0
VERTEX
  8
84
 10
2367.64496356
 20
304.82517877
  0
VERTEX
  8
84
 10
2360.58563442
 20
299.76125410
  0
VERTEX
  8
84
 10
2353.87261885
 20
294.23046581
  0
VERTEX
  8
84
 10
2347.57757797
 20
288.21406250
  0
VERTEX
  8
84
 10
2341.80106690
 20
281.74792705
  0
VERTEX
  8
84
 10
2336.55150954
 20
274.84749118
  0
VERTEX
  8
84
 10
2331.87211530
 20
267.57675209
  0
VERTEX
  8
84
 10
2327.80609360
 20
259.99970703
  0
VERTEX
  8
84
 10
2324.36703373
 20
252.11458166
  0
VERTEX
  8
84
 10
2321.57853091
 20
243.96243498
  0
VERTEX
  8
84
 10
2319.42602623
 20
235.52170386
  0
VERTEX
  8
84
 10
2317.89496078
 20
226.77082520
  0
VERTEX
  8
84
 10
2304.68301683
 20
227.66711431
  0
VERTEX
  8
84
 10
2291.46865621
 20
228.45314667
  0
VERTEX
  8
84
 10
2278.25187893
 20
229.12892229
  0
VERTEX
  8
84
 10
2265.03268498
 20
229.69444115
  0
VERTEX
  8
84
 10
2251.81107437
 20
230.14970328
  0
VERTEX
  8
84
 10
2238.58704709
 20
230.49470865
  0
VERTEX
  8
84
 10
2225.36055358
 20
230.72945795
  0
VERTEX
  8
84
 10
2212.13164339
 20
230.85394967
  0
VERTEX
  8
84
 10
2198.90031651
 20
230.86818382
  0
VERTEX
  8
84
 10
2185.66657295
 20
230.77216039
  0
VERTEX
  8
84
 10
2172.43041271
 20
230.56587939
  0
VERTEX
  8
84
 10
2159.19183578
 20
230.24934082
  0
VERTEX
  8
84
 10
2145.31755678
 20
230.48086919
  0
VERTEX
  8
84
 10
2131.44649800
 20
230.52465234
  0
VERTEX
  8
84
 10
2117.57865944
 20
230.38069028
  0
VERTEX
  8
84
 10
2103.71407614
 20
230.04898407
  0
VERTEX
  8
84
 10
2089.85271304
 20
229.52953360
  0
VERTEX
  8
84
 10
2075.99457016
 20
228.82233887
  0
VERTEX
  8
84
 10
2068.50957148
 20
228.32709869
  0
VERTEX
  8
84
 10
2053.55727401
 20
227.13681005
  0
VERTEX
  8
84
 10
2038.62871221
 20
225.68012482
  0
VERTEX
  8
84
 10
2031.17328110
 20
224.85187988
  0
VERTEX
  8
84
 10
2031.16449203
 20
366.64686279
  0
VERTEX
  8
84
 10
2159.16253891
 20
366.64869385
  0
SEQEND
  0
POINT
  8
2
 10
2250.11078110
 20
367.97498779
  0
TEXT
  8
2
 10
2250.11078110
 20
367.97498779
 40
10.00000000
 50
0.00000000
  1
# 149
  0
POINT
  8
2
 10
2159.16546860
 20
369.56153564
  0
TEXT
  8
2
 10
2159.16546860
 20
369.56153564
 40
10.00000000
 50
0.00000000
  1
# 150
  0
POINT
  8
2
 10
2031.16937485
 20
369.56092529
  0
TEXT
  8
2
 10
2031.16937485
 20
369.56092529
 40
10.00000000
 50
0.00000000
  1
# 151
  0
POINT
  8
2
 10
2031.17035141
 20
490.63288574
  0
TEXT
  8
2
 10
2031.17035141
 20
490.63288574
 40
10.00000000
 50
0.00000000
  1
# 152
  0
POINT
  8
2
 10
2077.90765610
 20
500.52717285
  0
TEXT
  8
2
 10
2077.90765610
 20
500.52717285
 40
10.00000000
 50
0.00000000
  1
# 153
  0
POINT
  8
2
 10
2600.83636703
 20
500.53107910
  0
TEXT
  8
2
 10
2600.83636703
 20
500.53107910
 40
10.00000000
 50
0.00000000
  1
# 154
  0
POINT
  8
3
 10
2601.07171860
 20
477.23103027
  0
POINT
  8
3
 10
2601.84766928
 20
465.60209035
  0
POINT
  8
3
 10
2603.34613266
 20
454.04578857
  0
POINT
  8
3
 10
2605.90373454
 20
442.67401396
  0
POINT
  8
3
 10
2609.68792953
 20
431.65321045
  0
POINT
  8
3
 10
2614.75007077
 20
421.16424439
  0
POINT
  8
3
 10
2620.88031235
 20
411.26990967
  0
POINT
  8
3
 10
2627.87179767
 20
401.99406890
  0
POINT
  8
2
 10
2635.74749985
 20
393.34608154
  0
TEXT
  8
2
 10
2635.74749985
 20
393.34608154
 40
10.00000000
 50
0.00000000
  1
# 155
  0
POINT
  8
3
 10
2628.98913169
 20
380.63698938
  0
POINT
  8
3
 10
2622.67523422
 20
367.71595459
  0
POINT
  8
3
 10
2616.79819574
 20
354.57535851
  0
POINT
  8
3
 10
2611.39691391
 20
341.23371582
  0
POINT
  8
3
 10
2606.50899021
 20
327.70851780
  0
POINT
  8
2
 10
2602.12738266
 20
313.99348145
  0
TEXT
  8
2
 10
2602.12738266
 20
313.99348145
 40
10.00000000
 50
0.00000000
  1
# 156
  0
POINT
  8
3
 10
2578.05740509
 20
319.38413523
  0
POINT
  8
3
 10
2553.80707016
 20
323.61555176
  0
POINT
  8
3
 10
2529.37169338
 20
326.68102130
  0
POINT
  8
3
 10
2504.79828110
 20
328.62629395
  0
POINT
  8
3
 10
2480.14862312
 20
329.45807521
  0
POINT
  8
3
 10
2455.52093735
 20
328.97578125
  0
POINT
  8
3
 10
2431.02817868
 20
326.98808167
  0
POINT
  8
2
 10
2406.62152328
 20
323.52326660
  0
TEXT
  8
2
 10
2406.62152328
 20
323.52326660
 40
10.00000000
 50
0.00000000
  1
# 157
  0
POINT
  8
3
 10
2398.32336459
 20
320.66759351
  0
POINT
  8
3
 10
2390.29945288
 20
317.36449497
  0
POINT
  8
3
 10
2374.97894516
 20
309.44099121
  0
POINT
  8
3
 10
2367.64496356
 20
304.82517877
  0
POINT
  8
3
 10
2360.58563442
 20
299.76125410
  0
POINT
  8
3
 10
2353.87261885
 20
294.23046581
  0
POINT
  8
3
 10
2347.57757797
 20
288.21406250
  0
POINT
  8
3
 10
2341.80106690
 20
281.74792705
  0
POINT
  8
3
 10
2336.55150954
 20
274.84749118
  0
POINT
  8
3
 10
2331.87211530
 20
267.57675209
  0
POINT
  8
3
 10
2327.80609360
 20
259.99970703
  0
POINT
  8
3
 10
2324.36703373
 20
252.11458166
  0
POINT
  8
3
 10
2321.57853091
 20
243.96243498
  0
POINT
  8
3
 10
2319.42602623
 20
235.52170386
  0
POINT
  8
2
 10
2317.89496078
 20
226.77082520
  0
TEXT
  8
2
 10
2317.89496078
 20
226.77082520
 40
10.00000000
 50
0.00000000
  1
# 158
  0
POINT
  8
3
 10
2304.68301683
 20
227.66711431
  0
POINT
  8
3
 10
2291.46865621
 20
228.45314667
  0
POINT
  8
3
 10
2278.25187893
 20
229.12892229
  0
POINT
  8
3
 10
2265.03268498
 20
229.69444115
  0
POINT
  8
3
 10
2251.81107437
 20
230.14970328
  0
POINT
  8
3
 10
2238.58704709
 20
230.49470865
  0
POINT
  8
3
 10
2225.36055358
 20
230.72945795
  0
POINT
  8
3
 10
2212.13164339
 20
230.85394967
  0
POINT
  8
3
 10
2198.90031651
 20
230.86818382
  0
POINT
  8
3
 10
2185.66657295
 20
230.77216039
  0
POINT
  8
3
 10
2172.43041271
 20
230.56587939
  0
POINT
  8
2
 10
2159.19183578
 20
230.24934082
  0
TEXT
  8
2
 10
2159.19183578
 20
230.24934082
 40
10.00000000
 50
0.00000000
  1
# 159
  0
POINT
  8
3
 10
2145.31755678
 20
230.48086919
  0
POINT
  8
3
 10
2131.44649800
 20
230.52465234
  0
POINT
  8
3
 10
2117.57865944
 20
230.38069028
  0
POINT
  8
3
 10
2103.71407614
 20
230.04898407
  0
POINT
  8
3
 10
2089.85271304
 20
229.52953360
  0
POINT
  8
2
 10
2075.99457016
 20
228.82233887
  0
TEXT
  8
2
 10
2075.99457016
 20
228.82233887
 40
10.00000000
 50
0.00000000
  1
# 160
  0
POINT
  8
3
 10
2068.50957148
 20
228.32709869
  0
POINT
  8
3
 10
2053.55727401
 20
227.13681005
  0
POINT
  8
3
 10
2038.62871221
 20
225.68012482
  0
POINT
  8
2
 10
2031.17328110
 20
224.85187988
  0
TEXT
  8
2
 10
2031.17328110
 20
224.85187988
 40
10.00000000
 50
0.00000000
  1
# 161
  0
POINT
  8
2
 10
2031.16449203
 20
366.64686279
  0
TEXT
  8
2
 10
2031.16449203
 20
366.64686279
 40
10.00000000
 50
0.00000000
  1
# 162
  0
POINT
  8
2
 10
2159.16253891
 20
366.64869385
  0
TEXT
  8
2
 10
2159.16253891
 20
366.64869385
 40
10.00000000
 50
0.00000000
  1
# 163
  0
POINT
  8
4
 10
2159.16546860
 20
369.56153564
 30
7.50000000
 50
449.50042269
  0
TEXT
  8
1
 10
2159.16546860
 20
369.56153564
 40
10.00000000
 50
0.00000000
  1
# 164
  0
POINT
  8
4
 10
2077.90765610
 20
500.52717285
 30
7.50000000
 50
275.97673180
  0
TEXT
  8
1
 10
2077.90765610
 20
500.52717285
 40
10.00000000
 50
0.00000000
  1
# 165
  0
POINT
  8
4
 10
2075.99457016
 20
228.82233887
 30
7.50000000
 50
93.35337378
  0
TEXT
  8
1
 10
2075.99457016
 20
228.82233887
 40
10.00000000
 50
0.00000000
  1
# 166
  0
POINT
  8
4
 10
2159.16253891
 20
366.64869385
 30
7.50000000
 50
270.41815104
  0
TEXT
  8
1
 10
2159.16253891
 20
366.64869385
 40
10.00000000
 50
0.00000000
  1
# 167
  0
ENDBLK
  0
BLOCK
  8
1
  2
17
 70
64
 10
0.0
 20
0.0
  0
LINE
  8
7
 10
2018.55551683
 20
1415.32746086
 11
2050.82114183
 21
1415.32746086
  0
TEXT
  8
1
 10
0.00000000
 20
0.00000000
 40
20.00000000
 50
0.00000000
  1
Size: 46
  0
TEXT
  8
1
 10
2034.68832933
 20
1419.07746086
 40
5.00000000
 50
0.00000000
  1
Piece Name: AFERIA.TC2
  0
TEXT
  8
1
 10
2034.68832933
 20
1419.07746086
 40
5.00000000
 50
0.00000000
  1
Quantity: 1
  0
TEXT
  8
1
 10
2034.68832933
 20
1419.07746086
 40
5.00000000
 50
0.00000000
  1
Rotation: 0
  0
TEXT
  8
1
 10
2034.68832933
 20
1419.07746086
 40
5.00000000
 50
0.00000000
  1
Tilt: 0
  0
TEXT
  8
1
 10
2034.68832933
 20
1419.07746086
 40
5.00000000
 50
0.00000000
  1
Fold: N
  0
TEXT
  8
1
 10
2034.68832933
 20
1419.07746086
 40
5.00000000
 50
0.00000000
  1
Material: 1
  0
POLYLINE
  8
1
 66
1
 70
1
  0
VERTEX
  8
1
 10
2048.51933022
 20
1377.66480217
  0
VERTEX
  8
1
 10
2039.43046303
 20
1375.97290764
  0
VERTEX
  8
1
 10
2034.73612709
 20
1380.91297112
  0
VERTEX
  8
1
 10
2030.22440834
 20
1386.02979240
  0
VERTEX
  8
1
 10
2023.51255247
 20
1394.42791606
  0
VERTEX
  8
1
 10
2017.59257240
 20
1403.37976799
  0
VERTEX
  8
1
 10
2012.78043877
 20
1413.01864311
  0
VERTEX
  8
1
 10
2009.05448647
 20
1423.14783440
  0
VERTEX
  8
1
 10
2006.26914087
 20
1433.54804720
  0
VERTEX
  8
1
 10
2004.23222084
 20
1444.11548576
  0
VERTEX
  8
1
 10
2001.62089272
 20
1465.48255119
  0
VERTEX
  8
1
 10
2000.03593178
 20
1486.94763908
  0
VERTEX
  8
1
 10
2038.31425209
 20
1486.94348869
  0
VERTEX
  8
1
 10
2039.02421303
 20
1469.26209221
  0
VERTEX
  8
1
 10
2040.88749428
 20
1451.67249260
  0
VERTEX
  8
1
 10
2042.82037601
 20
1443.07124694
  0
VERTEX
  8
1
 10
2045.45585365
 20
1434.61792717
  0
VERTEX
  8
1
 10
2048.73899877
 20
1426.34606363
  0
VERTEX
  8
1
 10
2052.90995522
 20
1418.57178459
  0
VERTEX
  8
1
 10
2058.19239896
 20
1411.60497881
  0
VERTEX
  8
1
 10
2064.56718178
 20
1405.36890373
  0
VERTEX
  8
1
 10
2055.38651772
 20
1390.70410881
  0
VERTEX
  8
1
 10
2051.84159584
 20
1384.24292717
  0
SEQEND
  0
POLYLINE
  8
84
 66
1
 70
1
  0
VERTEX
  8
84
 10
2048.51933022
 20
1377.66480217
  0
VERTEX
  8
84
 10
2039.43046303
 20
1375.97290764
  0
VERTEX
  8
84
 10
2034.73612709
 20
1380.91297112
  0
VERTEX
  8
84
 10
2030.22440834
 20
1386.02979240
  0
VERTEX
  8
84
 10
2023.51255247
 20
1394.42791606
  0
VERTEX
  8
84
 10
2017.59257240
 20
1403.37976799
  0
VERTEX
  8
84
 10
2012.78043877
 20
1413.01864311
  0
VERTEX
  8
84
 10
2009.05448647
 20
1423.14783440
  0
VERTEX
  8
84
 10
2006.26914087
 20
1433.54804720
  0
VERTEX
  8
84
 10
2004.23222084
 20
1444.11548576
  0
VERTEX
  8
84
 10
2001.62089272
 20
1465.48255119
  0
VERTEX
  8
84
 10
2000.03593178
 20
1486.94763908
  0
VERTEX
  8
84
 10
2038.31425209
 20
1486.94348869
  0
VERTEX
  8
84
 10
2039.02421303
 20
1469.26209221
  0
VERTEX
  8
84
 10
2040.88749428
 20
1451.67249260
  0
VERTEX
  8
84
 10
2042.82037601
 20
1443.07124694
  0
VERTEX
  8
84
 10
2045.45585365
 20
1434.61792717
  0
VERTEX
  8
84
 10
2048.73899877
 20
1426.34606363
  0
VERTEX
  8
84
 10
2052.90995522
 20
1418.57178459
  0
VERTEX
  8
84
 10
2058.19239896
 20
1411.60497881
  0
VERTEX
  8
84
 10
2064.56718178
 20
1405.36890373
  0
VERTEX
  8
84
 10
2055.38651772
 20
1390.70410881
  0
VERTEX
  8
84
 10
2051.84159584
 20
1384.24292717
  0
SEQEND
  0
POINT
  8
2
 10
2048.51933022
 20
1377.66480217
  0
TEXT
  8
2
 10
2048.51933022
 20
1377.66480217
 40
10.00000000
 50
0.00000000
  1
# 168
  0
POINT
  8
2
 10
2039.43046303
 20
1375.97290764
  0
TEXT
  8
2
 10
2039.43046303
 20
1375.97290764
 40
10.00000000
 50
0.00000000
  1
# 169
  0
POINT
  8
3
 10
2034.73612709
 20
1380.91297112
  0
POINT
  8
3
 10
2030.22440834
 20
1386.02979240
  0
POINT
  8
3
 10
2023.51255247
 20
1394.42791606
  0
POINT
  8
3
 10
2017.59257240
 20
1403.37976799
  0
POINT
  8
3
 10
2012.78043877
 20
1413.01864311
  0
POINT
  8
3
 10
2009.05448647
 20
1423.14783440
  0
POINT
  8
3
 10
2006.26914087
 20
1433.54804720
  0
POINT
  8
3
 10
2004.23222084
 20
1444.11548576
  0
POINT
  8
3
 10
2001.62089272
 20
1465.48255119
  0
POINT
  8
2
 10
2000.03593178
 20
1486.94763908
  0
TEXT
  8
2
 10
2000.03593178
 20
1486.94763908
 40
10.00000000
 50
0.00000000
  1
# 170
  0
POINT
  8
2
 10
2038.31425209
 20
1486.94348869
  0
TEXT
  8
2
 10
2038.31425209
 20
1486.94348869
 40
10.00000000
 50
0.00000000
  1
# 171
  0
POINT
  8
3
 10
2039.02421303
 20
1469.26209221
  0
POINT
  8
3
 10
2040.88749428
 20
1451.67249260
  0
POINT
  8
3
 10
2042.82037601
 20
1443.07124694
  0
POINT
  8
3
 10
2045.45585365
 20
1434.61792717
  0
POINT
  8
3
 10
2048.73899877
 20
1426.34606363
  0
POINT
  8
3
 10
2052.90995522
 20
1418.57178459
  0
POINT
  8
3
 10
2058.19239896
 20
1411.60497881
  0
POINT
  8
2
 10
2064.56718178
 20
1405.36890373
  0
TEXT
  8
2
 10
2064.56718178
 20
1405.36890373
 40
10.00000000
 50
0.00000000
  1
# 172
  0
POINT
  8
3
 10
2055.38651772
 20
1390.70410881
  0
POINT
  8
3
 10
2051.84159584
 20
1384.24292717
  0
POINT
  8
13
 10
2036.64823647
 20
1402.39282951
  0
TEXT
  8
13
 10
2036.64823647
 20
1402.39282951
 40
10.00000000
 50
0.00000000
  1
# 173
  0
POINT
  8
13
 10
2019.41581459
 20
1482.48743401
  0
TEXT
  8
13
 10
2019.41581459
 20
1482.48743401
 40
10.00000000
 50
0.00000000
  1
# 174
  0
POINT
  8
4
 10
2038.31425209
 20
1486.94348869
 30
3.00000000
 50
226.14657464
  0
TEXT
  8
1
 10
2038.31425209
 20
1486.94348869
 40
10.00000000
 50
0.00000000
  1
# 175
  0
POINT
  8
4
 10
2000.03593178
 20
1486.94763908
 30
3.00000000
 50
360.00000000
  0
TEXT
  8
1
 10
2000.03593178
 20
1486.94763908
 40
10.00000000
 50
0.00000000
  1
# 176
  0
ENDBLK
  0
BLOCK
  8
1
  2
18
 70
64
 10
0.0
 20
0.0
  0
LINE
  8
7
 10
1225.24660763
 20
199.90495605
 11
1532.34804806
 21
199.90495605
  0
TEXT
  8
1
 10
0.00000000
 20
0.00000000
 40
5.00000000
 50
0.00000000
  1
Size: 46
  0
TEXT
  8
1
 10
1378.79732784
 20
214.90495605
 40
20.00000000
 50
0.00000000
  1
Piece Name: AFERIA.TRC
  0
TEXT
  8
1
 10
1378.79732784
 20
214.90495605
 40
20.00000000
 50
0.00000000
  1
Quantity: 1
  0
TEXT
  8
1
 10
1378.79732784
 20
214.90495605
 40
20.00000000
 50
0.00000000
  1
Rotation: 0
  0
TEXT
  8
1
 10
1378.79732784
 20
214.90495605
 40
20.00000000
 50
0.00000000
  1
Tilt: 0
  0
TEXT
  8
1
 10
1378.79732784
 20
214.90495605
 40
20.00000000
 50
0.00000000
  1
Fold: N
  0
TEXT
  8
1
 10
1378.79732784
 20
214.90495605
 40
20.00000000
 50
0.00000000
  1
Material: 1
  0
POLYLINE
  8
1
 66
1
 70
1
  0
VERTEX
  8
1
 10
1301.81050606
 20
208.40330200
  0
VERTEX
  8
1
 10
1210.86177559
 20
209.72959595
  0
VERTEX
  8
1
 10
1082.86372871
 20
209.73142700
  0
VERTEX
  8
1
 10
1082.87251778
 20
351.52616577
  0
VERTEX
  8
1
 10
1084.07027168
 20
351.38859253
  0
VERTEX
  8
1
 10
1105.25728340
 20
349.24149780
  0
VERTEX
  8
1
 10
1127.69380684
 20
347.55595093
  0
VERTEX
  8
1
 10
1141.55194769
 20
346.84864771
  0
VERTEX
  8
1
 10
1155.41330977
 20
346.32911587
  0
VERTEX
  8
1
 10
1169.27789308
 20
345.99735543
  0
VERTEX
  8
1
 10
1183.14573163
 20
345.85336625
  0
VERTEX
  8
1
 10
1197.01679143
 20
345.89714939
  0
VERTEX
  8
1
 10
1210.89107246
 20
346.12870483
  0
VERTEX
  8
1
 10
1224.12964837
 20
345.81220924
  0
VERTEX
  8
1
 10
1237.36580781
 20
345.60596288
  0
VERTEX
  8
1
 10
1250.59955079
 20
345.50996575
  0
VERTEX
  8
1
 10
1263.83087729
 20
345.52421784
  0
VERTEX
  8
1
 10
1277.05978733
 20
345.64871916
  0
VERTEX
  8
1
 10
1290.28628090
 20
345.88346972
  0
VERTEX
  8
1
 10
1303.51038957
 20
346.22847045
  0
VERTEX
  8
1
 10
1316.73208177
 20
346.68372094
  0
VERTEX
  8
1
 10
1329.95135748
 20
347.24922119
  0
VERTEX
  8
1
 10
1343.16821671
 20
347.92497119
  0
VERTEX
  8
1
 10
1356.38265947
 20
348.71097095
  0
VERTEX
  8
1
 10
1369.59468575
 20
349.60722046
  0
VERTEX
  8
1
 10
1371.12559618
 20
340.85632352
  0
VERTEX
  8
1
 10
1373.27796873
 20
332.41557873
  0
VERTEX
  8
1
 10
1376.06636092
 20
324.26341909
  0
VERTEX
  8
1
 10
1379.50533028
 20
316.37827759
  0
VERTEX
  8
1
 10
1383.57121787
 20
308.80132006
  0
VERTEX
  8
1
 10
1388.25048259
 20
301.53066452
  0
VERTEX
  8
1
 10
1393.49992018
 20
294.63031820
  0
VERTEX
  8
1
 10
1399.27632637
 20
288.16428833
  0
VERTEX
  8
1
 10
1405.57146144
 20
282.14785146
  0
VERTEX
  8
1
 10
1412.28460143
 20
276.61706486
  0
VERTEX
  8
1
 10
1419.34406775
 20
271.55315782
  0
VERTEX
  8
1
 10
1426.67818184
 20
266.93735962
  0
VERTEX
  8
1
 10
1441.99895159
 20
259.01380887
  0
VERTEX
  8
1
 10
1450.02297793
 20
255.71067306
  0
VERTEX
  8
1
 10
1458.32124825
 20
252.85496216
  0
VERTEX
  8
1
 10
1482.72790364
 20
249.39011780
  0
VERTEX
  8
1
 10
1507.22066231
 20
247.40244751
  0
VERTEX
  8
1
 10
1531.84785900
 20
246.92024826
  0
VERTEX
  8
1
 10
1556.49702950
 20
247.75205688
  0
VERTEX
  8
1
 10
1581.07105291
 20
249.69732825
  0
VERTEX
  8
1
 10
1605.50703926
 20
252.76279907
  0
VERTEX
  8
1
 10
1629.75737181
 20
256.99415725
  0
VERTEX
  8
1
 10
1653.82735176
 20
262.38474731
  0
VERTEX
  8
1
 10
1659.59853793
 20
246.16363153
  0
VERTEX
  8
1
 10
1665.77754707
 20
230.09666138
  0
VERTEX
  8
1
 10
1672.31537516
 20
214.15616278
  0
VERTEX
  8
1
 10
1679.55000801
 20
198.54734497
  0
VERTEX
  8
1
 10
1687.81571119
 20
183.48238132
  0
VERTEX
  8
1
 10
1697.06660957
 20
168.92631226
  0
VERTEX
  8
1
 10
1690.13381971
 20
161.63160271
  0
VERTEX
  8
1
 10
1684.46309395
 20
153.55765991
  0
VERTEX
  8
1
 10
1680.07913542
 20
144.61858258
  0
VERTEX
  8
1
 10
1676.71700020
 20
135.15482788
  0
VERTEX
  8
1
 10
1674.09281805
 20
125.51331601
  0
VERTEX
  8
1
 10
1672.26680489
 20
115.73392944
  0
VERTEX
  8
1
 10
1671.30131819
 20
105.80716368
  0
VERTEX
  8
1
 10
1670.88789864
 20
95.82096558
  0
VERTEX
  8
1
 10
1670.81367989
 20
75.85172729
  0
VERTEX
  8
1
 10
1129.60689278
 20
75.85123901
  0
VERTEX
  8
1
 10
1082.86958809
 20
85.74577026
  0
VERTEX
  8
1
 10
1082.86861153
 20
206.81736450
  0
VERTEX
  8
1
 10
1210.86568184
 20
206.81675415
  0
SEQEND
  0
POLYLINE
  8
84
 66
1
 70
1
  0
VERTEX
  8
84
 10
1301.81050606
 20
208.40330200
  0
VERTEX
  8
84
 10
1210.86177559
 20
209.72959595
  0
VERTEX
  8
84
 10
1082.86372871
 20
209.73142700
  0
VERTEX
  8
84
 10
1082.87251778
 20
351.52616577
  0
VERTEX
  8
84
 10
1084.07027168
 20
351.38859253
  0
VERTEX
  8
84
 10
1105.25728340
 20
349.24149780
  0
VERTEX
  8
84
 10
1127.69380684
 20
347.55595093
  0
VERTEX
  8
84
 10
1141.55194769
 20
346.84864771
  0
VERTEX
  8
84
 10
1155.41330977
 20
346.32911587
  0
VERTEX
  8
84
 10
1169.27789308
 20
345.99735543
  0
VERTEX
  8
84
 10
1183.14573163
 20
345.85336625
  0
VERTEX
  8
84
 10
1197.01679143
 20
345.89714939
  0
VERTEX
  8
84
 10
1210.89107246
 20
346.12870483
  0
VERTEX
  8
84
 10
1224.12964837
 20
345.81220924
  0
VERTEX
  8
84
 10
1237.36580781
 20
345.60596288
  0
VERTEX
  8
84
 10
1250.59955079
 20
345.50996575
  0
VERTEX
  8
84
 10
1263.83087729
 20
345.52421784
  0
VERTEX
  8
84
 10
1277.05978733
 20
345.64871916
  0
VERTEX
  8
84
 10
1290.28628090
 20
345.88346972
  0
VERTEX
  8
84
 10
1303.51038957
 20
346.22847045
  0
VERTEX
  8
84
 10
1316.73208177
 20
346.68372094
  0
VERTEX
  8
84
 10
1329.95135748
 20
347.24922119
  0
VERTEX
  8
84
 10
1343.16821671
 20
347.92497119
  0
VERTEX
  8
84
 10
1356.38265947
 20
348.71097095
  0
VERTEX
  8
84
 10
1369.59468575
 20
349.60722046
  0
VERTEX
  8
84
 10
1371.12559618
 20
340.85632352
  0
VERTEX
  8
84
 10
1373.27796873
 20
332.41557873
  0
VERTEX
  8
84
 10
1376.06636092
 20
324.26341909
  0
VERTEX
  8
84
 10
1379.50533028
 20
316.37827759
  0
VERTEX
  8
84
 10
1383.57121787
 20
308.80132006
  0
VERTEX
  8
84
 10
1388.25048259
 20
301.53066452
  0
VERTEX
  8
84
 10
1393.49992018
 20
294.63031820
  0
VERTEX
  8
84
 10
1399.27632637
 20
288.16428833
  0
VERTEX
  8
84
 10
1405.57146144
 20
282.14785146
  0
VERTEX
  8
84
 10
1412.28460143
 20
276.61706486
  0
VERTEX
  8
84
 10
1419.34406775
 20
271.55315782
  0
VERTEX
  8
84
 10
1426.67818184
 20
266.93735962
  0
VERTEX
  8
84
 10
1441.99895159
 20
259.01380887
  0
VERTEX
  8
84
 10
1450.02297793
 20
255.71067306
  0
VERTEX
  8
84
 10
1458.32124825
 20
252.85496216
  0
VERTEX
  8
84
 10
1482.72790364
 20
249.39011780
  0
VERTEX
  8
84
 10
1507.22066231
 20
247.40244751
  0
VERTEX
  8
84
 10
1531.84785900
 20
246.92024826
  0
VERTEX
  8
84
 10
1556.49702950
 20
247.75205688
  0
VERTEX
  8
84
 10
1581.07105291
 20
249.69732825
  0
VERTEX
  8
84
 10
1605.50703926
 20
252.76279907
  0
VERTEX
  8
84
 10
1629.75737181
 20
256.99415725
  0
VERTEX
  8
84
 10
1653.82735176
 20
262.38474731
  0
VERTEX
  8
84
 10
1659.59853793
 20
246.16363153
  0
VERTEX
  8
84
 10
1665.77754707
 20
230.09666138
  0
VERTEX
  8
84
 10
1672.31537516
 20
214.15616278
  0
VERTEX
  8
84
 10
1679.55000801
 20
198.54734497
  0
VERTEX
  8
84
 10
1687.81571119
 20
183.48238132
  0
VERTEX
  8
84
 10
1697.06660957
 20
168.92631226
  0
VERTEX
  8
84
 10
1690.13381971
 20
161.63160271
  0
VERTEX
  8
84
 10
1684.46309395
 20
153.55765991
  0
VERTEX
  8
84
 10
1680.07913542
 20
144.61858258
  0
VERTEX
  8
84
 10
1676.71700020
 20
135.15482788
  0
VERTEX
  8
84
 10
1674.09281805
 20
125.51331601
  0
VERTEX
  8
84
 10
1672.26680489
 20
115.73392944
  0
VERTEX
  8
84
 10
1671.30131819
 20
105.80716368
  0
VERTEX
  8
84
 10
1670.88789864
 20
95.82096558
  0
VERTEX
  8
84
 10
1670.81367989
 20
75.85172729
  0
VERTEX
  8
84
 10
1129.60689278
 20
75.85123901
  0
VERTEX
  8
84
 10
1082.86958809
 20
85.74577026
  0
VERTEX
  8
84
 10
1082.86861153
 20
206.81736450
  0
VERTEX
  8
84
 10
1210.86568184
 20
206.81675415
  0
SEQEND
  0
POINT
  8
2
 10
1301.81050606
 20
208.40330200
  0
TEXT
  8
2
 10
1301.81050606
 20
208.40330200
 40
10.00000000
 50
0.00000000
  1
# 177
  0
POINT
  8
2
 10
1210.86177559
 20
209.72959595
  0
TEXT
  8
2
 10
1210.86177559
 20
209.72959595
 40
10.00000000
 50
0.00000000
  1
# 178
  0
POINT
  8
2
 10
1082.86372871
 20
209.73142700
  0
TEXT
  8
2
 10
1082.86372871
 20
209.73142700
 40
10.00000000
 50
0.00000000
  1
# 179
  0
POINT
  8
2
 10
1082.87251778
 20
351.52616577
  0
TEXT
  8
2
 10
1082.87251778
 20
351.52616577
 40
10.00000000
 50
0.00000000
  1
# 180
  0
POINT
  8
3
 10
1084.07027168
 20
351.38859253
  0
POINT
  8
3
 10
1105.25728340
 20
349.24149780
  0
POINT
  8
2
 10
1127.69380684
 20
347.55595093
  0
TEXT
  8
2
 10
1127.69380684
 20
347.55595093
 40
10.00000000
 50
0.00000000
  1
# 181
  0
POINT
  8
3
 10
1141.55194769
 20
346.84864771
  0
POINT
  8
3
 10
1155.41330977
 20
346.32911587
  0
POINT
  8
3
 10
1169.27789308
 20
345.99735543
  0
POINT
  8
3
 10
1183.14573163
 20
345.85336625
  0
POINT
  8
3
 10
1197.01679143
 20
345.89714939
  0
POINT
  8
2
 10
1210.89107246
 20
346.12870483
  0
TEXT
  8
2
 10
1210.89107246
 20
346.12870483
 40
10.00000000
 50
0.00000000
  1
# 182
  0
POINT
  8
3
 10
1224.12964837
 20
345.81220924
  0
POINT
  8
3
 10
1237.36580781
 20
345.60596288
  0
POINT
  8
3
 10
1250.59955079
 20
345.50996575
  0
POINT
  8
3
 10
1263.83087729
 20
345.52421784
  0
POINT
  8
3
 10
1277.05978733
 20
345.64871916
  0
POINT
  8
3
 10
1290.28628090
 20
345.88346972
  0
POINT
  8
3
 10
1303.51038957
 20
346.22847045
  0
POINT
  8
3
 10
1316.73208177
 20
346.68372094
  0
POINT
  8
3
 10
1329.95135748
 20
347.24922119
  0
POINT
  8
3
 10
1343.16821671
 20
347.92497119
  0
POINT
  8
3
 10
1356.38265947
 20
348.71097095
  0
POINT
  8
2
 10
1369.59468575
 20
349.60722046
  0
TEXT
  8
2
 10
1369.59468575
 20
349.60722046
 40
10.00000000
 50
0.00000000
  1
# 183
  0
POINT
  8
3
 10
1371.12559618
 20
340.85632352
  0
POINT
  8
3
 10
1373.27796873
 20
332.41557873
  0
POINT
  8
3
 10
1376.06636092
 20
324.26341909
  0
POINT
  8
3
 10
1379.50533028
 20
316.37827759
  0
POINT
  8
3
 10
1383.57121787
 20
308.80132006
  0
POINT
  8
3
 10
1388.25048259
 20
301.53066452
  0
POINT
  8
3
 10
1393.49992018
 20
294.63031820
  0
POINT
  8
3
 10
1399.27632637
 20
288.16428833
  0
POINT
  8
3
 10
1405.57146144
 20
282.14785146
  0
POINT
  8
3
 10
1412.28460143
 20
276.61706486
  0
POINT
  8
3
 10
1419.34406775
 20
271.55315782
  0
POINT
  8
3
 10
1426.67818184
 20
266.93735962
  0
POINT
  8
3
 10
1441.99895159
 20
259.01380887
  0
POINT
  8
3
 10
1450.02297793
 20
255.71067306
  0
POINT
  8
2
 10
1458.32124825
 20
252.85496216
  0
TEXT
  8
2
 10
1458.32124825
 20
252.85496216
 40
10.00000000
 50
0.00000000
  1
# 184
  0
POINT
  8
3
 10
1482.72790364
 20
249.39011780
  0
POINT
  8
3
 10
1507.22066231
 20
247.40244751
  0
POINT
  8
3
 10
1531.84785900
 20
246.92024826
  0
POINT
  8
3
 10
1556.49702950
 20
247.75205688
  0
POINT
  8
3
 10
1581.07105291
 20
249.69732825
  0
POINT
  8
3
 10
1605.50703926
 20
252.76279907
  0
POINT
  8
3
 10
1629.75737181
 20
256.99415725
  0
POINT
  8
2
 10
1653.82735176
 20
262.38474731
  0
TEXT
  8
2
 10
1653.82735176
 20
262.38474731
 40
10.00000000
 50
0.00000000
  1
# 185
  0
POINT
  8
3
 10
1659.59853793
 20
246.16363153
  0
POINT
  8
3
 10
1665.77754707
 20
230.09666138
  0
POINT
  8
3
 10
1672.31537516
 20
214.15616278
  0
POINT
  8
3
 10
1679.55000801
 20
198.54734497
  0
POINT
  8
3
 10
1687.81571119
 20
183.48238132
  0
POINT
  8
2
 10
1697.06660957
 20
168.92631226
  0
TEXT
  8
2
 10
1697.06660957
 20
168.92631226
 40
10.00000000
 50
0.00000000
  1
# 186
  0
POINT
  8
3
 10
1690.13381971
 20
161.63160271
  0
POINT
  8
3
 10
1684.46309395
 20
153.55765991
  0
POINT
  8
3
 10
1680.07913542
 20
144.61858258
  0
POINT
  8
3
 10
1676.71700020
 20
135.15482788
  0
POINT
  8
3
 10
1674.09281805
 20
125.51331601
  0
POINT
  8
3
 10
1672.26680489
 20
115.73392944
  0
POINT
  8
3
 10
1671.30131819
 20
105.80716368
  0
POINT
  8
3
 10
1670.88789864
 20
95.82096558
  0
POINT
  8
2
 10
1670.81367989
 20
75.85172729
  0
TEXT
  8
2
 10
1670.81367989
 20
75.85172729
 40
10.00000000
 50
0.00000000
  1
# 187
  0
POINT
  8
2
 10
1129.60689278
 20
75.85123901
  0
TEXT
  8
2
 10
1129.60689278
 20
75.85123901
 40
10.00000000
 50
0.00000000
  1
# 188
  0
POINT
  8
2
 10
1082.86958809
 20
85.74577026
  0
TEXT
  8
2
 10
1082.86958809
 20
85.74577026
 40
10.00000000
 50
0.00000000
  1
# 189
  0
POINT
  8
2
 10
1082.86861153
 20
206.81736450
  0
TEXT
  8
2
 10
1082.86861153
 20
206.81736450
 40
10.00000000
 50
0.00000000
  1
# 190
  0
POINT
  8
2
 10
1210.86568184
 20
206.81675415
  0
TEXT
  8
2
 10
1210.86568184
 20
206.81675415
 40
10.00000000
 50
0.00000000
  1
# 191
  0
POINT
  8
4
 10
1210.86177559
 20
209.72959595
 30
7.50000000
 50
449.58185120
  0
TEXT
  8
1
 10
1210.86177559
 20
209.72959595
 40
10.00000000
 50
0.00000000
  1
# 192
  0
POINT
  8
4
 10
1127.69380684
 20
347.55595093
 30
7.50000000
 50
266.39097155
  0
TEXT
  8
1
 10
1127.69380684
 20
347.55595093
 40
10.00000000
 50
0.00000000
  1
# 193
  0
POINT
  8
4
 10
1129.60689278
 20
75.85123901
 30
7.50000000
 50
444.02336482
  0
TEXT
  8
1
 10
1129.60689278
 20
75.85123901
 40
10.00000000
 50
0.00000000
  1
# 194
  0
POINT
  8
4
 10
1210.86568184
 20
206.81675415
 30
7.50000000
 50
270.49957999
  0
TEXT
  8
1
 10
1210.86568184
 20
206.81675415
 40
10.00000000
 50
0.00000000
  1
# 195
  0
ENDBLK
  0
BLOCK
  8
1
  2
19
 70
64
 10
0.0
 20
0.0
  0
LINE
  8
7
 10
663.32453239
 20
1810.08615894
 11
703.32453239
 21
1810.08615894
  0
TEXT
  8
1
 10
0.00000000
 20
0.00000000
 40
20.00000000
 50
0.00000000
  1
Size: 46
  0
TEXT
  8
1
 10
683.32453239
 20
1813.83615894
 40
5.00000000
 50
0.00000000
  1
Piece Name: AFERIA.VIC
  0
TEXT
  8
1
 10
683.32453239
 20
1813.83615894
 40
5.00000000
 50
0.00000000
  1
Quantity: 1
  0
TEXT
  8
1
 10
683.32453239
 20
1813.83615894
 40
5.00000000
 50
0.00000000
  1
Rotation: 0
  0
TEXT
  8
1
 10
683.32453239
 20
1813.83615894
 40
5.00000000
 50
0.00000000
  1
Tilt: 0
  0
TEXT
  8
1
 10
683.32453239
 20
1813.83615894
 40
5.00000000
 50
0.00000000
  1
Fold: N
  0
TEXT
  8
1
 10
683.32453239
 20
1813.83615894
 40
5.00000000
 50
0.00000000
  1
Material: 1
  0
POLYLINE
  8
1
 66
1
 70
1
  0
VERTEX
  8
1
 10
643.32282829
 20
1675.08615894
  0
VERTEX
  8
1
 10
643.32282829
 20
1825.08615894
  0
VERTEX
  8
1
 10
723.32282829
 20
1825.08615894
  0
VERTEX
  8
1
 10
723.32282829
 20
1675.08615894
  0
SEQEND
  0
POLYLINE
  8
84
 66
1
 70
1
  0
VERTEX
  8
84
 10
643.32282829
 20
1675.08615894
  0
VERTEX
  8
84
 10
643.32282829
 20
1825.08615894
  0
VERTEX
  8
84
 10
723.32282829
 20
1825.08615894
  0
VERTEX
  8
84
 10
723.32282829
 20
1675.08615894
  0
SEQEND
  0
POINT
  8
2
 10
643.32282829
 20
1675.08615894
  0
TEXT
  8
2
 10
643.32282829
 20
1675.08615894
 40
10.00000000
 50
0.00000000
  1
# 196
  0
POINT
  8
2
 10
643.32282829
 20
1825.08615894
  0
TEXT
  8
2
 10
643.32282829
 20
1825.08615894
 40
10.00000000
 50
0.00000000
  1
# 197
  0
POINT
  8
2
 10
723.32282829
 20
1825.08615894
  0
TEXT
  8
2
 10
723.32282829
 20
1825.08615894
 40
10.00000000
 50
0.00000000
  1
# 198
  0
POINT
  8
2
 10
723.32282829
 20
1675.08615894
  0
TEXT
  8
2
 10
723.32282829
 20
1675.08615894
 40
10.00000000
 50
0.00000000
  1
# 199
  0
ENDBLK
  0
BLOCK
  8
1
  2
20
 70
64
 10
0.0
 20
0.0
  0
LINE
  8
7
 10
488.82309196
 20
1734.58615894
 11
563.82309196
 21
1734.58615894
  0
TEXT
  8
1
 10
0.00000000
 20
0.00000000
 40
5.00000000
 50
0.00000000
  1
Size: 46
  0
TEXT
  8
1
 10
526.32309196
 20
1738.33615894
 40
5.00000000
 50
0.00000000
  1
Piece Name: AFERIA.VIF
  0
TEXT
  8
1
 10
526.32309196
 20
1738.33615894
 40
5.00000000
 50
0.00000000
  1
Quantity: 1
  0
TEXT
  8
1
 10
526.32309196
 20
1738.33615894
 40
5.00000000
 50
0.00000000
  1
Rotation: 0
  0
TEXT
  8
1
 10
526.32309196
 20
1738.33615894
 40
5.00000000
 50
0.00000000
  1
Tilt: 0
  0
TEXT
  8
1
 10
526.32309196
 20
1738.33615894
 40
5.00000000
 50
0.00000000
  1
Fold: N
  0
TEXT
  8
1
 10
526.32309196
 20
1738.33615894
 40
5.00000000
 50
0.00000000
  1
Material: 1
  0
POLYLINE
  8
1
 66
1
 70
1
  0
VERTEX
  8
1
 10
451.32282829
 20
1757.08615894
  0
VERTEX
  8
1
 10
601.32282829
 20
1757.08615894
  0
VERTEX
  8
1
 10
601.32282829
 20
1667.08615894
  0
VERTEX
  8
1
 10
451.32282829
 20
1667.08615894
  0
SEQEND
  0
POLYLINE
  8
84
 66
1
 70
1
  0
VERTEX
  8
84
 10
451.32282829
 20
1757.08615894
  0
VERTEX
  8
84
 10
601.32282829
 20
1757.08615894
  0
VERTEX
  8
84
 10
601.32282829
 20
1667.08615894
  0
VERTEX
  8
84
 10
451.32282829
 20
1667.08615894
  0
SEQEND
  0
POINT
  8
2
 10
451.32282829
 20
1757.08615894
  0
TEXT
  8
2
 10
451.32282829
 20
1757.08615894
 40
10.00000000
 50
0.00000000
  1
# 200
  0
POINT
  8
2
 10
601.32282829
 20
1757.08615894
  0
TEXT
  8
2
 10
601.32282829
 20
1757.08615894
 40
10.00000000
 50
0.00000000
  1
# 201
  0
POINT
  8
2
 10
601.32282829
 20
1667.08615894
  0
TEXT
  8
2
 10
601.32282829
 20
1667.08615894
 40
10.00000000
 50
0.00000000
  1
# 202
  0
POINT
  8
2
 10
451.32282829
 20
1667.08615894
  0
TEXT
  8
2
 10
451.32282829
 20
1667.08615894
 40
10.00000000
 50
0.00000000
  1
# 203
  0
ENDBLK
  0
ENDSEC
  0
SECTION
  2
ENTITIES
  0
LINE
  8
9
 10
0.00000000
 20
0.00000000
 11
0.00000000
 21
0.00000000
  0
LINE
  8
10
 10
0.00000000
 20
0.00000000
 11
0.00000000
 21
0.00000000
  0
INSERT
  8
1
  2
1
 10
0.0
 20
0.0
  0
INSERT
  8
1
  2
2
 10
0.0
 20
0.0
  0
INSERT
  8
1
  2
3
 10
0.0
 20
0.0
  0
INSERT
  8
1
  2
4
 10
0.0
 20
0.0
  0
INSERT
  8
1
  2
5
 10
0.0
 20
0.0
  0
INSERT
  8
1
  2
6
 10
0.0
 20
0.0
  0
INSERT
  8
1
  2
7
 10
0.0
 20
0.0
  0
INSERT
  8
1
  2
8
 10
0.0
 20
0.0
  0
INSERT
  8
1
  2
9
 10
0.0
 20
0.0
  0
INSERT
  8
1
  2
10
 10
0.0
 20
0.0
  0
INSERT
  8
1
  2
11
 10
0.0
 20
0.0
  0
INSERT
  8
1
  2
12
 10
0.0
 20
0.0
  0
INSERT
  8
1
  2
13
 10
0.0
 20
0.0
  0
INSERT
  8
1
  2
14
 10
0.0
 20
0.0
  0
INSERT
  8
1
  2
15
 10
0.0
 20
0.0
  0
INSERT
  8
1
  2
16
 10
0.0
 20
0.0
  0
INSERT
  8
1
  2
17
 10
0.0
 20
0.0
  0
INSERT
  8
1
  2
18
 10
0.0
 20
0.0
  0
INSERT
  8
1
  2
19
 10
0.0
 20
0.0
  0
INSERT
  8
1
  2
20
 10
0.0
 20
0.0
  0
TEXT
  8
1
 10
0.00000000
 20
0.00000000
 40
10.00000000
 50
0.00000000
  1
Style Name: ASTM D 6673
  0
TEXT
  8
1
 10
0.00000000
 20
0.00000000
 40
10.00000000
 50
0.00000000
  1
Grade Rule Table: FERIA
  0
TEXT
  8
1
 10
0.00000000
 20
0.00000000
 40
10.00000000
 50
0.00000000
  1
Sample Size: 46
  0
TEXT
  8
1
 10
0.00000000
 20
0.00000000
 40
10.00000000
 50
0.00000000
  1
Units: METRIC
  0
TEXT
  8
1
 10
0.00000000
 20
0.00000000
 40
10.00000000
 50
0.00000000
  1
Creation Date: 12-1-2025
  0
TEXT
  8
1
 10
0.00000000
 20
0.00000000
 40
10.00000000
 50
0.00000000
  1
Creation Time: 20:57
  0
TEXT
  8
1
 10
0.00000000
 20
0.00000000
 40
10.00000000
 50
0.00000000
  1
Author: Audaces; Audaces Vesturio 2015
  0
TEXT
  8
1
 10
0.00000000
 20
0.00000000
 40
10.00000000
 50
0.00000000
  1
Curve Tolerance: 0.025
  0
TEXT
  8
1
 10
0.00000000
 20
0.00000000
 40
10.00000000
 50
0.00000000
  1
ASTM/PDE: 1
  0
ENDSEC
  0
EOF
