  0
SECTION
  2
BLOCKS
  0
BLOCK
  8
1
  2
1
 70
64
 10
0.0
 20
0.0
  0
LINE
  8
7
 10
239.63995766
 20
974.15698242
 11
560.02960610
 21
974.15698242
  0
TEXT
  8
1
 10
0.00000000
 20
0.00000000
 40
10.00000000
 50
0.00000000
  1
Size: 46
  0
TEXT
  8
1
 10
399.83478188
 20
989.15698242
 40
20.00000000
 50
0.00000000
  1
Piece Name: AHAVANA.D
  0
TEXT
  8
1
 10
399.83478188
 20
989.15698242
 40
20.00000000
 50
0.00000000
  1
Quantity: 1
  0
TEXT
  8
1
 10
399.83478188
 20
989.15698242
 40
20.00000000
 50
0.00000000
  1
Rotation: 0
  0
TEXT
  8
1
 10
399.83478188
 20
989.15698242
 40
20.00000000
 50
0.00000000
  1
Tilt: 0
  0
TEXT
  8
1
 10
399.83478188
 20
989.15698242
 40
20.00000000
 50
0.00000000
  1
Fold: N
  0
TEXT
  8
1
 10
399.83478188
 20
989.15698242
 40
20.00000000
 50
0.00000000
  1
Material: 1
  0
POLYLINE
  8
1
 66
1
 70
1
  0
VERTEX
  8
1
 10
369.83458939
 20
963.89296875
  0
VERTEX
  8
1
 10
125.47326126
 20
963.63320312
  0
VERTEX
  8
1
 10
125.93615189
 20
973.89394531
  0
VERTEX
  8
1
 10
120.69689407
 20
1060.07851562
  0
VERTEX
  8
1
 10
123.40587845
 20
1165.07851562
  0
VERTEX
  8
1
 10
160.40587845
 20
1165.07851562
  0
VERTEX
  8
1
 10
324.80138626
 20
1165.07949219
  0
VERTEX
  8
1
 10
348.80138626
 20
1165.07949219
  0
VERTEX
  8
1
 10
362.56367500
 20
1151.94709260
  0
VERTEX
  8
1
 10
376.74775573
 20
1139.40352078
  0
VERTEX
  8
1
 10
391.34927673
 20
1127.40594248
  0
VERTEX
  8
1
 10
406.36388626
 20
1115.91152344
  0
VERTEX
  8
1
 10
421.78384384
 20
1104.91031562
  0
VERTEX
  8
1
 10
437.62525578
 20
1094.49747903
  0
VERTEX
  8
1
 10
453.90116851
 20
1084.80143027
  0
VERTEX
  8
1
 10
470.62462845
 20
1075.95058594
  0
VERTEX
  8
1
 10
487.79773789
 20
1068.01740369
  0
VERTEX
  8
1
 10
505.32996023
 20
1060.87240802
  0
VERTEX
  8
1
 10
523.11937996
 20
1054.32924546
  0
VERTEX
  8
1
 10
541.06408157
 20
1048.20156250
  0
VERTEX
  8
1
 10
559.09142532
 20
1042.33348569
  0
VERTEX
  8
1
 10
577.18047349
 20
1036.71221344
  0
VERTEX
  8
1
 10
595.33949952
 20
1031.35514697
  0
VERTEX
  8
1
 10
613.57677689
 20
1026.27968750
  0
VERTEX
  8
1
 10
631.89713643
 20
1021.49335790
  0
VERTEX
  8
1
 10
650.28841722
 20
1016.96499856
  0
VERTEX
  8
1
 10
668.73501066
 20
1012.65355400
  0
VERTEX
  8
1
 10
687.22130814
 20
1008.51796875
  0
VERTEX
  8
1
 10
705.73587494
 20
1004.52616144
  0
VERTEX
  8
1
 10
724.27974221
 20
1000.68285425
  0
VERTEX
  8
1
 10
742.85811315
 20
997.00173322
  0
VERTEX
  8
1
 10
761.47619095
 20
993.49648437
  0
VERTEX
  8
1
 10
753.68661940
 20
976.38229996
  0
VERTEX
  8
1
 10
746.14025345
 20
959.16250000
  0
VERTEX
  8
1
 10
738.83090066
 20
941.83832677
  0
VERTEX
  8
1
 10
731.80138626
 20
924.39980469
  0
VERTEX
  8
1
 10
725.09483286
 20
906.83780193
  0
VERTEX
  8
1
 10
718.70470657
 20
889.15273437
  0
VERTEX
  8
1
 10
694.77892337
 20
895.12970849
  0
VERTEX
  8
1
 10
670.69689407
 20
900.31582031
  0
VERTEX
  8
1
 10
646.45061929
 20
904.66935301
  0
VERTEX
  8
1
 10
622.08654251
 20
908.48378906
  0
VERTEX
  8
1
 10
597.65438314
 20
911.92133344
  0
VERTEX
  8
1
 10
573.14611282
 20
914.28554687
  0
VERTEX
  8
1
 10
548.56007779
 20
914.86718469
  0
VERTEX
  8
1
 10
523.88732376
 20
913.76894531
  0
VERTEX
  8
1
 10
516.62086242
 20
912.05306324
  0
VERTEX
  8
1
 10
509.69509717
 20
909.78556235
  0
VERTEX
  8
1
 10
503.07320889
 20
906.96385450
  0
VERTEX
  8
1
 10
496.71837845
 20
903.58535156
  0
VERTEX
  8
1
 10
490.64768608
 20
899.66989696
  0
VERTEX
  8
1
 10
484.91452965
 20
895.20824428
  0
VERTEX
  8
1
 10
479.62846363
 20
890.20809446
  0
VERTEX
  8
1
 10
474.89904251
 20
884.67714844
  0
VERTEX
  8
1
 10
470.81828843
 20
878.63997110
  0
VERTEX
  8
1
 10
467.41128956
 20
872.19352670
  0
VERTEX
  8
1
 10
464.68542303
 20
865.45178380
  0
VERTEX
  8
1
 10
462.64806595
 20
858.52871094
  0
VERTEX
  8
1
 10
461.29960534
 20
851.47496275
  0
VERTEX
  8
1
 10
460.65206554
 20
844.31479468
  0
VERTEX
  8
1
 10
460.70296539
 20
837.00987576
  0
VERTEX
  8
1
 10
461.44982376
 20
829.52187500
  0
VERTEX
  8
1
 10
444.28384595
 20
829.98830829
  0
VERTEX
  8
1
 10
427.12003825
 20
830.27823507
  0
VERTEX
  8
1
 10
409.95901392
 20
830.35331189
  0
VERTEX
  8
1
 10
392.80138626
 20
830.17519531
  0
VERTEX
  8
1
 10
375.64860407
 20
829.73114605
  0
VERTEX
  8
1
 10
358.49799162
 20
829.11061867
  0
VERTEX
  8
1
 10
324.19591751
 20
827.80019531
  0
VERTEX
  8
1
 10
292.68810501
 20
826.94472656
  0
VERTEX
  8
1
 10
278.32529115
 20
826.65821639
  0
VERTEX
  8
1
 10
263.96608717
 20
826.27194654
  0
VERTEX
  8
1
 10
249.61049306
 20
825.78591703
  0
VERTEX
  8
1
 10
232.09289952
 20
825.05746970
  0
VERTEX
  8
1
 10
214.58068423
 20
824.18039319
  0
VERTEX
  8
1
 10
197.07384720
 20
823.15468750
  0
VERTEX
  8
1
 10
189.60664351
 20
822.44255971
  0
VERTEX
  8
1
 10
174.69400522
 20
820.83145007
  0
VERTEX
  8
1
 10
159.81041958
 20
818.97120531
  0
VERTEX
  8
1
 10
152.37951126
 20
817.94765625
  0
VERTEX
  8
1
 10
125.93908157
 20
952.32363281
  0
VERTEX
  8
1
 10
125.49376907
 20
962.99453125
  0
SEQEND
  0
POLYLINE
  8
84
 66
1
 70
1
  0
VERTEX
  8
84
 10
369.83458939
 20
963.89296875
  0
VERTEX
  8
84
 10
125.47326126
 20
963.63320312
  0
VERTEX
  8
84
 10
125.93615189
 20
973.89394531
  0
VERTEX
  8
84
 10
120.69689407
 20
1060.07851562
  0
VERTEX
  8
84
 10
123.40587845
 20
1165.07851562
  0
VERTEX
  8
84
 10
160.40587845
 20
1165.07851562
  0
VERTEX
  8
84
 10
324.80138626
 20
1165.07949219
  0
VERTEX
  8
84
 10
348.80138626
 20
1165.07949219
  0
VERTEX
  8
84
 10
362.56367500
 20
1151.94709260
  0
VERTEX
  8
84
 10
376.74775573
 20
1139.40352078
  0
VERTEX
  8
84
 10
391.34927673
 20
1127.40594248
  0
VERTEX
  8
84
 10
406.36388626
 20
1115.91152344
  0
VERTEX
  8
84
 10
421.78384384
 20
1104.91031562
  0
VERTEX
  8
84
 10
437.62525578
 20
1094.49747903
  0
VERTEX
  8
84
 10
453.90116851
 20
1084.80143027
  0
VERTEX
  8
84
 10
470.62462845
 20
1075.95058594
  0
VERTEX
  8
84
 10
487.79773789
 20
1068.01740369
  0
VERTEX
  8
84
 10
505.32996023
 20
1060.87240802
  0
VERTEX
  8
84
 10
523.11937996
 20
1054.32924546
  0
VERTEX
  8
84
 10
541.06408157
 20
1048.20156250
  0
VERTEX
  8
84
 10
559.09142532
 20
1042.33348569
  0
VERTEX
  8
84
 10
577.18047349
 20
1036.71221344
  0
VERTEX
  8
84
 10
595.33949952
 20
1031.35514697
  0
VERTEX
  8
84
 10
613.57677689
 20
1026.27968750
  0
VERTEX
  8
84
 10
631.89713643
 20
1021.49335790
  0
VERTEX
  8
84
 10
650.28841722
 20
1016.96499856
  0
VERTEX
  8
84
 10
668.73501066
 20
1012.65355400
  0
VERTEX
  8
84
 10
687.22130814
 20
1008.51796875
  0
VERTEX
  8
84
 10
705.73587494
 20
1004.52616144
  0
VERTEX
  8
84
 10
724.27974221
 20
1000.68285425
  0
VERTEX
  8
84
 10
742.85811315
 20
997.00173322
  0
VERTEX
  8
84
 10
761.47619095
 20
993.49648437
  0
VERTEX
  8
84
 10
753.68661940
 20
976.38229996
  0
VERTEX
  8
84
 10
746.14025345
 20
959.16250000
  0
VERTEX
  8
84
 10
738.83090066
 20
941.83832677
  0
VERTEX
  8
84
 10
731.80138626
 20
924.39980469
  0
VERTEX
  8
84
 10
725.09483286
 20
906.83780193
  0
VERTEX
  8
84
 10
718.70470657
 20
889.15273437
  0
VERTEX
  8
84
 10
694.77892337
 20
895.12970849
  0
VERTEX
  8
84
 10
670.69689407
 20
900.31582031
  0
VERTEX
  8
84
 10
646.45061929
 20
904.66935301
  0
VERTEX
  8
84
 10
622.08654251
 20
908.48378906
  0
VERTEX
  8
84
 10
597.65438314
 20
911.92133344
  0
VERTEX
  8
84
 10
573.14611282
 20
914.28554687
  0
VERTEX
  8
84
 10
548.56007779
 20
914.86718469
  0
VERTEX
  8
84
 10
523.88732376
 20
913.76894531
  0
VERTEX
  8
84
 10
516.62086242
 20
912.05306324
  0
VERTEX
  8
84
 10
509.69509717
 20
909.78556235
  0
VERTEX
  8
84
 10
503.07320889
 20
906.96385450
  0
VERTEX
  8
84
 10
496.71837845
 20
903.58535156
  0
VERTEX
  8
84
 10
490.64768608
 20
899.66989696
  0
VERTEX
  8
84
 10
484.91452965
 20
895.20824428
  0
VERTEX
  8
84
 10
479.62846363
 20
890.20809446
  0
VERTEX
  8
84
 10
474.89904251
 20
884.67714844
  0
VERTEX
  8
84
 10
470.81828843
 20
878.63997110
  0
VERTEX
  8
84
 10
467.41128956
 20
872.19352670
  0
VERTEX
  8
84
 10
464.68542303
 20
865.45178380
  0
VERTEX
  8
84
 10
462.64806595
 20
858.52871094
  0
VERTEX
  8
84
 10
461.29960534
 20
851.47496275
  0
VERTEX
  8
84
 10
460.65206554
 20
844.31479468
  0
VERTEX
  8
84
 10
460.70296539
 20
837.00987576
  0
VERTEX
  8
84
 10
461.44982376
 20
829.52187500
  0
VERTEX
  8
84
 10
444.28384595
 20
829.98830829
  0
VERTEX
  8
84
 10
427.12003825
 20
830.27823507
  0
VERTEX
  8
84
 10
409.95901392
 20
830.35331189
  0
VERTEX
  8
84
 10
392.80138626
 20
830.17519531
  0
VERTEX
  8
84
 10
375.64860407
 20
829.73114605
  0
VERTEX
  8
84
 10
358.49799162
 20
829.11061867
  0
VERTEX
  8
84
 10
324.19591751
 20
827.80019531
  0
VERTEX
  8
84
 10
292.68810501
 20
826.94472656
  0
VERTEX
  8
84
 10
278.32529115
 20
826.65821639
  0
VERTEX
  8
84
 10
263.96608717
 20
826.27194654
  0
VERTEX
  8
84
 10
249.61049306
 20
825.78591703
  0
VERTEX
  8
84
 10
232.09289952
 20
825.05746970
  0
VERTEX
  8
84
 10
214.58068423
 20
824.18039319
  0
VERTEX
  8
84
 10
197.07384720
 20
823.15468750
  0
VERTEX
  8
84
 10
189.60664351
 20
822.44255971
  0
VERTEX
  8
84
 10
174.69400522
 20
820.83145007
  0
VERTEX
  8
84
 10
159.81041958
 20
818.97120531
  0
VERTEX
  8
84
 10
152.37951126
 20
817.94765625
  0
VERTEX
  8
84
 10
125.93908157
 20
952.32363281
  0
VERTEX
  8
84
 10
125.49376907
 20
962.99453125
  0
SEQEND
  0
POINT
  8
2
 10
369.83458939
 20
963.89296875
  0
TEXT
  8
2
 10
369.83458939
 20
963.89296875
 40
10.00000000
 50
0.00000000
  1
# 1
  0
POINT
  8
2
 10
125.47326126
 20
963.63320312
  0
TEXT
  8
2
 10
125.47326126
 20
963.63320312
 40
10.00000000
 50
0.00000000
  1
# 2
  0
POINT
  8
2
 10
125.93615189
 20
973.89394531
  0
TEXT
  8
2
 10
125.93615189
 20
973.89394531
 40
10.00000000
 50
0.00000000
  1
# 3
  0
POINT
  8
2
 10
120.69689407
 20
1060.07851562
  0
TEXT
  8
2
 10
120.69689407
 20
1060.07851562
 40
10.00000000
 50
0.00000000
  1
# 4
  0
POINT
  8
2
 10
123.40587845
 20
1165.07851562
  0
TEXT
  8
2
 10
123.40587845
 20
1165.07851562
 40
10.00000000
 50
0.00000000
  1
# 5
  0
POINT
  8
2
 10
160.40587845
 20
1165.07851562
  0
TEXT
  8
2
 10
160.40587845
 20
1165.07851562
 40
10.00000000
 50
0.00000000
  1
# 6
  0
POINT
  8
2
 10
324.80138626
 20
1165.07949219
  0
TEXT
  8
2
 10
324.80138626
 20
1165.07949219
 40
10.00000000
 50
0.00000000
  1
# 7
  0
POINT
  8
2
 10
348.80138626
 20
1165.07949219
  0
TEXT
  8
2
 10
348.80138626
 20
1165.07949219
 40
10.00000000
 50
0.00000000
  1
# 8
  0
POINT
  8
3
 10
362.56367500
 20
1151.94709260
  0
POINT
  8
3
 10
376.74775573
 20
1139.40352078
  0
POINT
  8
3
 10
391.34927673
 20
1127.40594248
  0
POINT
  8
3
 10
406.36388626
 20
1115.91152344
  0
POINT
  8
3
 10
421.78384384
 20
1104.91031562
  0
POINT
  8
3
 10
437.62525578
 20
1094.49747903
  0
POINT
  8
3
 10
453.90116851
 20
1084.80143027
  0
POINT
  8
3
 10
470.62462845
 20
1075.95058594
  0
POINT
  8
3
 10
487.79773789
 20
1068.01740369
  0
POINT
  8
3
 10
505.32996023
 20
1060.87240802
  0
POINT
  8
3
 10
523.11937996
 20
1054.32924546
  0
POINT
  8
3
 10
541.06408157
 20
1048.20156250
  0
POINT
  8
3
 10
559.09142532
 20
1042.33348569
  0
POINT
  8
3
 10
577.18047349
 20
1036.71221344
  0
POINT
  8
3
 10
595.33949952
 20
1031.35514697
  0
POINT
  8
3
 10
613.57677689
 20
1026.27968750
  0
POINT
  8
3
 10
631.89713643
 20
1021.49335790
  0
POINT
  8
3
 10
650.28841722
 20
1016.96499856
  0
POINT
  8
3
 10
668.73501066
 20
1012.65355400
  0
POINT
  8
3
 10
687.22130814
 20
1008.51796875
  0
POINT
  8
3
 10
705.73587494
 20
1004.52616144
  0
POINT
  8
3
 10
724.27974221
 20
1000.68285425
  0
POINT
  8
3
 10
742.85811315
 20
997.00173322
  0
POINT
  8
2
 10
761.47619095
 20
993.49648437
  0
TEXT
  8
2
 10
761.47619095
 20
993.49648437
 40
10.00000000
 50
0.00000000
  1
# 9
  0
POINT
  8
3
 10
753.68661940
 20
976.38229996
  0
POINT
  8
3
 10
746.14025345
 20
959.16250000
  0
POINT
  8
3
 10
738.83090066
 20
941.83832677
  0
POINT
  8
3
 10
731.80138626
 20
924.39980469
  0
POINT
  8
3
 10
725.09483286
 20
906.83780193
  0
POINT
  8
2
 10
718.70470657
 20
889.15273437
  0
TEXT
  8
2
 10
718.70470657
 20
889.15273437
 40
10.00000000
 50
0.00000000
  1
# 10
  0
POINT
  8
3
 10
694.77892337
 20
895.12970849
  0
POINT
  8
3
 10
670.69689407
 20
900.31582031
  0
POINT
  8
3
 10
646.45061929
 20
904.66935301
  0
POINT
  8
3
 10
622.08654251
 20
908.48378906
  0
POINT
  8
3
 10
597.65438314
 20
911.92133344
  0
POINT
  8
3
 10
573.14611282
 20
914.28554687
  0
POINT
  8
3
 10
548.56007779
 20
914.86718469
  0
POINT
  8
2
 10
523.88732376
 20
913.76894531
  0
TEXT
  8
2
 10
523.88732376
 20
913.76894531
 40
10.00000000
 50
0.00000000
  1
# 11
  0
POINT
  8
3
 10
516.62086242
 20
912.05306324
  0
POINT
  8
3
 10
509.69509717
 20
909.78556235
  0
POINT
  8
3
 10
503.07320889
 20
906.96385450
  0
POINT
  8
3
 10
496.71837845
 20
903.58535156
  0
POINT
  8
3
 10
490.64768608
 20
899.66989696
  0
POINT
  8
3
 10
484.91452965
 20
895.20824428
  0
POINT
  8
3
 10
479.62846363
 20
890.20809446
  0
POINT
  8
3
 10
474.89904251
 20
884.67714844
  0
POINT
  8
3
 10
470.81828843
 20
878.63997110
  0
POINT
  8
3
 10
467.41128956
 20
872.19352670
  0
POINT
  8
3
 10
464.68542303
 20
865.45178380
  0
POINT
  8
3
 10
462.64806595
 20
858.52871094
  0
POINT
  8
3
 10
461.29960534
 20
851.47496275
  0
POINT
  8
3
 10
460.65206554
 20
844.31479468
  0
POINT
  8
3
 10
460.70296539
 20
837.00987576
  0
POINT
  8
2
 10
461.44982376
 20
829.52187500
  0
TEXT
  8
2
 10
461.44982376
 20
829.52187500
 40
10.00000000
 50
0.00000000
  1
# 12
  0
POINT
  8
3
 10
444.28384595
 20
829.98830829
  0
POINT
  8
3
 10
427.12003825
 20
830.27823507
  0
POINT
  8
3
 10
409.95901392
 20
830.35331189
  0
POINT
  8
3
 10
392.80138626
 20
830.17519531
  0
POINT
  8
3
 10
375.64860407
 20
829.73114605
  0
POINT
  8
3
 10
358.49799162
 20
829.11061867
  0
POINT
  8
3
 10
324.19591751
 20
827.80019531
  0
POINT
  8
2
 10
292.68810501
 20
826.94472656
  0
TEXT
  8
2
 10
292.68810501
 20
826.94472656
 40
10.00000000
 50
0.00000000
  1
# 13
  0
POINT
  8
3
 10
278.32529115
 20
826.65821639
  0
POINT
  8
3
 10
263.96608717
 20
826.27194654
  0
POINT
  8
3
 10
249.61049306
 20
825.78591703
  0
POINT
  8
3
 10
232.09289952
 20
825.05746970
  0
POINT
  8
3
 10
214.58068423
 20
824.18039319
  0
POINT
  8
2
 10
197.07384720
 20
823.15468750
  0
TEXT
  8
2
 10
197.07384720
 20
823.15468750
 40
10.00000000
 50
0.00000000
  1
# 14
  0
POINT
  8
3
 10
189.60664351
 20
822.44255971
  0
POINT
  8
3
 10
174.69400522
 20
820.83145007
  0
POINT
  8
3
 10
159.81041958
 20
818.97120531
  0
POINT
  8
2
 10
152.37951126
 20
817.94765625
  0
TEXT
  8
2
 10
152.37951126
 20
817.94765625
 40
10.00000000
 50
0.00000000
  1
# 15
  0
POINT
  8
2
 10
125.93908157
 20
952.32363281
  0
TEXT
  8
2
 10
125.93908157
 20
952.32363281
 40
10.00000000
 50
0.00000000
  1
# 16
  0
POINT
  8
2
 10
125.49376907
 20
962.99453125
  0
TEXT
  8
2
 10
125.49376907
 20
962.99453125
 40
10.00000000
 50
0.00000000
  1
# 17
  0
POINT
  8
4
 10
160.40587845
 20
1165.07851562
 30
7.50000000
 50
270.00017018
  0
TEXT
  8
1
 10
160.40587845
 20
1165.07851562
 40
10.00000000
 50
0.00000000
  1
# 18
  0
POINT
  8
4
 10
324.80138626
 20
1165.07949219
 30
7.50000000
 50
270.00017018
  0
TEXT
  8
1
 10
324.80138626
 20
1165.07949219
 40
10.00000000
 50
0.00000000
  1
# 19
  0
POINT
  8
4
 10
197.07384720
 20
823.15468750
 30
7.50000000
 50
94.40036769
  0
TEXT
  8
1
 10
197.07384720
 20
823.15468750
 40
10.00000000
 50
0.00000000
  1
# 20
  0
ENDBLK
  0
BLOCK
  8
1
  2
2
 70
64
 10
0.0
 20
0.0
  0
LINE
  8
7
 10
238.18235019
 20
1403.91602545
 11
558.15207675
 21
1403.91602545
  0
TEXT
  8
1
 10
0.00000000
 20
0.00000000
 40
20.00000000
 50
0.00000000
  1
Size: 46
  0
TEXT
  8
1
 10
398.16721347
 20
1418.91602545
 40
20.00000000
 50
0.00000000
  1
Piece Name: AHAVANA.P
  0
TEXT
  8
1
 10
398.16721347
 20
1418.91602545
 40
20.00000000
 50
0.00000000
  1
Quantity: 1
  0
TEXT
  8
1
 10
398.16721347
 20
1418.91602545
 40
20.00000000
 50
0.00000000
  1
Rotation: 0
  0
TEXT
  8
1
 10
398.16721347
 20
1418.91602545
 40
20.00000000
 50
0.00000000
  1
Tilt: 0
  0
TEXT
  8
1
 10
398.16721347
 20
1418.91602545
 40
20.00000000
 50
0.00000000
  1
Fold: N
  0
TEXT
  8
1
 10
398.16721347
 20
1418.91602545
 40
20.00000000
 50
0.00000000
  1
Material: 1
  0
POLYLINE
  8
1
 66
1
 70
1
  0
VERTEX
  8
1
 10
120.57091866
 20
1374.41705084
  0
VERTEX
  8
1
 10
153.16391996
 20
1373.66203773
  0
VERTEX
  8
1
 10
185.72716866
 20
1372.76910162
  0
VERTEX
  8
1
 10
218.26982018
 20
1371.65840424
  0
VERTEX
  8
1
 10
234.57752710
 20
1371.18380274
  0
VERTEX
  8
1
 10
250.95177803
 20
1370.88091803
  0
VERTEX
  8
1
 10
267.33611270
 20
1370.87733206
  0
VERTEX
  8
1
 10
283.68902717
 20
1371.45697621
  0
VERTEX
  8
1
 10
299.88156903
 20
1372.94488034
  0
VERTEX
  8
1
 10
315.78478584
 20
1375.66607428
  0
VERTEX
  8
1
 10
331.26242340
 20
1379.86167989
  0
VERTEX
  8
1
 10
346.36656198
 20
1385.50037428
  0
VERTEX
  8
1
 10
361.14001757
 20
1392.47423800
  0
VERTEX
  8
1
 10
375.62560616
 20
1400.67535162
  0
VERTEX
  8
1
 10
390.48178965
 20
1410.43764510
  0
VERTEX
  8
1
 10
405.57309382
 20
1419.74284871
  0
VERTEX
  8
1
 10
420.91843736
 20
1428.55910358
  0
VERTEX
  8
1
 10
436.53673897
 20
1436.85455084
  0
VERTEX
  8
1
 10
452.42643054
 20
1444.61488908
  0
VERTEX
  8
1
 10
468.55100267
 20
1451.91860185
  0
VERTEX
  8
1
 10
484.85374567
 20
1458.86118755
  0
VERTEX
  8
1
 10
501.27794991
 20
1465.53814459
  0
VERTEX
  8
1
 10
517.78836783
 20
1472.01385637
  0
VERTEX
  8
1
 10
534.39280722
 20
1478.21149479
  0
VERTEX
  8
1
 10
551.12048201
 20
1484.02326378
  0
VERTEX
  8
1
 10
568.00060616
 20
1489.34136724
  0
VERTEX
  8
1
 10
581.93141027
 20
1493.27528921
  0
VERTEX
  8
1
 10
595.95177589
 20
1496.90900567
  0
VERTEX
  8
1
 10
610.02975977
 20
1500.34459627
  0
VERTEX
  8
1
 10
624.13341866
 20
1503.68414068
  0
VERTEX
  8
1
 10
652.34632782
 20
1510.28257262
  0
VERTEX
  8
1
 10
666.47226106
 20
1513.47020211
  0
VERTEX
  8
1
 10
680.62658272
 20
1516.51910162
  0
VERTEX
  8
1
 10
694.81872714
 20
1519.39182801
  0
VERTEX
  8
1
 10
709.04696362
 20
1522.09364394
  0
VERTEX
  8
1
 10
723.30744129
 20
1524.64063499
  0
VERTEX
  8
1
 10
737.59630928
 20
1527.04888678
  0
VERTEX
  8
1
 10
760.51037178
 20
1474.76324224
  0
VERTEX
  8
1
 10
741.84198815
 20
1471.56806996
  0
VERTEX
  8
1
 10
723.23780016
 20
1468.09353261
  0
VERTEX
  8
1
 10
704.70373587
 20
1464.31078367
  0
VERTEX
  8
1
 10
686.24572334
 20
1460.19097662
  0
VERTEX
  8
1
 10
667.86545361
 20
1455.72442385
  0
VERTEX
  8
1
 10
649.54938159
 20
1450.97849688
  0
VERTEX
  8
1
 10
631.27972264
 20
1446.03973752
  0
VERTEX
  8
1
 10
613.03869209
 20
1440.99468756
  0
VERTEX
  8
1
 10
594.80898950
 20
1435.89694814
  0
VERTEX
  8
1
 10
576.61632901
 20
1430.67981310
  0
VERTEX
  8
1
 10
558.48690085
 20
1425.24365045
  0
VERTEX
  8
1
 10
540.44689522
 20
1419.48882818
  0
VERTEX
  8
1
 10
522.55668366
 20
1413.32378302
  0
VERTEX
  8
1
 10
504.85577566
 20
1406.63444333
  0
VERTEX
  8
1
 10
487.41820088
 20
1399.31358025
  0
VERTEX
  8
1
 10
470.31798897
 20
1391.25396490
  0
VERTEX
  8
1
 10
453.61145460
 20
1382.37950790
  0
VERTEX
  8
1
 10
437.31155671
 20
1372.75360820
  0
VERTEX
  8
1
 10
421.41331245
 20
1362.47127064
  0
VERTEX
  8
1
 10
405.91173897
 20
1351.62750006
  0
VERTEX
  8
1
 10
390.79978329
 20
1340.29372430
  0
VERTEX
  8
1
 10
376.08134402
 20
1328.46164203
  0
VERTEX
  8
1
 10
361.75808269
 20
1316.09957374
  0
VERTEX
  8
1
 10
347.83166084
 20
1303.17583990
  0
VERTEX
  8
1
 10
323.83849678
 20
1303.17828131
  0
VERTEX
  8
1
 10
159.43810616
 20
1303.17095709
  0
VERTEX
  8
1
 10
122.44103584
 20
1303.17681646
  0
SEQEND
  0
POLYLINE
  8
84
 66
1
 70
1
  0
VERTEX
  8
84
 10
120.57091866
 20
1374.41705084
  0
VERTEX
  8
84
 10
153.16391996
 20
1373.66203773
  0
VERTEX
  8
84
 10
185.72716866
 20
1372.76910162
  0
VERTEX
  8
84
 10
218.26982018
 20
1371.65840424
  0
VERTEX
  8
84
 10
234.57752710
 20
1371.18380274
  0
VERTEX
  8
84
 10
250.95177803
 20
1370.88091803
  0
VERTEX
  8
84
 10
267.33611270
 20
1370.87733206
  0
VERTEX
  8
84
 10
283.68902717
 20
1371.45697621
  0
VERTEX
  8
84
 10
299.88156903
 20
1372.94488034
  0
VERTEX
  8
84
 10
315.78478584
 20
1375.66607428
  0
VERTEX
  8
84
 10
331.26242340
 20
1379.86167989
  0
VERTEX
  8
84
 10
346.36656198
 20
1385.50037428
  0
VERTEX
  8
84
 10
361.14001757
 20
1392.47423800
  0
VERTEX
  8
84
 10
375.62560616
 20
1400.67535162
  0
VERTEX
  8
84
 10
390.48178965
 20
1410.43764510
  0
VERTEX
  8
84
 10
405.57309382
 20
1419.74284871
  0
VERTEX
  8
84
 10
420.91843736
 20
1428.55910358
  0
VERTEX
  8
84
 10
436.53673897
 20
1436.85455084
  0
VERTEX
  8
84
 10
452.42643054
 20
1444.61488908
  0
VERTEX
  8
84
 10
468.55100267
 20
1451.91860185
  0
VERTEX
  8
84
 10
484.85374567
 20
1458.86118755
  0
VERTEX
  8
84
 10
501.27794991
 20
1465.53814459
  0
VERTEX
  8
84
 10
517.78836783
 20
1472.01385637
  0
VERTEX
  8
84
 10
534.39280722
 20
1478.21149479
  0
VERTEX
  8
84
 10
551.12048201
 20
1484.02326378
  0
VERTEX
  8
84
 10
568.00060616
 20
1489.34136724
  0
VERTEX
  8
84
 10
581.93141027
 20
1493.27528921
  0
VERTEX
  8
84
 10
595.95177589
 20
1496.90900567
  0
VERTEX
  8
84
 10
610.02975977
 20
1500.34459627
  0
VERTEX
  8
84
 10
624.13341866
 20
1503.68414068
  0
VERTEX
  8
84
 10
652.34632782
 20
1510.28257262
  0
VERTEX
  8
84
 10
666.47226106
 20
1513.47020211
  0
VERTEX
  8
84
 10
680.62658272
 20
1516.51910162
  0
VERTEX
  8
84
 10
694.81872714
 20
1519.39182801
  0
VERTEX
  8
84
 10
709.04696362
 20
1522.09364394
  0
VERTEX
  8
84
 10
723.30744129
 20
1524.64063499
  0
VERTEX
  8
84
 10
737.59630928
 20
1527.04888678
  0
VERTEX
  8
84
 10
760.51037178
 20
1474.76324224
  0
VERTEX
  8
84
 10
741.84198815
 20
1471.56806996
  0
VERTEX
  8
84
 10
723.23780016
 20
1468.09353261
  0
VERTEX
  8
84
 10
704.70373587
 20
1464.31078367
  0
VERTEX
  8
84
 10
686.24572334
 20
1460.19097662
  0
VERTEX
  8
84
 10
667.86545361
 20
1455.72442385
  0
VERTEX
  8
84
 10
649.54938159
 20
1450.97849688
  0
VERTEX
  8
84
 10
631.27972264
 20
1446.03973752
  0
VERTEX
  8
84
 10
613.03869209
 20
1440.99468756
  0
VERTEX
  8
84
 10
594.80898950
 20
1435.89694814
  0
VERTEX
  8
84
 10
576.61632901
 20
1430.67981310
  0
VERTEX
  8
84
 10
558.48690085
 20
1425.24365045
  0
VERTEX
  8
84
 10
540.44689522
 20
1419.48882818
  0
VERTEX
  8
84
 10
522.55668366
 20
1413.32378302
  0
VERTEX
  8
84
 10
504.85577566
 20
1406.63444333
  0
VERTEX
  8
84
 10
487.41820088
 20
1399.31358025
  0
VERTEX
  8
84
 10
470.31798897
 20
1391.25396490
  0
VERTEX
  8
84
 10
453.61145460
 20
1382.37950790
  0
VERTEX
  8
84
 10
437.31155671
 20
1372.75360820
  0
VERTEX
  8
84
 10
421.41331245
 20
1362.47127064
  0
VERTEX
  8
84
 10
405.91173897
 20
1351.62750006
  0
VERTEX
  8
84
 10
390.79978329
 20
1340.29372430
  0
VERTEX
  8
84
 10
376.08134402
 20
1328.46164203
  0
VERTEX
  8
84
 10
361.75808269
 20
1316.09957374
  0
VERTEX
  8
84
 10
347.83166084
 20
1303.17583990
  0
VERTEX
  8
84
 10
323.83849678
 20
1303.17828131
  0
VERTEX
  8
84
 10
159.43810616
 20
1303.17095709
  0
VERTEX
  8
84
 10
122.44103584
 20
1303.17681646
  0
SEQEND
  0
POINT
  8
2
 10
120.57091866
 20
1374.41705084
  0
TEXT
  8
2
 10
120.57091866
 20
1374.41705084
 40
10.00000000
 50
0.00000000
  1
# 21
  0
POINT
  8
3
 10
153.16391996
 20
1373.66203773
  0
POINT
  8
3
 10
185.72716866
 20
1372.76910162
  0
POINT
  8
3
 10
218.26982018
 20
1371.65840424
  0
POINT
  8
3
 10
234.57752710
 20
1371.18380274
  0
POINT
  8
3
 10
250.95177803
 20
1370.88091803
  0
POINT
  8
3
 10
267.33611270
 20
1370.87733206
  0
POINT
  8
3
 10
283.68902717
 20
1371.45697621
  0
POINT
  8
3
 10
299.88156903
 20
1372.94488034
  0
POINT
  8
3
 10
315.78478584
 20
1375.66607428
  0
POINT
  8
3
 10
331.26242340
 20
1379.86167989
  0
POINT
  8
3
 10
346.36656198
 20
1385.50037428
  0
POINT
  8
3
 10
361.14001757
 20
1392.47423800
  0
POINT
  8
2
 10
375.62560616
 20
1400.67535162
  0
TEXT
  8
2
 10
375.62560616
 20
1400.67535162
 40
10.00000000
 50
0.00000000
  1
# 22
  0
POINT
  8
3
 10
390.48178965
 20
1410.43764510
  0
POINT
  8
3
 10
405.57309382
 20
1419.74284871
  0
POINT
  8
3
 10
420.91843736
 20
1428.55910358
  0
POINT
  8
3
 10
436.53673897
 20
1436.85455084
  0
POINT
  8
3
 10
452.42643054
 20
1444.61488908
  0
POINT
  8
3
 10
468.55100267
 20
1451.91860185
  0
POINT
  8
3
 10
484.85374567
 20
1458.86118755
  0
POINT
  8
3
 10
501.27794991
 20
1465.53814459
  0
POINT
  8
3
 10
517.78836783
 20
1472.01385637
  0
POINT
  8
3
 10
534.39280722
 20
1478.21149479
  0
POINT
  8
3
 10
551.12048201
 20
1484.02326378
  0
POINT
  8
3
 10
568.00060616
 20
1489.34136724
  0
POINT
  8
3
 10
581.93141027
 20
1493.27528921
  0
POINT
  8
3
 10
595.95177589
 20
1496.90900567
  0
POINT
  8
3
 10
610.02975977
 20
1500.34459627
  0
POINT
  8
3
 10
624.13341866
 20
1503.68414068
  0
POINT
  8
3
 10
652.34632782
 20
1510.28257262
  0
POINT
  8
3
 10
666.47226106
 20
1513.47020211
  0
POINT
  8
3
 10
680.62658272
 20
1516.51910162
  0
POINT
  8
3
 10
694.81872714
 20
1519.39182801
  0
POINT
  8
3
 10
709.04696362
 20
1522.09364394
  0
POINT
  8
3
 10
723.30744129
 20
1524.64063499
  0
POINT
  8
2
 10
737.59630928
 20
1527.04888678
  0
TEXT
  8
2
 10
737.59630928
 20
1527.04888678
 40
10.00000000
 50
0.00000000
  1
# 23
  0
POINT
  8
2
 10
760.51037178
 20
1474.76324224
  0
TEXT
  8
2
 10
760.51037178
 20
1474.76324224
 40
10.00000000
 50
0.00000000
  1
# 24
  0
POINT
  8
3
 10
741.84198815
 20
1471.56806996
  0
POINT
  8
3
 10
723.23780016
 20
1468.09353261
  0
POINT
  8
3
 10
704.70373587
 20
1464.31078367
  0
POINT
  8
3
 10
686.24572334
 20
1460.19097662
  0
POINT
  8
3
 10
667.86545361
 20
1455.72442385
  0
POINT
  8
3
 10
649.54938159
 20
1450.97849688
  0
POINT
  8
3
 10
631.27972264
 20
1446.03973752
  0
POINT
  8
3
 10
613.03869209
 20
1440.99468756
  0
POINT
  8
3
 10
594.80898950
 20
1435.89694814
  0
POINT
  8
3
 10
576.61632901
 20
1430.67981310
  0
POINT
  8
3
 10
558.48690085
 20
1425.24365045
  0
POINT
  8
3
 10
540.44689522
 20
1419.48882818
  0
POINT
  8
3
 10
522.55668366
 20
1413.32378302
  0
POINT
  8
3
 10
504.85577566
 20
1406.63444333
  0
POINT
  8
3
 10
487.41820088
 20
1399.31358025
  0
POINT
  8
3
 10
470.31798897
 20
1391.25396490
  0
POINT
  8
3
 10
453.61145460
 20
1382.37950790
  0
POINT
  8
3
 10
437.31155671
 20
1372.75360820
  0
POINT
  8
3
 10
421.41331245
 20
1362.47127064
  0
POINT
  8
3
 10
405.91173897
 20
1351.62750006
  0
POINT
  8
3
 10
390.79978329
 20
1340.29372430
  0
POINT
  8
3
 10
376.08134402
 20
1328.46164203
  0
POINT
  8
3
 10
361.75808269
 20
1316.09957374
  0
POINT
  8
2
 10
347.83166084
 20
1303.17583990
  0
TEXT
  8
2
 10
347.83166084
 20
1303.17583990
 40
10.00000000
 50
0.00000000
  1
# 25
  0
POINT
  8
2
 10
323.83849678
 20
1303.17828131
  0
TEXT
  8
2
 10
323.83849678
 20
1303.17828131
 40
10.00000000
 50
0.00000000
  1
# 26
  0
POINT
  8
2
 10
159.43810616
 20
1303.17095709
  0
TEXT
  8
2
 10
159.43810616
 20
1303.17095709
 40
10.00000000
 50
0.00000000
  1
# 27
  0
POINT
  8
2
 10
122.44103584
 20
1303.17681646
  0
TEXT
  8
2
 10
122.44103584
 20
1303.17681646
 40
10.00000000
 50
0.00000000
  1
# 28
  0
POINT
  8
4
 10
375.62560616
 20
1400.67535162
 30
7.50000000
 50
301.41318675
  0
TEXT
  8
1
 10
375.62560616
 20
1400.67535162
 40
10.00000000
 50
0.00000000
  1
# 29
  0
POINT
  8
4
 10
568.00060616
 20
1489.34136724
 30
7.50000000
 50
287.48709633
  0
TEXT
  8
1
 10
568.00060616
 20
1489.34136724
 40
10.00000000
 50
0.00000000
  1
# 30
  0
POINT
  8
4
 10
323.83849678
 20
1303.17828131
 30
7.50000000
 50
449.99836125
  0
TEXT
  8
1
 10
323.83849678
 20
1303.17828131
 40
10.00000000
 50
0.00000000
  1
# 31
  0
POINT
  8
4
 10
159.43810616
 20
1303.17095709
 30
7.50000000
 50
449.99673921
  0
TEXT
  8
1
 10
159.43810616
 20
1303.17095709
 40
10.00000000
 50
0.00000000
  1
# 32
  0
ENDBLK
  0
BLOCK
  8
1
  2
3
 70
64
 10
0.0
 20
0.0
  0
LINE
  8
7
 10
1979.68302607
 20
241.93674316
 11
2005.49943232
 21
241.93674316
  0
TEXT
  8
1
 10
0.00000000
 20
0.00000000
 40
20.00000000
 50
0.00000000
  1
Size: 46
  0
TEXT
  8
1
 10
1992.59122920
 20
249.43674316
 40
10.00000000
 50
0.00000000
  1
Piece Name: AHAVANA.T
  0
TEXT
  8
1
 10
1992.59122920
 20
249.43674316
 40
10.00000000
 50
0.00000000
  1
Quantity: 1
  0
TEXT
  8
1
 10
1992.59122920
 20
249.43674316
 40
10.00000000
 50
0.00000000
  1
Rotation: 0
  0
TEXT
  8
1
 10
1992.59122920
 20
249.43674316
 40
10.00000000
 50
0.00000000
  1
Tilt: 0
  0
TEXT
  8
1
 10
1992.59122920
 20
249.43674316
 40
10.00000000
 50
0.00000000
  1
Fold: N
  0
TEXT
  8
1
 10
1992.59122920
 20
249.43674316
 40
10.00000000
 50
0.00000000
  1
Material: 1
  0
POLYLINE
  8
1
 66
1
 70
1
  0
VERTEX
  8
1
 10
1967.48770599
 20
227.98649902
  0
VERTEX
  8
1
 10
1966.22403412
 20
502.13835449
  0
VERTEX
  8
1
 10
1992.22891693
 20
501.96843262
  0
VERTEX
  8
1
 10
2016.43497162
 20
501.94304199
  0
VERTEX
  8
1
 10
2017.85684662
 20
224.40935059
  0
SEQEND
  0
POLYLINE
  8
84
 66
1
 70
1
  0
VERTEX
  8
84
 10
1967.48770599
 20
227.98649902
  0
VERTEX
  8
84
 10
1966.22403412
 20
502.13835449
  0
VERTEX
  8
84
 10
1992.22891693
 20
501.96843262
  0
VERTEX
  8
84
 10
2016.43497162
 20
501.94304199
  0
VERTEX
  8
84
 10
2017.85684662
 20
224.40935059
  0
SEQEND
  0
POINT
  8
2
 10
1967.48770599
 20
227.98649902
  0
TEXT
  8
2
 10
1967.48770599
 20
227.98649902
 40
10.00000000
 50
0.00000000
  1
# 33
  0
POINT
  8
2
 10
1966.22403412
 20
502.13835449
  0
TEXT
  8
2
 10
1966.22403412
 20
502.13835449
 40
10.00000000
 50
0.00000000
  1
# 34
  0
POINT
  8
2
 10
1992.22891693
 20
501.96843262
  0
TEXT
  8
2
 10
1992.22891693
 20
501.96843262
 40
10.00000000
 50
0.00000000
  1
# 35
  0
POINT
  8
2
 10
2016.43497162
 20
501.94304199
  0
TEXT
  8
2
 10
2016.43497162
 20
501.94304199
 40
10.00000000
 50
0.00000000
  1
# 36
  0
POINT
  8
2
 10
2017.85684662
 20
224.40935059
  0
TEXT
  8
2
 10
2017.85684662
 20
224.40935059
 40
10.00000000
 50
0.00000000
  1
# 37
  0
POINT
  8
13
 10
1987.83829193
 20
445.50603027
  0
TEXT
  8
13
 10
1987.83829193
 20
445.50603027
 40
10.00000000
 50
0.00000000
  1
# 38
  0
POINT
  8
13
 10
1987.83829193
 20
307.47136230
  0
TEXT
  8
13
 10
1987.83829193
 20
307.47136230
 40
10.00000000
 50
0.00000000
  1
# 39
  0
POINT
  8
4
 10
1992.22891693
 20
501.96843262
 30
7.50000000
 50
269.78276096
  0
TEXT
  8
1
 10
1992.22891693
 20
501.96843262
 40
10.00000000
 50
0.00000000
  1
# 40
  0
ENDBLK
  0
BLOCK
  8
1
  2
4
 70
64
 10
0.0
 20
0.0
  0
LINE
  8
7
 10
2120.87478476
 20
1459.35317383
 11
2440.09548789
 21
1459.35317383
  0
TEXT
  8
1
 10
0.00000000
 20
0.00000000
 40
10.00000000
 50
0.00000000
  1
Size: 46
  0
TEXT
  8
1
 10
2280.48513633
 20
1474.35317383
 40
20.00000000
 50
0.00000000
  1
Piece Name: AHAVANA.DC
  0
TEXT
  8
1
 10
2280.48513633
 20
1474.35317383
 40
20.00000000
 50
0.00000000
  1
Quantity: 1
  0
TEXT
  8
1
 10
2280.48513633
 20
1474.35317383
 40
20.00000000
 50
0.00000000
  1
Rotation: 0
  0
TEXT
  8
1
 10
2280.48513633
 20
1474.35317383
 40
20.00000000
 50
0.00000000
  1
Tilt: 0
  0
TEXT
  8
1
 10
2280.48513633
 20
1474.35317383
 40
20.00000000
 50
0.00000000
  1
Fold: N
  0
TEXT
  8
1
 10
2280.48513633
 20
1474.35317383
 40
20.00000000
 50
0.00000000
  1
Material: 1
  0
POLYLINE
  8
1
 66
1
 70
1
  0
VERTEX
  8
1
 10
2024.29267845
 20
1338.08500977
  0
VERTEX
  8
1
 10
2053.72724876
 20
1610.80571289
  0
VERTEX
  8
1
 10
2078.83076439
 20
1606.33891602
  0
VERTEX
  8
1
 10
2100.60517845
 20
1606.18852539
  0
VERTEX
  8
1
 10
2122.38154564
 20
1606.31254883
  0
VERTEX
  8
1
 10
2140.44352465
 20
1606.62278117
  0
VERTEX
  8
1
 10
2158.50144005
 20
1607.12084102
  0
VERTEX
  8
1
 10
2176.55556059
 20
1607.80679579
  0
VERTEX
  8
1
 10
2194.60615501
 20
1608.68071289
  0
VERTEX
  8
1
 10
2208.64861602
 20
1608.89013060
  0
VERTEX
  8
1
 10
2222.68822558
 20
1609.17904020
  0
VERTEX
  8
1
 10
2236.72512994
 20
1609.54935256
  0
VERTEX
  8
1
 10
2250.75947533
 20
1610.00297852
  0
VERTEX
  8
1
 10
2264.79202370
 20
1610.54058449
  0
VERTEX
  8
1
 10
2278.82172035
 20
1611.15769054
  0
VERTEX
  8
1
 10
2292.84812652
 20
1611.84856362
  0
VERTEX
  8
1
 10
2306.87080345
 20
1612.60747070
  0
VERTEX
  8
1
 10
2320.88865205
 20
1613.42990658
  0
VERTEX
  8
1
 10
2334.90247935
 20
1614.31654750
  0
VERTEX
  8
1
 10
2348.91243159
 20
1615.26930433
  0
VERTEX
  8
1
 10
2362.91865501
 20
1616.29008789
  0
VERTEX
  8
1
 10
2362.76453947
 20
1608.79429495
  0
VERTEX
  8
1
 10
2363.30288217
 20
1601.54823176
  0
VERTEX
  8
1
 10
2364.54608395
 20
1594.51684663
  0
VERTEX
  8
1
 10
2366.50654564
 20
1587.66508789
  0
VERTEX
  8
1
 10
2369.15968498
 20
1581.04363889
  0
VERTEX
  8
1
 10
2372.49214271
 20
1574.66755077
  0
VERTEX
  8
1
 10
2376.46729994
 20
1568.64032887
  0
VERTEX
  8
1
 10
2381.04853783
 20
1563.06547852
  0
VERTEX
  8
1
 10
2386.22276301
 20
1557.99663612
  0
VERTEX
  8
1
 10
2391.87280025
 20
1553.47443186
  0
VERTEX
  8
1
 10
2397.89781565
 20
1549.48261421
  0
VERTEX
  8
1
 10
2404.19697533
 20
1546.00493164
  0
VERTEX
  8
1
 10
2410.70383090
 20
1543.02378551
  0
VERTEX
  8
1
 10
2417.41834112
 20
1540.54776934
  0
VERTEX
  8
1
 10
2424.37421922
 20
1538.58231675
  0
VERTEX
  8
1
 10
2431.60517845
 20
1537.13286133
  0
VERTEX
  8
1
 10
2456.45899880
 20
1537.35298386
  0
VERTEX
  8
1
 10
2481.15986595
 20
1539.13579102
  0
VERTEX
  8
1
 10
2505.73113547
 20
1542.57672016
  0
VERTEX
  8
1
 10
2530.17939720
 20
1547.04008789
  0
VERTEX
  8
1
 10
2554.54821947
 20
1551.86898399
  0
VERTEX
  8
1
 10
2578.83076439
 20
1557.03422852
  0
VERTEX
  8
1
 10
2603.02035268
 20
1562.63676433
  0
VERTEX
  8
1
 10
2627.11787376
 20
1568.66215820
  0
VERTEX
  8
1
 10
2662.73408470
 20
1498.83012695
  0
VERTEX
  8
1
 10
2647.43711952
 20
1495.97446242
  0
VERTEX
  8
1
 10
2632.18232966
 20
1492.93721643
  0
VERTEX
  8
1
 10
2616.97294857
 20
1489.70409172
  0
VERTEX
  8
1
 10
2601.81220970
 20
1486.26079102
  0
VERTEX
  8
1
 10
2586.69783038
 20
1482.60170974
  0
VERTEX
  8
1
 10
2571.62564590
 20
1478.76096291
  0
VERTEX
  8
1
 10
2556.58595230
 20
1474.78145827
  0
VERTEX
  8
1
 10
2541.56904564
 20
1470.70610352
  0
VERTEX
  8
1
 10
2526.57162504
 20
1466.56162160
  0
VERTEX
  8
1
 10
2511.60721344
 20
1462.30756823
  0
VERTEX
  8
1
 10
2496.69573943
 20
1457.88730399
  0
VERTEX
  8
1
 10
2481.85713158
 20
1453.24418945
  0
VERTEX
  8
1
 10
2469.06140486
 20
1449.00457972
  0
VERTEX
  8
1
 10
2456.32515628
 20
1444.58115736
  0
VERTEX
  8
1
 10
2443.63809847
 20
1440.00023737
  0
VERTEX
  8
1
 10
2430.98994408
 20
1435.28813477
  0
VERTEX
  8
1
 10
2418.37767818
 20
1430.44761833
  0
VERTEX
  8
1
 10
2405.85282745
 20
1425.39703632
  0
VERTEX
  8
1
 10
2393.47417175
 20
1420.03126135
  0
VERTEX
  8
1
 10
2381.30049095
 20
1414.24516602
  0
VERTEX
  8
1
 10
2369.39817238
 20
1407.98964163
  0
VERTEX
  8
1
 10
2357.69283148
 20
1401.34766447
  0
VERTEX
  8
1
 10
2346.11895702
 20
1394.45570761
  0
VERTEX
  8
1
 10
2334.61103783
 20
1387.45024414
  0
VERTEX
  8
1
 10
2311.59816811
 20
1373.37188614
  0
VERTEX
  8
1
 10
2300.14719057
 20
1366.25316987
  0
VERTEX
  8
1
 10
2288.76240501
 20
1359.02055664
  0
VERTEX
  8
1
 10
2273.32808069
 20
1351.62658857
  0
VERTEX
  8
1
 10
2257.66833783
 20
1345.30090459
  0
VERTEX
  8
1
 10
2241.75045278
 20
1340.13021266
  0
VERTEX
  8
1
 10
2225.54170189
 20
1336.20122070
  0
VERTEX
  8
1
 10
2208.96835168
 20
1333.53521216
  0
VERTEX
  8
1
 10
2192.16775594
 20
1331.94588721
  0
VERTEX
  8
1
 10
2175.23870349
 20
1331.17148487
  0
VERTEX
  8
1
 10
2158.27998314
 20
1330.95024414
  0
VERTEX
  8
1
 10
2141.34903034
 20
1331.04926021
  0
VERTEX
  8
1
 10
2124.46426977
 20
1331.34983739
  0
VERTEX
  8
1
 10
2090.74092064
 20
1332.19340820
  0
VERTEX
  8
1
 10
2049.28877220
 20
1333.13286133
  0
SEQEND
  0
POLYLINE
  8
84
 66
1
 70
1
  0
VERTEX
  8
84
 10
2024.29267845
 20
1338.08500977
  0
VERTEX
  8
84
 10
2053.72724876
 20
1610.80571289
  0
VERTEX
  8
84
 10
2078.83076439
 20
1606.33891602
  0
VERTEX
  8
84
 10
2100.60517845
 20
1606.18852539
  0
VERTEX
  8
84
 10
2122.38154564
 20
1606.31254883
  0
VERTEX
  8
84
 10
2140.44352465
 20
1606.62278117
  0
VERTEX
  8
84
 10
2158.50144005
 20
1607.12084102
  0
VERTEX
  8
84
 10
2176.55556059
 20
1607.80679579
  0
VERTEX
  8
84
 10
2194.60615501
 20
1608.68071289
  0
VERTEX
  8
84
 10
2208.64861602
 20
1608.89013060
  0
VERTEX
  8
84
 10
2222.68822558
 20
1609.17904020
  0
VERTEX
  8
84
 10
2236.72512994
 20
1609.54935256
  0
VERTEX
  8
84
 10
2250.75947533
 20
1610.00297852
  0
VERTEX
  8
84
 10
2264.79202370
 20
1610.54058449
  0
VERTEX
  8
84
 10
2278.82172035
 20
1611.15769054
  0
VERTEX
  8
84
 10
2292.84812652
 20
1611.84856362
  0
VERTEX
  8
84
 10
2306.87080345
 20
1612.60747070
  0
VERTEX
  8
84
 10
2320.88865205
 20
1613.42990658
  0
VERTEX
  8
84
 10
2334.90247935
 20
1614.31654750
  0
VERTEX
  8
84
 10
2348.91243159
 20
1615.26930433
  0
VERTEX
  8
84
 10
2362.91865501
 20
1616.29008789
  0
VERTEX
  8
84
 10
2362.76453947
 20
1608.79429495
  0
VERTEX
  8
84
 10
2363.30288217
 20
1601.54823176
  0
VERTEX
  8
84
 10
2364.54608395
 20
1594.51684663
  0
VERTEX
  8
84
 10
2366.50654564
 20
1587.66508789
  0
VERTEX
  8
84
 10
2369.15968498
 20
1581.04363889
  0
VERTEX
  8
84
 10
2372.49214271
 20
1574.66755077
  0
VERTEX
  8
84
 10
2376.46729994
 20
1568.64032887
  0
VERTEX
  8
84
 10
2381.04853783
 20
1563.06547852
  0
VERTEX
  8
84
 10
2386.22276301
 20
1557.99663612
  0
VERTEX
  8
84
 10
2391.87280025
 20
1553.47443186
  0
VERTEX
  8
84
 10
2397.89781565
 20
1549.48261421
  0
VERTEX
  8
84
 10
2404.19697533
 20
1546.00493164
  0
VERTEX
  8
84
 10
2410.70383090
 20
1543.02378551
  0
VERTEX
  8
84
 10
2417.41834112
 20
1540.54776934
  0
VERTEX
  8
84
 10
2424.37421922
 20
1538.58231675
  0
VERTEX
  8
84
 10
2431.60517845
 20
1537.13286133
  0
VERTEX
  8
84
 10
2456.45899880
 20
1537.35298386
  0
VERTEX
  8
84
 10
2481.15986595
 20
1539.13579102
  0
VERTEX
  8
84
 10
2505.73113547
 20
1542.57672016
  0
VERTEX
  8
84
 10
2530.17939720
 20
1547.04008789
  0
VERTEX
  8
84
 10
2554.54821947
 20
1551.86898399
  0
VERTEX
  8
84
 10
2578.83076439
 20
1557.03422852
  0
VERTEX
  8
84
 10
2603.02035268
 20
1562.63676433
  0
VERTEX
  8
84
 10
2627.11787376
 20
1568.66215820
  0
VERTEX
  8
84
 10
2662.73408470
 20
1498.83012695
  0
VERTEX
  8
84
 10
2647.43711952
 20
1495.97446242
  0
VERTEX
  8
84
 10
2632.18232966
 20
1492.93721643
  0
VERTEX
  8
84
 10
2616.97294857
 20
1489.70409172
  0
VERTEX
  8
84
 10
2601.81220970
 20
1486.26079102
  0
VERTEX
  8
84
 10
2586.69783038
 20
1482.60170974
  0
VERTEX
  8
84
 10
2571.62564590
 20
1478.76096291
  0
VERTEX
  8
84
 10
2556.58595230
 20
1474.78145827
  0
VERTEX
  8
84
 10
2541.56904564
 20
1470.70610352
  0
VERTEX
  8
84
 10
2526.57162504
 20
1466.56162160
  0
VERTEX
  8
84
 10
2511.60721344
 20
1462.30756823
  0
VERTEX
  8
84
 10
2496.69573943
 20
1457.88730399
  0
VERTEX
  8
84
 10
2481.85713158
 20
1453.24418945
  0
VERTEX
  8
84
 10
2469.06140486
 20
1449.00457972
  0
VERTEX
  8
84
 10
2456.32515628
 20
1444.58115736
  0
VERTEX
  8
84
 10
2443.63809847
 20
1440.00023737
  0
VERTEX
  8
84
 10
2430.98994408
 20
1435.28813477
  0
VERTEX
  8
84
 10
2418.37767818
 20
1430.44761833
  0
VERTEX
  8
84
 10
2405.85282745
 20
1425.39703632
  0
VERTEX
  8
84
 10
2393.47417175
 20
1420.03126135
  0
VERTEX
  8
84
 10
2381.30049095
 20
1414.24516602
  0
VERTEX
  8
84
 10
2369.39817238
 20
1407.98964163
  0
VERTEX
  8
84
 10
2357.69283148
 20
1401.34766447
  0
VERTEX
  8
84
 10
2346.11895702
 20
1394.45570761
  0
VERTEX
  8
84
 10
2334.61103783
 20
1387.45024414
  0
VERTEX
  8
84
 10
2311.59816811
 20
1373.37188614
  0
VERTEX
  8
84
 10
2300.14719057
 20
1366.25316987
  0
VERTEX
  8
84
 10
2288.76240501
 20
1359.02055664
  0
VERTEX
  8
84
 10
2273.32808069
 20
1351.62658857
  0
VERTEX
  8
84
 10
2257.66833783
 20
1345.30090459
  0
VERTEX
  8
84
 10
2241.75045278
 20
1340.13021266
  0
VERTEX
  8
84
 10
2225.54170189
 20
1336.20122070
  0
VERTEX
  8
84
 10
2208.96835168
 20
1333.53521216
  0
VERTEX
  8
84
 10
2192.16775594
 20
1331.94588721
  0
VERTEX
  8
84
 10
2175.23870349
 20
1331.17148487
  0
VERTEX
  8
84
 10
2158.27998314
 20
1330.95024414
  0
VERTEX
  8
84
 10
2141.34903034
 20
1331.04926021
  0
VERTEX
  8
84
 10
2124.46426977
 20
1331.34983739
  0
VERTEX
  8
84
 10
2090.74092064
 20
1332.19340820
  0
VERTEX
  8
84
 10
2049.28877220
 20
1333.13286133
  0
SEQEND
  0
POINT
  8
2
 10
2024.29267845
 20
1338.08500977
  0
TEXT
  8
2
 10
2024.29267845
 20
1338.08500977
 40
10.00000000
 50
0.00000000
  1
# 41
  0
POINT
  8
2
 10
2053.72724876
 20
1610.80571289
  0
TEXT
  8
2
 10
2053.72724876
 20
1610.80571289
 40
10.00000000
 50
0.00000000
  1
# 42
  0
POINT
  8
2
 10
2078.83076439
 20
1606.33891602
  0
TEXT
  8
2
 10
2078.83076439
 20
1606.33891602
 40
10.00000000
 50
0.00000000
  1
# 43
  0
POINT
  8
3
 10
2100.60517845
 20
1606.18852539
  0
POINT
  8
3
 10
2122.38154564
 20
1606.31254883
  0
POINT
  8
3
 10
2140.44352465
 20
1606.62278117
  0
POINT
  8
3
 10
2158.50144005
 20
1607.12084102
  0
POINT
  8
3
 10
2176.55556059
 20
1607.80679579
  0
POINT
  8
2
 10
2194.60615501
 20
1608.68071289
  0
TEXT
  8
2
 10
2194.60615501
 20
1608.68071289
 40
10.00000000
 50
0.00000000
  1
# 44
  0
POINT
  8
3
 10
2208.64861602
 20
1608.89013060
  0
POINT
  8
3
 10
2222.68822558
 20
1609.17904020
  0
POINT
  8
3
 10
2236.72512994
 20
1609.54935256
  0
POINT
  8
3
 10
2250.75947533
 20
1610.00297852
  0
POINT
  8
3
 10
2264.79202370
 20
1610.54058449
  0
POINT
  8
3
 10
2278.82172035
 20
1611.15769054
  0
POINT
  8
3
 10
2292.84812652
 20
1611.84856362
  0
POINT
  8
3
 10
2306.87080345
 20
1612.60747070
  0
POINT
  8
3
 10
2320.88865205
 20
1613.42990658
  0
POINT
  8
3
 10
2334.90247935
 20
1614.31654750
  0
POINT
  8
3
 10
2348.91243159
 20
1615.26930433
  0
POINT
  8
2
 10
2362.91865501
 20
1616.29008789
  0
TEXT
  8
2
 10
2362.91865501
 20
1616.29008789
 40
10.00000000
 50
0.00000000
  1
# 45
  0
POINT
  8
3
 10
2362.76453947
 20
1608.79429495
  0
POINT
  8
3
 10
2363.30288217
 20
1601.54823176
  0
POINT
  8
3
 10
2364.54608395
 20
1594.51684663
  0
POINT
  8
3
 10
2366.50654564
 20
1587.66508789
  0
POINT
  8
3
 10
2369.15968498
 20
1581.04363889
  0
POINT
  8
3
 10
2372.49214271
 20
1574.66755077
  0
POINT
  8
3
 10
2376.46729994
 20
1568.64032887
  0
POINT
  8
3
 10
2381.04853783
 20
1563.06547852
  0
POINT
  8
3
 10
2386.22276301
 20
1557.99663612
  0
POINT
  8
3
 10
2391.87280025
 20
1553.47443186
  0
POINT
  8
3
 10
2397.89781565
 20
1549.48261421
  0
POINT
  8
3
 10
2404.19697533
 20
1546.00493164
  0
POINT
  8
3
 10
2410.70383090
 20
1543.02378551
  0
POINT
  8
3
 10
2417.41834112
 20
1540.54776934
  0
POINT
  8
3
 10
2424.37421922
 20
1538.58231675
  0
POINT
  8
2
 10
2431.60517845
 20
1537.13286133
  0
TEXT
  8
2
 10
2431.60517845
 20
1537.13286133
 40
10.00000000
 50
0.00000000
  1
# 46
  0
POINT
  8
3
 10
2456.45899880
 20
1537.35298386
  0
POINT
  8
3
 10
2481.15986595
 20
1539.13579102
  0
POINT
  8
3
 10
2505.73113547
 20
1542.57672016
  0
POINT
  8
3
 10
2530.17939720
 20
1547.04008789
  0
POINT
  8
3
 10
2554.54821947
 20
1551.86898399
  0
POINT
  8
3
 10
2578.83076439
 20
1557.03422852
  0
POINT
  8
3
 10
2603.02035268
 20
1562.63676433
  0
POINT
  8
2
 10
2627.11787376
 20
1568.66215820
  0
TEXT
  8
2
 10
2627.11787376
 20
1568.66215820
 40
10.00000000
 50
0.00000000
  1
# 47
  0
POINT
  8
2
 10
2662.73408470
 20
1498.83012695
  0
TEXT
  8
2
 10
2662.73408470
 20
1498.83012695
 40
10.00000000
 50
0.00000000
  1
# 48
  0
POINT
  8
3
 10
2647.43711952
 20
1495.97446242
  0
POINT
  8
3
 10
2632.18232966
 20
1492.93721643
  0
POINT
  8
3
 10
2616.97294857
 20
1489.70409172
  0
POINT
  8
3
 10
2601.81220970
 20
1486.26079102
  0
POINT
  8
3
 10
2586.69783038
 20
1482.60170974
  0
POINT
  8
3
 10
2571.62564590
 20
1478.76096291
  0
POINT
  8
3
 10
2556.58595230
 20
1474.78145827
  0
POINT
  8
3
 10
2541.56904564
 20
1470.70610352
  0
POINT
  8
3
 10
2526.57162504
 20
1466.56162160
  0
POINT
  8
3
 10
2511.60721344
 20
1462.30756823
  0
POINT
  8
3
 10
2496.69573943
 20
1457.88730399
  0
POINT
  8
3
 10
2481.85713158
 20
1453.24418945
  0
POINT
  8
3
 10
2469.06140486
 20
1449.00457972
  0
POINT
  8
3
 10
2456.32515628
 20
1444.58115736
  0
POINT
  8
3
 10
2443.63809847
 20
1440.00023737
  0
POINT
  8
3
 10
2430.98994408
 20
1435.28813477
  0
POINT
  8
3
 10
2418.37767818
 20
1430.44761833
  0
POINT
  8
3
 10
2405.85282745
 20
1425.39703632
  0
POINT
  8
3
 10
2393.47417175
 20
1420.03126135
  0
POINT
  8
3
 10
2381.30049095
 20
1414.24516602
  0
POINT
  8
3
 10
2369.39817238
 20
1407.98964163
  0
POINT
  8
3
 10
2357.69283148
 20
1401.34766447
  0
POINT
  8
3
 10
2346.11895702
 20
1394.45570761
  0
POINT
  8
3
 10
2334.61103783
 20
1387.45024414
  0
POINT
  8
3
 10
2311.59816811
 20
1373.37188614
  0
POINT
  8
3
 10
2300.14719057
 20
1366.25316987
  0
POINT
  8
2
 10
2288.76240501
 20
1359.02055664
  0
TEXT
  8
2
 10
2288.76240501
 20
1359.02055664
 40
10.00000000
 50
0.00000000
  1
# 49
  0
POINT
  8
3
 10
2273.32808069
 20
1351.62658857
  0
POINT
  8
3
 10
2257.66833783
 20
1345.30090459
  0
POINT
  8
3
 10
2241.75045278
 20
1340.13021266
  0
POINT
  8
3
 10
2225.54170189
 20
1336.20122070
  0
POINT
  8
3
 10
2208.96835168
 20
1333.53521216
  0
POINT
  8
3
 10
2192.16775594
 20
1331.94588721
  0
POINT
  8
3
 10
2175.23870349
 20
1331.17148487
  0
POINT
  8
3
 10
2158.27998314
 20
1330.95024414
  0
POINT
  8
3
 10
2141.34903034
 20
1331.04926021
  0
POINT
  8
3
 10
2124.46426977
 20
1331.34983739
  0
POINT
  8
3
 10
2090.74092064
 20
1332.19340820
  0
POINT
  8
2
 10
2049.28877220
 20
1333.13286133
  0
TEXT
  8
2
 10
2049.28877220
 20
1333.13286133
 40
10.00000000
 50
0.00000000
  1
# 50
  0
POINT
  8
4
 10
2481.85713158
 20
1453.24418945
 30
7.50000000
 50
107.37530299
  0
TEXT
  8
1
 10
2481.85713158
 20
1453.24418945
 40
10.00000000
 50
0.00000000
  1
# 51
  0
POINT
  8
4
 10
2288.76240501
 20
1359.02055664
 30
7.50000000
 50
119.01225422
  0
TEXT
  8
1
 10
2288.76240501
 20
1359.02055664
 40
10.00000000
 50
0.00000000
  1
# 52
  0
POINT
  8
4
 10
2049.28877220
 20
1333.13286133
 30
7.50000000
 50
443.74777269
  0
TEXT
  8
1
 10
2049.28877220
 20
1333.13286133
 40
10.00000000
 50
0.00000000
  1
# 53
  0
ENDBLK
  0
BLOCK
  8
1
  2
5
 70
64
 10
0.0
 20
0.0
  0
LINE
  8
7
 10
1727.08034371
 20
966.78139648
 11
2041.42018746
 21
966.78139648
  0
TEXT
  8
1
 10
0.00000000
 20
0.00000000
 40
20.00000000
 50
0.00000000
  1
Size: 46
  0
TEXT
  8
1
 10
1884.25026559
 20
981.78139648
 40
20.00000000
 50
0.00000000
  1
Piece Name: AHAVANA.DE
  0
TEXT
  8
1
 10
1884.25026559
 20
981.78139648
 40
20.00000000
 50
0.00000000
  1
Quantity: 1
  0
TEXT
  8
1
 10
1884.25026559
 20
981.78139648
 40
20.00000000
 50
0.00000000
  1
Rotation: 0
  0
TEXT
  8
1
 10
1884.25026559
 20
981.78139648
 40
20.00000000
 50
0.00000000
  1
Tilt: 0
  0
TEXT
  8
1
 10
1884.25026559
 20
981.78139648
 40
20.00000000
 50
0.00000000
  1
Fold: N
  0
TEXT
  8
1
 10
1884.25026559
 20
981.78139648
 40
20.00000000
 50
0.00000000
  1
Material: 1
  0
POLYLINE
  8
1
 66
1
 70
1
  0
VERTEX
  8
1
 10
1866.87006645
 20
955.67309570
  0
VERTEX
  8
1
 10
1836.87201958
 20
958.06665039
  0
VERTEX
  8
1
 10
1617.73139458
 20
958.42114258
  0
VERTEX
  8
1
 10
1617.96283989
 20
965.56860352
  0
VERTEX
  8
1
 10
1612.72358208
 20
1051.80102539
  0
VERTEX
  8
1
 10
1615.30561333
 20
1151.85864258
  0
VERTEX
  8
1
 10
1647.43256645
 20
1151.85864258
  0
VERTEX
  8
1
 10
1811.82807426
 20
1151.85961914
  0
VERTEX
  8
1
 10
1833.94428520
 20
1151.85961914
  0
VERTEX
  8
1
 10
1847.44205944
 20
1139.00768811
  0
VERTEX
  8
1
 10
1861.34602360
 20
1126.72308604
  0
VERTEX
  8
1
 10
1875.65287834
 20
1114.96573489
  0
VERTEX
  8
1
 10
1890.35932426
 20
1103.69555664
  0
VERTEX
  8
1
 10
1905.95519625
 20
1092.56084569
  0
VERTEX
  8
1
 10
1921.98361564
 20
1082.02910359
  0
VERTEX
  8
1
 10
1938.45501630
 20
1072.22707239
  0
VERTEX
  8
1
 10
1955.37983208
 20
1063.28149414
  0
VERTEX
  8
1
 10
1972.71715045
 20
1055.28075536
  0
VERTEX
  8
1
 10
1990.41474598
 20
1048.07291589
  0
VERTEX
  8
1
 10
2008.37076347
 20
1041.47131867
  0
VERTEX
  8
1
 10
2026.48334770
 20
1035.28930664
  0
VERTEX
  8
1
 10
2044.60286820
 20
1029.39524387
  0
VERTEX
  8
1
 10
2062.78478310
 20
1023.74954456
  0
VERTEX
  8
1
 10
2081.03717172
 20
1018.36933175
  0
VERTEX
  8
1
 10
2099.36811333
 20
1013.27172852
  0
VERTEX
  8
1
 10
2117.75498488
 20
1008.47110093
  0
VERTEX
  8
1
 10
2136.21287114
 20
1003.92941025
  0
VERTEX
  8
1
 10
2154.72640584
 20
999.60673026
  0
VERTEX
  8
1
 10
2173.28022270
 20
995.46313477
  0
VERTEX
  8
1
 10
2190.26872336
 20
991.80444729
  0
VERTEX
  8
1
 10
2207.28245964
 20
988.27353895
  0
VERTEX
  8
1
 10
2224.32583916
 20
984.88186211
  0
VERTEX
  8
1
 10
2241.40326958
 20
981.64086914
  0
VERTEX
  8
1
 10
2234.89456141
 20
967.31903367
  0
VERTEX
  8
1
 10
2228.57221489
 20
952.91625977
  0
VERTEX
  8
1
 10
2221.22428314
 20
935.52093533
  0
VERTEX
  8
1
 10
2214.17280083
 20
918.00415039
  0
VERTEX
  8
1
 10
2208.22261864
 20
902.43715234
  0
VERTEX
  8
1
 10
2202.52533989
 20
886.77172852
  0
VERTEX
  8
1
 10
2180.64779110
 20
892.25697296
  0
VERTEX
  8
1
 10
2158.63178520
 20
897.04711914
  0
VERTEX
  8
1
 10
2134.41276637
 20
901.43938219
  0
VERTEX
  8
1
 10
2110.07319145
 20
905.28149414
  0
VERTEX
  8
1
 10
2085.57990927
 20
908.77773981
  0
VERTEX
  8
1
 10
2061.00287895
 20
911.17211914
  0
VERTEX
  8
1
 10
2042.15951922
 20
911.75970911
  0
VERTEX
  8
1
 10
2023.25580864
 20
911.34106445
  0
VERTEX
  8
1
 10
2010.93061333
 20
909.40258789
  0
VERTEX
  8
1
 10
1996.51906857
 20
905.46559234
  0
VERTEX
  8
1
 10
1989.54696899
 20
902.75465093
  0
VERTEX
  8
1
 10
1982.82026176
 20
899.48071289
  0
VERTEX
  8
1
 10
1976.23438326
 20
895.48866347
  0
VERTEX
  8
1
 10
1970.06104420
 20
890.87264063
  0
VERTEX
  8
1
 10
1964.38254829
 20
885.65733361
  0
VERTEX
  8
1
 10
1959.28119926
 20
879.86743164
  0
VERTEX
  8
1
 10
1954.81664146
 20
873.52001845
  0
VERTEX
  8
1
 10
1951.04575338
 20
866.73191980
  0
VERTEX
  8
1
 10
1947.99830113
 20
859.61606926
  0
VERTEX
  8
1
 10
1945.70405083
 20
852.28540039
  0
VERTEX
  8
1
 10
1944.37441468
 20
846.01557893
  0
VERTEX
  8
1
 10
1943.59207452
 20
839.64541820
  0
VERTEX
  8
1
 10
1943.34960924
 20
833.14676224
  0
VERTEX
  8
1
 10
1943.63959770
 20
826.49145508
  0
VERTEX
  8
1
 10
1930.13802240
 20
826.77330283
  0
VERTEX
  8
1
 10
1916.63809905
 20
826.96041253
  0
VERTEX
  8
1
 10
1903.13982764
 20
827.05278417
  0
VERTEX
  8
1
 10
1889.64320818
 20
827.05041776
  0
VERTEX
  8
1
 10
1876.14824066
 20
826.95331329
  0
VERTEX
  8
1
 10
1862.65492509
 20
826.76147077
  0
VERTEX
  8
1
 10
1848.78749307
 20
826.46555172
  0
VERTEX
  8
1
 10
1834.92180630
 20
826.06954352
  0
VERTEX
  8
1
 10
1821.05786479
 20
825.57344616
  0
VERTEX
  8
1
 10
1807.19566853
 20
824.97725964
  0
VERTEX
  8
1
 10
1793.33521752
 20
824.28098397
  0
VERTEX
  8
1
 10
1779.47651176
 20
823.48461914
  0
VERTEX
  8
1
 10
1763.48897345
 20
823.37786642
  0
VERTEX
  8
1
 10
1747.50871340
 20
823.07579086
  0
VERTEX
  8
1
 10
1731.53573162
 20
822.57839247
  0
VERTEX
  8
1
 10
1715.57023703
 20
821.88568159
  0
VERTEX
  8
1
 10
1699.61202051
 20
820.99765298
  0
VERTEX
  8
1
 10
1683.66108208
 20
819.91430664
  0
VERTEX
  8
1
 10
1676.73039652
 20
819.26440588
  0
VERTEX
  8
1
 10
1662.89017541
 20
817.78300120
  0
VERTEX
  8
1
 10
1650.24260386
 20
816.21425587
  0
VERTEX
  8
1
 10
1643.92768364
 20
815.35375977
  0
VERTEX
  8
1
 10
1617.95600395
 20
944.42797852
  0
VERTEX
  8
1
 10
1617.73237114
 20
951.79907227
  0
VERTEX
  8
1
 10
1836.87592583
 20
953.11743164
  0
SEQEND
  0
POLYLINE
  8
84
 66
1
 70
1
  0
VERTEX
  8
84
 10
1866.87006645
 20
955.67309570
  0
VERTEX
  8
84
 10
1836.87201958
 20
958.06665039
  0
VERTEX
  8
84
 10
1617.73139458
 20
958.42114258
  0
VERTEX
  8
84
 10
1617.96283989
 20
965.56860352
  0
VERTEX
  8
84
 10
1612.72358208
 20
1051.80102539
  0
VERTEX
  8
84
 10
1615.30561333
 20
1151.85864258
  0
VERTEX
  8
84
 10
1647.43256645
 20
1151.85864258
  0
VERTEX
  8
84
 10
1811.82807426
 20
1151.85961914
  0
VERTEX
  8
84
 10
1833.94428520
 20
1151.85961914
  0
VERTEX
  8
84
 10
1847.44205944
 20
1139.00768811
  0
VERTEX
  8
84
 10
1861.34602360
 20
1126.72308604
  0
VERTEX
  8
84
 10
1875.65287834
 20
1114.96573489
  0
VERTEX
  8
84
 10
1890.35932426
 20
1103.69555664
  0
VERTEX
  8
84
 10
1905.95519625
 20
1092.56084569
  0
VERTEX
  8
84
 10
1921.98361564
 20
1082.02910359
  0
VERTEX
  8
84
 10
1938.45501630
 20
1072.22707239
  0
VERTEX
  8
84
 10
1955.37983208
 20
1063.28149414
  0
VERTEX
  8
84
 10
1972.71715045
 20
1055.28075536
  0
VERTEX
  8
84
 10
1990.41474598
 20
1048.07291589
  0
VERTEX
  8
84
 10
2008.37076347
 20
1041.47131867
  0
VERTEX
  8
84
 10
2026.48334770
 20
1035.28930664
  0
VERTEX
  8
84
 10
2044.60286820
 20
1029.39524387
  0
VERTEX
  8
84
 10
2062.78478310
 20
1023.74954456
  0
VERTEX
  8
84
 10
2081.03717172
 20
1018.36933175
  0
VERTEX
  8
84
 10
2099.36811333
 20
1013.27172852
  0
VERTEX
  8
84
 10
2117.75498488
 20
1008.47110093
  0
VERTEX
  8
84
 10
2136.21287114
 20
1003.92941025
  0
VERTEX
  8
84
 10
2154.72640584
 20
999.60673026
  0
VERTEX
  8
84
 10
2173.28022270
 20
995.46313477
  0
VERTEX
  8
84
 10
2190.26872336
 20
991.80444729
  0
VERTEX
  8
84
 10
2207.28245964
 20
988.27353895
  0
VERTEX
  8
84
 10
2224.32583916
 20
984.88186211
  0
VERTEX
  8
84
 10
2241.40326958
 20
981.64086914
  0
VERTEX
  8
84
 10
2234.89456141
 20
967.31903367
  0
VERTEX
  8
84
 10
2228.57221489
 20
952.91625977
  0
VERTEX
  8
84
 10
2221.22428314
 20
935.52093533
  0
VERTEX
  8
84
 10
2214.17280083
 20
918.00415039
  0
VERTEX
  8
84
 10
2208.22261864
 20
902.43715234
  0
VERTEX
  8
84
 10
2202.52533989
 20
886.77172852
  0
VERTEX
  8
84
 10
2180.64779110
 20
892.25697296
  0
VERTEX
  8
84
 10
2158.63178520
 20
897.04711914
  0
VERTEX
  8
84
 10
2134.41276637
 20
901.43938219
  0
VERTEX
  8
84
 10
2110.07319145
 20
905.28149414
  0
VERTEX
  8
84
 10
2085.57990927
 20
908.77773981
  0
VERTEX
  8
84
 10
2061.00287895
 20
911.17211914
  0
VERTEX
  8
84
 10
2042.15951922
 20
911.75970911
  0
VERTEX
  8
84
 10
2023.25580864
 20
911.34106445
  0
VERTEX
  8
84
 10
2010.93061333
 20
909.40258789
  0
VERTEX
  8
84
 10
1996.51906857
 20
905.46559234
  0
VERTEX
  8
84
 10
1989.54696899
 20
902.75465093
  0
VERTEX
  8
84
 10
1982.82026176
 20
899.48071289
  0
VERTEX
  8
84
 10
1976.23438326
 20
895.48866347
  0
VERTEX
  8
84
 10
1970.06104420
 20
890.87264063
  0
VERTEX
  8
84
 10
1964.38254829
 20
885.65733361
  0
VERTEX
  8
84
 10
1959.28119926
 20
879.86743164
  0
VERTEX
  8
84
 10
1954.81664146
 20
873.52001845
  0
VERTEX
  8
84
 10
1951.04575338
 20
866.73191980
  0
VERTEX
  8
84
 10
1947.99830113
 20
859.61606926
  0
VERTEX
  8
84
 10
1945.70405083
 20
852.28540039
  0
VERTEX
  8
84
 10
1944.37441468
 20
846.01557893
  0
VERTEX
  8
84
 10
1943.59207452
 20
839.64541820
  0
VERTEX
  8
84
 10
1943.34960924
 20
833.14676224
  0
VERTEX
  8
84
 10
1943.63959770
 20
826.49145508
  0
VERTEX
  8
84
 10
1930.13802240
 20
826.77330283
  0
VERTEX
  8
84
 10
1916.63809905
 20
826.96041253
  0
VERTEX
  8
84
 10
1903.13982764
 20
827.05278417
  0
VERTEX
  8
84
 10
1889.64320818
 20
827.05041776
  0
VERTEX
  8
84
 10
1876.14824066
 20
826.95331329
  0
VERTEX
  8
84
 10
1862.65492509
 20
826.76147077
  0
VERTEX
  8
84
 10
1848.78749307
 20
826.46555172
  0
VERTEX
  8
84
 10
1834.92180630
 20
826.06954352
  0
VERTEX
  8
84
 10
1821.05786479
 20
825.57344616
  0
VERTEX
  8
84
 10
1807.19566853
 20
824.97725964
  0
VERTEX
  8
84
 10
1793.33521752
 20
824.28098397
  0
VERTEX
  8
84
 10
1779.47651176
 20
823.48461914
  0
VERTEX
  8
84
 10
1763.48897345
 20
823.37786642
  0
VERTEX
  8
84
 10
1747.50871340
 20
823.07579086
  0
VERTEX
  8
84
 10
1731.53573162
 20
822.57839247
  0
VERTEX
  8
84
 10
1715.57023703
 20
821.88568159
  0
VERTEX
  8
84
 10
1699.61202051
 20
820.99765298
  0
VERTEX
  8
84
 10
1683.66108208
 20
819.91430664
  0
VERTEX
  8
84
 10
1676.73039652
 20
819.26440588
  0
VERTEX
  8
84
 10
1662.89017541
 20
817.78300120
  0
VERTEX
  8
84
 10
1650.24260386
 20
816.21425587
  0
VERTEX
  8
84
 10
1643.92768364
 20
815.35375977
  0
VERTEX
  8
84
 10
1617.95600395
 20
944.42797852
  0
VERTEX
  8
84
 10
1617.73237114
 20
951.79907227
  0
VERTEX
  8
84
 10
1836.87592583
 20
953.11743164
  0
SEQEND
  0
POINT
  8
2
 10
1866.87006645
 20
955.67309570
  0
TEXT
  8
2
 10
1866.87006645
 20
955.67309570
 40
10.00000000
 50
0.00000000
  1
# 54
  0
POINT
  8
2
 10
1836.87201958
 20
958.06665039
  0
TEXT
  8
2
 10
1836.87201958
 20
958.06665039
 40
10.00000000
 50
0.00000000
  1
# 55
  0
POINT
  8
2
 10
1617.73139458
 20
958.42114258
  0
TEXT
  8
2
 10
1617.73139458
 20
958.42114258
 40
10.00000000
 50
0.00000000
  1
# 56
  0
POINT
  8
2
 10
1617.96283989
 20
965.56860352
  0
TEXT
  8
2
 10
1617.96283989
 20
965.56860352
 40
10.00000000
 50
0.00000000
  1
# 57
  0
POINT
  8
2
 10
1612.72358208
 20
1051.80102539
  0
TEXT
  8
2
 10
1612.72358208
 20
1051.80102539
 40
10.00000000
 50
0.00000000
  1
# 58
  0
POINT
  8
2
 10
1615.30561333
 20
1151.85864258
  0
TEXT
  8
2
 10
1615.30561333
 20
1151.85864258
 40
10.00000000
 50
0.00000000
  1
# 59
  0
POINT
  8
2
 10
1647.43256645
 20
1151.85864258
  0
TEXT
  8
2
 10
1647.43256645
 20
1151.85864258
 40
10.00000000
 50
0.00000000
  1
# 60
  0
POINT
  8
2
 10
1811.82807426
 20
1151.85961914
  0
TEXT
  8
2
 10
1811.82807426
 20
1151.85961914
 40
10.00000000
 50
0.00000000
  1
# 61
  0
POINT
  8
2
 10
1833.94428520
 20
1151.85961914
  0
TEXT
  8
2
 10
1833.94428520
 20
1151.85961914
 40
10.00000000
 50
0.00000000
  1
# 62
  0
POINT
  8
3
 10
1847.44205944
 20
1139.00768811
  0
POINT
  8
3
 10
1861.34602360
 20
1126.72308604
  0
POINT
  8
3
 10
1875.65287834
 20
1114.96573489
  0
POINT
  8
3
 10
1890.35932426
 20
1103.69555664
  0
POINT
  8
3
 10
1905.95519625
 20
1092.56084569
  0
POINT
  8
3
 10
1921.98361564
 20
1082.02910359
  0
POINT
  8
3
 10
1938.45501630
 20
1072.22707239
  0
POINT
  8
3
 10
1955.37983208
 20
1063.28149414
  0
POINT
  8
3
 10
1972.71715045
 20
1055.28075536
  0
POINT
  8
3
 10
1990.41474598
 20
1048.07291589
  0
POINT
  8
3
 10
2008.37076347
 20
1041.47131867
  0
POINT
  8
3
 10
2026.48334770
 20
1035.28930664
  0
POINT
  8
3
 10
2044.60286820
 20
1029.39524387
  0
POINT
  8
3
 10
2062.78478310
 20
1023.74954456
  0
POINT
  8
3
 10
2081.03717172
 20
1018.36933175
  0
POINT
  8
3
 10
2099.36811333
 20
1013.27172852
  0
POINT
  8
3
 10
2117.75498488
 20
1008.47110093
  0
POINT
  8
3
 10
2136.21287114
 20
1003.92941025
  0
POINT
  8
3
 10
2154.72640584
 20
999.60673026
  0
POINT
  8
3
 10
2173.28022270
 20
995.46313477
  0
POINT
  8
3
 10
2190.26872336
 20
991.80444729
  0
POINT
  8
3
 10
2207.28245964
 20
988.27353895
  0
POINT
  8
3
 10
2224.32583916
 20
984.88186211
  0
POINT
  8
2
 10
2241.40326958
 20
981.64086914
  0
TEXT
  8
2
 10
2241.40326958
 20
981.64086914
 40
10.00000000
 50
0.00000000
  1
# 63
  0
POINT
  8
3
 10
2234.89456141
 20
967.31903367
  0
POINT
  8
3
 10
2228.57221489
 20
952.91625977
  0
POINT
  8
3
 10
2221.22428314
 20
935.52093533
  0
POINT
  8
3
 10
2214.17280083
 20
918.00415039
  0
POINT
  8
3
 10
2208.22261864
 20
902.43715234
  0
POINT
  8
2
 10
2202.52533989
 20
886.77172852
  0
TEXT
  8
2
 10
2202.52533989
 20
886.77172852
 40
10.00000000
 50
0.00000000
  1
# 64
  0
POINT
  8
3
 10
2180.64779110
 20
892.25697296
  0
POINT
  8
3
 10
2158.63178520
 20
897.04711914
  0
POINT
  8
3
 10
2134.41276637
 20
901.43938219
  0
POINT
  8
3
 10
2110.07319145
 20
905.28149414
  0
POINT
  8
3
 10
2085.57990927
 20
908.77773981
  0
POINT
  8
3
 10
2061.00287895
 20
911.17211914
  0
POINT
  8
3
 10
2042.15951922
 20
911.75970911
  0
POINT
  8
2
 10
2023.25580864
 20
911.34106445
  0
TEXT
  8
2
 10
2023.25580864
 20
911.34106445
 40
10.00000000
 50
0.00000000
  1
# 65
  0
POINT
  8
3
 10
2010.93061333
 20
909.40258789
  0
POINT
  8
3
 10
1996.51906857
 20
905.46559234
  0
POINT
  8
3
 10
1989.54696899
 20
902.75465093
  0
POINT
  8
3
 10
1982.82026176
 20
899.48071289
  0
POINT
  8
3
 10
1976.23438326
 20
895.48866347
  0
POINT
  8
3
 10
1970.06104420
 20
890.87264063
  0
POINT
  8
3
 10
1964.38254829
 20
885.65733361
  0
POINT
  8
3
 10
1959.28119926
 20
879.86743164
  0
POINT
  8
3
 10
1954.81664146
 20
873.52001845
  0
POINT
  8
3
 10
1951.04575338
 20
866.73191980
  0
POINT
  8
3
 10
1947.99830113
 20
859.61606926
  0
POINT
  8
3
 10
1945.70405083
 20
852.28540039
  0
POINT
  8
3
 10
1944.37441468
 20
846.01557893
  0
POINT
  8
3
 10
1943.59207452
 20
839.64541820
  0
POINT
  8
3
 10
1943.34960924
 20
833.14676224
  0
POINT
  8
2
 10
1943.63959770
 20
826.49145508
  0
TEXT
  8
2
 10
1943.63959770
 20
826.49145508
 40
10.00000000
 50
0.00000000
  1
# 66
  0
POINT
  8
3
 10
1930.13802240
 20
826.77330283
  0
POINT
  8
3
 10
1916.63809905
 20
826.96041253
  0
POINT
  8
3
 10
1903.13982764
 20
827.05278417
  0
POINT
  8
3
 10
1889.64320818
 20
827.05041776
  0
POINT
  8
3
 10
1876.14824066
 20
826.95331329
  0
POINT
  8
3
 10
1862.65492509
 20
826.76147077
  0
POINT
  8
3
 10
1848.78749307
 20
826.46555172
  0
POINT
  8
3
 10
1834.92180630
 20
826.06954352
  0
POINT
  8
3
 10
1821.05786479
 20
825.57344616
  0
POINT
  8
3
 10
1807.19566853
 20
824.97725964
  0
POINT
  8
3
 10
1793.33521752
 20
824.28098397
  0
POINT
  8
2
 10
1779.47651176
 20
823.48461914
  0
TEXT
  8
2
 10
1779.47651176
 20
823.48461914
 40
10.00000000
 50
0.00000000
  1
# 67
  0
POINT
  8
3
 10
1763.48897345
 20
823.37786642
  0
POINT
  8
3
 10
1747.50871340
 20
823.07579086
  0
POINT
  8
3
 10
1731.53573162
 20
822.57839247
  0
POINT
  8
3
 10
1715.57023703
 20
821.88568159
  0
POINT
  8
3
 10
1699.61202051
 20
820.99765298
  0
POINT
  8
2
 10
1683.66108208
 20
819.91430664
  0
TEXT
  8
2
 10
1683.66108208
 20
819.91430664
 40
10.00000000
 50
0.00000000
  1
# 68
  0
POINT
  8
3
 10
1676.73039652
 20
819.26440588
  0
POINT
  8
3
 10
1662.89017541
 20
817.78300120
  0
POINT
  8
3
 10
1650.24260386
 20
816.21425587
  0
POINT
  8
2
 10
1643.92768364
 20
815.35375977
  0
TEXT
  8
2
 10
1643.92768364
 20
815.35375977
 40
10.00000000
 50
0.00000000
  1
# 69
  0
POINT
  8
2
 10
1617.95600395
 20
944.42797852
  0
TEXT
  8
2
 10
1617.95600395
 20
944.42797852
 40
10.00000000
 50
0.00000000
  1
# 70
  0
POINT
  8
2
 10
1617.73237114
 20
951.79907227
  0
TEXT
  8
2
 10
1617.73237114
 20
951.79907227
 40
10.00000000
 50
0.00000000
  1
# 71
  0
POINT
  8
2
 10
1836.87592583
 20
953.11743164
  0
TEXT
  8
2
 10
1836.87592583
 20
953.11743164
 40
10.00000000
 50
0.00000000
  1
# 72
  0
ENDBLK
  0
BLOCK
  8
1
  2
6
 70
64
 10
0.0
 20
0.0
  0
LINE
  8
7
 10
1396.24870882
 20
1461.46065435
 11
1710.17693147
 21
1461.46065435
  0
TEXT
  8
1
 10
0.00000000
 20
0.00000000
 40
20.00000000
 50
0.00000000
  1
Size: 46
  0
TEXT
  8
1
 10
1553.21282014
 20
1476.46065435
 40
20.00000000
 50
0.00000000
  1
Piece Name: AHAVANA.PE
  0
TEXT
  8
1
 10
1553.21282014
 20
1476.46065435
 40
20.00000000
 50
0.00000000
  1
Quantity: 1
  0
TEXT
  8
1
 10
1553.21282014
 20
1476.46065435
 40
20.00000000
 50
0.00000000
  1
Rotation: 0
  0
TEXT
  8
1
 10
1553.21282014
 20
1476.46065435
 40
20.00000000
 50
0.00000000
  1
Tilt: 0
  0
TEXT
  8
1
 10
1553.21282014
 20
1476.46065435
 40
20.00000000
 50
0.00000000
  1
Fold: N
  0
TEXT
  8
1
 10
1553.21282014
 20
1476.46065435
 40
20.00000000
 50
0.00000000
  1
Material: 1
  0
POLYLINE
  8
1
 66
1
 70
1
  0
VERTEX
  8
1
 10
1079.13154945
 20
1362.79341803
  0
VERTEX
  8
1
 10
1138.37080727
 20
1361.24166021
  0
VERTEX
  8
1
 10
1171.13628930
 20
1360.09886064
  0
VERTEX
  8
1
 10
1187.55461353
 20
1359.60407492
  0
VERTEX
  8
1
 10
1204.03975258
 20
1359.27974615
  0
VERTEX
  8
1
 10
1220.78693626
 20
1359.25655125
  0
VERTEX
  8
1
 10
1237.50325460
 20
1359.83213127
  0
VERTEX
  8
1
 10
1254.05642544
 20
1361.33928240
  0
VERTEX
  8
1
 10
1270.31416664
 20
1364.11080084
  0
VERTEX
  8
1
 10
1286.06442231
 20
1368.37012746
  0
VERTEX
  8
1
 10
1301.43649425
 20
1374.09477044
  0
VERTEX
  8
1
 10
1316.47396489
 20
1381.17508487
  0
VERTEX
  8
1
 10
1331.22041664
 20
1389.50142584
  0
VERTEX
  8
1
 10
1331.80537758
 20
1389.80806646
  0
VERTEX
  8
1
 10
1346.60746763
 20
1399.53054128
  0
VERTEX
  8
1
 10
1361.64401355
 20
1408.79692608
  0
VERTEX
  8
1
 10
1376.93384891
 20
1417.57547286
  0
VERTEX
  8
1
 10
1392.49580727
 20
1425.83443365
  0
VERTEX
  8
1
 10
1408.28400039
 20
1433.53885660
  0
VERTEX
  8
1
 10
1424.30505976
 20
1440.79026592
  0
VERTEX
  8
1
 10
1440.50279172
 20
1447.68338801
  0
VERTEX
  8
1
 10
1456.82100258
 20
1454.31294928
  0
VERTEX
  8
1
 10
1473.24104714
 20
1460.74902593
  0
VERTEX
  8
1
 10
1489.75460330
 20
1466.90837574
  0
VERTEX
  8
1
 10
1506.39071457
 20
1472.68358654
  0
VERTEX
  8
1
 10
1523.17842445
 20
1477.96724615
  0
VERTEX
  8
1
 10
1537.04357093
 20
1481.87768859
  0
VERTEX
  8
1
 10
1550.99778031
 20
1485.48934180
  0
VERTEX
  8
1
 10
1565.00910863
 20
1488.90464445
  0
VERTEX
  8
1
 10
1579.04561195
 20
1492.22603521
  0
VERTEX
  8
1
 10
1607.18990876
 20
1498.80756764
  0
VERTEX
  8
1
 10
1621.28217111
 20
1501.98359967
  0
VERTEX
  8
1
 10
1635.40401039
 20
1505.01509771
  0
VERTEX
  8
1
 10
1648.55768928
 20
1507.66645622
  0
VERTEX
  8
1
 10
1661.74378436
 20
1510.16407879
  0
VERTEX
  8
1
 10
1674.95872292
 20
1512.52300184
  0
VERTEX
  8
1
 10
1688.19893227
 20
1514.75826178
  0
VERTEX
  8
1
 10
1706.98799477
 20
1471.88521490
  0
VERTEX
  8
1
 10
1689.85545845
 20
1468.90152492
  0
VERTEX
  8
1
 10
1672.77790891
 20
1465.67912515
  0
VERTEX
  8
1
 10
1655.76072456
 20
1462.19209446
  0
VERTEX
  8
1
 10
1638.80928383
 20
1458.41451178
  0
VERTEX
  8
1
 10
1620.36051229
 20
1453.94387106
  0
VERTEX
  8
1
 10
1601.97796306
 20
1449.18548350
  0
VERTEX
  8
1
 10
1583.64291015
 20
1444.22959836
  0
VERTEX
  8
1
 10
1565.33662758
 20
1439.16646490
  0
VERTEX
  8
1
 10
1547.02125512
 20
1434.04701164
  0
VERTEX
  8
1
 10
1528.74260409
 20
1428.80953581
  0
VERTEX
  8
1
 10
1510.52732222
 20
1423.35306360
  0
VERTEX
  8
1
 10
1492.40205727
 20
1417.57662115
  0
VERTEX
  8
1
 10
1474.34340061
 20
1411.35768969
  0
VERTEX
  8
1
 10
1456.47587707
 20
1404.60852561
  0
VERTEX
  8
1
 10
1438.87320144
 20
1397.22255968
  0
VERTEX
  8
1
 10
1421.60908852
 20
1389.09322271
  0
VERTEX
  8
1
 10
1404.71263665
 20
1380.12915098
  0
VERTEX
  8
1
 10
1388.22771194
 20
1370.40454393
  0
VERTEX
  8
1
 10
1372.15198137
 20
1360.01206924
  0
VERTEX
  8
1
 10
1356.48311195
 20
1349.04439459
  0
VERTEX
  8
1
 10
1341.67820692
 20
1337.93019002
  0
VERTEX
  8
1
 10
1327.25430223
 20
1326.33306462
  0
VERTEX
  8
1
 10
1313.21213638
 20
1314.22368427
  0
VERTEX
  8
1
 10
1299.55244789
 20
1301.57271490
  0
VERTEX
  8
1
 10
1277.40694008
 20
1301.57564459
  0
VERTEX
  8
1
 10
1113.00850258
 20
1301.56783209
  0
VERTEX
  8
1
 10
1081.02022133
 20
1301.57271490
  0
SEQEND
  0
POLYLINE
  8
84
 66
1
 70
1
  0
VERTEX
  8
84
 10
1079.13154945
 20
1362.79341803
  0
VERTEX
  8
84
 10
1138.37080727
 20
1361.24166021
  0
VERTEX
  8
84
 10
1171.13628930
 20
1360.09886064
  0
VERTEX
  8
84
 10
1187.55461353
 20
1359.60407492
  0
VERTEX
  8
84
 10
1204.03975258
 20
1359.27974615
  0
VERTEX
  8
84
 10
1220.78693626
 20
1359.25655125
  0
VERTEX
  8
84
 10
1237.50325460
 20
1359.83213127
  0
VERTEX
  8
84
 10
1254.05642544
 20
1361.33928240
  0
VERTEX
  8
84
 10
1270.31416664
 20
1364.11080084
  0
VERTEX
  8
84
 10
1286.06442231
 20
1368.37012746
  0
VERTEX
  8
84
 10
1301.43649425
 20
1374.09477044
  0
VERTEX
  8
84
 10
1316.47396489
 20
1381.17508487
  0
VERTEX
  8
84
 10
1331.22041664
 20
1389.50142584
  0
VERTEX
  8
84
 10
1331.80537758
 20
1389.80806646
  0
VERTEX
  8
84
 10
1346.60746763
 20
1399.53054128
  0
VERTEX
  8
84
 10
1361.64401355
 20
1408.79692608
  0
VERTEX
  8
84
 10
1376.93384891
 20
1417.57547286
  0
VERTEX
  8
84
 10
1392.49580727
 20
1425.83443365
  0
VERTEX
  8
84
 10
1408.28400039
 20
1433.53885660
  0
VERTEX
  8
84
 10
1424.30505976
 20
1440.79026592
  0
VERTEX
  8
84
 10
1440.50279172
 20
1447.68338801
  0
VERTEX
  8
84
 10
1456.82100258
 20
1454.31294928
  0
VERTEX
  8
84
 10
1473.24104714
 20
1460.74902593
  0
VERTEX
  8
84
 10
1489.75460330
 20
1466.90837574
  0
VERTEX
  8
84
 10
1506.39071457
 20
1472.68358654
  0
VERTEX
  8
84
 10
1523.17842445
 20
1477.96724615
  0
VERTEX
  8
84
 10
1537.04357093
 20
1481.87768859
  0
VERTEX
  8
84
 10
1550.99778031
 20
1485.48934180
  0
VERTEX
  8
84
 10
1565.00910863
 20
1488.90464445
  0
VERTEX
  8
84
 10
1579.04561195
 20
1492.22603521
  0
VERTEX
  8
84
 10
1607.18990876
 20
1498.80756764
  0
VERTEX
  8
84
 10
1621.28217111
 20
1501.98359967
  0
VERTEX
  8
84
 10
1635.40401039
 20
1505.01509771
  0
VERTEX
  8
84
 10
1648.55768928
 20
1507.66645622
  0
VERTEX
  8
84
 10
1661.74378436
 20
1510.16407879
  0
VERTEX
  8
84
 10
1674.95872292
 20
1512.52300184
  0
VERTEX
  8
84
 10
1688.19893227
 20
1514.75826178
  0
VERTEX
  8
84
 10
1706.98799477
 20
1471.88521490
  0
VERTEX
  8
84
 10
1689.85545845
 20
1468.90152492
  0
VERTEX
  8
84
 10
1672.77790891
 20
1465.67912515
  0
VERTEX
  8
84
 10
1655.76072456
 20
1462.19209446
  0
VERTEX
  8
84
 10
1638.80928383
 20
1458.41451178
  0
VERTEX
  8
84
 10
1620.36051229
 20
1453.94387106
  0
VERTEX
  8
84
 10
1601.97796306
 20
1449.18548350
  0
VERTEX
  8
84
 10
1583.64291015
 20
1444.22959836
  0
VERTEX
  8
84
 10
1565.33662758
 20
1439.16646490
  0
VERTEX
  8
84
 10
1547.02125512
 20
1434.04701164
  0
VERTEX
  8
84
 10
1528.74260409
 20
1428.80953581
  0
VERTEX
  8
84
 10
1510.52732222
 20
1423.35306360
  0
VERTEX
  8
84
 10
1492.40205727
 20
1417.57662115
  0
VERTEX
  8
84
 10
1474.34340061
 20
1411.35768969
  0
VERTEX
  8
84
 10
1456.47587707
 20
1404.60852561
  0
VERTEX
  8
84
 10
1438.87320144
 20
1397.22255968
  0
VERTEX
  8
84
 10
1421.60908852
 20
1389.09322271
  0
VERTEX
  8
84
 10
1404.71263665
 20
1380.12915098
  0
VERTEX
  8
84
 10
1388.22771194
 20
1370.40454393
  0
VERTEX
  8
84
 10
1372.15198137
 20
1360.01206924
  0
VERTEX
  8
84
 10
1356.48311195
 20
1349.04439459
  0
VERTEX
  8
84
 10
1341.67820692
 20
1337.93019002
  0
VERTEX
  8
84
 10
1327.25430223
 20
1326.33306462
  0
VERTEX
  8
84
 10
1313.21213638
 20
1314.22368427
  0
VERTEX
  8
84
 10
1299.55244789
 20
1301.57271490
  0
VERTEX
  8
84
 10
1277.40694008
 20
1301.57564459
  0
VERTEX
  8
84
 10
1113.00850258
 20
1301.56783209
  0
VERTEX
  8
84
 10
1081.02022133
 20
1301.57271490
  0
SEQEND
  0
POINT
  8
2
 10
1079.13154945
 20
1362.79341803
  0
TEXT
  8
2
 10
1079.13154945
 20
1362.79341803
 40
10.00000000
 50
0.00000000
  1
# 73
  0
POINT
  8
3
 10
1138.37080727
 20
1361.24166021
  0
POINT
  8
3
 10
1171.13628930
 20
1360.09886064
  0
POINT
  8
3
 10
1187.55461353
 20
1359.60407492
  0
POINT
  8
3
 10
1204.03975258
 20
1359.27974615
  0
POINT
  8
3
 10
1220.78693626
 20
1359.25655125
  0
POINT
  8
3
 10
1237.50325460
 20
1359.83213127
  0
POINT
  8
3
 10
1254.05642544
 20
1361.33928240
  0
POINT
  8
3
 10
1270.31416664
 20
1364.11080084
  0
POINT
  8
3
 10
1286.06442231
 20
1368.37012746
  0
POINT
  8
3
 10
1301.43649425
 20
1374.09477044
  0
POINT
  8
3
 10
1316.47396489
 20
1381.17508487
  0
POINT
  8
2
 10
1331.22041664
 20
1389.50142584
  0
TEXT
  8
2
 10
1331.22041664
 20
1389.50142584
 40
10.00000000
 50
0.00000000
  1
# 74
  0
POINT
  8
2
 10
1331.80537758
 20
1389.80806646
  0
TEXT
  8
2
 10
1331.80537758
 20
1389.80806646
 40
10.00000000
 50
0.00000000
  1
# 75
  0
POINT
  8
3
 10
1346.60746763
 20
1399.53054128
  0
POINT
  8
3
 10
1361.64401355
 20
1408.79692608
  0
POINT
  8
3
 10
1376.93384891
 20
1417.57547286
  0
POINT
  8
3
 10
1392.49580727
 20
1425.83443365
  0
POINT
  8
3
 10
1408.28400039
 20
1433.53885660
  0
POINT
  8
3
 10
1424.30505976
 20
1440.79026592
  0
POINT
  8
3
 10
1440.50279172
 20
1447.68338801
  0
POINT
  8
3
 10
1456.82100258
 20
1454.31294928
  0
POINT
  8
3
 10
1473.24104714
 20
1460.74902593
  0
POINT
  8
3
 10
1489.75460330
 20
1466.90837574
  0
POINT
  8
3
 10
1506.39071457
 20
1472.68358654
  0
POINT
  8
3
 10
1523.17842445
 20
1477.96724615
  0
POINT
  8
3
 10
1537.04357093
 20
1481.87768859
  0
POINT
  8
3
 10
1550.99778031
 20
1485.48934180
  0
POINT
  8
3
 10
1565.00910863
 20
1488.90464445
  0
POINT
  8
3
 10
1579.04561195
 20
1492.22603521
  0
POINT
  8
3
 10
1607.18990876
 20
1498.80756764
  0
POINT
  8
3
 10
1621.28217111
 20
1501.98359967
  0
POINT
  8
3
 10
1635.40401039
 20
1505.01509771
  0
POINT
  8
3
 10
1648.55768928
 20
1507.66645622
  0
POINT
  8
3
 10
1661.74378436
 20
1510.16407879
  0
POINT
  8
3
 10
1674.95872292
 20
1512.52300184
  0
POINT
  8
2
 10
1688.19893227
 20
1514.75826178
  0
TEXT
  8
2
 10
1688.19893227
 20
1514.75826178
 40
10.00000000
 50
0.00000000
  1
# 76
  0
POINT
  8
2
 10
1706.98799477
 20
1471.88521490
  0
TEXT
  8
2
 10
1706.98799477
 20
1471.88521490
 40
10.00000000
 50
0.00000000
  1
# 77
  0
POINT
  8
3
 10
1689.85545845
 20
1468.90152492
  0
POINT
  8
3
 10
1672.77790891
 20
1465.67912515
  0
POINT
  8
3
 10
1655.76072456
 20
1462.19209446
  0
POINT
  8
3
 10
1638.80928383
 20
1458.41451178
  0
POINT
  8
3
 10
1620.36051229
 20
1453.94387106
  0
POINT
  8
3
 10
1601.97796306
 20
1449.18548350
  0
POINT
  8
3
 10
1583.64291015
 20
1444.22959836
  0
POINT
  8
3
 10
1565.33662758
 20
1439.16646490
  0
POINT
  8
3
 10
1547.02125512
 20
1434.04701164
  0
POINT
  8
3
 10
1528.74260409
 20
1428.80953581
  0
POINT
  8
3
 10
1510.52732222
 20
1423.35306360
  0
POINT
  8
3
 10
1492.40205727
 20
1417.57662115
  0
POINT
  8
3
 10
1474.34340061
 20
1411.35768969
  0
POINT
  8
3
 10
1456.47587707
 20
1404.60852561
  0
POINT
  8
3
 10
1438.87320144
 20
1397.22255968
  0
POINT
  8
3
 10
1421.60908852
 20
1389.09322271
  0
POINT
  8
3
 10
1404.71263665
 20
1380.12915098
  0
POINT
  8
3
 10
1388.22771194
 20
1370.40454393
  0
POINT
  8
3
 10
1372.15198137
 20
1360.01206924
  0
POINT
  8
3
 10
1356.48311195
 20
1349.04439459
  0
POINT
  8
3
 10
1341.67820692
 20
1337.93019002
  0
POINT
  8
3
 10
1327.25430223
 20
1326.33306462
  0
POINT
  8
3
 10
1313.21213638
 20
1314.22368427
  0
POINT
  8
2
 10
1299.55244789
 20
1301.57271490
  0
TEXT
  8
2
 10
1299.55244789
 20
1301.57271490
 40
10.00000000
 50
0.00000000
  1
# 78
  0
POINT
  8
2
 10
1277.40694008
 20
1301.57564459
  0
TEXT
  8
2
 10
1277.40694008
 20
1301.57564459
 40
10.00000000
 50
0.00000000
  1
# 79
  0
POINT
  8
2
 10
1113.00850258
 20
1301.56783209
  0
TEXT
  8
2
 10
1113.00850258
 20
1301.56783209
 40
10.00000000
 50
0.00000000
  1
# 80
  0
POINT
  8
2
 10
1081.02022133
 20
1301.57271490
  0
TEXT
  8
2
 10
1081.02022133
 20
1301.57271490
 40
10.00000000
 50
0.00000000
  1
# 81
  0
ENDBLK
  0
BLOCK
  8
1
  2
7
 70
64
 10
0.0
 20
0.0
  0
LINE
  8
7
 10
136.40849097
 20
1642.70631886
 11
270.16312964
 21
1642.70631886
  0
TEXT
  8
1
 10
0.00000000
 20
0.00000000
 40
20.00000000
 50
0.00000000
  1
Size: 46
  0
TEXT
  8
1
 10
203.28581031
 20
1650.20631886
 40
10.00000000
 50
0.00000000
  1
Piece Name: AHAVANA.TE
  0
TEXT
  8
1
 10
203.28581031
 20
1650.20631886
 40
10.00000000
 50
0.00000000
  1
Quantity: 1
  0
TEXT
  8
1
 10
203.28581031
 20
1650.20631886
 40
10.00000000
 50
0.00000000
  1
Rotation: 0
  0
TEXT
  8
1
 10
203.28581031
 20
1650.20631886
 40
10.00000000
 50
0.00000000
  1
Tilt: 0
  0
TEXT
  8
1
 10
203.28581031
 20
1650.20631886
 40
10.00000000
 50
0.00000000
  1
Fold: N
  0
TEXT
  8
1
 10
203.28581031
 20
1650.20631886
 40
10.00000000
 50
0.00000000
  1
Material: 1
  0
POLYLINE
  8
1
 66
1
 70
1
  0
VERTEX
  8
1
 10
333.40786896
 20
1610.17653370
  0
VERTEX
  8
1
 10
69.87613068
 20
1610.17653370
  0
VERTEX
  8
1
 10
70.12759552
 20
1632.64918995
  0
VERTEX
  8
1
 10
70.24624786
 20
1653.38844776
  0
VERTEX
  8
1
 10
337.38540802
 20
1653.54958057
  0
SEQEND
  0
POLYLINE
  8
84
 66
1
 70
1
  0
VERTEX
  8
84
 10
333.40786896
 20
1610.17653370
  0
VERTEX
  8
84
 10
69.87613068
 20
1610.17653370
  0
VERTEX
  8
84
 10
70.12759552
 20
1632.64918995
  0
VERTEX
  8
84
 10
70.24624786
 20
1653.38844776
  0
VERTEX
  8
84
 10
337.38540802
 20
1653.54958057
  0
SEQEND
  0
POINT
  8
2
 10
333.40786896
 20
1610.17653370
  0
TEXT
  8
2
 10
333.40786896
 20
1610.17653370
 40
10.00000000
 50
0.00000000
  1
# 82
  0
POINT
  8
2
 10
69.87613068
 20
1610.17653370
  0
TEXT
  8
2
 10
69.87613068
 20
1610.17653370
 40
10.00000000
 50
0.00000000
  1
# 83
  0
POINT
  8
2
 10
70.12759552
 20
1632.64918995
  0
TEXT
  8
2
 10
70.12759552
 20
1632.64918995
 40
10.00000000
 50
0.00000000
  1
# 84
  0
POINT
  8
2
 10
70.24624786
 20
1653.38844776
  0
TEXT
  8
2
 10
70.24624786
 20
1653.38844776
 40
10.00000000
 50
0.00000000
  1
# 85
  0
POINT
  8
2
 10
337.38540802
 20
1653.54958057
  0
TEXT
  8
2
 10
337.38540802
 20
1653.54958057
 40
10.00000000
 50
0.00000000
  1
# 86
  0
ENDBLK
  0
BLOCK
  8
1
  2
8
 70
64
 10
0.0
 20
0.0
  0
LINE
  8
7
 10
63.25162720
 20
1882.35524464
 11
138.25080322
 21
1882.35524464
  0
TEXT
  8
1
 10
0.00000000
 20
0.00000000
 40
10.00000000
 50
0.00000000
  1
Size: 46
  0
TEXT
  8
1
 10
100.75121521
 20
1886.10524464
 40
5.00000000
 50
0.00000000
  1
Piece Name: AHAVANA.VG
  0
TEXT
  8
1
 10
100.75121521
 20
1886.10524464
 40
5.00000000
 50
0.00000000
  1
Quantity: 1
  0
TEXT
  8
1
 10
100.75121521
 20
1886.10524464
 40
5.00000000
 50
0.00000000
  1
Rotation: 0
  0
TEXT
  8
1
 10
100.75121521
 20
1886.10524464
 40
5.00000000
 50
0.00000000
  1
Tilt: 0
  0
TEXT
  8
1
 10
100.75121521
 20
1886.10524464
 40
5.00000000
 50
0.00000000
  1
Fold: N
  0
TEXT
  8
1
 10
100.75121521
 20
1886.10524464
 40
5.00000000
 50
0.00000000
  1
Material: 1
  0
POLYLINE
  8
1
 66
1
 70
1
  0
VERTEX
  8
1
 10
25.74975281
 20
1898.61128712
  0
VERTEX
  8
1
 10
175.74810486
 20
1898.61128712
  0
VERTEX
  8
1
 10
175.74810486
 20
1833.58711720
  0
VERTEX
  8
1
 10
25.74975281
 20
1833.58711720
  0
SEQEND
  0
POLYLINE
  8
84
 66
1
 70
1
  0
VERTEX
  8
84
 10
25.74975281
 20
1898.61128712
  0
VERTEX
  8
84
 10
175.74810486
 20
1898.61128712
  0
VERTEX
  8
84
 10
175.74810486
 20
1833.58711720
  0
VERTEX
  8
84
 10
25.74975281
 20
1833.58711720
  0
SEQEND
  0
POINT
  8
2
 10
25.74975281
 20
1898.61128712
  0
TEXT
  8
2
 10
25.74975281
 20
1898.61128712
 40
10.00000000
 50
0.00000000
  1
# 87
  0
POINT
  8
2
 10
175.74810486
 20
1898.61128712
  0
TEXT
  8
2
 10
175.74810486
 20
1898.61128712
 40
10.00000000
 50
0.00000000
  1
# 88
  0
POINT
  8
2
 10
175.74810486
 20
1833.58711720
  0
TEXT
  8
2
 10
175.74810486
 20
1833.58711720
 40
10.00000000
 50
0.00000000
  1
# 89
  0
POINT
  8
2
 10
25.74975281
 20
1833.58711720
  0
TEXT
  8
2
 10
25.74975281
 20
1833.58711720
 40
10.00000000
 50
0.00000000
  1
# 90
  0
ENDBLK
  0
BLOCK
  8
1
  2
9
 70
64
 10
0.0
 20
0.0
  0
LINE
  8
7
 10
55.88423437
 20
1737.97228565
 11
122.54500097
 21
1737.97228565
  0
TEXT
  8
1
 10
0.00000000
 20
0.00000000
 40
5.00000000
 50
0.00000000
  1
Size: 46
  0
TEXT
  8
1
 10
89.21461767
 20
1741.72228565
 40
5.00000000
 50
0.00000000
  1
Piece Name: AHAVANA.GOC
  0
TEXT
  8
1
 10
89.21461767
 20
1741.72228565
 40
5.00000000
 50
0.00000000
  1
Quantity: 1
  0
TEXT
  8
1
 10
89.21461767
 20
1741.72228565
 40
5.00000000
 50
0.00000000
  1
Rotation: 0
  0
TEXT
  8
1
 10
89.21461767
 20
1741.72228565
 40
5.00000000
 50
0.00000000
  1
Tilt: 0
  0
TEXT
  8
1
 10
89.21461767
 20
1741.72228565
 40
5.00000000
 50
0.00000000
  1
Fold: N
  0
TEXT
  8
1
 10
89.21461767
 20
1741.72228565
 40
5.00000000
 50
0.00000000
  1
Material: 1
  0
POLYLINE
  8
1
 66
1
 70
1
  0
VERTEX
  8
1
 10
159.23391542
 20
1742.16533985
  0
VERTEX
  8
1
 10
141.17922792
 20
1731.28985157
  0
VERTEX
  8
1
 10
119.73882304
 20
1718.88250759
  0
VERTEX
  8
1
 10
98.19094667
 20
1706.65850391
  0
VERTEX
  8
1
 10
75.54470644
 20
1693.75176563
  0
VERTEX
  8
1
 10
65.63381777
 20
1687.59722462
  0
VERTEX
  8
1
 10
27.48122988
 20
1716.60235157
  0
VERTEX
  8
1
 10
32.09939394
 20
1727.03741016
  0
VERTEX
  8
1
 10
55.33010683
 20
1780.79815235
  0
VERTEX
  8
1
 10
90.52517519
 20
1786.84112110
  0
VERTEX
  8
1
 10
108.13690825
 20
1789.78134257
  0
VERTEX
  8
1
 10
125.73293886
 20
1792.80791798
  0
VERTEX
  8
1
 10
143.28707222
 20
1796.06844963
  0
VERTEX
  8
1
 10
160.80276308
 20
1799.54180470
  0
SEQEND
  0
POLYLINE
  8
84
 66
1
 70
1
  0
VERTEX
  8
84
 10
159.23391542
 20
1742.16533985
  0
VERTEX
  8
84
 10
141.17922792
 20
1731.28985157
  0
VERTEX
  8
84
 10
119.73882304
 20
1718.88250759
  0
VERTEX
  8
84
 10
98.19094667
 20
1706.65850391
  0
VERTEX
  8
84
 10
75.54470644
 20
1693.75176563
  0
VERTEX
  8
84
 10
65.63381777
 20
1687.59722462
  0
VERTEX
  8
84
 10
27.48122988
 20
1716.60235157
  0
VERTEX
  8
84
 10
32.09939394
 20
1727.03741016
  0
VERTEX
  8
84
 10
55.33010683
 20
1780.79815235
  0
VERTEX
  8
84
 10
90.52517519
 20
1786.84112110
  0
VERTEX
  8
84
 10
108.13690825
 20
1789.78134257
  0
VERTEX
  8
84
 10
125.73293886
 20
1792.80791798
  0
VERTEX
  8
84
 10
143.28707222
 20
1796.06844963
  0
VERTEX
  8
84
 10
160.80276308
 20
1799.54180470
  0
SEQEND
  0
POINT
  8
2
 10
159.23391542
 20
1742.16533985
  0
TEXT
  8
2
 10
159.23391542
 20
1742.16533985
 40
10.00000000
 50
0.00000000
  1
# 91
  0
POINT
  8
3
 10
141.17922792
 20
1731.28985157
  0
POINT
  8
3
 10
119.73882304
 20
1718.88250759
  0
POINT
  8
3
 10
98.19094667
 20
1706.65850391
  0
POINT
  8
2
 10
75.54470644
 20
1693.75176563
  0
TEXT
  8
2
 10
75.54470644
 20
1693.75176563
 40
10.00000000
 50
0.00000000
  1
# 92
  0
POINT
  8
2
 10
65.63381777
 20
1687.59722462
  0
TEXT
  8
2
 10
65.63381777
 20
1687.59722462
 40
10.00000000
 50
0.00000000
  1
# 93
  0
POINT
  8
2
 10
27.48122988
 20
1716.60235157
  0
TEXT
  8
2
 10
27.48122988
 20
1716.60235157
 40
10.00000000
 50
0.00000000
  1
# 94
  0
POINT
  8
2
 10
32.09939394
 20
1727.03741016
  0
TEXT
  8
2
 10
32.09939394
 20
1727.03741016
 40
10.00000000
 50
0.00000000
  1
# 95
  0
POINT
  8
2
 10
55.33010683
 20
1780.79815235
  0
TEXT
  8
2
 10
55.33010683
 20
1780.79815235
 40
10.00000000
 50
0.00000000
  1
# 96
  0
POINT
  8
3
 10
90.52517519
 20
1786.84112110
  0
POINT
  8
3
 10
108.13690825
 20
1789.78134257
  0
POINT
  8
3
 10
125.73293886
 20
1792.80791798
  0
POINT
  8
3
 10
143.28707222
 20
1796.06844963
  0
POINT
  8
2
 10
160.80276308
 20
1799.54180470
  0
TEXT
  8
2
 10
160.80276308
 20
1799.54180470
 40
10.00000000
 50
0.00000000
  1
# 97
  0
POINT
  8
4
 10
75.54470644
 20
1693.75176563
 30
3.68151090
 50
146.48725279
  0
TEXT
  8
1
 10
75.54470644
 20
1693.75176563
 40
10.00000000
 50
0.00000000
  1
# 98
  0
POINT
  8
4
 10
32.09939394
 20
1727.03741016
 30
4.63729117
 50
323.10757254
  0
TEXT
  8
1
 10
32.09939394
 20
1727.03741016
 40
10.00000000
 50
0.00000000
  1
# 99
  0
ENDBLK
  0
BLOCK
  8
1
  2
10
 70
64
 10
0.0
 20
0.0
  0
LINE
  8
7
 10
1033.99715383
 20
987.88787842
 11
1097.02901418
 21
987.88787842
  0
TEXT
  8
1
 10
0.00000000
 20
0.00000000
 40
5.00000000
 50
0.00000000
  1
Size: 46
  0
TEXT
  8
1
 10
1065.51308400
 20
991.63787842
 40
5.00000000
 50
0.00000000
  1
Piece Name: AHAVANA.GOE
  0
TEXT
  8
1
 10
1065.51308400
 20
991.63787842
 40
5.00000000
 50
0.00000000
  1
Quantity: 1
  0
TEXT
  8
1
 10
1065.51308400
 20
991.63787842
 40
5.00000000
 50
0.00000000
  1
Rotation: 0
  0
TEXT
  8
1
 10
1065.51308400
 20
991.63787842
 40
5.00000000
 50
0.00000000
  1
Tilt: 0
  0
TEXT
  8
1
 10
1065.51308400
 20
991.63787842
 40
5.00000000
 50
0.00000000
  1
Fold: N
  0
TEXT
  8
1
 10
1065.51308400
 20
991.63787842
 40
5.00000000
 50
0.00000000
  1
Material: 1
  0
POLYLINE
  8
1
 66
1
 70
1
  0
VERTEX
  8
1
 10
1132.28769274
 20
993.54776306
  0
VERTEX
  8
1
 10
1115.76254625
 20
983.59353943
  0
VERTEX
  8
1
 10
1094.34063338
 20
971.19304031
  0
VERTEX
  8
1
 10
1072.80795641
 20
958.98147888
  0
VERTEX
  8
1
 10
1050.11069078
 20
946.04556580
  0
VERTEX
  8
1
 10
1042.02157946
 20
941.02237244
  0
VERTEX
  8
1
 10
1007.63534899
 20
967.16415710
  0
VERTEX
  8
1
 10
1011.23593493
 20
975.29959412
  0
VERTEX
  8
1
 10
1033.78476305
 20
1027.48239441
  0
VERTEX
  8
1
 10
1067.27133532
 20
1033.23172302
  0
VERTEX
  8
1
 10
1084.89710981
 20
1036.17282079
  0
VERTEX
  8
1
 10
1102.50668688
 20
1039.20321960
  0
VERTEX
  8
1
 10
1118.11846379
 20
1042.09910793
  0
VERTEX
  8
1
 10
1133.69906969
 20
1045.16794128
  0
SEQEND
  0
POLYLINE
  8
84
 66
1
 70
1
  0
VERTEX
  8
84
 10
1132.28769274
 20
993.54776306
  0
VERTEX
  8
84
 10
1115.76254625
 20
983.59353943
  0
VERTEX
  8
84
 10
1094.34063338
 20
971.19304031
  0
VERTEX
  8
84
 10
1072.80795641
 20
958.98147888
  0
VERTEX
  8
84
 10
1050.11069078
 20
946.04556580
  0
VERTEX
  8
84
 10
1042.02157946
 20
941.02237244
  0
VERTEX
  8
84
 10
1007.63534899
 20
967.16415710
  0
VERTEX
  8
84
 10
1011.23593493
 20
975.29959412
  0
VERTEX
  8
84
 10
1033.78476305
 20
1027.48239441
  0
VERTEX
  8
84
 10
1067.27133532
 20
1033.23172302
  0
VERTEX
  8
84
 10
1084.89710981
 20
1036.17282079
  0
VERTEX
  8
84
 10
1102.50668688
 20
1039.20321960
  0
VERTEX
  8
84
 10
1118.11846379
 20
1042.09910793
  0
VERTEX
  8
84
 10
1133.69906969
 20
1045.16794128
  0
SEQEND
  0
POINT
  8
2
 10
1132.28769274
 20
993.54776306
  0
TEXT
  8
2
 10
1132.28769274
 20
993.54776306
 40
10.00000000
 50
0.00000000
  1
# 100
  0
POINT
  8
3
 10
1115.76254625
 20
983.59353943
  0
POINT
  8
3
 10
1094.34063338
 20
971.19304031
  0
POINT
  8
3
 10
1072.80795641
 20
958.98147888
  0
POINT
  8
2
 10
1050.11069078
 20
946.04556580
  0
TEXT
  8
2
 10
1050.11069078
 20
946.04556580
 40
10.00000000
 50
0.00000000
  1
# 101
  0
POINT
  8
2
 10
1042.02157946
 20
941.02237244
  0
TEXT
  8
2
 10
1042.02157946
 20
941.02237244
 40
10.00000000
 50
0.00000000
  1
# 102
  0
POINT
  8
2
 10
1007.63534899
 20
967.16415710
  0
TEXT
  8
2
 10
1007.63534899
 20
967.16415710
 40
10.00000000
 50
0.00000000
  1
# 103
  0
POINT
  8
2
 10
1011.23593493
 20
975.29959412
  0
TEXT
  8
2
 10
1011.23593493
 20
975.29959412
 40
10.00000000
 50
0.00000000
  1
# 104
  0
POINT
  8
2
 10
1033.78476305
 20
1027.48239441
  0
TEXT
  8
2
 10
1033.78476305
 20
1027.48239441
 40
10.00000000
 50
0.00000000
  1
# 105
  0
POINT
  8
3
 10
1067.27133532
 20
1033.23172302
  0
POINT
  8
3
 10
1084.89710981
 20
1036.17282079
  0
POINT
  8
3
 10
1102.50668688
 20
1039.20321960
  0
POINT
  8
3
 10
1118.11846379
 20
1042.09910793
  0
POINT
  8
2
 10
1133.69906969
 20
1045.16794128
  0
TEXT
  8
2
 10
1133.69906969
 20
1045.16794128
 40
10.00000000
 50
0.00000000
  1
# 106
  0
ENDBLK
  0
BLOCK
  8
1
  2
11
 70
64
 10
0.0
 20
0.0
  0
LINE
  8
7
 10
1273.89704905
 20
1134.45637817
 11
1340.55782328
 21
1134.45637817
  0
TEXT
  8
1
 10
0.00000000
 20
0.00000000
 40
5.00000000
 50
0.00000000
  1
Size: 46
  0
TEXT
  8
1
 10
1307.22743616
 20
1138.20637817
 40
5.00000000
 50
0.00000000
  1
Piece Name: AHAVANA.GOF
  0
TEXT
  8
1
 10
1307.22743616
 20
1138.20637817
 40
5.00000000
 50
0.00000000
  1
Quantity: 1
  0
TEXT
  8
1
 10
1307.22743616
 20
1138.20637817
 40
5.00000000
 50
0.00000000
  1
Rotation: 0
  0
TEXT
  8
1
 10
1307.22743616
 20
1138.20637817
 40
5.00000000
 50
0.00000000
  1
Tilt: 0
  0
TEXT
  8
1
 10
1307.22743616
 20
1138.20637817
 40
5.00000000
 50
0.00000000
  1
Fold: N
  0
TEXT
  8
1
 10
1307.22743616
 20
1138.20637817
 40
5.00000000
 50
0.00000000
  1
Material: 1
  0
POLYLINE
  8
1
 66
1
 70
1
  0
VERTEX
  8
1
 10
1377.24686480
 20
1138.64960327
  0
VERTEX
  8
1
 10
1359.19194078
 20
1127.77393188
  0
VERTEX
  8
1
 10
1337.75156558
 20
1115.36665074
  0
VERTEX
  8
1
 10
1316.20372057
 20
1103.14270630
  0
VERTEX
  8
1
 10
1293.55760241
 20
1090.23596802
  0
VERTEX
  8
1
 10
1283.64653826
 20
1084.08142700
  0
VERTEX
  8
1
 10
1245.49401140
 20
1113.08655396
  0
VERTEX
  8
1
 10
1250.11214495
 20
1123.52136841
  0
VERTEX
  8
1
 10
1273.34291887
 20
1177.28247681
  0
VERTEX
  8
1
 10
1308.53808641
 20
1183.32510986
  0
VERTEX
  8
1
 10
1326.14978812
 20
1186.26533265
  0
VERTEX
  8
1
 10
1343.74578142
 20
1189.29194489
  0
VERTEX
  8
1
 10
1361.29988837
 20
1192.55246186
  0
VERTEX
  8
1
 10
1378.81555986
 20
1196.02576294
  0
SEQEND
  0
POLYLINE
  8
84
 66
1
 70
1
  0
VERTEX
  8
84
 10
1377.24686480
 20
1138.64960327
  0
VERTEX
  8
84
 10
1359.19194078
 20
1127.77393188
  0
VERTEX
  8
84
 10
1337.75156558
 20
1115.36665074
  0
VERTEX
  8
84
 10
1316.20372057
 20
1103.14270630
  0
VERTEX
  8
84
 10
1293.55760241
 20
1090.23596802
  0
VERTEX
  8
84
 10
1283.64653826
 20
1084.08142700
  0
VERTEX
  8
84
 10
1245.49401140
 20
1113.08655396
  0
VERTEX
  8
84
 10
1250.11214495
 20
1123.52136841
  0
VERTEX
  8
84
 10
1273.34291887
 20
1177.28247681
  0
VERTEX
  8
84
 10
1308.53808641
 20
1183.32510986
  0
VERTEX
  8
84
 10
1326.14978812
 20
1186.26533265
  0
VERTEX
  8
84
 10
1343.74578142
 20
1189.29194489
  0
VERTEX
  8
84
 10
1361.29988837
 20
1192.55246186
  0
VERTEX
  8
84
 10
1378.81555986
 20
1196.02576294
  0
SEQEND
  0
POINT
  8
2
 10
1377.24686480
 20
1138.64960327
  0
TEXT
  8
2
 10
1377.24686480
 20
1138.64960327
 40
10.00000000
 50
0.00000000
  1
# 107
  0
POINT
  8
3
 10
1359.19194078
 20
1127.77393188
  0
POINT
  8
3
 10
1337.75156558
 20
1115.36665074
  0
POINT
  8
3
 10
1316.20372057
 20
1103.14270630
  0
POINT
  8
2
 10
1293.55760241
 20
1090.23596802
  0
TEXT
  8
2
 10
1293.55760241
 20
1090.23596802
 40
10.00000000
 50
0.00000000
  1
# 108
  0
POINT
  8
2
 10
1283.64653826
 20
1084.08142700
  0
TEXT
  8
2
 10
1283.64653826
 20
1084.08142700
 40
10.00000000
 50
0.00000000
  1
# 109
  0
POINT
  8
2
 10
1245.49401140
 20
1113.08655396
  0
TEXT
  8
2
 10
1245.49401140
 20
1113.08655396
 40
10.00000000
 50
0.00000000
  1
# 110
  0
POINT
  8
2
 10
1250.11214495
 20
1123.52136841
  0
TEXT
  8
2
 10
1250.11214495
 20
1123.52136841
 40
10.00000000
 50
0.00000000
  1
# 111
  0
POINT
  8
2
 10
1273.34291887
 20
1177.28247681
  0
TEXT
  8
2
 10
1273.34291887
 20
1177.28247681
 40
10.00000000
 50
0.00000000
  1
# 112
  0
POINT
  8
3
 10
1308.53808641
 20
1183.32510986
  0
POINT
  8
3
 10
1326.14978812
 20
1186.26533265
  0
POINT
  8
3
 10
1343.74578142
 20
1189.29194489
  0
POINT
  8
3
 10
1361.29988837
 20
1192.55246186
  0
POINT
  8
2
 10
1378.81555986
 20
1196.02576294
  0
TEXT
  8
2
 10
1378.81555986
 20
1196.02576294
 40
10.00000000
 50
0.00000000
  1
# 113
  0
POINT
  8
4
 10
1293.55760241
 20
1090.23596802
 30
3.68151090
 50
146.48725279
  0
TEXT
  8
1
 10
1293.55760241
 20
1090.23596802
 40
10.00000000
 50
0.00000000
  1
# 114
  0
POINT
  8
4
 10
1250.11214495
 20
1123.52136841
 30
4.63729117
 50
323.10757254
  0
TEXT
  8
1
 10
1250.11214495
 20
1123.52136841
 40
10.00000000
 50
0.00000000
  1
# 115
  0
ENDBLK
  0
BLOCK
  8
1
  2
12
 70
64
 10
0.0
 20
0.0
  0
LINE
  8
7
 10
2186.98427997
 20
154.77968750
 11
2365.50820575
 21
154.77968750
  0
TEXT
  8
1
 10
0.00000000
 20
0.00000000
 40
5.00000000
 50
0.00000000
  1
Size: 46
  0
TEXT
  8
1
 10
2276.24624286
 20
162.27968750
 40
10.00000000
 50
0.00000000
  1
Piece Name: AHAVANA.P2C
  0
TEXT
  8
1
 10
2276.24624286
 20
162.27968750
 40
10.00000000
 50
0.00000000
  1
Quantity: 1
  0
TEXT
  8
1
 10
2276.24624286
 20
162.27968750
 40
10.00000000
 50
0.00000000
  1
Rotation: 0
  0
TEXT
  8
1
 10
2276.24624286
 20
162.27968750
 40
10.00000000
 50
0.00000000
  1
Tilt: 0
  0
TEXT
  8
1
 10
2276.24624286
 20
162.27968750
 40
10.00000000
 50
0.00000000
  1
Fold: N
  0
TEXT
  8
1
 10
2276.24624286
 20
162.27968750
 40
10.00000000
 50
0.00000000
  1
Material: 1
  0
POLYLINE
  8
1
 66
1
 70
1
  0
VERTEX
  8
1
 10
2417.10776672
 20
41.31992187
  0
VERTEX
  8
1
 10
2404.63364169
 20
44.54491865
  0
VERTEX
  8
1
 10
2392.23960082
 20
48.00831438
  0
VERTEX
  8
1
 10
2379.92197689
 20
51.70685955
  0
VERTEX
  8
1
 10
2367.67710266
 20
55.63730469
  0
VERTEX
  8
1
 10
2355.49675649
 20
59.80103285
  0
VERTEX
  8
1
 10
2343.39658476
 20
64.20343311
  0
VERTEX
  8
1
 10
2331.38759971
 20
68.85426329
  0
VERTEX
  8
1
 10
2319.48081360
 20
73.76328125
  0
VERTEX
  8
1
 10
2307.69933654
 20
78.93722977
  0
VERTEX
  8
1
 10
2296.04977273
 20
84.39955689
  0
VERTEX
  8
1
 10
2284.55103209
 20
90.17118761
  0
VERTEX
  8
1
 10
2273.22202454
 20
96.27304687
  0
VERTEX
  8
1
 10
2259.48677369
 20
104.28921580
  0
VERTEX
  8
1
 10
2246.06381506
 20
112.82535316
  0
VERTEX
  8
1
 10
2232.97752952
 20
121.86548874
  0
VERTEX
  8
1
 10
2220.25229797
 20
131.39365234
  0
VERTEX
  8
1
 10
2217.08921204
 20
133.88193359
  0
VERTEX
  8
1
 10
2204.05310548
 20
144.61330828
  0
VERTEX
  8
1
 10
2191.36402189
 20
155.74486061
  0
VERTEX
  8
1
 10
2178.93548259
 20
167.21972970
  0
VERTEX
  8
1
 10
2166.68100891
 20
178.98105469
  0
VERTEX
  8
1
 10
2154.61534568
 20
190.97933391
  0
VERTEX
  8
1
 10
2142.98650118
 20
203.36472664
  0
VERTEX
  8
1
 10
2132.14411954
 20
216.29583222
  0
VERTEX
  8
1
 10
2122.43784485
 20
229.93125000
  0
VERTEX
  8
1
 10
2114.15169016
 20
244.37059988
  0
VERTEX
  8
1
 10
2107.23031453
 20
259.61738608
  0
VERTEX
  8
1
 10
2101.55747944
 20
275.61888256
  0
VERTEX
  8
1
 10
2097.01694641
 20
292.32236328
  0
VERTEX
  8
1
 10
2124.09604797
 20
293.45273437
  0
VERTEX
  8
1
 10
2135.49383435
 20
282.65765020
  0
VERTEX
  8
1
 10
2147.18478283
 20
272.25128330
  0
VERTEX
  8
1
 10
2159.17194005
 20
262.22738021
  0
VERTEX
  8
1
 10
2171.45835266
 20
252.57968750
  0
VERTEX
  8
1
 10
2183.79855299
 20
243.48207314
  0
VERTEX
  8
1
 10
2196.42061828
 20
234.75839202
  0
VERTEX
  8
1
 10
2209.31570114
 20
226.42680395
  0
VERTEX
  8
1
 10
2222.47495422
 20
218.50546875
  0
VERTEX
  8
1
 10
2237.09850161
 20
210.36963709
  0
VERTEX
  8
1
 10
2252.01362031
 20
202.79061560
  0
VERTEX
  8
1
 10
2267.20896651
 20
195.81694549
  0
VERTEX
  8
1
 10
2282.67319641
 20
189.49716797
  0
VERTEX
  8
1
 10
2296.45160320
 20
184.50002130
  0
VERTEX
  8
1
 10
2310.37798657
 20
179.91193255
  0
VERTEX
  8
1
 10
2324.40192602
 20
175.60083651
  0
VERTEX
  8
1
 10
2338.47300110
 20
171.43466797
  0
VERTEX
  8
1
 10
2368.24233371
 20
162.77108728
  0
VERTEX
  8
1
 10
2383.15458810
 20
158.56282729
  0
VERTEX
  8
1
 10
2398.10288391
 20
154.49130859
  0
VERTEX
  8
1
 10
2411.63084136
 20
150.96178878
  0
VERTEX
  8
1
 10
2425.19520773
 20
147.56537186
  0
VERTEX
  8
1
 10
2438.79226961
 20
144.29061472
  0
VERTEX
  8
1
 10
2452.41831360
 20
141.12607422
  0
VERTEX
  8
1
 10
2454.06479797
 20
133.57968750
  0
VERTEX
  8
1
 10
2412.48471985
 20
93.64804687
  0
VERTEX
  8
1
 10
2433.05698547
 20
64.13925781
  0
SEQEND
  0
POLYLINE
  8
84
 66
1
 70
1
  0
VERTEX
  8
84
 10
2417.10776672
 20
41.31992187
  0
VERTEX
  8
84
 10
2404.63364169
 20
44.54491865
  0
VERTEX
  8
84
 10
2392.23960082
 20
48.00831438
  0
VERTEX
  8
84
 10
2379.92197689
 20
51.70685955
  0
VERTEX
  8
84
 10
2367.67710266
 20
55.63730469
  0
VERTEX
  8
84
 10
2355.49675649
 20
59.80103285
  0
VERTEX
  8
84
 10
2343.39658476
 20
64.20343311
  0
VERTEX
  8
84
 10
2331.38759971
 20
68.85426329
  0
VERTEX
  8
84
 10
2319.48081360
 20
73.76328125
  0
VERTEX
  8
84
 10
2307.69933654
 20
78.93722977
  0
VERTEX
  8
84
 10
2296.04977273
 20
84.39955689
  0
VERTEX
  8
84
 10
2284.55103209
 20
90.17118761
  0
VERTEX
  8
84
 10
2273.22202454
 20
96.27304687
  0
VERTEX
  8
84
 10
2259.48677369
 20
104.28921580
  0
VERTEX
  8
84
 10
2246.06381506
 20
112.82535316
  0
VERTEX
  8
84
 10
2232.97752952
 20
121.86548874
  0
VERTEX
  8
84
 10
2220.25229797
 20
131.39365234
  0
VERTEX
  8
84
 10
2217.08921204
 20
133.88193359
  0
VERTEX
  8
84
 10
2204.05310548
 20
144.61330828
  0
VERTEX
  8
84
 10
2191.36402189
 20
155.74486061
  0
VERTEX
  8
84
 10
2178.93548259
 20
167.21972970
  0
VERTEX
  8
84
 10
2166.68100891
 20
178.98105469
  0
VERTEX
  8
84
 10
2154.61534568
 20
190.97933391
  0
VERTEX
  8
84
 10
2142.98650118
 20
203.36472664
  0
VERTEX
  8
84
 10
2132.14411954
 20
216.29583222
  0
VERTEX
  8
84
 10
2122.43784485
 20
229.93125000
  0
VERTEX
  8
84
 10
2114.15169016
 20
244.37059988
  0
VERTEX
  8
84
 10
2107.23031453
 20
259.61738608
  0
VERTEX
  8
84
 10
2101.55747944
 20
275.61888256
  0
VERTEX
  8
84
 10
2097.01694641
 20
292.32236328
  0
VERTEX
  8
84
 10
2124.09604797
 20
293.45273437
  0
VERTEX
  8
84
 10
2135.49383435
 20
282.65765020
  0
VERTEX
  8
84
 10
2147.18478283
 20
272.25128330
  0
VERTEX
  8
84
 10
2159.17194005
 20
262.22738021
  0
VERTEX
  8
84
 10
2171.45835266
 20
252.57968750
  0
VERTEX
  8
84
 10
2183.79855299
 20
243.48207314
  0
VERTEX
  8
84
 10
2196.42061828
 20
234.75839202
  0
VERTEX
  8
84
 10
2209.31570114
 20
226.42680395
  0
VERTEX
  8
84
 10
2222.47495422
 20
218.50546875
  0
VERTEX
  8
84
 10
2237.09850161
 20
210.36963709
  0
VERTEX
  8
84
 10
2252.01362031
 20
202.79061560
  0
VERTEX
  8
84
 10
2267.20896651
 20
195.81694549
  0
VERTEX
  8
84
 10
2282.67319641
 20
189.49716797
  0
VERTEX
  8
84
 10
2296.45160320
 20
184.50002130
  0
VERTEX
  8
84
 10
2310.37798657
 20
179.91193255
  0
VERTEX
  8
84
 10
2324.40192602
 20
175.60083651
  0
VERTEX
  8
84
 10
2338.47300110
 20
171.43466797
  0
VERTEX
  8
84
 10
2368.24233371
 20
162.77108728
  0
VERTEX
  8
84
 10
2383.15458810
 20
158.56282729
  0
VERTEX
  8
84
 10
2398.10288391
 20
154.49130859
  0
VERTEX
  8
84
 10
2411.63084136
 20
150.96178878
  0
VERTEX
  8
84
 10
2425.19520773
 20
147.56537186
  0
VERTEX
  8
84
 10
2438.79226961
 20
144.29061472
  0
VERTEX
  8
84
 10
2452.41831360
 20
141.12607422
  0
VERTEX
  8
84
 10
2454.06479797
 20
133.57968750
  0
VERTEX
  8
84
 10
2412.48471985
 20
93.64804687
  0
VERTEX
  8
84
 10
2433.05698547
 20
64.13925781
  0
SEQEND
  0
POINT
  8
2
 10
2417.10776672
 20
41.31992187
  0
TEXT
  8
2
 10
2417.10776672
 20
41.31992187
 40
10.00000000
 50
0.00000000
  1
# 116
  0
POINT
  8
3
 10
2404.63364169
 20
44.54491865
  0
POINT
  8
3
 10
2392.23960082
 20
48.00831438
  0
POINT
  8
3
 10
2379.92197689
 20
51.70685955
  0
POINT
  8
3
 10
2367.67710266
 20
55.63730469
  0
POINT
  8
3
 10
2355.49675649
 20
59.80103285
  0
POINT
  8
3
 10
2343.39658476
 20
64.20343311
  0
POINT
  8
3
 10
2331.38759971
 20
68.85426329
  0
POINT
  8
3
 10
2319.48081360
 20
73.76328125
  0
POINT
  8
3
 10
2307.69933654
 20
78.93722977
  0
POINT
  8
3
 10
2296.04977273
 20
84.39955689
  0
POINT
  8
3
 10
2284.55103209
 20
90.17118761
  0
POINT
  8
3
 10
2273.22202454
 20
96.27304687
  0
POINT
  8
3
 10
2259.48677369
 20
104.28921580
  0
POINT
  8
3
 10
2246.06381506
 20
112.82535316
  0
POINT
  8
3
 10
2232.97752952
 20
121.86548874
  0
POINT
  8
3
 10
2220.25229797
 20
131.39365234
  0
POINT
  8
3
 10
2217.08921204
 20
133.88193359
  0
POINT
  8
3
 10
2204.05310548
 20
144.61330828
  0
POINT
  8
3
 10
2191.36402189
 20
155.74486061
  0
POINT
  8
3
 10
2178.93548259
 20
167.21972970
  0
POINT
  8
3
 10
2166.68100891
 20
178.98105469
  0
POINT
  8
3
 10
2154.61534568
 20
190.97933391
  0
POINT
  8
3
 10
2142.98650118
 20
203.36472664
  0
POINT
  8
3
 10
2132.14411954
 20
216.29583222
  0
POINT
  8
3
 10
2122.43784485
 20
229.93125000
  0
POINT
  8
3
 10
2114.15169016
 20
244.37059988
  0
POINT
  8
3
 10
2107.23031453
 20
259.61738608
  0
POINT
  8
3
 10
2101.55747944
 20
275.61888256
  0
POINT
  8
2
 10
2097.01694641
 20
292.32236328
  0
TEXT
  8
2
 10
2097.01694641
 20
292.32236328
 40
10.00000000
 50
0.00000000
  1
# 117
  0
POINT
  8
2
 10
2124.09604797
 20
293.45273437
  0
TEXT
  8
2
 10
2124.09604797
 20
293.45273437
 40
10.00000000
 50
0.00000000
  1
# 118
  0
POINT
  8
3
 10
2135.49383435
 20
282.65765020
  0
POINT
  8
3
 10
2147.18478283
 20
272.25128330
  0
POINT
  8
3
 10
2159.17194005
 20
262.22738021
  0
POINT
  8
3
 10
2171.45835266
 20
252.57968750
  0
POINT
  8
3
 10
2183.79855299
 20
243.48207314
  0
POINT
  8
3
 10
2196.42061828
 20
234.75839202
  0
POINT
  8
3
 10
2209.31570114
 20
226.42680395
  0
POINT
  8
3
 10
2222.47495422
 20
218.50546875
  0
POINT
  8
3
 10
2237.09850161
 20
210.36963709
  0
POINT
  8
3
 10
2252.01362031
 20
202.79061560
  0
POINT
  8
3
 10
2267.20896651
 20
195.81694549
  0
POINT
  8
3
 10
2282.67319641
 20
189.49716797
  0
POINT
  8
3
 10
2296.45160320
 20
184.50002130
  0
POINT
  8
3
 10
2310.37798657
 20
179.91193255
  0
POINT
  8
3
 10
2324.40192602
 20
175.60083651
  0
POINT
  8
3
 10
2338.47300110
 20
171.43466797
  0
POINT
  8
3
 10
2368.24233371
 20
162.77108728
  0
POINT
  8
3
 10
2383.15458810
 20
158.56282729
  0
POINT
  8
3
 10
2398.10288391
 20
154.49130859
  0
POINT
  8
3
 10
2411.63084136
 20
150.96178878
  0
POINT
  8
3
 10
2425.19520773
 20
147.56537186
  0
POINT
  8
3
 10
2438.79226961
 20
144.29061472
  0
POINT
  8
2
 10
2452.41831360
 20
141.12607422
  0
TEXT
  8
2
 10
2452.41831360
 20
141.12607422
 40
10.00000000
 50
0.00000000
  1
# 119
  0
POINT
  8
2
 10
2454.06479797
 20
133.57968750
  0
TEXT
  8
2
 10
2454.06479797
 20
133.57968750
 40
10.00000000
 50
0.00000000
  1
# 120
  0
POINT
  8
2
 10
2412.48471985
 20
93.64804687
  0
TEXT
  8
2
 10
2412.48471985
 20
93.64804687
 40
10.00000000
 50
0.00000000
  1
# 121
  0
POINT
  8
2
 10
2433.05698547
 20
64.13925781
  0
TEXT
  8
2
 10
2433.05698547
 20
64.13925781
 40
10.00000000
 50
0.00000000
  1
# 122
  0
POINT
  8
4
 10
2220.25229797
 20
131.39365234
 30
7.50000000
 50
413.17554388
  0
TEXT
  8
1
 10
2220.25229797
 20
131.39365234
 40
10.00000000
 50
0.00000000
  1
# 123
  0
POINT
  8
4
 10
2282.67319641
 20
189.49716797
 30
7.50000000
 50
247.77160438
  0
TEXT
  8
1
 10
2282.67319641
 20
189.49716797
 40
10.00000000
 50
0.00000000
  1
# 124
  0
ENDBLK
  0
BLOCK
  8
1
  2
13
 70
64
 10
0.0
 20
0.0
  0
LINE
  8
7
 10
1182.79439756
 20
1806.84953175
 11
1355.38765928
 21
1806.84953175
  0
TEXT
  8
1
 10
0.00000000
 20
0.00000000
 40
10.00000000
 50
0.00000000
  1
Size: 46
  0
TEXT
  8
1
 10
1269.09102842
 20
1814.34953175
 40
10.00000000
 50
0.00000000
  1
Piece Name: AHAVANA.P2E
  0
TEXT
  8
1
 10
1269.09102842
 20
1814.34953175
 40
10.00000000
 50
0.00000000
  1
Quantity: 1
  0
TEXT
  8
1
 10
1269.09102842
 20
1814.34953175
 40
10.00000000
 50
0.00000000
  1
Rotation: 0
  0
TEXT
  8
1
 10
1269.09102842
 20
1814.34953175
 40
10.00000000
 50
0.00000000
  1
Tilt: 0
  0
TEXT
  8
1
 10
1269.09102842
 20
1814.34953175
 40
10.00000000
 50
0.00000000
  1
Fold: N
  0
TEXT
  8
1
 10
1269.09102842
 20
1814.34953175
 40
10.00000000
 50
0.00000000
  1
Material: 1
  0
POLYLINE
  8
1
 66
1
 70
1
  0
VERTEX
  8
1
 10
1365.69460697
 20
1775.26225147
  0
VERTEX
  8
1
 10
1342.25694065
 20
1769.27543690
  0
VERTEX
  8
1
 10
1318.85769291
 20
1763.14848194
  0
VERTEX
  8
1
 10
1303.90004036
 20
1759.17006374
  0
VERTEX
  8
1
 10
1288.95975640
 20
1755.12627727
  0
VERTEX
  8
1
 10
1274.04265945
 20
1750.98873474
  0
VERTEX
  8
1
 10
1259.15456791
 20
1746.72904835
  0
VERTEX
  8
1
 10
1244.24288014
 20
1742.28797830
  0
VERTEX
  8
1
 10
1229.40923498
 20
1737.59863326
  0
VERTEX
  8
1
 10
1214.69654730
 20
1732.56458366
  0
VERTEX
  8
1
 10
1200.14773197
 20
1727.08939991
  0
VERTEX
  8
1
 10
1185.61151538
 20
1721.01436401
  0
VERTEX
  8
1
 10
1171.29706860
 20
1714.41533291
  0
VERTEX
  8
1
 10
1157.21386171
 20
1707.32020542
  0
VERTEX
  8
1
 10
1143.37136478
 20
1699.75688038
  0
VERTEX
  8
1
 10
1129.77528245
 20
1691.74782477
  0
VERTEX
  8
1
 10
1116.44541357
 20
1683.31116513
  0
VERTEX
  8
1
 10
1103.39761209
 20
1674.45991193
  0
VERTEX
  8
1
 10
1090.64773197
 20
1665.20707569
  0
VERTEX
  8
1
 10
1078.68339133
 20
1655.94300694
  0
VERTEX
  8
1
 10
1067.00407747
 20
1646.31578002
  0
VERTEX
  8
1
 10
1055.60484281
 20
1636.32133473
  0
VERTEX
  8
1
 10
1044.48073978
 20
1625.95561085
  0
VERTEX
  8
1
 10
1021.50906010
 20
1626.79106007
  0
VERTEX
  8
1
 10
1025.88684132
 20
1641.42984957
  0
VERTEX
  8
1
 10
1031.16921224
 20
1655.49831580
  0
VERTEX
  8
1
 10
1037.45402662
 20
1668.95033678
  0
VERTEX
  8
1
 10
1044.83913822
 20
1681.73979053
  0
VERTEX
  8
1
 10
1054.38137822
 20
1695.16512538
  0
VERTEX
  8
1
 10
1065.05428822
 20
1707.87953721
  0
VERTEX
  8
1
 10
1076.50707439
 20
1720.04836768
  0
VERTEX
  8
1
 10
1088.38894291
 20
1731.83695850
  0
VERTEX
  8
1
 10
1100.57701128
 20
1743.51954567
  0
VERTEX
  8
1
 10
1112.93486613
 20
1754.92095074
  0
VERTEX
  8
1
 10
1125.55198593
 20
1765.98043294
  0
VERTEX
  8
1
 10
1138.51784916
 20
1776.63725147
  0
VERTEX
  8
1
 10
1141.39284916
 20
1778.89555225
  0
VERTEX
  8
1
 10
1154.04118407
 20
1788.35889896
  0
VERTEX
  8
1
 10
1167.04905994
 20
1797.33621356
  0
VERTEX
  8
1
 10
1180.39240464
 20
1805.81060473
  0
VERTEX
  8
1
 10
1194.04714603
 20
1813.76518116
  0
VERTEX
  8
1
 10
1205.25023404
 20
1819.78577625
  0
VERTEX
  8
1
 10
1216.62051936
 20
1825.48044330
  0
VERTEX
  8
1
 10
1228.13893247
 20
1830.87119022
  0
VERTEX
  8
1
 10
1239.78640385
 20
1835.98002491
  0
VERTEX
  8
1
 10
1251.60716342
 20
1840.85090733
  0
VERTEX
  8
1
 10
1263.52932957
 20
1845.46506541
  0
VERTEX
  8
1
 10
1275.54316761
 20
1849.82840246
  0
VERTEX
  8
1
 10
1287.63894291
 20
1853.94682178
  0
VERTEX
  8
1
 10
1310.33749571
 20
1860.96763679
  0
VERTEX
  8
1
 10
1333.30886478
 20
1867.14750538
  0
VERTEX
  8
1
 10
1345.15652103
 20
1850.19633350
  0
VERTEX
  8
1
 10
1324.13698978
 20
1820.04447803
  0
VERTEX
  8
1
 10
1366.69558353
 20
1779.17289600
  0
SEQEND
  0
POLYLINE
  8
84
 66
1
 70
1
  0
VERTEX
  8
84
 10
1365.69460697
 20
1775.26225147
  0
VERTEX
  8
84
 10
1342.25694065
 20
1769.27543690
  0
VERTEX
  8
84
 10
1318.85769291
 20
1763.14848194
  0
VERTEX
  8
84
 10
1303.90004036
 20
1759.17006374
  0
VERTEX
  8
84
 10
1288.95975640
 20
1755.12627727
  0
VERTEX
  8
84
 10
1274.04265945
 20
1750.98873474
  0
VERTEX
  8
84
 10
1259.15456791
 20
1746.72904835
  0
VERTEX
  8
84
 10
1244.24288014
 20
1742.28797830
  0
VERTEX
  8
84
 10
1229.40923498
 20
1737.59863326
  0
VERTEX
  8
84
 10
1214.69654730
 20
1732.56458366
  0
VERTEX
  8
84
 10
1200.14773197
 20
1727.08939991
  0
VERTEX
  8
84
 10
1185.61151538
 20
1721.01436401
  0
VERTEX
  8
84
 10
1171.29706860
 20
1714.41533291
  0
VERTEX
  8
84
 10
1157.21386171
 20
1707.32020542
  0
VERTEX
  8
84
 10
1143.37136478
 20
1699.75688038
  0
VERTEX
  8
84
 10
1129.77528245
 20
1691.74782477
  0
VERTEX
  8
84
 10
1116.44541357
 20
1683.31116513
  0
VERTEX
  8
84
 10
1103.39761209
 20
1674.45991193
  0
VERTEX
  8
84
 10
1090.64773197
 20
1665.20707569
  0
VERTEX
  8
84
 10
1078.68339133
 20
1655.94300694
  0
VERTEX
  8
84
 10
1067.00407747
 20
1646.31578002
  0
VERTEX
  8
84
 10
1055.60484281
 20
1636.32133473
  0
VERTEX
  8
84
 10
1044.48073978
 20
1625.95561085
  0
VERTEX
  8
84
 10
1021.50906010
 20
1626.79106007
  0
VERTEX
  8
84
 10
1025.88684132
 20
1641.42984957
  0
VERTEX
  8
84
 10
1031.16921224
 20
1655.49831580
  0
VERTEX
  8
84
 10
1037.45402662
 20
1668.95033678
  0
VERTEX
  8
84
 10
1044.83913822
 20
1681.73979053
  0
VERTEX
  8
84
 10
1054.38137822
 20
1695.16512538
  0
VERTEX
  8
84
 10
1065.05428822
 20
1707.87953721
  0
VERTEX
  8
84
 10
1076.50707439
 20
1720.04836768
  0
VERTEX
  8
84
 10
1088.38894291
 20
1731.83695850
  0
VERTEX
  8
84
 10
1100.57701128
 20
1743.51954567
  0
VERTEX
  8
84
 10
1112.93486613
 20
1754.92095074
  0
VERTEX
  8
84
 10
1125.55198593
 20
1765.98043294
  0
VERTEX
  8
84
 10
1138.51784916
 20
1776.63725147
  0
VERTEX
  8
84
 10
1141.39284916
 20
1778.89555225
  0
VERTEX
  8
84
 10
1154.04118407
 20
1788.35889896
  0
VERTEX
  8
84
 10
1167.04905994
 20
1797.33621356
  0
VERTEX
  8
84
 10
1180.39240464
 20
1805.81060473
  0
VERTEX
  8
84
 10
1194.04714603
 20
1813.76518116
  0
VERTEX
  8
84
 10
1205.25023404
 20
1819.78577625
  0
VERTEX
  8
84
 10
1216.62051936
 20
1825.48044330
  0
VERTEX
  8
84
 10
1228.13893247
 20
1830.87119022
  0
VERTEX
  8
84
 10
1239.78640385
 20
1835.98002491
  0
VERTEX
  8
84
 10
1251.60716342
 20
1840.85090733
  0
VERTEX
  8
84
 10
1263.52932957
 20
1845.46506541
  0
VERTEX
  8
84
 10
1275.54316761
 20
1849.82840246
  0
VERTEX
  8
84
 10
1287.63894291
 20
1853.94682178
  0
VERTEX
  8
84
 10
1310.33749571
 20
1860.96763679
  0
VERTEX
  8
84
 10
1333.30886478
 20
1867.14750538
  0
VERTEX
  8
84
 10
1345.15652103
 20
1850.19633350
  0
VERTEX
  8
84
 10
1324.13698978
 20
1820.04447803
  0
VERTEX
  8
84
 10
1366.69558353
 20
1779.17289600
  0
SEQEND
  0
POINT
  8
2
 10
1365.69460697
 20
1775.26225147
  0
TEXT
  8
2
 10
1365.69460697
 20
1775.26225147
 40
10.00000000
 50
0.00000000
  1
# 125
  0
POINT
  8
3
 10
1342.25694065
 20
1769.27543690
  0
POINT
  8
3
 10
1318.85769291
 20
1763.14848194
  0
POINT
  8
3
 10
1303.90004036
 20
1759.17006374
  0
POINT
  8
3
 10
1288.95975640
 20
1755.12627727
  0
POINT
  8
3
 10
1274.04265945
 20
1750.98873474
  0
POINT
  8
3
 10
1259.15456791
 20
1746.72904835
  0
POINT
  8
3
 10
1244.24288014
 20
1742.28797830
  0
POINT
  8
3
 10
1229.40923498
 20
1737.59863326
  0
POINT
  8
3
 10
1214.69654730
 20
1732.56458366
  0
POINT
  8
3
 10
1200.14773197
 20
1727.08939991
  0
POINT
  8
3
 10
1185.61151538
 20
1721.01436401
  0
POINT
  8
3
 10
1171.29706860
 20
1714.41533291
  0
POINT
  8
3
 10
1157.21386171
 20
1707.32020542
  0
POINT
  8
3
 10
1143.37136478
 20
1699.75688038
  0
POINT
  8
3
 10
1129.77528245
 20
1691.74782477
  0
POINT
  8
3
 10
1116.44541357
 20
1683.31116513
  0
POINT
  8
3
 10
1103.39761209
 20
1674.45991193
  0
POINT
  8
3
 10
1090.64773197
 20
1665.20707569
  0
POINT
  8
3
 10
1078.68339133
 20
1655.94300694
  0
POINT
  8
3
 10
1067.00407747
 20
1646.31578002
  0
POINT
  8
3
 10
1055.60484281
 20
1636.32133473
  0
POINT
  8
2
 10
1044.48073978
 20
1625.95561085
  0
TEXT
  8
2
 10
1044.48073978
 20
1625.95561085
 40
10.00000000
 50
0.00000000
  1
# 126
  0
POINT
  8
2
 10
1021.50906010
 20
1626.79106007
  0
TEXT
  8
2
 10
1021.50906010
 20
1626.79106007
 40
10.00000000
 50
0.00000000
  1
# 127
  0
POINT
  8
3
 10
1025.88684132
 20
1641.42984957
  0
POINT
  8
3
 10
1031.16921224
 20
1655.49831580
  0
POINT
  8
3
 10
1037.45402662
 20
1668.95033678
  0
POINT
  8
3
 10
1044.83913822
 20
1681.73979053
  0
POINT
  8
3
 10
1054.38137822
 20
1695.16512538
  0
POINT
  8
3
 10
1065.05428822
 20
1707.87953721
  0
POINT
  8
3
 10
1076.50707439
 20
1720.04836768
  0
POINT
  8
3
 10
1088.38894291
 20
1731.83695850
  0
POINT
  8
3
 10
1100.57701128
 20
1743.51954567
  0
POINT
  8
3
 10
1112.93486613
 20
1754.92095074
  0
POINT
  8
3
 10
1125.55198593
 20
1765.98043294
  0
POINT
  8
3
 10
1138.51784916
 20
1776.63725147
  0
POINT
  8
3
 10
1141.39284916
 20
1778.89555225
  0
POINT
  8
3
 10
1154.04118407
 20
1788.35889896
  0
POINT
  8
3
 10
1167.04905994
 20
1797.33621356
  0
POINT
  8
3
 10
1180.39240464
 20
1805.81060473
  0
POINT
  8
3
 10
1194.04714603
 20
1813.76518116
  0
POINT
  8
3
 10
1205.25023404
 20
1819.78577625
  0
POINT
  8
3
 10
1216.62051936
 20
1825.48044330
  0
POINT
  8
3
 10
1228.13893247
 20
1830.87119022
  0
POINT
  8
3
 10
1239.78640385
 20
1835.98002491
  0
POINT
  8
3
 10
1251.60716342
 20
1840.85090733
  0
POINT
  8
3
 10
1263.52932957
 20
1845.46506541
  0
POINT
  8
3
 10
1275.54316761
 20
1849.82840246
  0
POINT
  8
3
 10
1287.63894291
 20
1853.94682178
  0
POINT
  8
3
 10
1310.33749571
 20
1860.96763679
  0
POINT
  8
2
 10
1333.30886478
 20
1867.14750538
  0
TEXT
  8
2
 10
1333.30886478
 20
1867.14750538
 40
10.00000000
 50
0.00000000
  1
# 128
  0
POINT
  8
2
 10
1345.15652103
 20
1850.19633350
  0
TEXT
  8
2
 10
1345.15652103
 20
1850.19633350
 40
10.00000000
 50
0.00000000
  1
# 129
  0
POINT
  8
2
 10
1324.13698978
 20
1820.04447803
  0
TEXT
  8
2
 10
1324.13698978
 20
1820.04447803
 40
10.00000000
 50
0.00000000
  1
# 130
  0
POINT
  8
2
 10
1366.69558353
 20
1779.17289600
  0
TEXT
  8
2
 10
1366.69558353
 20
1779.17289600
 40
10.00000000
 50
0.00000000
  1
# 131
  0
ENDBLK
  0
BLOCK
  8
1
  2
14
 70
64
 10
0.0
 20
0.0
  0
LINE
  8
7
 10
1164.82355356
 20
741.39765831
 11
1331.59834714
 21
805.09261473
  0
TEXT
  8
1
 10
0.00000000
 20
0.00000000
 40
10.00000000
 50
0.00000000
  1
Size: 46
  0
TEXT
  8
1
 10
1245.53505401
 20
780.25153208
 40
10.00000000
 50
20.90295493
  1
Piece Name: AHAVANA.P2F
  0
TEXT
  8
1
 10
1245.53505401
 20
780.25153208
 40
10.00000000
 50
20.90295493
  1
Quantity: 1
  0
TEXT
  8
1
 10
1245.53505401
 20
780.25153208
 40
10.00000000
 50
20.90295493
  1
Rotation: 0
  0
TEXT
  8
1
 10
1245.53505401
 20
780.25153208
 40
10.00000000
 50
20.90295493
  1
Tilt: 0
  0
TEXT
  8
1
 10
1245.53505401
 20
780.25153208
 40
10.00000000
 50
20.90295493
  1
Fold: N
  0
TEXT
  8
1
 10
1245.53505401
 20
780.25153208
 40
10.00000000
 50
20.90295493
  1
Material: 1
  0
POLYLINE
  8
1
 66
1
 70
1
  0
VERTEX
  8
1
 10
1046.15804157
 20
625.82817383
  0
VERTEX
  8
1
 10
1050.69890120
 20
642.53159655
  0
VERTEX
  8
1
 10
1056.37197416
 20
658.53308064
  0
VERTEX
  8
1
 10
1063.29354958
 20
673.77988965
  0
VERTEX
  8
1
 10
1071.57991657
 20
688.21928711
  0
VERTEX
  8
1
 10
1081.28627766
 20
701.85457614
  0
VERTEX
  8
1
 10
1092.12862106
 20
714.78562056
  0
VERTEX
  8
1
 10
1103.75715909
 20
727.17104708
  0
VERTEX
  8
1
 10
1115.82210407
 20
739.16948242
  0
VERTEX
  8
1
 10
1128.07556423
 20
750.93118065
  0
VERTEX
  8
1
 10
1140.50327289
 20
762.40633210
  0
VERTEX
  8
1
 10
1153.19244792
 20
773.53783899
  0
VERTEX
  8
1
 10
1166.23030720
 20
784.26860352
  0
VERTEX
  8
1
 10
1169.39436970
 20
786.75688477
  0
VERTEX
  8
1
 10
1182.10621399
 20
796.27362052
  0
VERTEX
  8
1
 10
1195.17140233
 20
805.29846699
  0
VERTEX
  8
1
 10
1208.59038393
 20
813.83267372
  0
VERTEX
  8
1
 10
1222.36360798
 20
821.87749023
  0
VERTEX
  8
1
 10
1233.74739696
 20
827.92022921
  0
VERTEX
  8
1
 10
1245.24751208
 20
833.68989294
  0
VERTEX
  8
1
 10
1256.86988414
 20
839.18079672
  0
VERTEX
  8
1
 10
1268.62044392
 20
844.38725586
  0
VERTEX
  8
1
 10
1280.51298287
 20
849.31209975
  0
VERTEX
  8
1
 10
1292.52208403
 20
853.96332234
  0
VERTEX
  8
1
 10
1304.62992569
 20
858.35800583
  0
VERTEX
  8
1
 10
1316.81868610
 20
862.51323242
  0
VERTEX
  8
1
 10
1329.06698604
 20
866.43995281
  0
VERTEX
  8
1
 10
1341.38424035
 20
870.13888224
  0
VERTEX
  8
1
 10
1353.77638355
 20
873.60433247
  0
VERTEX
  8
1
 10
1366.24935017
 20
876.83061523
  0
VERTEX
  8
1
 10
1382.19856892
 20
854.01127930
  0
VERTEX
  8
1
 10
1361.62630329
 20
824.50249023
  0
VERTEX
  8
1
 10
1403.20638142
 20
784.57084961
  0
VERTEX
  8
1
 10
1400.76595173
 20
775.03325195
  0
VERTEX
  8
1
 10
1375.89773195
 20
768.68008291
  0
VERTEX
  8
1
 10
1351.07161579
 20
762.17338867
  0
VERTEX
  8
1
 10
1321.26977476
 20
754.17100538
  0
VERTEX
  8
1
 10
1306.40033695
 20
750.04489271
  0
VERTEX
  8
1
 10
1291.55989704
 20
745.79692383
  0
VERTEX
  8
1
 10
1276.76542408
 20
741.38851580
  0
VERTEX
  8
1
 10
1262.04843618
 20
736.73373275
  0
VERTEX
  8
1
 10
1247.45143653
 20
731.73688801
  0
VERTEX
  8
1
 10
1233.01692829
 20
726.30229492
  0
VERTEX
  8
1
 10
1218.64040639
 20
720.29228447
  0
VERTEX
  8
1
 10
1204.48315234
 20
713.76455398
  0
VERTEX
  8
1
 10
1190.55531068
 20
706.74556212
  0
VERTEX
  8
1
 10
1176.86702595
 20
699.26176758
  0
VERTEX
  8
1
 10
1163.42223615
 20
691.33381909
  0
VERTEX
  8
1
 10
1150.24049964
 20
682.98327421
  0
VERTEX
  8
1
 10
1137.33491691
 20
674.22632171
  0
VERTEX
  8
1
 10
1124.71858845
 20
665.07915039
  0
VERTEX
  8
1
 10
1112.40618342
 20
655.55792781
  0
VERTEX
  8
1
 10
1100.39154639
 20
645.65755765
  0
VERTEX
  8
1
 10
1088.67031320
 20
635.37264694
  0
VERTEX
  8
1
 10
1077.23811970
 20
624.69780273
  0
SEQEND
  0
POLYLINE
  8
84
 66
1
 70
1
  0
VERTEX
  8
84
 10
1046.15804157
 20
625.82817383
  0
VERTEX
  8
84
 10
1050.69890120
 20
642.53159655
  0
VERTEX
  8
84
 10
1056.37197416
 20
658.53308064
  0
VERTEX
  8
84
 10
1063.29354958
 20
673.77988965
  0
VERTEX
  8
84
 10
1071.57991657
 20
688.21928711
  0
VERTEX
  8
84
 10
1081.28627766
 20
701.85457614
  0
VERTEX
  8
84
 10
1092.12862106
 20
714.78562056
  0
VERTEX
  8
84
 10
1103.75715909
 20
727.17104708
  0
VERTEX
  8
84
 10
1115.82210407
 20
739.16948242
  0
VERTEX
  8
84
 10
1128.07556423
 20
750.93118065
  0
VERTEX
  8
84
 10
1140.50327289
 20
762.40633210
  0
VERTEX
  8
84
 10
1153.19244792
 20
773.53783899
  0
VERTEX
  8
84
 10
1166.23030720
 20
784.26860352
  0
VERTEX
  8
84
 10
1169.39436970
 20
786.75688477
  0
VERTEX
  8
84
 10
1182.10621399
 20
796.27362052
  0
VERTEX
  8
84
 10
1195.17140233
 20
805.29846699
  0
VERTEX
  8
84
 10
1208.59038393
 20
813.83267372
  0
VERTEX
  8
84
 10
1222.36360798
 20
821.87749023
  0
VERTEX
  8
84
 10
1233.74739696
 20
827.92022921
  0
VERTEX
  8
84
 10
1245.24751208
 20
833.68989294
  0
VERTEX
  8
84
 10
1256.86988414
 20
839.18079672
  0
VERTEX
  8
84
 10
1268.62044392
 20
844.38725586
  0
VERTEX
  8
84
 10
1280.51298287
 20
849.31209975
  0
VERTEX
  8
84
 10
1292.52208403
 20
853.96332234
  0
VERTEX
  8
84
 10
1304.62992569
 20
858.35800583
  0
VERTEX
  8
84
 10
1316.81868610
 20
862.51323242
  0
VERTEX
  8
84
 10
1329.06698604
 20
866.43995281
  0
VERTEX
  8
84
 10
1341.38424035
 20
870.13888224
  0
VERTEX
  8
84
 10
1353.77638355
 20
873.60433247
  0
VERTEX
  8
84
 10
1366.24935017
 20
876.83061523
  0
VERTEX
  8
84
 10
1382.19856892
 20
854.01127930
  0
VERTEX
  8
84
 10
1361.62630329
 20
824.50249023
  0
VERTEX
  8
84
 10
1403.20638142
 20
784.57084961
  0
VERTEX
  8
84
 10
1400.76595173
 20
775.03325195
  0
VERTEX
  8
84
 10
1375.89773195
 20
768.68008291
  0
VERTEX
  8
84
 10
1351.07161579
 20
762.17338867
  0
VERTEX
  8
84
 10
1321.26977476
 20
754.17100538
  0
VERTEX
  8
84
 10
1306.40033695
 20
750.04489271
  0
VERTEX
  8
84
 10
1291.55989704
 20
745.79692383
  0
VERTEX
  8
84
 10
1276.76542408
 20
741.38851580
  0
VERTEX
  8
84
 10
1262.04843618
 20
736.73373275
  0
VERTEX
  8
84
 10
1247.45143653
 20
731.73688801
  0
VERTEX
  8
84
 10
1233.01692829
 20
726.30229492
  0
VERTEX
  8
84
 10
1218.64040639
 20
720.29228447
  0
VERTEX
  8
84
 10
1204.48315234
 20
713.76455398
  0
VERTEX
  8
84
 10
1190.55531068
 20
706.74556212
  0
VERTEX
  8
84
 10
1176.86702595
 20
699.26176758
  0
VERTEX
  8
84
 10
1163.42223615
 20
691.33381909
  0
VERTEX
  8
84
 10
1150.24049964
 20
682.98327421
  0
VERTEX
  8
84
 10
1137.33491691
 20
674.22632171
  0
VERTEX
  8
84
 10
1124.71858845
 20
665.07915039
  0
VERTEX
  8
84
 10
1112.40618342
 20
655.55792781
  0
VERTEX
  8
84
 10
1100.39154639
 20
645.65755765
  0
VERTEX
  8
84
 10
1088.67031320
 20
635.37264694
  0
VERTEX
  8
84
 10
1077.23811970
 20
624.69780273
  0
SEQEND
  0
POINT
  8
2
 10
1046.15804157
 20
625.82817383
  0
TEXT
  8
2
 10
1046.15804157
 20
625.82817383
 40
10.00000000
 50
0.00000000
  1
# 132
  0
POINT
  8
3
 10
1050.69890120
 20
642.53159655
  0
POINT
  8
3
 10
1056.37197416
 20
658.53308064
  0
POINT
  8
3
 10
1063.29354958
 20
673.77988965
  0
POINT
  8
3
 10
1071.57991657
 20
688.21928711
  0
POINT
  8
3
 10
1081.28627766
 20
701.85457614
  0
POINT
  8
3
 10
1092.12862106
 20
714.78562056
  0
POINT
  8
3
 10
1103.75715909
 20
727.17104708
  0
POINT
  8
3
 10
1115.82210407
 20
739.16948242
  0
POINT
  8
3
 10
1128.07556423
 20
750.93118065
  0
POINT
  8
3
 10
1140.50327289
 20
762.40633210
  0
POINT
  8
3
 10
1153.19244792
 20
773.53783899
  0
POINT
  8
3
 10
1166.23030720
 20
784.26860352
  0
POINT
  8
3
 10
1169.39436970
 20
786.75688477
  0
POINT
  8
3
 10
1182.10621399
 20
796.27362052
  0
POINT
  8
3
 10
1195.17140233
 20
805.29846699
  0
POINT
  8
3
 10
1208.59038393
 20
813.83267372
  0
POINT
  8
2
 10
1222.36360798
 20
821.87749023
  0
TEXT
  8
2
 10
1222.36360798
 20
821.87749023
 40
10.00000000
 50
0.00000000
  1
# 133
  0
POINT
  8
3
 10
1233.74739696
 20
827.92022921
  0
POINT
  8
3
 10
1245.24751208
 20
833.68989294
  0
POINT
  8
3
 10
1256.86988414
 20
839.18079672
  0
POINT
  8
3
 10
1268.62044392
 20
844.38725586
  0
POINT
  8
3
 10
1280.51298287
 20
849.31209975
  0
POINT
  8
3
 10
1292.52208403
 20
853.96332234
  0
POINT
  8
3
 10
1304.62992569
 20
858.35800583
  0
POINT
  8
3
 10
1316.81868610
 20
862.51323242
  0
POINT
  8
3
 10
1329.06698604
 20
866.43995281
  0
POINT
  8
3
 10
1341.38424035
 20
870.13888224
  0
POINT
  8
3
 10
1353.77638355
 20
873.60433247
  0
POINT
  8
2
 10
1366.24935017
 20
876.83061523
  0
TEXT
  8
2
 10
1366.24935017
 20
876.83061523
 40
10.00000000
 50
0.00000000
  1
# 134
  0
POINT
  8
2
 10
1382.19856892
 20
854.01127930
  0
TEXT
  8
2
 10
1382.19856892
 20
854.01127930
 40
10.00000000
 50
0.00000000
  1
# 135
  0
POINT
  8
2
 10
1361.62630329
 20
824.50249023
  0
TEXT
  8
2
 10
1361.62630329
 20
824.50249023
 40
10.00000000
 50
0.00000000
  1
# 136
  0
POINT
  8
2
 10
1403.20638142
 20
784.57084961
  0
TEXT
  8
2
 10
1403.20638142
 20
784.57084961
 40
10.00000000
 50
0.00000000
  1
# 137
  0
POINT
  8
2
 10
1400.76595173
 20
775.03325195
  0
TEXT
  8
2
 10
1400.76595173
 20
775.03325195
 40
10.00000000
 50
0.00000000
  1
# 138
  0
POINT
  8
3
 10
1375.89773195
 20
768.68008291
  0
POINT
  8
3
 10
1351.07161579
 20
762.17338867
  0
POINT
  8
3
 10
1321.26977476
 20
754.17100538
  0
POINT
  8
3
 10
1306.40033695
 20
750.04489271
  0
POINT
  8
3
 10
1291.55989704
 20
745.79692383
  0
POINT
  8
3
 10
1276.76542408
 20
741.38851580
  0
POINT
  8
3
 10
1262.04843618
 20
736.73373275
  0
POINT
  8
3
 10
1247.45143653
 20
731.73688801
  0
POINT
  8
3
 10
1233.01692829
 20
726.30229492
  0
POINT
  8
3
 10
1218.64040639
 20
720.29228447
  0
POINT
  8
3
 10
1204.48315234
 20
713.76455398
  0
POINT
  8
3
 10
1190.55531068
 20
706.74556212
  0
POINT
  8
3
 10
1176.86702595
 20
699.26176758
  0
POINT
  8
3
 10
1163.42223615
 20
691.33381909
  0
POINT
  8
3
 10
1150.24049964
 20
682.98327421
  0
POINT
  8
3
 10
1137.33491691
 20
674.22632171
  0
POINT
  8
3
 10
1124.71858845
 20
665.07915039
  0
POINT
  8
3
 10
1112.40618342
 20
655.55792781
  0
POINT
  8
3
 10
1100.39154639
 20
645.65755765
  0
POINT
  8
3
 10
1088.67031320
 20
635.37264694
  0
POINT
  8
2
 10
1077.23811970
 20
624.69780273
  0
TEXT
  8
2
 10
1077.23811970
 20
624.69780273
 40
10.00000000
 50
0.00000000
  1
# 139
  0
POINT
  8
4
 10
1169.39436970
 20
786.75688477
 30
7.50000000
 50
308.18220976
  0
TEXT
  8
1
 10
1169.39436970
 20
786.75688477
 40
10.00000000
 50
0.00000000
  1
# 140
  0
POINT
  8
4
 10
1233.01692829
 20
726.30229492
 30
7.50000000
 50
110.63135848
  0
TEXT
  8
1
 10
1233.01692829
 20
726.30229492
 40
10.00000000
 50
0.00000000
  1
# 141
  0
ENDBLK
  0
BLOCK
  8
1
  2
15
 70
64
 10
0.0
 20
0.0
  0
LINE
  8
7
 10
322.59886772
 20
1861.22116261
 11
443.59508354
 21
1861.22116261
  0
TEXT
  8
1
 10
0.00000000
 20
0.00000000
 40
10.00000000
 50
0.00000000
  1
Size: 46
  0
TEXT
  8
1
 10
383.09697563
 20
1868.72116261
 40
10.00000000
 50
0.00000000
  1
Piece Name: AHAVANA.PRE
  0
TEXT
  8
1
 10
383.09697563
 20
1868.72116261
 40
10.00000000
 50
0.00000000
  1
Quantity: 1
  0
TEXT
  8
1
 10
383.09697563
 20
1868.72116261
 40
10.00000000
 50
0.00000000
  1
Rotation: 0
  0
TEXT
  8
1
 10
383.09697563
 20
1868.72116261
 40
10.00000000
 50
0.00000000
  1
Tilt: 0
  0
TEXT
  8
1
 10
383.09697563
 20
1868.72116261
 40
10.00000000
 50
0.00000000
  1
Fold: N
  0
TEXT
  8
1
 10
383.09697563
 20
1868.72116261
 40
10.00000000
 50
0.00000000
  1
Material: 1
  0
POLYLINE
  8
1
 66
1
 70
1
  0
VERTEX
  8
1
 10
277.32092342
 20
1835.61790943
  0
VERTEX
  8
1
 10
260.30285702
 20
1864.57384205
  0
VERTEX
  8
1
 10
277.06677303
 20
1892.51402760
  0
VERTEX
  8
1
 10
487.29528866
 20
1892.51402760
  0
VERTEX
  8
1
 10
494.48767147
 20
1884.17430592
  0
VERTEX
  8
1
 10
497.69837042
 20
1879.64681555
  0
VERTEX
  8
1
 10
500.26452694
 20
1874.80882740
  0
VERTEX
  8
1
 10
501.77111161
 20
1869.62081334
  0
VERTEX
  8
1
 10
502.29528866
 20
1864.06407642
  0
VERTEX
  8
1
 10
501.79722426
 20
1858.49517844
  0
VERTEX
  8
1
 10
500.29162655
 20
1853.30724049
  0
VERTEX
  8
1
 10
497.69614855
 20
1848.48272145
  0
VERTEX
  8
1
 10
494.45471249
 20
1843.96727467
  0
VERTEX
  8
1
 10
487.29528866
 20
1835.61790943
  0
SEQEND
  0
POLYLINE
  8
84
 66
1
 70
1
  0
VERTEX
  8
84
 10
277.32092342
 20
1835.61790943
  0
VERTEX
  8
84
 10
260.30285702
 20
1864.57384205
  0
VERTEX
  8
84
 10
277.06677303
 20
1892.51402760
  0
VERTEX
  8
84
 10
487.29528866
 20
1892.51402760
  0
VERTEX
  8
84
 10
494.48767147
 20
1884.17430592
  0
VERTEX
  8
84
 10
497.69837042
 20
1879.64681555
  0
VERTEX
  8
84
 10
500.26452694
 20
1874.80882740
  0
VERTEX
  8
84
 10
501.77111161
 20
1869.62081334
  0
VERTEX
  8
84
 10
502.29528866
 20
1864.06407642
  0
VERTEX
  8
84
 10
501.79722426
 20
1858.49517844
  0
VERTEX
  8
84
 10
500.29162655
 20
1853.30724049
  0
VERTEX
  8
84
 10
497.69614855
 20
1848.48272145
  0
VERTEX
  8
84
 10
494.45471249
 20
1843.96727467
  0
VERTEX
  8
84
 10
487.29528866
 20
1835.61790943
  0
SEQEND
  0
POINT
  8
2
 10
277.32092342
 20
1835.61790943
  0
TEXT
  8
2
 10
277.32092342
 20
1835.61790943
 40
10.00000000
 50
0.00000000
  1
# 142
  0
POINT
  8
2
 10
260.30285702
 20
1864.57384205
  0
TEXT
  8
2
 10
260.30285702
 20
1864.57384205
 40
10.00000000
 50
0.00000000
  1
# 143
  0
POINT
  8
2
 10
277.06677303
 20
1892.51402760
  0
TEXT
  8
2
 10
277.06677303
 20
1892.51402760
 40
10.00000000
 50
0.00000000
  1
# 144
  0
POINT
  8
2
 10
487.29528866
 20
1892.51402760
  0
TEXT
  8
2
 10
487.29528866
 20
1892.51402760
 40
10.00000000
 50
0.00000000
  1
# 145
  0
POINT
  8
3
 10
494.48767147
 20
1884.17430592
  0
POINT
  8
3
 10
497.69837042
 20
1879.64681555
  0
POINT
  8
3
 10
500.26452694
 20
1874.80882740
  0
POINT
  8
3
 10
501.77111161
 20
1869.62081334
  0
POINT
  8
2
 10
502.29528866
 20
1864.06407642
  0
TEXT
  8
2
 10
502.29528866
 20
1864.06407642
 40
10.00000000
 50
0.00000000
  1
# 146
  0
POINT
  8
3
 10
501.79722426
 20
1858.49517844
  0
POINT
  8
3
 10
500.29162655
 20
1853.30724049
  0
POINT
  8
3
 10
497.69614855
 20
1848.48272145
  0
POINT
  8
3
 10
494.45471249
 20
1843.96727467
  0
POINT
  8
2
 10
487.29528866
 20
1835.61790943
  0
TEXT
  8
2
 10
487.29528866
 20
1835.61790943
 40
10.00000000
 50
0.00000000
  1
# 147
  0
ENDBLK
  0
BLOCK
  8
1
  2
16
 70
64
 10
0.0
 20
0.0
  0
LINE
  8
7
 10
1252.40921841
 20
432.61171875
 11
1567.20011196
 21
432.61171875
  0
TEXT
  8
1
 10
0.00000000
 20
0.00000000
 40
10.00000000
 50
0.00000000
  1
Size: 46
  0
TEXT
  8
1
 10
1409.80466519
 20
447.61171875
 40
20.00000000
 50
0.00000000
  1
Piece Name: AHAVANA.TC1
  0
TEXT
  8
1
 10
1409.80466519
 20
447.61171875
 40
20.00000000
 50
0.00000000
  1
Quantity: 1
  0
TEXT
  8
1
 10
1409.80466519
 20
447.61171875
 40
20.00000000
 50
0.00000000
  1
Rotation: 0
  0
TEXT
  8
1
 10
1409.80466519
 20
447.61171875
 40
20.00000000
 50
0.00000000
  1
Tilt: 0
  0
TEXT
  8
1
 10
1409.80466519
 20
447.61171875
 40
20.00000000
 50
0.00000000
  1
Fold: N
  0
TEXT
  8
1
 10
1409.80466519
 20
447.61171875
 40
20.00000000
 50
0.00000000
  1
Material: 1
  0
POLYLINE
  8
1
 66
1
 70
1
  0
VERTEX
  8
1
 10
1347.96537132
 20
368.97500000
  0
VERTEX
  8
1
 10
1247.02005882
 20
370.56191406
  0
VERTEX
  8
1
 10
1104.02396507
 20
370.56093750
  0
VERTEX
  8
1
 10
1104.02591820
 20
491.63320313
  0
VERTEX
  8
1
 10
1150.76224632
 20
501.52773438
  0
VERTEX
  8
1
 10
1698.69071312
 20
501.53164063
  0
VERTEX
  8
1
 10
1698.92606468
 20
478.23085938
  0
VERTEX
  8
1
 10
1699.70250760
 20
466.60224448
  0
VERTEX
  8
1
 10
1701.20145531
 20
455.04628906
  0
VERTEX
  8
1
 10
1703.75924587
 20
443.67457452
  0
VERTEX
  8
1
 10
1707.54325218
 20
432.65371094
  0
VERTEX
  8
1
 10
1712.60489461
 20
422.16450643
  0
VERTEX
  8
1
 10
1718.73465843
 20
412.26992188
  0
VERTEX
  8
1
 10
1725.72600200
 20
402.99400092
  0
VERTEX
  8
1
 10
1733.60184593
 20
394.34609375
  0
VERTEX
  8
1
 10
1726.84332089
 20
381.63719058
  0
VERTEX
  8
1
 10
1720.52958031
 20
368.71621094
  0
VERTEX
  8
1
 10
1714.65308160
 20
355.57550666
  0
VERTEX
  8
1
 10
1709.25223656
 20
342.23378906
  0
VERTEX
  8
1
 10
1704.36407511
 20
328.70849429
  0
VERTEX
  8
1
 10
1699.98172874
 20
314.99355469
  0
VERTEX
  8
1
 10
1675.91187403
 20
320.38421192
  0
VERTEX
  8
1
 10
1651.66166039
 20
324.61562500
  0
VERTEX
  8
1
 10
1627.22628356
 20
327.68109268
  0
VERTEX
  8
1
 10
1602.65287132
 20
329.62636719
  0
VERTEX
  8
1
 10
1578.00321571
 20
330.45818386
  0
VERTEX
  8
1
 10
1553.37552757
 20
329.97597656
  0
VERTEX
  8
1
 10
1528.88277466
 20
327.98842839
  0
VERTEX
  8
1
 10
1504.47611351
 20
324.52382813
  0
VERTEX
  8
1
 10
1496.17791620
 20
321.66827079
  0
VERTEX
  8
1
 10
1488.15398320
 20
318.36526004
  0
VERTEX
  8
1
 10
1472.83353539
 20
310.44179688
  0
VERTEX
  8
1
 10
1465.49955333
 20
305.82585418
  0
VERTEX
  8
1
 10
1458.44024825
 20
300.76175908
  0
VERTEX
  8
1
 10
1451.72724494
 20
295.23079812
  0
VERTEX
  8
1
 10
1445.43216820
 20
289.21425781
  0
VERTEX
  8
1
 10
1439.65567706
 20
282.74819709
  0
VERTEX
  8
1
 10
1434.40608963
 20
275.84789289
  0
VERTEX
  8
1
 10
1429.72667038
 20
268.57730435
  0
VERTEX
  8
1
 10
1425.66068382
 20
261.00039063
  0
VERTEX
  8
1
 10
1422.22169987
 20
253.11518452
  0
VERTEX
  8
1
 10
1419.43339782
 20
244.96290113
  0
VERTEX
  8
1
 10
1417.28119971
 20
236.52198944
  0
VERTEX
  8
1
 10
1415.75052757
 20
227.77089844
  0
VERTEX
  8
1
 10
1401.70519922
 20
228.70560284
  0
VERTEX
  8
1
 10
1387.65745346
 20
229.52306561
  0
VERTEX
  8
1
 10
1373.60729029
 20
230.22328675
  0
VERTEX
  8
1
 10
1359.55470973
 20
230.80626624
  0
VERTEX
  8
1
 10
1345.49971175
 20
231.27200411
  0
VERTEX
  8
1
 10
1331.44229638
 20
231.62050034
  0
VERTEX
  8
1
 10
1317.38252420
 20
231.85175419
  0
VERTEX
  8
1
 10
1303.32033464
 20
231.96576741
  0
VERTEX
  8
1
 10
1289.25572770
 20
231.96254001
  0
VERTEX
  8
1
 10
1275.18870337
 20
231.84207199
  0
VERTEX
  8
1
 10
1261.11926167
 20
231.60436334
  0
VERTEX
  8
1
 10
1247.04740257
 20
231.24941406
  0
VERTEX
  8
1
 10
1230.67312217
 20
231.56582177
  0
VERTEX
  8
1
 10
1214.30206269
 20
231.66054883
  0
VERTEX
  8
1
 10
1197.93422413
 20
231.53359524
  0
VERTEX
  8
1
 10
1181.56964083
 20
231.18496197
  0
VERTEX
  8
1
 10
1165.20827843
 20
230.61464897
  0
VERTEX
  8
1
 10
1148.85013695
 20
229.82265625
  0
VERTEX
  8
1
 10
1141.36502637
 20
229.32742269
  0
VERTEX
  8
1
 10
1126.41251011
 20
228.13709814
  0
VERTEX
  8
1
 10
1111.48351589
 20
226.68028802
  0
VERTEX
  8
1
 10
1104.02787132
 20
225.85195313
  0
VERTEX
  8
1
 10
1104.02005882
 20
367.64687500
  0
VERTEX
  8
1
 10
1247.01712914
 20
367.64882813
  0
SEQEND
  0
POLYLINE
  8
84
 66
1
 70
1
  0
VERTEX
  8
84
 10
1347.96537132
 20
368.97500000
  0
VERTEX
  8
84
 10
1247.02005882
 20
370.56191406
  0
VERTEX
  8
84
 10
1104.02396507
 20
370.56093750
  0
VERTEX
  8
84
 10
1104.02591820
 20
491.63320313
  0
VERTEX
  8
84
 10
1150.76224632
 20
501.52773438
  0
VERTEX
  8
84
 10
1698.69071312
 20
501.53164063
  0
VERTEX
  8
84
 10
1698.92606468
 20
478.23085938
  0
VERTEX
  8
84
 10
1699.70250760
 20
466.60224448
  0
VERTEX
  8
84
 10
1701.20145531
 20
455.04628906
  0
VERTEX
  8
84
 10
1703.75924587
 20
443.67457452
  0
VERTEX
  8
84
 10
1707.54325218
 20
432.65371094
  0
VERTEX
  8
84
 10
1712.60489461
 20
422.16450643
  0
VERTEX
  8
84
 10
1718.73465843
 20
412.26992188
  0
VERTEX
  8
84
 10
1725.72600200
 20
402.99400092
  0
VERTEX
  8
84
 10
1733.60184593
 20
394.34609375
  0
VERTEX
  8
84
 10
1726.84332089
 20
381.63719058
  0
VERTEX
  8
84
 10
1720.52958031
 20
368.71621094
  0
VERTEX
  8
84
 10
1714.65308160
 20
355.57550666
  0
VERTEX
  8
84
 10
1709.25223656
 20
342.23378906
  0
VERTEX
  8
84
 10
1704.36407511
 20
328.70849429
  0
VERTEX
  8
84
 10
1699.98172874
 20
314.99355469
  0
VERTEX
  8
84
 10
1675.91187403
 20
320.38421192
  0
VERTEX
  8
84
 10
1651.66166039
 20
324.61562500
  0
VERTEX
  8
84
 10
1627.22628356
 20
327.68109268
  0
VERTEX
  8
84
 10
1602.65287132
 20
329.62636719
  0
VERTEX
  8
84
 10
1578.00321571
 20
330.45818386
  0
VERTEX
  8
84
 10
1553.37552757
 20
329.97597656
  0
VERTEX
  8
84
 10
1528.88277466
 20
327.98842839
  0
VERTEX
  8
84
 10
1504.47611351
 20
324.52382813
  0
VERTEX
  8
84
 10
1496.17791620
 20
321.66827079
  0
VERTEX
  8
84
 10
1488.15398320
 20
318.36526004
  0
VERTEX
  8
84
 10
1472.83353539
 20
310.44179688
  0
VERTEX
  8
84
 10
1465.49955333
 20
305.82585418
  0
VERTEX
  8
84
 10
1458.44024825
 20
300.76175908
  0
VERTEX
  8
84
 10
1451.72724494
 20
295.23079812
  0
VERTEX
  8
84
 10
1445.43216820
 20
289.21425781
  0
VERTEX
  8
84
 10
1439.65567706
 20
282.74819709
  0
VERTEX
  8
84
 10
1434.40608963
 20
275.84789289
  0
VERTEX
  8
84
 10
1429.72667038
 20
268.57730435
  0
VERTEX
  8
84
 10
1425.66068382
 20
261.00039063
  0
VERTEX
  8
84
 10
1422.22169987
 20
253.11518452
  0
VERTEX
  8
84
 10
1419.43339782
 20
244.96290113
  0
VERTEX
  8
84
 10
1417.28119971
 20
236.52198944
  0
VERTEX
  8
84
 10
1415.75052757
 20
227.77089844
  0
VERTEX
  8
84
 10
1401.70519922
 20
228.70560284
  0
VERTEX
  8
84
 10
1387.65745346
 20
229.52306561
  0
VERTEX
  8
84
 10
1373.60729029
 20
230.22328675
  0
VERTEX
  8
84
 10
1359.55470973
 20
230.80626624
  0
VERTEX
  8
84
 10
1345.49971175
 20
231.27200411
  0
VERTEX
  8
84
 10
1331.44229638
 20
231.62050034
  0
VERTEX
  8
84
 10
1317.38252420
 20
231.85175419
  0
VERTEX
  8
84
 10
1303.32033464
 20
231.96576741
  0
VERTEX
  8
84
 10
1289.25572770
 20
231.96254001
  0
VERTEX
  8
84
 10
1275.18870337
 20
231.84207199
  0
VERTEX
  8
84
 10
1261.11926167
 20
231.60436334
  0
VERTEX
  8
84
 10
1247.04740257
 20
231.24941406
  0
VERTEX
  8
84
 10
1230.67312217
 20
231.56582177
  0
VERTEX
  8
84
 10
1214.30206269
 20
231.66054883
  0
VERTEX
  8
84
 10
1197.93422413
 20
231.53359524
  0
VERTEX
  8
84
 10
1181.56964083
 20
231.18496197
  0
VERTEX
  8
84
 10
1165.20827843
 20
230.61464897
  0
VERTEX
  8
84
 10
1148.85013695
 20
229.82265625
  0
VERTEX
  8
84
 10
1141.36502637
 20
229.32742269
  0
VERTEX
  8
84
 10
1126.41251011
 20
228.13709814
  0
VERTEX
  8
84
 10
1111.48351589
 20
226.68028802
  0
VERTEX
  8
84
 10
1104.02787132
 20
225.85195313
  0
VERTEX
  8
84
 10
1104.02005882
 20
367.64687500
  0
VERTEX
  8
84
 10
1247.01712914
 20
367.64882813
  0
SEQEND
  0
POINT
  8
2
 10
1347.96537132
 20
368.97500000
  0
TEXT
  8
2
 10
1347.96537132
 20
368.97500000
 40
10.00000000
 50
0.00000000
  1
# 148
  0
POINT
  8
2
 10
1247.02005882
 20
370.56191406
  0
TEXT
  8
2
 10
1247.02005882
 20
370.56191406
 40
10.00000000
 50
0.00000000
  1
# 149
  0
POINT
  8
2
 10
1104.02396507
 20
370.56093750
  0
TEXT
  8
2
 10
1104.02396507
 20
370.56093750
 40
10.00000000
 50
0.00000000
  1
# 150
  0
POINT
  8
2
 10
1104.02591820
 20
491.63320313
  0
TEXT
  8
2
 10
1104.02591820
 20
491.63320313
 40
10.00000000
 50
0.00000000
  1
# 151
  0
POINT
  8
2
 10
1150.76224632
 20
501.52773438
  0
TEXT
  8
2
 10
1150.76224632
 20
501.52773438
 40
10.00000000
 50
0.00000000
  1
# 152
  0
POINT
  8
2
 10
1698.69071312
 20
501.53164063
  0
TEXT
  8
2
 10
1698.69071312
 20
501.53164063
 40
10.00000000
 50
0.00000000
  1
# 153
  0
POINT
  8
3
 10
1698.92606468
 20
478.23085938
  0
POINT
  8
3
 10
1699.70250760
 20
466.60224448
  0
POINT
  8
3
 10
1701.20145531
 20
455.04628906
  0
POINT
  8
3
 10
1703.75924587
 20
443.67457452
  0
POINT
  8
3
 10
1707.54325218
 20
432.65371094
  0
POINT
  8
3
 10
1712.60489461
 20
422.16450643
  0
POINT
  8
3
 10
1718.73465843
 20
412.26992188
  0
POINT
  8
3
 10
1725.72600200
 20
402.99400092
  0
POINT
  8
2
 10
1733.60184593
 20
394.34609375
  0
TEXT
  8
2
 10
1733.60184593
 20
394.34609375
 40
10.00000000
 50
0.00000000
  1
# 154
  0
POINT
  8
3
 10
1726.84332089
 20
381.63719058
  0
POINT
  8
3
 10
1720.52958031
 20
368.71621094
  0
POINT
  8
3
 10
1714.65308160
 20
355.57550666
  0
POINT
  8
3
 10
1709.25223656
 20
342.23378906
  0
POINT
  8
3
 10
1704.36407511
 20
328.70849429
  0
POINT
  8
2
 10
1699.98172874
 20
314.99355469
  0
TEXT
  8
2
 10
1699.98172874
 20
314.99355469
 40
10.00000000
 50
0.00000000
  1
# 155
  0
POINT
  8
3
 10
1675.91187403
 20
320.38421192
  0
POINT
  8
3
 10
1651.66166039
 20
324.61562500
  0
POINT
  8
3
 10
1627.22628356
 20
327.68109268
  0
POINT
  8
3
 10
1602.65287132
 20
329.62636719
  0
POINT
  8
3
 10
1578.00321571
 20
330.45818386
  0
POINT
  8
3
 10
1553.37552757
 20
329.97597656
  0
POINT
  8
3
 10
1528.88277466
 20
327.98842839
  0
POINT
  8
2
 10
1504.47611351
 20
324.52382813
  0
TEXT
  8
2
 10
1504.47611351
 20
324.52382813
 40
10.00000000
 50
0.00000000
  1
# 156
  0
POINT
  8
3
 10
1496.17791620
 20
321.66827079
  0
POINT
  8
3
 10
1488.15398320
 20
318.36526004
  0
POINT
  8
3
 10
1472.83353539
 20
310.44179688
  0
POINT
  8
3
 10
1465.49955333
 20
305.82585418
  0
POINT
  8
3
 10
1458.44024825
 20
300.76175908
  0
POINT
  8
3
 10
1451.72724494
 20
295.23079812
  0
POINT
  8
3
 10
1445.43216820
 20
289.21425781
  0
POINT
  8
3
 10
1439.65567706
 20
282.74819709
  0
POINT
  8
3
 10
1434.40608963
 20
275.84789289
  0
POINT
  8
3
 10
1429.72667038
 20
268.57730435
  0
POINT
  8
3
 10
1425.66068382
 20
261.00039063
  0
POINT
  8
3
 10
1422.22169987
 20
253.11518452
  0
POINT
  8
3
 10
1419.43339782
 20
244.96290113
  0
POINT
  8
3
 10
1417.28119971
 20
236.52198944
  0
POINT
  8
2
 10
1415.75052757
 20
227.77089844
  0
TEXT
  8
2
 10
1415.75052757
 20
227.77089844
 40
10.00000000
 50
0.00000000
  1
# 157
  0
POINT
  8
3
 10
1401.70519922
 20
228.70560284
  0
POINT
  8
3
 10
1387.65745346
 20
229.52306561
  0
POINT
  8
3
 10
1373.60729029
 20
230.22328675
  0
POINT
  8
3
 10
1359.55470973
 20
230.80626624
  0
POINT
  8
3
 10
1345.49971175
 20
231.27200411
  0
POINT
  8
3
 10
1331.44229638
 20
231.62050034
  0
POINT
  8
3
 10
1317.38252420
 20
231.85175419
  0
POINT
  8
3
 10
1303.32033464
 20
231.96576741
  0
POINT
  8
3
 10
1289.25572770
 20
231.96254001
  0
POINT
  8
3
 10
1275.18870337
 20
231.84207199
  0
POINT
  8
3
 10
1261.11926167
 20
231.60436334
  0
POINT
  8
2
 10
1247.04740257
 20
231.24941406
  0
TEXT
  8
2
 10
1247.04740257
 20
231.24941406
 40
10.00000000
 50
0.00000000
  1
# 158
  0
POINT
  8
3
 10
1230.67312217
 20
231.56582177
  0
POINT
  8
3
 10
1214.30206269
 20
231.66054883
  0
POINT
  8
3
 10
1197.93422413
 20
231.53359524
  0
POINT
  8
3
 10
1181.56964083
 20
231.18496197
  0
POINT
  8
3
 10
1165.20827843
 20
230.61464897
  0
POINT
  8
2
 10
1148.85013695
 20
229.82265625
  0
TEXT
  8
2
 10
1148.85013695
 20
229.82265625
 40
10.00000000
 50
0.00000000
  1
# 159
  0
POINT
  8
3
 10
1141.36502637
 20
229.32742269
  0
POINT
  8
3
 10
1126.41251011
 20
228.13709814
  0
POINT
  8
3
 10
1111.48351589
 20
226.68028802
  0
POINT
  8
2
 10
1104.02787132
 20
225.85195313
  0
TEXT
  8
2
 10
1104.02787132
 20
225.85195313
 40
10.00000000
 50
0.00000000
  1
# 160
  0
POINT
  8
2
 10
1104.02005882
 20
367.64687500
  0
TEXT
  8
2
 10
1104.02005882
 20
367.64687500
 40
10.00000000
 50
0.00000000
  1
# 161
  0
POINT
  8
2
 10
1247.01712914
 20
367.64882813
  0
TEXT
  8
2
 10
1247.01712914
 20
367.64882813
 40
10.00000000
 50
0.00000000
  1
# 162
  0
POINT
  8
4
 10
1247.02005882
 20
370.56191406
 30
7.50000000
 50
449.54987266
  0
TEXT
  8
1
 10
1247.02005882
 20
370.56191406
 40
10.00000000
 50
0.00000000
  1
# 163
  0
POINT
  8
4
 10
1150.76224632
 20
501.52773438
 30
7.50000000
 50
275.97698655
  0
TEXT
  8
1
 10
1150.76224632
 20
501.52773438
 40
10.00000000
 50
0.00000000
  1
# 164
  0
POINT
  8
4
 10
1148.85013695
 20
229.82265625
 30
7.50000000
 50
93.27858592
  0
TEXT
  8
1
 10
1148.85013695
 20
229.82265625
 40
10.00000000
 50
0.00000000
  1
# 165
  0
POINT
  8
4
 10
1247.01712914
 20
367.64882813
 30
7.50000000
 50
270.37672117
  0
TEXT
  8
1
 10
1247.01712914
 20
367.64882813
 40
10.00000000
 50
0.00000000
  1
# 166
  0
ENDBLK
  0
BLOCK
  8
1
  2
17
 70
64
 10
0.0
 20
0.0
  0
LINE
  8
7
 10
1038.08185072
 20
1150.11958122
 11
1070.34723157
 21
1150.11958122
  0
TEXT
  8
1
 10
0.00000000
 20
0.00000000
 40
20.00000000
 50
0.00000000
  1
Size: 46
  0
TEXT
  8
1
 10
1054.21454114
 20
1153.86958122
 40
5.00000000
 50
0.00000000
  1
Piece Name: AHAVANA.TC2
  0
TEXT
  8
1
 10
1054.21454114
 20
1153.86958122
 40
5.00000000
 50
0.00000000
  1
Quantity: 1
  0
TEXT
  8
1
 10
1054.21454114
 20
1153.86958122
 40
5.00000000
 50
0.00000000
  1
Rotation: 0
  0
TEXT
  8
1
 10
1054.21454114
 20
1153.86958122
 40
5.00000000
 50
0.00000000
  1
Tilt: 0
  0
TEXT
  8
1
 10
1054.21454114
 20
1153.86958122
 40
5.00000000
 50
0.00000000
  1
Fold: N
  0
TEXT
  8
1
 10
1054.21454114
 20
1153.86958122
 40
5.00000000
 50
0.00000000
  1
Material: 1
  0
POLYLINE
  8
1
 66
1
 70
1
  0
VERTEX
  8
1
 10
1068.04629173
 20
1112.45637321
  0
VERTEX
  8
1
 10
1058.95644798
 20
1110.76496696
  0
VERTEX
  8
1
 10
1054.26211205
 20
1115.70490837
  0
VERTEX
  8
1
 10
1049.75039330
 20
1120.82160759
  0
VERTEX
  8
1
 10
1043.03901407
 20
1129.21976925
  0
VERTEX
  8
1
 10
1037.11953392
 20
1138.17170525
  0
VERTEX
  8
1
 10
1032.30723323
 20
1147.81063986
  0
VERTEX
  8
1
 10
1028.58095970
 20
1157.93977165
  0
VERTEX
  8
1
 10
1025.79554690
 20
1168.34001044
  0
VERTEX
  8
1
 10
1023.75869408
 20
1178.90754509
  0
VERTEX
  8
1
 10
1021.14736595
 20
1200.27473259
  0
VERTEX
  8
1
 10
1019.56240501
 20
1221.73957634
  0
VERTEX
  8
1
 10
1057.84023705
 20
1221.73567009
  0
VERTEX
  8
1
 10
1058.55117455
 20
1204.05402946
  0
VERTEX
  8
1
 10
1060.41396751
 20
1186.46418571
  0
VERTEX
  8
1
 10
1062.34676488
 20
1177.86286222
  0
VERTEX
  8
1
 10
1064.98232689
 20
1169.40949821
  0
VERTEX
  8
1
 10
1068.26551743
 20
1161.13778308
  0
VERTEX
  8
1
 10
1072.43642845
 20
1153.36359978
  0
VERTEX
  8
1
 10
1077.71869660
 20
1146.39672830
  0
VERTEX
  8
1
 10
1084.09316673
 20
1140.16047478
  0
VERTEX
  8
1
 10
1074.91299095
 20
1125.49592400
  0
VERTEX
  8
1
 10
1071.36758080
 20
1119.03449821
  0
SEQEND
  0
POLYLINE
  8
84
 66
1
 70
1
  0
VERTEX
  8
84
 10
1068.04629173
 20
1112.45637321
  0
VERTEX
  8
84
 10
1058.95644798
 20
1110.76496696
  0
VERTEX
  8
84
 10
1054.26211205
 20
1115.70490837
  0
VERTEX
  8
84
 10
1049.75039330
 20
1120.82160759
  0
VERTEX
  8
84
 10
1043.03901407
 20
1129.21976925
  0
VERTEX
  8
84
 10
1037.11953392
 20
1138.17170525
  0
VERTEX
  8
84
 10
1032.30723323
 20
1147.81063986
  0
VERTEX
  8
84
 10
1028.58095970
 20
1157.93977165
  0
VERTEX
  8
84
 10
1025.79554690
 20
1168.34001044
  0
VERTEX
  8
84
 10
1023.75869408
 20
1178.90754509
  0
VERTEX
  8
84
 10
1021.14736595
 20
1200.27473259
  0
VERTEX
  8
84
 10
1019.56240501
 20
1221.73957634
  0
VERTEX
  8
84
 10
1057.84023705
 20
1221.73567009
  0
VERTEX
  8
84
 10
1058.55117455
 20
1204.05402946
  0
VERTEX
  8
84
 10
1060.41396751
 20
1186.46418571
  0
VERTEX
  8
84
 10
1062.34676488
 20
1177.86286222
  0
VERTEX
  8
84
 10
1064.98232689
 20
1169.40949821
  0
VERTEX
  8
84
 10
1068.26551743
 20
1161.13778308
  0
VERTEX
  8
84
 10
1072.43642845
 20
1153.36359978
  0
VERTEX
  8
84
 10
1077.71869660
 20
1146.39672830
  0
VERTEX
  8
84
 10
1084.09316673
 20
1140.16047478
  0
VERTEX
  8
84
 10
1074.91299095
 20
1125.49592400
  0
VERTEX
  8
84
 10
1071.36758080
 20
1119.03449821
  0
SEQEND
  0
POINT
  8
2
 10
1068.04629173
 20
1112.45637321
  0
TEXT
  8
2
 10
1068.04629173
 20
1112.45637321
 40
10.00000000
 50
0.00000000
  1
# 167
  0
POINT
  8
2
 10
1058.95644798
 20
1110.76496696
  0
TEXT
  8
2
 10
1058.95644798
 20
1110.76496696
 40
10.00000000
 50
0.00000000
  1
# 168
  0
POINT
  8
3
 10
1054.26211205
 20
1115.70490837
  0
POINT
  8
3
 10
1049.75039330
 20
1120.82160759
  0
POINT
  8
3
 10
1043.03901407
 20
1129.21976925
  0
POINT
  8
3
 10
1037.11953392
 20
1138.17170525
  0
POINT
  8
3
 10
1032.30723323
 20
1147.81063986
  0
POINT
  8
3
 10
1028.58095970
 20
1157.93977165
  0
POINT
  8
3
 10
1025.79554690
 20
1168.34001044
  0
POINT
  8
3
 10
1023.75869408
 20
1178.90754509
  0
POINT
  8
3
 10
1021.14736595
 20
1200.27473259
  0
POINT
  8
2
 10
1019.56240501
 20
1221.73957634
  0
TEXT
  8
2
 10
1019.56240501
 20
1221.73957634
 40
10.00000000
 50
0.00000000
  1
# 169
  0
POINT
  8
2
 10
1057.84023705
 20
1221.73567009
  0
TEXT
  8
2
 10
1057.84023705
 20
1221.73567009
 40
10.00000000
 50
0.00000000
  1
# 170
  0
POINT
  8
3
 10
1058.55117455
 20
1204.05402946
  0
POINT
  8
3
 10
1060.41396751
 20
1186.46418571
  0
POINT
  8
3
 10
1062.34676488
 20
1177.86286222
  0
POINT
  8
3
 10
1064.98232689
 20
1169.40949821
  0
POINT
  8
3
 10
1068.26551743
 20
1161.13778308
  0
POINT
  8
3
 10
1072.43642845
 20
1153.36359978
  0
POINT
  8
3
 10
1077.71869660
 20
1146.39672830
  0
POINT
  8
2
 10
1084.09316673
 20
1140.16047478
  0
TEXT
  8
2
 10
1084.09316673
 20
1140.16047478
 40
10.00000000
 50
0.00000000
  1
# 171
  0
POINT
  8
3
 10
1074.91299095
 20
1125.49592400
  0
POINT
  8
3
 10
1071.36758080
 20
1119.03449821
  0
POINT
  8
13
 10
1056.17470970
 20
1137.18488884
  0
TEXT
  8
13
 10
1056.17470970
 20
1137.18488884
 40
10.00000000
 50
0.00000000
  1
# 172
  0
POINT
  8
13
 10
1038.94228783
 20
1217.27961540
  0
TEXT
  8
13
 10
1038.94228783
 20
1217.27961540
 40
10.00000000
 50
0.00000000
  1
# 173
  0
POINT
  8
4
 10
1057.84023705
 20
1221.73567009
 30
3.00000000
 50
226.14832115
  0
TEXT
  8
1
 10
1057.84023705
 20
1221.73567009
 40
10.00000000
 50
0.00000000
  1
# 174
  0
POINT
  8
4
 10
1019.56240501
 20
1221.73957634
 30
3.00000000
 50
360.00000000
  0
TEXT
  8
1
 10
1019.56240501
 20
1221.73957634
 40
10.00000000
 50
0.00000000
  1
# 175
  0
ENDBLK
  0
BLOCK
  8
1
  2
18
 70
64
 10
0.0
 20
0.0
  0
LINE
  8
7
 10
271.85337252
 20
200.90517578
 11
591.45444674
 21
200.90517578
  0
TEXT
  8
1
 10
0.00000000
 20
0.00000000
 40
5.00000000
 50
0.00000000
  1
Size: 46
  0
TEXT
  8
1
 10
431.65390963
 20
215.90517578
 40
20.00000000
 50
0.00000000
  1
Piece Name: AHAVANA.TRC
  0
TEXT
  8
1
 10
431.65390963
 20
215.90517578
 40
20.00000000
 50
0.00000000
  1
Quantity: 1
  0
TEXT
  8
1
 10
431.65390963
 20
215.90517578
 40
20.00000000
 50
0.00000000
  1
Rotation: 0
  0
TEXT
  8
1
 10
431.65390963
 20
215.90517578
 40
20.00000000
 50
0.00000000
  1
Tilt: 0
  0
TEXT
  8
1
 10
431.65390963
 20
215.90517578
 40
20.00000000
 50
0.00000000
  1
Fold: N
  0
TEXT
  8
1
 10
431.65390963
 20
215.90517578
 40
20.00000000
 50
0.00000000
  1
Material: 1
  0
POLYLINE
  8
1
 66
1
 70
1
  0
VERTEX
  8
1
 10
367.16661110
 20
209.40354004
  0
VERTEX
  8
1
 10
266.21836891
 20
210.72971191
  0
VERTEX
  8
1
 10
123.22032204
 20
210.73166504
  0
VERTEX
  8
1
 10
123.22911110
 20
352.52658691
  0
VERTEX
  8
1
 10
124.42735329
 20
352.38889160
  0
VERTEX
  8
1
 10
145.61387672
 20
350.24191895
  0
VERTEX
  8
1
 10
168.05040016
 20
348.55637207
  0
VERTEX
  8
1
 10
184.40854102
 20
347.76443361
  0
VERTEX
  8
1
 10
200.76990310
 20
347.19412062
  0
VERTEX
  8
1
 10
217.13448640
 20
346.84543309
  0
VERTEX
  8
1
 10
233.50232496
 20
346.71837100
  0
VERTEX
  8
1
 10
249.87338475
 20
346.81293529
  0
VERTEX
  8
1
 10
266.24766579
 20
347.12912598
  0
VERTEX
  8
1
 10
280.31952237
 20
346.77432582
  0
VERTEX
  8
1
 10
294.38896212
 20
346.53673919
  0
VERTEX
  8
1
 10
308.45598505
 20
346.41636608
  0
VERTEX
  8
1
 10
322.52059116
 20
346.41320648
  0
VERTEX
  8
1
 10
336.58278044
 20
346.52726040
  0
VERTEX
  8
1
 10
350.64255289
 20
346.75852785
  0
VERTEX
  8
1
 10
364.69996799
 20
347.10701053
  0
VERTEX
  8
1
 10
378.75496624
 20
347.57270772
  0
VERTEX
  8
1
 10
392.80754764
 20
348.15561943
  0
VERTEX
  8
1
 10
406.85771220
 20
348.85574564
  0
VERTEX
  8
1
 10
420.90545992
 20
349.67308637
  0
VERTEX
  8
1
 10
434.95079079
 20
350.60764160
  0
VERTEX
  8
1
 10
436.48188203
 20
341.85675703
  0
VERTEX
  8
1
 10
438.63440393
 20
333.41601152
  0
VERTEX
  8
1
 10
441.42290247
 20
325.26383007
  0
VERTEX
  8
1
 10
444.86192360
 20
317.37863770
  0
VERTEX
  8
1
 10
448.92773128
 20
309.80172296
  0
VERTEX
  8
1
 10
453.60686432
 20
302.53108743
  0
VERTEX
  8
1
 10
458.85615396
 20
295.63076023
  0
VERTEX
  8
1
 10
464.63243141
 20
289.16477051
  0
VERTEX
  8
1
 10
470.92764089
 20
283.14826898
  0
VERTEX
  8
1
 10
477.64090603
 20
277.61745858
  0
VERTEX
  8
1
 10
484.70051980
 20
272.55354144
  0
VERTEX
  8
1
 10
492.03477516
 20
267.93771973
  0
VERTEX
  8
1
 10
507.35535602
 20
260.01419624
  0
VERTEX
  8
1
 10
515.37924223
 20
256.71100346
  0
VERTEX
  8
1
 10
523.67735329
 20
253.85520020
  0
VERTEX
  8
1
 10
548.08449527
 20
250.39027417
  0
VERTEX
  8
1
 10
572.57774391
 20
248.40256348
  0
VERTEX
  8
1
 10
597.20494191
 20
247.92035421
  0
VERTEX
  8
1
 10
621.85411110
 20
248.75217285
  0
VERTEX
  8
1
 10
646.42752331
 20
250.69745404
  0
VERTEX
  8
1
 10
670.86290016
 20
253.76291504
  0
VERTEX
  8
1
 10
695.11323510
 20
257.99432986
  0
VERTEX
  8
1
 10
719.18321266
 20
263.38498535
  0
VERTEX
  8
1
 10
724.95439845
 20
247.16386935
  0
VERTEX
  8
1
 10
731.13340797
 20
231.09689941
  0
VERTEX
  8
1
 10
737.67123793
 20
215.15640192
  0
VERTEX
  8
1
 10
744.90586891
 20
199.54758301
  0
VERTEX
  8
1
 10
753.17157468
 20
184.48259045
  0
VERTEX
  8
1
 10
762.42247047
 20
169.92648926
  0
VERTEX
  8
1
 10
755.48968060
 20
162.63177971
  0
VERTEX
  8
1
 10
749.81895485
 20
154.55783691
  0
VERTEX
  8
1
 10
745.43499638
 20
145.61875959
  0
VERTEX
  8
1
 10
742.07286110
 20
136.15500488
  0
VERTEX
  8
1
 10
739.44867871
 20
126.51349299
  0
VERTEX
  8
1
 10
737.62266579
 20
116.73410645
  0
VERTEX
  8
1
 10
736.65717661
 20
106.80727991
  0
VERTEX
  8
1
 10
736.24375954
 20
96.82102051
  0
VERTEX
  8
1
 10
736.16954079
 20
76.85178223
  0
VERTEX
  8
1
 10
169.96348610
 20
76.85129395
  0
VERTEX
  8
1
 10
123.22618141
 20
86.74582520
  0
VERTEX
  8
1
 10
123.22520485
 20
207.81760254
  0
VERTEX
  8
1
 10
266.22227516
 20
207.81711426
  0
SEQEND
  0
POLYLINE
  8
84
 66
1
 70
1
  0
VERTEX
  8
84
 10
367.16661110
 20
209.40354004
  0
VERTEX
  8
84
 10
266.21836891
 20
210.72971191
  0
VERTEX
  8
84
 10
123.22032204
 20
210.73166504
  0
VERTEX
  8
84
 10
123.22911110
 20
352.52658691
  0
VERTEX
  8
84
 10
124.42735329
 20
352.38889160
  0
VERTEX
  8
84
 10
145.61387672
 20
350.24191895
  0
VERTEX
  8
84
 10
168.05040016
 20
348.55637207
  0
VERTEX
  8
84
 10
184.40854102
 20
347.76443361
  0
VERTEX
  8
84
 10
200.76990310
 20
347.19412062
  0
VERTEX
  8
84
 10
217.13448640
 20
346.84543309
  0
VERTEX
  8
84
 10
233.50232496
 20
346.71837100
  0
VERTEX
  8
84
 10
249.87338475
 20
346.81293529
  0
VERTEX
  8
84
 10
266.24766579
 20
347.12912598
  0
VERTEX
  8
84
 10
280.31952237
 20
346.77432582
  0
VERTEX
  8
84
 10
294.38896212
 20
346.53673919
  0
VERTEX
  8
84
 10
308.45598505
 20
346.41636608
  0
VERTEX
  8
84
 10
322.52059116
 20
346.41320648
  0
VERTEX
  8
84
 10
336.58278044
 20
346.52726040
  0
VERTEX
  8
84
 10
350.64255289
 20
346.75852785
  0
VERTEX
  8
84
 10
364.69996799
 20
347.10701053
  0
VERTEX
  8
84
 10
378.75496624
 20
347.57270772
  0
VERTEX
  8
84
 10
392.80754764
 20
348.15561943
  0
VERTEX
  8
84
 10
406.85771220
 20
348.85574564
  0
VERTEX
  8
84
 10
420.90545992
 20
349.67308637
  0
VERTEX
  8
84
 10
434.95079079
 20
350.60764160
  0
VERTEX
  8
84
 10
436.48188203
 20
341.85675703
  0
VERTEX
  8
84
 10
438.63440393
 20
333.41601152
  0
VERTEX
  8
84
 10
441.42290247
 20
325.26383007
  0
VERTEX
  8
84
 10
444.86192360
 20
317.37863770
  0
VERTEX
  8
84
 10
448.92773128
 20
309.80172296
  0
VERTEX
  8
84
 10
453.60686432
 20
302.53108743
  0
VERTEX
  8
84
 10
458.85615396
 20
295.63076023
  0
VERTEX
  8
84
 10
464.63243141
 20
289.16477051
  0
VERTEX
  8
84
 10
470.92764089
 20
283.14826898
  0
VERTEX
  8
84
 10
477.64090603
 20
277.61745858
  0
VERTEX
  8
84
 10
484.70051980
 20
272.55354144
  0
VERTEX
  8
84
 10
492.03477516
 20
267.93771973
  0
VERTEX
  8
84
 10
507.35535602
 20
260.01419624
  0
VERTEX
  8
84
 10
515.37924223
 20
256.71100346
  0
VERTEX
  8
84
 10
523.67735329
 20
253.85520020
  0
VERTEX
  8
84
 10
548.08449527
 20
250.39027417
  0
VERTEX
  8
84
 10
572.57774391
 20
248.40256348
  0
VERTEX
  8
84
 10
597.20494191
 20
247.92035421
  0
VERTEX
  8
84
 10
621.85411110
 20
248.75217285
  0
VERTEX
  8
84
 10
646.42752331
 20
250.69745404
  0
VERTEX
  8
84
 10
670.86290016
 20
253.76291504
  0
VERTEX
  8
84
 10
695.11323510
 20
257.99432986
  0
VERTEX
  8
84
 10
719.18321266
 20
263.38498535
  0
VERTEX
  8
84
 10
724.95439845
 20
247.16386935
  0
VERTEX
  8
84
 10
731.13340797
 20
231.09689941
  0
VERTEX
  8
84
 10
737.67123793
 20
215.15640192
  0
VERTEX
  8
84
 10
744.90586891
 20
199.54758301
  0
VERTEX
  8
84
 10
753.17157468
 20
184.48259045
  0
VERTEX
  8
84
 10
762.42247047
 20
169.92648926
  0
VERTEX
  8
84
 10
755.48968060
 20
162.63177971
  0
VERTEX
  8
84
 10
749.81895485
 20
154.55783691
  0
VERTEX
  8
84
 10
745.43499638
 20
145.61875959
  0
VERTEX
  8
84
 10
742.07286110
 20
136.15500488
  0
VERTEX
  8
84
 10
739.44867871
 20
126.51349299
  0
VERTEX
  8
84
 10
737.62266579
 20
116.73410645
  0
VERTEX
  8
84
 10
736.65717661
 20
106.80727991
  0
VERTEX
  8
84
 10
736.24375954
 20
96.82102051
  0
VERTEX
  8
84
 10
736.16954079
 20
76.85178223
  0
VERTEX
  8
84
 10
169.96348610
 20
76.85129395
  0
VERTEX
  8
84
 10
123.22618141
 20
86.74582520
  0
VERTEX
  8
84
 10
123.22520485
 20
207.81760254
  0
VERTEX
  8
84
 10
266.22227516
 20
207.81711426
  0
SEQEND
  0
POINT
  8
2
 10
367.16661110
 20
209.40354004
  0
TEXT
  8
2
 10
367.16661110
 20
209.40354004
 40
10.00000000
 50
0.00000000
  1
# 176
  0
POINT
  8
2
 10
266.21836891
 20
210.72971191
  0
TEXT
  8
2
 10
266.21836891
 20
210.72971191
 40
10.00000000
 50
0.00000000
  1
# 177
  0
POINT
  8
2
 10
123.22032204
 20
210.73166504
  0
TEXT
  8
2
 10
123.22032204
 20
210.73166504
 40
10.00000000
 50
0.00000000
  1
# 178
  0
POINT
  8
2
 10
123.22911110
 20
352.52658691
  0
TEXT
  8
2
 10
123.22911110
 20
352.52658691
 40
10.00000000
 50
0.00000000
  1
# 179
  0
POINT
  8
3
 10
124.42735329
 20
352.38889160
  0
POINT
  8
3
 10
145.61387672
 20
350.24191895
  0
POINT
  8
2
 10
168.05040016
 20
348.55637207
  0
TEXT
  8
2
 10
168.05040016
 20
348.55637207
 40
10.00000000
 50
0.00000000
  1
# 180
  0
POINT
  8
3
 10
184.40854102
 20
347.76443361
  0
POINT
  8
3
 10
200.76990310
 20
347.19412062
  0
POINT
  8
3
 10
217.13448640
 20
346.84543309
  0
POINT
  8
3
 10
233.50232496
 20
346.71837100
  0
POINT
  8
3
 10
249.87338475
 20
346.81293529
  0
POINT
  8
2
 10
266.24766579
 20
347.12912598
  0
TEXT
  8
2
 10
266.24766579
 20
347.12912598
 40
10.00000000
 50
0.00000000
  1
# 181
  0
POINT
  8
3
 10
280.31952237
 20
346.77432582
  0
POINT
  8
3
 10
294.38896212
 20
346.53673919
  0
POINT
  8
3
 10
308.45598505
 20
346.41636608
  0
POINT
  8
3
 10
322.52059116
 20
346.41320648
  0
POINT
  8
3
 10
336.58278044
 20
346.52726040
  0
POINT
  8
3
 10
350.64255289
 20
346.75852785
  0
POINT
  8
3
 10
364.69996799
 20
347.10701053
  0
POINT
  8
3
 10
378.75496624
 20
347.57270772
  0
POINT
  8
3
 10
392.80754764
 20
348.15561943
  0
POINT
  8
3
 10
406.85771220
 20
348.85574564
  0
POINT
  8
3
 10
420.90545992
 20
349.67308637
  0
POINT
  8
2
 10
434.95079079
 20
350.60764160
  0
TEXT
  8
2
 10
434.95079079
 20
350.60764160
 40
10.00000000
 50
0.00000000
  1
# 182
  0
POINT
  8
3
 10
436.48188203
 20
341.85675703
  0
POINT
  8
3
 10
438.63440393
 20
333.41601152
  0
POINT
  8
3
 10
441.42290247
 20
325.26383007
  0
POINT
  8
3
 10
444.86192360
 20
317.37863770
  0
POINT
  8
3
 10
448.92773128
 20
309.80172296
  0
POINT
  8
3
 10
453.60686432
 20
302.53108743
  0
POINT
  8
3
 10
458.85615396
 20
295.63076023
  0
POINT
  8
3
 10
464.63243141
 20
289.16477051
  0
POINT
  8
3
 10
470.92764089
 20
283.14826898
  0
POINT
  8
3
 10
477.64090603
 20
277.61745858
  0
POINT
  8
3
 10
484.70051980
 20
272.55354144
  0
POINT
  8
3
 10
492.03477516
 20
267.93771973
  0
POINT
  8
3
 10
507.35535602
 20
260.01419624
  0
POINT
  8
3
 10
515.37924223
 20
256.71100346
  0
POINT
  8
2
 10
523.67735329
 20
253.85520020
  0
TEXT
  8
2
 10
523.67735329
 20
253.85520020
 40
10.00000000
 50
0.00000000
  1
# 183
  0
POINT
  8
3
 10
548.08449527
 20
250.39027417
  0
POINT
  8
3
 10
572.57774391
 20
248.40256348
  0
POINT
  8
3
 10
597.20494191
 20
247.92035421
  0
POINT
  8
3
 10
621.85411110
 20
248.75217285
  0
POINT
  8
3
 10
646.42752331
 20
250.69745404
  0
POINT
  8
3
 10
670.86290016
 20
253.76291504
  0
POINT
  8
3
 10
695.11323510
 20
257.99432986
  0
POINT
  8
2
 10
719.18321266
 20
263.38498535
  0
TEXT
  8
2
 10
719.18321266
 20
263.38498535
 40
10.00000000
 50
0.00000000
  1
# 184
  0
POINT
  8
3
 10
724.95439845
 20
247.16386935
  0
POINT
  8
3
 10
731.13340797
 20
231.09689941
  0
POINT
  8
3
 10
737.67123793
 20
215.15640192
  0
POINT
  8
3
 10
744.90586891
 20
199.54758301
  0
POINT
  8
3
 10
753.17157468
 20
184.48259045
  0
POINT
  8
2
 10
762.42247047
 20
169.92648926
  0
TEXT
  8
2
 10
762.42247047
 20
169.92648926
 40
10.00000000
 50
0.00000000
  1
# 185
  0
POINT
  8
3
 10
755.48968060
 20
162.63177971
  0
POINT
  8
3
 10
749.81895485
 20
154.55783691
  0
POINT
  8
3
 10
745.43499638
 20
145.61875959
  0
POINT
  8
3
 10
742.07286110
 20
136.15500488
  0
POINT
  8
3
 10
739.44867871
 20
126.51349299
  0
POINT
  8
3
 10
737.62266579
 20
116.73410645
  0
POINT
  8
3
 10
736.65717661
 20
106.80727991
  0
POINT
  8
3
 10
736.24375954
 20
96.82102051
  0
POINT
  8
2
 10
736.16954079
 20
76.85178223
  0
TEXT
  8
2
 10
736.16954079
 20
76.85178223
 40
10.00000000
 50
0.00000000
  1
# 186
  0
POINT
  8
2
 10
169.96348610
 20
76.85129395
  0
TEXT
  8
2
 10
169.96348610
 20
76.85129395
 40
10.00000000
 50
0.00000000
  1
# 187
  0
POINT
  8
2
 10
123.22618141
 20
86.74582520
  0
TEXT
  8
2
 10
123.22618141
 20
86.74582520
 40
10.00000000
 50
0.00000000
  1
# 188
  0
POINT
  8
2
 10
123.22520485
 20
207.81760254
  0
TEXT
  8
2
 10
123.22520485
 20
207.81760254
 40
10.00000000
 50
0.00000000
  1
# 189
  0
POINT
  8
2
 10
266.22227516
 20
207.81711426
  0
TEXT
  8
2
 10
266.22227516
 20
207.81711426
 40
10.00000000
 50
0.00000000
  1
# 190
  0
POINT
  8
4
 10
266.21836891
 20
210.72971191
 30
7.50000000
 50
449.62327883
  0
TEXT
  8
1
 10
266.21836891
 20
210.72971191
 40
10.00000000
 50
0.00000000
  1
# 191
  0
POINT
  8
4
 10
168.05040016
 20
348.55637207
 30
7.50000000
 50
266.46602465
  0
TEXT
  8
1
 10
168.05040016
 20
348.55637207
 40
10.00000000
 50
0.00000000
  1
# 192
  0
POINT
  8
4
 10
169.96348610
 20
76.85129395
 30
7.50000000
 50
444.02336368
  0
TEXT
  8
1
 10
169.96348610
 20
76.85129395
 40
10.00000000
 50
0.00000000
  1
# 193
  0
POINT
  8
4
 10
266.22227516
 20
207.81711426
 30
7.50000000
 50
270.45009098
  0
TEXT
  8
1
 10
266.22227516
 20
207.81711426
 40
10.00000000
 50
0.00000000
  1
# 194
  0
ENDBLK
  0
BLOCK
  8
1
  2
19
 70
64
 10
0.0
 20
0.0
  0
LINE
  8
7
 10
801.01150330
 20
1827.30553761
 11
841.01150330
 21
1827.30553761
  0
TEXT
  8
1
 10
0.00000000
 20
0.00000000
 40
20.00000000
 50
0.00000000
  1
Size: 46
  0
TEXT
  8
1
 10
821.01150330
 20
1831.05553761
 40
5.00000000
 50
0.00000000
  1
Piece Name: AHAVANA.VIC
  0
TEXT
  8
1
 10
821.01150330
 20
1831.05553761
 40
5.00000000
 50
0.00000000
  1
Quantity: 1
  0
TEXT
  8
1
 10
821.01150330
 20
1831.05553761
 40
5.00000000
 50
0.00000000
  1
Rotation: 0
  0
TEXT
  8
1
 10
821.01150330
 20
1831.05553761
 40
5.00000000
 50
0.00000000
  1
Tilt: 0
  0
TEXT
  8
1
 10
821.01150330
 20
1831.05553761
 40
5.00000000
 50
0.00000000
  1
Fold: N
  0
TEXT
  8
1
 10
821.01150330
 20
1831.05553761
 40
5.00000000
 50
0.00000000
  1
Material: 1
  0
POLYLINE
  8
1
 66
1
 70
1
  0
VERTEX
  8
1
 10
781.00979919
 20
1692.30553761
  0
VERTEX
  8
1
 10
781.00979919
 20
1842.30553761
  0
VERTEX
  8
1
 10
861.00979919
 20
1842.30553761
  0
VERTEX
  8
1
 10
861.00979919
 20
1692.30553761
  0
SEQEND
  0
POLYLINE
  8
84
 66
1
 70
1
  0
VERTEX
  8
84
 10
781.00979919
 20
1692.30553761
  0
VERTEX
  8
84
 10
781.00979919
 20
1842.30553761
  0
VERTEX
  8
84
 10
861.00979919
 20
1842.30553761
  0
VERTEX
  8
84
 10
861.00979919
 20
1692.30553761
  0
SEQEND
  0
POINT
  8
2
 10
781.00979919
 20
1692.30553761
  0
TEXT
  8
2
 10
781.00979919
 20
1692.30553761
 40
10.00000000
 50
0.00000000
  1
# 195
  0
POINT
  8
2
 10
781.00979919
 20
1842.30553761
  0
TEXT
  8
2
 10
781.00979919
 20
1842.30553761
 40
10.00000000
 50
0.00000000
  1
# 196
  0
POINT
  8
2
 10
861.00979919
 20
1842.30553761
  0
TEXT
  8
2
 10
861.00979919
 20
1842.30553761
 40
10.00000000
 50
0.00000000
  1
# 197
  0
POINT
  8
2
 10
861.00979919
 20
1692.30553761
  0
TEXT
  8
2
 10
861.00979919
 20
1692.30553761
 40
10.00000000
 50
0.00000000
  1
# 198
  0
ENDBLK
  0
BLOCK
  8
1
  2
20
 70
64
 10
0.0
 20
0.0
  0
LINE
  8
7
 10
626.51006287
 20
1751.80553761
 11
701.51006287
 21
1751.80553761
  0
TEXT
  8
1
 10
0.00000000
 20
0.00000000
 40
5.00000000
 50
0.00000000
  1
Size: 46
  0
TEXT
  8
1
 10
664.01006287
 20
1755.55553761
 40
5.00000000
 50
0.00000000
  1
Piece Name: AHAVANA.VIF
  0
TEXT
  8
1
 10
664.01006287
 20
1755.55553761
 40
5.00000000
 50
0.00000000
  1
Quantity: 1
  0
TEXT
  8
1
 10
664.01006287
 20
1755.55553761
 40
5.00000000
 50
0.00000000
  1
Rotation: 0
  0
TEXT
  8
1
 10
664.01006287
 20
1755.55553761
 40
5.00000000
 50
0.00000000
  1
Tilt: 0
  0
TEXT
  8
1
 10
664.01006287
 20
1755.55553761
 40
5.00000000
 50
0.00000000
  1
Fold: N
  0
TEXT
  8
1
 10
664.01006287
 20
1755.55553761
 40
5.00000000
 50
0.00000000
  1
Material: 1
  0
POLYLINE
  8
1
 66
1
 70
1
  0
VERTEX
  8
1
 10
589.00979919
 20
1774.30553761
  0
VERTEX
  8
1
 10
739.00979919
 20
1774.30553761
  0
VERTEX
  8
1
 10
739.00979919
 20
1684.30553761
  0
VERTEX
  8
1
 10
589.00979919
 20
1684.30553761
  0
SEQEND
  0
POLYLINE
  8
84
 66
1
 70
1
  0
VERTEX
  8
84
 10
589.00979919
 20
1774.30553761
  0
VERTEX
  8
84
 10
739.00979919
 20
1774.30553761
  0
VERTEX
  8
84
 10
739.00979919
 20
1684.30553761
  0
VERTEX
  8
84
 10
589.00979919
 20
1684.30553761
  0
SEQEND
  0
POINT
  8
2
 10
589.00979919
 20
1774.30553761
  0
TEXT
  8
2
 10
589.00979919
 20
1774.30553761
 40
10.00000000
 50
0.00000000
  1
# 199
  0
POINT
  8
2
 10
739.00979919
 20
1774.30553761
  0
TEXT
  8
2
 10
739.00979919
 20
1774.30553761
 40
10.00000000
 50
0.00000000
  1
# 200
  0
POINT
  8
2
 10
739.00979919
 20
1684.30553761
  0
TEXT
  8
2
 10
739.00979919
 20
1684.30553761
 40
10.00000000
 50
0.00000000
  1
# 201
  0
POINT
  8
2
 10
589.00979919
 20
1684.30553761
  0
TEXT
  8
2
 10
589.00979919
 20
1684.30553761
 40
10.00000000
 50
0.00000000
  1
# 202
  0
ENDBLK
  0
ENDSEC
  0
SECTION
  2
ENTITIES
  0
LINE
  8
9
 10
0.00000000
 20
0.00000000
 11
0.00000000
 21
0.00000000
  0
LINE
  8
10
 10
0.00000000
 20
0.00000000
 11
0.00000000
 21
0.00000000
  0
INSERT
  8
1
  2
1
 10
0.0
 20
0.0
  0
INSERT
  8
1
  2
2
 10
0.0
 20
0.0
  0
INSERT
  8
1
  2
3
 10
0.0
 20
0.0
  0
INSERT
  8
1
  2
4
 10
0.0
 20
0.0
  0
INSERT
  8
1
  2
5
 10
0.0
 20
0.0
  0
INSERT
  8
1
  2
6
 10
0.0
 20
0.0
  0
INSERT
  8
1
  2
7
 10
0.0
 20
0.0
  0
INSERT
  8
1
  2
8
 10
0.0
 20
0.0
  0
INSERT
  8
1
  2
9
 10
0.0
 20
0.0
  0
INSERT
  8
1
  2
10
 10
0.0
 20
0.0
  0
INSERT
  8
1
  2
11
 10
0.0
 20
0.0
  0
INSERT
  8
1
  2
12
 10
0.0
 20
0.0
  0
INSERT
  8
1
  2
13
 10
0.0
 20
0.0
  0
INSERT
  8
1
  2
14
 10
0.0
 20
0.0
  0
INSERT
  8
1
  2
15
 10
0.0
 20
0.0
  0
INSERT
  8
1
  2
16
 10
0.0
 20
0.0
  0
INSERT
  8
1
  2
17
 10
0.0
 20
0.0
  0
INSERT
  8
1
  2
18
 10
0.0
 20
0.0
  0
INSERT
  8
1
  2
19
 10
0.0
 20
0.0
  0
INSERT
  8
1
  2
20
 10
0.0
 20
0.0
  0
TEXT
  8
1
 10
0.00000000
 20
0.00000000
 40
10.00000000
 50
0.00000000
  1
Style Name: ASTM D 6673
  0
TEXT
  8
1
 10
0.00000000
 20
0.00000000
 40
10.00000000
 50
0.00000000
  1
Grade Rule Table: HAVANA
  0
TEXT
  8
1
 10
0.00000000
 20
0.00000000
 40
10.00000000
 50
0.00000000
  1
Sample Size: 46
  0
TEXT
  8
1
 10
0.00000000
 20
0.00000000
 40
10.00000000
 50
0.00000000
  1
Units: METRIC
  0
TEXT
  8
1
 10
0.00000000
 20
0.00000000
 40
10.00000000
 50
0.00000000
  1
Creation Date: 12-1-2025
  0
TEXT
  8
1
 10
0.00000000
 20
0.00000000
 40
10.00000000
 50
0.00000000
  1
Creation Time: 20:58
  0
TEXT
  8
1
 10
0.00000000
 20
0.00000000
 40
10.00000000
 50
0.00000000
  1
Author: Audaces; Audaces Vesturio 2015
  0
TEXT
  8
1
 10
0.00000000
 20
0.00000000
 40
10.00000000
 50
0.00000000
  1
Curve Tolerance: 0.025
  0
TEXT
  8
1
 10
0.00000000
 20
0.00000000
 40
10.00000000
 50
0.00000000
  1
ASTM/PDE: 1
  0
ENDSEC
  0
EOF
