  0
SECTION
  2
BLOCKS
  0
BLOCK
  8
1
  2
1
 70
64
 10
0.0
 20
0.0
  0
LINE
  8
7
 10
1763.70971299
 20
342.72789602
 11
2321.36986924
 21
342.72789602
  0
TEXT
  8
1
 10
0.00000000
 20
0.00000000
 40
10.00000000
 50
0.00000000
  1
Size: 42
  0
TEXT
  8
1
 10
2042.53979111
 20
357.72789602
 40
20.00000000
 50
0.00000000
  1
Piece Name: BKALU2P.F
  0
TEXT
  8
1
 10
2042.53979111
 20
357.72789602
 40
20.00000000
 50
0.00000000
  1
Quantity: 1
  0
TEXT
  8
1
 10
2042.53979111
 20
357.72789602
 40
20.00000000
 50
0.00000000
  1
Rotation: 0
  0
TEXT
  8
1
 10
2042.53979111
 20
357.72789602
 40
20.00000000
 50
0.00000000
  1
Tilt: 0
  0
TEXT
  8
1
 10
2042.53979111
 20
357.72789602
 40
20.00000000
 50
0.00000000
  1
Fold: N
  0
TEXT
  8
1
 10
2042.53979111
 20
357.72789602
 40
20.00000000
 50
0.00000000
  1
Material: 1
  0
POLYLINE
  8
1
 66
1
 70
1
  0
VERTEX
  8
1
 10
1489.39804688
 20
273.98421926
  0
VERTEX
  8
1
 10
1489.39804688
 20
470.62875051
  0
VERTEX
  8
1
 10
1539.39804688
 20
467.62875051
  0
VERTEX
  8
1
 10
2019.85117188
 20
484.20296926
  0
VERTEX
  8
1
 10
2043.07864934
 20
486.49225719
  0
VERTEX
  8
1
 10
2066.29286260
 20
488.89545879
  0
VERTEX
  8
1
 10
2089.49472659
 20
491.40724961
  0
VERTEX
  8
1
 10
2112.68515625
 20
494.02230520
  0
VERTEX
  8
1
 10
2135.85670878
 20
496.73792555
  0
VERTEX
  8
1
 10
2159.01500567
 20
499.56738520
  0
VERTEX
  8
1
 10
2182.15730363
 20
502.52664860
  0
VERTEX
  8
1
 10
2205.28085938
 20
505.63168020
  0
VERTEX
  8
1
 10
2228.36536000
 20
508.89413920
  0
VERTEX
  8
1
 10
2251.42564331
 20
512.32348467
  0
VERTEX
  8
1
 10
2274.45894480
 20
515.92511638
  0
VERTEX
  8
1
 10
2297.46250000
 20
519.70443411
  0
VERTEX
  8
1
 10
2320.40361325
 20
523.66024536
  0
VERTEX
  8
1
 10
2343.31322162
 20
527.79685956
  0
VERTEX
  8
1
 10
2366.19224457
 20
532.11248075
  0
VERTEX
  8
1
 10
2389.04160156
 20
536.60531301
  0
VERTEX
  8
1
 10
2393.34873274
 20
528.97012621
  0
VERTEX
  8
1
 10
2398.35214844
 20
521.83773489
  0
VERTEX
  8
1
 10
2404.02008178
 20
515.13818020
  0
VERTEX
  8
1
 10
2410.56601563
 20
509.36996145
  0
VERTEX
  8
1
 10
2417.99593884
 20
505.07017414
  0
VERTEX
  8
1
 10
2426.03671875
 20
501.94418020
  0
VERTEX
  8
1
 10
2434.55869839
 20
499.66529807
  0
VERTEX
  8
1
 10
2443.37265625
 20
498.38656301
  0
VERTEX
  8
1
 10
2456.35128002
 20
496.98532652
  0
VERTEX
  8
1
 10
2469.33955124
 20
495.73504442
  0
VERTEX
  8
1
 10
2482.33900388
 20
494.65976478
  0
VERTEX
  8
1
 10
2495.35117188
 20
493.78353567
  0
VERTEX
  8
1
 10
2508.46760208
 20
493.11042696
  0
VERTEX
  8
1
 10
2521.59382578
 20
492.59055816
  0
VERTEX
  8
1
 10
2547.85703125
 20
491.71859426
  0
VERTEX
  8
1
 10
2600.18710938
 20
489.64828176
  0
VERTEX
  8
1
 10
2597.96835938
 20
450.28890676
  0
VERTEX
  8
1
 10
2596.15097656
 20
410.91097708
  0
VERTEX
  8
1
 10
2595.88805567
 20
391.20700625
  0
VERTEX
  8
1
 10
2596.10117188
 20
371.49203176
  0
VERTEX
  8
1
 10
2595.08359375
 20
348.99203176
  0
VERTEX
  8
1
 10
2595.06601563
 20
326.49252005
  0
VERTEX
  8
1
 10
2595.19687500
 20
296.49300833
  0
VERTEX
  8
1
 10
2595.68027344
 20
281.50082083
  0
VERTEX
  8
1
 10
2596.16367188
 20
266.50912161
  0
VERTEX
  8
1
 10
2596.55581843
 20
259.51343235
  0
VERTEX
  8
1
 10
2597.52890974
 20
245.53690933
  0
VERTEX
  8
1
 10
2598.75373483
 20
231.58016410
  0
VERTEX
  8
1
 10
2599.46054688
 20
224.60921926
  0
VERTEX
  8
1
 10
2600.31085851
 20
217.85933431
  0
VERTEX
  8
1
 10
2602.22335108
 20
204.39235120
  0
VERTEX
  8
1
 10
2603.84679194
 20
194.29898485
  0
VERTEX
  8
1
 10
2604.71835938
 20
189.26156301
  0
VERTEX
  8
1
 10
2411.00449219
 20
184.10091848
  0
VERTEX
  8
1
 10
2412.93515625
 20
188.98128958
  0
VERTEX
  8
1
 10
2282.47421875
 20
213.07210989
  0
VERTEX
  8
1
 10
2217.24027488
 20
225.13305988
  0
VERTEX
  8
1
 10
2184.59048820
 20
230.96437255
  0
VERTEX
  8
1
 10
2168.24929160
 20
233.77865485
  0
VERTEX
  8
1
 10
2151.89414063
 20
236.50570364
  0
VERTEX
  8
1
 10
2135.52354547
 20
239.13400711
  0
VERTEX
  8
1
 10
2119.13745376
 20
241.66525536
  0
VERTEX
  8
1
 10
2102.73663684
 20
244.10436093
  0
VERTEX
  8
1
 10
2086.32186608
 20
246.45623637
  0
VERTEX
  8
1
 10
2069.89391284
 20
248.72579425
  0
VERTEX
  8
1
 10
2053.45354848
 20
250.91794712
  0
VERTEX
  8
1
 10
2020.53867188
 20
255.08968801
  0
VERTEX
  8
1
 10
1539.39804688
 20
276.98421926
  0
SEQEND
  0
POLYLINE
  8
84
 66
1
 70
1
  0
VERTEX
  8
84
 10
1489.39804688
 20
273.98421926
  0
VERTEX
  8
84
 10
1489.39804688
 20
470.62875051
  0
VERTEX
  8
84
 10
1539.39804688
 20
467.62875051
  0
VERTEX
  8
84
 10
2019.85117188
 20
484.20296926
  0
VERTEX
  8
84
 10
2043.07864934
 20
486.49225719
  0
VERTEX
  8
84
 10
2066.29286260
 20
488.89545879
  0
VERTEX
  8
84
 10
2089.49472659
 20
491.40724961
  0
VERTEX
  8
84
 10
2112.68515625
 20
494.02230520
  0
VERTEX
  8
84
 10
2135.85670878
 20
496.73792555
  0
VERTEX
  8
84
 10
2159.01500567
 20
499.56738520
  0
VERTEX
  8
84
 10
2182.15730363
 20
502.52664860
  0
VERTEX
  8
84
 10
2205.28085938
 20
505.63168020
  0
VERTEX
  8
84
 10
2228.36536000
 20
508.89413920
  0
VERTEX
  8
84
 10
2251.42564331
 20
512.32348467
  0
VERTEX
  8
84
 10
2274.45894480
 20
515.92511638
  0
VERTEX
  8
84
 10
2297.46250000
 20
519.70443411
  0
VERTEX
  8
84
 10
2320.40361325
 20
523.66024536
  0
VERTEX
  8
84
 10
2343.31322162
 20
527.79685956
  0
VERTEX
  8
84
 10
2366.19224457
 20
532.11248075
  0
VERTEX
  8
84
 10
2389.04160156
 20
536.60531301
  0
VERTEX
  8
84
 10
2393.34873274
 20
528.97012621
  0
VERTEX
  8
84
 10
2398.35214844
 20
521.83773489
  0
VERTEX
  8
84
 10
2404.02008178
 20
515.13818020
  0
VERTEX
  8
84
 10
2410.56601563
 20
509.36996145
  0
VERTEX
  8
84
 10
2417.99593884
 20
505.07017414
  0
VERTEX
  8
84
 10
2426.03671875
 20
501.94418020
  0
VERTEX
  8
84
 10
2434.55869839
 20
499.66529807
  0
VERTEX
  8
84
 10
2443.37265625
 20
498.38656301
  0
VERTEX
  8
84
 10
2456.35128002
 20
496.98532652
  0
VERTEX
  8
84
 10
2469.33955124
 20
495.73504442
  0
VERTEX
  8
84
 10
2482.33900388
 20
494.65976478
  0
VERTEX
  8
84
 10
2495.35117188
 20
493.78353567
  0
VERTEX
  8
84
 10
2508.46760208
 20
493.11042696
  0
VERTEX
  8
84
 10
2521.59382578
 20
492.59055816
  0
VERTEX
  8
84
 10
2547.85703125
 20
491.71859426
  0
VERTEX
  8
84
 10
2600.18710938
 20
489.64828176
  0
VERTEX
  8
84
 10
2597.96835938
 20
450.28890676
  0
VERTEX
  8
84
 10
2596.15097656
 20
410.91097708
  0
VERTEX
  8
84
 10
2595.88805567
 20
391.20700625
  0
VERTEX
  8
84
 10
2596.10117188
 20
371.49203176
  0
VERTEX
  8
84
 10
2595.08359375
 20
348.99203176
  0
VERTEX
  8
84
 10
2595.06601563
 20
326.49252005
  0
VERTEX
  8
84
 10
2595.19687500
 20
296.49300833
  0
VERTEX
  8
84
 10
2595.68027344
 20
281.50082083
  0
VERTEX
  8
84
 10
2596.16367188
 20
266.50912161
  0
VERTEX
  8
84
 10
2596.55581843
 20
259.51343235
  0
VERTEX
  8
84
 10
2597.52890974
 20
245.53690933
  0
VERTEX
  8
84
 10
2598.75373483
 20
231.58016410
  0
VERTEX
  8
84
 10
2599.46054688
 20
224.60921926
  0
VERTEX
  8
84
 10
2600.31085851
 20
217.85933431
  0
VERTEX
  8
84
 10
2602.22335108
 20
204.39235120
  0
VERTEX
  8
84
 10
2603.84679194
 20
194.29898485
  0
VERTEX
  8
84
 10
2604.71835938
 20
189.26156301
  0
VERTEX
  8
84
 10
2411.00449219
 20
184.10091848
  0
VERTEX
  8
84
 10
2412.93515625
 20
188.98128958
  0
VERTEX
  8
84
 10
2282.47421875
 20
213.07210989
  0
VERTEX
  8
84
 10
2217.24027488
 20
225.13305988
  0
VERTEX
  8
84
 10
2184.59048820
 20
230.96437255
  0
VERTEX
  8
84
 10
2168.24929160
 20
233.77865485
  0
VERTEX
  8
84
 10
2151.89414063
 20
236.50570364
  0
VERTEX
  8
84
 10
2135.52354547
 20
239.13400711
  0
VERTEX
  8
84
 10
2119.13745376
 20
241.66525536
  0
VERTEX
  8
84
 10
2102.73663684
 20
244.10436093
  0
VERTEX
  8
84
 10
2086.32186608
 20
246.45623637
  0
VERTEX
  8
84
 10
2069.89391284
 20
248.72579425
  0
VERTEX
  8
84
 10
2053.45354848
 20
250.91794712
  0
VERTEX
  8
84
 10
2020.53867188
 20
255.08968801
  0
VERTEX
  8
84
 10
1539.39804688
 20
276.98421926
  0
SEQEND
  0
POINT
  8
2
 10
1489.39804688
 20
273.98421926
  0
TEXT
  8
2
 10
1489.39804688
 20
273.98421926
 40
10.00000000
 50
0.00000000
  1
# 1
  0
POINT
  8
2
 10
1489.39804688
 20
470.62875051
  0
TEXT
  8
2
 10
1489.39804688
 20
470.62875051
 40
10.00000000
 50
0.00000000
  1
# 2
  0
POINT
  8
2
 10
1539.39804688
 20
467.62875051
  0
TEXT
  8
2
 10
1539.39804688
 20
467.62875051
 40
10.00000000
 50
0.00000000
  1
# 3
  0
POINT
  8
2
 10
2019.85117188
 20
484.20296926
  0
TEXT
  8
2
 10
2019.85117188
 20
484.20296926
 40
10.00000000
 50
0.00000000
  1
# 4
  0
POINT
  8
3
 10
2043.07864934
 20
486.49225719
  0
POINT
  8
3
 10
2066.29286260
 20
488.89545879
  0
POINT
  8
3
 10
2089.49472659
 20
491.40724961
  0
POINT
  8
3
 10
2112.68515625
 20
494.02230520
  0
POINT
  8
3
 10
2135.85670878
 20
496.73792555
  0
POINT
  8
3
 10
2159.01500567
 20
499.56738520
  0
POINT
  8
3
 10
2182.15730363
 20
502.52664860
  0
POINT
  8
3
 10
2205.28085938
 20
505.63168020
  0
POINT
  8
3
 10
2228.36536000
 20
508.89413920
  0
POINT
  8
3
 10
2251.42564331
 20
512.32348467
  0
POINT
  8
3
 10
2274.45894480
 20
515.92511638
  0
POINT
  8
3
 10
2297.46250000
 20
519.70443411
  0
POINT
  8
3
 10
2320.40361325
 20
523.66024536
  0
POINT
  8
3
 10
2343.31322162
 20
527.79685956
  0
POINT
  8
3
 10
2366.19224457
 20
532.11248075
  0
POINT
  8
2
 10
2389.04160156
 20
536.60531301
  0
TEXT
  8
2
 10
2389.04160156
 20
536.60531301
 40
10.00000000
 50
0.00000000
  1
# 5
  0
POINT
  8
3
 10
2393.34873274
 20
528.97012621
  0
POINT
  8
3
 10
2398.35214844
 20
521.83773489
  0
POINT
  8
3
 10
2404.02008178
 20
515.13818020
  0
POINT
  8
3
 10
2410.56601563
 20
509.36996145
  0
POINT
  8
3
 10
2417.99593884
 20
505.07017414
  0
POINT
  8
3
 10
2426.03671875
 20
501.94418020
  0
POINT
  8
3
 10
2434.55869839
 20
499.66529807
  0
POINT
  8
2
 10
2443.37265625
 20
498.38656301
  0
TEXT
  8
2
 10
2443.37265625
 20
498.38656301
 40
10.00000000
 50
0.00000000
  1
# 6
  0
POINT
  8
3
 10
2456.35128002
 20
496.98532652
  0
POINT
  8
3
 10
2469.33955124
 20
495.73504442
  0
POINT
  8
3
 10
2482.33900388
 20
494.65976478
  0
POINT
  8
3
 10
2495.35117188
 20
493.78353567
  0
POINT
  8
3
 10
2508.46760208
 20
493.11042696
  0
POINT
  8
3
 10
2521.59382578
 20
492.59055816
  0
POINT
  8
3
 10
2547.85703125
 20
491.71859426
  0
POINT
  8
2
 10
2600.18710938
 20
489.64828176
  0
TEXT
  8
2
 10
2600.18710938
 20
489.64828176
 40
10.00000000
 50
0.00000000
  1
# 7
  0
POINT
  8
3
 10
2597.96835938
 20
450.28890676
  0
POINT
  8
3
 10
2596.15097656
 20
410.91097708
  0
POINT
  8
3
 10
2595.88805567
 20
391.20700625
  0
POINT
  8
2
 10
2596.10117188
 20
371.49203176
  0
TEXT
  8
2
 10
2596.10117188
 20
371.49203176
 40
10.00000000
 50
0.00000000
  1
# 8
  0
POINT
  8
2
 10
2595.08359375
 20
348.99203176
  0
TEXT
  8
2
 10
2595.08359375
 20
348.99203176
 40
10.00000000
 50
0.00000000
  1
# 9
  0
POINT
  8
2
 10
2595.06601563
 20
326.49252005
  0
TEXT
  8
2
 10
2595.06601563
 20
326.49252005
 40
10.00000000
 50
0.00000000
  1
# 10
  0
POINT
  8
2
 10
2595.19687500
 20
296.49300833
  0
TEXT
  8
2
 10
2595.19687500
 20
296.49300833
 40
10.00000000
 50
0.00000000
  1
# 11
  0
POINT
  8
2
 10
2595.68027344
 20
281.50082083
  0
TEXT
  8
2
 10
2595.68027344
 20
281.50082083
 40
10.00000000
 50
0.00000000
  1
# 12
  0
POINT
  8
2
 10
2596.16367188
 20
266.50912161
  0
TEXT
  8
2
 10
2596.16367188
 20
266.50912161
 40
10.00000000
 50
0.00000000
  1
# 13
  0
POINT
  8
3
 10
2596.55581843
 20
259.51343235
  0
POINT
  8
3
 10
2597.52890974
 20
245.53690933
  0
POINT
  8
3
 10
2598.75373483
 20
231.58016410
  0
POINT
  8
2
 10
2599.46054688
 20
224.60921926
  0
TEXT
  8
2
 10
2599.46054688
 20
224.60921926
 40
10.00000000
 50
0.00000000
  1
# 14
  0
POINT
  8
3
 10
2600.31085851
 20
217.85933431
  0
POINT
  8
3
 10
2602.22335108
 20
204.39235120
  0
POINT
  8
3
 10
2603.84679194
 20
194.29898485
  0
POINT
  8
2
 10
2604.71835938
 20
189.26156301
  0
TEXT
  8
2
 10
2604.71835938
 20
189.26156301
 40
10.00000000
 50
0.00000000
  1
# 15
  0
POINT
  8
2
 10
2411.00449219
 20
184.10091848
  0
TEXT
  8
2
 10
2411.00449219
 20
184.10091848
 40
10.00000000
 50
0.00000000
  1
# 16
  0
POINT
  8
2
 10
2412.93515625
 20
188.98128958
  0
TEXT
  8
2
 10
2412.93515625
 20
188.98128958
 40
10.00000000
 50
0.00000000
  1
# 17
  0
POINT
  8
3
 10
2282.47421875
 20
213.07210989
  0
POINT
  8
3
 10
2217.24027488
 20
225.13305988
  0
POINT
  8
3
 10
2184.59048820
 20
230.96437255
  0
POINT
  8
3
 10
2168.24929160
 20
233.77865485
  0
POINT
  8
3
 10
2151.89414063
 20
236.50570364
  0
POINT
  8
3
 10
2135.52354547
 20
239.13400711
  0
POINT
  8
3
 10
2119.13745376
 20
241.66525536
  0
POINT
  8
3
 10
2102.73663684
 20
244.10436093
  0
POINT
  8
3
 10
2086.32186608
 20
246.45623637
  0
POINT
  8
3
 10
2069.89391284
 20
248.72579425
  0
POINT
  8
3
 10
2053.45354848
 20
250.91794712
  0
POINT
  8
2
 10
2020.53867188
 20
255.08968801
  0
TEXT
  8
2
 10
2020.53867188
 20
255.08968801
 40
10.00000000
 50
0.00000000
  1
# 18
  0
POINT
  8
2
 10
1539.39804688
 20
276.98421926
  0
TEXT
  8
2
 10
1539.39804688
 20
276.98421926
 40
10.00000000
 50
0.00000000
  1
# 19
  0
POINT
  8
4
 10
2019.85117188
 20
484.20296926
 30
7.50000000
 50
273.80230742
  0
TEXT
  8
1
 10
2019.85117188
 20
484.20296926
 40
10.00000000
 50
0.00000000
  1
# 20
  0
POINT
  8
4
 10
2443.37265625
 20
498.38656301
 30
7.50000000
 50
262.79150876
  0
TEXT
  8
1
 10
2443.37265625
 20
498.38656301
 40
10.00000000
 50
0.00000000
  1
# 21
  0
POINT
  8
4
 10
2596.10117188
 20
371.49203176
 30
7.50000000
 50
179.01492929
  0
TEXT
  8
1
 10
2596.10117188
 20
371.49203176
 40
10.00000000
 50
0.00000000
  1
# 22
  0
POINT
  8
4
 10
2595.06601563
 20
326.49252005
 30
7.50000000
 50
180.10258109
  0
TEXT
  8
1
 10
2595.06601563
 20
326.49252005
 40
10.00000000
 50
0.00000000
  1
# 23
  0
POINT
  8
4
 10
2595.19687500
 20
296.49300833
 30
7.50000000
 50
181.04834694
  0
TEXT
  8
1
 10
2595.19687500
 20
296.49300833
 40
10.00000000
 50
0.00000000
  1
# 24
  0
POINT
  8
4
 10
2596.16367188
 20
266.50912161
 30
7.50000000
 50
182.52760596
  0
TEXT
  8
1
 10
2596.16367188
 20
266.50912161
 40
10.00000000
 50
0.00000000
  1
# 25
  0
POINT
  8
4
 10
2599.46054688
 20
224.60921926
 30
5.09901951
 50
191.30993247
  0
TEXT
  8
1
 10
2599.46054688
 20
224.60921926
 40
10.00000000
 50
0.00000000
  1
# 26
  0
POINT
  8
4
 10
2412.93515625
 20
188.98128958
 30
8.38152731
 50
432.64597536
  0
TEXT
  8
1
 10
2412.93515625
 20
188.98128958
 40
10.00000000
 50
0.00000000
  1
# 27
  0
POINT
  8
4
 10
2020.53867188
 20
255.08968801
 30
7.50000000
 50
445.08559116
  0
TEXT
  8
1
 10
2020.53867188
 20
255.08968801
 40
10.00000000
 50
0.00000000
  1
# 28
  0
ENDBLK
  0
BLOCK
  8
1
  2
2
 70
64
 10
0.0
 20
0.0
  0
LINE
  8
7
 10
466.41181526
 20
1126.25620601
 11
1046.21210823
 21
1126.25620601
  0
TEXT
  8
1
 10
0.00000000
 20
0.00000000
 40
20.00000000
 50
0.00000000
  1
Size: 42
  0
TEXT
  8
1
 10
756.31196174
 20
1141.25620601
 40
20.00000000
 50
0.00000000
  1
Piece Name: BKALU2P.T
  0
TEXT
  8
1
 10
756.31196174
 20
1141.25620601
 40
20.00000000
 50
0.00000000
  1
Quantity: 1
  0
TEXT
  8
1
 10
756.31196174
 20
1141.25620601
 40
20.00000000
 50
0.00000000
  1
Rotation: 0
  0
TEXT
  8
1
 10
756.31196174
 20
1141.25620601
 40
20.00000000
 50
0.00000000
  1
Tilt: 0
  0
TEXT
  8
1
 10
756.31196174
 20
1141.25620601
 40
20.00000000
 50
0.00000000
  1
Fold: N
  0
TEXT
  8
1
 10
756.31196174
 20
1141.25620601
 40
20.00000000
 50
0.00000000
  1
Material: 1
  0
POLYLINE
  8
1
 66
1
 70
1
  0
VERTEX
  8
1
 10
207.04399414
 20
1261.89973628
  0
VERTEX
  8
1
 10
257.04594727
 20
1258.82161128
  0
VERTEX
  8
1
 10
738.18364258
 20
1279.79133784
  0
VERTEX
  8
1
 10
762.32633185
 20
1281.17388723
  0
VERTEX
  8
1
 10
786.44936432
 20
1282.77100552
  0
VERTEX
  8
1
 10
834.67583008
 20
1286.36458003
  0
VERTEX
  8
1
 10
858.74760980
 20
1288.27595790
  0
VERTEX
  8
1
 10
882.79978740
 20
1290.40122191
  0
VERTEX
  8
1
 10
906.80292580
 20
1292.92308197
  0
VERTEX
  8
1
 10
930.72758789
 20
1296.02424800
  0
VERTEX
  8
1
 10
954.54192240
 20
1299.83075446
  0
VERTEX
  8
1
 10
978.26161106
 20
1304.25144721
  0
VERTEX
  8
1
 10
1001.89983501
 20
1309.13910675
  0
VERTEX
  8
1
 10
1025.46977539
 20
1314.34651363
  0
VERTEX
  8
1
 10
1049.00770871
 20
1319.76526378
  0
VERTEX
  8
1
 10
1072.48601556
 20
1325.40608821
  0
VERTEX
  8
1
 10
1095.90029413
 20
1331.31815074
  0
VERTEX
  8
1
 10
1119.24614258
 20
1337.55061519
  0
VERTEX
  8
1
 10
1135.65864484
 20
1341.20590970
  0
VERTEX
  8
1
 10
1152.12129194
 20
1344.50530170
  0
VERTEX
  8
1
 10
1168.63928427
 20
1347.43172056
  0
VERTEX
  8
1
 10
1185.21782227
 20
1349.96809566
  0
VERTEX
  8
1
 10
1201.86009898
 20
1352.10890686
  0
VERTEX
  8
1
 10
1218.55252977
 20
1353.89375174
  0
VERTEX
  8
1
 10
1235.27951110
 20
1355.37384963
  0
VERTEX
  8
1
 10
1252.02543945
 20
1356.60041988
  0
VERTEX
  8
1
 10
1268.77914794
 20
1357.61335238
  0
VERTEX
  8
1
 10
1285.54140200
 20
1358.40687842
  0
VERTEX
  8
1
 10
1302.31740330
 20
1358.96392323
  0
VERTEX
  8
1
 10
1319.11235352
 20
1359.26741206
  0
VERTEX
  8
1
 10
1320.76504095
 20
1340.99558604
  0
VERTEX
  8
1
 10
1322.74779686
 20
1322.76879842
  0
VERTEX
  8
1
 10
1325.06062123
 20
1304.58704920
  0
VERTEX
  8
1
 10
1327.70352375
 20
1286.45027597
  0
VERTEX
  8
1
 10
1330.67649701
 20
1268.35854146
  0
VERTEX
  8
1
 10
1333.97954102
 20
1250.31184566
  0
VERTEX
  8
1
 10
1338.15336914
 20
1241.46614253
  0
VERTEX
  8
1
 10
1337.51469727
 20
1230.98030269
  0
VERTEX
  8
1
 10
1340.95295721
 20
1211.57849930
  0
VERTEX
  8
1
 10
1347.93071348
 20
1172.79328772
  0
VERTEX
  8
1
 10
1355.04345200
 20
1134.03260087
  0
VERTEX
  8
1
 10
1358.65043945
 20
1114.66145503
  0
VERTEX
  8
1
 10
1366.64067383
 20
1080.00520503
  0
VERTEX
  8
1
 10
1331.29287885
 20
1073.54522286
  0
VERTEX
  8
1
 10
1313.59807112
 20
1070.43842055
  0
VERTEX
  8
1
 10
1295.88188477
 20
1067.45637691
  0
VERTEX
  8
1
 10
1224.92387695
 20
1056.05012691
  0
VERTEX
  8
1
 10
1207.24309372
 20
1052.89304933
  0
VERTEX
  8
1
 10
1189.59670713
 20
1049.54105910
  0
VERTEX
  8
1
 10
1171.97913982
 20
1046.02612231
  0
VERTEX
  8
1
 10
1154.38481445
 20
1042.38020503
  0
VERTEX
  8
1
 10
1146.54373604
 20
1040.40857273
  0
VERTEX
  8
1
 10
1139.32968205
 20
1037.69580213
  0
VERTEX
  8
1
 10
1132.69177825
 20
1034.19559431
  0
VERTEX
  8
1
 10
1126.57915039
 20
1029.86165034
  0
VERTEX
  8
1
 10
1121.06628591
 20
1024.77418325
  0
VERTEX
  8
1
 10
1116.16006573
 20
1018.97145363
  0
VERTEX
  8
1
 10
1112.00879805
 20
1012.58843175
  0
VERTEX
  8
1
 10
1108.76079102
 20
1005.76008784
  0
VERTEX
  8
1
 10
1106.45691336
 20
998.43358802
  0
VERTEX
  8
1
 10
1105.01114119
 20
990.87758302
  0
VERTEX
  8
1
 10
1103.70903320
 20
975.46272456
  0
VERTEX
  8
1
 10
1103.32269806
 20
960.16914185
  0
VERTEX
  8
1
 10
1104.06352539
 20
944.85725581
  0
VERTEX
  8
1
 10
1097.51567383
 20
935.61067378
  0
VERTEX
  8
1
 10
1076.55232644
 20
946.92347561
  0
VERTEX
  8
1
 10
1055.22935586
 20
957.13265925
  0
VERTEX
  8
1
 10
1033.51048177
 20
966.17484430
  0
VERTEX
  8
1
 10
1011.35942383
 20
973.98665034
  0
VERTEX
  8
1
 10
989.12306897
 20
980.45341491
  0
VERTEX
  8
1
 10
966.53888121
 20
985.85200075
  0
VERTEX
  8
1
 10
943.71286515
 20
990.36759400
  0
VERTEX
  8
1
 10
920.75102539
 20
994.18538081
  0
VERTEX
  8
1
 10
897.73283831
 20
997.47253261
  0
VERTEX
  8
1
 10
874.68577032
 20
1000.31666564
  0
VERTEX
  8
1
 10
851.61078300
 20
1002.78778321
  0
VERTEX
  8
1
 10
828.50883789
 20
1004.95588863
  0
VERTEX
  8
1
 10
805.38285460
 20
1006.87525994
  0
VERTEX
  8
1
 10
782.23055949
 20
1008.53833536
  0
VERTEX
  8
1
 10
759.05163210
 20
1009.92178409
  0
VERTEX
  8
1
 10
735.84575195
 20
1011.00227534
  0
VERTEX
  8
1
 10
257.04204102
 20
1028.25715816
  0
VERTEX
  8
1
 10
207.04008789
 20
1025.25032222
  0
SEQEND
  0
POLYLINE
  8
84
 66
1
 70
1
  0
VERTEX
  8
84
 10
207.04399414
 20
1261.89973628
  0
VERTEX
  8
84
 10
257.04594727
 20
1258.82161128
  0
VERTEX
  8
84
 10
738.18364258
 20
1279.79133784
  0
VERTEX
  8
84
 10
762.32633185
 20
1281.17388723
  0
VERTEX
  8
84
 10
786.44936432
 20
1282.77100552
  0
VERTEX
  8
84
 10
834.67583008
 20
1286.36458003
  0
VERTEX
  8
84
 10
858.74760980
 20
1288.27595790
  0
VERTEX
  8
84
 10
882.79978740
 20
1290.40122191
  0
VERTEX
  8
84
 10
906.80292580
 20
1292.92308197
  0
VERTEX
  8
84
 10
930.72758789
 20
1296.02424800
  0
VERTEX
  8
84
 10
954.54192240
 20
1299.83075446
  0
VERTEX
  8
84
 10
978.26161106
 20
1304.25144721
  0
VERTEX
  8
84
 10
1001.89983501
 20
1309.13910675
  0
VERTEX
  8
84
 10
1025.46977539
 20
1314.34651363
  0
VERTEX
  8
84
 10
1049.00770871
 20
1319.76526378
  0
VERTEX
  8
84
 10
1072.48601556
 20
1325.40608821
  0
VERTEX
  8
84
 10
1095.90029413
 20
1331.31815074
  0
VERTEX
  8
84
 10
1119.24614258
 20
1337.55061519
  0
VERTEX
  8
84
 10
1135.65864484
 20
1341.20590970
  0
VERTEX
  8
84
 10
1152.12129194
 20
1344.50530170
  0
VERTEX
  8
84
 10
1168.63928427
 20
1347.43172056
  0
VERTEX
  8
84
 10
1185.21782227
 20
1349.96809566
  0
VERTEX
  8
84
 10
1201.86009898
 20
1352.10890686
  0
VERTEX
  8
84
 10
1218.55252977
 20
1353.89375174
  0
VERTEX
  8
84
 10
1235.27951110
 20
1355.37384963
  0
VERTEX
  8
84
 10
1252.02543945
 20
1356.60041988
  0
VERTEX
  8
84
 10
1268.77914794
 20
1357.61335238
  0
VERTEX
  8
84
 10
1285.54140200
 20
1358.40687842
  0
VERTEX
  8
84
 10
1302.31740330
 20
1358.96392323
  0
VERTEX
  8
84
 10
1319.11235352
 20
1359.26741206
  0
VERTEX
  8
84
 10
1320.76504095
 20
1340.99558604
  0
VERTEX
  8
84
 10
1322.74779686
 20
1322.76879842
  0
VERTEX
  8
84
 10
1325.06062123
 20
1304.58704920
  0
VERTEX
  8
84
 10
1327.70352375
 20
1286.45027597
  0
VERTEX
  8
84
 10
1330.67649701
 20
1268.35854146
  0
VERTEX
  8
84
 10
1333.97954102
 20
1250.31184566
  0
VERTEX
  8
84
 10
1338.15336914
 20
1241.46614253
  0
VERTEX
  8
84
 10
1337.51469727
 20
1230.98030269
  0
VERTEX
  8
84
 10
1340.95295721
 20
1211.57849930
  0
VERTEX
  8
84
 10
1347.93071348
 20
1172.79328772
  0
VERTEX
  8
84
 10
1355.04345200
 20
1134.03260087
  0
VERTEX
  8
84
 10
1358.65043945
 20
1114.66145503
  0
VERTEX
  8
84
 10
1366.64067383
 20
1080.00520503
  0
VERTEX
  8
84
 10
1331.29287885
 20
1073.54522286
  0
VERTEX
  8
84
 10
1313.59807112
 20
1070.43842055
  0
VERTEX
  8
84
 10
1295.88188477
 20
1067.45637691
  0
VERTEX
  8
84
 10
1224.92387695
 20
1056.05012691
  0
VERTEX
  8
84
 10
1207.24309372
 20
1052.89304933
  0
VERTEX
  8
84
 10
1189.59670713
 20
1049.54105910
  0
VERTEX
  8
84
 10
1171.97913982
 20
1046.02612231
  0
VERTEX
  8
84
 10
1154.38481445
 20
1042.38020503
  0
VERTEX
  8
84
 10
1146.54373604
 20
1040.40857273
  0
VERTEX
  8
84
 10
1139.32968205
 20
1037.69580213
  0
VERTEX
  8
84
 10
1132.69177825
 20
1034.19559431
  0
VERTEX
  8
84
 10
1126.57915039
 20
1029.86165034
  0
VERTEX
  8
84
 10
1121.06628591
 20
1024.77418325
  0
VERTEX
  8
84
 10
1116.16006573
 20
1018.97145363
  0
VERTEX
  8
84
 10
1112.00879805
 20
1012.58843175
  0
VERTEX
  8
84
 10
1108.76079102
 20
1005.76008784
  0
VERTEX
  8
84
 10
1106.45691336
 20
998.43358802
  0
VERTEX
  8
84
 10
1105.01114119
 20
990.87758302
  0
VERTEX
  8
84
 10
1103.70903320
 20
975.46272456
  0
VERTEX
  8
84
 10
1103.32269806
 20
960.16914185
  0
VERTEX
  8
84
 10
1104.06352539
 20
944.85725581
  0
VERTEX
  8
84
 10
1097.51567383
 20
935.61067378
  0
VERTEX
  8
84
 10
1076.55232644
 20
946.92347561
  0
VERTEX
  8
84
 10
1055.22935586
 20
957.13265925
  0
VERTEX
  8
84
 10
1033.51048177
 20
966.17484430
  0
VERTEX
  8
84
 10
1011.35942383
 20
973.98665034
  0
VERTEX
  8
84
 10
989.12306897
 20
980.45341491
  0
VERTEX
  8
84
 10
966.53888121
 20
985.85200075
  0
VERTEX
  8
84
 10
943.71286515
 20
990.36759400
  0
VERTEX
  8
84
 10
920.75102539
 20
994.18538081
  0
VERTEX
  8
84
 10
897.73283831
 20
997.47253261
  0
VERTEX
  8
84
 10
874.68577032
 20
1000.31666564
  0
VERTEX
  8
84
 10
851.61078300
 20
1002.78778321
  0
VERTEX
  8
84
 10
828.50883789
 20
1004.95588863
  0
VERTEX
  8
84
 10
805.38285460
 20
1006.87525994
  0
VERTEX
  8
84
 10
782.23055949
 20
1008.53833536
  0
VERTEX
  8
84
 10
759.05163210
 20
1009.92178409
  0
VERTEX
  8
84
 10
735.84575195
 20
1011.00227534
  0
VERTEX
  8
84
 10
257.04204102
 20
1028.25715816
  0
VERTEX
  8
84
 10
207.04008789
 20
1025.25032222
  0
SEQEND
  0
POINT
  8
2
 10
207.04399414
 20
1261.89973628
  0
TEXT
  8
2
 10
207.04399414
 20
1261.89973628
 40
10.00000000
 50
0.00000000
  1
# 29
  0
POINT
  8
2
 10
257.04594727
 20
1258.82161128
  0
TEXT
  8
2
 10
257.04594727
 20
1258.82161128
 40
10.00000000
 50
0.00000000
  1
# 30
  0
POINT
  8
2
 10
738.18364258
 20
1279.79133784
  0
TEXT
  8
2
 10
738.18364258
 20
1279.79133784
 40
10.00000000
 50
0.00000000
  1
# 31
  0
POINT
  8
3
 10
762.32633185
 20
1281.17388723
  0
POINT
  8
3
 10
786.44936432
 20
1282.77100552
  0
POINT
  8
3
 10
834.67583008
 20
1286.36458003
  0
POINT
  8
3
 10
858.74760980
 20
1288.27595790
  0
POINT
  8
3
 10
882.79978740
 20
1290.40122191
  0
POINT
  8
3
 10
906.80292580
 20
1292.92308197
  0
POINT
  8
3
 10
930.72758789
 20
1296.02424800
  0
POINT
  8
3
 10
954.54192240
 20
1299.83075446
  0
POINT
  8
3
 10
978.26161106
 20
1304.25144721
  0
POINT
  8
3
 10
1001.89983501
 20
1309.13910675
  0
POINT
  8
3
 10
1025.46977539
 20
1314.34651363
  0
POINT
  8
3
 10
1049.00770871
 20
1319.76526378
  0
POINT
  8
3
 10
1072.48601556
 20
1325.40608821
  0
POINT
  8
3
 10
1095.90029413
 20
1331.31815074
  0
POINT
  8
2
 10
1119.24614258
 20
1337.55061519
  0
TEXT
  8
2
 10
1119.24614258
 20
1337.55061519
 40
10.00000000
 50
0.00000000
  1
# 32
  0
POINT
  8
3
 10
1135.65864484
 20
1341.20590970
  0
POINT
  8
3
 10
1152.12129194
 20
1344.50530170
  0
POINT
  8
3
 10
1168.63928427
 20
1347.43172056
  0
POINT
  8
3
 10
1185.21782227
 20
1349.96809566
  0
POINT
  8
3
 10
1201.86009898
 20
1352.10890686
  0
POINT
  8
3
 10
1218.55252977
 20
1353.89375174
  0
POINT
  8
3
 10
1235.27951110
 20
1355.37384963
  0
POINT
  8
3
 10
1252.02543945
 20
1356.60041988
  0
POINT
  8
3
 10
1268.77914794
 20
1357.61335238
  0
POINT
  8
3
 10
1285.54140200
 20
1358.40687842
  0
POINT
  8
3
 10
1302.31740330
 20
1358.96392323
  0
POINT
  8
2
 10
1319.11235352
 20
1359.26741206
  0
TEXT
  8
2
 10
1319.11235352
 20
1359.26741206
 40
10.00000000
 50
0.00000000
  1
# 33
  0
POINT
  8
3
 10
1320.76504095
 20
1340.99558604
  0
POINT
  8
3
 10
1322.74779686
 20
1322.76879842
  0
POINT
  8
3
 10
1325.06062123
 20
1304.58704920
  0
POINT
  8
3
 10
1327.70352375
 20
1286.45027597
  0
POINT
  8
3
 10
1330.67649701
 20
1268.35854146
  0
POINT
  8
2
 10
1333.97954102
 20
1250.31184566
  0
TEXT
  8
2
 10
1333.97954102
 20
1250.31184566
 40
10.00000000
 50
0.00000000
  1
# 34
  0
POINT
  8
2
 10
1338.15336914
 20
1241.46614253
  0
TEXT
  8
2
 10
1338.15336914
 20
1241.46614253
 40
10.00000000
 50
0.00000000
  1
# 35
  0
POINT
  8
2
 10
1337.51469727
 20
1230.98030269
  0
TEXT
  8
2
 10
1337.51469727
 20
1230.98030269
 40
10.00000000
 50
0.00000000
  1
# 36
  0
POINT
  8
3
 10
1340.95295721
 20
1211.57849930
  0
POINT
  8
3
 10
1347.93071348
 20
1172.79328772
  0
POINT
  8
3
 10
1355.04345200
 20
1134.03260087
  0
POINT
  8
2
 10
1358.65043945
 20
1114.66145503
  0
TEXT
  8
2
 10
1358.65043945
 20
1114.66145503
 40
10.00000000
 50
0.00000000
  1
# 37
  0
POINT
  8
2
 10
1366.64067383
 20
1080.00520503
  0
TEXT
  8
2
 10
1366.64067383
 20
1080.00520503
 40
10.00000000
 50
0.00000000
  1
# 38
  0
POINT
  8
3
 10
1331.29287885
 20
1073.54522286
  0
POINT
  8
3
 10
1313.59807112
 20
1070.43842055
  0
POINT
  8
3
 10
1295.88188477
 20
1067.45637691
  0
POINT
  8
3
 10
1224.92387695
 20
1056.05012691
  0
POINT
  8
3
 10
1207.24309372
 20
1052.89304933
  0
POINT
  8
3
 10
1189.59670713
 20
1049.54105910
  0
POINT
  8
3
 10
1171.97913982
 20
1046.02612231
  0
POINT
  8
2
 10
1154.38481445
 20
1042.38020503
  0
TEXT
  8
2
 10
1154.38481445
 20
1042.38020503
 40
10.00000000
 50
0.00000000
  1
# 39
  0
POINT
  8
3
 10
1146.54373604
 20
1040.40857273
  0
POINT
  8
3
 10
1139.32968205
 20
1037.69580213
  0
POINT
  8
3
 10
1132.69177825
 20
1034.19559431
  0
POINT
  8
3
 10
1126.57915039
 20
1029.86165034
  0
POINT
  8
3
 10
1121.06628591
 20
1024.77418325
  0
POINT
  8
3
 10
1116.16006573
 20
1018.97145363
  0
POINT
  8
3
 10
1112.00879805
 20
1012.58843175
  0
POINT
  8
3
 10
1108.76079102
 20
1005.76008784
  0
POINT
  8
3
 10
1106.45691336
 20
998.43358802
  0
POINT
  8
3
 10
1105.01114119
 20
990.87758302
  0
POINT
  8
3
 10
1103.70903320
 20
975.46272456
  0
POINT
  8
3
 10
1103.32269806
 20
960.16914185
  0
POINT
  8
2
 10
1104.06352539
 20
944.85725581
  0
TEXT
  8
2
 10
1104.06352539
 20
944.85725581
 40
10.00000000
 50
0.00000000
  1
# 40
  0
POINT
  8
2
 10
1097.51567383
 20
935.61067378
  0
TEXT
  8
2
 10
1097.51567383
 20
935.61067378
 40
10.00000000
 50
0.00000000
  1
# 41
  0
POINT
  8
3
 10
1076.55232644
 20
946.92347561
  0
POINT
  8
3
 10
1055.22935586
 20
957.13265925
  0
POINT
  8
3
 10
1033.51048177
 20
966.17484430
  0
POINT
  8
3
 10
1011.35942383
 20
973.98665034
  0
POINT
  8
3
 10
989.12306897
 20
980.45341491
  0
POINT
  8
3
 10
966.53888121
 20
985.85200075
  0
POINT
  8
3
 10
943.71286515
 20
990.36759400
  0
POINT
  8
3
 10
920.75102539
 20
994.18538081
  0
POINT
  8
3
 10
897.73283831
 20
997.47253261
  0
POINT
  8
3
 10
874.68577032
 20
1000.31666564
  0
POINT
  8
3
 10
851.61078300
 20
1002.78778321
  0
POINT
  8
3
 10
828.50883789
 20
1004.95588863
  0
POINT
  8
3
 10
805.38285460
 20
1006.87525994
  0
POINT
  8
3
 10
782.23055949
 20
1008.53833536
  0
POINT
  8
3
 10
759.05163210
 20
1009.92178409
  0
POINT
  8
2
 10
735.84575195
 20
1011.00227534
  0
TEXT
  8
2
 10
735.84575195
 20
1011.00227534
 40
10.00000000
 50
0.00000000
  1
# 42
  0
POINT
  8
2
 10
257.04204102
 20
1028.25715816
  0
TEXT
  8
2
 10
257.04204102
 20
1028.25715816
 40
10.00000000
 50
0.00000000
  1
# 43
  0
POINT
  8
2
 10
207.04008789
 20
1025.25032222
  0
TEXT
  8
2
 10
207.04008789
 20
1025.25032222
 40
10.00000000
 50
0.00000000
  1
# 44
  0
POINT
  8
4
 10
738.18364258
 20
1279.79133784
 30
7.50000000
 50
272.88654262
  0
TEXT
  8
1
 10
738.18364258
 20
1279.79133784
 40
10.00000000
 50
0.00000000
  1
# 45
  0
POINT
  8
4
 10
1338.15336914
 20
1241.46614253
 30
7.50000000
 50
190.88736236
  0
TEXT
  8
1
 10
1338.15336914
 20
1241.46614253
 40
10.00000000
 50
0.00000000
  1
# 46
  0
POINT
  8
4
 10
1358.65043945
 20
1114.66145503
 30
7.50000000
 50
191.76548660
  0
TEXT
  8
1
 10
1358.65043945
 20
1114.66145503
 40
10.00000000
 50
0.00000000
  1
# 47
  0
POINT
  8
4
 10
735.84575195
 20
1011.00227534
 30
7.50000000
 50
447.63513407
  0
TEXT
  8
1
 10
735.84575195
 20
1011.00227534
 40
10.00000000
 50
0.00000000
  1
# 48
  0
ENDBLK
  0
BLOCK
  8
1
  2
3
 70
64
 10
0.0
 20
0.0
  0
LINE
  8
7
 10
111.76448654
 20
658.51783523
 11
233.84554123
 21
658.51783523
  0
TEXT
  8
1
 10
0.00000000
 20
0.00000000
 40
20.00000000
 50
0.00000000
  1
Size: 42
  0
TEXT
  8
1
 10
172.80501388
 20
666.01783523
 40
10.00000000
 50
0.00000000
  1
Piece Name: BKALU2P.VI
  0
TEXT
  8
1
 10
172.80501388
 20
666.01783523
 40
10.00000000
 50
0.00000000
  1
Quantity: 1
  0
TEXT
  8
1
 10
172.80501388
 20
666.01783523
 40
10.00000000
 50
0.00000000
  1
Rotation: 0
  0
TEXT
  8
1
 10
172.80501388
 20
666.01783523
 40
10.00000000
 50
0.00000000
  1
Tilt: 0
  0
TEXT
  8
1
 10
172.80501388
 20
666.01783523
 40
10.00000000
 50
0.00000000
  1
Fold: N
  0
TEXT
  8
1
 10
172.80501388
 20
666.01783523
 40
10.00000000
 50
0.00000000
  1
Material: 1
  0
POLYLINE
  8
1
 66
1
 70
1
  0
VERTEX
  8
1
 10
277.16142578
 20
708.61052447
  0
VERTEX
  8
1
 10
280.45634766
 20
664.86833697
  0
VERTEX
  8
1
 10
287.28642578
 20
619.71989947
  0
VERTEX
  8
1
 10
262.89815710
 20
618.44331368
  0
VERTEX
  8
1
 10
238.49443359
 20
617.73943072
  0
VERTEX
  8
1
 10
219.36369579
 20
617.53290767
  0
VERTEX
  8
1
 10
200.22958423
 20
617.70239128
  0
VERTEX
  8
1
 10
181.11730165
 20
618.35096590
  0
VERTEX
  8
1
 10
162.05205078
 20
619.58171588
  0
VERTEX
  8
1
 10
145.04322384
 20
621.24441598
  0
VERTEX
  8
1
 10
128.08529587
 20
623.42761246
  0
VERTEX
  8
1
 10
111.17129223
 20
626.10277764
  0
VERTEX
  8
1
 10
94.29423828
 20
629.24138384
  0
VERTEX
  8
1
 10
79.26884766
 20
631.82829791
  0
VERTEX
  8
1
 10
79.89775391
 20
644.72380572
  0
VERTEX
  8
1
 10
55.86845703
 20
648.63200884
  0
VERTEX
  8
1
 10
43.12431641
 20
690.56560259
  0
SEQEND
  0
POLYLINE
  8
84
 66
1
 70
1
  0
VERTEX
  8
84
 10
277.16142578
 20
708.61052447
  0
VERTEX
  8
84
 10
280.45634766
 20
664.86833697
  0
VERTEX
  8
84
 10
287.28642578
 20
619.71989947
  0
VERTEX
  8
84
 10
262.89815710
 20
618.44331368
  0
VERTEX
  8
84
 10
238.49443359
 20
617.73943072
  0
VERTEX
  8
84
 10
219.36369579
 20
617.53290767
  0
VERTEX
  8
84
 10
200.22958423
 20
617.70239128
  0
VERTEX
  8
84
 10
181.11730165
 20
618.35096590
  0
VERTEX
  8
84
 10
162.05205078
 20
619.58171588
  0
VERTEX
  8
84
 10
145.04322384
 20
621.24441598
  0
VERTEX
  8
84
 10
128.08529587
 20
623.42761246
  0
VERTEX
  8
84
 10
111.17129223
 20
626.10277764
  0
VERTEX
  8
84
 10
94.29423828
 20
629.24138384
  0
VERTEX
  8
84
 10
79.26884766
 20
631.82829791
  0
VERTEX
  8
84
 10
79.89775391
 20
644.72380572
  0
VERTEX
  8
84
 10
55.86845703
 20
648.63200884
  0
VERTEX
  8
84
 10
43.12431641
 20
690.56560259
  0
SEQEND
  0
POINT
  8
2
 10
277.16142578
 20
708.61052447
  0
TEXT
  8
2
 10
277.16142578
 20
708.61052447
 40
10.00000000
 50
0.00000000
  1
# 49
  0
POINT
  8
2
 10
280.45634766
 20
664.86833697
  0
TEXT
  8
2
 10
280.45634766
 20
664.86833697
 40
10.00000000
 50
0.00000000
  1
# 50
  0
POINT
  8
2
 10
287.28642578
 20
619.71989947
  0
TEXT
  8
2
 10
287.28642578
 20
619.71989947
 40
10.00000000
 50
0.00000000
  1
# 51
  0
POINT
  8
3
 10
262.89815710
 20
618.44331368
  0
POINT
  8
3
 10
238.49443359
 20
617.73943072
  0
POINT
  8
3
 10
219.36369579
 20
617.53290767
  0
POINT
  8
3
 10
200.22958423
 20
617.70239128
  0
POINT
  8
3
 10
181.11730165
 20
618.35096590
  0
POINT
  8
3
 10
162.05205078
 20
619.58171588
  0
POINT
  8
3
 10
145.04322384
 20
621.24441598
  0
POINT
  8
3
 10
128.08529587
 20
623.42761246
  0
POINT
  8
3
 10
111.17129223
 20
626.10277764
  0
POINT
  8
2
 10
94.29423828
 20
629.24138384
  0
TEXT
  8
2
 10
94.29423828
 20
629.24138384
 40
10.00000000
 50
0.00000000
  1
# 52
  0
POINT
  8
2
 10
79.26884766
 20
631.82829791
  0
TEXT
  8
2
 10
79.26884766
 20
631.82829791
 40
10.00000000
 50
0.00000000
  1
# 53
  0
POINT
  8
2
 10
79.89775391
 20
644.72380572
  0
TEXT
  8
2
 10
79.89775391
 20
644.72380572
 40
10.00000000
 50
0.00000000
  1
# 54
  0
POINT
  8
2
 10
55.86845703
 20
648.63200884
  0
TEXT
  8
2
 10
55.86845703
 20
648.63200884
 40
10.00000000
 50
0.00000000
  1
# 55
  0
POINT
  8
2
 10
43.12431641
 20
690.56560259
  0
TEXT
  8
2
 10
43.12431641
 20
690.56560259
 40
10.00000000
 50
0.00000000
  1
# 56
  0
POINT
  8
4
 10
280.45634766
 20
664.86833697
 30
6.56288991
 50
194.73179899
  0
TEXT
  8
1
 10
280.45634766
 20
664.86833697
 40
10.00000000
 50
0.00000000
  1
# 57
  0
POINT
  8
4
 10
94.29423828
 20
629.24138384
 30
5.71319380
 50
433.91530680
  0
TEXT
  8
1
 10
94.29423828
 20
629.24138384
 40
10.00000000
 50
0.00000000
  1
# 58
  0
ENDBLK
  0
BLOCK
  8
1
  2
4
 70
64
 10
0.0
 20
0.0
  0
LINE
  8
7
 10
284.30109375
 20
143.36044362
 11
557.80109375
 21
143.36044362
  0
TEXT
  8
1
 10
0.00000000
 20
0.00000000
 40
10.00000000
 50
0.00000000
  1
Size: 42
  0
TEXT
  8
1
 10
421.05109375
 20
158.36044362
 40
20.00000000
 50
0.00000000
  1
Piece Name: BKALU2P.C6D
  0
TEXT
  8
1
 10
421.05109375
 20
158.36044362
 40
20.00000000
 50
0.00000000
  1
Quantity: 1
  0
TEXT
  8
1
 10
421.05109375
 20
158.36044362
 40
20.00000000
 50
0.00000000
  1
Rotation: 0
  0
TEXT
  8
1
 10
421.05109375
 20
158.36044362
 40
20.00000000
 50
0.00000000
  1
Tilt: 0
  0
TEXT
  8
1
 10
421.05109375
 20
158.36044362
 40
20.00000000
 50
0.00000000
  1
Fold: N
  0
TEXT
  8
1
 10
421.05109375
 20
158.36044362
 40
20.00000000
 50
0.00000000
  1
Material: 1
  0
POLYLINE
  8
1
 66
1
 70
1
  0
VERTEX
  8
1
 10
147.55000000
 20
157.36044362
  0
VERTEX
  8
1
 10
192.55000000
 20
157.36044362
  0
VERTEX
  8
1
 10
658.55000000
 20
157.36044362
  0
VERTEX
  8
1
 10
660.55000000
 20
157.36044362
  0
VERTEX
  8
1
 10
694.55000000
 20
157.36044362
  0
VERTEX
  8
1
 10
694.55000000
 20
101.36044362
  0
VERTEX
  8
1
 10
659.55000000
 20
101.36044362
  0
VERTEX
  8
1
 10
613.55000000
 20
101.36044362
  0
VERTEX
  8
1
 10
607.55000000
 20
101.36044362
  0
VERTEX
  8
1
 10
472.04804688
 20
101.36044362
  0
VERTEX
  8
1
 10
466.04804688
 20
101.36044362
  0
VERTEX
  8
1
 10
333.04804688
 20
101.36044362
  0
VERTEX
  8
1
 10
327.04804688
 20
101.36044362
  0
VERTEX
  8
1
 10
227.54804688
 20
101.36044362
  0
VERTEX
  8
1
 10
147.55000000
 20
101.36044362
  0
SEQEND
  0
POLYLINE
  8
84
 66
1
 70
1
  0
VERTEX
  8
84
 10
147.55000000
 20
157.36044362
  0
VERTEX
  8
84
 10
192.55000000
 20
157.36044362
  0
VERTEX
  8
84
 10
658.55000000
 20
157.36044362
  0
VERTEX
  8
84
 10
660.55000000
 20
157.36044362
  0
VERTEX
  8
84
 10
694.55000000
 20
157.36044362
  0
VERTEX
  8
84
 10
694.55000000
 20
101.36044362
  0
VERTEX
  8
84
 10
659.55000000
 20
101.36044362
  0
VERTEX
  8
84
 10
613.55000000
 20
101.36044362
  0
VERTEX
  8
84
 10
607.55000000
 20
101.36044362
  0
VERTEX
  8
84
 10
472.04804688
 20
101.36044362
  0
VERTEX
  8
84
 10
466.04804688
 20
101.36044362
  0
VERTEX
  8
84
 10
333.04804688
 20
101.36044362
  0
VERTEX
  8
84
 10
327.04804688
 20
101.36044362
  0
VERTEX
  8
84
 10
227.54804688
 20
101.36044362
  0
VERTEX
  8
84
 10
147.55000000
 20
101.36044362
  0
SEQEND
  0
POINT
  8
2
 10
147.55000000
 20
157.36044362
  0
TEXT
  8
2
 10
147.55000000
 20
157.36044362
 40
10.00000000
 50
0.00000000
  1
# 59
  0
POINT
  8
2
 10
192.55000000
 20
157.36044362
  0
TEXT
  8
2
 10
192.55000000
 20
157.36044362
 40
10.00000000
 50
0.00000000
  1
# 60
  0
POINT
  8
2
 10
658.55000000
 20
157.36044362
  0
TEXT
  8
2
 10
658.55000000
 20
157.36044362
 40
10.00000000
 50
0.00000000
  1
# 61
  0
POINT
  8
2
 10
660.55000000
 20
157.36044362
  0
TEXT
  8
2
 10
660.55000000
 20
157.36044362
 40
10.00000000
 50
0.00000000
  1
# 62
  0
POINT
  8
2
 10
694.55000000
 20
157.36044362
  0
TEXT
  8
2
 10
694.55000000
 20
157.36044362
 40
10.00000000
 50
0.00000000
  1
# 63
  0
POINT
  8
2
 10
694.55000000
 20
101.36044362
  0
TEXT
  8
2
 10
694.55000000
 20
101.36044362
 40
10.00000000
 50
0.00000000
  1
# 64
  0
POINT
  8
2
 10
659.55000000
 20
101.36044362
  0
TEXT
  8
2
 10
659.55000000
 20
101.36044362
 40
10.00000000
 50
0.00000000
  1
# 65
  0
POINT
  8
2
 10
613.55000000
 20
101.36044362
  0
TEXT
  8
2
 10
613.55000000
 20
101.36044362
 40
10.00000000
 50
0.00000000
  1
# 66
  0
POINT
  8
2
 10
607.55000000
 20
101.36044362
  0
TEXT
  8
2
 10
607.55000000
 20
101.36044362
 40
10.00000000
 50
0.00000000
  1
# 67
  0
POINT
  8
2
 10
472.04804688
 20
101.36044362
  0
TEXT
  8
2
 10
472.04804688
 20
101.36044362
 40
10.00000000
 50
0.00000000
  1
# 68
  0
POINT
  8
2
 10
466.04804688
 20
101.36044362
  0
TEXT
  8
2
 10
466.04804688
 20
101.36044362
 40
10.00000000
 50
0.00000000
  1
# 69
  0
POINT
  8
2
 10
333.04804688
 20
101.36044362
  0
TEXT
  8
2
 10
333.04804688
 20
101.36044362
 40
10.00000000
 50
0.00000000
  1
# 70
  0
POINT
  8
2
 10
327.04804688
 20
101.36044362
  0
TEXT
  8
2
 10
327.04804688
 20
101.36044362
 40
10.00000000
 50
0.00000000
  1
# 71
  0
POINT
  8
2
 10
227.54804688
 20
101.36044362
  0
TEXT
  8
2
 10
227.54804688
 20
101.36044362
 40
10.00000000
 50
0.00000000
  1
# 72
  0
POINT
  8
2
 10
147.55000000
 20
101.36044362
  0
TEXT
  8
2
 10
147.55000000
 20
101.36044362
 40
10.00000000
 50
0.00000000
  1
# 73
  0
POINT
  8
4
 10
192.55000000
 20
157.36044362
 30
7.50000000
 50
270.00000000
  0
TEXT
  8
1
 10
192.55000000
 20
157.36044362
 40
10.00000000
 50
0.00000000
  1
# 74
  0
POINT
  8
4
 10
658.55000000
 20
157.36044362
 30
7.50000000
 50
270.00000000
  0
TEXT
  8
1
 10
658.55000000
 20
157.36044362
 40
10.00000000
 50
0.00000000
  1
# 75
  0
POINT
  8
4
 10
660.55000000
 20
157.36044362
 30
7.50000000
 50
270.00000000
  0
TEXT
  8
1
 10
660.55000000
 20
157.36044362
 40
10.00000000
 50
0.00000000
  1
# 76
  0
POINT
  8
4
 10
659.55000000
 20
101.36044362
 30
7.50000000
 50
90.00000000
  0
TEXT
  8
1
 10
659.55000000
 20
101.36044362
 40
10.00000000
 50
0.00000000
  1
# 77
  0
POINT
  8
4
 10
613.55000000
 20
101.36044362
 30
7.07106781
 50
135.00000000
  0
TEXT
  8
1
 10
613.55000000
 20
101.36044362
 40
10.00000000
 50
0.00000000
  1
# 78
  0
POINT
  8
4
 10
607.55000000
 20
101.36044362
 30
7.07106781
 50
405.00000000
  0
TEXT
  8
1
 10
607.55000000
 20
101.36044362
 40
10.00000000
 50
0.00000000
  1
# 79
  0
POINT
  8
4
 10
472.04804688
 20
101.36044362
 30
7.07106781
 50
135.00000000
  0
TEXT
  8
1
 10
472.04804688
 20
101.36044362
 40
10.00000000
 50
0.00000000
  1
# 80
  0
POINT
  8
4
 10
466.04804688
 20
101.36044362
 30
7.07106781
 50
405.00000000
  0
TEXT
  8
1
 10
466.04804688
 20
101.36044362
 40
10.00000000
 50
0.00000000
  1
# 81
  0
POINT
  8
4
 10
333.04804688
 20
101.36044362
 30
7.07106781
 50
135.00000000
  0
TEXT
  8
1
 10
333.04804688
 20
101.36044362
 40
10.00000000
 50
0.00000000
  1
# 82
  0
POINT
  8
4
 10
327.04804688
 20
101.36044362
 30
7.07106781
 50
405.00000000
  0
TEXT
  8
1
 10
327.04804688
 20
101.36044362
 40
10.00000000
 50
0.00000000
  1
# 83
  0
POINT
  8
4
 10
227.54804688
 20
101.36044362
 30
7.50000000
 50
90.00000000
  0
TEXT
  8
1
 10
227.54804688
 20
101.36044362
 40
10.00000000
 50
0.00000000
  1
# 84
  0
ENDBLK
  0
BLOCK
  8
1
  2
5
 70
64
 10
0.0
 20
0.0
  0
LINE
  8
7
 10
666.29796875
 20
461.17126515
 11
979.79796875
 21
461.17126515
  0
TEXT
  8
1
 10
0.00000000
 20
0.00000000
 40
20.00000000
 50
0.00000000
  1
Size: 42
  0
TEXT
  8
1
 10
823.04796875
 20
476.17126515
 40
20.00000000
 50
0.00000000
  1
Piece Name: BKALU2P.C6E
  0
TEXT
  8
1
 10
823.04796875
 20
476.17126515
 40
20.00000000
 50
0.00000000
  1
Quantity: 1
  0
TEXT
  8
1
 10
823.04796875
 20
476.17126515
 40
20.00000000
 50
0.00000000
  1
Rotation: 0
  0
TEXT
  8
1
 10
823.04796875
 20
476.17126515
 40
20.00000000
 50
0.00000000
  1
Tilt: 0
  0
TEXT
  8
1
 10
823.04796875
 20
476.17126515
 40
20.00000000
 50
0.00000000
  1
Fold: N
  0
TEXT
  8
1
 10
823.04796875
 20
476.17126515
 40
20.00000000
 50
0.00000000
  1
Material: 1
  0
POLYLINE
  8
1
 66
1
 70
1
  0
VERTEX
  8
1
 10
509.55000000
 20
475.17126515
  0
VERTEX
  8
1
 10
543.55000000
 20
475.17126515
  0
VERTEX
  8
1
 10
545.55000000
 20
475.17126515
  0
VERTEX
  8
1
 10
975.54902344
 20
475.17126515
  0
VERTEX
  8
1
 10
977.54902344
 20
475.17126515
  0
VERTEX
  8
1
 10
1031.55000000
 20
475.17126515
  0
VERTEX
  8
1
 10
1086.55000000
 20
475.17126515
  0
VERTEX
  8
1
 10
1136.55000000
 20
475.17126515
  0
VERTEX
  8
1
 10
1136.55000000
 20
419.17126515
  0
VERTEX
  8
1
 10
1086.55000000
 20
419.17126515
  0
VERTEX
  8
1
 10
1032.55000000
 20
419.17126515
  0
VERTEX
  8
1
 10
1030.55000000
 20
419.17126515
  0
VERTEX
  8
1
 10
976.54902344
 20
419.17126515
  0
VERTEX
  8
1
 10
877.05000000
 20
419.17126515
  0
VERTEX
  8
1
 10
871.05000000
 20
419.17126515
  0
VERTEX
  8
1
 10
738.05000000
 20
419.17126515
  0
VERTEX
  8
1
 10
732.05000000
 20
419.17126515
  0
VERTEX
  8
1
 10
596.55000000
 20
419.17126515
  0
VERTEX
  8
1
 10
590.55000000
 20
419.17126515
  0
VERTEX
  8
1
 10
544.55000000
 20
419.17126515
  0
VERTEX
  8
1
 10
509.55000000
 20
419.17126515
  0
SEQEND
  0
POLYLINE
  8
84
 66
1
 70
1
  0
VERTEX
  8
84
 10
509.55000000
 20
475.17126515
  0
VERTEX
  8
84
 10
543.55000000
 20
475.17126515
  0
VERTEX
  8
84
 10
545.55000000
 20
475.17126515
  0
VERTEX
  8
84
 10
975.54902344
 20
475.17126515
  0
VERTEX
  8
84
 10
977.54902344
 20
475.17126515
  0
VERTEX
  8
84
 10
1031.55000000
 20
475.17126515
  0
VERTEX
  8
84
 10
1086.55000000
 20
475.17126515
  0
VERTEX
  8
84
 10
1136.55000000
 20
475.17126515
  0
VERTEX
  8
84
 10
1136.55000000
 20
419.17126515
  0
VERTEX
  8
84
 10
1086.55000000
 20
419.17126515
  0
VERTEX
  8
84
 10
1032.55000000
 20
419.17126515
  0
VERTEX
  8
84
 10
1030.55000000
 20
419.17126515
  0
VERTEX
  8
84
 10
976.54902344
 20
419.17126515
  0
VERTEX
  8
84
 10
877.05000000
 20
419.17126515
  0
VERTEX
  8
84
 10
871.05000000
 20
419.17126515
  0
VERTEX
  8
84
 10
738.05000000
 20
419.17126515
  0
VERTEX
  8
84
 10
732.05000000
 20
419.17126515
  0
VERTEX
  8
84
 10
596.55000000
 20
419.17126515
  0
VERTEX
  8
84
 10
590.55000000
 20
419.17126515
  0
VERTEX
  8
84
 10
544.55000000
 20
419.17126515
  0
VERTEX
  8
84
 10
509.55000000
 20
419.17126515
  0
SEQEND
  0
POINT
  8
2
 10
509.55000000
 20
475.17126515
  0
TEXT
  8
2
 10
509.55000000
 20
475.17126515
 40
10.00000000
 50
0.00000000
  1
# 85
  0
POINT
  8
2
 10
543.55000000
 20
475.17126515
  0
TEXT
  8
2
 10
543.55000000
 20
475.17126515
 40
10.00000000
 50
0.00000000
  1
# 86
  0
POINT
  8
2
 10
545.55000000
 20
475.17126515
  0
TEXT
  8
2
 10
545.55000000
 20
475.17126515
 40
10.00000000
 50
0.00000000
  1
# 87
  0
POINT
  8
2
 10
975.54902344
 20
475.17126515
  0
TEXT
  8
2
 10
975.54902344
 20
475.17126515
 40
10.00000000
 50
0.00000000
  1
# 88
  0
POINT
  8
2
 10
977.54902344
 20
475.17126515
  0
TEXT
  8
2
 10
977.54902344
 20
475.17126515
 40
10.00000000
 50
0.00000000
  1
# 89
  0
POINT
  8
3
 10
1031.55000000
 20
475.17126515
  0
POINT
  8
3
 10
1086.55000000
 20
475.17126515
  0
POINT
  8
2
 10
1136.55000000
 20
475.17126515
  0
TEXT
  8
2
 10
1136.55000000
 20
475.17126515
 40
10.00000000
 50
0.00000000
  1
# 90
  0
POINT
  8
2
 10
1136.55000000
 20
419.17126515
  0
TEXT
  8
2
 10
1136.55000000
 20
419.17126515
 40
10.00000000
 50
0.00000000
  1
# 91
  0
POINT
  8
3
 10
1086.55000000
 20
419.17126515
  0
POINT
  8
3
 10
1032.55000000
 20
419.17126515
  0
POINT
  8
3
 10
1030.55000000
 20
419.17126515
  0
POINT
  8
2
 10
976.54902344
 20
419.17126515
  0
TEXT
  8
2
 10
976.54902344
 20
419.17126515
 40
10.00000000
 50
0.00000000
  1
# 92
  0
POINT
  8
2
 10
877.05000000
 20
419.17126515
  0
TEXT
  8
2
 10
877.05000000
 20
419.17126515
 40
10.00000000
 50
0.00000000
  1
# 93
  0
POINT
  8
2
 10
871.05000000
 20
419.17126515
  0
TEXT
  8
2
 10
871.05000000
 20
419.17126515
 40
10.00000000
 50
0.00000000
  1
# 94
  0
POINT
  8
2
 10
738.05000000
 20
419.17126515
  0
TEXT
  8
2
 10
738.05000000
 20
419.17126515
 40
10.00000000
 50
0.00000000
  1
# 95
  0
POINT
  8
2
 10
732.05000000
 20
419.17126515
  0
TEXT
  8
2
 10
732.05000000
 20
419.17126515
 40
10.00000000
 50
0.00000000
  1
# 96
  0
POINT
  8
2
 10
596.55000000
 20
419.17126515
  0
TEXT
  8
2
 10
596.55000000
 20
419.17126515
 40
10.00000000
 50
0.00000000
  1
# 97
  0
POINT
  8
2
 10
590.55000000
 20
419.17126515
  0
TEXT
  8
2
 10
590.55000000
 20
419.17126515
 40
10.00000000
 50
0.00000000
  1
# 98
  0
POINT
  8
2
 10
544.55000000
 20
419.17126515
  0
TEXT
  8
2
 10
544.55000000
 20
419.17126515
 40
10.00000000
 50
0.00000000
  1
# 99
  0
POINT
  8
2
 10
509.55000000
 20
419.17126515
  0
TEXT
  8
2
 10
509.55000000
 20
419.17126515
 40
10.00000000
 50
0.00000000
  1
# 100
  0
POINT
  8
4
 10
543.55000000
 20
475.17126515
 30
7.50000000
 50
270.00000000
  0
TEXT
  8
1
 10
543.55000000
 20
475.17126515
 40
10.00000000
 50
0.00000000
  1
# 101
  0
POINT
  8
4
 10
545.55000000
 20
475.17126515
 30
7.50000000
 50
270.00000000
  0
TEXT
  8
1
 10
545.55000000
 20
475.17126515
 40
10.00000000
 50
0.00000000
  1
# 102
  0
POINT
  8
4
 10
975.54902344
 20
475.17126515
 30
7.50000000
 50
270.00000000
  0
TEXT
  8
1
 10
975.54902344
 20
475.17126515
 40
10.00000000
 50
0.00000000
  1
# 103
  0
POINT
  8
4
 10
977.54902344
 20
475.17126515
 30
7.50000000
 50
270.00000000
  0
TEXT
  8
1
 10
977.54902344
 20
475.17126515
 40
10.00000000
 50
0.00000000
  1
# 104
  0
POINT
  8
4
 10
1031.55000000
 20
475.17126515
 30
7.50000000
 50
270.00000000
  0
TEXT
  8
1
 10
1031.55000000
 20
475.17126515
 40
10.00000000
 50
0.00000000
  1
# 105
  0
POINT
  8
4
 10
1086.55000000
 20
475.17126515
 30
7.50000000
 50
270.00000000
  0
TEXT
  8
1
 10
1086.55000000
 20
475.17126515
 40
10.00000000
 50
0.00000000
  1
# 106
  0
POINT
  8
4
 10
1086.55000000
 20
419.17126515
 30
7.50000000
 50
90.00000000
  0
TEXT
  8
1
 10
1086.55000000
 20
419.17126515
 40
10.00000000
 50
0.00000000
  1
# 107
  0
POINT
  8
4
 10
1032.55000000
 20
419.17126515
 30
7.50000000
 50
90.00000000
  0
TEXT
  8
1
 10
1032.55000000
 20
419.17126515
 40
10.00000000
 50
0.00000000
  1
# 108
  0
POINT
  8
4
 10
1030.55000000
 20
419.17126515
 30
7.50000000
 50
90.00000000
  0
TEXT
  8
1
 10
1030.55000000
 20
419.17126515
 40
10.00000000
 50
0.00000000
  1
# 109
  0
POINT
  8
4
 10
976.54902344
 20
419.17126515
 30
7.50000000
 50
90.00000000
  0
TEXT
  8
1
 10
976.54902344
 20
419.17126515
 40
10.00000000
 50
0.00000000
  1
# 110
  0
POINT
  8
4
 10
877.05000000
 20
419.17126515
 30
7.07106781
 50
135.00000000
  0
TEXT
  8
1
 10
877.05000000
 20
419.17126515
 40
10.00000000
 50
0.00000000
  1
# 111
  0
POINT
  8
4
 10
871.05000000
 20
419.17126515
 30
7.07106781
 50
405.00000000
  0
TEXT
  8
1
 10
871.05000000
 20
419.17126515
 40
10.00000000
 50
0.00000000
  1
# 112
  0
POINT
  8
4
 10
738.05000000
 20
419.17126515
 30
7.07106781
 50
135.00000000
  0
TEXT
  8
1
 10
738.05000000
 20
419.17126515
 40
10.00000000
 50
0.00000000
  1
# 113
  0
POINT
  8
4
 10
732.05000000
 20
419.17126515
 30
7.07106781
 50
405.00000000
  0
TEXT
  8
1
 10
732.05000000
 20
419.17126515
 40
10.00000000
 50
0.00000000
  1
# 114
  0
POINT
  8
4
 10
596.55000000
 20
419.17126515
 30
7.07106781
 50
135.00000000
  0
TEXT
  8
1
 10
596.55000000
 20
419.17126515
 40
10.00000000
 50
0.00000000
  1
# 115
  0
POINT
  8
4
 10
590.55000000
 20
419.17126515
 30
7.07106781
 50
405.00000000
  0
TEXT
  8
1
 10
590.55000000
 20
419.17126515
 40
10.00000000
 50
0.00000000
  1
# 116
  0
POINT
  8
4
 10
544.55000000
 20
419.17126515
 30
7.50000000
 50
90.00000000
  0
TEXT
  8
1
 10
544.55000000
 20
419.17126515
 40
10.00000000
 50
0.00000000
  1
# 117
  0
ENDBLK
  0
BLOCK
  8
1
  2
6
 70
64
 10
0.0
 20
0.0
  0
LINE
  8
7
 10
284.29998779
 20
361.37124074
 11
557.80004883
 21
361.37124074
  0
TEXT
  8
1
 10
0.00000000
 20
0.00000000
 40
20.00000000
 50
0.00000000
  1
Size: 42
  0
TEXT
  8
1
 10
421.05001831
 20
376.37124074
 40
20.00000000
 50
0.00000000
  1
Piece Name: BKALU2P.C8D
  0
TEXT
  8
1
 10
421.05001831
 20
376.37124074
 40
20.00000000
 50
0.00000000
  1
Quantity: 1
  0
TEXT
  8
1
 10
421.05001831
 20
376.37124074
 40
20.00000000
 50
0.00000000
  1
Rotation: 0
  0
TEXT
  8
1
 10
421.05001831
 20
376.37124074
 40
20.00000000
 50
0.00000000
  1
Tilt: 0
  0
TEXT
  8
1
 10
421.05001831
 20
376.37124074
 40
20.00000000
 50
0.00000000
  1
Fold: N
  0
TEXT
  8
1
 10
421.05001831
 20
376.37124074
 40
20.00000000
 50
0.00000000
  1
Material: 1
  0
POLYLINE
  8
1
 66
1
 70
1
  0
VERTEX
  8
1
 10
694.55014038
 20
375.37125600
  0
VERTEX
  8
1
 10
694.55014038
 20
319.37119496
  0
VERTEX
  8
1
 10
659.55014038
 20
319.37119496
  0
VERTEX
  8
1
 10
613.55007935
 20
319.37119496
  0
VERTEX
  8
1
 10
607.55007935
 20
319.37119496
  0
VERTEX
  8
1
 10
519.30007935
 20
319.37119496
  0
VERTEX
  8
1
 10
513.30007935
 20
319.37119496
  0
VERTEX
  8
1
 10
425.05014038
 20
319.37119496
  0
VERTEX
  8
1
 10
419.05014038
 20
319.37119496
  0
VERTEX
  8
1
 10
330.55001831
 20
319.37119496
  0
VERTEX
  8
1
 10
324.55001831
 20
319.37119496
  0
VERTEX
  8
1
 10
227.55001831
 20
319.37119496
  0
VERTEX
  8
1
 10
147.55001831
 20
319.37119496
  0
VERTEX
  8
1
 10
147.55001831
 20
375.37125600
  0
VERTEX
  8
1
 10
192.55001831
 20
375.37125600
  0
VERTEX
  8
1
 10
658.55007935
 20
375.37125600
  0
VERTEX
  8
1
 10
660.55014038
 20
375.37125600
  0
SEQEND
  0
POLYLINE
  8
84
 66
1
 70
1
  0
VERTEX
  8
84
 10
694.55014038
 20
375.37125600
  0
VERTEX
  8
84
 10
694.55014038
 20
319.37119496
  0
VERTEX
  8
84
 10
659.55014038
 20
319.37119496
  0
VERTEX
  8
84
 10
613.55007935
 20
319.37119496
  0
VERTEX
  8
84
 10
607.55007935
 20
319.37119496
  0
VERTEX
  8
84
 10
519.30007935
 20
319.37119496
  0
VERTEX
  8
84
 10
513.30007935
 20
319.37119496
  0
VERTEX
  8
84
 10
425.05014038
 20
319.37119496
  0
VERTEX
  8
84
 10
419.05014038
 20
319.37119496
  0
VERTEX
  8
84
 10
330.55001831
 20
319.37119496
  0
VERTEX
  8
84
 10
324.55001831
 20
319.37119496
  0
VERTEX
  8
84
 10
227.55001831
 20
319.37119496
  0
VERTEX
  8
84
 10
147.55001831
 20
319.37119496
  0
VERTEX
  8
84
 10
147.55001831
 20
375.37125600
  0
VERTEX
  8
84
 10
192.55001831
 20
375.37125600
  0
VERTEX
  8
84
 10
658.55007935
 20
375.37125600
  0
VERTEX
  8
84
 10
660.55014038
 20
375.37125600
  0
SEQEND
  0
POINT
  8
2
 10
694.55014038
 20
375.37125600
  0
TEXT
  8
2
 10
694.55014038
 20
375.37125600
 40
10.00000000
 50
0.00000000
  1
# 118
  0
POINT
  8
2
 10
694.55014038
 20
319.37119496
  0
TEXT
  8
2
 10
694.55014038
 20
319.37119496
 40
10.00000000
 50
0.00000000
  1
# 119
  0
POINT
  8
2
 10
659.55014038
 20
319.37119496
  0
TEXT
  8
2
 10
659.55014038
 20
319.37119496
 40
10.00000000
 50
0.00000000
  1
# 120
  0
POINT
  8
2
 10
613.55007935
 20
319.37119496
  0
TEXT
  8
2
 10
613.55007935
 20
319.37119496
 40
10.00000000
 50
0.00000000
  1
# 121
  0
POINT
  8
2
 10
607.55007935
 20
319.37119496
  0
TEXT
  8
2
 10
607.55007935
 20
319.37119496
 40
10.00000000
 50
0.00000000
  1
# 122
  0
POINT
  8
2
 10
519.30007935
 20
319.37119496
  0
TEXT
  8
2
 10
519.30007935
 20
319.37119496
 40
10.00000000
 50
0.00000000
  1
# 123
  0
POINT
  8
2
 10
513.30007935
 20
319.37119496
  0
TEXT
  8
2
 10
513.30007935
 20
319.37119496
 40
10.00000000
 50
0.00000000
  1
# 124
  0
POINT
  8
2
 10
425.05014038
 20
319.37119496
  0
TEXT
  8
2
 10
425.05014038
 20
319.37119496
 40
10.00000000
 50
0.00000000
  1
# 125
  0
POINT
  8
2
 10
419.05014038
 20
319.37119496
  0
TEXT
  8
2
 10
419.05014038
 20
319.37119496
 40
10.00000000
 50
0.00000000
  1
# 126
  0
POINT
  8
2
 10
330.55001831
 20
319.37119496
  0
TEXT
  8
2
 10
330.55001831
 20
319.37119496
 40
10.00000000
 50
0.00000000
  1
# 127
  0
POINT
  8
2
 10
324.55001831
 20
319.37119496
  0
TEXT
  8
2
 10
324.55001831
 20
319.37119496
 40
10.00000000
 50
0.00000000
  1
# 128
  0
POINT
  8
2
 10
227.55001831
 20
319.37119496
  0
TEXT
  8
2
 10
227.55001831
 20
319.37119496
 40
10.00000000
 50
0.00000000
  1
# 129
  0
POINT
  8
2
 10
147.55001831
 20
319.37119496
  0
TEXT
  8
2
 10
147.55001831
 20
319.37119496
 40
10.00000000
 50
0.00000000
  1
# 130
  0
POINT
  8
2
 10
147.55001831
 20
375.37125600
  0
TEXT
  8
2
 10
147.55001831
 20
375.37125600
 40
10.00000000
 50
0.00000000
  1
# 131
  0
POINT
  8
2
 10
192.55001831
 20
375.37125600
  0
TEXT
  8
2
 10
192.55001831
 20
375.37125600
 40
10.00000000
 50
0.00000000
  1
# 132
  0
POINT
  8
2
 10
658.55007935
 20
375.37125600
  0
TEXT
  8
2
 10
658.55007935
 20
375.37125600
 40
10.00000000
 50
0.00000000
  1
# 133
  0
POINT
  8
2
 10
660.55014038
 20
375.37125600
  0
TEXT
  8
2
 10
660.55014038
 20
375.37125600
 40
10.00000000
 50
0.00000000
  1
# 134
  0
POINT
  8
4
 10
659.55014038
 20
319.37119496
 30
7.50000000
 50
90.00000000
  0
TEXT
  8
1
 10
659.55014038
 20
319.37119496
 40
10.00000000
 50
0.00000000
  1
# 135
  0
POINT
  8
4
 10
613.55007935
 20
319.37119496
 30
7.07106781
 50
135.00000000
  0
TEXT
  8
1
 10
613.55007935
 20
319.37119496
 40
10.00000000
 50
0.00000000
  1
# 136
  0
POINT
  8
4
 10
607.55007935
 20
319.37119496
 30
7.07106781
 50
405.00000000
  0
TEXT
  8
1
 10
607.55007935
 20
319.37119496
 40
10.00000000
 50
0.00000000
  1
# 137
  0
POINT
  8
4
 10
519.30007935
 20
319.37119496
 30
7.07106781
 50
135.00000000
  0
TEXT
  8
1
 10
519.30007935
 20
319.37119496
 40
10.00000000
 50
0.00000000
  1
# 138
  0
POINT
  8
4
 10
513.30007935
 20
319.37119496
 30
7.07106781
 50
405.00000000
  0
TEXT
  8
1
 10
513.30007935
 20
319.37119496
 40
10.00000000
 50
0.00000000
  1
# 139
  0
POINT
  8
4
 10
425.05014038
 20
319.37119496
 30
7.07106781
 50
135.00000000
  0
TEXT
  8
1
 10
425.05014038
 20
319.37119496
 40
10.00000000
 50
0.00000000
  1
# 140
  0
POINT
  8
4
 10
419.05014038
 20
319.37119496
 30
7.07106781
 50
405.00000000
  0
TEXT
  8
1
 10
419.05014038
 20
319.37119496
 40
10.00000000
 50
0.00000000
  1
# 141
  0
POINT
  8
4
 10
330.55001831
 20
319.37119496
 30
7.07106781
 50
135.00000000
  0
TEXT
  8
1
 10
330.55001831
 20
319.37119496
 40
10.00000000
 50
0.00000000
  1
# 142
  0
POINT
  8
4
 10
324.55001831
 20
319.37119496
 30
7.07106781
 50
405.00000000
  0
TEXT
  8
1
 10
324.55001831
 20
319.37119496
 40
10.00000000
 50
0.00000000
  1
# 143
  0
POINT
  8
4
 10
227.55001831
 20
319.37119496
 30
7.50000000
 50
90.00000000
  0
TEXT
  8
1
 10
227.55001831
 20
319.37119496
 40
10.00000000
 50
0.00000000
  1
# 144
  0
POINT
  8
4
 10
192.55001831
 20
375.37125600
 30
7.50000000
 50
270.00000000
  0
TEXT
  8
1
 10
192.55001831
 20
375.37125600
 40
10.00000000
 50
0.00000000
  1
# 145
  0
POINT
  8
4
 10
658.55007935
 20
375.37125600
 30
7.50000000
 50
270.00000000
  0
TEXT
  8
1
 10
658.55007935
 20
375.37125600
 40
10.00000000
 50
0.00000000
  1
# 146
  0
POINT
  8
4
 10
660.55014038
 20
375.37125600
 30
7.50000000
 50
270.00000000
  0
TEXT
  8
1
 10
660.55014038
 20
375.37125600
 40
10.00000000
 50
0.00000000
  1
# 147
  0
ENDBLK
  0
BLOCK
  8
1
  2
7
 70
64
 10
0.0
 20
0.0
  0
LINE
  8
7
 10
666.30000000
 20
560.97126515
 11
979.80000000
 21
560.97126515
  0
TEXT
  8
1
 10
0.00000000
 20
0.00000000
 40
20.00000000
 50
0.00000000
  1
Size: 42
  0
TEXT
  8
1
 10
823.05000000
 20
575.97126515
 40
20.00000000
 50
0.00000000
  1
Piece Name: BKALU2P.C8E
  0
TEXT
  8
1
 10
823.05000000
 20
575.97126515
 40
20.00000000
 50
0.00000000
  1
Quantity: 1
  0
TEXT
  8
1
 10
823.05000000
 20
575.97126515
 40
20.00000000
 50
0.00000000
  1
Rotation: 0
  0
TEXT
  8
1
 10
823.05000000
 20
575.97126515
 40
20.00000000
 50
0.00000000
  1
Tilt: 0
  0
TEXT
  8
1
 10
823.05000000
 20
575.97126515
 40
20.00000000
 50
0.00000000
  1
Fold: N
  0
TEXT
  8
1
 10
823.05000000
 20
575.97126515
 40
20.00000000
 50
0.00000000
  1
Material: 1
  0
POLYLINE
  8
1
 66
1
 70
1
  0
VERTEX
  8
1
 10
509.55000000
 20
574.97126515
  0
VERTEX
  8
1
 10
543.55000000
 20
574.97126515
  0
VERTEX
  8
1
 10
545.55000000
 20
574.97126515
  0
VERTEX
  8
1
 10
975.55000000
 20
574.97126515
  0
VERTEX
  8
1
 10
977.55000000
 20
574.97126515
  0
VERTEX
  8
1
 10
1031.55000000
 20
574.97126515
  0
VERTEX
  8
1
 10
1086.55000000
 20
574.97126515
  0
VERTEX
  8
1
 10
1136.55000000
 20
574.97126515
  0
VERTEX
  8
1
 10
1136.55000000
 20
518.97126515
  0
VERTEX
  8
1
 10
1086.55000000
 20
518.97126515
  0
VERTEX
  8
1
 10
1032.55000000
 20
518.97126515
  0
VERTEX
  8
1
 10
1030.55000000
 20
518.97126515
  0
VERTEX
  8
1
 10
976.55000000
 20
518.97126515
  0
VERTEX
  8
1
 10
879.55000000
 20
518.97126515
  0
VERTEX
  8
1
 10
873.55000000
 20
518.97126515
  0
VERTEX
  8
1
 10
785.05000000
 20
518.97126515
  0
VERTEX
  8
1
 10
779.05000000
 20
518.97126515
  0
VERTEX
  8
1
 10
690.80000000
 20
518.97126515
  0
VERTEX
  8
1
 10
684.80000000
 20
518.97126515
  0
VERTEX
  8
1
 10
596.55000000
 20
518.97126515
  0
VERTEX
  8
1
 10
590.55000000
 20
518.97126515
  0
VERTEX
  8
1
 10
544.55000000
 20
518.97126515
  0
VERTEX
  8
1
 10
509.55000000
 20
518.97126515
  0
SEQEND
  0
POLYLINE
  8
84
 66
1
 70
1
  0
VERTEX
  8
84
 10
509.55000000
 20
574.97126515
  0
VERTEX
  8
84
 10
543.55000000
 20
574.97126515
  0
VERTEX
  8
84
 10
545.55000000
 20
574.97126515
  0
VERTEX
  8
84
 10
975.55000000
 20
574.97126515
  0
VERTEX
  8
84
 10
977.55000000
 20
574.97126515
  0
VERTEX
  8
84
 10
1031.55000000
 20
574.97126515
  0
VERTEX
  8
84
 10
1086.55000000
 20
574.97126515
  0
VERTEX
  8
84
 10
1136.55000000
 20
574.97126515
  0
VERTEX
  8
84
 10
1136.55000000
 20
518.97126515
  0
VERTEX
  8
84
 10
1086.55000000
 20
518.97126515
  0
VERTEX
  8
84
 10
1032.55000000
 20
518.97126515
  0
VERTEX
  8
84
 10
1030.55000000
 20
518.97126515
  0
VERTEX
  8
84
 10
976.55000000
 20
518.97126515
  0
VERTEX
  8
84
 10
879.55000000
 20
518.97126515
  0
VERTEX
  8
84
 10
873.55000000
 20
518.97126515
  0
VERTEX
  8
84
 10
785.05000000
 20
518.97126515
  0
VERTEX
  8
84
 10
779.05000000
 20
518.97126515
  0
VERTEX
  8
84
 10
690.80000000
 20
518.97126515
  0
VERTEX
  8
84
 10
684.80000000
 20
518.97126515
  0
VERTEX
  8
84
 10
596.55000000
 20
518.97126515
  0
VERTEX
  8
84
 10
590.55000000
 20
518.97126515
  0
VERTEX
  8
84
 10
544.55000000
 20
518.97126515
  0
VERTEX
  8
84
 10
509.55000000
 20
518.97126515
  0
SEQEND
  0
POINT
  8
2
 10
509.55000000
 20
574.97126515
  0
TEXT
  8
2
 10
509.55000000
 20
574.97126515
 40
10.00000000
 50
0.00000000
  1
# 148
  0
POINT
  8
2
 10
543.55000000
 20
574.97126515
  0
TEXT
  8
2
 10
543.55000000
 20
574.97126515
 40
10.00000000
 50
0.00000000
  1
# 149
  0
POINT
  8
2
 10
545.55000000
 20
574.97126515
  0
TEXT
  8
2
 10
545.55000000
 20
574.97126515
 40
10.00000000
 50
0.00000000
  1
# 150
  0
POINT
  8
2
 10
975.55000000
 20
574.97126515
  0
TEXT
  8
2
 10
975.55000000
 20
574.97126515
 40
10.00000000
 50
0.00000000
  1
# 151
  0
POINT
  8
2
 10
977.55000000
 20
574.97126515
  0
TEXT
  8
2
 10
977.55000000
 20
574.97126515
 40
10.00000000
 50
0.00000000
  1
# 152
  0
POINT
  8
3
 10
1031.55000000
 20
574.97126515
  0
POINT
  8
3
 10
1086.55000000
 20
574.97126515
  0
POINT
  8
2
 10
1136.55000000
 20
574.97126515
  0
TEXT
  8
2
 10
1136.55000000
 20
574.97126515
 40
10.00000000
 50
0.00000000
  1
# 153
  0
POINT
  8
2
 10
1136.55000000
 20
518.97126515
  0
TEXT
  8
2
 10
1136.55000000
 20
518.97126515
 40
10.00000000
 50
0.00000000
  1
# 154
  0
POINT
  8
3
 10
1086.55000000
 20
518.97126515
  0
POINT
  8
3
 10
1032.55000000
 20
518.97126515
  0
POINT
  8
3
 10
1030.55000000
 20
518.97126515
  0
POINT
  8
2
 10
976.55000000
 20
518.97126515
  0
TEXT
  8
2
 10
976.55000000
 20
518.97126515
 40
10.00000000
 50
0.00000000
  1
# 155
  0
POINT
  8
2
 10
879.55000000
 20
518.97126515
  0
TEXT
  8
2
 10
879.55000000
 20
518.97126515
 40
10.00000000
 50
0.00000000
  1
# 156
  0
POINT
  8
2
 10
873.55000000
 20
518.97126515
  0
TEXT
  8
2
 10
873.55000000
 20
518.97126515
 40
10.00000000
 50
0.00000000
  1
# 157
  0
POINT
  8
2
 10
785.05000000
 20
518.97126515
  0
TEXT
  8
2
 10
785.05000000
 20
518.97126515
 40
10.00000000
 50
0.00000000
  1
# 158
  0
POINT
  8
2
 10
779.05000000
 20
518.97126515
  0
TEXT
  8
2
 10
779.05000000
 20
518.97126515
 40
10.00000000
 50
0.00000000
  1
# 159
  0
POINT
  8
2
 10
690.80000000
 20
518.97126515
  0
TEXT
  8
2
 10
690.80000000
 20
518.97126515
 40
10.00000000
 50
0.00000000
  1
# 160
  0
POINT
  8
2
 10
684.80000000
 20
518.97126515
  0
TEXT
  8
2
 10
684.80000000
 20
518.97126515
 40
10.00000000
 50
0.00000000
  1
# 161
  0
POINT
  8
2
 10
596.55000000
 20
518.97126515
  0
TEXT
  8
2
 10
596.55000000
 20
518.97126515
 40
10.00000000
 50
0.00000000
  1
# 162
  0
POINT
  8
2
 10
590.55000000
 20
518.97126515
  0
TEXT
  8
2
 10
590.55000000
 20
518.97126515
 40
10.00000000
 50
0.00000000
  1
# 163
  0
POINT
  8
2
 10
544.55000000
 20
518.97126515
  0
TEXT
  8
2
 10
544.55000000
 20
518.97126515
 40
10.00000000
 50
0.00000000
  1
# 164
  0
POINT
  8
2
 10
509.55000000
 20
518.97126515
  0
TEXT
  8
2
 10
509.55000000
 20
518.97126515
 40
10.00000000
 50
0.00000000
  1
# 165
  0
POINT
  8
4
 10
543.55000000
 20
574.97126515
 30
7.50000000
 50
270.00000000
  0
TEXT
  8
1
 10
543.55000000
 20
574.97126515
 40
10.00000000
 50
0.00000000
  1
# 166
  0
POINT
  8
4
 10
545.55000000
 20
574.97126515
 30
7.50000000
 50
270.00000000
  0
TEXT
  8
1
 10
545.55000000
 20
574.97126515
 40
10.00000000
 50
0.00000000
  1
# 167
  0
POINT
  8
4
 10
975.55000000
 20
574.97126515
 30
7.50000000
 50
270.00000000
  0
TEXT
  8
1
 10
975.55000000
 20
574.97126515
 40
10.00000000
 50
0.00000000
  1
# 168
  0
POINT
  8
4
 10
977.55000000
 20
574.97126515
 30
7.50000000
 50
270.00000000
  0
TEXT
  8
1
 10
977.55000000
 20
574.97126515
 40
10.00000000
 50
0.00000000
  1
# 169
  0
POINT
  8
4
 10
1031.55000000
 20
574.97126515
 30
7.50000000
 50
270.00000000
  0
TEXT
  8
1
 10
1031.55000000
 20
574.97126515
 40
10.00000000
 50
0.00000000
  1
# 170
  0
POINT
  8
4
 10
1086.55000000
 20
574.97126515
 30
7.50000000
 50
270.00000000
  0
TEXT
  8
1
 10
1086.55000000
 20
574.97126515
 40
10.00000000
 50
0.00000000
  1
# 171
  0
POINT
  8
4
 10
1086.55000000
 20
518.97126515
 30
7.50000000
 50
90.00000000
  0
TEXT
  8
1
 10
1086.55000000
 20
518.97126515
 40
10.00000000
 50
0.00000000
  1
# 172
  0
POINT
  8
4
 10
1032.55000000
 20
518.97126515
 30
7.50000000
 50
90.00000000
  0
TEXT
  8
1
 10
1032.55000000
 20
518.97126515
 40
10.00000000
 50
0.00000000
  1
# 173
  0
POINT
  8
4
 10
1030.55000000
 20
518.97126515
 30
7.50000000
 50
450.00000000
  0
TEXT
  8
1
 10
1030.55000000
 20
518.97126515
 40
10.00000000
 50
0.00000000
  1
# 174
  0
POINT
  8
4
 10
976.55000000
 20
518.97126515
 30
7.50000000
 50
90.00000000
  0
TEXT
  8
1
 10
976.55000000
 20
518.97126515
 40
10.00000000
 50
0.00000000
  1
# 175
  0
POINT
  8
4
 10
879.55000000
 20
518.97126515
 30
7.07106781
 50
135.00000000
  0
TEXT
  8
1
 10
879.55000000
 20
518.97126515
 40
10.00000000
 50
0.00000000
  1
# 176
  0
POINT
  8
4
 10
873.55000000
 20
518.97126515
 30
7.07106781
 50
405.00000000
  0
TEXT
  8
1
 10
873.55000000
 20
518.97126515
 40
10.00000000
 50
0.00000000
  1
# 177
  0
POINT
  8
4
 10
785.05000000
 20
518.97126515
 30
7.07106781
 50
135.00000000
  0
TEXT
  8
1
 10
785.05000000
 20
518.97126515
 40
10.00000000
 50
0.00000000
  1
# 178
  0
POINT
  8
4
 10
779.05000000
 20
518.97126515
 30
7.07106781
 50
405.00000000
  0
TEXT
  8
1
 10
779.05000000
 20
518.97126515
 40
10.00000000
 50
0.00000000
  1
# 179
  0
POINT
  8
4
 10
690.80000000
 20
518.97126515
 30
7.07106781
 50
135.00000000
  0
TEXT
  8
1
 10
690.80000000
 20
518.97126515
 40
10.00000000
 50
0.00000000
  1
# 180
  0
POINT
  8
4
 10
684.80000000
 20
518.97126515
 30
7.07106781
 50
405.00000000
  0
TEXT
  8
1
 10
684.80000000
 20
518.97126515
 40
10.00000000
 50
0.00000000
  1
# 181
  0
POINT
  8
4
 10
596.55000000
 20
518.97126515
 30
7.07106781
 50
135.00000000
  0
TEXT
  8
1
 10
596.55000000
 20
518.97126515
 40
10.00000000
 50
0.00000000
  1
# 182
  0
POINT
  8
4
 10
590.55000000
 20
518.97126515
 30
7.07106781
 50
405.00000000
  0
TEXT
  8
1
 10
590.55000000
 20
518.97126515
 40
10.00000000
 50
0.00000000
  1
# 183
  0
POINT
  8
4
 10
544.55000000
 20
518.97126515
 30
7.50000000
 50
90.00000000
  0
TEXT
  8
1
 10
544.55000000
 20
518.97126515
 40
10.00000000
 50
0.00000000
  1
# 184
  0
ENDBLK
  0
BLOCK
  8
1
  2
8
 70
64
 10
0.0
 20
0.0
  0
LINE
  8
7
 10
96.57181549
 20
234.10770925
 11
192.59915924
 21
234.10770925
  0
TEXT
  8
1
 10
0.00000000
 20
0.00000000
 40
20.00000000
 50
0.00000000
  1
Size: 42
  0
TEXT
  8
1
 10
144.58548737
 20
237.85770925
 40
5.00000000
 50
0.00000000
  1
Piece Name: BKALU2P.CA1
  0
TEXT
  8
1
 10
144.58548737
 20
237.85770925
 40
5.00000000
 50
0.00000000
  1
Quantity: 1
  0
TEXT
  8
1
 10
144.58548737
 20
237.85770925
 40
5.00000000
 50
0.00000000
  1
Rotation: 0
  0
TEXT
  8
1
 10
144.58548737
 20
237.85770925
 40
5.00000000
 50
0.00000000
  1
Tilt: 0
  0
TEXT
  8
1
 10
144.58548737
 20
237.85770925
 40
5.00000000
 50
0.00000000
  1
Fold: N
  0
TEXT
  8
1
 10
144.58548737
 20
237.85770925
 40
5.00000000
 50
0.00000000
  1
Material: 1
  0
POLYLINE
  8
1
 66
1
 70
1
  0
VERTEX
  8
1
 10
41.13320312
 20
232.82968190
  0
VERTEX
  8
1
 10
51.40252871
 20
238.13169328
  0
VERTEX
  8
1
 10
61.93593750
 20
242.82577565
  0
VERTEX
  8
1
 10
70.28401565
 20
246.07306855
  0
VERTEX
  8
1
 10
78.80800781
 20
248.80233815
  0
VERTEX
  8
1
 10
94.05410156
 20
252.13241628
  0
VERTEX
  8
1
 10
106.80204624
 20
254.21854199
  0
VERTEX
  8
1
 10
119.59609375
 20
256.01034596
  0
VERTEX
  8
1
 10
138.65410148
 20
258.54818486
  0
VERTEX
  8
1
 10
157.54042969
 20
261.98300221
  0
VERTEX
  8
1
 10
174.96989652
 20
266.93798899
  0
VERTEX
  8
1
 10
191.89785156
 20
273.44003346
  0
VERTEX
  8
1
 10
207.70546875
 20
280.94686940
  0
VERTEX
  8
1
 10
233.18789062
 20
260.55331471
  0
VERTEX
  8
1
 10
228.19375000
 20
203.04599050
  0
VERTEX
  8
1
 10
227.47597656
 20
195.78476003
  0
VERTEX
  8
1
 10
183.30898437
 20
196.27304128
  0
VERTEX
  8
1
 10
115.14296875
 20
196.64804128
  0
VERTEX
  8
1
 10
64.08632812
 20
196.74081471
  0
VERTEX
  8
1
 10
62.31875000
 20
204.72226003
  0
VERTEX
  8
1
 10
47.55312500
 20
204.63290456
  0
SEQEND
  0
POLYLINE
  8
84
 66
1
 70
1
  0
VERTEX
  8
84
 10
41.13320312
 20
232.82968190
  0
VERTEX
  8
84
 10
51.40252871
 20
238.13169328
  0
VERTEX
  8
84
 10
61.93593750
 20
242.82577565
  0
VERTEX
  8
84
 10
70.28401565
 20
246.07306855
  0
VERTEX
  8
84
 10
78.80800781
 20
248.80233815
  0
VERTEX
  8
84
 10
94.05410156
 20
252.13241628
  0
VERTEX
  8
84
 10
106.80204624
 20
254.21854199
  0
VERTEX
  8
84
 10
119.59609375
 20
256.01034596
  0
VERTEX
  8
84
 10
138.65410148
 20
258.54818486
  0
VERTEX
  8
84
 10
157.54042969
 20
261.98300221
  0
VERTEX
  8
84
 10
174.96989652
 20
266.93798899
  0
VERTEX
  8
84
 10
191.89785156
 20
273.44003346
  0
VERTEX
  8
84
 10
207.70546875
 20
280.94686940
  0
VERTEX
  8
84
 10
233.18789062
 20
260.55331471
  0
VERTEX
  8
84
 10
228.19375000
 20
203.04599050
  0
VERTEX
  8
84
 10
227.47597656
 20
195.78476003
  0
VERTEX
  8
84
 10
183.30898437
 20
196.27304128
  0
VERTEX
  8
84
 10
115.14296875
 20
196.64804128
  0
VERTEX
  8
84
 10
64.08632812
 20
196.74081471
  0
VERTEX
  8
84
 10
62.31875000
 20
204.72226003
  0
VERTEX
  8
84
 10
47.55312500
 20
204.63290456
  0
SEQEND
  0
POINT
  8
2
 10
41.13320312
 20
232.82968190
  0
TEXT
  8
2
 10
41.13320312
 20
232.82968190
 40
10.00000000
 50
0.00000000
  1
# 185
  0
POINT
  8
3
 10
51.40252871
 20
238.13169328
  0
POINT
  8
3
 10
61.93593750
 20
242.82577565
  0
POINT
  8
3
 10
70.28401565
 20
246.07306855
  0
POINT
  8
3
 10
78.80800781
 20
248.80233815
  0
POINT
  8
3
 10
94.05410156
 20
252.13241628
  0
POINT
  8
3
 10
106.80204624
 20
254.21854199
  0
POINT
  8
3
 10
119.59609375
 20
256.01034596
  0
POINT
  8
3
 10
138.65410148
 20
258.54818486
  0
POINT
  8
3
 10
157.54042969
 20
261.98300221
  0
POINT
  8
3
 10
174.96989652
 20
266.93798899
  0
POINT
  8
3
 10
191.89785156
 20
273.44003346
  0
POINT
  8
2
 10
207.70546875
 20
280.94686940
  0
TEXT
  8
2
 10
207.70546875
 20
280.94686940
 40
10.00000000
 50
0.00000000
  1
# 186
  0
POINT
  8
2
 10
233.18789062
 20
260.55331471
  0
TEXT
  8
2
 10
233.18789062
 20
260.55331471
 40
10.00000000
 50
0.00000000
  1
# 187
  0
POINT
  8
2
 10
228.19375000
 20
203.04599050
  0
TEXT
  8
2
 10
228.19375000
 20
203.04599050
 40
10.00000000
 50
0.00000000
  1
# 188
  0
POINT
  8
2
 10
227.47597656
 20
195.78476003
  0
TEXT
  8
2
 10
227.47597656
 20
195.78476003
 40
10.00000000
 50
0.00000000
  1
# 189
  0
POINT
  8
3
 10
183.30898437
 20
196.27304128
  0
POINT
  8
3
 10
115.14296875
 20
196.64804128
  0
POINT
  8
2
 10
64.08632812
 20
196.74081471
  0
TEXT
  8
2
 10
64.08632812
 20
196.74081471
 40
10.00000000
 50
0.00000000
  1
# 190
  0
POINT
  8
2
 10
62.31875000
 20
204.72226003
  0
TEXT
  8
2
 10
62.31875000
 20
204.72226003
 40
10.00000000
 50
0.00000000
  1
# 191
  0
POINT
  8
2
 10
47.55312500
 20
204.63290456
  0
TEXT
  8
2
 10
47.55312500
 20
204.63290456
 40
10.00000000
 50
0.00000000
  1
# 192
  0
POINT
  8
4
 10
228.19375000
 20
203.04599050
 30
7.50000000
 50
174.69566443
  0
TEXT
  8
1
 10
228.19375000
 20
203.04599050
 40
10.00000000
 50
0.00000000
  1
# 193
  0
ENDBLK
  0
BLOCK
  8
1
  2
9
 70
64
 10
0.0
 20
0.0
  0
LINE
  8
7
 10
90.52803218
 20
37.24088297
 11
184.66621577
 21
37.24088297
  0
TEXT
  8
1
 10
0.00000000
 20
0.00000000
 40
5.00000000
 50
0.00000000
  1
Size: 42
  0
TEXT
  8
1
 10
137.59712398
 20
40.99088297
 40
5.00000000
 50
0.00000000
  1
Piece Name: BKALU2P.CAR
  0
TEXT
  8
1
 10
137.59712398
 20
40.99088297
 40
5.00000000
 50
0.00000000
  1
Quantity: 1
  0
TEXT
  8
1
 10
137.59712398
 20
40.99088297
 40
5.00000000
 50
0.00000000
  1
Rotation: 0
  0
TEXT
  8
1
 10
137.59712398
 20
40.99088297
 40
5.00000000
 50
0.00000000
  1
Tilt: 0
  0
TEXT
  8
1
 10
137.59712398
 20
40.99088297
 40
5.00000000
 50
0.00000000
  1
Fold: N
  0
TEXT
  8
1
 10
137.59712398
 20
40.99088297
 40
5.00000000
 50
0.00000000
  1
Material: 1
  0
POLYLINE
  8
1
 66
1
 70
1
  0
VERTEX
  8
1
 10
40.56645572
 20
38.95704508
  0
VERTEX
  8
1
 10
45.01176822
 20
58.37745523
  0
VERTEX
  8
1
 10
59.85844791
 20
58.35938883
  0
VERTEX
  8
1
 10
61.62797916
 20
66.34425211
  0
VERTEX
  8
1
 10
96.40044010
 20
66.53663492
  0
VERTEX
  8
1
 10
136.79793932
 20
66.78266747
  0
VERTEX
  8
1
 10
177.19536197
 20
67.04151773
  0
VERTEX
  8
1
 10
225.03911197
 20
67.34962320
  0
VERTEX
  8
1
 10
225.93169010
 20
60.02589273
  0
VERTEX
  8
1
 10
228.84282291
 20
12.60645914
  0
VERTEX
  8
1
 10
214.96307636
 20
12.83586980
  0
VERTEX
  8
1
 10
201.08305728
 20
12.92042398
  0
VERTEX
  8
1
 10
173.31352603
 20
12.75392008
  0
VERTEX
  8
1
 10
159.43565696
 20
12.85051440
  0
VERTEX
  8
1
 10
145.56059635
 20
13.10450602
  0
VERTEX
  8
1
 10
117.80669010
 20
13.81446695
  0
VERTEX
  8
1
 10
103.92997508
 20
14.30402828
  0
VERTEX
  8
1
 10
90.11235416
 20
15.66993570
  0
VERTEX
  8
1
 10
76.53727779
 20
18.67583338
  0
VERTEX
  8
1
 10
69.95081604
 20
20.86803107
  0
VERTEX
  8
1
 10
63.57915103
 20
23.53077555
  0
VERTEX
  8
1
 10
57.46256130
 20
26.67437055
  0
VERTEX
  8
1
 10
51.60173209
 20
30.29512523
  0
VERTEX
  8
1
 10
45.97643852
 20
34.39027246
  0
SEQEND
  0
POLYLINE
  8
84
 66
1
 70
1
  0
VERTEX
  8
84
 10
40.56645572
 20
38.95704508
  0
VERTEX
  8
84
 10
45.01176822
 20
58.37745523
  0
VERTEX
  8
84
 10
59.85844791
 20
58.35938883
  0
VERTEX
  8
84
 10
61.62797916
 20
66.34425211
  0
VERTEX
  8
84
 10
96.40044010
 20
66.53663492
  0
VERTEX
  8
84
 10
136.79793932
 20
66.78266747
  0
VERTEX
  8
84
 10
177.19536197
 20
67.04151773
  0
VERTEX
  8
84
 10
225.03911197
 20
67.34962320
  0
VERTEX
  8
84
 10
225.93169010
 20
60.02589273
  0
VERTEX
  8
84
 10
228.84282291
 20
12.60645914
  0
VERTEX
  8
84
 10
214.96307636
 20
12.83586980
  0
VERTEX
  8
84
 10
201.08305728
 20
12.92042398
  0
VERTEX
  8
84
 10
173.31352603
 20
12.75392008
  0
VERTEX
  8
84
 10
159.43565696
 20
12.85051440
  0
VERTEX
  8
84
 10
145.56059635
 20
13.10450602
  0
VERTEX
  8
84
 10
117.80669010
 20
13.81446695
  0
VERTEX
  8
84
 10
103.92997508
 20
14.30402828
  0
VERTEX
  8
84
 10
90.11235416
 20
15.66993570
  0
VERTEX
  8
84
 10
76.53727779
 20
18.67583338
  0
VERTEX
  8
84
 10
69.95081604
 20
20.86803107
  0
VERTEX
  8
84
 10
63.57915103
 20
23.53077555
  0
VERTEX
  8
84
 10
57.46256130
 20
26.67437055
  0
VERTEX
  8
84
 10
51.60173209
 20
30.29512523
  0
VERTEX
  8
84
 10
45.97643852
 20
34.39027246
  0
SEQEND
  0
POINT
  8
2
 10
40.56645572
 20
38.95704508
  0
TEXT
  8
2
 10
40.56645572
 20
38.95704508
 40
10.00000000
 50
0.00000000
  1
# 194
  0
POINT
  8
2
 10
45.01176822
 20
58.37745523
  0
TEXT
  8
2
 10
45.01176822
 20
58.37745523
 40
10.00000000
 50
0.00000000
  1
# 195
  0
POINT
  8
2
 10
59.85844791
 20
58.35938883
  0
TEXT
  8
2
 10
59.85844791
 20
58.35938883
 40
10.00000000
 50
0.00000000
  1
# 196
  0
POINT
  8
2
 10
61.62797916
 20
66.34425211
  0
TEXT
  8
2
 10
61.62797916
 20
66.34425211
 40
10.00000000
 50
0.00000000
  1
# 197
  0
POINT
  8
3
 10
96.40044010
 20
66.53663492
  0
POINT
  8
3
 10
136.79793932
 20
66.78266747
  0
POINT
  8
3
 10
177.19536197
 20
67.04151773
  0
POINT
  8
2
 10
225.03911197
 20
67.34962320
  0
TEXT
  8
2
 10
225.03911197
 20
67.34962320
 40
10.00000000
 50
0.00000000
  1
# 198
  0
POINT
  8
2
 10
225.93169010
 20
60.02589273
  0
TEXT
  8
2
 10
225.93169010
 20
60.02589273
 40
10.00000000
 50
0.00000000
  1
# 199
  0
POINT
  8
2
 10
228.84282291
 20
12.60645914
  0
TEXT
  8
2
 10
228.84282291
 20
12.60645914
 40
10.00000000
 50
0.00000000
  1
# 200
  0
POINT
  8
3
 10
214.96307636
 20
12.83586980
  0
POINT
  8
3
 10
201.08305728
 20
12.92042398
  0
POINT
  8
3
 10
173.31352603
 20
12.75392008
  0
POINT
  8
3
 10
159.43565696
 20
12.85051440
  0
POINT
  8
3
 10
145.56059635
 20
13.10450602
  0
POINT
  8
3
 10
117.80669010
 20
13.81446695
  0
POINT
  8
3
 10
103.92997508
 20
14.30402828
  0
POINT
  8
3
 10
90.11235416
 20
15.66993570
  0
POINT
  8
3
 10
76.53727779
 20
18.67583338
  0
POINT
  8
3
 10
69.95081604
 20
20.86803107
  0
POINT
  8
3
 10
63.57915103
 20
23.53077555
  0
POINT
  8
3
 10
57.46256130
 20
26.67437055
  0
POINT
  8
3
 10
51.60173209
 20
30.29512523
  0
POINT
  8
3
 10
45.97643852
 20
34.39027246
  0
POINT
  8
4
 10
225.93169010
 20
60.02589273
 30
7.50000000
 50
185.23084326
  0
TEXT
  8
1
 10
225.93169010
 20
60.02589273
 40
10.00000000
 50
0.00000000
  1
# 201
  0
ENDBLK
  0
ENDSEC
  0
SECTION
  2
ENTITIES
  0
LINE
  8
9
 10
0.00000000
 20
0.00000000
 11
0.00000000
 21
0.00000000
  0
LINE
  8
10
 10
0.00000000
 20
0.00000000
 11
0.00000000
 21
0.00000000
  0
INSERT
  8
1
  2
1
 10
0.0
 20
0.0
  0
INSERT
  8
1
  2
2
 10
0.0
 20
0.0
  0
INSERT
  8
1
  2
3
 10
0.0
 20
0.0
  0
INSERT
  8
1
  2
4
 10
0.0
 20
0.0
  0
INSERT
  8
1
  2
5
 10
0.0
 20
0.0
  0
INSERT
  8
1
  2
6
 10
0.0
 20
0.0
  0
INSERT
  8
1
  2
7
 10
0.0
 20
0.0
  0
INSERT
  8
1
  2
8
 10
0.0
 20
0.0
  0
INSERT
  8
1
  2
9
 10
0.0
 20
0.0
  0
TEXT
  8
1
 10
0.00000000
 20
0.00000000
 40
10.00000000
 50
0.00000000
  1
Style Name: ASTM D 6673
  0
TEXT
  8
1
 10
0.00000000
 20
0.00000000
 40
10.00000000
 50
0.00000000
  1
Grade Rule Table: KALU2
  0
TEXT
  8
1
 10
0.00000000
 20
0.00000000
 40
10.00000000
 50
0.00000000
  1
Sample Size: 42
  0
TEXT
  8
1
 10
0.00000000
 20
0.00000000
 40
10.00000000
 50
0.00000000
  1
Units: METRIC
  0
TEXT
  8
1
 10
0.00000000
 20
0.00000000
 40
10.00000000
 50
0.00000000
  1
Creation Date: 12-1-2025
  0
TEXT
  8
1
 10
0.00000000
 20
0.00000000
 40
10.00000000
 50
0.00000000
  1
Creation Time: 20:59
  0
TEXT
  8
1
 10
0.00000000
 20
0.00000000
 40
10.00000000
 50
0.00000000
  1
Author: Audaces; Audaces Vesturio 2015
  0
TEXT
  8
1
 10
0.00000000
 20
0.00000000
 40
10.00000000
 50
0.00000000
  1
Curve Tolerance: 0.025
  0
TEXT
  8
1
 10
0.00000000
 20
0.00000000
 40
10.00000000
 50
0.00000000
  1
ASTM/PDE: 1
  0
ENDSEC
  0
EOF
