  0
SECTION
  2
BLOCKS
  0
BLOCK
  8
1
  2
1
 70
64
 10
0.0
 20
0.0
  0
LINE
  8
7
 10
1763.96596088
 20
318.93961477
 11
2321.62617817
 21
318.93961477
  0
TEXT
  8
1
 10
0.00000000
 20
0.00000000
 40
10.00000000
 50
0.00000000
  1
Size: 42
  0
TEXT
  8
1
 10
2042.79606953
 20
333.93961477
 40
20.00000000
 50
0.00000000
  1
Piece Name: BKALU.F
  0
TEXT
  8
1
 10
2042.79606953
 20
333.93961477
 40
20.00000000
 50
0.00000000
  1
Quantity: 1
  0
TEXT
  8
1
 10
2042.79606953
 20
333.93961477
 40
20.00000000
 50
0.00000000
  1
Rotation: 0
  0
TEXT
  8
1
 10
2042.79606953
 20
333.93961477
 40
20.00000000
 50
0.00000000
  1
Tilt: 0
  0
TEXT
  8
1
 10
2042.79606953
 20
333.93961477
 40
20.00000000
 50
0.00000000
  1
Fold: N
  0
TEXT
  8
1
 10
2042.79606953
 20
333.93961477
 40
20.00000000
 50
0.00000000
  1
Material: 1
  0
POLYLINE
  8
1
 66
1
 70
1
  0
VERTEX
  8
1
 10
1489.39806519
 20
240.26415701
  0
VERTEX
  8
1
 10
1489.39806519
 20
436.90881033
  0
VERTEX
  8
1
 10
1539.39806519
 20
433.90881033
  0
VERTEX
  8
1
 10
2019.85143433
 20
450.48302908
  0
VERTEX
  8
1
 10
2043.22721110
 20
451.51608047
  0
VERTEX
  8
1
 10
2066.58398563
 20
452.78407781
  0
VERTEX
  8
1
 10
2089.92183558
 20
454.29330494
  0
VERTEX
  8
1
 10
2113.24083862
 20
456.05004568
  0
VERTEX
  8
1
 10
2136.56112838
 20
458.05823463
  0
VERTEX
  8
1
 10
2159.86238313
 20
460.30178082
  0
VERTEX
  8
1
 10
2183.14436953
 20
462.76180563
  0
VERTEX
  8
1
 10
2206.40685425
 20
465.41943045
  0
VERTEX
  8
1
 10
2229.65748870
 20
468.26661156
  0
VERTEX
  8
1
 10
2252.87878974
 20
471.33164757
  0
VERTEX
  8
1
 10
2276.06117503
 20
474.65352668
  0
VERTEX
  8
1
 10
2299.19506226
 20
478.27123709
  0
VERTEX
  8
1
 10
2322.32927854
 20
482.22513906
  0
VERTEX
  8
1
 10
2345.40833756
 20
486.50244861
  0
VERTEX
  8
1
 10
2368.43544642
 20
491.09011676
  0
VERTEX
  8
1
 10
2391.41381226
 20
495.97509451
  0
VERTEX
  8
1
 10
2395.20602405
 20
487.80506849
  0
VERTEX
  8
1
 10
2399.75219116
 20
480.09350271
  0
VERTEX
  8
1
 10
2405.01354783
 20
472.77194504
  0
VERTEX
  8
1
 10
2411.24974976
 20
466.33312674
  0
VERTEX
  8
1
 10
2418.51132444
 20
461.32643417
  0
VERTEX
  8
1
 10
2426.49389038
 20
457.47253103
  0
VERTEX
  8
1
 10
2435.03727946
 20
454.44715277
  0
VERTEX
  8
1
 10
2443.96068726
 20
452.42211599
  0
VERTEX
  8
1
 10
2456.83569180
 20
449.96473783
  0
VERTEX
  8
1
 10
2469.73261892
 20
447.65761322
  0
VERTEX
  8
1
 10
2482.65495716
 20
445.52467115
  0
VERTEX
  8
1
 10
2495.60619507
 20
443.58984060
  0
VERTEX
  8
1
 10
2508.67824994
 20
441.84975063
  0
VERTEX
  8
1
 10
2521.77255916
 20
440.26218826
  0
VERTEX
  8
1
 10
2547.98558960
 20
437.25414724
  0
VERTEX
  8
1
 10
2600.18724976
 20
430.92834158
  0
VERTEX
  8
1
 10
2598.02611694
 20
402.65527029
  0
VERTEX
  8
1
 10
2596.03930054
 20
374.36840506
  0
VERTEX
  8
1
 10
2595.43964285
 20
360.20658126
  0
VERTEX
  8
1
 10
2595.13256226
 20
346.02990408
  0
VERTEX
  8
1
 10
2595.10131226
 20
337.77221365
  0
VERTEX
  8
1
 10
2595.08568726
 20
329.84643240
  0
VERTEX
  8
1
 10
2595.41332397
 20
304.89269705
  0
VERTEX
  8
1
 10
2595.78309749
 20
288.85120056
  0
VERTEX
  8
1
 10
2596.47826538
 20
272.82653494
  0
VERTEX
  8
1
 10
2597.71437222
 20
256.84139957
  0
VERTEX
  8
1
 10
2599.46068726
 20
240.88927908
  0
VERTEX
  8
1
 10
2600.31101152
 20
234.13940983
  0
VERTEX
  8
1
 10
2602.22350823
 20
220.67245471
  0
VERTEX
  8
1
 10
2603.84694152
 20
210.57905982
  0
VERTEX
  8
1
 10
2604.71849976
 20
205.54162283
  0
VERTEX
  8
1
 10
2413.83568726
 20
174.09240408
  0
VERTEX
  8
1
 10
2415.33568726
 20
179.09240408
  0
VERTEX
  8
1
 10
2316.84057007
 20
194.20776052
  0
VERTEX
  8
1
 10
2267.86492738
 20
201.65996144
  0
VERTEX
  8
1
 10
2243.34496891
 20
205.13969726
  0
VERTEX
  8
1
 10
2218.78209839
 20
208.27636404
  0
VERTEX
  8
1
 10
2194.09288065
 20
210.97712415
  0
VERTEX
  8
1
 10
2169.35784644
 20
213.26849901
  0
VERTEX
  8
1
 10
2144.59055344
 20
215.22109398
  0
VERTEX
  8
1
 10
2119.80455933
 20
216.90551443
  0
VERTEX
  8
1
 10
2095.00717077
 20
218.37685452
  0
VERTEX
  8
1
 10
2070.20011723
 20
219.62703362
  0
VERTEX
  8
1
 10
2045.37887848
 20
220.63251147
  0
VERTEX
  8
1
 10
2020.53893433
 20
221.36974783
  0
VERTEX
  8
1
 10
1539.39806519
 20
243.26427908
  0
SEQEND
  0
POLYLINE
  8
84
 66
1
 70
1
  0
VERTEX
  8
84
 10
1489.39806519
 20
240.26415701
  0
VERTEX
  8
84
 10
1489.39806519
 20
436.90881033
  0
VERTEX
  8
84
 10
1539.39806519
 20
433.90881033
  0
VERTEX
  8
84
 10
2019.85143433
 20
450.48302908
  0
VERTEX
  8
84
 10
2043.22721110
 20
451.51608047
  0
VERTEX
  8
84
 10
2066.58398563
 20
452.78407781
  0
VERTEX
  8
84
 10
2089.92183558
 20
454.29330494
  0
VERTEX
  8
84
 10
2113.24083862
 20
456.05004568
  0
VERTEX
  8
84
 10
2136.56112838
 20
458.05823463
  0
VERTEX
  8
84
 10
2159.86238313
 20
460.30178082
  0
VERTEX
  8
84
 10
2183.14436953
 20
462.76180563
  0
VERTEX
  8
84
 10
2206.40685425
 20
465.41943045
  0
VERTEX
  8
84
 10
2229.65748870
 20
468.26661156
  0
VERTEX
  8
84
 10
2252.87878974
 20
471.33164757
  0
VERTEX
  8
84
 10
2276.06117503
 20
474.65352668
  0
VERTEX
  8
84
 10
2299.19506226
 20
478.27123709
  0
VERTEX
  8
84
 10
2322.32927854
 20
482.22513906
  0
VERTEX
  8
84
 10
2345.40833756
 20
486.50244861
  0
VERTEX
  8
84
 10
2368.43544642
 20
491.09011676
  0
VERTEX
  8
84
 10
2391.41381226
 20
495.97509451
  0
VERTEX
  8
84
 10
2395.20602405
 20
487.80506849
  0
VERTEX
  8
84
 10
2399.75219116
 20
480.09350271
  0
VERTEX
  8
84
 10
2405.01354783
 20
472.77194504
  0
VERTEX
  8
84
 10
2411.24974976
 20
466.33312674
  0
VERTEX
  8
84
 10
2418.51132444
 20
461.32643417
  0
VERTEX
  8
84
 10
2426.49389038
 20
457.47253103
  0
VERTEX
  8
84
 10
2435.03727946
 20
454.44715277
  0
VERTEX
  8
84
 10
2443.96068726
 20
452.42211599
  0
VERTEX
  8
84
 10
2456.83569180
 20
449.96473783
  0
VERTEX
  8
84
 10
2469.73261892
 20
447.65761322
  0
VERTEX
  8
84
 10
2482.65495716
 20
445.52467115
  0
VERTEX
  8
84
 10
2495.60619507
 20
443.58984060
  0
VERTEX
  8
84
 10
2508.67824994
 20
441.84975063
  0
VERTEX
  8
84
 10
2521.77255916
 20
440.26218826
  0
VERTEX
  8
84
 10
2547.98558960
 20
437.25414724
  0
VERTEX
  8
84
 10
2600.18724976
 20
430.92834158
  0
VERTEX
  8
84
 10
2598.02611694
 20
402.65527029
  0
VERTEX
  8
84
 10
2596.03930054
 20
374.36840506
  0
VERTEX
  8
84
 10
2595.43964285
 20
360.20658126
  0
VERTEX
  8
84
 10
2595.13256226
 20
346.02990408
  0
VERTEX
  8
84
 10
2595.10131226
 20
337.77221365
  0
VERTEX
  8
84
 10
2595.08568726
 20
329.84643240
  0
VERTEX
  8
84
 10
2595.41332397
 20
304.89269705
  0
VERTEX
  8
84
 10
2595.78309749
 20
288.85120056
  0
VERTEX
  8
84
 10
2596.47826538
 20
272.82653494
  0
VERTEX
  8
84
 10
2597.71437222
 20
256.84139957
  0
VERTEX
  8
84
 10
2599.46068726
 20
240.88927908
  0
VERTEX
  8
84
 10
2600.31101152
 20
234.13940983
  0
VERTEX
  8
84
 10
2602.22350823
 20
220.67245471
  0
VERTEX
  8
84
 10
2603.84694152
 20
210.57905982
  0
VERTEX
  8
84
 10
2604.71849976
 20
205.54162283
  0
VERTEX
  8
84
 10
2413.83568726
 20
174.09240408
  0
VERTEX
  8
84
 10
2415.33568726
 20
179.09240408
  0
VERTEX
  8
84
 10
2316.84057007
 20
194.20776052
  0
VERTEX
  8
84
 10
2267.86492738
 20
201.65996144
  0
VERTEX
  8
84
 10
2243.34496891
 20
205.13969726
  0
VERTEX
  8
84
 10
2218.78209839
 20
208.27636404
  0
VERTEX
  8
84
 10
2194.09288065
 20
210.97712415
  0
VERTEX
  8
84
 10
2169.35784644
 20
213.26849901
  0
VERTEX
  8
84
 10
2144.59055344
 20
215.22109398
  0
VERTEX
  8
84
 10
2119.80455933
 20
216.90551443
  0
VERTEX
  8
84
 10
2095.00717077
 20
218.37685452
  0
VERTEX
  8
84
 10
2070.20011723
 20
219.62703362
  0
VERTEX
  8
84
 10
2045.37887848
 20
220.63251147
  0
VERTEX
  8
84
 10
2020.53893433
 20
221.36974783
  0
VERTEX
  8
84
 10
1539.39806519
 20
243.26427908
  0
SEQEND
  0
POINT
  8
2
 10
1489.39806519
 20
240.26415701
  0
TEXT
  8
2
 10
1489.39806519
 20
240.26415701
 40
10.00000000
 50
0.00000000
  1
# 1
  0
POINT
  8
2
 10
1489.39806519
 20
436.90881033
  0
TEXT
  8
2
 10
1489.39806519
 20
436.90881033
 40
10.00000000
 50
0.00000000
  1
# 2
  0
POINT
  8
2
 10
1539.39806519
 20
433.90881033
  0
TEXT
  8
2
 10
1539.39806519
 20
433.90881033
 40
10.00000000
 50
0.00000000
  1
# 3
  0
POINT
  8
2
 10
2019.85143433
 20
450.48302908
  0
TEXT
  8
2
 10
2019.85143433
 20
450.48302908
 40
10.00000000
 50
0.00000000
  1
# 4
  0
POINT
  8
3
 10
2043.22721110
 20
451.51608047
  0
POINT
  8
3
 10
2066.58398563
 20
452.78407781
  0
POINT
  8
3
 10
2089.92183558
 20
454.29330494
  0
POINT
  8
3
 10
2113.24083862
 20
456.05004568
  0
POINT
  8
3
 10
2136.56112838
 20
458.05823463
  0
POINT
  8
3
 10
2159.86238313
 20
460.30178082
  0
POINT
  8
3
 10
2183.14436953
 20
462.76180563
  0
POINT
  8
3
 10
2206.40685425
 20
465.41943045
  0
POINT
  8
3
 10
2229.65748870
 20
468.26661156
  0
POINT
  8
3
 10
2252.87878974
 20
471.33164757
  0
POINT
  8
3
 10
2276.06117503
 20
474.65352668
  0
POINT
  8
3
 10
2299.19506226
 20
478.27123709
  0
POINT
  8
3
 10
2322.32927854
 20
482.22513906
  0
POINT
  8
3
 10
2345.40833756
 20
486.50244861
  0
POINT
  8
3
 10
2368.43544642
 20
491.09011676
  0
POINT
  8
2
 10
2391.41381226
 20
495.97509451
  0
TEXT
  8
2
 10
2391.41381226
 20
495.97509451
 40
10.00000000
 50
0.00000000
  1
# 5
  0
POINT
  8
3
 10
2395.20602405
 20
487.80506849
  0
POINT
  8
3
 10
2399.75219116
 20
480.09350271
  0
POINT
  8
3
 10
2405.01354783
 20
472.77194504
  0
POINT
  8
3
 10
2411.24974976
 20
466.33312674
  0
POINT
  8
3
 10
2418.51132444
 20
461.32643417
  0
POINT
  8
3
 10
2426.49389038
 20
457.47253103
  0
POINT
  8
3
 10
2435.03727946
 20
454.44715277
  0
POINT
  8
2
 10
2443.96068726
 20
452.42211599
  0
TEXT
  8
2
 10
2443.96068726
 20
452.42211599
 40
10.00000000
 50
0.00000000
  1
# 6
  0
POINT
  8
3
 10
2456.83569180
 20
449.96473783
  0
POINT
  8
3
 10
2469.73261892
 20
447.65761322
  0
POINT
  8
3
 10
2482.65495716
 20
445.52467115
  0
POINT
  8
3
 10
2495.60619507
 20
443.58984060
  0
POINT
  8
3
 10
2508.67824994
 20
441.84975063
  0
POINT
  8
3
 10
2521.77255916
 20
440.26218826
  0
POINT
  8
3
 10
2547.98558960
 20
437.25414724
  0
POINT
  8
2
 10
2600.18724976
 20
430.92834158
  0
TEXT
  8
2
 10
2600.18724976
 20
430.92834158
 40
10.00000000
 50
0.00000000
  1
# 7
  0
POINT
  8
3
 10
2598.02611694
 20
402.65527029
  0
POINT
  8
3
 10
2596.03930054
 20
374.36840506
  0
POINT
  8
3
 10
2595.43964285
 20
360.20658126
  0
POINT
  8
2
 10
2595.13256226
 20
346.02990408
  0
TEXT
  8
2
 10
2595.13256226
 20
346.02990408
 40
10.00000000
 50
0.00000000
  1
# 8
  0
POINT
  8
2
 10
2595.10131226
 20
337.77221365
  0
TEXT
  8
2
 10
2595.10131226
 20
337.77221365
 40
10.00000000
 50
0.00000000
  1
# 9
  0
POINT
  8
2
 10
2595.08568726
 20
329.84643240
  0
TEXT
  8
2
 10
2595.08568726
 20
329.84643240
 40
10.00000000
 50
0.00000000
  1
# 10
  0
POINT
  8
3
 10
2595.41332397
 20
304.89269705
  0
POINT
  8
3
 10
2595.78309749
 20
288.85120056
  0
POINT
  8
3
 10
2596.47826538
 20
272.82653494
  0
POINT
  8
3
 10
2597.71437222
 20
256.84139957
  0
POINT
  8
2
 10
2599.46068726
 20
240.88927908
  0
TEXT
  8
2
 10
2599.46068726
 20
240.88927908
 40
10.00000000
 50
0.00000000
  1
# 11
  0
POINT
  8
3
 10
2600.31101152
 20
234.13940983
  0
POINT
  8
3
 10
2602.22350823
 20
220.67245471
  0
POINT
  8
3
 10
2603.84694152
 20
210.57905982
  0
POINT
  8
2
 10
2604.71849976
 20
205.54162283
  0
TEXT
  8
2
 10
2604.71849976
 20
205.54162283
 40
10.00000000
 50
0.00000000
  1
# 12
  0
POINT
  8
2
 10
2413.83568726
 20
174.09240408
  0
TEXT
  8
2
 10
2413.83568726
 20
174.09240408
 40
10.00000000
 50
0.00000000
  1
# 13
  0
POINT
  8
2
 10
2415.33568726
 20
179.09240408
  0
TEXT
  8
2
 10
2415.33568726
 20
179.09240408
 40
10.00000000
 50
0.00000000
  1
# 14
  0
POINT
  8
3
 10
2316.84057007
 20
194.20776052
  0
POINT
  8
3
 10
2267.86492738
 20
201.65996144
  0
POINT
  8
3
 10
2243.34496891
 20
205.13969726
  0
POINT
  8
3
 10
2218.78209839
 20
208.27636404
  0
POINT
  8
3
 10
2194.09288065
 20
210.97712415
  0
POINT
  8
3
 10
2169.35784644
 20
213.26849901
  0
POINT
  8
3
 10
2144.59055344
 20
215.22109398
  0
POINT
  8
3
 10
2119.80455933
 20
216.90551443
  0
POINT
  8
3
 10
2095.00717077
 20
218.37685452
  0
POINT
  8
3
 10
2070.20011723
 20
219.62703362
  0
POINT
  8
3
 10
2045.37887848
 20
220.63251147
  0
POINT
  8
2
 10
2020.53893433
 20
221.36974783
  0
TEXT
  8
2
 10
2020.53893433
 20
221.36974783
 40
10.00000000
 50
0.00000000
  1
# 15
  0
POINT
  8
2
 10
1539.39806519
 20
243.26427908
  0
TEXT
  8
2
 10
1539.39806519
 20
243.26427908
 40
10.00000000
 50
0.00000000
  1
# 16
  0
POINT
  8
4
 10
2019.85143433
 20
450.48302908
 30
7.50000000
 50
272.25309554
  0
TEXT
  8
1
 10
2019.85143433
 20
450.48302908
 40
10.00000000
 50
0.00000000
  1
# 17
  0
POINT
  8
4
 10
2443.96068726
 20
452.42211599
 30
7.50000000
 50
258.20418156
  0
TEXT
  8
1
 10
2443.96068726
 20
452.42211599
 40
10.00000000
 50
0.00000000
  1
# 18
  0
POINT
  8
4
 10
2595.10131226
 20
337.77221365
 30
7.50000000
 50
179.83511005
  0
TEXT
  8
1
 10
2595.10131226
 20
337.77221365
 40
10.00000000
 50
0.00000000
  1
# 19
  0
POINT
  8
4
 10
2599.46068726
 20
240.88927908
 30
5.09901956
 50
191.30993510
  0
TEXT
  8
1
 10
2599.46068726
 20
240.88927908
 40
10.00000000
 50
0.00000000
  1
# 20
  0
POINT
  8
4
 10
2415.33568726
 20
179.09240408
 30
8.38152716
 50
432.64597847
  0
TEXT
  8
1
 10
2415.33568726
 20
179.09240408
 40
10.00000000
 50
0.00000000
  1
# 21
  0
POINT
  8
4
 10
2020.53893433
 20
221.36974783
 30
7.50000000
 50
447.84725899
  0
TEXT
  8
1
 10
2020.53893433
 20
221.36974783
 40
10.00000000
 50
0.00000000
  1
# 22
  0
ENDBLK
  0
BLOCK
  8
1
  2
2
 70
64
 10
0.0
 20
0.0
  0
LINE
  8
7
 10
466.41198616
 20
1066.60517979
 11
1046.21264534
 21
1066.60517979
  0
TEXT
  8
1
 10
0.00000000
 20
0.00000000
 40
20.00000000
 50
0.00000000
  1
Size: 42
  0
TEXT
  8
1
 10
756.31231575
 20
1081.60517979
 40
20.00000000
 50
0.00000000
  1
Piece Name: BKALU.T
  0
TEXT
  8
1
 10
756.31231575
 20
1081.60517979
 40
20.00000000
 50
0.00000000
  1
Quantity: 1
  0
TEXT
  8
1
 10
756.31231575
 20
1081.60517979
 40
20.00000000
 50
0.00000000
  1
Rotation: 0
  0
TEXT
  8
1
 10
756.31231575
 20
1081.60517979
 40
20.00000000
 50
0.00000000
  1
Tilt: 0
  0
TEXT
  8
1
 10
756.31231575
 20
1081.60517979
 40
20.00000000
 50
0.00000000
  1
Fold: N
  0
TEXT
  8
1
 10
756.31231575
 20
1081.60517979
 40
20.00000000
 50
0.00000000
  1
Material: 1
  0
POLYLINE
  8
1
 66
1
 70
1
  0
VERTEX
  8
1
 10
207.04483643
 20
1202.24871006
  0
VERTEX
  8
1
 10
257.04678955
 20
1199.17070713
  0
VERTEX
  8
1
 10
738.18375244
 20
1220.14031163
  0
VERTEX
  8
1
 10
762.32659568
 20
1221.52284549
  0
VERTEX
  8
1
 10
786.44978133
 20
1223.11995736
  0
VERTEX
  8
1
 10
834.67655029
 20
1226.71355381
  0
VERTEX
  8
1
 10
858.74814621
 20
1228.62493551
  0
VERTEX
  8
1
 10
882.80013963
 20
1230.75020733
  0
VERTEX
  8
1
 10
906.80309473
 20
1233.27206938
  0
VERTEX
  8
1
 10
930.72757568
 20
1236.37322178
  0
VERTEX
  8
1
 10
954.54197061
 20
1240.17973373
  0
VERTEX
  8
1
 10
978.26172044
 20
1244.60042571
  0
VERTEX
  8
1
 10
1001.90000580
 20
1249.48808213
  0
VERTEX
  8
1
 10
1025.47000732
 20
1254.69548741
  0
VERTEX
  8
1
 10
1049.00797165
 20
1260.11423358
  0
VERTEX
  8
1
 10
1072.48630907
 20
1265.75505762
  0
VERTEX
  8
1
 10
1095.90061793
 20
1271.66712194
  0
VERTEX
  8
1
 10
1119.24649658
 20
1277.89958897
  0
VERTEX
  8
1
 10
1135.65899885
 20
1281.55488345
  0
VERTEX
  8
1
 10
1152.12164594
 20
1284.85427540
  0
VERTEX
  8
1
 10
1168.63963828
 20
1287.78069425
  0
VERTEX
  8
1
 10
1185.21817627
 20
1290.31706944
  0
VERTEX
  8
1
 10
1201.86045298
 20
1292.45788087
  0
VERTEX
  8
1
 10
1218.55288375
 20
1294.24272594
  0
VERTEX
  8
1
 10
1235.27986508
 20
1295.72282382
  0
VERTEX
  8
1
 10
1252.02579346
 20
1296.94939366
  0
VERTEX
  8
1
 10
1268.77962375
 20
1297.96233181
  0
VERTEX
  8
1
 10
1285.54199975
 20
1298.75585983
  0
VERTEX
  8
1
 10
1302.31812319
 20
1299.31290281
  0
VERTEX
  8
1
 10
1319.11319580
 20
1299.61638585
  0
VERTEX
  8
1
 10
1320.76566406
 20
1281.34456112
  0
VERTEX
  8
1
 10
1322.74825619
 20
1263.11778094
  0
VERTEX
  8
1
 10
1325.06097219
 20
1244.93604530
  0
VERTEX
  8
1
 10
1327.70382059
 20
1226.79929922
  0
VERTEX
  8
1
 10
1330.67679486
 20
1208.70759796
  0
VERTEX
  8
1
 10
1333.97989502
 20
1190.66094151
  0
VERTEX
  8
1
 10
1338.15421143
 20
1181.81499424
  0
VERTEX
  8
1
 10
1337.51553955
 20
1171.32939854
  0
VERTEX
  8
1
 10
1340.95361267
 20
1151.92757777
  0
VERTEX
  8
1
 10
1347.93103156
 20
1113.14233718
  0
VERTEX
  8
1
 10
1355.04345664
 20
1074.38176076
  0
VERTEX
  8
1
 10
1358.65030518
 20
1055.01067295
  0
VERTEX
  8
1
 10
1366.64151611
 20
1020.35394230
  0
VERTEX
  8
1
 10
1331.29347610
 20
1013.89408431
  0
VERTEX
  8
1
 10
1313.59854697
 20
1010.78733993
  0
VERTEX
  8
1
 10
1295.88223877
 20
1007.80535832
  0
VERTEX
  8
1
 10
1224.92423096
 20
996.39935246
  0
VERTEX
  8
1
 10
1207.24331334
 20
993.24222116
  0
VERTEX
  8
1
 10
1189.59680119
 20
989.89012814
  0
VERTEX
  8
1
 10
1171.97911622
 20
986.37504474
  0
VERTEX
  8
1
 10
1154.38468018
 20
982.72894230
  0
VERTEX
  8
1
 10
1146.54357465
 20
980.75747617
  0
VERTEX
  8
1
 10
1139.32951004
 20
978.04484605
  0
VERTEX
  8
1
 10
1132.69161449
 20
974.54474745
  0
VERTEX
  8
1
 10
1126.57901611
 20
970.21087590
  0
VERTEX
  8
1
 10
1121.06619188
 20
965.12343166
  0
VERTEX
  8
1
 10
1116.16003011
 20
959.32069731
  0
VERTEX
  8
1
 10
1112.00883254
 20
952.93765972
  0
VERTEX
  8
1
 10
1108.76090088
 20
946.10930577
  0
VERTEX
  8
1
 10
1106.45707923
 20
938.78273137
  0
VERTEX
  8
1
 10
1105.01137445
 20
931.22666365
  0
VERTEX
  8
1
 10
1103.70938721
 20
915.81169835
  0
VERTEX
  8
1
 10
1103.32309599
 20
900.51817307
  0
VERTEX
  8
1
 10
1104.06387939
 20
885.20635167
  0
VERTEX
  8
1
 10
1097.51602783
 20
875.95964756
  0
VERTEX
  8
1
 10
1076.55277169
 20
887.27242236
  0
VERTEX
  8
1
 10
1055.22989317
 20
897.48157939
  0
VERTEX
  8
1
 10
1033.51111103
 20
906.52373412
  0
VERTEX
  8
1
 10
1011.36014404
 20
914.33550206
  0
VERTEX
  8
1
 10
989.12361310
 20
920.80228917
  0
VERTEX
  8
1
 10
966.53924142
 20
926.20087212
  0
VERTEX
  8
1
 10
943.71303835
 20
930.71645266
  0
VERTEX
  8
1
 10
920.75101318
 20
934.53423253
  0
VERTEX
  8
1
 10
897.73300361
 20
937.82134795
  0
VERTEX
  8
1
 10
874.68611828
 20
940.66547408
  0
VERTEX
  8
1
 10
851.61131663
 20
943.13660639
  0
VERTEX
  8
1
 10
828.50955811
 20
945.30474034
  0
VERTEX
  8
1
 10
805.38354508
 20
947.22416465
  0
VERTEX
  8
1
 10
782.23121925
 20
948.88729691
  0
VERTEX
  8
1
 10
759.05226084
 20
950.27080861
  0
VERTEX
  8
1
 10
735.84635010
 20
951.35137120
  0
VERTEX
  8
1
 10
257.04263916
 20
968.60589543
  0
VERTEX
  8
1
 10
207.04019775
 20
965.59942570
  0
SEQEND
  0
POLYLINE
  8
84
 66
1
 70
1
  0
VERTEX
  8
84
 10
207.04483643
 20
1202.24871006
  0
VERTEX
  8
84
 10
257.04678955
 20
1199.17070713
  0
VERTEX
  8
84
 10
738.18375244
 20
1220.14031163
  0
VERTEX
  8
84
 10
762.32659568
 20
1221.52284549
  0
VERTEX
  8
84
 10
786.44978133
 20
1223.11995736
  0
VERTEX
  8
84
 10
834.67655029
 20
1226.71355381
  0
VERTEX
  8
84
 10
858.74814621
 20
1228.62493551
  0
VERTEX
  8
84
 10
882.80013963
 20
1230.75020733
  0
VERTEX
  8
84
 10
906.80309473
 20
1233.27206938
  0
VERTEX
  8
84
 10
930.72757568
 20
1236.37322178
  0
VERTEX
  8
84
 10
954.54197061
 20
1240.17973373
  0
VERTEX
  8
84
 10
978.26172044
 20
1244.60042571
  0
VERTEX
  8
84
 10
1001.90000580
 20
1249.48808213
  0
VERTEX
  8
84
 10
1025.47000732
 20
1254.69548741
  0
VERTEX
  8
84
 10
1049.00797165
 20
1260.11423358
  0
VERTEX
  8
84
 10
1072.48630907
 20
1265.75505762
  0
VERTEX
  8
84
 10
1095.90061793
 20
1271.66712194
  0
VERTEX
  8
84
 10
1119.24649658
 20
1277.89958897
  0
VERTEX
  8
84
 10
1135.65899885
 20
1281.55488345
  0
VERTEX
  8
84
 10
1152.12164594
 20
1284.85427540
  0
VERTEX
  8
84
 10
1168.63963828
 20
1287.78069425
  0
VERTEX
  8
84
 10
1185.21817627
 20
1290.31706944
  0
VERTEX
  8
84
 10
1201.86045298
 20
1292.45788087
  0
VERTEX
  8
84
 10
1218.55288375
 20
1294.24272594
  0
VERTEX
  8
84
 10
1235.27986508
 20
1295.72282382
  0
VERTEX
  8
84
 10
1252.02579346
 20
1296.94939366
  0
VERTEX
  8
84
 10
1268.77962375
 20
1297.96233181
  0
VERTEX
  8
84
 10
1285.54199975
 20
1298.75585983
  0
VERTEX
  8
84
 10
1302.31812319
 20
1299.31290281
  0
VERTEX
  8
84
 10
1319.11319580
 20
1299.61638585
  0
VERTEX
  8
84
 10
1320.76566406
 20
1281.34456112
  0
VERTEX
  8
84
 10
1322.74825619
 20
1263.11778094
  0
VERTEX
  8
84
 10
1325.06097219
 20
1244.93604530
  0
VERTEX
  8
84
 10
1327.70382059
 20
1226.79929922
  0
VERTEX
  8
84
 10
1330.67679486
 20
1208.70759796
  0
VERTEX
  8
84
 10
1333.97989502
 20
1190.66094151
  0
VERTEX
  8
84
 10
1338.15421143
 20
1181.81499424
  0
VERTEX
  8
84
 10
1337.51553955
 20
1171.32939854
  0
VERTEX
  8
84
 10
1340.95361267
 20
1151.92757777
  0
VERTEX
  8
84
 10
1347.93103156
 20
1113.14233718
  0
VERTEX
  8
84
 10
1355.04345664
 20
1074.38176076
  0
VERTEX
  8
84
 10
1358.65030518
 20
1055.01067295
  0
VERTEX
  8
84
 10
1366.64151611
 20
1020.35394230
  0
VERTEX
  8
84
 10
1331.29347610
 20
1013.89408431
  0
VERTEX
  8
84
 10
1313.59854697
 20
1010.78733993
  0
VERTEX
  8
84
 10
1295.88223877
 20
1007.80535832
  0
VERTEX
  8
84
 10
1224.92423096
 20
996.39935246
  0
VERTEX
  8
84
 10
1207.24331334
 20
993.24222116
  0
VERTEX
  8
84
 10
1189.59680119
 20
989.89012814
  0
VERTEX
  8
84
 10
1171.97911622
 20
986.37504474
  0
VERTEX
  8
84
 10
1154.38468018
 20
982.72894230
  0
VERTEX
  8
84
 10
1146.54357465
 20
980.75747617
  0
VERTEX
  8
84
 10
1139.32951004
 20
978.04484605
  0
VERTEX
  8
84
 10
1132.69161449
 20
974.54474745
  0
VERTEX
  8
84
 10
1126.57901611
 20
970.21087590
  0
VERTEX
  8
84
 10
1121.06619188
 20
965.12343166
  0
VERTEX
  8
84
 10
1116.16003011
 20
959.32069731
  0
VERTEX
  8
84
 10
1112.00883254
 20
952.93765972
  0
VERTEX
  8
84
 10
1108.76090088
 20
946.10930577
  0
VERTEX
  8
84
 10
1106.45707923
 20
938.78273137
  0
VERTEX
  8
84
 10
1105.01137445
 20
931.22666365
  0
VERTEX
  8
84
 10
1103.70938721
 20
915.81169835
  0
VERTEX
  8
84
 10
1103.32309599
 20
900.51817307
  0
VERTEX
  8
84
 10
1104.06387939
 20
885.20635167
  0
VERTEX
  8
84
 10
1097.51602783
 20
875.95964756
  0
VERTEX
  8
84
 10
1076.55277169
 20
887.27242236
  0
VERTEX
  8
84
 10
1055.22989317
 20
897.48157939
  0
VERTEX
  8
84
 10
1033.51111103
 20
906.52373412
  0
VERTEX
  8
84
 10
1011.36014404
 20
914.33550206
  0
VERTEX
  8
84
 10
989.12361310
 20
920.80228917
  0
VERTEX
  8
84
 10
966.53924142
 20
926.20087212
  0
VERTEX
  8
84
 10
943.71303835
 20
930.71645266
  0
VERTEX
  8
84
 10
920.75101318
 20
934.53423253
  0
VERTEX
  8
84
 10
897.73300361
 20
937.82134795
  0
VERTEX
  8
84
 10
874.68611828
 20
940.66547408
  0
VERTEX
  8
84
 10
851.61131663
 20
943.13660639
  0
VERTEX
  8
84
 10
828.50955811
 20
945.30474034
  0
VERTEX
  8
84
 10
805.38354508
 20
947.22416465
  0
VERTEX
  8
84
 10
782.23121925
 20
948.88729691
  0
VERTEX
  8
84
 10
759.05226084
 20
950.27080861
  0
VERTEX
  8
84
 10
735.84635010
 20
951.35137120
  0
VERTEX
  8
84
 10
257.04263916
 20
968.60589543
  0
VERTEX
  8
84
 10
207.04019775
 20
965.59942570
  0
SEQEND
  0
POINT
  8
2
 10
207.04483643
 20
1202.24871006
  0
TEXT
  8
2
 10
207.04483643
 20
1202.24871006
 40
10.00000000
 50
0.00000000
  1
# 23
  0
POINT
  8
2
 10
257.04678955
 20
1199.17070713
  0
TEXT
  8
2
 10
257.04678955
 20
1199.17070713
 40
10.00000000
 50
0.00000000
  1
# 24
  0
POINT
  8
2
 10
738.18375244
 20
1220.14031163
  0
TEXT
  8
2
 10
738.18375244
 20
1220.14031163
 40
10.00000000
 50
0.00000000
  1
# 25
  0
POINT
  8
3
 10
762.32659568
 20
1221.52284549
  0
POINT
  8
3
 10
786.44978133
 20
1223.11995736
  0
POINT
  8
3
 10
834.67655029
 20
1226.71355381
  0
POINT
  8
3
 10
858.74814621
 20
1228.62493551
  0
POINT
  8
3
 10
882.80013963
 20
1230.75020733
  0
POINT
  8
3
 10
906.80309473
 20
1233.27206938
  0
POINT
  8
3
 10
930.72757568
 20
1236.37322178
  0
POINT
  8
3
 10
954.54197061
 20
1240.17973373
  0
POINT
  8
3
 10
978.26172044
 20
1244.60042571
  0
POINT
  8
3
 10
1001.90000580
 20
1249.48808213
  0
POINT
  8
3
 10
1025.47000732
 20
1254.69548741
  0
POINT
  8
3
 10
1049.00797165
 20
1260.11423358
  0
POINT
  8
3
 10
1072.48630907
 20
1265.75505762
  0
POINT
  8
3
 10
1095.90061793
 20
1271.66712194
  0
POINT
  8
2
 10
1119.24649658
 20
1277.89958897
  0
TEXT
  8
2
 10
1119.24649658
 20
1277.89958897
 40
10.00000000
 50
0.00000000
  1
# 26
  0
POINT
  8
3
 10
1135.65899885
 20
1281.55488345
  0
POINT
  8
3
 10
1152.12164594
 20
1284.85427540
  0
POINT
  8
3
 10
1168.63963828
 20
1287.78069425
  0
POINT
  8
3
 10
1185.21817627
 20
1290.31706944
  0
POINT
  8
3
 10
1201.86045298
 20
1292.45788087
  0
POINT
  8
3
 10
1218.55288375
 20
1294.24272594
  0
POINT
  8
3
 10
1235.27986508
 20
1295.72282382
  0
POINT
  8
3
 10
1252.02579346
 20
1296.94939366
  0
POINT
  8
3
 10
1268.77962375
 20
1297.96233181
  0
POINT
  8
3
 10
1285.54199975
 20
1298.75585983
  0
POINT
  8
3
 10
1302.31812319
 20
1299.31290281
  0
POINT
  8
2
 10
1319.11319580
 20
1299.61638585
  0
TEXT
  8
2
 10
1319.11319580
 20
1299.61638585
 40
10.00000000
 50
0.00000000
  1
# 27
  0
POINT
  8
3
 10
1320.76566406
 20
1281.34456112
  0
POINT
  8
3
 10
1322.74825619
 20
1263.11778094
  0
POINT
  8
3
 10
1325.06097219
 20
1244.93604530
  0
POINT
  8
3
 10
1327.70382059
 20
1226.79929922
  0
POINT
  8
3
 10
1330.67679486
 20
1208.70759796
  0
POINT
  8
2
 10
1333.97989502
 20
1190.66094151
  0
TEXT
  8
2
 10
1333.97989502
 20
1190.66094151
 40
10.00000000
 50
0.00000000
  1
# 28
  0
POINT
  8
2
 10
1338.15421143
 20
1181.81499424
  0
TEXT
  8
2
 10
1338.15421143
 20
1181.81499424
 40
10.00000000
 50
0.00000000
  1
# 29
  0
POINT
  8
2
 10
1337.51553955
 20
1171.32939854
  0
TEXT
  8
2
 10
1337.51553955
 20
1171.32939854
 40
10.00000000
 50
0.00000000
  1
# 30
  0
POINT
  8
3
 10
1340.95361267
 20
1151.92757777
  0
POINT
  8
3
 10
1347.93103156
 20
1113.14233718
  0
POINT
  8
3
 10
1355.04345664
 20
1074.38176076
  0
POINT
  8
2
 10
1358.65030518
 20
1055.01067295
  0
TEXT
  8
2
 10
1358.65030518
 20
1055.01067295
 40
10.00000000
 50
0.00000000
  1
# 31
  0
POINT
  8
2
 10
1366.64151611
 20
1020.35394230
  0
TEXT
  8
2
 10
1366.64151611
 20
1020.35394230
 40
10.00000000
 50
0.00000000
  1
# 32
  0
POINT
  8
3
 10
1331.29347610
 20
1013.89408431
  0
POINT
  8
3
 10
1313.59854697
 20
1010.78733993
  0
POINT
  8
3
 10
1295.88223877
 20
1007.80535832
  0
POINT
  8
3
 10
1224.92423096
 20
996.39935246
  0
POINT
  8
3
 10
1207.24331334
 20
993.24222116
  0
POINT
  8
3
 10
1189.59680119
 20
989.89012814
  0
POINT
  8
3
 10
1171.97911622
 20
986.37504474
  0
POINT
  8
2
 10
1154.38468018
 20
982.72894230
  0
TEXT
  8
2
 10
1154.38468018
 20
982.72894230
 40
10.00000000
 50
0.00000000
  1
# 33
  0
POINT
  8
3
 10
1146.54357465
 20
980.75747617
  0
POINT
  8
3
 10
1139.32951004
 20
978.04484605
  0
POINT
  8
3
 10
1132.69161449
 20
974.54474745
  0
POINT
  8
3
 10
1126.57901611
 20
970.21087590
  0
POINT
  8
3
 10
1121.06619188
 20
965.12343166
  0
POINT
  8
3
 10
1116.16003011
 20
959.32069731
  0
POINT
  8
3
 10
1112.00883254
 20
952.93765972
  0
POINT
  8
3
 10
1108.76090088
 20
946.10930577
  0
POINT
  8
3
 10
1106.45707923
 20
938.78273137
  0
POINT
  8
3
 10
1105.01137445
 20
931.22666365
  0
POINT
  8
3
 10
1103.70938721
 20
915.81169835
  0
POINT
  8
3
 10
1103.32309599
 20
900.51817307
  0
POINT
  8
2
 10
1104.06387939
 20
885.20635167
  0
TEXT
  8
2
 10
1104.06387939
 20
885.20635167
 40
10.00000000
 50
0.00000000
  1
# 34
  0
POINT
  8
2
 10
1097.51602783
 20
875.95964756
  0
TEXT
  8
2
 10
1097.51602783
 20
875.95964756
 40
10.00000000
 50
0.00000000
  1
# 35
  0
POINT
  8
3
 10
1076.55277169
 20
887.27242236
  0
POINT
  8
3
 10
1055.22989317
 20
897.48157939
  0
POINT
  8
3
 10
1033.51111103
 20
906.52373412
  0
POINT
  8
3
 10
1011.36014404
 20
914.33550206
  0
POINT
  8
3
 10
989.12361310
 20
920.80228917
  0
POINT
  8
3
 10
966.53924142
 20
926.20087212
  0
POINT
  8
3
 10
943.71303835
 20
930.71645266
  0
POINT
  8
3
 10
920.75101318
 20
934.53423253
  0
POINT
  8
3
 10
897.73300361
 20
937.82134795
  0
POINT
  8
3
 10
874.68611828
 20
940.66547408
  0
POINT
  8
3
 10
851.61131663
 20
943.13660639
  0
POINT
  8
3
 10
828.50955811
 20
945.30474034
  0
POINT
  8
3
 10
805.38354508
 20
947.22416465
  0
POINT
  8
3
 10
782.23121925
 20
948.88729691
  0
POINT
  8
3
 10
759.05226084
 20
950.27080861
  0
POINT
  8
2
 10
735.84635010
 20
951.35137120
  0
TEXT
  8
2
 10
735.84635010
 20
951.35137120
 40
10.00000000
 50
0.00000000
  1
# 36
  0
POINT
  8
2
 10
257.04263916
 20
968.60589543
  0
TEXT
  8
2
 10
257.04263916
 20
968.60589543
 40
10.00000000
 50
0.00000000
  1
# 37
  0
POINT
  8
2
 10
207.04019775
 20
965.59942570
  0
TEXT
  8
2
 10
207.04019775
 20
965.59942570
 40
10.00000000
 50
0.00000000
  1
# 38
  0
POINT
  8
4
 10
738.18375244
 20
1220.14031163
 30
7.50000000
 50
272.88650847
  0
TEXT
  8
1
 10
738.18375244
 20
1220.14031163
 40
10.00000000
 50
0.00000000
  1
# 39
  0
POINT
  8
4
 10
1338.15421143
 20
1181.81499424
 30
7.50000000
 50
190.88831009
  0
TEXT
  8
1
 10
1338.15421143
 20
1181.81499424
 40
10.00000000
 50
0.00000000
  1
# 40
  0
POINT
  8
4
 10
1358.65030518
 20
1055.01067295
 30
7.50000000
 50
191.76598300
  0
TEXT
  8
1
 10
1358.65030518
 20
1055.01067295
 40
10.00000000
 50
0.00000000
  1
# 41
  0
POINT
  8
4
 10
735.84635010
 20
951.35137120
 30
7.50000000
 50
447.63506939
  0
TEXT
  8
1
 10
735.84635010
 20
951.35137120
 40
10.00000000
 50
0.00000000
  1
# 42
  0
ENDBLK
  0
BLOCK
  8
1
  2
3
 70
64
 10
0.0
 20
0.0
  0
LINE
  8
7
 10
108.77152613
 20
170.32014734
 11
229.85258082
 21
170.32014734
  0
TEXT
  8
1
 10
0.00000000
 20
0.00000000
 40
20.00000000
 50
0.00000000
  1
Size: 42
  0
TEXT
  8
1
 10
169.31205348
 20
177.82014734
 40
10.00000000
 50
0.00000000
  1
Piece Name: BKALU.VI
  0
TEXT
  8
1
 10
169.31205348
 20
177.82014734
 40
10.00000000
 50
0.00000000
  1
Quantity: 1
  0
TEXT
  8
1
 10
169.31205348
 20
177.82014734
 40
10.00000000
 50
0.00000000
  1
Rotation: 0
  0
TEXT
  8
1
 10
169.31205348
 20
177.82014734
 40
10.00000000
 50
0.00000000
  1
Tilt: 0
  0
TEXT
  8
1
 10
169.31205348
 20
177.82014734
 40
10.00000000
 50
0.00000000
  1
Fold: N
  0
TEXT
  8
1
 10
169.31205348
 20
177.82014734
 40
10.00000000
 50
0.00000000
  1
Material: 1
  0
POLYLINE
  8
1
 66
1
 70
1
  0
VERTEX
  8
1
 10
274.86142578
 20
229.00528240
  0
VERTEX
  8
1
 10
278.15634766
 20
185.26309490
  0
VERTEX
  8
1
 10
284.98642578
 20
140.11465740
  0
VERTEX
  8
1
 10
261.18495741
 20
135.57309464
  0
VERTEX
  8
1
 10
237.29111328
 20
131.59244061
  0
VERTEX
  8
1
 10
218.51380180
 20
128.81135376
  0
VERTEX
  8
1
 10
199.68250112
 20
126.39943115
  0
VERTEX
  8
1
 10
180.80809441
 20
124.46139363
  0
VERTEX
  8
1
 10
161.90146484
 20
123.10196209
  0
VERTEX
  8
1
 10
144.95783434
 20
122.44424532
  0
VERTEX
  8
1
 10
127.99409433
 20
122.30503684
  0
VERTEX
  8
1
 10
111.00723294
 20
122.65535543
  0
VERTEX
  8
1
 10
93.99423828
 20
123.46621990
  0
VERTEX
  8
1
 10
78.96884766
 20
125.05313396
  0
VERTEX
  8
1
 10
79.59775391
 20
137.94864178
  0
VERTEX
  8
1
 10
55.56845703
 20
139.85684490
  0
VERTEX
  8
1
 10
42.82431641
 20
181.79043865
  0
SEQEND
  0
POLYLINE
  8
84
 66
1
 70
1
  0
VERTEX
  8
84
 10
274.86142578
 20
229.00528240
  0
VERTEX
  8
84
 10
278.15634766
 20
185.26309490
  0
VERTEX
  8
84
 10
284.98642578
 20
140.11465740
  0
VERTEX
  8
84
 10
261.18495741
 20
135.57309464
  0
VERTEX
  8
84
 10
237.29111328
 20
131.59244061
  0
VERTEX
  8
84
 10
218.51380180
 20
128.81135376
  0
VERTEX
  8
84
 10
199.68250112
 20
126.39943115
  0
VERTEX
  8
84
 10
180.80809441
 20
124.46139363
  0
VERTEX
  8
84
 10
161.90146484
 20
123.10196209
  0
VERTEX
  8
84
 10
144.95783434
 20
122.44424532
  0
VERTEX
  8
84
 10
127.99409433
 20
122.30503684
  0
VERTEX
  8
84
 10
111.00723294
 20
122.65535543
  0
VERTEX
  8
84
 10
93.99423828
 20
123.46621990
  0
VERTEX
  8
84
 10
78.96884766
 20
125.05313396
  0
VERTEX
  8
84
 10
79.59775391
 20
137.94864178
  0
VERTEX
  8
84
 10
55.56845703
 20
139.85684490
  0
VERTEX
  8
84
 10
42.82431641
 20
181.79043865
  0
SEQEND
  0
POINT
  8
2
 10
274.86142578
 20
229.00528240
  0
TEXT
  8
2
 10
274.86142578
 20
229.00528240
 40
10.00000000
 50
0.00000000
  1
# 43
  0
POINT
  8
2
 10
278.15634766
 20
185.26309490
  0
TEXT
  8
2
 10
278.15634766
 20
185.26309490
 40
10.00000000
 50
0.00000000
  1
# 44
  0
POINT
  8
2
 10
284.98642578
 20
140.11465740
  0
TEXT
  8
2
 10
284.98642578
 20
140.11465740
 40
10.00000000
 50
0.00000000
  1
# 45
  0
POINT
  8
3
 10
261.18495741
 20
135.57309464
  0
POINT
  8
3
 10
237.29111328
 20
131.59244061
  0
POINT
  8
3
 10
218.51380180
 20
128.81135376
  0
POINT
  8
3
 10
199.68250112
 20
126.39943115
  0
POINT
  8
3
 10
180.80809441
 20
124.46139363
  0
POINT
  8
3
 10
161.90146484
 20
123.10196209
  0
POINT
  8
3
 10
144.95783434
 20
122.44424532
  0
POINT
  8
3
 10
127.99409433
 20
122.30503684
  0
POINT
  8
3
 10
111.00723294
 20
122.65535543
  0
POINT
  8
2
 10
93.99423828
 20
123.46621990
  0
TEXT
  8
2
 10
93.99423828
 20
123.46621990
 40
10.00000000
 50
0.00000000
  1
# 46
  0
POINT
  8
2
 10
78.96884766
 20
125.05313396
  0
TEXT
  8
2
 10
78.96884766
 20
125.05313396
 40
10.00000000
 50
0.00000000
  1
# 47
  0
POINT
  8
2
 10
79.59775391
 20
137.94864178
  0
TEXT
  8
2
 10
79.59775391
 20
137.94864178
 40
10.00000000
 50
0.00000000
  1
# 48
  0
POINT
  8
2
 10
55.56845703
 20
139.85684490
  0
TEXT
  8
2
 10
55.56845703
 20
139.85684490
 40
10.00000000
 50
0.00000000
  1
# 49
  0
POINT
  8
2
 10
42.82431641
 20
181.79043865
  0
TEXT
  8
2
 10
42.82431641
 20
181.79043865
 40
10.00000000
 50
0.00000000
  1
# 50
  0
POINT
  8
4
 10
278.15634766
 20
185.26309490
 30
6.56288991
 50
194.73179899
  0
TEXT
  8
1
 10
278.15634766
 20
185.26309490
 40
10.00000000
 50
0.00000000
  1
# 51
  0
POINT
  8
4
 10
93.99423828
 20
123.46621990
 30
5.71319380
 50
433.91530680
  0
TEXT
  8
1
 10
93.99423828
 20
123.46621990
 40
10.00000000
 50
0.00000000
  1
# 52
  0
ENDBLK
  0
BLOCK
  8
1
  2
4
 70
64
 10
0.0
 20
0.0
  0
LINE
  8
7
 10
284.30099609
 20
434.12106142
 11
557.80087402
 21
434.12106142
  0
TEXT
  8
1
 10
0.00000000
 20
0.00000000
 40
10.00000000
 50
0.00000000
  1
Size: 42
  0
TEXT
  8
1
 10
421.05093506
 20
449.12106142
 40
20.00000000
 50
0.00000000
  1
Piece Name: BKALU.C6D
  0
TEXT
  8
1
 10
421.05093506
 20
449.12106142
 40
20.00000000
 50
0.00000000
  1
Quantity: 1
  0
TEXT
  8
1
 10
421.05093506
 20
449.12106142
 40
20.00000000
 50
0.00000000
  1
Rotation: 0
  0
TEXT
  8
1
 10
421.05093506
 20
449.12106142
 40
20.00000000
 50
0.00000000
  1
Tilt: 0
  0
TEXT
  8
1
 10
421.05093506
 20
449.12106142
 40
20.00000000
 50
0.00000000
  1
Fold: N
  0
TEXT
  8
1
 10
421.05093506
 20
449.12106142
 40
20.00000000
 50
0.00000000
  1
Material: 1
  0
POLYLINE
  8
1
 66
1
 70
1
  0
VERTEX
  8
1
 10
694.54971924
 20
448.12106142
  0
VERTEX
  8
1
 10
694.54971924
 20
392.12106142
  0
VERTEX
  8
1
 10
659.54971924
 20
392.12106142
  0
VERTEX
  8
1
 10
613.54984131
 20
392.12106142
  0
VERTEX
  8
1
 10
607.54984131
 20
392.12106142
  0
VERTEX
  8
1
 10
472.04794922
 20
392.12106142
  0
VERTEX
  8
1
 10
466.04794922
 20
392.12106142
  0
VERTEX
  8
1
 10
333.04788818
 20
392.12106142
  0
VERTEX
  8
1
 10
327.04788818
 20
392.12106142
  0
VERTEX
  8
1
 10
227.54801025
 20
392.12106142
  0
VERTEX
  8
1
 10
147.54996338
 20
392.12106142
  0
VERTEX
  8
1
 10
147.54996338
 20
448.12106142
  0
VERTEX
  8
1
 10
192.54996338
 20
448.12106142
  0
VERTEX
  8
1
 10
658.54971924
 20
448.12106142
  0
VERTEX
  8
1
 10
660.54971924
 20
448.12106142
  0
SEQEND
  0
POLYLINE
  8
84
 66
1
 70
1
  0
VERTEX
  8
84
 10
694.54971924
 20
448.12106142
  0
VERTEX
  8
84
 10
694.54971924
 20
392.12106142
  0
VERTEX
  8
84
 10
659.54971924
 20
392.12106142
  0
VERTEX
  8
84
 10
613.54984131
 20
392.12106142
  0
VERTEX
  8
84
 10
607.54984131
 20
392.12106142
  0
VERTEX
  8
84
 10
472.04794922
 20
392.12106142
  0
VERTEX
  8
84
 10
466.04794922
 20
392.12106142
  0
VERTEX
  8
84
 10
333.04788818
 20
392.12106142
  0
VERTEX
  8
84
 10
327.04788818
 20
392.12106142
  0
VERTEX
  8
84
 10
227.54801025
 20
392.12106142
  0
VERTEX
  8
84
 10
147.54996338
 20
392.12106142
  0
VERTEX
  8
84
 10
147.54996338
 20
448.12106142
  0
VERTEX
  8
84
 10
192.54996338
 20
448.12106142
  0
VERTEX
  8
84
 10
658.54971924
 20
448.12106142
  0
VERTEX
  8
84
 10
660.54971924
 20
448.12106142
  0
SEQEND
  0
POINT
  8
2
 10
694.54971924
 20
448.12106142
  0
TEXT
  8
2
 10
694.54971924
 20
448.12106142
 40
10.00000000
 50
0.00000000
  1
# 53
  0
POINT
  8
2
 10
694.54971924
 20
392.12106142
  0
TEXT
  8
2
 10
694.54971924
 20
392.12106142
 40
10.00000000
 50
0.00000000
  1
# 54
  0
POINT
  8
2
 10
659.54971924
 20
392.12106142
  0
TEXT
  8
2
 10
659.54971924
 20
392.12106142
 40
10.00000000
 50
0.00000000
  1
# 55
  0
POINT
  8
2
 10
613.54984131
 20
392.12106142
  0
TEXT
  8
2
 10
613.54984131
 20
392.12106142
 40
10.00000000
 50
0.00000000
  1
# 56
  0
POINT
  8
2
 10
607.54984131
 20
392.12106142
  0
TEXT
  8
2
 10
607.54984131
 20
392.12106142
 40
10.00000000
 50
0.00000000
  1
# 57
  0
POINT
  8
2
 10
472.04794922
 20
392.12106142
  0
TEXT
  8
2
 10
472.04794922
 20
392.12106142
 40
10.00000000
 50
0.00000000
  1
# 58
  0
POINT
  8
2
 10
466.04794922
 20
392.12106142
  0
TEXT
  8
2
 10
466.04794922
 20
392.12106142
 40
10.00000000
 50
0.00000000
  1
# 59
  0
POINT
  8
2
 10
333.04788818
 20
392.12106142
  0
TEXT
  8
2
 10
333.04788818
 20
392.12106142
 40
10.00000000
 50
0.00000000
  1
# 60
  0
POINT
  8
2
 10
327.04788818
 20
392.12106142
  0
TEXT
  8
2
 10
327.04788818
 20
392.12106142
 40
10.00000000
 50
0.00000000
  1
# 61
  0
POINT
  8
2
 10
227.54801025
 20
392.12106142
  0
TEXT
  8
2
 10
227.54801025
 20
392.12106142
 40
10.00000000
 50
0.00000000
  1
# 62
  0
POINT
  8
2
 10
147.54996338
 20
392.12106142
  0
TEXT
  8
2
 10
147.54996338
 20
392.12106142
 40
10.00000000
 50
0.00000000
  1
# 63
  0
POINT
  8
2
 10
147.54996338
 20
448.12106142
  0
TEXT
  8
2
 10
147.54996338
 20
448.12106142
 40
10.00000000
 50
0.00000000
  1
# 64
  0
POINT
  8
2
 10
192.54996338
 20
448.12106142
  0
TEXT
  8
2
 10
192.54996338
 20
448.12106142
 40
10.00000000
 50
0.00000000
  1
# 65
  0
POINT
  8
2
 10
658.54971924
 20
448.12106142
  0
TEXT
  8
2
 10
658.54971924
 20
448.12106142
 40
10.00000000
 50
0.00000000
  1
# 66
  0
POINT
  8
2
 10
660.54971924
 20
448.12106142
  0
TEXT
  8
2
 10
660.54971924
 20
448.12106142
 40
10.00000000
 50
0.00000000
  1
# 67
  0
POINT
  8
4
 10
659.54971924
 20
392.12106142
 30
7.50000000
 50
90.00000000
  0
TEXT
  8
1
 10
659.54971924
 20
392.12106142
 40
10.00000000
 50
0.00000000
  1
# 68
  0
POINT
  8
4
 10
613.54984131
 20
392.12106142
 30
7.07106781
 50
135.00000000
  0
TEXT
  8
1
 10
613.54984131
 20
392.12106142
 40
10.00000000
 50
0.00000000
  1
# 69
  0
POINT
  8
4
 10
607.54984131
 20
392.12106142
 30
7.07106781
 50
405.00000000
  0
TEXT
  8
1
 10
607.54984131
 20
392.12106142
 40
10.00000000
 50
0.00000000
  1
# 70
  0
POINT
  8
4
 10
472.04794922
 20
392.12106142
 30
7.07106781
 50
135.00000000
  0
TEXT
  8
1
 10
472.04794922
 20
392.12106142
 40
10.00000000
 50
0.00000000
  1
# 71
  0
POINT
  8
4
 10
466.04794922
 20
392.12106142
 30
7.07106781
 50
405.00000000
  0
TEXT
  8
1
 10
466.04794922
 20
392.12106142
 40
10.00000000
 50
0.00000000
  1
# 72
  0
POINT
  8
4
 10
333.04788818
 20
392.12106142
 30
7.07106781
 50
135.00000000
  0
TEXT
  8
1
 10
333.04788818
 20
392.12106142
 40
10.00000000
 50
0.00000000
  1
# 73
  0
POINT
  8
4
 10
327.04788818
 20
392.12106142
 30
7.07106781
 50
405.00000000
  0
TEXT
  8
1
 10
327.04788818
 20
392.12106142
 40
10.00000000
 50
0.00000000
  1
# 74
  0
POINT
  8
4
 10
227.54801025
 20
392.12106142
 30
7.50000000
 50
90.00000000
  0
TEXT
  8
1
 10
227.54801025
 20
392.12106142
 40
10.00000000
 50
0.00000000
  1
# 75
  0
POINT
  8
4
 10
192.54996338
 20
448.12106142
 30
7.50000000
 50
270.00000000
  0
TEXT
  8
1
 10
192.54996338
 20
448.12106142
 40
10.00000000
 50
0.00000000
  1
# 76
  0
POINT
  8
4
 10
658.54971924
 20
448.12106142
 30
7.50000000
 50
270.00000000
  0
TEXT
  8
1
 10
658.54971924
 20
448.12106142
 40
10.00000000
 50
0.00000000
  1
# 77
  0
POINT
  8
4
 10
660.54971924
 20
448.12106142
 30
7.50000000
 50
270.00000000
  0
TEXT
  8
1
 10
660.54971924
 20
448.12106142
 40
10.00000000
 50
0.00000000
  1
# 78
  0
ENDBLK
  0
BLOCK
  8
1
  2
5
 70
64
 10
0.0
 20
0.0
  0
LINE
  8
7
 10
666.29796875
 20
63.40000000
 11
979.79796875
 21
63.40000000
  0
TEXT
  8
1
 10
0.00000000
 20
0.00000000
 40
20.00000000
 50
0.00000000
  1
Size: 42
  0
TEXT
  8
1
 10
823.04796875
 20
78.40000000
 40
20.00000000
 50
0.00000000
  1
Piece Name: BKALU.C6E
  0
TEXT
  8
1
 10
823.04796875
 20
78.40000000
 40
20.00000000
 50
0.00000000
  1
Quantity: 1
  0
TEXT
  8
1
 10
823.04796875
 20
78.40000000
 40
20.00000000
 50
0.00000000
  1
Rotation: 0
  0
TEXT
  8
1
 10
823.04796875
 20
78.40000000
 40
20.00000000
 50
0.00000000
  1
Tilt: 0
  0
TEXT
  8
1
 10
823.04796875
 20
78.40000000
 40
20.00000000
 50
0.00000000
  1
Fold: N
  0
TEXT
  8
1
 10
823.04796875
 20
78.40000000
 40
20.00000000
 50
0.00000000
  1
Material: 1
  0
POLYLINE
  8
1
 66
1
 70
1
  0
VERTEX
  8
1
 10
509.55000000
 20
77.40000000
  0
VERTEX
  8
1
 10
543.55000000
 20
77.40000000
  0
VERTEX
  8
1
 10
545.55000000
 20
77.40000000
  0
VERTEX
  8
1
 10
975.55000000
 20
77.40000000
  0
VERTEX
  8
1
 10
977.55000000
 20
77.40000000
  0
VERTEX
  8
1
 10
1031.55000000
 20
77.40000000
  0
VERTEX
  8
1
 10
1086.55000000
 20
77.40000000
  0
VERTEX
  8
1
 10
1136.55000000
 20
77.40000000
  0
VERTEX
  8
1
 10
1136.55000000
 20
21.40000000
  0
VERTEX
  8
1
 10
1086.55000000
 20
21.40000000
  0
VERTEX
  8
1
 10
1032.55000000
 20
21.40000000
  0
VERTEX
  8
1
 10
1030.55000000
 20
21.40000000
  0
VERTEX
  8
1
 10
976.55000000
 20
21.40000000
  0
VERTEX
  8
1
 10
877.05000000
 20
21.40000000
  0
VERTEX
  8
1
 10
871.05000000
 20
21.40000000
  0
VERTEX
  8
1
 10
738.05000000
 20
21.40000000
  0
VERTEX
  8
1
 10
732.05000000
 20
21.40000000
  0
VERTEX
  8
1
 10
596.55000000
 20
21.40000000
  0
VERTEX
  8
1
 10
590.55000000
 20
21.40000000
  0
VERTEX
  8
1
 10
544.55000000
 20
21.40000000
  0
VERTEX
  8
1
 10
509.55000000
 20
21.40000000
  0
SEQEND
  0
POLYLINE
  8
84
 66
1
 70
1
  0
VERTEX
  8
84
 10
509.55000000
 20
77.40000000
  0
VERTEX
  8
84
 10
543.55000000
 20
77.40000000
  0
VERTEX
  8
84
 10
545.55000000
 20
77.40000000
  0
VERTEX
  8
84
 10
975.55000000
 20
77.40000000
  0
VERTEX
  8
84
 10
977.55000000
 20
77.40000000
  0
VERTEX
  8
84
 10
1031.55000000
 20
77.40000000
  0
VERTEX
  8
84
 10
1086.55000000
 20
77.40000000
  0
VERTEX
  8
84
 10
1136.55000000
 20
77.40000000
  0
VERTEX
  8
84
 10
1136.55000000
 20
21.40000000
  0
VERTEX
  8
84
 10
1086.55000000
 20
21.40000000
  0
VERTEX
  8
84
 10
1032.55000000
 20
21.40000000
  0
VERTEX
  8
84
 10
1030.55000000
 20
21.40000000
  0
VERTEX
  8
84
 10
976.55000000
 20
21.40000000
  0
VERTEX
  8
84
 10
877.05000000
 20
21.40000000
  0
VERTEX
  8
84
 10
871.05000000
 20
21.40000000
  0
VERTEX
  8
84
 10
738.05000000
 20
21.40000000
  0
VERTEX
  8
84
 10
732.05000000
 20
21.40000000
  0
VERTEX
  8
84
 10
596.55000000
 20
21.40000000
  0
VERTEX
  8
84
 10
590.55000000
 20
21.40000000
  0
VERTEX
  8
84
 10
544.55000000
 20
21.40000000
  0
VERTEX
  8
84
 10
509.55000000
 20
21.40000000
  0
SEQEND
  0
POINT
  8
2
 10
509.55000000
 20
77.40000000
  0
TEXT
  8
2
 10
509.55000000
 20
77.40000000
 40
10.00000000
 50
0.00000000
  1
# 79
  0
POINT
  8
2
 10
543.55000000
 20
77.40000000
  0
TEXT
  8
2
 10
543.55000000
 20
77.40000000
 40
10.00000000
 50
0.00000000
  1
# 80
  0
POINT
  8
2
 10
545.55000000
 20
77.40000000
  0
TEXT
  8
2
 10
545.55000000
 20
77.40000000
 40
10.00000000
 50
0.00000000
  1
# 81
  0
POINT
  8
2
 10
975.55000000
 20
77.40000000
  0
TEXT
  8
2
 10
975.55000000
 20
77.40000000
 40
10.00000000
 50
0.00000000
  1
# 82
  0
POINT
  8
2
 10
977.55000000
 20
77.40000000
  0
TEXT
  8
2
 10
977.55000000
 20
77.40000000
 40
10.00000000
 50
0.00000000
  1
# 83
  0
POINT
  8
3
 10
1031.55000000
 20
77.40000000
  0
POINT
  8
3
 10
1086.55000000
 20
77.40000000
  0
POINT
  8
2
 10
1136.55000000
 20
77.40000000
  0
TEXT
  8
2
 10
1136.55000000
 20
77.40000000
 40
10.00000000
 50
0.00000000
  1
# 84
  0
POINT
  8
2
 10
1136.55000000
 20
21.40000000
  0
TEXT
  8
2
 10
1136.55000000
 20
21.40000000
 40
10.00000000
 50
0.00000000
  1
# 85
  0
POINT
  8
3
 10
1086.55000000
 20
21.40000000
  0
POINT
  8
3
 10
1032.55000000
 20
21.40000000
  0
POINT
  8
3
 10
1030.55000000
 20
21.40000000
  0
POINT
  8
2
 10
976.55000000
 20
21.40000000
  0
TEXT
  8
2
 10
976.55000000
 20
21.40000000
 40
10.00000000
 50
0.00000000
  1
# 86
  0
POINT
  8
2
 10
877.05000000
 20
21.40000000
  0
TEXT
  8
2
 10
877.05000000
 20
21.40000000
 40
10.00000000
 50
0.00000000
  1
# 87
  0
POINT
  8
2
 10
871.05000000
 20
21.40000000
  0
TEXT
  8
2
 10
871.05000000
 20
21.40000000
 40
10.00000000
 50
0.00000000
  1
# 88
  0
POINT
  8
2
 10
738.05000000
 20
21.40000000
  0
TEXT
  8
2
 10
738.05000000
 20
21.40000000
 40
10.00000000
 50
0.00000000
  1
# 89
  0
POINT
  8
2
 10
732.05000000
 20
21.40000000
  0
TEXT
  8
2
 10
732.05000000
 20
21.40000000
 40
10.00000000
 50
0.00000000
  1
# 90
  0
POINT
  8
2
 10
596.55000000
 20
21.40000000
  0
TEXT
  8
2
 10
596.55000000
 20
21.40000000
 40
10.00000000
 50
0.00000000
  1
# 91
  0
POINT
  8
2
 10
590.55000000
 20
21.40000000
  0
TEXT
  8
2
 10
590.55000000
 20
21.40000000
 40
10.00000000
 50
0.00000000
  1
# 92
  0
POINT
  8
2
 10
544.55000000
 20
21.40000000
  0
TEXT
  8
2
 10
544.55000000
 20
21.40000000
 40
10.00000000
 50
0.00000000
  1
# 93
  0
POINT
  8
2
 10
509.55000000
 20
21.40000000
  0
TEXT
  8
2
 10
509.55000000
 20
21.40000000
 40
10.00000000
 50
0.00000000
  1
# 94
  0
POINT
  8
4
 10
543.55000000
 20
77.40000000
 30
7.50000000
 50
270.00000000
  0
TEXT
  8
1
 10
543.55000000
 20
77.40000000
 40
10.00000000
 50
0.00000000
  1
# 95
  0
POINT
  8
4
 10
545.55000000
 20
77.40000000
 30
7.50000000
 50
270.00000000
  0
TEXT
  8
1
 10
545.55000000
 20
77.40000000
 40
10.00000000
 50
0.00000000
  1
# 96
  0
POINT
  8
4
 10
975.55000000
 20
77.40000000
 30
7.50000000
 50
270.00000000
  0
TEXT
  8
1
 10
975.55000000
 20
77.40000000
 40
10.00000000
 50
0.00000000
  1
# 97
  0
POINT
  8
4
 10
977.55000000
 20
77.40000000
 30
7.50000000
 50
270.00000000
  0
TEXT
  8
1
 10
977.55000000
 20
77.40000000
 40
10.00000000
 50
0.00000000
  1
# 98
  0
POINT
  8
4
 10
1031.55000000
 20
77.40000000
 30
7.50000000
 50
270.00000000
  0
TEXT
  8
1
 10
1031.55000000
 20
77.40000000
 40
10.00000000
 50
0.00000000
  1
# 99
  0
POINT
  8
4
 10
1086.55000000
 20
77.40000000
 30
7.50000000
 50
270.00000000
  0
TEXT
  8
1
 10
1086.55000000
 20
77.40000000
 40
10.00000000
 50
0.00000000
  1
# 100
  0
POINT
  8
4
 10
1086.55000000
 20
21.40000000
 30
7.50000000
 50
90.00000000
  0
TEXT
  8
1
 10
1086.55000000
 20
21.40000000
 40
10.00000000
 50
0.00000000
  1
# 101
  0
POINT
  8
4
 10
1032.55000000
 20
21.40000000
 30
7.50000000
 50
90.00000000
  0
TEXT
  8
1
 10
1032.55000000
 20
21.40000000
 40
10.00000000
 50
0.00000000
  1
# 102
  0
POINT
  8
4
 10
1030.55000000
 20
21.40000000
 30
7.50000000
 50
90.00000000
  0
TEXT
  8
1
 10
1030.55000000
 20
21.40000000
 40
10.00000000
 50
0.00000000
  1
# 103
  0
POINT
  8
4
 10
976.55000000
 20
21.40000000
 30
7.50000000
 50
90.00000000
  0
TEXT
  8
1
 10
976.55000000
 20
21.40000000
 40
10.00000000
 50
0.00000000
  1
# 104
  0
POINT
  8
4
 10
877.05000000
 20
21.40000000
 30
7.07106781
 50
135.00000000
  0
TEXT
  8
1
 10
877.05000000
 20
21.40000000
 40
10.00000000
 50
0.00000000
  1
# 105
  0
POINT
  8
4
 10
871.05000000
 20
21.40000000
 30
7.07106781
 50
405.00000000
  0
TEXT
  8
1
 10
871.05000000
 20
21.40000000
 40
10.00000000
 50
0.00000000
  1
# 106
  0
POINT
  8
4
 10
738.05000000
 20
21.40000000
 30
7.07106781
 50
135.00000000
  0
TEXT
  8
1
 10
738.05000000
 20
21.40000000
 40
10.00000000
 50
0.00000000
  1
# 107
  0
POINT
  8
4
 10
732.05000000
 20
21.40000000
 30
7.07106781
 50
405.00000000
  0
TEXT
  8
1
 10
732.05000000
 20
21.40000000
 40
10.00000000
 50
0.00000000
  1
# 108
  0
POINT
  8
4
 10
596.55000000
 20
21.40000000
 30
7.07106781
 50
135.00000000
  0
TEXT
  8
1
 10
596.55000000
 20
21.40000000
 40
10.00000000
 50
0.00000000
  1
# 109
  0
POINT
  8
4
 10
590.55000000
 20
21.40000000
 30
7.07106781
 50
405.00000000
  0
TEXT
  8
1
 10
590.55000000
 20
21.40000000
 40
10.00000000
 50
0.00000000
  1
# 110
  0
POINT
  8
4
 10
544.55000000
 20
21.40000000
 30
7.50000000
 50
90.00000000
  0
TEXT
  8
1
 10
544.55000000
 20
21.40000000
 40
10.00000000
 50
0.00000000
  1
# 111
  0
ENDBLK
  0
BLOCK
  8
1
  2
6
 70
64
 10
0.0
 20
0.0
  0
LINE
  8
7
 10
284.29998779
 20
633.72111636
 11
557.80004883
 21
633.72111636
  0
TEXT
  8
1
 10
0.00000000
 20
0.00000000
 40
20.00000000
 50
0.00000000
  1
Size: 42
  0
TEXT
  8
1
 10
421.05001831
 20
648.72111636
 40
20.00000000
 50
0.00000000
  1
Piece Name: BKALU.C8D
  0
TEXT
  8
1
 10
421.05001831
 20
648.72111636
 40
20.00000000
 50
0.00000000
  1
Quantity: 1
  0
TEXT
  8
1
 10
421.05001831
 20
648.72111636
 40
20.00000000
 50
0.00000000
  1
Rotation: 0
  0
TEXT
  8
1
 10
421.05001831
 20
648.72111636
 40
20.00000000
 50
0.00000000
  1
Tilt: 0
  0
TEXT
  8
1
 10
421.05001831
 20
648.72111636
 40
20.00000000
 50
0.00000000
  1
Fold: N
  0
TEXT
  8
1
 10
421.05001831
 20
648.72111636
 40
20.00000000
 50
0.00000000
  1
Material: 1
  0
POLYLINE
  8
1
 66
1
 70
1
  0
VERTEX
  8
1
 10
694.55014038
 20
647.72113162
  0
VERTEX
  8
1
 10
694.55014038
 20
591.72107058
  0
VERTEX
  8
1
 10
659.55014038
 20
591.72107058
  0
VERTEX
  8
1
 10
613.55007935
 20
591.72107058
  0
VERTEX
  8
1
 10
607.55007935
 20
591.72107058
  0
VERTEX
  8
1
 10
519.30007935
 20
591.72107058
  0
VERTEX
  8
1
 10
513.30007935
 20
591.72107058
  0
VERTEX
  8
1
 10
425.05014038
 20
591.72107058
  0
VERTEX
  8
1
 10
419.05014038
 20
591.72107058
  0
VERTEX
  8
1
 10
330.55001831
 20
591.72107058
  0
VERTEX
  8
1
 10
324.55001831
 20
591.72107058
  0
VERTEX
  8
1
 10
227.55001831
 20
591.72107058
  0
VERTEX
  8
1
 10
147.55001831
 20
591.72107058
  0
VERTEX
  8
1
 10
147.55001831
 20
647.72113162
  0
VERTEX
  8
1
 10
192.55001831
 20
647.72113162
  0
VERTEX
  8
1
 10
658.55007935
 20
647.72113162
  0
VERTEX
  8
1
 10
660.55014038
 20
647.72113162
  0
SEQEND
  0
POLYLINE
  8
84
 66
1
 70
1
  0
VERTEX
  8
84
 10
694.55014038
 20
647.72113162
  0
VERTEX
  8
84
 10
694.55014038
 20
591.72107058
  0
VERTEX
  8
84
 10
659.55014038
 20
591.72107058
  0
VERTEX
  8
84
 10
613.55007935
 20
591.72107058
  0
VERTEX
  8
84
 10
607.55007935
 20
591.72107058
  0
VERTEX
  8
84
 10
519.30007935
 20
591.72107058
  0
VERTEX
  8
84
 10
513.30007935
 20
591.72107058
  0
VERTEX
  8
84
 10
425.05014038
 20
591.72107058
  0
VERTEX
  8
84
 10
419.05014038
 20
591.72107058
  0
VERTEX
  8
84
 10
330.55001831
 20
591.72107058
  0
VERTEX
  8
84
 10
324.55001831
 20
591.72107058
  0
VERTEX
  8
84
 10
227.55001831
 20
591.72107058
  0
VERTEX
  8
84
 10
147.55001831
 20
591.72107058
  0
VERTEX
  8
84
 10
147.55001831
 20
647.72113162
  0
VERTEX
  8
84
 10
192.55001831
 20
647.72113162
  0
VERTEX
  8
84
 10
658.55007935
 20
647.72113162
  0
VERTEX
  8
84
 10
660.55014038
 20
647.72113162
  0
SEQEND
  0
POINT
  8
2
 10
694.55014038
 20
647.72113162
  0
TEXT
  8
2
 10
694.55014038
 20
647.72113162
 40
10.00000000
 50
0.00000000
  1
# 112
  0
POINT
  8
2
 10
694.55014038
 20
591.72107058
  0
TEXT
  8
2
 10
694.55014038
 20
591.72107058
 40
10.00000000
 50
0.00000000
  1
# 113
  0
POINT
  8
2
 10
659.55014038
 20
591.72107058
  0
TEXT
  8
2
 10
659.55014038
 20
591.72107058
 40
10.00000000
 50
0.00000000
  1
# 114
  0
POINT
  8
2
 10
613.55007935
 20
591.72107058
  0
TEXT
  8
2
 10
613.55007935
 20
591.72107058
 40
10.00000000
 50
0.00000000
  1
# 115
  0
POINT
  8
2
 10
607.55007935
 20
591.72107058
  0
TEXT
  8
2
 10
607.55007935
 20
591.72107058
 40
10.00000000
 50
0.00000000
  1
# 116
  0
POINT
  8
2
 10
519.30007935
 20
591.72107058
  0
TEXT
  8
2
 10
519.30007935
 20
591.72107058
 40
10.00000000
 50
0.00000000
  1
# 117
  0
POINT
  8
2
 10
513.30007935
 20
591.72107058
  0
TEXT
  8
2
 10
513.30007935
 20
591.72107058
 40
10.00000000
 50
0.00000000
  1
# 118
  0
POINT
  8
2
 10
425.05014038
 20
591.72107058
  0
TEXT
  8
2
 10
425.05014038
 20
591.72107058
 40
10.00000000
 50
0.00000000
  1
# 119
  0
POINT
  8
2
 10
419.05014038
 20
591.72107058
  0
TEXT
  8
2
 10
419.05014038
 20
591.72107058
 40
10.00000000
 50
0.00000000
  1
# 120
  0
POINT
  8
2
 10
330.55001831
 20
591.72107058
  0
TEXT
  8
2
 10
330.55001831
 20
591.72107058
 40
10.00000000
 50
0.00000000
  1
# 121
  0
POINT
  8
2
 10
324.55001831
 20
591.72107058
  0
TEXT
  8
2
 10
324.55001831
 20
591.72107058
 40
10.00000000
 50
0.00000000
  1
# 122
  0
POINT
  8
2
 10
227.55001831
 20
591.72107058
  0
TEXT
  8
2
 10
227.55001831
 20
591.72107058
 40
10.00000000
 50
0.00000000
  1
# 123
  0
POINT
  8
2
 10
147.55001831
 20
591.72107058
  0
TEXT
  8
2
 10
147.55001831
 20
591.72107058
 40
10.00000000
 50
0.00000000
  1
# 124
  0
POINT
  8
2
 10
147.55001831
 20
647.72113162
  0
TEXT
  8
2
 10
147.55001831
 20
647.72113162
 40
10.00000000
 50
0.00000000
  1
# 125
  0
POINT
  8
2
 10
192.55001831
 20
647.72113162
  0
TEXT
  8
2
 10
192.55001831
 20
647.72113162
 40
10.00000000
 50
0.00000000
  1
# 126
  0
POINT
  8
2
 10
658.55007935
 20
647.72113162
  0
TEXT
  8
2
 10
658.55007935
 20
647.72113162
 40
10.00000000
 50
0.00000000
  1
# 127
  0
POINT
  8
2
 10
660.55014038
 20
647.72113162
  0
TEXT
  8
2
 10
660.55014038
 20
647.72113162
 40
10.00000000
 50
0.00000000
  1
# 128
  0
POINT
  8
4
 10
659.55014038
 20
591.72107058
 30
7.50000000
 50
90.00000000
  0
TEXT
  8
1
 10
659.55014038
 20
591.72107058
 40
10.00000000
 50
0.00000000
  1
# 129
  0
POINT
  8
4
 10
613.55007935
 20
591.72107058
 30
7.07106781
 50
135.00000000
  0
TEXT
  8
1
 10
613.55007935
 20
591.72107058
 40
10.00000000
 50
0.00000000
  1
# 130
  0
POINT
  8
4
 10
607.55007935
 20
591.72107058
 30
7.07106781
 50
405.00000000
  0
TEXT
  8
1
 10
607.55007935
 20
591.72107058
 40
10.00000000
 50
0.00000000
  1
# 131
  0
POINT
  8
4
 10
519.30007935
 20
591.72107058
 30
7.07106781
 50
135.00000000
  0
TEXT
  8
1
 10
519.30007935
 20
591.72107058
 40
10.00000000
 50
0.00000000
  1
# 132
  0
POINT
  8
4
 10
513.30007935
 20
591.72107058
 30
7.07106781
 50
405.00000000
  0
TEXT
  8
1
 10
513.30007935
 20
591.72107058
 40
10.00000000
 50
0.00000000
  1
# 133
  0
POINT
  8
4
 10
425.05014038
 20
591.72107058
 30
7.07106781
 50
135.00000000
  0
TEXT
  8
1
 10
425.05014038
 20
591.72107058
 40
10.00000000
 50
0.00000000
  1
# 134
  0
POINT
  8
4
 10
419.05014038
 20
591.72107058
 30
7.07106781
 50
405.00000000
  0
TEXT
  8
1
 10
419.05014038
 20
591.72107058
 40
10.00000000
 50
0.00000000
  1
# 135
  0
POINT
  8
4
 10
330.55001831
 20
591.72107058
 30
7.07106781
 50
135.00000000
  0
TEXT
  8
1
 10
330.55001831
 20
591.72107058
 40
10.00000000
 50
0.00000000
  1
# 136
  0
POINT
  8
4
 10
324.55001831
 20
591.72107058
 30
7.07106781
 50
405.00000000
  0
TEXT
  8
1
 10
324.55001831
 20
591.72107058
 40
10.00000000
 50
0.00000000
  1
# 137
  0
POINT
  8
4
 10
227.55001831
 20
591.72107058
 30
7.50000000
 50
90.00000000
  0
TEXT
  8
1
 10
227.55001831
 20
591.72107058
 40
10.00000000
 50
0.00000000
  1
# 138
  0
POINT
  8
4
 10
192.55001831
 20
647.72113162
 30
7.50000000
 50
270.00000000
  0
TEXT
  8
1
 10
192.55001831
 20
647.72113162
 40
10.00000000
 50
0.00000000
  1
# 139
  0
POINT
  8
4
 10
658.55007935
 20
647.72113162
 30
7.50000000
 50
270.00000000
  0
TEXT
  8
1
 10
658.55007935
 20
647.72113162
 40
10.00000000
 50
0.00000000
  1
# 140
  0
POINT
  8
4
 10
660.55014038
 20
647.72113162
 30
7.50000000
 50
270.00000000
  0
TEXT
  8
1
 10
660.55014038
 20
647.72113162
 40
10.00000000
 50
0.00000000
  1
# 141
  0
ENDBLK
  0
BLOCK
  8
1
  2
7
 70
64
 10
0.0
 20
0.0
  0
LINE
  8
7
 10
666.29996490
 20
533.92106142
 11
979.80021667
 21
533.92106142
  0
TEXT
  8
1
 10
0.00000000
 20
0.00000000
 40
20.00000000
 50
0.00000000
  1
Size: 42
  0
TEXT
  8
1
 10
823.05009079
 20
548.92106142
 40
20.00000000
 50
0.00000000
  1
Piece Name: BKALU.C8E
  0
TEXT
  8
1
 10
823.05009079
 20
548.92106142
 40
20.00000000
 50
0.00000000
  1
Quantity: 1
  0
TEXT
  8
1
 10
823.05009079
 20
548.92106142
 40
20.00000000
 50
0.00000000
  1
Rotation: 0
  0
TEXT
  8
1
 10
823.05009079
 20
548.92106142
 40
20.00000000
 50
0.00000000
  1
Tilt: 0
  0
TEXT
  8
1
 10
823.05009079
 20
548.92106142
 40
20.00000000
 50
0.00000000
  1
Fold: N
  0
TEXT
  8
1
 10
823.05009079
 20
548.92106142
 40
20.00000000
 50
0.00000000
  1
Material: 1
  0
POLYLINE
  8
1
 66
1
 70
1
  0
VERTEX
  8
1
 10
509.55007553
 20
547.92106142
  0
VERTEX
  8
1
 10
543.55007553
 20
547.92106142
  0
VERTEX
  8
1
 10
545.55007553
 20
547.92106142
  0
VERTEX
  8
1
 10
975.55057907
 20
547.92106142
  0
VERTEX
  8
1
 10
977.55057907
 20
547.92106142
  0
VERTEX
  8
1
 10
1031.55057907
 20
547.92106142
  0
VERTEX
  8
1
 10
1086.55057907
 20
547.92106142
  0
VERTEX
  8
1
 10
1136.55057907
 20
547.92106142
  0
VERTEX
  8
1
 10
1136.55057907
 20
491.92106142
  0
VERTEX
  8
1
 10
1086.55057907
 20
491.92106142
  0
VERTEX
  8
1
 10
1032.55057907
 20
491.92106142
  0
VERTEX
  8
1
 10
1030.55057907
 20
491.92106142
  0
VERTEX
  8
1
 10
976.55057907
 20
491.92106142
  0
VERTEX
  8
1
 10
879.55007553
 20
491.92106142
  0
VERTEX
  8
1
 10
873.55007553
 20
491.92106142
  0
VERTEX
  8
1
 10
785.05007553
 20
491.92106142
  0
VERTEX
  8
1
 10
779.05007553
 20
491.92106142
  0
VERTEX
  8
1
 10
690.80009079
 20
491.92106142
  0
VERTEX
  8
1
 10
684.80009079
 20
491.92106142
  0
VERTEX
  8
1
 10
596.55007553
 20
491.92106142
  0
VERTEX
  8
1
 10
590.55007553
 20
491.92106142
  0
VERTEX
  8
1
 10
544.55007553
 20
491.92106142
  0
VERTEX
  8
1
 10
509.55007553
 20
491.92106142
  0
SEQEND
  0
POLYLINE
  8
84
 66
1
 70
1
  0
VERTEX
  8
84
 10
509.55007553
 20
547.92106142
  0
VERTEX
  8
84
 10
543.55007553
 20
547.92106142
  0
VERTEX
  8
84
 10
545.55007553
 20
547.92106142
  0
VERTEX
  8
84
 10
975.55057907
 20
547.92106142
  0
VERTEX
  8
84
 10
977.55057907
 20
547.92106142
  0
VERTEX
  8
84
 10
1031.55057907
 20
547.92106142
  0
VERTEX
  8
84
 10
1086.55057907
 20
547.92106142
  0
VERTEX
  8
84
 10
1136.55057907
 20
547.92106142
  0
VERTEX
  8
84
 10
1136.55057907
 20
491.92106142
  0
VERTEX
  8
84
 10
1086.55057907
 20
491.92106142
  0
VERTEX
  8
84
 10
1032.55057907
 20
491.92106142
  0
VERTEX
  8
84
 10
1030.55057907
 20
491.92106142
  0
VERTEX
  8
84
 10
976.55057907
 20
491.92106142
  0
VERTEX
  8
84
 10
879.55007553
 20
491.92106142
  0
VERTEX
  8
84
 10
873.55007553
 20
491.92106142
  0
VERTEX
  8
84
 10
785.05007553
 20
491.92106142
  0
VERTEX
  8
84
 10
779.05007553
 20
491.92106142
  0
VERTEX
  8
84
 10
690.80009079
 20
491.92106142
  0
VERTEX
  8
84
 10
684.80009079
 20
491.92106142
  0
VERTEX
  8
84
 10
596.55007553
 20
491.92106142
  0
VERTEX
  8
84
 10
590.55007553
 20
491.92106142
  0
VERTEX
  8
84
 10
544.55007553
 20
491.92106142
  0
VERTEX
  8
84
 10
509.55007553
 20
491.92106142
  0
SEQEND
  0
POINT
  8
2
 10
509.55007553
 20
547.92106142
  0
TEXT
  8
2
 10
509.55007553
 20
547.92106142
 40
10.00000000
 50
0.00000000
  1
# 142
  0
POINT
  8
2
 10
543.55007553
 20
547.92106142
  0
TEXT
  8
2
 10
543.55007553
 20
547.92106142
 40
10.00000000
 50
0.00000000
  1
# 143
  0
POINT
  8
2
 10
545.55007553
 20
547.92106142
  0
TEXT
  8
2
 10
545.55007553
 20
547.92106142
 40
10.00000000
 50
0.00000000
  1
# 144
  0
POINT
  8
2
 10
975.55057907
 20
547.92106142
  0
TEXT
  8
2
 10
975.55057907
 20
547.92106142
 40
10.00000000
 50
0.00000000
  1
# 145
  0
POINT
  8
2
 10
977.55057907
 20
547.92106142
  0
TEXT
  8
2
 10
977.55057907
 20
547.92106142
 40
10.00000000
 50
0.00000000
  1
# 146
  0
POINT
  8
3
 10
1031.55057907
 20
547.92106142
  0
POINT
  8
3
 10
1086.55057907
 20
547.92106142
  0
POINT
  8
2
 10
1136.55057907
 20
547.92106142
  0
TEXT
  8
2
 10
1136.55057907
 20
547.92106142
 40
10.00000000
 50
0.00000000
  1
# 147
  0
POINT
  8
2
 10
1136.55057907
 20
491.92106142
  0
TEXT
  8
2
 10
1136.55057907
 20
491.92106142
 40
10.00000000
 50
0.00000000
  1
# 148
  0
POINT
  8
3
 10
1086.55057907
 20
491.92106142
  0
POINT
  8
3
 10
1032.55057907
 20
491.92106142
  0
POINT
  8
3
 10
1030.55057907
 20
491.92106142
  0
POINT
  8
2
 10
976.55057907
 20
491.92106142
  0
TEXT
  8
2
 10
976.55057907
 20
491.92106142
 40
10.00000000
 50
0.00000000
  1
# 149
  0
POINT
  8
2
 10
879.55007553
 20
491.92106142
  0
TEXT
  8
2
 10
879.55007553
 20
491.92106142
 40
10.00000000
 50
0.00000000
  1
# 150
  0
POINT
  8
2
 10
873.55007553
 20
491.92106142
  0
TEXT
  8
2
 10
873.55007553
 20
491.92106142
 40
10.00000000
 50
0.00000000
  1
# 151
  0
POINT
  8
2
 10
785.05007553
 20
491.92106142
  0
TEXT
  8
2
 10
785.05007553
 20
491.92106142
 40
10.00000000
 50
0.00000000
  1
# 152
  0
POINT
  8
2
 10
779.05007553
 20
491.92106142
  0
TEXT
  8
2
 10
779.05007553
 20
491.92106142
 40
10.00000000
 50
0.00000000
  1
# 153
  0
POINT
  8
2
 10
690.80009079
 20
491.92106142
  0
TEXT
  8
2
 10
690.80009079
 20
491.92106142
 40
10.00000000
 50
0.00000000
  1
# 154
  0
POINT
  8
2
 10
684.80009079
 20
491.92106142
  0
TEXT
  8
2
 10
684.80009079
 20
491.92106142
 40
10.00000000
 50
0.00000000
  1
# 155
  0
POINT
  8
2
 10
596.55007553
 20
491.92106142
  0
TEXT
  8
2
 10
596.55007553
 20
491.92106142
 40
10.00000000
 50
0.00000000
  1
# 156
  0
POINT
  8
2
 10
590.55007553
 20
491.92106142
  0
TEXT
  8
2
 10
590.55007553
 20
491.92106142
 40
10.00000000
 50
0.00000000
  1
# 157
  0
POINT
  8
2
 10
544.55007553
 20
491.92106142
  0
TEXT
  8
2
 10
544.55007553
 20
491.92106142
 40
10.00000000
 50
0.00000000
  1
# 158
  0
POINT
  8
2
 10
509.55007553
 20
491.92106142
  0
TEXT
  8
2
 10
509.55007553
 20
491.92106142
 40
10.00000000
 50
0.00000000
  1
# 159
  0
POINT
  8
4
 10
543.55007553
 20
547.92106142
 30
7.50000000
 50
270.00000000
  0
TEXT
  8
1
 10
543.55007553
 20
547.92106142
 40
10.00000000
 50
0.00000000
  1
# 160
  0
POINT
  8
4
 10
545.55007553
 20
547.92106142
 30
7.50000000
 50
270.00000000
  0
TEXT
  8
1
 10
545.55007553
 20
547.92106142
 40
10.00000000
 50
0.00000000
  1
# 161
  0
POINT
  8
4
 10
975.55057907
 20
547.92106142
 30
7.50000000
 50
270.00000000
  0
TEXT
  8
1
 10
975.55057907
 20
547.92106142
 40
10.00000000
 50
0.00000000
  1
# 162
  0
POINT
  8
4
 10
977.55057907
 20
547.92106142
 30
7.50000000
 50
270.00000000
  0
TEXT
  8
1
 10
977.55057907
 20
547.92106142
 40
10.00000000
 50
0.00000000
  1
# 163
  0
POINT
  8
4
 10
1031.55057907
 20
547.92106142
 30
7.50000000
 50
270.00000000
  0
TEXT
  8
1
 10
1031.55057907
 20
547.92106142
 40
10.00000000
 50
0.00000000
  1
# 164
  0
POINT
  8
4
 10
1086.55057907
 20
547.92106142
 30
7.50000000
 50
270.00000000
  0
TEXT
  8
1
 10
1086.55057907
 20
547.92106142
 40
10.00000000
 50
0.00000000
  1
# 165
  0
POINT
  8
4
 10
1086.55057907
 20
491.92106142
 30
7.50000000
 50
90.00000000
  0
TEXT
  8
1
 10
1086.55057907
 20
491.92106142
 40
10.00000000
 50
0.00000000
  1
# 166
  0
POINT
  8
4
 10
1032.55057907
 20
491.92106142
 30
7.50000000
 50
90.00000000
  0
TEXT
  8
1
 10
1032.55057907
 20
491.92106142
 40
10.00000000
 50
0.00000000
  1
# 167
  0
POINT
  8
4
 10
1030.55057907
 20
491.92106142
 30
7.50000000
 50
90.00000000
  0
TEXT
  8
1
 10
1030.55057907
 20
491.92106142
 40
10.00000000
 50
0.00000000
  1
# 168
  0
POINT
  8
4
 10
976.55057907
 20
491.92106142
 30
7.50000000
 50
90.00000000
  0
TEXT
  8
1
 10
976.55057907
 20
491.92106142
 40
10.00000000
 50
0.00000000
  1
# 169
  0
POINT
  8
4
 10
879.55007553
 20
491.92106142
 30
7.07106781
 50
135.00000000
  0
TEXT
  8
1
 10
879.55007553
 20
491.92106142
 40
10.00000000
 50
0.00000000
  1
# 170
  0
POINT
  8
4
 10
873.55007553
 20
491.92106142
 30
7.07106781
 50
405.00000000
  0
TEXT
  8
1
 10
873.55007553
 20
491.92106142
 40
10.00000000
 50
0.00000000
  1
# 171
  0
POINT
  8
4
 10
785.05007553
 20
491.92106142
 30
7.07106781
 50
135.00000000
  0
TEXT
  8
1
 10
785.05007553
 20
491.92106142
 40
10.00000000
 50
0.00000000
  1
# 172
  0
POINT
  8
4
 10
779.05007553
 20
491.92106142
 30
7.07106781
 50
405.00000000
  0
TEXT
  8
1
 10
779.05007553
 20
491.92106142
 40
10.00000000
 50
0.00000000
  1
# 173
  0
POINT
  8
4
 10
690.80009079
 20
491.92106142
 30
7.07106781
 50
135.00000000
  0
TEXT
  8
1
 10
690.80009079
 20
491.92106142
 40
10.00000000
 50
0.00000000
  1
# 174
  0
POINT
  8
4
 10
684.80009079
 20
491.92106142
 30
7.07106781
 50
405.00000000
  0
TEXT
  8
1
 10
684.80009079
 20
491.92106142
 40
10.00000000
 50
0.00000000
  1
# 175
  0
POINT
  8
4
 10
596.55007553
 20
491.92106142
 30
7.07106781
 50
135.00000000
  0
TEXT
  8
1
 10
596.55007553
 20
491.92106142
 40
10.00000000
 50
0.00000000
  1
# 176
  0
POINT
  8
4
 10
590.55007553
 20
491.92106142
 30
7.07106781
 50
405.00000000
  0
TEXT
  8
1
 10
590.55007553
 20
491.92106142
 40
10.00000000
 50
0.00000000
  1
# 177
  0
POINT
  8
4
 10
544.55007553
 20
491.92106142
 30
7.50000000
 50
90.00000000
  0
TEXT
  8
1
 10
544.55007553
 20
491.92106142
 40
10.00000000
 50
0.00000000
  1
# 178
  0
ENDBLK
  0
BLOCK
  8
1
  2
8
 70
64
 10
0.0
 20
0.0
  0
LINE
  8
7
 10
96.57180329
 20
306.85758486
 11
192.59920807
 21
306.85758486
  0
TEXT
  8
1
 10
0.00000000
 20
0.00000000
 40
20.00000000
 50
0.00000000
  1
Size: 42
  0
TEXT
  8
1
 10
144.58550568
 20
310.60758486
 40
5.00000000
 50
0.00000000
  1
Piece Name: BKALU.CA1
  0
TEXT
  8
1
 10
144.58550568
 20
310.60758486
 40
5.00000000
 50
0.00000000
  1
Quantity: 1
  0
TEXT
  8
1
 10
144.58550568
 20
310.60758486
 40
5.00000000
 50
0.00000000
  1
Rotation: 0
  0
TEXT
  8
1
 10
144.58550568
 20
310.60758486
 40
5.00000000
 50
0.00000000
  1
Tilt: 0
  0
TEXT
  8
1
 10
144.58550568
 20
310.60758486
 40
5.00000000
 50
0.00000000
  1
Fold: N
  0
TEXT
  8
1
 10
144.58550568
 20
310.60758486
 40
5.00000000
 50
0.00000000
  1
Material: 1
  0
POLYLINE
  8
1
 66
1
 70
1
  0
VERTEX
  8
1
 10
41.13322144
 20
305.57955752
  0
VERTEX
  8
1
 10
51.40262276
 20
310.88142458
  0
VERTEX
  8
1
 10
61.93607788
 20
315.57540713
  0
VERTEX
  8
1
 10
70.28417278
 20
318.82263572
  0
VERTEX
  8
1
 10
78.80814819
 20
321.55196963
  0
VERTEX
  8
1
 10
94.05424194
 20
324.88253603
  0
VERTEX
  8
1
 10
106.80228350
 20
326.96878604
  0
VERTEX
  8
1
 10
119.59647827
 20
328.76046572
  0
VERTEX
  8
1
 10
138.65437303
 20
331.29801707
  0
VERTEX
  8
1
 10
157.54057007
 20
334.73263369
  0
VERTEX
  8
1
 10
174.96992465
 20
339.68758274
  0
VERTEX
  8
1
 10
191.89774780
 20
346.18966494
  0
VERTEX
  8
1
 10
207.70560913
 20
353.69674502
  0
VERTEX
  8
1
 10
233.18803101
 20
333.30319033
  0
VERTEX
  8
1
 10
228.19389038
 20
275.79586611
  0
VERTEX
  8
1
 10
227.47611694
 20
268.53463564
  0
VERTEX
  8
1
 10
183.30936890
 20
269.02279482
  0
VERTEX
  8
1
 10
115.14335327
 20
269.39767275
  0
VERTEX
  8
1
 10
64.08634644
 20
269.49069033
  0
VERTEX
  8
1
 10
62.31876831
 20
277.47213564
  0
VERTEX
  8
1
 10
47.55314331
 20
277.38278017
  0
SEQEND
  0
POLYLINE
  8
84
 66
1
 70
1
  0
VERTEX
  8
84
 10
41.13322144
 20
305.57955752
  0
VERTEX
  8
84
 10
51.40262276
 20
310.88142458
  0
VERTEX
  8
84
 10
61.93607788
 20
315.57540713
  0
VERTEX
  8
84
 10
70.28417278
 20
318.82263572
  0
VERTEX
  8
84
 10
78.80814819
 20
321.55196963
  0
VERTEX
  8
84
 10
94.05424194
 20
324.88253603
  0
VERTEX
  8
84
 10
106.80228350
 20
326.96878604
  0
VERTEX
  8
84
 10
119.59647827
 20
328.76046572
  0
VERTEX
  8
84
 10
138.65437303
 20
331.29801707
  0
VERTEX
  8
84
 10
157.54057007
 20
334.73263369
  0
VERTEX
  8
84
 10
174.96992465
 20
339.68758274
  0
VERTEX
  8
84
 10
191.89774780
 20
346.18966494
  0
VERTEX
  8
84
 10
207.70560913
 20
353.69674502
  0
VERTEX
  8
84
 10
233.18803101
 20
333.30319033
  0
VERTEX
  8
84
 10
228.19389038
 20
275.79586611
  0
VERTEX
  8
84
 10
227.47611694
 20
268.53463564
  0
VERTEX
  8
84
 10
183.30936890
 20
269.02279482
  0
VERTEX
  8
84
 10
115.14335327
 20
269.39767275
  0
VERTEX
  8
84
 10
64.08634644
 20
269.49069033
  0
VERTEX
  8
84
 10
62.31876831
 20
277.47213564
  0
VERTEX
  8
84
 10
47.55314331
 20
277.38278017
  0
SEQEND
  0
POINT
  8
2
 10
41.13322144
 20
305.57955752
  0
TEXT
  8
2
 10
41.13322144
 20
305.57955752
 40
10.00000000
 50
0.00000000
  1
# 179
  0
POINT
  8
3
 10
51.40262276
 20
310.88142458
  0
POINT
  8
3
 10
61.93607788
 20
315.57540713
  0
POINT
  8
3
 10
70.28417278
 20
318.82263572
  0
POINT
  8
3
 10
78.80814819
 20
321.55196963
  0
POINT
  8
3
 10
94.05424194
 20
324.88253603
  0
POINT
  8
3
 10
106.80228350
 20
326.96878604
  0
POINT
  8
3
 10
119.59647827
 20
328.76046572
  0
POINT
  8
3
 10
138.65437303
 20
331.29801707
  0
POINT
  8
3
 10
157.54057007
 20
334.73263369
  0
POINT
  8
3
 10
174.96992465
 20
339.68758274
  0
POINT
  8
3
 10
191.89774780
 20
346.18966494
  0
POINT
  8
2
 10
207.70560913
 20
353.69674502
  0
TEXT
  8
2
 10
207.70560913
 20
353.69674502
 40
10.00000000
 50
0.00000000
  1
# 180
  0
POINT
  8
2
 10
233.18803101
 20
333.30319033
  0
TEXT
  8
2
 10
233.18803101
 20
333.30319033
 40
10.00000000
 50
0.00000000
  1
# 181
  0
POINT
  8
2
 10
228.19389038
 20
275.79586611
  0
TEXT
  8
2
 10
228.19389038
 20
275.79586611
 40
10.00000000
 50
0.00000000
  1
# 182
  0
POINT
  8
2
 10
227.47611694
 20
268.53463564
  0
TEXT
  8
2
 10
227.47611694
 20
268.53463564
 40
10.00000000
 50
0.00000000
  1
# 183
  0
POINT
  8
3
 10
183.30936890
 20
269.02279482
  0
POINT
  8
3
 10
115.14335327
 20
269.39767275
  0
POINT
  8
2
 10
64.08634644
 20
269.49069033
  0
TEXT
  8
2
 10
64.08634644
 20
269.49069033
 40
10.00000000
 50
0.00000000
  1
# 184
  0
POINT
  8
2
 10
62.31876831
 20
277.47213564
  0
TEXT
  8
2
 10
62.31876831
 20
277.47213564
 40
10.00000000
 50
0.00000000
  1
# 185
  0
POINT
  8
2
 10
47.55314331
 20
277.38278017
  0
TEXT
  8
2
 10
47.55314331
 20
277.38278017
 40
10.00000000
 50
0.00000000
  1
# 186
  0
POINT
  8
4
 10
228.19389038
 20
275.79586611
 30
7.50000000
 50
174.69566443
  0
TEXT
  8
1
 10
228.19389038
 20
275.79586611
 40
10.00000000
 50
0.00000000
  1
# 187
  0
ENDBLK
  0
BLOCK
  8
1
  2
9
 70
64
 10
0.0
 20
0.0
  0
LINE
  8
7
 10
426.34931837
 20
288.75093520
 11
520.48750196
 21
288.75093520
  0
TEXT
  8
1
 10
0.00000000
 20
0.00000000
 40
5.00000000
 50
0.00000000
  1
Size: 42
  0
TEXT
  8
1
 10
473.41841017
 20
292.50093520
 40
5.00000000
 50
0.00000000
  1
Piece Name: BKALU.CAR
  0
TEXT
  8
1
 10
473.41841017
 20
292.50093520
 40
5.00000000
 50
0.00000000
  1
Quantity: 1
  0
TEXT
  8
1
 10
473.41841017
 20
292.50093520
 40
5.00000000
 50
0.00000000
  1
Rotation: 0
  0
TEXT
  8
1
 10
473.41841017
 20
292.50093520
 40
5.00000000
 50
0.00000000
  1
Tilt: 0
  0
TEXT
  8
1
 10
473.41841017
 20
292.50093520
 40
5.00000000
 50
0.00000000
  1
Fold: N
  0
TEXT
  8
1
 10
473.41841017
 20
292.50093520
 40
5.00000000
 50
0.00000000
  1
Material: 1
  0
POLYLINE
  8
1
 66
1
 70
1
  0
VERTEX
  8
1
 10
376.38770816
 20
290.46716445
  0
VERTEX
  8
1
 10
380.83302066
 20
309.88757460
  0
VERTEX
  8
1
 10
395.67970035
 20
309.86950820
  0
VERTEX
  8
1
 10
397.44923160
 20
317.85437148
  0
VERTEX
  8
1
 10
432.22193668
 20
318.04699843
  0
VERTEX
  8
1
 10
472.61949645
 20
318.29311318
  0
VERTEX
  8
1
 10
513.01698062
 20
318.55188124
  0
VERTEX
  8
1
 10
560.86060855
 20
318.85974257
  0
VERTEX
  8
1
 10
561.75282047
 20
311.53601210
  0
VERTEX
  8
1
 10
564.66407535
 20
264.11645644
  0
VERTEX
  8
1
 10
550.78426808
 20
264.34613522
  0
VERTEX
  8
1
 10
536.90418766
 20
264.43078749
  0
VERTEX
  8
1
 10
509.13526676
 20
264.26403945
  0
VERTEX
  8
1
 10
495.25703169
 20
264.36051438
  0
VERTEX
  8
1
 10
481.38160465
 20
264.61450332
  0
VERTEX
  8
1
 10
453.62782047
 20
265.32470839
  0
VERTEX
  8
1
 10
439.75112082
 20
265.81427602
  0
VERTEX
  8
1
 10
425.93348453
 20
267.18005507
  0
VERTEX
  8
1
 10
412.35820272
 20
270.18577544
  0
VERTEX
  8
1
 10
405.77164774
 20
272.37791386
  0
VERTEX
  8
1
 10
399.39991519
 20
275.04065078
  0
VERTEX
  8
1
 10
393.28341400
 20
278.18424140
  0
VERTEX
  8
1
 10
387.42269847
 20
281.80504063
  0
VERTEX
  8
1
 10
381.79753955
 20
285.90027334
  0
SEQEND
  0
POLYLINE
  8
84
 66
1
 70
1
  0
VERTEX
  8
84
 10
376.38770816
 20
290.46716445
  0
VERTEX
  8
84
 10
380.83302066
 20
309.88757460
  0
VERTEX
  8
84
 10
395.67970035
 20
309.86950820
  0
VERTEX
  8
84
 10
397.44923160
 20
317.85437148
  0
VERTEX
  8
84
 10
432.22193668
 20
318.04699843
  0
VERTEX
  8
84
 10
472.61949645
 20
318.29311318
  0
VERTEX
  8
84
 10
513.01698062
 20
318.55188124
  0
VERTEX
  8
84
 10
560.86060855
 20
318.85974257
  0
VERTEX
  8
84
 10
561.75282047
 20
311.53601210
  0
VERTEX
  8
84
 10
564.66407535
 20
264.11645644
  0
VERTEX
  8
84
 10
550.78426808
 20
264.34613522
  0
VERTEX
  8
84
 10
536.90418766
 20
264.43078749
  0
VERTEX
  8
84
 10
509.13526676
 20
264.26403945
  0
VERTEX
  8
84
 10
495.25703169
 20
264.36051438
  0
VERTEX
  8
84
 10
481.38160465
 20
264.61450332
  0
VERTEX
  8
84
 10
453.62782047
 20
265.32470839
  0
VERTEX
  8
84
 10
439.75112082
 20
265.81427602
  0
VERTEX
  8
84
 10
425.93348453
 20
267.18005507
  0
VERTEX
  8
84
 10
412.35820272
 20
270.18577544
  0
VERTEX
  8
84
 10
405.77164774
 20
272.37791386
  0
VERTEX
  8
84
 10
399.39991519
 20
275.04065078
  0
VERTEX
  8
84
 10
393.28341400
 20
278.18424140
  0
VERTEX
  8
84
 10
387.42269847
 20
281.80504063
  0
VERTEX
  8
84
 10
381.79753955
 20
285.90027334
  0
SEQEND
  0
POINT
  8
2
 10
376.38770816
 20
290.46716445
  0
TEXT
  8
2
 10
376.38770816
 20
290.46716445
 40
10.00000000
 50
0.00000000
  1
# 188
  0
POINT
  8
2
 10
380.83302066
 20
309.88757460
  0
TEXT
  8
2
 10
380.83302066
 20
309.88757460
 40
10.00000000
 50
0.00000000
  1
# 189
  0
POINT
  8
2
 10
395.67970035
 20
309.86950820
  0
TEXT
  8
2
 10
395.67970035
 20
309.86950820
 40
10.00000000
 50
0.00000000
  1
# 190
  0
POINT
  8
2
 10
397.44923160
 20
317.85437148
  0
TEXT
  8
2
 10
397.44923160
 20
317.85437148
 40
10.00000000
 50
0.00000000
  1
# 191
  0
POINT
  8
3
 10
432.22193668
 20
318.04699843
  0
POINT
  8
3
 10
472.61949645
 20
318.29311318
  0
POINT
  8
3
 10
513.01698062
 20
318.55188124
  0
POINT
  8
2
 10
560.86060855
 20
318.85974257
  0
TEXT
  8
2
 10
560.86060855
 20
318.85974257
 40
10.00000000
 50
0.00000000
  1
# 192
  0
POINT
  8
2
 10
561.75282047
 20
311.53601210
  0
TEXT
  8
2
 10
561.75282047
 20
311.53601210
 40
10.00000000
 50
0.00000000
  1
# 193
  0
POINT
  8
2
 10
564.66407535
 20
264.11645644
  0
TEXT
  8
2
 10
564.66407535
 20
264.11645644
 40
10.00000000
 50
0.00000000
  1
# 194
  0
POINT
  8
3
 10
550.78426808
 20
264.34613522
  0
POINT
  8
3
 10
536.90418766
 20
264.43078749
  0
POINT
  8
3
 10
509.13526676
 20
264.26403945
  0
POINT
  8
3
 10
495.25703169
 20
264.36051438
  0
POINT
  8
3
 10
481.38160465
 20
264.61450332
  0
POINT
  8
3
 10
453.62782047
 20
265.32470839
  0
POINT
  8
3
 10
439.75112082
 20
265.81427602
  0
POINT
  8
3
 10
425.93348453
 20
267.18005507
  0
POINT
  8
3
 10
412.35820272
 20
270.18577544
  0
POINT
  8
3
 10
405.77164774
 20
272.37791386
  0
POINT
  8
3
 10
399.39991519
 20
275.04065078
  0
POINT
  8
3
 10
393.28341400
 20
278.18424140
  0
POINT
  8
3
 10
387.42269847
 20
281.80504063
  0
POINT
  8
3
 10
381.79753955
 20
285.90027334
  0
POINT
  8
4
 10
561.75282047
 20
311.53601210
 30
7.50000000
 50
185.22950069
  0
TEXT
  8
1
 10
561.75282047
 20
311.53601210
 40
10.00000000
 50
0.00000000
  1
# 195
  0
ENDBLK
  0
ENDSEC
  0
SECTION
  2
ENTITIES
  0
LINE
  8
9
 10
0.00000000
 20
0.00000000
 11
0.00000000
 21
0.00000000
  0
LINE
  8
10
 10
0.00000000
 20
0.00000000
 11
0.00000000
 21
0.00000000
  0
INSERT
  8
1
  2
1
 10
0.0
 20
0.0
  0
INSERT
  8
1
  2
2
 10
0.0
 20
0.0
  0
INSERT
  8
1
  2
3
 10
0.0
 20
0.0
  0
INSERT
  8
1
  2
4
 10
0.0
 20
0.0
  0
INSERT
  8
1
  2
5
 10
0.0
 20
0.0
  0
INSERT
  8
1
  2
6
 10
0.0
 20
0.0
  0
INSERT
  8
1
  2
7
 10
0.0
 20
0.0
  0
INSERT
  8
1
  2
8
 10
0.0
 20
0.0
  0
INSERT
  8
1
  2
9
 10
0.0
 20
0.0
  0
TEXT
  8
1
 10
0.00000000
 20
0.00000000
 40
10.00000000
 50
0.00000000
  1
Style Name: ASTM D 6673
  0
TEXT
  8
1
 10
0.00000000
 20
0.00000000
 40
10.00000000
 50
0.00000000
  1
Grade Rule Table: KALU0
  0
TEXT
  8
1
 10
0.00000000
 20
0.00000000
 40
10.00000000
 50
0.00000000
  1
Sample Size: 42
  0
TEXT
  8
1
 10
0.00000000
 20
0.00000000
 40
10.00000000
 50
0.00000000
  1
Units: METRIC
  0
TEXT
  8
1
 10
0.00000000
 20
0.00000000
 40
10.00000000
 50
0.00000000
  1
Creation Date: 12-1-2025
  0
TEXT
  8
1
 10
0.00000000
 20
0.00000000
 40
10.00000000
 50
0.00000000
  1
Creation Time: 20:58
  0
TEXT
  8
1
 10
0.00000000
 20
0.00000000
 40
10.00000000
 50
0.00000000
  1
Author: Audaces; Audaces Vesturio 2015
  0
TEXT
  8
1
 10
0.00000000
 20
0.00000000
 40
10.00000000
 50
0.00000000
  1
Curve Tolerance: 0.025
  0
TEXT
  8
1
 10
0.00000000
 20
0.00000000
 40
10.00000000
 50
0.00000000
  1
ASTM/PDE: 1
  0
ENDSEC
  0
EOF
