  0
SECTION
  2
BLOCKS
  0
BLOCK
  8
1
  2
1
 70
64
 10
0.0
 20
0.0
  0
LINE
  8
7
 10
466.52825088
 20
1227.69981050
 11
1025.19328995
 21
1227.69981050
  0
TEXT
  8
1
 10
0.00000000
 20
0.00000000
 40
10.00000000
 50
0.00000000
  1
Size: 42
  0
TEXT
  8
1
 10
745.86077042
 20
1242.69981050
 40
20.00000000
 50
0.00000000
  1
Piece Name: RKALU1.F
  0
TEXT
  8
1
 10
745.86077042
 20
1242.69981050
 40
20.00000000
 50
0.00000000
  1
Quantity: 1
  0
TEXT
  8
1
 10
745.86077042
 20
1242.69981050
 40
20.00000000
 50
0.00000000
  1
Rotation: 0
  0
TEXT
  8
1
 10
745.86077042
 20
1242.69981050
 40
20.00000000
 50
0.00000000
  1
Tilt: 0
  0
TEXT
  8
1
 10
745.86077042
 20
1242.69981050
 40
20.00000000
 50
0.00000000
  1
Fold: N
  0
TEXT
  8
1
 10
745.86077042
 20
1242.69981050
 40
20.00000000
 50
0.00000000
  1
Material: 1
  0
POLYLINE
  8
1
 66
1
 70
1
  0
VERTEX
  8
1
 10
242.60927734
 20
1348.13989840
  0
VERTEX
  8
1
 10
723.06240234
 20
1364.71411715
  0
VERTEX
  8
1
 10
746.37185619
 20
1366.10053378
  0
VERTEX
  8
1
 10
769.65877596
 20
1367.72109053
  0
VERTEX
  8
1
 10
792.92314369
 20
1369.58205707
  0
VERTEX
  8
1
 10
816.16494141
 20
1371.68970308
  0
VERTEX
  8
1
 10
839.40406884
 20
1374.04824637
  0
VERTEX
  8
1
 10
862.62062351
 20
1376.64133697
  0
VERTEX
  8
1
 10
885.81465939
 20
1379.45013895
  0
VERTEX
  8
1
 10
908.98623047
 20
1382.45581636
  0
VERTEX
  8
1
 10
932.14316365
 20
1385.65047415
  0
VERTEX
  8
1
 10
955.26751204
 20
1389.06207811
  0
VERTEX
  8
1
 10
978.34912003
 20
1392.72938909
  0
VERTEX
  8
1
 10
1001.37783203
 20
1396.69116793
  0
VERTEX
  8
1
 10
1024.40162930
 20
1400.98840818
  0
VERTEX
  8
1
 10
1047.36546633
 20
1405.60753002
  0
VERTEX
  8
1
 10
1070.27274206
 20
1410.53556065
  0
VERTEX
  8
1
 10
1093.12685547
 20
1415.75952730
  0
VERTEX
  8
1
 10
1097.35389146
 20
1408.17132214
  0
VERTEX
  8
1
 10
1102.27333984
 20
1401.07739840
  0
VERTEX
  8
1
 10
1107.85253308
 20
1394.40939721
  0
VERTEX
  8
1
 10
1114.30654297
 20
1388.65942965
  0
VERTEX
  8
1
 10
1121.64570610
 20
1384.35925042
  0
VERTEX
  8
1
 10
1129.59658203
 20
1381.21899996
  0
VERTEX
  8
1
 10
1138.02747108
 20
1378.91546702
  0
VERTEX
  8
1
 10
1146.75283203
 20
1377.60083590
  0
VERTEX
  8
1
 10
1159.68020102
 20
1375.47797510
  0
VERTEX
  8
1
 10
1172.62559545
 20
1373.50581695
  0
VERTEX
  8
1
 10
1185.59188356
 20
1371.70836554
  0
VERTEX
  8
1
 10
1198.58193359
 20
1370.10962496
  0
VERTEX
  8
1
 10
1211.68745968
 20
1368.70862366
  0
VERTEX
  8
1
 10
1224.81128336
 20
1367.46060056
  0
VERTEX
  8
1
 10
1251.07900391
 20
1365.13208590
  0
VERTEX
  8
1
 10
1303.39833984
 20
1360.15942965
  0
VERTEX
  8
1
 10
1301.13857422
 20
1327.32837496
  0
VERTEX
  8
1
 10
1299.07998047
 20
1294.48316011
  0
VERTEX
  8
1
 10
1298.49298037
 20
1278.03945865
  0
VERTEX
  8
1
 10
1298.27626953
 20
1261.58667574
  0
VERTEX
  8
1
 10
1298.31240234
 20
1252.00317965
  0
VERTEX
  8
1
 10
1298.24514064
 20
1248.32814332
  0
VERTEX
  8
1
 10
1298.15857900
 20
1240.97770817
  0
VERTEX
  8
1
 10
1298.13639786
 20
1233.32912987
  0
VERTEX
  8
1
 10
1298.15126953
 20
1229.50464449
  0
VERTEX
  8
1
 10
1298.19003516
 20
1224.93872752
  0
VERTEX
  8
1
 10
1298.27616004
 20
1215.80698146
  0
VERTEX
  8
1
 10
1298.33755020
 20
1209.93907024
  0
VERTEX
  8
1
 10
1298.37001953
 20
1207.00513277
  0
VERTEX
  8
1
 10
1299.07900391
 20
1187.66773043
  0
VERTEX
  8
1
 10
1300.17275391
 20
1168.35034761
  0
VERTEX
  8
1
 10
1302.05779569
 20
1146.95535124
  0
VERTEX
  8
1
 10
1304.67177734
 20
1125.62036715
  0
VERTEX
  8
1
 10
1305.52208898
 20
1118.87048219
  0
VERTEX
  8
1
 10
1307.43458155
 20
1105.40349908
  0
VERTEX
  8
1
 10
1309.05802241
 20
1095.31013273
  0
VERTEX
  8
1
 10
1309.92958984
 20
1090.27271090
  0
VERTEX
  8
1
 10
1114.71376953
 20
1073.83276949
  0
VERTEX
  8
1
 10
1116.66494141
 20
1078.72241793
  0
VERTEX
  8
1
 10
1018.80849609
 20
1097.47681246
  0
VERTEX
  8
1
 10
970.14804759
 20
1106.73860293
  0
VERTEX
  8
1
 10
945.77657865
 20
1111.12451319
  0
VERTEX
  8
1
 10
921.34951172
 20
1115.16919527
  0
VERTEX
  8
1
 10
896.78024964
 20
1118.78294076
  0
VERTEX
  8
1
 10
872.15003068
 20
1121.98931530
  0
VERTEX
  8
1
 10
847.47502099
 20
1124.85838373
  0
VERTEX
  8
1
 10
822.77138672
 20
1127.46021090
  0
VERTEX
  8
1
 10
798.04818357
 20
1129.84961717
  0
VERTEX
  8
1
 10
773.30712846
 20
1132.01843042
  0
VERTEX
  8
1
 10
748.54283138
 20
1133.94329016
  0
VERTEX
  8
1
 10
723.74990234
 20
1135.60083590
  0
VERTEX
  8
1
 10
242.60927734
 20
1157.49536715
  0
VERTEX
  8
1
 10
192.59951172
 20
1154.49536715
  0
VERTEX
  8
1
 10
192.59951172
 20
1351.13989840
  0
SEQEND
  0
POLYLINE
  8
84
 66
1
 70
1
  0
VERTEX
  8
84
 10
242.60927734
 20
1348.13989840
  0
VERTEX
  8
84
 10
723.06240234
 20
1364.71411715
  0
VERTEX
  8
84
 10
746.37185619
 20
1366.10053378
  0
VERTEX
  8
84
 10
769.65877596
 20
1367.72109053
  0
VERTEX
  8
84
 10
792.92314369
 20
1369.58205707
  0
VERTEX
  8
84
 10
816.16494141
 20
1371.68970308
  0
VERTEX
  8
84
 10
839.40406884
 20
1374.04824637
  0
VERTEX
  8
84
 10
862.62062351
 20
1376.64133697
  0
VERTEX
  8
84
 10
885.81465939
 20
1379.45013895
  0
VERTEX
  8
84
 10
908.98623047
 20
1382.45581636
  0
VERTEX
  8
84
 10
932.14316365
 20
1385.65047415
  0
VERTEX
  8
84
 10
955.26751204
 20
1389.06207811
  0
VERTEX
  8
84
 10
978.34912003
 20
1392.72938909
  0
VERTEX
  8
84
 10
1001.37783203
 20
1396.69116793
  0
VERTEX
  8
84
 10
1024.40162930
 20
1400.98840818
  0
VERTEX
  8
84
 10
1047.36546633
 20
1405.60753002
  0
VERTEX
  8
84
 10
1070.27274206
 20
1410.53556065
  0
VERTEX
  8
84
 10
1093.12685547
 20
1415.75952730
  0
VERTEX
  8
84
 10
1097.35389146
 20
1408.17132214
  0
VERTEX
  8
84
 10
1102.27333984
 20
1401.07739840
  0
VERTEX
  8
84
 10
1107.85253308
 20
1394.40939721
  0
VERTEX
  8
84
 10
1114.30654297
 20
1388.65942965
  0
VERTEX
  8
84
 10
1121.64570610
 20
1384.35925042
  0
VERTEX
  8
84
 10
1129.59658203
 20
1381.21899996
  0
VERTEX
  8
84
 10
1138.02747108
 20
1378.91546702
  0
VERTEX
  8
84
 10
1146.75283203
 20
1377.60083590
  0
VERTEX
  8
84
 10
1159.68020102
 20
1375.47797510
  0
VERTEX
  8
84
 10
1172.62559545
 20
1373.50581695
  0
VERTEX
  8
84
 10
1185.59188356
 20
1371.70836554
  0
VERTEX
  8
84
 10
1198.58193359
 20
1370.10962496
  0
VERTEX
  8
84
 10
1211.68745968
 20
1368.70862366
  0
VERTEX
  8
84
 10
1224.81128336
 20
1367.46060056
  0
VERTEX
  8
84
 10
1251.07900391
 20
1365.13208590
  0
VERTEX
  8
84
 10
1303.39833984
 20
1360.15942965
  0
VERTEX
  8
84
 10
1301.13857422
 20
1327.32837496
  0
VERTEX
  8
84
 10
1299.07998047
 20
1294.48316011
  0
VERTEX
  8
84
 10
1298.49298037
 20
1278.03945865
  0
VERTEX
  8
84
 10
1298.27626953
 20
1261.58667574
  0
VERTEX
  8
84
 10
1298.31240234
 20
1252.00317965
  0
VERTEX
  8
84
 10
1298.24514064
 20
1248.32814332
  0
VERTEX
  8
84
 10
1298.15857900
 20
1240.97770817
  0
VERTEX
  8
84
 10
1298.13639786
 20
1233.32912987
  0
VERTEX
  8
84
 10
1298.15126953
 20
1229.50464449
  0
VERTEX
  8
84
 10
1298.19003516
 20
1224.93872752
  0
VERTEX
  8
84
 10
1298.27616004
 20
1215.80698146
  0
VERTEX
  8
84
 10
1298.33755020
 20
1209.93907024
  0
VERTEX
  8
84
 10
1298.37001953
 20
1207.00513277
  0
VERTEX
  8
84
 10
1299.07900391
 20
1187.66773043
  0
VERTEX
  8
84
 10
1300.17275391
 20
1168.35034761
  0
VERTEX
  8
84
 10
1302.05779569
 20
1146.95535124
  0
VERTEX
  8
84
 10
1304.67177734
 20
1125.62036715
  0
VERTEX
  8
84
 10
1305.52208898
 20
1118.87048219
  0
VERTEX
  8
84
 10
1307.43458155
 20
1105.40349908
  0
VERTEX
  8
84
 10
1309.05802241
 20
1095.31013273
  0
VERTEX
  8
84
 10
1309.92958984
 20
1090.27271090
  0
VERTEX
  8
84
 10
1114.71376953
 20
1073.83276949
  0
VERTEX
  8
84
 10
1116.66494141
 20
1078.72241793
  0
VERTEX
  8
84
 10
1018.80849609
 20
1097.47681246
  0
VERTEX
  8
84
 10
970.14804759
 20
1106.73860293
  0
VERTEX
  8
84
 10
945.77657865
 20
1111.12451319
  0
VERTEX
  8
84
 10
921.34951172
 20
1115.16919527
  0
VERTEX
  8
84
 10
896.78024964
 20
1118.78294076
  0
VERTEX
  8
84
 10
872.15003068
 20
1121.98931530
  0
VERTEX
  8
84
 10
847.47502099
 20
1124.85838373
  0
VERTEX
  8
84
 10
822.77138672
 20
1127.46021090
  0
VERTEX
  8
84
 10
798.04818357
 20
1129.84961717
  0
VERTEX
  8
84
 10
773.30712846
 20
1132.01843042
  0
VERTEX
  8
84
 10
748.54283138
 20
1133.94329016
  0
VERTEX
  8
84
 10
723.74990234
 20
1135.60083590
  0
VERTEX
  8
84
 10
242.60927734
 20
1157.49536715
  0
VERTEX
  8
84
 10
192.59951172
 20
1154.49536715
  0
VERTEX
  8
84
 10
192.59951172
 20
1351.13989840
  0
SEQEND
  0
POINT
  8
2
 10
242.60927734
 20
1348.13989840
  0
TEXT
  8
2
 10
242.60927734
 20
1348.13989840
 40
10.00000000
 50
0.00000000
  1
# 1
  0
POINT
  8
2
 10
723.06240234
 20
1364.71411715
  0
TEXT
  8
2
 10
723.06240234
 20
1364.71411715
 40
10.00000000
 50
0.00000000
  1
# 2
  0
POINT
  8
3
 10
746.37185619
 20
1366.10053378
  0
POINT
  8
3
 10
769.65877596
 20
1367.72109053
  0
POINT
  8
3
 10
792.92314369
 20
1369.58205707
  0
POINT
  8
3
 10
816.16494141
 20
1371.68970308
  0
POINT
  8
3
 10
839.40406884
 20
1374.04824637
  0
POINT
  8
3
 10
862.62062351
 20
1376.64133697
  0
POINT
  8
3
 10
885.81465939
 20
1379.45013895
  0
POINT
  8
3
 10
908.98623047
 20
1382.45581636
  0
POINT
  8
3
 10
932.14316365
 20
1385.65047415
  0
POINT
  8
3
 10
955.26751204
 20
1389.06207811
  0
POINT
  8
3
 10
978.34912003
 20
1392.72938909
  0
POINT
  8
3
 10
1001.37783203
 20
1396.69116793
  0
POINT
  8
3
 10
1024.40162930
 20
1400.98840818
  0
POINT
  8
3
 10
1047.36546633
 20
1405.60753002
  0
POINT
  8
3
 10
1070.27274206
 20
1410.53556065
  0
POINT
  8
2
 10
1093.12685547
 20
1415.75952730
  0
TEXT
  8
2
 10
1093.12685547
 20
1415.75952730
 40
10.00000000
 50
0.00000000
  1
# 3
  0
POINT
  8
3
 10
1097.35389146
 20
1408.17132214
  0
POINT
  8
3
 10
1102.27333984
 20
1401.07739840
  0
POINT
  8
3
 10
1107.85253308
 20
1394.40939721
  0
POINT
  8
3
 10
1114.30654297
 20
1388.65942965
  0
POINT
  8
3
 10
1121.64570610
 20
1384.35925042
  0
POINT
  8
3
 10
1129.59658203
 20
1381.21899996
  0
POINT
  8
3
 10
1138.02747108
 20
1378.91546702
  0
POINT
  8
2
 10
1146.75283203
 20
1377.60083590
  0
TEXT
  8
2
 10
1146.75283203
 20
1377.60083590
 40
10.00000000
 50
0.00000000
  1
# 4
  0
POINT
  8
3
 10
1159.68020102
 20
1375.47797510
  0
POINT
  8
3
 10
1172.62559545
 20
1373.50581695
  0
POINT
  8
3
 10
1185.59188356
 20
1371.70836554
  0
POINT
  8
3
 10
1198.58193359
 20
1370.10962496
  0
POINT
  8
3
 10
1211.68745968
 20
1368.70862366
  0
POINT
  8
3
 10
1224.81128336
 20
1367.46060056
  0
POINT
  8
3
 10
1251.07900391
 20
1365.13208590
  0
POINT
  8
2
 10
1303.39833984
 20
1360.15942965
  0
TEXT
  8
2
 10
1303.39833984
 20
1360.15942965
 40
10.00000000
 50
0.00000000
  1
# 5
  0
POINT
  8
3
 10
1301.13857422
 20
1327.32837496
  0
POINT
  8
3
 10
1299.07998047
 20
1294.48316011
  0
POINT
  8
3
 10
1298.49298037
 20
1278.03945865
  0
POINT
  8
3
 10
1298.27626953
 20
1261.58667574
  0
POINT
  8
2
 10
1298.31240234
 20
1252.00317965
  0
TEXT
  8
2
 10
1298.31240234
 20
1252.00317965
 40
10.00000000
 50
0.00000000
  1
# 6
  0
POINT
  8
3
 10
1298.24514064
 20
1248.32814332
  0
POINT
  8
3
 10
1298.15857900
 20
1240.97770817
  0
POINT
  8
3
 10
1298.13639786
 20
1233.32912987
  0
POINT
  8
2
 10
1298.15126953
 20
1229.50464449
  0
TEXT
  8
2
 10
1298.15126953
 20
1229.50464449
 40
10.00000000
 50
0.00000000
  1
# 7
  0
POINT
  8
3
 10
1298.19003516
 20
1224.93872752
  0
POINT
  8
3
 10
1298.27616004
 20
1215.80698146
  0
POINT
  8
3
 10
1298.33755020
 20
1209.93907024
  0
POINT
  8
2
 10
1298.37001953
 20
1207.00513277
  0
TEXT
  8
2
 10
1298.37001953
 20
1207.00513277
 40
10.00000000
 50
0.00000000
  1
# 8
  0
POINT
  8
3
 10
1299.07900391
 20
1187.66773043
  0
POINT
  8
3
 10
1300.17275391
 20
1168.35034761
  0
POINT
  8
3
 10
1302.05779569
 20
1146.95535124
  0
POINT
  8
2
 10
1304.67177734
 20
1125.62036715
  0
TEXT
  8
2
 10
1304.67177734
 20
1125.62036715
 40
10.00000000
 50
0.00000000
  1
# 9
  0
POINT
  8
3
 10
1305.52208898
 20
1118.87048219
  0
POINT
  8
3
 10
1307.43458155
 20
1105.40349908
  0
POINT
  8
3
 10
1309.05802241
 20
1095.31013273
  0
POINT
  8
2
 10
1309.92958984
 20
1090.27271090
  0
TEXT
  8
2
 10
1309.92958984
 20
1090.27271090
 40
10.00000000
 50
0.00000000
  1
# 10
  0
POINT
  8
2
 10
1114.71376953
 20
1073.83276949
  0
TEXT
  8
2
 10
1114.71376953
 20
1073.83276949
 40
10.00000000
 50
0.00000000
  1
# 11
  0
POINT
  8
2
 10
1116.66494141
 20
1078.72241793
  0
TEXT
  8
2
 10
1116.66494141
 20
1078.72241793
 40
10.00000000
 50
0.00000000
  1
# 12
  0
POINT
  8
3
 10
1018.80849609
 20
1097.47681246
  0
POINT
  8
3
 10
970.14804759
 20
1106.73860293
  0
POINT
  8
3
 10
945.77657865
 20
1111.12451319
  0
POINT
  8
3
 10
921.34951172
 20
1115.16919527
  0
POINT
  8
3
 10
896.78024964
 20
1118.78294076
  0
POINT
  8
3
 10
872.15003068
 20
1121.98931530
  0
POINT
  8
3
 10
847.47502099
 20
1124.85838373
  0
POINT
  8
3
 10
822.77138672
 20
1127.46021090
  0
POINT
  8
3
 10
798.04818357
 20
1129.84961717
  0
POINT
  8
3
 10
773.30712846
 20
1132.01843042
  0
POINT
  8
3
 10
748.54283138
 20
1133.94329016
  0
POINT
  8
2
 10
723.74990234
 20
1135.60083590
  0
TEXT
  8
2
 10
723.74990234
 20
1135.60083590
 40
10.00000000
 50
0.00000000
  1
# 13
  0
POINT
  8
2
 10
242.60927734
 20
1157.49536715
  0
TEXT
  8
2
 10
242.60927734
 20
1157.49536715
 40
10.00000000
 50
0.00000000
  1
# 14
  0
POINT
  8
2
 10
192.59951172
 20
1154.49536715
  0
TEXT
  8
2
 10
192.59951172
 20
1154.49536715
 40
10.00000000
 50
0.00000000
  1
# 15
  0
POINT
  8
2
 10
192.59951172
 20
1351.13989840
  0
TEXT
  8
2
 10
192.59951172
 20
1351.13989840
 40
10.00000000
 50
0.00000000
  1
# 16
  0
POINT
  8
4
 10
723.06240234
 20
1364.71411715
 30
7.50000000
 50
272.68981104
  0
TEXT
  8
1
 10
723.06240234
 20
1364.71411715
 40
10.00000000
 50
0.00000000
  1
# 17
  0
POINT
  8
4
 10
1146.75283203
 20
1377.60083590
 30
7.50000000
 50
261.05312646
  0
TEXT
  8
1
 10
1146.75283203
 20
1377.60083590
 40
10.00000000
 50
0.00000000
  1
# 18
  0
POINT
  8
4
 10
1298.31240234
 20
1252.00317965
 30
7.50000000
 50
179.58374672
  0
TEXT
  8
1
 10
1298.31240234
 20
1252.00317965
 40
10.00000000
 50
0.00000000
  1
# 19
  0
POINT
  8
4
 10
1298.37001953
 20
1207.00513277
 30
7.50000000
 50
181.36690062
  0
TEXT
  8
1
 10
1298.37001953
 20
1207.00513277
 40
10.00000000
 50
0.00000000
  1
# 20
  0
POINT
  8
4
 10
1304.67177734
 20
1125.62036715
 30
5.09901956
 50
191.30993510
  0
TEXT
  8
1
 10
1304.67177734
 20
1125.62036715
 40
10.00000000
 50
0.00000000
  1
# 21
  0
POINT
  8
4
 10
1116.66494141
 20
1078.72241793
 30
8.38152716
 50
432.64597847
  0
TEXT
  8
1
 10
1116.66494141
 20
1078.72241793
 40
10.00000000
 50
0.00000000
  1
# 22
  0
POINT
  8
4
 10
723.74990234
 20
1135.60083590
 30
7.50000000
 50
446.78483750
  0
TEXT
  8
1
 10
723.74990234
 20
1135.60083590
 40
10.00000000
 50
0.00000000
  1
# 23
  0
ENDBLK
  0
BLOCK
  8
1
  2
2
 70
64
 10
0.0
 20
0.0
  0
LINE
  8
7
 10
466.41187019
 20
396.48403902
 11
1046.21219368
 21
396.48403902
  0
TEXT
  8
1
 10
0.00000000
 20
0.00000000
 40
20.00000000
 50
0.00000000
  1
Size: 42
  0
TEXT
  8
1
 10
756.31203193
 20
411.48403902
 40
20.00000000
 50
0.00000000
  1
Piece Name: RKALU1.T
  0
TEXT
  8
1
 10
756.31203193
 20
411.48403902
 40
20.00000000
 50
0.00000000
  1
Quantity: 1
  0
TEXT
  8
1
 10
756.31203193
 20
411.48403902
 40
20.00000000
 50
0.00000000
  1
Rotation: 0
  0
TEXT
  8
1
 10
756.31203193
 20
411.48403902
 40
20.00000000
 50
0.00000000
  1
Tilt: 0
  0
TEXT
  8
1
 10
756.31203193
 20
411.48403902
 40
20.00000000
 50
0.00000000
  1
Fold: N
  0
TEXT
  8
1
 10
756.31203193
 20
411.48403902
 40
20.00000000
 50
0.00000000
  1
Material: 1
  0
POLYLINE
  8
1
 66
1
 70
1
  0
VERTEX
  8
1
 10
207.04400330
 20
532.12756929
  0
VERTEX
  8
1
 10
257.04595642
 20
529.04944429
  0
VERTEX
  8
1
 10
738.18371277
 20
550.01917086
  0
VERTEX
  8
1
 10
762.32640204
 20
551.40172024
  0
VERTEX
  8
1
 10
786.44943451
 20
552.99883853
  0
VERTEX
  8
1
 10
834.67590027
 20
556.59241304
  0
VERTEX
  8
1
 10
858.74767999
 20
558.50379091
  0
VERTEX
  8
1
 10
882.79985759
 20
560.62905492
  0
VERTEX
  8
1
 10
906.80299599
 20
563.15091498
  0
VERTEX
  8
1
 10
930.72765808
 20
566.25208101
  0
VERTEX
  8
1
 10
954.54199259
 20
570.05858748
  0
VERTEX
  8
1
 10
978.26168125
 20
574.47928022
  0
VERTEX
  8
1
 10
1001.89990520
 20
579.36693976
  0
VERTEX
  8
1
 10
1025.46984558
 20
584.57434664
  0
VERTEX
  8
1
 10
1049.00777890
 20
589.99309679
  0
VERTEX
  8
1
 10
1072.48608575
 20
595.63392122
  0
VERTEX
  8
1
 10
1095.90036432
 20
601.54598375
  0
VERTEX
  8
1
 10
1119.24621277
 20
607.77844820
  0
VERTEX
  8
1
 10
1135.65871503
 20
611.43374272
  0
VERTEX
  8
1
 10
1152.12136213
 20
614.73313472
  0
VERTEX
  8
1
 10
1168.63935446
 20
617.65955357
  0
VERTEX
  8
1
 10
1185.21789246
 20
620.19592867
  0
VERTEX
  8
1
 10
1201.86016917
 20
622.33673988
  0
VERTEX
  8
1
 10
1218.55259996
 20
624.12158475
  0
VERTEX
  8
1
 10
1235.27958129
 20
625.60168264
  0
VERTEX
  8
1
 10
1252.02550964
 20
626.82825289
  0
VERTEX
  8
1
 10
1268.77921813
 20
627.84118539
  0
VERTEX
  8
1
 10
1285.54147219
 20
628.63471143
  0
VERTEX
  8
1
 10
1302.31747349
 20
629.19175624
  0
VERTEX
  8
1
 10
1319.11242371
 20
629.49524508
  0
VERTEX
  8
1
 10
1320.76511114
 20
611.22341905
  0
VERTEX
  8
1
 10
1322.74786705
 20
592.99663143
  0
VERTEX
  8
1
 10
1325.06069142
 20
574.81488221
  0
VERTEX
  8
1
 10
1327.70359394
 20
556.67810899
  0
VERTEX
  8
1
 10
1330.67656720
 20
538.58637447
  0
VERTEX
  8
1
 10
1333.97961121
 20
520.53967867
  0
VERTEX
  8
1
 10
1338.15343933
 20
511.69397554
  0
VERTEX
  8
1
 10
1337.51476746
 20
501.20813570
  0
VERTEX
  8
1
 10
1340.95302740
 20
481.80633232
  0
VERTEX
  8
1
 10
1347.93078367
 20
443.02112073
  0
VERTEX
  8
1
 10
1355.04352219
 20
404.26043388
  0
VERTEX
  8
1
 10
1358.65050964
 20
384.88928804
  0
VERTEX
  8
1
 10
1366.64074402
 20
350.23303804
  0
VERTEX
  8
1
 10
1331.29294904
 20
343.77305588
  0
VERTEX
  8
1
 10
1313.59814131
 20
340.66625357
  0
VERTEX
  8
1
 10
1295.88195496
 20
337.68420992
  0
VERTEX
  8
1
 10
1224.92394714
 20
326.27795992
  0
VERTEX
  8
1
 10
1207.24316391
 20
323.12088234
  0
VERTEX
  8
1
 10
1189.59677732
 20
319.76889211
  0
VERTEX
  8
1
 10
1171.97921002
 20
316.25395532
  0
VERTEX
  8
1
 10
1154.38488464
 20
312.60803804
  0
VERTEX
  8
1
 10
1146.54380623
 20
310.63640574
  0
VERTEX
  8
1
 10
1139.32975224
 20
307.92363514
  0
VERTEX
  8
1
 10
1132.69184844
 20
304.42342732
  0
VERTEX
  8
1
 10
1126.57922058
 20
300.08948336
  0
VERTEX
  8
1
 10
1121.06635610
 20
295.00201626
  0
VERTEX
  8
1
 10
1116.16013592
 20
289.19928665
  0
VERTEX
  8
1
 10
1112.00886824
 20
282.81626476
  0
VERTEX
  8
1
 10
1108.76086121
 20
275.98792086
  0
VERTEX
  8
1
 10
1106.45698355
 20
268.66142103
  0
VERTEX
  8
1
 10
1105.01121138
 20
261.10541603
  0
VERTEX
  8
1
 10
1103.70910339
 20
245.69055758
  0
VERTEX
  8
1
 10
1103.32276825
 20
230.39697487
  0
VERTEX
  8
1
 10
1104.06359558
 20
215.08508883
  0
VERTEX
  8
1
 10
1097.51574402
 20
205.83850679
  0
VERTEX
  8
1
 10
1076.55239663
 20
217.15130862
  0
VERTEX
  8
1
 10
1055.22942605
 20
227.36049226
  0
VERTEX
  8
1
 10
1033.51055196
 20
236.40267731
  0
VERTEX
  8
1
 10
1011.35949402
 20
244.21448336
  0
VERTEX
  8
1
 10
989.12313916
 20
250.68124792
  0
VERTEX
  8
1
 10
966.53895140
 20
256.07983376
  0
VERTEX
  8
1
 10
943.71293534
 20
260.59542701
  0
VERTEX
  8
1
 10
920.75109558
 20
264.41321383
  0
VERTEX
  8
1
 10
897.73290850
 20
267.70036563
  0
VERTEX
  8
1
 10
874.68584051
 20
270.54449866
  0
VERTEX
  8
1
 10
851.61085319
 20
273.01561622
  0
VERTEX
  8
1
 10
828.50890808
 20
275.18372164
  0
VERTEX
  8
1
 10
805.38292479
 20
277.10309295
  0
VERTEX
  8
1
 10
782.23062968
 20
278.76616837
  0
VERTEX
  8
1
 10
759.05170229
 20
280.14961710
  0
VERTEX
  8
1
 10
735.84582214
 20
281.23010836
  0
VERTEX
  8
1
 10
257.04205017
 20
298.48499117
  0
VERTEX
  8
1
 10
207.04009705
 20
295.47815523
  0
SEQEND
  0
POLYLINE
  8
84
 66
1
 70
1
  0
VERTEX
  8
84
 10
207.04400330
 20
532.12756929
  0
VERTEX
  8
84
 10
257.04595642
 20
529.04944429
  0
VERTEX
  8
84
 10
738.18371277
 20
550.01917086
  0
VERTEX
  8
84
 10
762.32640204
 20
551.40172024
  0
VERTEX
  8
84
 10
786.44943451
 20
552.99883853
  0
VERTEX
  8
84
 10
834.67590027
 20
556.59241304
  0
VERTEX
  8
84
 10
858.74767999
 20
558.50379091
  0
VERTEX
  8
84
 10
882.79985759
 20
560.62905492
  0
VERTEX
  8
84
 10
906.80299599
 20
563.15091498
  0
VERTEX
  8
84
 10
930.72765808
 20
566.25208101
  0
VERTEX
  8
84
 10
954.54199259
 20
570.05858748
  0
VERTEX
  8
84
 10
978.26168125
 20
574.47928022
  0
VERTEX
  8
84
 10
1001.89990520
 20
579.36693976
  0
VERTEX
  8
84
 10
1025.46984558
 20
584.57434664
  0
VERTEX
  8
84
 10
1049.00777890
 20
589.99309679
  0
VERTEX
  8
84
 10
1072.48608575
 20
595.63392122
  0
VERTEX
  8
84
 10
1095.90036432
 20
601.54598375
  0
VERTEX
  8
84
 10
1119.24621277
 20
607.77844820
  0
VERTEX
  8
84
 10
1135.65871503
 20
611.43374272
  0
VERTEX
  8
84
 10
1152.12136213
 20
614.73313472
  0
VERTEX
  8
84
 10
1168.63935446
 20
617.65955357
  0
VERTEX
  8
84
 10
1185.21789246
 20
620.19592867
  0
VERTEX
  8
84
 10
1201.86016917
 20
622.33673988
  0
VERTEX
  8
84
 10
1218.55259996
 20
624.12158475
  0
VERTEX
  8
84
 10
1235.27958129
 20
625.60168264
  0
VERTEX
  8
84
 10
1252.02550964
 20
626.82825289
  0
VERTEX
  8
84
 10
1268.77921813
 20
627.84118539
  0
VERTEX
  8
84
 10
1285.54147219
 20
628.63471143
  0
VERTEX
  8
84
 10
1302.31747349
 20
629.19175624
  0
VERTEX
  8
84
 10
1319.11242371
 20
629.49524508
  0
VERTEX
  8
84
 10
1320.76511114
 20
611.22341905
  0
VERTEX
  8
84
 10
1322.74786705
 20
592.99663143
  0
VERTEX
  8
84
 10
1325.06069142
 20
574.81488221
  0
VERTEX
  8
84
 10
1327.70359394
 20
556.67810899
  0
VERTEX
  8
84
 10
1330.67656720
 20
538.58637447
  0
VERTEX
  8
84
 10
1333.97961121
 20
520.53967867
  0
VERTEX
  8
84
 10
1338.15343933
 20
511.69397554
  0
VERTEX
  8
84
 10
1337.51476746
 20
501.20813570
  0
VERTEX
  8
84
 10
1340.95302740
 20
481.80633232
  0
VERTEX
  8
84
 10
1347.93078367
 20
443.02112073
  0
VERTEX
  8
84
 10
1355.04352219
 20
404.26043388
  0
VERTEX
  8
84
 10
1358.65050964
 20
384.88928804
  0
VERTEX
  8
84
 10
1366.64074402
 20
350.23303804
  0
VERTEX
  8
84
 10
1331.29294904
 20
343.77305588
  0
VERTEX
  8
84
 10
1313.59814131
 20
340.66625357
  0
VERTEX
  8
84
 10
1295.88195496
 20
337.68420992
  0
VERTEX
  8
84
 10
1224.92394714
 20
326.27795992
  0
VERTEX
  8
84
 10
1207.24316391
 20
323.12088234
  0
VERTEX
  8
84
 10
1189.59677732
 20
319.76889211
  0
VERTEX
  8
84
 10
1171.97921002
 20
316.25395532
  0
VERTEX
  8
84
 10
1154.38488464
 20
312.60803804
  0
VERTEX
  8
84
 10
1146.54380623
 20
310.63640574
  0
VERTEX
  8
84
 10
1139.32975224
 20
307.92363514
  0
VERTEX
  8
84
 10
1132.69184844
 20
304.42342732
  0
VERTEX
  8
84
 10
1126.57922058
 20
300.08948336
  0
VERTEX
  8
84
 10
1121.06635610
 20
295.00201626
  0
VERTEX
  8
84
 10
1116.16013592
 20
289.19928665
  0
VERTEX
  8
84
 10
1112.00886824
 20
282.81626476
  0
VERTEX
  8
84
 10
1108.76086121
 20
275.98792086
  0
VERTEX
  8
84
 10
1106.45698355
 20
268.66142103
  0
VERTEX
  8
84
 10
1105.01121138
 20
261.10541603
  0
VERTEX
  8
84
 10
1103.70910339
 20
245.69055758
  0
VERTEX
  8
84
 10
1103.32276825
 20
230.39697487
  0
VERTEX
  8
84
 10
1104.06359558
 20
215.08508883
  0
VERTEX
  8
84
 10
1097.51574402
 20
205.83850679
  0
VERTEX
  8
84
 10
1076.55239663
 20
217.15130862
  0
VERTEX
  8
84
 10
1055.22942605
 20
227.36049226
  0
VERTEX
  8
84
 10
1033.51055196
 20
236.40267731
  0
VERTEX
  8
84
 10
1011.35949402
 20
244.21448336
  0
VERTEX
  8
84
 10
989.12313916
 20
250.68124792
  0
VERTEX
  8
84
 10
966.53895140
 20
256.07983376
  0
VERTEX
  8
84
 10
943.71293534
 20
260.59542701
  0
VERTEX
  8
84
 10
920.75109558
 20
264.41321383
  0
VERTEX
  8
84
 10
897.73290850
 20
267.70036563
  0
VERTEX
  8
84
 10
874.68584051
 20
270.54449866
  0
VERTEX
  8
84
 10
851.61085319
 20
273.01561622
  0
VERTEX
  8
84
 10
828.50890808
 20
275.18372164
  0
VERTEX
  8
84
 10
805.38292479
 20
277.10309295
  0
VERTEX
  8
84
 10
782.23062968
 20
278.76616837
  0
VERTEX
  8
84
 10
759.05170229
 20
280.14961710
  0
VERTEX
  8
84
 10
735.84582214
 20
281.23010836
  0
VERTEX
  8
84
 10
257.04205017
 20
298.48499117
  0
VERTEX
  8
84
 10
207.04009705
 20
295.47815523
  0
SEQEND
  0
POINT
  8
2
 10
207.04400330
 20
532.12756929
  0
TEXT
  8
2
 10
207.04400330
 20
532.12756929
 40
10.00000000
 50
0.00000000
  1
# 24
  0
POINT
  8
2
 10
257.04595642
 20
529.04944429
  0
TEXT
  8
2
 10
257.04595642
 20
529.04944429
 40
10.00000000
 50
0.00000000
  1
# 25
  0
POINT
  8
2
 10
738.18371277
 20
550.01917086
  0
TEXT
  8
2
 10
738.18371277
 20
550.01917086
 40
10.00000000
 50
0.00000000
  1
# 26
  0
POINT
  8
3
 10
762.32640204
 20
551.40172024
  0
POINT
  8
3
 10
786.44943451
 20
552.99883853
  0
POINT
  8
3
 10
834.67590027
 20
556.59241304
  0
POINT
  8
3
 10
858.74767999
 20
558.50379091
  0
POINT
  8
3
 10
882.79985759
 20
560.62905492
  0
POINT
  8
3
 10
906.80299599
 20
563.15091498
  0
POINT
  8
3
 10
930.72765808
 20
566.25208101
  0
POINT
  8
3
 10
954.54199259
 20
570.05858748
  0
POINT
  8
3
 10
978.26168125
 20
574.47928022
  0
POINT
  8
3
 10
1001.89990520
 20
579.36693976
  0
POINT
  8
3
 10
1025.46984558
 20
584.57434664
  0
POINT
  8
3
 10
1049.00777890
 20
589.99309679
  0
POINT
  8
3
 10
1072.48608575
 20
595.63392122
  0
POINT
  8
3
 10
1095.90036432
 20
601.54598375
  0
POINT
  8
2
 10
1119.24621277
 20
607.77844820
  0
TEXT
  8
2
 10
1119.24621277
 20
607.77844820
 40
10.00000000
 50
0.00000000
  1
# 27
  0
POINT
  8
3
 10
1135.65871503
 20
611.43374272
  0
POINT
  8
3
 10
1152.12136213
 20
614.73313472
  0
POINT
  8
3
 10
1168.63935446
 20
617.65955357
  0
POINT
  8
3
 10
1185.21789246
 20
620.19592867
  0
POINT
  8
3
 10
1201.86016917
 20
622.33673988
  0
POINT
  8
3
 10
1218.55259996
 20
624.12158475
  0
POINT
  8
3
 10
1235.27958129
 20
625.60168264
  0
POINT
  8
3
 10
1252.02550964
 20
626.82825289
  0
POINT
  8
3
 10
1268.77921813
 20
627.84118539
  0
POINT
  8
3
 10
1285.54147219
 20
628.63471143
  0
POINT
  8
3
 10
1302.31747349
 20
629.19175624
  0
POINT
  8
2
 10
1319.11242371
 20
629.49524508
  0
TEXT
  8
2
 10
1319.11242371
 20
629.49524508
 40
10.00000000
 50
0.00000000
  1
# 28
  0
POINT
  8
3
 10
1320.76511114
 20
611.22341905
  0
POINT
  8
3
 10
1322.74786705
 20
592.99663143
  0
POINT
  8
3
 10
1325.06069142
 20
574.81488221
  0
POINT
  8
3
 10
1327.70359394
 20
556.67810899
  0
POINT
  8
3
 10
1330.67656720
 20
538.58637447
  0
POINT
  8
2
 10
1333.97961121
 20
520.53967867
  0
TEXT
  8
2
 10
1333.97961121
 20
520.53967867
 40
10.00000000
 50
0.00000000
  1
# 29
  0
POINT
  8
2
 10
1338.15343933
 20
511.69397554
  0
TEXT
  8
2
 10
1338.15343933
 20
511.69397554
 40
10.00000000
 50
0.00000000
  1
# 30
  0
POINT
  8
2
 10
1337.51476746
 20
501.20813570
  0
TEXT
  8
2
 10
1337.51476746
 20
501.20813570
 40
10.00000000
 50
0.00000000
  1
# 31
  0
POINT
  8
3
 10
1340.95302740
 20
481.80633232
  0
POINT
  8
3
 10
1347.93078367
 20
443.02112073
  0
POINT
  8
3
 10
1355.04352219
 20
404.26043388
  0
POINT
  8
2
 10
1358.65050964
 20
384.88928804
  0
TEXT
  8
2
 10
1358.65050964
 20
384.88928804
 40
10.00000000
 50
0.00000000
  1
# 32
  0
POINT
  8
2
 10
1366.64074402
 20
350.23303804
  0
TEXT
  8
2
 10
1366.64074402
 20
350.23303804
 40
10.00000000
 50
0.00000000
  1
# 33
  0
POINT
  8
3
 10
1331.29294904
 20
343.77305588
  0
POINT
  8
3
 10
1313.59814131
 20
340.66625357
  0
POINT
  8
3
 10
1295.88195496
 20
337.68420992
  0
POINT
  8
3
 10
1224.92394714
 20
326.27795992
  0
POINT
  8
3
 10
1207.24316391
 20
323.12088234
  0
POINT
  8
3
 10
1189.59677732
 20
319.76889211
  0
POINT
  8
3
 10
1171.97921002
 20
316.25395532
  0
POINT
  8
2
 10
1154.38488464
 20
312.60803804
  0
TEXT
  8
2
 10
1154.38488464
 20
312.60803804
 40
10.00000000
 50
0.00000000
  1
# 34
  0
POINT
  8
3
 10
1146.54380623
 20
310.63640574
  0
POINT
  8
3
 10
1139.32975224
 20
307.92363514
  0
POINT
  8
3
 10
1132.69184844
 20
304.42342732
  0
POINT
  8
3
 10
1126.57922058
 20
300.08948336
  0
POINT
  8
3
 10
1121.06635610
 20
295.00201626
  0
POINT
  8
3
 10
1116.16013592
 20
289.19928665
  0
POINT
  8
3
 10
1112.00886824
 20
282.81626476
  0
POINT
  8
3
 10
1108.76086121
 20
275.98792086
  0
POINT
  8
3
 10
1106.45698355
 20
268.66142103
  0
POINT
  8
3
 10
1105.01121138
 20
261.10541603
  0
POINT
  8
3
 10
1103.70910339
 20
245.69055758
  0
POINT
  8
3
 10
1103.32276825
 20
230.39697487
  0
POINT
  8
2
 10
1104.06359558
 20
215.08508883
  0
TEXT
  8
2
 10
1104.06359558
 20
215.08508883
 40
10.00000000
 50
0.00000000
  1
# 35
  0
POINT
  8
2
 10
1097.51574402
 20
205.83850679
  0
TEXT
  8
2
 10
1097.51574402
 20
205.83850679
 40
10.00000000
 50
0.00000000
  1
# 36
  0
POINT
  8
3
 10
1076.55239663
 20
217.15130862
  0
POINT
  8
3
 10
1055.22942605
 20
227.36049226
  0
POINT
  8
3
 10
1033.51055196
 20
236.40267731
  0
POINT
  8
3
 10
1011.35949402
 20
244.21448336
  0
POINT
  8
3
 10
989.12313916
 20
250.68124792
  0
POINT
  8
3
 10
966.53895140
 20
256.07983376
  0
POINT
  8
3
 10
943.71293534
 20
260.59542701
  0
POINT
  8
3
 10
920.75109558
 20
264.41321383
  0
POINT
  8
3
 10
897.73290850
 20
267.70036563
  0
POINT
  8
3
 10
874.68584051
 20
270.54449866
  0
POINT
  8
3
 10
851.61085319
 20
273.01561622
  0
POINT
  8
3
 10
828.50890808
 20
275.18372164
  0
POINT
  8
3
 10
805.38292479
 20
277.10309295
  0
POINT
  8
3
 10
782.23062968
 20
278.76616837
  0
POINT
  8
3
 10
759.05170229
 20
280.14961710
  0
POINT
  8
2
 10
735.84582214
 20
281.23010836
  0
TEXT
  8
2
 10
735.84582214
 20
281.23010836
 40
10.00000000
 50
0.00000000
  1
# 37
  0
POINT
  8
2
 10
257.04205017
 20
298.48499117
  0
TEXT
  8
2
 10
257.04205017
 20
298.48499117
 40
10.00000000
 50
0.00000000
  1
# 38
  0
POINT
  8
2
 10
207.04009705
 20
295.47815523
  0
TEXT
  8
2
 10
207.04009705
 20
295.47815523
 40
10.00000000
 50
0.00000000
  1
# 39
  0
POINT
  8
4
 10
738.18371277
 20
550.01917086
 30
7.50000000
 50
272.88654246
  0
TEXT
  8
1
 10
738.18371277
 20
550.01917086
 40
10.00000000
 50
0.00000000
  1
# 40
  0
POINT
  8
4
 10
1338.15343933
 20
511.69397554
 30
7.50000000
 50
190.88736236
  0
TEXT
  8
1
 10
1338.15343933
 20
511.69397554
 40
10.00000000
 50
0.00000000
  1
# 41
  0
POINT
  8
4
 10
1358.65050964
 20
384.88928804
 30
7.50000000
 50
191.76548660
  0
TEXT
  8
1
 10
1358.65050964
 20
384.88928804
 40
10.00000000
 50
0.00000000
  1
# 42
  0
POINT
  8
4
 10
735.84582214
 20
281.23010836
 30
7.50000000
 50
447.63513420
  0
TEXT
  8
1
 10
735.84582214
 20
281.23010836
 40
10.00000000
 50
0.00000000
  1
# 43
  0
ENDBLK
  0
BLOCK
  8
1
  2
3
 70
64
 10
0.0
 20
0.0
  0
LINE
  8
7
 10
1817.45235247
 20
966.25392451
 11
1938.53340715
 21
966.25392451
  0
TEXT
  8
1
 10
0.00000000
 20
0.00000000
 40
20.00000000
 50
0.00000000
  1
Size: 42
  0
TEXT
  8
1
 10
1877.99287981
 20
973.75392451
 40
10.00000000
 50
0.00000000
  1
Piece Name: RKALU1.VI
  0
TEXT
  8
1
 10
1877.99287981
 20
973.75392451
 40
10.00000000
 50
0.00000000
  1
Quantity: 1
  0
TEXT
  8
1
 10
1877.99287981
 20
973.75392451
 40
10.00000000
 50
0.00000000
  1
Rotation: 0
  0
TEXT
  8
1
 10
1877.99287981
 20
973.75392451
 40
10.00000000
 50
0.00000000
  1
Tilt: 0
  0
TEXT
  8
1
 10
1877.99287981
 20
973.75392451
 40
10.00000000
 50
0.00000000
  1
Fold: N
  0
TEXT
  8
1
 10
1877.99287981
 20
973.75392451
 40
10.00000000
 50
0.00000000
  1
Material: 1
  0
POLYLINE
  8
1
 66
1
 70
1
  0
VERTEX
  8
1
 10
1983.54226685
 20
1024.93907962
  0
VERTEX
  8
1
 10
1986.83718872
 20
981.19689212
  0
VERTEX
  8
1
 10
1993.66726685
 20
936.04845462
  0
VERTEX
  8
1
 10
1969.86579170
 20
931.50705866
  0
VERTEX
  8
1
 10
1945.97195435
 20
927.52648196
  0
VERTEX
  8
1
 10
1927.19463648
 20
924.74537386
  0
VERTEX
  8
1
 10
1908.36333654
 20
922.33338329
  0
VERTEX
  8
1
 10
1889.48893339
 20
920.39526139
  0
VERTEX
  8
1
 10
1870.58230591
 20
919.03575930
  0
VERTEX
  8
1
 10
1853.63867933
 20
918.37801103
  0
VERTEX
  8
1
 10
1836.67493984
 20
918.23879760
  0
VERTEX
  8
1
 10
1819.68807675
 20
918.58912949
  0
VERTEX
  8
1
 10
1802.67507935
 20
919.40001712
  0
VERTEX
  8
1
 10
1787.64968872
 20
920.98693118
  0
VERTEX
  8
1
 10
1788.27859497
 20
933.88243899
  0
VERTEX
  8
1
 10
1764.24929810
 20
935.79064212
  0
VERTEX
  8
1
 10
1751.50515747
 20
977.72423587
  0
SEQEND
  0
POLYLINE
  8
84
 66
1
 70
1
  0
VERTEX
  8
84
 10
1983.54226685
 20
1024.93907962
  0
VERTEX
  8
84
 10
1986.83718872
 20
981.19689212
  0
VERTEX
  8
84
 10
1993.66726685
 20
936.04845462
  0
VERTEX
  8
84
 10
1969.86579170
 20
931.50705866
  0
VERTEX
  8
84
 10
1945.97195435
 20
927.52648196
  0
VERTEX
  8
84
 10
1927.19463648
 20
924.74537386
  0
VERTEX
  8
84
 10
1908.36333654
 20
922.33338329
  0
VERTEX
  8
84
 10
1889.48893339
 20
920.39526139
  0
VERTEX
  8
84
 10
1870.58230591
 20
919.03575930
  0
VERTEX
  8
84
 10
1853.63867933
 20
918.37801103
  0
VERTEX
  8
84
 10
1836.67493984
 20
918.23879760
  0
VERTEX
  8
84
 10
1819.68807675
 20
918.58912949
  0
VERTEX
  8
84
 10
1802.67507935
 20
919.40001712
  0
VERTEX
  8
84
 10
1787.64968872
 20
920.98693118
  0
VERTEX
  8
84
 10
1788.27859497
 20
933.88243899
  0
VERTEX
  8
84
 10
1764.24929810
 20
935.79064212
  0
VERTEX
  8
84
 10
1751.50515747
 20
977.72423587
  0
SEQEND
  0
POINT
  8
2
 10
1983.54226685
 20
1024.93907962
  0
TEXT
  8
2
 10
1983.54226685
 20
1024.93907962
 40
10.00000000
 50
0.00000000
  1
# 44
  0
POINT
  8
2
 10
1986.83718872
 20
981.19689212
  0
TEXT
  8
2
 10
1986.83718872
 20
981.19689212
 40
10.00000000
 50
0.00000000
  1
# 45
  0
POINT
  8
2
 10
1993.66726685
 20
936.04845462
  0
TEXT
  8
2
 10
1993.66726685
 20
936.04845462
 40
10.00000000
 50
0.00000000
  1
# 46
  0
POINT
  8
3
 10
1969.86579170
 20
931.50705866
  0
POINT
  8
3
 10
1945.97195435
 20
927.52648196
  0
POINT
  8
3
 10
1927.19463648
 20
924.74537386
  0
POINT
  8
3
 10
1908.36333654
 20
922.33338329
  0
POINT
  8
3
 10
1889.48893339
 20
920.39526139
  0
POINT
  8
3
 10
1870.58230591
 20
919.03575930
  0
POINT
  8
3
 10
1853.63867933
 20
918.37801103
  0
POINT
  8
3
 10
1836.67493984
 20
918.23879760
  0
POINT
  8
3
 10
1819.68807675
 20
918.58912949
  0
POINT
  8
2
 10
1802.67507935
 20
919.40001712
  0
TEXT
  8
2
 10
1802.67507935
 20
919.40001712
 40
10.00000000
 50
0.00000000
  1
# 47
  0
POINT
  8
2
 10
1787.64968872
 20
920.98693118
  0
TEXT
  8
2
 10
1787.64968872
 20
920.98693118
 40
10.00000000
 50
0.00000000
  1
# 48
  0
POINT
  8
2
 10
1788.27859497
 20
933.88243899
  0
TEXT
  8
2
 10
1788.27859497
 20
933.88243899
 40
10.00000000
 50
0.00000000
  1
# 49
  0
POINT
  8
2
 10
1764.24929810
 20
935.79064212
  0
TEXT
  8
2
 10
1764.24929810
 20
935.79064212
 40
10.00000000
 50
0.00000000
  1
# 50
  0
POINT
  8
2
 10
1751.50515747
 20
977.72423587
  0
TEXT
  8
2
 10
1751.50515747
 20
977.72423587
 40
10.00000000
 50
0.00000000
  1
# 51
  0
POINT
  8
4
 10
1986.83718872
 20
981.19689212
 30
6.56288991
 50
194.73179899
  0
TEXT
  8
1
 10
1986.83718872
 20
981.19689212
 40
10.00000000
 50
0.00000000
  1
# 52
  0
POINT
  8
4
 10
1802.67507935
 20
919.40001712
 30
5.71319380
 50
433.91530680
  0
TEXT
  8
1
 10
1802.67507935
 20
919.40001712
 40
10.00000000
 50
0.00000000
  1
# 53
  0
ENDBLK
  0
BLOCK
  8
1
  2
4
 70
64
 10
0.0
 20
0.0
  0
LINE
  8
7
 10
1990.98173950
 20
1191.80456554
 11
2264.48149536
 21
1191.80456554
  0
TEXT
  8
1
 10
0.00000000
 20
0.00000000
 40
10.00000000
 50
0.00000000
  1
Size: 42
  0
TEXT
  8
1
 10
2127.73161743
 20
1206.80456554
 40
20.00000000
 50
0.00000000
  1
Piece Name: RKALU1.C6D
  0
TEXT
  8
1
 10
2127.73161743
 20
1206.80456554
 40
20.00000000
 50
0.00000000
  1
Quantity: 1
  0
TEXT
  8
1
 10
2127.73161743
 20
1206.80456554
 40
20.00000000
 50
0.00000000
  1
Rotation: 0
  0
TEXT
  8
1
 10
2127.73161743
 20
1206.80456554
 40
20.00000000
 50
0.00000000
  1
Tilt: 0
  0
TEXT
  8
1
 10
2127.73161743
 20
1206.80456554
 40
20.00000000
 50
0.00000000
  1
Fold: N
  0
TEXT
  8
1
 10
2127.73161743
 20
1206.80456554
 40
20.00000000
 50
0.00000000
  1
Material: 1
  0
POLYLINE
  8
1
 66
1
 70
1
  0
VERTEX
  8
1
 10
2401.23027954
 20
1205.80456554
  0
VERTEX
  8
1
 10
2401.23027954
 20
1149.80456554
  0
VERTEX
  8
1
 10
2366.23027954
 20
1149.80456554
  0
VERTEX
  8
1
 10
2320.23052368
 20
1149.80456554
  0
VERTEX
  8
1
 10
2314.23052368
 20
1149.80456554
  0
VERTEX
  8
1
 10
2178.72857056
 20
1149.80456554
  0
VERTEX
  8
1
 10
2172.72857056
 20
1149.80456554
  0
VERTEX
  8
1
 10
2039.72857056
 20
1149.80456554
  0
VERTEX
  8
1
 10
2033.72857056
 20
1149.80456554
  0
VERTEX
  8
1
 10
1934.22881470
 20
1149.80456554
  0
VERTEX
  8
1
 10
1854.23076782
 20
1149.80456554
  0
VERTEX
  8
1
 10
1854.23076782
 20
1205.80456554
  0
VERTEX
  8
1
 10
1899.23076782
 20
1205.80456554
  0
VERTEX
  8
1
 10
2365.23027954
 20
1205.80456554
  0
VERTEX
  8
1
 10
2367.23027954
 20
1205.80456554
  0
SEQEND
  0
POLYLINE
  8
84
 66
1
 70
1
  0
VERTEX
  8
84
 10
2401.23027954
 20
1205.80456554
  0
VERTEX
  8
84
 10
2401.23027954
 20
1149.80456554
  0
VERTEX
  8
84
 10
2366.23027954
 20
1149.80456554
  0
VERTEX
  8
84
 10
2320.23052368
 20
1149.80456554
  0
VERTEX
  8
84
 10
2314.23052368
 20
1149.80456554
  0
VERTEX
  8
84
 10
2178.72857056
 20
1149.80456554
  0
VERTEX
  8
84
 10
2172.72857056
 20
1149.80456554
  0
VERTEX
  8
84
 10
2039.72857056
 20
1149.80456554
  0
VERTEX
  8
84
 10
2033.72857056
 20
1149.80456554
  0
VERTEX
  8
84
 10
1934.22881470
 20
1149.80456554
  0
VERTEX
  8
84
 10
1854.23076782
 20
1149.80456554
  0
VERTEX
  8
84
 10
1854.23076782
 20
1205.80456554
  0
VERTEX
  8
84
 10
1899.23076782
 20
1205.80456554
  0
VERTEX
  8
84
 10
2365.23027954
 20
1205.80456554
  0
VERTEX
  8
84
 10
2367.23027954
 20
1205.80456554
  0
SEQEND
  0
POINT
  8
2
 10
2401.23027954
 20
1205.80456554
  0
TEXT
  8
2
 10
2401.23027954
 20
1205.80456554
 40
10.00000000
 50
0.00000000
  1
# 54
  0
POINT
  8
2
 10
2401.23027954
 20
1149.80456554
  0
TEXT
  8
2
 10
2401.23027954
 20
1149.80456554
 40
10.00000000
 50
0.00000000
  1
# 55
  0
POINT
  8
2
 10
2366.23027954
 20
1149.80456554
  0
TEXT
  8
2
 10
2366.23027954
 20
1149.80456554
 40
10.00000000
 50
0.00000000
  1
# 56
  0
POINT
  8
2
 10
2320.23052368
 20
1149.80456554
  0
TEXT
  8
2
 10
2320.23052368
 20
1149.80456554
 40
10.00000000
 50
0.00000000
  1
# 57
  0
POINT
  8
2
 10
2314.23052368
 20
1149.80456554
  0
TEXT
  8
2
 10
2314.23052368
 20
1149.80456554
 40
10.00000000
 50
0.00000000
  1
# 58
  0
POINT
  8
2
 10
2178.72857056
 20
1149.80456554
  0
TEXT
  8
2
 10
2178.72857056
 20
1149.80456554
 40
10.00000000
 50
0.00000000
  1
# 59
  0
POINT
  8
2
 10
2172.72857056
 20
1149.80456554
  0
TEXT
  8
2
 10
2172.72857056
 20
1149.80456554
 40
10.00000000
 50
0.00000000
  1
# 60
  0
POINT
  8
2
 10
2039.72857056
 20
1149.80456554
  0
TEXT
  8
2
 10
2039.72857056
 20
1149.80456554
 40
10.00000000
 50
0.00000000
  1
# 61
  0
POINT
  8
2
 10
2033.72857056
 20
1149.80456554
  0
TEXT
  8
2
 10
2033.72857056
 20
1149.80456554
 40
10.00000000
 50
0.00000000
  1
# 62
  0
POINT
  8
2
 10
1934.22881470
 20
1149.80456554
  0
TEXT
  8
2
 10
1934.22881470
 20
1149.80456554
 40
10.00000000
 50
0.00000000
  1
# 63
  0
POINT
  8
2
 10
1854.23076782
 20
1149.80456554
  0
TEXT
  8
2
 10
1854.23076782
 20
1149.80456554
 40
10.00000000
 50
0.00000000
  1
# 64
  0
POINT
  8
2
 10
1854.23076782
 20
1205.80456554
  0
TEXT
  8
2
 10
1854.23076782
 20
1205.80456554
 40
10.00000000
 50
0.00000000
  1
# 65
  0
POINT
  8
2
 10
1899.23076782
 20
1205.80456554
  0
TEXT
  8
2
 10
1899.23076782
 20
1205.80456554
 40
10.00000000
 50
0.00000000
  1
# 66
  0
POINT
  8
2
 10
2365.23027954
 20
1205.80456554
  0
TEXT
  8
2
 10
2365.23027954
 20
1205.80456554
 40
10.00000000
 50
0.00000000
  1
# 67
  0
POINT
  8
2
 10
2367.23027954
 20
1205.80456554
  0
TEXT
  8
2
 10
2367.23027954
 20
1205.80456554
 40
10.00000000
 50
0.00000000
  1
# 68
  0
POINT
  8
4
 10
2366.23027954
 20
1149.80456554
 30
7.50000000
 50
90.00000000
  0
TEXT
  8
1
 10
2366.23027954
 20
1149.80456554
 40
10.00000000
 50
0.00000000
  1
# 69
  0
POINT
  8
4
 10
2320.23052368
 20
1149.80456554
 30
7.07106781
 50
135.00000000
  0
TEXT
  8
1
 10
2320.23052368
 20
1149.80456554
 40
10.00000000
 50
0.00000000
  1
# 70
  0
POINT
  8
4
 10
2314.23052368
 20
1149.80456554
 30
7.07106781
 50
405.00000000
  0
TEXT
  8
1
 10
2314.23052368
 20
1149.80456554
 40
10.00000000
 50
0.00000000
  1
# 71
  0
POINT
  8
4
 10
2178.72857056
 20
1149.80456554
 30
7.07106781
 50
135.00000000
  0
TEXT
  8
1
 10
2178.72857056
 20
1149.80456554
 40
10.00000000
 50
0.00000000
  1
# 72
  0
POINT
  8
4
 10
2172.72857056
 20
1149.80456554
 30
7.07106781
 50
405.00000000
  0
TEXT
  8
1
 10
2172.72857056
 20
1149.80456554
 40
10.00000000
 50
0.00000000
  1
# 73
  0
POINT
  8
4
 10
2039.72857056
 20
1149.80456554
 30
7.07106781
 50
135.00000000
  0
TEXT
  8
1
 10
2039.72857056
 20
1149.80456554
 40
10.00000000
 50
0.00000000
  1
# 74
  0
POINT
  8
4
 10
2033.72857056
 20
1149.80456554
 30
7.07106781
 50
405.00000000
  0
TEXT
  8
1
 10
2033.72857056
 20
1149.80456554
 40
10.00000000
 50
0.00000000
  1
# 75
  0
POINT
  8
4
 10
1934.22881470
 20
1149.80456554
 30
7.50000000
 50
90.00000000
  0
TEXT
  8
1
 10
1934.22881470
 20
1149.80456554
 40
10.00000000
 50
0.00000000
  1
# 76
  0
POINT
  8
4
 10
1899.23076782
 20
1205.80456554
 30
7.50000000
 50
270.00000000
  0
TEXT
  8
1
 10
1899.23076782
 20
1205.80456554
 40
10.00000000
 50
0.00000000
  1
# 77
  0
POINT
  8
4
 10
2365.23027954
 20
1205.80456554
 30
7.50000000
 50
270.00000000
  0
TEXT
  8
1
 10
2365.23027954
 20
1205.80456554
 40
10.00000000
 50
0.00000000
  1
# 78
  0
POINT
  8
4
 10
2367.23027954
 20
1205.80456554
 30
7.50000000
 50
270.00000000
  0
TEXT
  8
1
 10
2367.23027954
 20
1205.80456554
 40
10.00000000
 50
0.00000000
  1
# 79
  0
ENDBLK
  0
BLOCK
  8
1
  2
5
 70
64
 10
0.0
 20
0.0
  0
LINE
  8
7
 10
2369.97880981
 20
1491.20464489
 11
2683.47880981
 21
1491.20464489
  0
TEXT
  8
1
 10
0.00000000
 20
0.00000000
 40
20.00000000
 50
0.00000000
  1
Size: 42
  0
TEXT
  8
1
 10
2526.72880981
 20
1506.20464489
 40
20.00000000
 50
0.00000000
  1
Piece Name: RKALU1.C6E
  0
TEXT
  8
1
 10
2526.72880981
 20
1506.20464489
 40
20.00000000
 50
0.00000000
  1
Quantity: 1
  0
TEXT
  8
1
 10
2526.72880981
 20
1506.20464489
 40
20.00000000
 50
0.00000000
  1
Rotation: 0
  0
TEXT
  8
1
 10
2526.72880981
 20
1506.20464489
 40
20.00000000
 50
0.00000000
  1
Tilt: 0
  0
TEXT
  8
1
 10
2526.72880981
 20
1506.20464489
 40
20.00000000
 50
0.00000000
  1
Fold: N
  0
TEXT
  8
1
 10
2526.72880981
 20
1506.20464489
 40
20.00000000
 50
0.00000000
  1
Material: 1
  0
POLYLINE
  8
1
 66
1
 70
1
  0
VERTEX
  8
1
 10
2213.23084106
 20
1505.20464489
  0
VERTEX
  8
1
 10
2247.23084106
 20
1505.20464489
  0
VERTEX
  8
1
 10
2249.23084106
 20
1505.20464489
  0
VERTEX
  8
1
 10
2679.22986450
 20
1505.20464489
  0
VERTEX
  8
1
 10
2681.22986450
 20
1505.20464489
  0
VERTEX
  8
1
 10
2735.23084106
 20
1505.20464489
  0
VERTEX
  8
1
 10
2790.23084106
 20
1505.20464489
  0
VERTEX
  8
1
 10
2840.23084106
 20
1505.20464489
  0
VERTEX
  8
1
 10
2840.23084106
 20
1449.20464489
  0
VERTEX
  8
1
 10
2790.23084106
 20
1449.20464489
  0
VERTEX
  8
1
 10
2736.23084106
 20
1449.20464489
  0
VERTEX
  8
1
 10
2734.23084106
 20
1449.20464489
  0
VERTEX
  8
1
 10
2680.22986450
 20
1449.20464489
  0
VERTEX
  8
1
 10
2580.73084106
 20
1449.20464489
  0
VERTEX
  8
1
 10
2574.73084106
 20
1449.20464489
  0
VERTEX
  8
1
 10
2441.73084106
 20
1449.20464489
  0
VERTEX
  8
1
 10
2435.73084106
 20
1449.20464489
  0
VERTEX
  8
1
 10
2300.23084106
 20
1449.20464489
  0
VERTEX
  8
1
 10
2294.23084106
 20
1449.20464489
  0
VERTEX
  8
1
 10
2248.23084106
 20
1449.20464489
  0
VERTEX
  8
1
 10
2213.23084106
 20
1449.20464489
  0
SEQEND
  0
POLYLINE
  8
84
 66
1
 70
1
  0
VERTEX
  8
84
 10
2213.23084106
 20
1505.20464489
  0
VERTEX
  8
84
 10
2247.23084106
 20
1505.20464489
  0
VERTEX
  8
84
 10
2249.23084106
 20
1505.20464489
  0
VERTEX
  8
84
 10
2679.22986450
 20
1505.20464489
  0
VERTEX
  8
84
 10
2681.22986450
 20
1505.20464489
  0
VERTEX
  8
84
 10
2735.23084106
 20
1505.20464489
  0
VERTEX
  8
84
 10
2790.23084106
 20
1505.20464489
  0
VERTEX
  8
84
 10
2840.23084106
 20
1505.20464489
  0
VERTEX
  8
84
 10
2840.23084106
 20
1449.20464489
  0
VERTEX
  8
84
 10
2790.23084106
 20
1449.20464489
  0
VERTEX
  8
84
 10
2736.23084106
 20
1449.20464489
  0
VERTEX
  8
84
 10
2734.23084106
 20
1449.20464489
  0
VERTEX
  8
84
 10
2680.22986450
 20
1449.20464489
  0
VERTEX
  8
84
 10
2580.73084106
 20
1449.20464489
  0
VERTEX
  8
84
 10
2574.73084106
 20
1449.20464489
  0
VERTEX
  8
84
 10
2441.73084106
 20
1449.20464489
  0
VERTEX
  8
84
 10
2435.73084106
 20
1449.20464489
  0
VERTEX
  8
84
 10
2300.23084106
 20
1449.20464489
  0
VERTEX
  8
84
 10
2294.23084106
 20
1449.20464489
  0
VERTEX
  8
84
 10
2248.23084106
 20
1449.20464489
  0
VERTEX
  8
84
 10
2213.23084106
 20
1449.20464489
  0
SEQEND
  0
POINT
  8
2
 10
2213.23084106
 20
1505.20464489
  0
TEXT
  8
2
 10
2213.23084106
 20
1505.20464489
 40
10.00000000
 50
0.00000000
  1
# 80
  0
POINT
  8
2
 10
2247.23084106
 20
1505.20464489
  0
TEXT
  8
2
 10
2247.23084106
 20
1505.20464489
 40
10.00000000
 50
0.00000000
  1
# 81
  0
POINT
  8
2
 10
2249.23084106
 20
1505.20464489
  0
TEXT
  8
2
 10
2249.23084106
 20
1505.20464489
 40
10.00000000
 50
0.00000000
  1
# 82
  0
POINT
  8
2
 10
2679.22986450
 20
1505.20464489
  0
TEXT
  8
2
 10
2679.22986450
 20
1505.20464489
 40
10.00000000
 50
0.00000000
  1
# 83
  0
POINT
  8
2
 10
2681.22986450
 20
1505.20464489
  0
TEXT
  8
2
 10
2681.22986450
 20
1505.20464489
 40
10.00000000
 50
0.00000000
  1
# 84
  0
POINT
  8
3
 10
2735.23084106
 20
1505.20464489
  0
POINT
  8
3
 10
2790.23084106
 20
1505.20464489
  0
POINT
  8
2
 10
2840.23084106
 20
1505.20464489
  0
TEXT
  8
2
 10
2840.23084106
 20
1505.20464489
 40
10.00000000
 50
0.00000000
  1
# 85
  0
POINT
  8
2
 10
2840.23084106
 20
1449.20464489
  0
TEXT
  8
2
 10
2840.23084106
 20
1449.20464489
 40
10.00000000
 50
0.00000000
  1
# 86
  0
POINT
  8
3
 10
2790.23084106
 20
1449.20464489
  0
POINT
  8
3
 10
2736.23084106
 20
1449.20464489
  0
POINT
  8
3
 10
2734.23084106
 20
1449.20464489
  0
POINT
  8
2
 10
2680.22986450
 20
1449.20464489
  0
TEXT
  8
2
 10
2680.22986450
 20
1449.20464489
 40
10.00000000
 50
0.00000000
  1
# 87
  0
POINT
  8
2
 10
2580.73084106
 20
1449.20464489
  0
TEXT
  8
2
 10
2580.73084106
 20
1449.20464489
 40
10.00000000
 50
0.00000000
  1
# 88
  0
POINT
  8
2
 10
2574.73084106
 20
1449.20464489
  0
TEXT
  8
2
 10
2574.73084106
 20
1449.20464489
 40
10.00000000
 50
0.00000000
  1
# 89
  0
POINT
  8
2
 10
2441.73084106
 20
1449.20464489
  0
TEXT
  8
2
 10
2441.73084106
 20
1449.20464489
 40
10.00000000
 50
0.00000000
  1
# 90
  0
POINT
  8
2
 10
2435.73084106
 20
1449.20464489
  0
TEXT
  8
2
 10
2435.73084106
 20
1449.20464489
 40
10.00000000
 50
0.00000000
  1
# 91
  0
POINT
  8
2
 10
2300.23084106
 20
1449.20464489
  0
TEXT
  8
2
 10
2300.23084106
 20
1449.20464489
 40
10.00000000
 50
0.00000000
  1
# 92
  0
POINT
  8
2
 10
2294.23084106
 20
1449.20464489
  0
TEXT
  8
2
 10
2294.23084106
 20
1449.20464489
 40
10.00000000
 50
0.00000000
  1
# 93
  0
POINT
  8
2
 10
2248.23084106
 20
1449.20464489
  0
TEXT
  8
2
 10
2248.23084106
 20
1449.20464489
 40
10.00000000
 50
0.00000000
  1
# 94
  0
POINT
  8
2
 10
2213.23084106
 20
1449.20464489
  0
TEXT
  8
2
 10
2213.23084106
 20
1449.20464489
 40
10.00000000
 50
0.00000000
  1
# 95
  0
POINT
  8
4
 10
2247.23084106
 20
1505.20464489
 30
7.50000000
 50
270.00000000
  0
TEXT
  8
1
 10
2247.23084106
 20
1505.20464489
 40
10.00000000
 50
0.00000000
  1
# 96
  0
POINT
  8
4
 10
2249.23084106
 20
1505.20464489
 30
7.50000000
 50
270.00000000
  0
TEXT
  8
1
 10
2249.23084106
 20
1505.20464489
 40
10.00000000
 50
0.00000000
  1
# 97
  0
POINT
  8
4
 10
2679.22986450
 20
1505.20464489
 30
7.50000000
 50
270.00000000
  0
TEXT
  8
1
 10
2679.22986450
 20
1505.20464489
 40
10.00000000
 50
0.00000000
  1
# 98
  0
POINT
  8
4
 10
2681.22986450
 20
1505.20464489
 30
7.50000000
 50
270.00000000
  0
TEXT
  8
1
 10
2681.22986450
 20
1505.20464489
 40
10.00000000
 50
0.00000000
  1
# 99
  0
POINT
  8
4
 10
2735.23084106
 20
1505.20464489
 30
7.50000000
 50
270.00000000
  0
TEXT
  8
1
 10
2735.23084106
 20
1505.20464489
 40
10.00000000
 50
0.00000000
  1
# 100
  0
POINT
  8
4
 10
2790.23084106
 20
1505.20464489
 30
7.50000000
 50
270.00000000
  0
TEXT
  8
1
 10
2790.23084106
 20
1505.20464489
 40
10.00000000
 50
0.00000000
  1
# 101
  0
POINT
  8
4
 10
2790.23084106
 20
1449.20464489
 30
7.50000000
 50
90.00000000
  0
TEXT
  8
1
 10
2790.23084106
 20
1449.20464489
 40
10.00000000
 50
0.00000000
  1
# 102
  0
POINT
  8
4
 10
2736.23084106
 20
1449.20464489
 30
7.50000000
 50
90.00000000
  0
TEXT
  8
1
 10
2736.23084106
 20
1449.20464489
 40
10.00000000
 50
0.00000000
  1
# 103
  0
POINT
  8
4
 10
2734.23084106
 20
1449.20464489
 30
7.50000000
 50
90.00000000
  0
TEXT
  8
1
 10
2734.23084106
 20
1449.20464489
 40
10.00000000
 50
0.00000000
  1
# 104
  0
POINT
  8
4
 10
2680.22986450
 20
1449.20464489
 30
7.50000000
 50
90.00000000
  0
TEXT
  8
1
 10
2680.22986450
 20
1449.20464489
 40
10.00000000
 50
0.00000000
  1
# 105
  0
POINT
  8
4
 10
2580.73084106
 20
1449.20464489
 30
7.07106781
 50
135.00000000
  0
TEXT
  8
1
 10
2580.73084106
 20
1449.20464489
 40
10.00000000
 50
0.00000000
  1
# 106
  0
POINT
  8
4
 10
2574.73084106
 20
1449.20464489
 30
7.07106781
 50
405.00000000
  0
TEXT
  8
1
 10
2574.73084106
 20
1449.20464489
 40
10.00000000
 50
0.00000000
  1
# 107
  0
POINT
  8
4
 10
2441.73084106
 20
1449.20464489
 30
7.07106781
 50
135.00000000
  0
TEXT
  8
1
 10
2441.73084106
 20
1449.20464489
 40
10.00000000
 50
0.00000000
  1
# 108
  0
POINT
  8
4
 10
2435.73084106
 20
1449.20464489
 30
7.07106781
 50
405.00000000
  0
TEXT
  8
1
 10
2435.73084106
 20
1449.20464489
 40
10.00000000
 50
0.00000000
  1
# 109
  0
POINT
  8
4
 10
2300.23084106
 20
1449.20464489
 30
7.07106781
 50
135.00000000
  0
TEXT
  8
1
 10
2300.23084106
 20
1449.20464489
 40
10.00000000
 50
0.00000000
  1
# 110
  0
POINT
  8
4
 10
2294.23084106
 20
1449.20464489
 30
7.07106781
 50
405.00000000
  0
TEXT
  8
1
 10
2294.23084106
 20
1449.20464489
 40
10.00000000
 50
0.00000000
  1
# 111
  0
POINT
  8
4
 10
2248.23084106
 20
1449.20464489
 30
7.50000000
 50
90.00000000
  0
TEXT
  8
1
 10
2248.23084106
 20
1449.20464489
 40
10.00000000
 50
0.00000000
  1
# 112
  0
ENDBLK
  0
BLOCK
  8
1
  2
6
 70
64
 10
0.0
 20
0.0
  0
LINE
  8
7
 10
1988.98084106
 20
1391.40462047
 11
2262.48084106
 21
1391.40462047
  0
TEXT
  8
1
 10
0.00000000
 20
0.00000000
 40
20.00000000
 50
0.00000000
  1
Size: 42
  0
TEXT
  8
1
 10
2125.73084106
 20
1406.40462047
 40
20.00000000
 50
0.00000000
  1
Piece Name: RKALU1.C8D
  0
TEXT
  8
1
 10
2125.73084106
 20
1406.40462047
 40
20.00000000
 50
0.00000000
  1
Quantity: 1
  0
TEXT
  8
1
 10
2125.73084106
 20
1406.40462047
 40
20.00000000
 50
0.00000000
  1
Rotation: 0
  0
TEXT
  8
1
 10
2125.73084106
 20
1406.40462047
 40
20.00000000
 50
0.00000000
  1
Tilt: 0
  0
TEXT
  8
1
 10
2125.73084106
 20
1406.40462047
 40
20.00000000
 50
0.00000000
  1
Fold: N
  0
TEXT
  8
1
 10
2125.73084106
 20
1406.40462047
 40
20.00000000
 50
0.00000000
  1
Material: 1
  0
POLYLINE
  8
1
 66
1
 70
1
  0
VERTEX
  8
1
 10
2399.23084106
 20
1405.40463573
  0
VERTEX
  8
1
 10
2399.23084106
 20
1349.40457470
  0
VERTEX
  8
1
 10
2364.23084106
 20
1349.40457470
  0
VERTEX
  8
1
 10
2318.23084106
 20
1349.40457470
  0
VERTEX
  8
1
 10
2312.23084106
 20
1349.40457470
  0
VERTEX
  8
1
 10
2223.98084106
 20
1349.40457470
  0
VERTEX
  8
1
 10
2217.98084106
 20
1349.40457470
  0
VERTEX
  8
1
 10
2129.73084106
 20
1349.40457470
  0
VERTEX
  8
1
 10
2123.73084106
 20
1349.40457470
  0
VERTEX
  8
1
 10
2035.23084106
 20
1349.40457470
  0
VERTEX
  8
1
 10
2029.23084106
 20
1349.40457470
  0
VERTEX
  8
1
 10
1932.23084106
 20
1349.40457470
  0
VERTEX
  8
1
 10
1852.23084106
 20
1349.40457470
  0
VERTEX
  8
1
 10
1852.23084106
 20
1405.40463573
  0
VERTEX
  8
1
 10
1897.23084106
 20
1405.40463573
  0
VERTEX
  8
1
 10
2363.23084106
 20
1405.40463573
  0
VERTEX
  8
1
 10
2365.23084106
 20
1405.40463573
  0
SEQEND
  0
POLYLINE
  8
84
 66
1
 70
1
  0
VERTEX
  8
84
 10
2399.23084106
 20
1405.40463573
  0
VERTEX
  8
84
 10
2399.23084106
 20
1349.40457470
  0
VERTEX
  8
84
 10
2364.23084106
 20
1349.40457470
  0
VERTEX
  8
84
 10
2318.23084106
 20
1349.40457470
  0
VERTEX
  8
84
 10
2312.23084106
 20
1349.40457470
  0
VERTEX
  8
84
 10
2223.98084106
 20
1349.40457470
  0
VERTEX
  8
84
 10
2217.98084106
 20
1349.40457470
  0
VERTEX
  8
84
 10
2129.73084106
 20
1349.40457470
  0
VERTEX
  8
84
 10
2123.73084106
 20
1349.40457470
  0
VERTEX
  8
84
 10
2035.23084106
 20
1349.40457470
  0
VERTEX
  8
84
 10
2029.23084106
 20
1349.40457470
  0
VERTEX
  8
84
 10
1932.23084106
 20
1349.40457470
  0
VERTEX
  8
84
 10
1852.23084106
 20
1349.40457470
  0
VERTEX
  8
84
 10
1852.23084106
 20
1405.40463573
  0
VERTEX
  8
84
 10
1897.23084106
 20
1405.40463573
  0
VERTEX
  8
84
 10
2363.23084106
 20
1405.40463573
  0
VERTEX
  8
84
 10
2365.23084106
 20
1405.40463573
  0
SEQEND
  0
POINT
  8
2
 10
2399.23084106
 20
1405.40463573
  0
TEXT
  8
2
 10
2399.23084106
 20
1405.40463573
 40
10.00000000
 50
0.00000000
  1
# 113
  0
POINT
  8
2
 10
2399.23084106
 20
1349.40457470
  0
TEXT
  8
2
 10
2399.23084106
 20
1349.40457470
 40
10.00000000
 50
0.00000000
  1
# 114
  0
POINT
  8
2
 10
2364.23084106
 20
1349.40457470
  0
TEXT
  8
2
 10
2364.23084106
 20
1349.40457470
 40
10.00000000
 50
0.00000000
  1
# 115
  0
POINT
  8
2
 10
2318.23084106
 20
1349.40457470
  0
TEXT
  8
2
 10
2318.23084106
 20
1349.40457470
 40
10.00000000
 50
0.00000000
  1
# 116
  0
POINT
  8
2
 10
2312.23084106
 20
1349.40457470
  0
TEXT
  8
2
 10
2312.23084106
 20
1349.40457470
 40
10.00000000
 50
0.00000000
  1
# 117
  0
POINT
  8
2
 10
2223.98084106
 20
1349.40457470
  0
TEXT
  8
2
 10
2223.98084106
 20
1349.40457470
 40
10.00000000
 50
0.00000000
  1
# 118
  0
POINT
  8
2
 10
2217.98084106
 20
1349.40457470
  0
TEXT
  8
2
 10
2217.98084106
 20
1349.40457470
 40
10.00000000
 50
0.00000000
  1
# 119
  0
POINT
  8
2
 10
2129.73084106
 20
1349.40457470
  0
TEXT
  8
2
 10
2129.73084106
 20
1349.40457470
 40
10.00000000
 50
0.00000000
  1
# 120
  0
POINT
  8
2
 10
2123.73084106
 20
1349.40457470
  0
TEXT
  8
2
 10
2123.73084106
 20
1349.40457470
 40
10.00000000
 50
0.00000000
  1
# 121
  0
POINT
  8
2
 10
2035.23084106
 20
1349.40457470
  0
TEXT
  8
2
 10
2035.23084106
 20
1349.40457470
 40
10.00000000
 50
0.00000000
  1
# 122
  0
POINT
  8
2
 10
2029.23084106
 20
1349.40457470
  0
TEXT
  8
2
 10
2029.23084106
 20
1349.40457470
 40
10.00000000
 50
0.00000000
  1
# 123
  0
POINT
  8
2
 10
1932.23084106
 20
1349.40457470
  0
TEXT
  8
2
 10
1932.23084106
 20
1349.40457470
 40
10.00000000
 50
0.00000000
  1
# 124
  0
POINT
  8
2
 10
1852.23084106
 20
1349.40457470
  0
TEXT
  8
2
 10
1852.23084106
 20
1349.40457470
 40
10.00000000
 50
0.00000000
  1
# 125
  0
POINT
  8
2
 10
1852.23084106
 20
1405.40463573
  0
TEXT
  8
2
 10
1852.23084106
 20
1405.40463573
 40
10.00000000
 50
0.00000000
  1
# 126
  0
POINT
  8
2
 10
1897.23084106
 20
1405.40463573
  0
TEXT
  8
2
 10
1897.23084106
 20
1405.40463573
 40
10.00000000
 50
0.00000000
  1
# 127
  0
POINT
  8
2
 10
2363.23084106
 20
1405.40463573
  0
TEXT
  8
2
 10
2363.23084106
 20
1405.40463573
 40
10.00000000
 50
0.00000000
  1
# 128
  0
POINT
  8
2
 10
2365.23084106
 20
1405.40463573
  0
TEXT
  8
2
 10
2365.23084106
 20
1405.40463573
 40
10.00000000
 50
0.00000000
  1
# 129
  0
POINT
  8
4
 10
2364.23084106
 20
1349.40457470
 30
7.50000000
 50
90.00000000
  0
TEXT
  8
1
 10
2364.23084106
 20
1349.40457470
 40
10.00000000
 50
0.00000000
  1
# 130
  0
POINT
  8
4
 10
2318.23084106
 20
1349.40457470
 30
7.07106781
 50
135.00000000
  0
TEXT
  8
1
 10
2318.23084106
 20
1349.40457470
 40
10.00000000
 50
0.00000000
  1
# 131
  0
POINT
  8
4
 10
2312.23084106
 20
1349.40457470
 30
7.07106781
 50
405.00000000
  0
TEXT
  8
1
 10
2312.23084106
 20
1349.40457470
 40
10.00000000
 50
0.00000000
  1
# 132
  0
POINT
  8
4
 10
2223.98084106
 20
1349.40457470
 30
7.07106781
 50
135.00000000
  0
TEXT
  8
1
 10
2223.98084106
 20
1349.40457470
 40
10.00000000
 50
0.00000000
  1
# 133
  0
POINT
  8
4
 10
2217.98084106
 20
1349.40457470
 30
7.07106781
 50
405.00000000
  0
TEXT
  8
1
 10
2217.98084106
 20
1349.40457470
 40
10.00000000
 50
0.00000000
  1
# 134
  0
POINT
  8
4
 10
2129.73084106
 20
1349.40457470
 30
7.07106781
 50
135.00000000
  0
TEXT
  8
1
 10
2129.73084106
 20
1349.40457470
 40
10.00000000
 50
0.00000000
  1
# 135
  0
POINT
  8
4
 10
2123.73084106
 20
1349.40457470
 30
7.07106781
 50
405.00000000
  0
TEXT
  8
1
 10
2123.73084106
 20
1349.40457470
 40
10.00000000
 50
0.00000000
  1
# 136
  0
POINT
  8
4
 10
2035.23084106
 20
1349.40457470
 30
7.07106781
 50
135.00000000
  0
TEXT
  8
1
 10
2035.23084106
 20
1349.40457470
 40
10.00000000
 50
0.00000000
  1
# 137
  0
POINT
  8
4
 10
2029.23084106
 20
1349.40457470
 30
7.07106781
 50
405.00000000
  0
TEXT
  8
1
 10
2029.23084106
 20
1349.40457470
 40
10.00000000
 50
0.00000000
  1
# 138
  0
POINT
  8
4
 10
1932.23084106
 20
1349.40457470
 30
7.50000000
 50
90.00000000
  0
TEXT
  8
1
 10
1932.23084106
 20
1349.40457470
 40
10.00000000
 50
0.00000000
  1
# 139
  0
POINT
  8
4
 10
1897.23084106
 20
1405.40463573
 30
7.50000000
 50
270.00000000
  0
TEXT
  8
1
 10
1897.23084106
 20
1405.40463573
 40
10.00000000
 50
0.00000000
  1
# 140
  0
POINT
  8
4
 10
2363.23084106
 20
1405.40463573
 30
7.50000000
 50
270.00000000
  0
TEXT
  8
1
 10
2363.23084106
 20
1405.40463573
 40
10.00000000
 50
0.00000000
  1
# 141
  0
POINT
  8
4
 10
2365.23084106
 20
1405.40463573
 30
7.50000000
 50
270.00000000
  0
TEXT
  8
1
 10
2365.23084106
 20
1405.40463573
 40
10.00000000
 50
0.00000000
  1
# 142
  0
ENDBLK
  0
BLOCK
  8
1
  2
7
 70
64
 10
0.0
 20
0.0
  0
LINE
  8
7
 10
2371.98084106
 20
1291.60456554
 11
2685.48084106
 21
1291.60456554
  0
TEXT
  8
1
 10
0.00000000
 20
0.00000000
 40
20.00000000
 50
0.00000000
  1
Size: 42
  0
TEXT
  8
1
 10
2528.73084106
 20
1306.60456554
 40
20.00000000
 50
0.00000000
  1
Piece Name: RKALU1.C8E
  0
TEXT
  8
1
 10
2528.73084106
 20
1306.60456554
 40
20.00000000
 50
0.00000000
  1
Quantity: 1
  0
TEXT
  8
1
 10
2528.73084106
 20
1306.60456554
 40
20.00000000
 50
0.00000000
  1
Rotation: 0
  0
TEXT
  8
1
 10
2528.73084106
 20
1306.60456554
 40
20.00000000
 50
0.00000000
  1
Tilt: 0
  0
TEXT
  8
1
 10
2528.73084106
 20
1306.60456554
 40
20.00000000
 50
0.00000000
  1
Fold: N
  0
TEXT
  8
1
 10
2528.73084106
 20
1306.60456554
 40
20.00000000
 50
0.00000000
  1
Material: 1
  0
POLYLINE
  8
1
 66
1
 70
1
  0
VERTEX
  8
1
 10
2215.23084106
 20
1305.60456554
  0
VERTEX
  8
1
 10
2249.23084106
 20
1305.60456554
  0
VERTEX
  8
1
 10
2251.23084106
 20
1305.60456554
  0
VERTEX
  8
1
 10
2681.23084106
 20
1305.60456554
  0
VERTEX
  8
1
 10
2683.23084106
 20
1305.60456554
  0
VERTEX
  8
1
 10
2737.23084106
 20
1305.60456554
  0
VERTEX
  8
1
 10
2792.23084106
 20
1305.60456554
  0
VERTEX
  8
1
 10
2842.23084106
 20
1305.60456554
  0
VERTEX
  8
1
 10
2842.23084106
 20
1249.60456554
  0
VERTEX
  8
1
 10
2792.23084106
 20
1249.60456554
  0
VERTEX
  8
1
 10
2738.23084106
 20
1249.60456554
  0
VERTEX
  8
1
 10
2736.23084106
 20
1249.60456554
  0
VERTEX
  8
1
 10
2682.23084106
 20
1249.60456554
  0
VERTEX
  8
1
 10
2585.23084106
 20
1249.60456554
  0
VERTEX
  8
1
 10
2579.23084106
 20
1249.60456554
  0
VERTEX
  8
1
 10
2490.73084106
 20
1249.60456554
  0
VERTEX
  8
1
 10
2484.73084106
 20
1249.60456554
  0
VERTEX
  8
1
 10
2396.48084106
 20
1249.60456554
  0
VERTEX
  8
1
 10
2390.48084106
 20
1249.60456554
  0
VERTEX
  8
1
 10
2302.23084106
 20
1249.60456554
  0
VERTEX
  8
1
 10
2296.23084106
 20
1249.60456554
  0
VERTEX
  8
1
 10
2250.23084106
 20
1249.60456554
  0
VERTEX
  8
1
 10
2215.23084106
 20
1249.60456554
  0
SEQEND
  0
POLYLINE
  8
84
 66
1
 70
1
  0
VERTEX
  8
84
 10
2215.23084106
 20
1305.60456554
  0
VERTEX
  8
84
 10
2249.23084106
 20
1305.60456554
  0
VERTEX
  8
84
 10
2251.23084106
 20
1305.60456554
  0
VERTEX
  8
84
 10
2681.23084106
 20
1305.60456554
  0
VERTEX
  8
84
 10
2683.23084106
 20
1305.60456554
  0
VERTEX
  8
84
 10
2737.23084106
 20
1305.60456554
  0
VERTEX
  8
84
 10
2792.23084106
 20
1305.60456554
  0
VERTEX
  8
84
 10
2842.23084106
 20
1305.60456554
  0
VERTEX
  8
84
 10
2842.23084106
 20
1249.60456554
  0
VERTEX
  8
84
 10
2792.23084106
 20
1249.60456554
  0
VERTEX
  8
84
 10
2738.23084106
 20
1249.60456554
  0
VERTEX
  8
84
 10
2736.23084106
 20
1249.60456554
  0
VERTEX
  8
84
 10
2682.23084106
 20
1249.60456554
  0
VERTEX
  8
84
 10
2585.23084106
 20
1249.60456554
  0
VERTEX
  8
84
 10
2579.23084106
 20
1249.60456554
  0
VERTEX
  8
84
 10
2490.73084106
 20
1249.60456554
  0
VERTEX
  8
84
 10
2484.73084106
 20
1249.60456554
  0
VERTEX
  8
84
 10
2396.48084106
 20
1249.60456554
  0
VERTEX
  8
84
 10
2390.48084106
 20
1249.60456554
  0
VERTEX
  8
84
 10
2302.23084106
 20
1249.60456554
  0
VERTEX
  8
84
 10
2296.23084106
 20
1249.60456554
  0
VERTEX
  8
84
 10
2250.23084106
 20
1249.60456554
  0
VERTEX
  8
84
 10
2215.23084106
 20
1249.60456554
  0
SEQEND
  0
POINT
  8
2
 10
2215.23084106
 20
1305.60456554
  0
TEXT
  8
2
 10
2215.23084106
 20
1305.60456554
 40
10.00000000
 50
0.00000000
  1
# 143
  0
POINT
  8
2
 10
2249.23084106
 20
1305.60456554
  0
TEXT
  8
2
 10
2249.23084106
 20
1305.60456554
 40
10.00000000
 50
0.00000000
  1
# 144
  0
POINT
  8
2
 10
2251.23084106
 20
1305.60456554
  0
TEXT
  8
2
 10
2251.23084106
 20
1305.60456554
 40
10.00000000
 50
0.00000000
  1
# 145
  0
POINT
  8
2
 10
2681.23084106
 20
1305.60456554
  0
TEXT
  8
2
 10
2681.23084106
 20
1305.60456554
 40
10.00000000
 50
0.00000000
  1
# 146
  0
POINT
  8
2
 10
2683.23084106
 20
1305.60456554
  0
TEXT
  8
2
 10
2683.23084106
 20
1305.60456554
 40
10.00000000
 50
0.00000000
  1
# 147
  0
POINT
  8
3
 10
2737.23084106
 20
1305.60456554
  0
POINT
  8
3
 10
2792.23084106
 20
1305.60456554
  0
POINT
  8
2
 10
2842.23084106
 20
1305.60456554
  0
TEXT
  8
2
 10
2842.23084106
 20
1305.60456554
 40
10.00000000
 50
0.00000000
  1
# 148
  0
POINT
  8
2
 10
2842.23084106
 20
1249.60456554
  0
TEXT
  8
2
 10
2842.23084106
 20
1249.60456554
 40
10.00000000
 50
0.00000000
  1
# 149
  0
POINT
  8
3
 10
2792.23084106
 20
1249.60456554
  0
POINT
  8
3
 10
2738.23084106
 20
1249.60456554
  0
POINT
  8
3
 10
2736.23084106
 20
1249.60456554
  0
POINT
  8
2
 10
2682.23084106
 20
1249.60456554
  0
TEXT
  8
2
 10
2682.23084106
 20
1249.60456554
 40
10.00000000
 50
0.00000000
  1
# 150
  0
POINT
  8
2
 10
2585.23084106
 20
1249.60456554
  0
TEXT
  8
2
 10
2585.23084106
 20
1249.60456554
 40
10.00000000
 50
0.00000000
  1
# 151
  0
POINT
  8
2
 10
2579.23084106
 20
1249.60456554
  0
TEXT
  8
2
 10
2579.23084106
 20
1249.60456554
 40
10.00000000
 50
0.00000000
  1
# 152
  0
POINT
  8
2
 10
2490.73084106
 20
1249.60456554
  0
TEXT
  8
2
 10
2490.73084106
 20
1249.60456554
 40
10.00000000
 50
0.00000000
  1
# 153
  0
POINT
  8
2
 10
2484.73084106
 20
1249.60456554
  0
TEXT
  8
2
 10
2484.73084106
 20
1249.60456554
 40
10.00000000
 50
0.00000000
  1
# 154
  0
POINT
  8
2
 10
2396.48084106
 20
1249.60456554
  0
TEXT
  8
2
 10
2396.48084106
 20
1249.60456554
 40
10.00000000
 50
0.00000000
  1
# 155
  0
POINT
  8
2
 10
2390.48084106
 20
1249.60456554
  0
TEXT
  8
2
 10
2390.48084106
 20
1249.60456554
 40
10.00000000
 50
0.00000000
  1
# 156
  0
POINT
  8
2
 10
2302.23084106
 20
1249.60456554
  0
TEXT
  8
2
 10
2302.23084106
 20
1249.60456554
 40
10.00000000
 50
0.00000000
  1
# 157
  0
POINT
  8
2
 10
2296.23084106
 20
1249.60456554
  0
TEXT
  8
2
 10
2296.23084106
 20
1249.60456554
 40
10.00000000
 50
0.00000000
  1
# 158
  0
POINT
  8
2
 10
2250.23084106
 20
1249.60456554
  0
TEXT
  8
2
 10
2250.23084106
 20
1249.60456554
 40
10.00000000
 50
0.00000000
  1
# 159
  0
POINT
  8
2
 10
2215.23084106
 20
1249.60456554
  0
TEXT
  8
2
 10
2215.23084106
 20
1249.60456554
 40
10.00000000
 50
0.00000000
  1
# 160
  0
POINT
  8
4
 10
2249.23084106
 20
1305.60456554
 30
7.50000000
 50
270.00000000
  0
TEXT
  8
1
 10
2249.23084106
 20
1305.60456554
 40
10.00000000
 50
0.00000000
  1
# 161
  0
POINT
  8
4
 10
2251.23084106
 20
1305.60456554
 30
7.50000000
 50
270.00000000
  0
TEXT
  8
1
 10
2251.23084106
 20
1305.60456554
 40
10.00000000
 50
0.00000000
  1
# 162
  0
POINT
  8
4
 10
2681.23084106
 20
1305.60456554
 30
7.50000000
 50
270.00000000
  0
TEXT
  8
1
 10
2681.23084106
 20
1305.60456554
 40
10.00000000
 50
0.00000000
  1
# 163
  0
POINT
  8
4
 10
2683.23084106
 20
1305.60456554
 30
7.50000000
 50
270.00000000
  0
TEXT
  8
1
 10
2683.23084106
 20
1305.60456554
 40
10.00000000
 50
0.00000000
  1
# 164
  0
POINT
  8
4
 10
2737.23084106
 20
1305.60456554
 30
7.50000000
 50
270.00000000
  0
TEXT
  8
1
 10
2737.23084106
 20
1305.60456554
 40
10.00000000
 50
0.00000000
  1
# 165
  0
POINT
  8
4
 10
2792.23084106
 20
1305.60456554
 30
7.50000000
 50
270.00000000
  0
TEXT
  8
1
 10
2792.23084106
 20
1305.60456554
 40
10.00000000
 50
0.00000000
  1
# 166
  0
POINT
  8
4
 10
2792.23084106
 20
1249.60456554
 30
7.50000000
 50
90.00000000
  0
TEXT
  8
1
 10
2792.23084106
 20
1249.60456554
 40
10.00000000
 50
0.00000000
  1
# 167
  0
POINT
  8
4
 10
2738.23084106
 20
1249.60456554
 30
7.50000000
 50
90.00000000
  0
TEXT
  8
1
 10
2738.23084106
 20
1249.60456554
 40
10.00000000
 50
0.00000000
  1
# 168
  0
POINT
  8
4
 10
2736.23084106
 20
1249.60456554
 30
7.50000000
 50
450.00000000
  0
TEXT
  8
1
 10
2736.23084106
 20
1249.60456554
 40
10.00000000
 50
0.00000000
  1
# 169
  0
POINT
  8
4
 10
2682.23084106
 20
1249.60456554
 30
7.50000000
 50
90.00000000
  0
TEXT
  8
1
 10
2682.23084106
 20
1249.60456554
 40
10.00000000
 50
0.00000000
  1
# 170
  0
POINT
  8
4
 10
2585.23084106
 20
1249.60456554
 30
7.07106781
 50
135.00000000
  0
TEXT
  8
1
 10
2585.23084106
 20
1249.60456554
 40
10.00000000
 50
0.00000000
  1
# 171
  0
POINT
  8
4
 10
2579.23084106
 20
1249.60456554
 30
7.07106781
 50
405.00000000
  0
TEXT
  8
1
 10
2579.23084106
 20
1249.60456554
 40
10.00000000
 50
0.00000000
  1
# 172
  0
POINT
  8
4
 10
2490.73084106
 20
1249.60456554
 30
7.07106781
 50
135.00000000
  0
TEXT
  8
1
 10
2490.73084106
 20
1249.60456554
 40
10.00000000
 50
0.00000000
  1
# 173
  0
POINT
  8
4
 10
2484.73084106
 20
1249.60456554
 30
7.07106781
 50
405.00000000
  0
TEXT
  8
1
 10
2484.73084106
 20
1249.60456554
 40
10.00000000
 50
0.00000000
  1
# 174
  0
POINT
  8
4
 10
2396.48084106
 20
1249.60456554
 30
7.07106781
 50
135.00000000
  0
TEXT
  8
1
 10
2396.48084106
 20
1249.60456554
 40
10.00000000
 50
0.00000000
  1
# 175
  0
POINT
  8
4
 10
2390.48084106
 20
1249.60456554
 30
7.07106781
 50
405.00000000
  0
TEXT
  8
1
 10
2390.48084106
 20
1249.60456554
 40
10.00000000
 50
0.00000000
  1
# 176
  0
POINT
  8
4
 10
2302.23084106
 20
1249.60456554
 30
7.07106781
 50
135.00000000
  0
TEXT
  8
1
 10
2302.23084106
 20
1249.60456554
 40
10.00000000
 50
0.00000000
  1
# 177
  0
POINT
  8
4
 10
2296.23084106
 20
1249.60456554
 30
7.07106781
 50
405.00000000
  0
TEXT
  8
1
 10
2296.23084106
 20
1249.60456554
 40
10.00000000
 50
0.00000000
  1
# 178
  0
POINT
  8
4
 10
2250.23084106
 20
1249.60456554
 30
7.50000000
 50
90.00000000
  0
TEXT
  8
1
 10
2250.23084106
 20
1249.60456554
 40
10.00000000
 50
0.00000000
  1
# 179
  0
ENDBLK
  0
BLOCK
  8
1
  2
8
 70
64
 10
0.0
 20
0.0
  0
LINE
  8
7
 10
1805.25265656
 20
53.34726563
 11
1901.28000031
 21
53.34726563
  0
TEXT
  8
1
 10
0.00000000
 20
0.00000000
 40
20.00000000
 50
0.00000000
  1
Size: 42
  0
TEXT
  8
1
 10
1853.26632843
 20
57.09726563
 40
5.00000000
 50
0.00000000
  1
Piece Name: RKALU1.CA1
  0
TEXT
  8
1
 10
1853.26632843
 20
57.09726563
 40
5.00000000
 50
0.00000000
  1
Quantity: 1
  0
TEXT
  8
1
 10
1853.26632843
 20
57.09726563
 40
5.00000000
 50
0.00000000
  1
Rotation: 0
  0
TEXT
  8
1
 10
1853.26632843
 20
57.09726563
 40
5.00000000
 50
0.00000000
  1
Tilt: 0
  0
TEXT
  8
1
 10
1853.26632843
 20
57.09726563
 40
5.00000000
 50
0.00000000
  1
Fold: N
  0
TEXT
  8
1
 10
1853.26632843
 20
57.09726563
 40
5.00000000
 50
0.00000000
  1
Material: 1
  0
POLYLINE
  8
1
 66
1
 70
1
  0
VERTEX
  8
1
 10
1749.81404419
 20
52.06923828
  0
VERTEX
  8
1
 10
1760.08336978
 20
57.37124966
  0
VERTEX
  8
1
 10
1770.61677856
 20
62.06533203
  0
VERTEX
  8
1
 10
1778.96485671
 20
65.31262493
  0
VERTEX
  8
1
 10
1787.48884888
 20
68.04189453
  0
VERTEX
  8
1
 10
1802.73494263
 20
71.37197266
  0
VERTEX
  8
1
 10
1815.48288730
 20
73.45809837
  0
VERTEX
  8
1
 10
1828.27693481
 20
75.24990234
  0
VERTEX
  8
1
 10
1847.33494255
 20
77.78774124
  0
VERTEX
  8
1
 10
1866.22127075
 20
81.22255859
  0
VERTEX
  8
1
 10
1883.65073759
 20
86.17754537
  0
VERTEX
  8
1
 10
1900.57869263
 20
92.67958984
  0
VERTEX
  8
1
 10
1916.38630981
 20
100.18642578
  0
VERTEX
  8
1
 10
1941.86873169
 20
79.79287109
  0
VERTEX
  8
1
 10
1936.87459106
 20
22.28554687
  0
VERTEX
  8
1
 10
1936.15681763
 20
15.02431641
  0
VERTEX
  8
1
 10
1891.98982544
 20
15.51259766
  0
VERTEX
  8
1
 10
1823.82380981
 20
15.88759766
  0
VERTEX
  8
1
 10
1772.76716919
 20
15.98037109
  0
VERTEX
  8
1
 10
1770.99959106
 20
23.96181641
  0
VERTEX
  8
1
 10
1756.23396606
 20
23.87246094
  0
SEQEND
  0
POLYLINE
  8
84
 66
1
 70
1
  0
VERTEX
  8
84
 10
1749.81404419
 20
52.06923828
  0
VERTEX
  8
84
 10
1760.08336978
 20
57.37124966
  0
VERTEX
  8
84
 10
1770.61677856
 20
62.06533203
  0
VERTEX
  8
84
 10
1778.96485671
 20
65.31262493
  0
VERTEX
  8
84
 10
1787.48884888
 20
68.04189453
  0
VERTEX
  8
84
 10
1802.73494263
 20
71.37197266
  0
VERTEX
  8
84
 10
1815.48288730
 20
73.45809837
  0
VERTEX
  8
84
 10
1828.27693481
 20
75.24990234
  0
VERTEX
  8
84
 10
1847.33494255
 20
77.78774124
  0
VERTEX
  8
84
 10
1866.22127075
 20
81.22255859
  0
VERTEX
  8
84
 10
1883.65073759
 20
86.17754537
  0
VERTEX
  8
84
 10
1900.57869263
 20
92.67958984
  0
VERTEX
  8
84
 10
1916.38630981
 20
100.18642578
  0
VERTEX
  8
84
 10
1941.86873169
 20
79.79287109
  0
VERTEX
  8
84
 10
1936.87459106
 20
22.28554687
  0
VERTEX
  8
84
 10
1936.15681763
 20
15.02431641
  0
VERTEX
  8
84
 10
1891.98982544
 20
15.51259766
  0
VERTEX
  8
84
 10
1823.82380981
 20
15.88759766
  0
VERTEX
  8
84
 10
1772.76716919
 20
15.98037109
  0
VERTEX
  8
84
 10
1770.99959106
 20
23.96181641
  0
VERTEX
  8
84
 10
1756.23396606
 20
23.87246094
  0
SEQEND
  0
POINT
  8
2
 10
1749.81404419
 20
52.06923828
  0
TEXT
  8
2
 10
1749.81404419
 20
52.06923828
 40
10.00000000
 50
0.00000000
  1
# 180
  0
POINT
  8
3
 10
1760.08336978
 20
57.37124966
  0
POINT
  8
3
 10
1770.61677856
 20
62.06533203
  0
POINT
  8
3
 10
1778.96485671
 20
65.31262493
  0
POINT
  8
3
 10
1787.48884888
 20
68.04189453
  0
POINT
  8
3
 10
1802.73494263
 20
71.37197266
  0
POINT
  8
3
 10
1815.48288730
 20
73.45809837
  0
POINT
  8
3
 10
1828.27693481
 20
75.24990234
  0
POINT
  8
3
 10
1847.33494255
 20
77.78774124
  0
POINT
  8
3
 10
1866.22127075
 20
81.22255859
  0
POINT
  8
3
 10
1883.65073759
 20
86.17754537
  0
POINT
  8
3
 10
1900.57869263
 20
92.67958984
  0
POINT
  8
2
 10
1916.38630981
 20
100.18642578
  0
TEXT
  8
2
 10
1916.38630981
 20
100.18642578
 40
10.00000000
 50
0.00000000
  1
# 181
  0
POINT
  8
2
 10
1941.86873169
 20
79.79287109
  0
TEXT
  8
2
 10
1941.86873169
 20
79.79287109
 40
10.00000000
 50
0.00000000
  1
# 182
  0
POINT
  8
2
 10
1936.87459106
 20
22.28554687
  0
TEXT
  8
2
 10
1936.87459106
 20
22.28554687
 40
10.00000000
 50
0.00000000
  1
# 183
  0
POINT
  8
2
 10
1936.15681763
 20
15.02431641
  0
TEXT
  8
2
 10
1936.15681763
 20
15.02431641
 40
10.00000000
 50
0.00000000
  1
# 184
  0
POINT
  8
3
 10
1891.98982544
 20
15.51259766
  0
POINT
  8
3
 10
1823.82380981
 20
15.88759766
  0
POINT
  8
2
 10
1772.76716919
 20
15.98037109
  0
TEXT
  8
2
 10
1772.76716919
 20
15.98037109
 40
10.00000000
 50
0.00000000
  1
# 185
  0
POINT
  8
2
 10
1770.99959106
 20
23.96181641
  0
TEXT
  8
2
 10
1770.99959106
 20
23.96181641
 40
10.00000000
 50
0.00000000
  1
# 186
  0
POINT
  8
2
 10
1756.23396606
 20
23.87246094
  0
TEXT
  8
2
 10
1756.23396606
 20
23.87246094
 40
10.00000000
 50
0.00000000
  1
# 187
  0
POINT
  8
4
 10
1936.87459106
 20
22.28554687
 30
7.50000000
 50
174.69566443
  0
TEXT
  8
1
 10
1936.87459106
 20
22.28554687
 40
10.00000000
 50
0.00000000
  1
# 188
  0
ENDBLK
  0
BLOCK
  8
1
  2
9
 70
64
 10
0.0
 20
0.0
  0
LINE
  8
7
 10
1798.20887324
 20
1085.68500489
 11
1892.34705684
 21
1085.68500489
  0
TEXT
  8
1
 10
0.00000000
 20
0.00000000
 40
5.00000000
 50
0.00000000
  1
Size: 42
  0
TEXT
  8
1
 10
1845.27796504
 20
1089.43500489
 40
5.00000000
 50
0.00000000
  1
Piece Name: RKALU1.CAR
  0
TEXT
  8
1
 10
1845.27796504
 20
1089.43500489
 40
5.00000000
 50
0.00000000
  1
Quantity: 1
  0
TEXT
  8
1
 10
1845.27796504
 20
1089.43500489
 40
5.00000000
 50
0.00000000
  1
Rotation: 0
  0
TEXT
  8
1
 10
1845.27796504
 20
1089.43500489
 40
5.00000000
 50
0.00000000
  1
Tilt: 0
  0
TEXT
  8
1
 10
1845.27796504
 20
1089.43500489
 40
5.00000000
 50
0.00000000
  1
Fold: N
  0
TEXT
  8
1
 10
1845.27796504
 20
1089.43500489
 40
5.00000000
 50
0.00000000
  1
Material: 1
  0
POLYLINE
  8
1
 66
1
 70
1
  0
VERTEX
  8
1
 10
1748.24729679
 20
1087.40116700
  0
VERTEX
  8
1
 10
1752.69260929
 20
1106.82157715
  0
VERTEX
  8
1
 10
1767.53928897
 20
1106.80351075
  0
VERTEX
  8
1
 10
1769.30882022
 20
1114.78837403
  0
VERTEX
  8
1
 10
1804.08128116
 20
1114.98124512
  0
VERTEX
  8
1
 10
1844.47877941
 20
1115.22744281
  0
VERTEX
  8
1
 10
1884.87620304
 20
1115.48612794
  0
VERTEX
  8
1
 10
1932.71995304
 20
1115.79374512
  0
VERTEX
  8
1
 10
1933.61253116
 20
1108.47001465
  0
VERTEX
  8
1
 10
1936.52366397
 20
1061.05058106
  0
VERTEX
  8
1
 10
1922.64391779
 20
1061.28037763
  0
VERTEX
  8
1
 10
1908.76389835
 20
1061.36503419
  0
VERTEX
  8
1
 10
1880.99436710
 20
1061.19804200
  0
VERTEX
  8
1
 10
1867.11649937
 20
1061.29458422
  0
VERTEX
  8
1
 10
1853.24143741
 20
1061.54862794
  0
VERTEX
  8
1
 10
1825.48753116
 20
1062.25858887
  0
VERTEX
  8
1
 10
1811.61083235
 20
1062.74819381
  0
VERTEX
  8
1
 10
1797.79319522
 20
1064.11405762
  0
VERTEX
  8
1
 10
1784.21810989
 20
1067.11970607
  0
VERTEX
  8
1
 10
1777.63164368
 20
1069.31176469
  0
VERTEX
  8
1
 10
1771.25999210
 20
1071.97440919
  0
VERTEX
  8
1
 10
1765.14335549
 20
1075.11802188
  0
VERTEX
  8
1
 10
1759.28251397
 20
1078.73887202
  0
VERTEX
  8
1
 10
1753.65723769
 20
1082.83418020
  0
SEQEND
  0
POLYLINE
  8
84
 66
1
 70
1
  0
VERTEX
  8
84
 10
1748.24729679
 20
1087.40116700
  0
VERTEX
  8
84
 10
1752.69260929
 20
1106.82157715
  0
VERTEX
  8
84
 10
1767.53928897
 20
1106.80351075
  0
VERTEX
  8
84
 10
1769.30882022
 20
1114.78837403
  0
VERTEX
  8
84
 10
1804.08128116
 20
1114.98124512
  0
VERTEX
  8
84
 10
1844.47877941
 20
1115.22744281
  0
VERTEX
  8
84
 10
1884.87620304
 20
1115.48612794
  0
VERTEX
  8
84
 10
1932.71995304
 20
1115.79374512
  0
VERTEX
  8
84
 10
1933.61253116
 20
1108.47001465
  0
VERTEX
  8
84
 10
1936.52366397
 20
1061.05058106
  0
VERTEX
  8
84
 10
1922.64391779
 20
1061.28037763
  0
VERTEX
  8
84
 10
1908.76389835
 20
1061.36503419
  0
VERTEX
  8
84
 10
1880.99436710
 20
1061.19804200
  0
VERTEX
  8
84
 10
1867.11649937
 20
1061.29458422
  0
VERTEX
  8
84
 10
1853.24143741
 20
1061.54862794
  0
VERTEX
  8
84
 10
1825.48753116
 20
1062.25858887
  0
VERTEX
  8
84
 10
1811.61083235
 20
1062.74819381
  0
VERTEX
  8
84
 10
1797.79319522
 20
1064.11405762
  0
VERTEX
  8
84
 10
1784.21810989
 20
1067.11970607
  0
VERTEX
  8
84
 10
1777.63164368
 20
1069.31176469
  0
VERTEX
  8
84
 10
1771.25999210
 20
1071.97440919
  0
VERTEX
  8
84
 10
1765.14335549
 20
1075.11802188
  0
VERTEX
  8
84
 10
1759.28251397
 20
1078.73887202
  0
VERTEX
  8
84
 10
1753.65723769
 20
1082.83418020
  0
SEQEND
  0
POINT
  8
2
 10
1748.24729679
 20
1087.40116700
  0
TEXT
  8
2
 10
1748.24729679
 20
1087.40116700
 40
10.00000000
 50
0.00000000
  1
# 189
  0
POINT
  8
2
 10
1752.69260929
 20
1106.82157715
  0
TEXT
  8
2
 10
1752.69260929
 20
1106.82157715
 40
10.00000000
 50
0.00000000
  1
# 190
  0
POINT
  8
2
 10
1767.53928897
 20
1106.80351075
  0
TEXT
  8
2
 10
1767.53928897
 20
1106.80351075
 40
10.00000000
 50
0.00000000
  1
# 191
  0
POINT
  8
2
 10
1769.30882022
 20
1114.78837403
  0
TEXT
  8
2
 10
1769.30882022
 20
1114.78837403
 40
10.00000000
 50
0.00000000
  1
# 192
  0
POINT
  8
3
 10
1804.08128116
 20
1114.98124512
  0
POINT
  8
3
 10
1844.47877941
 20
1115.22744281
  0
POINT
  8
3
 10
1884.87620304
 20
1115.48612794
  0
POINT
  8
2
 10
1932.71995304
 20
1115.79374512
  0
TEXT
  8
2
 10
1932.71995304
 20
1115.79374512
 40
10.00000000
 50
0.00000000
  1
# 193
  0
POINT
  8
2
 10
1933.61253116
 20
1108.47001465
  0
TEXT
  8
2
 10
1933.61253116
 20
1108.47001465
 40
10.00000000
 50
0.00000000
  1
# 194
  0
POINT
  8
2
 10
1936.52366397
 20
1061.05058106
  0
TEXT
  8
2
 10
1936.52366397
 20
1061.05058106
 40
10.00000000
 50
0.00000000
  1
# 195
  0
POINT
  8
3
 10
1922.64391779
 20
1061.28037763
  0
POINT
  8
3
 10
1908.76389835
 20
1061.36503419
  0
POINT
  8
3
 10
1880.99436710
 20
1061.19804200
  0
POINT
  8
3
 10
1867.11649937
 20
1061.29458422
  0
POINT
  8
3
 10
1853.24143741
 20
1061.54862794
  0
POINT
  8
3
 10
1825.48753116
 20
1062.25858887
  0
POINT
  8
3
 10
1811.61083235
 20
1062.74819381
  0
POINT
  8
3
 10
1797.79319522
 20
1064.11405762
  0
POINT
  8
3
 10
1784.21810989
 20
1067.11970607
  0
POINT
  8
3
 10
1777.63164368
 20
1069.31176469
  0
POINT
  8
3
 10
1771.25999210
 20
1071.97440919
  0
POINT
  8
3
 10
1765.14335549
 20
1075.11802188
  0
POINT
  8
3
 10
1759.28251397
 20
1078.73887202
  0
POINT
  8
3
 10
1753.65723769
 20
1082.83418020
  0
POINT
  8
4
 10
1933.61253116
 20
1108.47001465
 30
7.50000000
 50
185.23084326
  0
TEXT
  8
1
 10
1933.61253116
 20
1108.47001465
 40
10.00000000
 50
0.00000000
  1
# 196
  0
ENDBLK
  0
ENDSEC
  0
SECTION
  2
ENTITIES
  0
LINE
  8
9
 10
0.00000000
 20
0.00000000
 11
0.00000000
 21
0.00000000
  0
LINE
  8
10
 10
0.00000000
 20
0.00000000
 11
0.00000000
 21
0.00000000
  0
INSERT
  8
1
  2
1
 10
0.0
 20
0.0
  0
INSERT
  8
1
  2
2
 10
0.0
 20
0.0
  0
INSERT
  8
1
  2
3
 10
0.0
 20
0.0
  0
INSERT
  8
1
  2
4
 10
0.0
 20
0.0
  0
INSERT
  8
1
  2
5
 10
0.0
 20
0.0
  0
INSERT
  8
1
  2
6
 10
0.0
 20
0.0
  0
INSERT
  8
1
  2
7
 10
0.0
 20
0.0
  0
INSERT
  8
1
  2
8
 10
0.0
 20
0.0
  0
INSERT
  8
1
  2
9
 10
0.0
 20
0.0
  0
TEXT
  8
1
 10
0.00000000
 20
0.00000000
 40
10.00000000
 50
0.00000000
  1
Style Name: ASTM D 6673
  0
TEXT
  8
1
 10
0.00000000
 20
0.00000000
 40
10.00000000
 50
0.00000000
  1
Grade Rule Table: KALU1
  0
TEXT
  8
1
 10
0.00000000
 20
0.00000000
 40
10.00000000
 50
0.00000000
  1
Sample Size: 42
  0
TEXT
  8
1
 10
0.00000000
 20
0.00000000
 40
10.00000000
 50
0.00000000
  1
Units: METRIC
  0
TEXT
  8
1
 10
0.00000000
 20
0.00000000
 40
10.00000000
 50
0.00000000
  1
Creation Date: 12-1-2025
  0
TEXT
  8
1
 10
0.00000000
 20
0.00000000
 40
10.00000000
 50
0.00000000
  1
Creation Time: 20:59
  0
TEXT
  8
1
 10
0.00000000
 20
0.00000000
 40
10.00000000
 50
0.00000000
  1
Author: Audaces; Audaces Vesturio 2015
  0
TEXT
  8
1
 10
0.00000000
 20
0.00000000
 40
10.00000000
 50
0.00000000
  1
Curve Tolerance: 0.025
  0
TEXT
  8
1
 10
0.00000000
 20
0.00000000
 40
10.00000000
 50
0.00000000
  1
ASTM/PDE: 1
  0
ENDSEC
  0
EOF
