  0
SECTION
  2
BLOCKS
  0
BLOCK
  8
1
  2
1
 70
64
 10
0.0
 20
0.0
  0
LINE
  8
7
 10
1509.94723606
 20
384.28641357
 11
1833.74054050
 21
384.28641357
  0
TEXT
  8
1
 10
0.00000000
 20
0.00000000
 40
10.00000000
 50
0.00000000
  1
Size: 46
  0
TEXT
  8
1
 10
1671.84388828
 20
399.28641357
 40
20.00000000
 50
0.00000000
  1
Piece Name: AKIL.D
  0
TEXT
  8
1
 10
1671.84388828
 20
399.28641357
 40
20.00000000
 50
0.00000000
  1
Quantity: 1
  0
TEXT
  8
1
 10
1671.84388828
 20
399.28641357
 40
20.00000000
 50
0.00000000
  1
Rotation: 0
  0
TEXT
  8
1
 10
1671.84388828
 20
399.28641357
 40
20.00000000
 50
0.00000000
  1
Tilt: 0
  0
TEXT
  8
1
 10
1671.84388828
 20
399.28641357
 40
20.00000000
 50
0.00000000
  1
Fold: N
  0
TEXT
  8
1
 10
1671.84388828
 20
399.28641357
 40
20.00000000
 50
0.00000000
  1
Material: 1
  0
POLYLINE
  8
1
 66
1
 70
1
  0
VERTEX
  8
1
 10
1635.20768661
 20
366.22358093
  0
VERTEX
  8
1
 10
1408.26536484
 20
366.06293640
  0
VERTEX
  8
1
 10
1403.49314804
 20
462.42505798
  0
VERTEX
  8
1
 10
1406.19871445
 20
567.42395935
  0
VERTEX
  8
1
 10
1446.19871445
 20
567.42322693
  0
VERTEX
  8
1
 10
1638.93717880
 20
567.42151794
  0
VERTEX
  8
1
 10
1678.93730087
 20
567.42102966
  0
VERTEX
  8
1
 10
1681.84868486
 20
550.64617030
  0
VERTEX
  8
1
 10
1686.37561008
 20
535.10534582
  0
VERTEX
  8
1
 10
1689.29705411
 20
527.80558649
  0
VERTEX
  8
1
 10
1692.68496761
 20
520.82380369
  0
VERTEX
  8
1
 10
1696.56021196
 20
514.16315334
  0
VERTEX
  8
1
 10
1700.94364853
 20
507.82679138
  0
VERTEX
  8
1
 10
1706.61319433
 20
500.95132684
  0
VERTEX
  8
1
 10
1712.90151046
 20
494.49577122
  0
VERTEX
  8
1
 10
1719.72961215
 20
488.44817561
  0
VERTEX
  8
1
 10
1727.01851465
 20
482.79659111
  0
VERTEX
  8
1
 10
1742.66278305
 20
472.63365982
  0
VERTEX
  8
1
 10
1759.20243759
 20
463.91138611
  0
VERTEX
  8
1
 10
1776.67463318
 20
456.27762857
  0
VERTEX
  8
1
 10
1794.38805604
 20
449.78414856
  0
VERTEX
  8
1
 10
1812.30249292
 20
444.13462179
  0
VERTEX
  8
1
 10
1830.37773056
 20
439.03272400
  0
VERTEX
  8
1
 10
1848.33147763
 20
434.30074516
  0
VERTEX
  8
1
 10
1866.38950975
 20
429.84973360
  0
VERTEX
  8
1
 10
1884.53875921
 20
425.71609310
  0
VERTEX
  8
1
 10
1902.76615829
 20
421.93622742
  0
VERTEX
  8
1
 10
1921.17152024
 20
418.51508038
  0
VERTEX
  8
1
 10
1939.63322883
 20
415.45417103
  0
VERTEX
  8
1
 10
1958.14174883
 20
412.71876253
  0
VERTEX
  8
1
 10
1976.68754501
 20
410.27411804
  0
VERTEX
  8
1
 10
1995.23618065
 20
408.09620232
  0
VERTEX
  8
1
 10
2013.81564737
 20
406.18512095
  0
VERTEX
  8
1
 10
2032.42911589
 20
404.55242485
  0
VERTEX
  8
1
 10
2051.07975693
 20
403.20966492
  0
VERTEX
  8
1
 10
2035.87589951
 20
367.67096863
  0
VERTEX
  8
1
 10
2028.01278113
 20
350.00202178
  0
VERTEX
  8
1
 10
2020.42008896
 20
332.22687683
  0
VERTEX
  8
1
 10
2013.56697860
 20
314.17116329
  0
VERTEX
  8
1
 10
2007.38200302
 20
295.85016785
  0
VERTEX
  8
1
 10
1992.23997303
 20
301.18014803
  0
VERTEX
  8
1
 10
1976.98349060
 20
305.99645161
  0
VERTEX
  8
1
 10
1961.60396824
 20
310.31700589
  0
VERTEX
  8
1
 10
1946.09281845
 20
314.15973816
  0
VERTEX
  8
1
 10
1931.40953092
 20
317.33768428
  0
VERTEX
  8
1
 10
1916.62587847
 20
320.06193281
  0
VERTEX
  8
1
 10
1901.76505757
 20
322.28405862
  0
VERTEX
  8
1
 10
1886.85026474
 20
323.95563660
  0
VERTEX
  8
1
 10
1873.63814738
 20
324.94369999
  0
VERTEX
  8
1
 10
1860.39570676
 20
325.47699700
  0
VERTEX
  8
1
 10
1847.11665963
 20
325.56864457
  0
VERTEX
  8
1
 10
1833.79472275
 20
325.23175964
  0
VERTEX
  8
1
 10
1825.76931960
 20
325.26213391
  0
VERTEX
  8
1
 10
1817.98674910
 20
324.59686226
  0
VERTEX
  8
1
 10
1810.39936416
 20
323.24766600
  0
VERTEX
  8
1
 10
1802.95951767
 20
321.22626648
  0
VERTEX
  8
1
 10
1795.69494892
 20
318.55477067
  0
VERTEX
  8
1
 10
1788.67058181
 20
315.19591300
  0
VERTEX
  8
1
 10
1782.02792629
 20
311.11488160
  0
VERTEX
  8
1
 10
1775.90849228
 20
306.27686462
  0
VERTEX
  8
1
 10
1770.47908975
 20
300.72345248
  0
VERTEX
  8
1
 10
1765.76328935
 20
294.53988694
  0
VERTEX
  8
1
 10
1761.82001106
 20
287.87584173
  0
VERTEX
  8
1
 10
1758.70817490
 20
280.88099060
  0
VERTEX
  8
1
 10
1756.44631746
 20
273.56002261
  0
VERTEX
  8
1
 10
1755.08211577
 20
266.00117308
  0
VERTEX
  8
1
 10
1754.59542728
 20
258.15327418
  0
VERTEX
  8
1
 10
1754.96610947
 20
249.96515808
  0
VERTEX
  8
1
 10
1738.09870236
 20
250.47664808
  0
VERTEX
  8
1
 10
1721.23152040
 20
250.84275067
  0
VERTEX
  8
1
 10
1704.36392667
 20
251.06099629
  0
VERTEX
  8
1
 10
1687.49528427
 20
251.12891541
  0
VERTEX
  8
1
 10
1670.62548215
 20
251.04568578
  0
VERTEX
  8
1
 10
1653.75590517
 20
250.81707050
  0
VERTEX
  8
1
 10
1636.88846403
 20
250.45047814
  0
VERTEX
  8
1
 10
1620.02506943
 20
249.95331726
  0
VERTEX
  8
1
 10
1603.16695655
 20
249.33133991
  0
VERTEX
  8
1
 10
1586.31416418
 20
248.58372936
  0
VERTEX
  8
1
 10
1569.46605538
 20
247.70801604
  0
VERTEX
  8
1
 10
1552.62199326
 20
246.70173035
  0
VERTEX
  8
1
 10
1551.82975693
 20
246.67414246
  0
VERTEX
  8
1
 10
1537.15376418
 20
246.11222659
  0
VERTEX
  8
1
 10
1522.48238711
 20
245.39707088
  0
VERTEX
  8
1
 10
1507.82791089
 20
244.44154471
  0
VERTEX
  8
1
 10
1493.20262070
 20
243.15851746
  0
VERTEX
  8
1
 10
1479.59422226
 20
241.62433777
  0
VERTEX
  8
1
 10
1472.15450508
 20
240.65313449
  0
VERTEX
  8
1
 10
1457.31872084
 20
238.44060033
  0
VERTEX
  8
1
 10
1442.54155017
 20
235.86797319
  0
VERTEX
  8
1
 10
1435.17478867
 20
234.44660339
  0
VERTEX
  8
1
 10
1425.71397324
 20
274.83271179
  0
VERTEX
  8
1
 10
1416.86985703
 20
315.35956726
  0
VERTEX
  8
1
 10
1412.24574580
 20
335.57691289
  0
VERTEX
  8
1
 10
1407.44700546
 20
355.75483093
  0
VERTEX
  8
1
 10
1408.26536484
 20
365.27387390
  0
SEQEND
  0
POLYLINE
  8
84
 66
1
 70
1
  0
VERTEX
  8
84
 10
1635.20768661
 20
366.22358093
  0
VERTEX
  8
84
 10
1408.26536484
 20
366.06293640
  0
VERTEX
  8
84
 10
1403.49314804
 20
462.42505798
  0
VERTEX
  8
84
 10
1406.19871445
 20
567.42395935
  0
VERTEX
  8
84
 10
1446.19871445
 20
567.42322693
  0
VERTEX
  8
84
 10
1638.93717880
 20
567.42151794
  0
VERTEX
  8
84
 10
1678.93730087
 20
567.42102966
  0
VERTEX
  8
84
 10
1681.84868486
 20
550.64617030
  0
VERTEX
  8
84
 10
1686.37561008
 20
535.10534582
  0
VERTEX
  8
84
 10
1689.29705411
 20
527.80558649
  0
VERTEX
  8
84
 10
1692.68496761
 20
520.82380369
  0
VERTEX
  8
84
 10
1696.56021196
 20
514.16315334
  0
VERTEX
  8
84
 10
1700.94364853
 20
507.82679138
  0
VERTEX
  8
84
 10
1706.61319433
 20
500.95132684
  0
VERTEX
  8
84
 10
1712.90151046
 20
494.49577122
  0
VERTEX
  8
84
 10
1719.72961215
 20
488.44817561
  0
VERTEX
  8
84
 10
1727.01851465
 20
482.79659111
  0
VERTEX
  8
84
 10
1742.66278305
 20
472.63365982
  0
VERTEX
  8
84
 10
1759.20243759
 20
463.91138611
  0
VERTEX
  8
84
 10
1776.67463318
 20
456.27762857
  0
VERTEX
  8
84
 10
1794.38805604
 20
449.78414856
  0
VERTEX
  8
84
 10
1812.30249292
 20
444.13462179
  0
VERTEX
  8
84
 10
1830.37773056
 20
439.03272400
  0
VERTEX
  8
84
 10
1848.33147763
 20
434.30074516
  0
VERTEX
  8
84
 10
1866.38950975
 20
429.84973360
  0
VERTEX
  8
84
 10
1884.53875921
 20
425.71609310
  0
VERTEX
  8
84
 10
1902.76615829
 20
421.93622742
  0
VERTEX
  8
84
 10
1921.17152024
 20
418.51508038
  0
VERTEX
  8
84
 10
1939.63322883
 20
415.45417103
  0
VERTEX
  8
84
 10
1958.14174883
 20
412.71876253
  0
VERTEX
  8
84
 10
1976.68754501
 20
410.27411804
  0
VERTEX
  8
84
 10
1995.23618065
 20
408.09620232
  0
VERTEX
  8
84
 10
2013.81564737
 20
406.18512095
  0
VERTEX
  8
84
 10
2032.42911589
 20
404.55242485
  0
VERTEX
  8
84
 10
2051.07975693
 20
403.20966492
  0
VERTEX
  8
84
 10
2035.87589951
 20
367.67096863
  0
VERTEX
  8
84
 10
2028.01278113
 20
350.00202178
  0
VERTEX
  8
84
 10
2020.42008896
 20
332.22687683
  0
VERTEX
  8
84
 10
2013.56697860
 20
314.17116329
  0
VERTEX
  8
84
 10
2007.38200302
 20
295.85016785
  0
VERTEX
  8
84
 10
1992.23997303
 20
301.18014803
  0
VERTEX
  8
84
 10
1976.98349060
 20
305.99645161
  0
VERTEX
  8
84
 10
1961.60396824
 20
310.31700589
  0
VERTEX
  8
84
 10
1946.09281845
 20
314.15973816
  0
VERTEX
  8
84
 10
1931.40953092
 20
317.33768428
  0
VERTEX
  8
84
 10
1916.62587847
 20
320.06193281
  0
VERTEX
  8
84
 10
1901.76505757
 20
322.28405862
  0
VERTEX
  8
84
 10
1886.85026474
 20
323.95563660
  0
VERTEX
  8
84
 10
1873.63814738
 20
324.94369999
  0
VERTEX
  8
84
 10
1860.39570676
 20
325.47699700
  0
VERTEX
  8
84
 10
1847.11665963
 20
325.56864457
  0
VERTEX
  8
84
 10
1833.79472275
 20
325.23175964
  0
VERTEX
  8
84
 10
1825.76931960
 20
325.26213391
  0
VERTEX
  8
84
 10
1817.98674910
 20
324.59686226
  0
VERTEX
  8
84
 10
1810.39936416
 20
323.24766600
  0
VERTEX
  8
84
 10
1802.95951767
 20
321.22626648
  0
VERTEX
  8
84
 10
1795.69494892
 20
318.55477067
  0
VERTEX
  8
84
 10
1788.67058181
 20
315.19591300
  0
VERTEX
  8
84
 10
1782.02792629
 20
311.11488160
  0
VERTEX
  8
84
 10
1775.90849228
 20
306.27686462
  0
VERTEX
  8
84
 10
1770.47908975
 20
300.72345248
  0
VERTEX
  8
84
 10
1765.76328935
 20
294.53988694
  0
VERTEX
  8
84
 10
1761.82001106
 20
287.87584173
  0
VERTEX
  8
84
 10
1758.70817490
 20
280.88099060
  0
VERTEX
  8
84
 10
1756.44631746
 20
273.56002261
  0
VERTEX
  8
84
 10
1755.08211577
 20
266.00117308
  0
VERTEX
  8
84
 10
1754.59542728
 20
258.15327418
  0
VERTEX
  8
84
 10
1754.96610947
 20
249.96515808
  0
VERTEX
  8
84
 10
1738.09870236
 20
250.47664808
  0
VERTEX
  8
84
 10
1721.23152040
 20
250.84275067
  0
VERTEX
  8
84
 10
1704.36392667
 20
251.06099629
  0
VERTEX
  8
84
 10
1687.49528427
 20
251.12891541
  0
VERTEX
  8
84
 10
1670.62548215
 20
251.04568578
  0
VERTEX
  8
84
 10
1653.75590517
 20
250.81707050
  0
VERTEX
  8
84
 10
1636.88846403
 20
250.45047814
  0
VERTEX
  8
84
 10
1620.02506943
 20
249.95331726
  0
VERTEX
  8
84
 10
1603.16695655
 20
249.33133991
  0
VERTEX
  8
84
 10
1586.31416418
 20
248.58372936
  0
VERTEX
  8
84
 10
1569.46605538
 20
247.70801604
  0
VERTEX
  8
84
 10
1552.62199326
 20
246.70173035
  0
VERTEX
  8
84
 10
1551.82975693
 20
246.67414246
  0
VERTEX
  8
84
 10
1537.15376418
 20
246.11222659
  0
VERTEX
  8
84
 10
1522.48238711
 20
245.39707088
  0
VERTEX
  8
84
 10
1507.82791089
 20
244.44154471
  0
VERTEX
  8
84
 10
1493.20262070
 20
243.15851746
  0
VERTEX
  8
84
 10
1479.59422226
 20
241.62433777
  0
VERTEX
  8
84
 10
1472.15450508
 20
240.65313449
  0
VERTEX
  8
84
 10
1457.31872084
 20
238.44060033
  0
VERTEX
  8
84
 10
1442.54155017
 20
235.86797319
  0
VERTEX
  8
84
 10
1435.17478867
 20
234.44660339
  0
VERTEX
  8
84
 10
1425.71397324
 20
274.83271179
  0
VERTEX
  8
84
 10
1416.86985703
 20
315.35956726
  0
VERTEX
  8
84
 10
1412.24574580
 20
335.57691289
  0
VERTEX
  8
84
 10
1407.44700546
 20
355.75483093
  0
VERTEX
  8
84
 10
1408.26536484
 20
365.27387390
  0
SEQEND
  0
POINT
  8
2
 10
1635.20768661
 20
366.22358093
  0
TEXT
  8
2
 10
1635.20768661
 20
366.22358093
 40
10.00000000
 50
0.00000000
  1
# 1
  0
POINT
  8
2
 10
1408.26536484
 20
366.06293640
  0
TEXT
  8
2
 10
1408.26536484
 20
366.06293640
 40
10.00000000
 50
0.00000000
  1
# 2
  0
POINT
  8
2
 10
1403.49314804
 20
462.42505798
  0
TEXT
  8
2
 10
1403.49314804
 20
462.42505798
 40
10.00000000
 50
0.00000000
  1
# 3
  0
POINT
  8
2
 10
1406.19871445
 20
567.42395935
  0
TEXT
  8
2
 10
1406.19871445
 20
567.42395935
 40
10.00000000
 50
0.00000000
  1
# 4
  0
POINT
  8
2
 10
1446.19871445
 20
567.42322693
  0
TEXT
  8
2
 10
1446.19871445
 20
567.42322693
 40
10.00000000
 50
0.00000000
  1
# 5
  0
POINT
  8
2
 10
1638.93717880
 20
567.42151794
  0
TEXT
  8
2
 10
1638.93717880
 20
567.42151794
 40
10.00000000
 50
0.00000000
  1
# 6
  0
POINT
  8
2
 10
1678.93730087
 20
567.42102966
  0
TEXT
  8
2
 10
1678.93730087
 20
567.42102966
 40
10.00000000
 50
0.00000000
  1
# 7
  0
POINT
  8
3
 10
1681.84868486
 20
550.64617030
  0
POINT
  8
3
 10
1686.37561008
 20
535.10534582
  0
POINT
  8
3
 10
1689.29705411
 20
527.80558649
  0
POINT
  8
3
 10
1692.68496761
 20
520.82380369
  0
POINT
  8
3
 10
1696.56021196
 20
514.16315334
  0
POINT
  8
3
 10
1700.94364853
 20
507.82679138
  0
POINT
  8
3
 10
1706.61319433
 20
500.95132684
  0
POINT
  8
3
 10
1712.90151046
 20
494.49577122
  0
POINT
  8
3
 10
1719.72961215
 20
488.44817561
  0
POINT
  8
3
 10
1727.01851465
 20
482.79659111
  0
POINT
  8
3
 10
1742.66278305
 20
472.63365982
  0
POINT
  8
3
 10
1759.20243759
 20
463.91138611
  0
POINT
  8
3
 10
1776.67463318
 20
456.27762857
  0
POINT
  8
3
 10
1794.38805604
 20
449.78414856
  0
POINT
  8
3
 10
1812.30249292
 20
444.13462179
  0
POINT
  8
3
 10
1830.37773056
 20
439.03272400
  0
POINT
  8
3
 10
1848.33147763
 20
434.30074516
  0
POINT
  8
3
 10
1866.38950975
 20
429.84973360
  0
POINT
  8
3
 10
1884.53875921
 20
425.71609310
  0
POINT
  8
3
 10
1902.76615829
 20
421.93622742
  0
POINT
  8
3
 10
1921.17152024
 20
418.51508038
  0
POINT
  8
3
 10
1939.63322883
 20
415.45417103
  0
POINT
  8
3
 10
1958.14174883
 20
412.71876253
  0
POINT
  8
3
 10
1976.68754501
 20
410.27411804
  0
POINT
  8
3
 10
1995.23618065
 20
408.09620232
  0
POINT
  8
3
 10
2013.81564737
 20
406.18512095
  0
POINT
  8
3
 10
2032.42911589
 20
404.55242485
  0
POINT
  8
2
 10
2051.07975693
 20
403.20966492
  0
TEXT
  8
2
 10
2051.07975693
 20
403.20966492
 40
10.00000000
 50
0.00000000
  1
# 8
  0
POINT
  8
3
 10
2035.87589951
 20
367.67096863
  0
POINT
  8
3
 10
2028.01278113
 20
350.00202178
  0
POINT
  8
3
 10
2020.42008896
 20
332.22687683
  0
POINT
  8
3
 10
2013.56697860
 20
314.17116329
  0
POINT
  8
2
 10
2007.38200302
 20
295.85016785
  0
TEXT
  8
2
 10
2007.38200302
 20
295.85016785
 40
10.00000000
 50
0.00000000
  1
# 9
  0
POINT
  8
3
 10
1992.23997303
 20
301.18014803
  0
POINT
  8
3
 10
1976.98349060
 20
305.99645161
  0
POINT
  8
3
 10
1961.60396824
 20
310.31700589
  0
POINT
  8
3
 10
1946.09281845
 20
314.15973816
  0
POINT
  8
3
 10
1931.40953092
 20
317.33768428
  0
POINT
  8
3
 10
1916.62587847
 20
320.06193281
  0
POINT
  8
3
 10
1901.76505757
 20
322.28405862
  0
POINT
  8
3
 10
1886.85026474
 20
323.95563660
  0
POINT
  8
3
 10
1873.63814738
 20
324.94369999
  0
POINT
  8
3
 10
1860.39570676
 20
325.47699700
  0
POINT
  8
3
 10
1847.11665963
 20
325.56864457
  0
POINT
  8
2
 10
1833.79472275
 20
325.23175964
  0
TEXT
  8
2
 10
1833.79472275
 20
325.23175964
 40
10.00000000
 50
0.00000000
  1
# 10
  0
POINT
  8
3
 10
1825.76931960
 20
325.26213391
  0
POINT
  8
3
 10
1817.98674910
 20
324.59686226
  0
POINT
  8
3
 10
1810.39936416
 20
323.24766600
  0
POINT
  8
3
 10
1802.95951767
 20
321.22626648
  0
POINT
  8
3
 10
1795.69494892
 20
318.55477067
  0
POINT
  8
3
 10
1788.67058181
 20
315.19591300
  0
POINT
  8
3
 10
1782.02792629
 20
311.11488160
  0
POINT
  8
3
 10
1775.90849228
 20
306.27686462
  0
POINT
  8
3
 10
1770.47908975
 20
300.72345248
  0
POINT
  8
3
 10
1765.76328935
 20
294.53988694
  0
POINT
  8
3
 10
1761.82001106
 20
287.87584173
  0
POINT
  8
3
 10
1758.70817490
 20
280.88099060
  0
POINT
  8
3
 10
1756.44631746
 20
273.56002261
  0
POINT
  8
3
 10
1755.08211577
 20
266.00117308
  0
POINT
  8
3
 10
1754.59542728
 20
258.15327418
  0
POINT
  8
2
 10
1754.96610947
 20
249.96515808
  0
TEXT
  8
2
 10
1754.96610947
 20
249.96515808
 40
10.00000000
 50
0.00000000
  1
# 11
  0
POINT
  8
3
 10
1738.09870236
 20
250.47664808
  0
POINT
  8
3
 10
1721.23152040
 20
250.84275067
  0
POINT
  8
3
 10
1704.36392667
 20
251.06099629
  0
POINT
  8
3
 10
1687.49528427
 20
251.12891541
  0
POINT
  8
3
 10
1670.62548215
 20
251.04568578
  0
POINT
  8
3
 10
1653.75590517
 20
250.81707050
  0
POINT
  8
3
 10
1636.88846403
 20
250.45047814
  0
POINT
  8
3
 10
1620.02506943
 20
249.95331726
  0
POINT
  8
3
 10
1603.16695655
 20
249.33133991
  0
POINT
  8
3
 10
1586.31416418
 20
248.58372936
  0
POINT
  8
3
 10
1569.46605538
 20
247.70801604
  0
POINT
  8
2
 10
1552.62199326
 20
246.70173035
  0
TEXT
  8
2
 10
1552.62199326
 20
246.70173035
 40
10.00000000
 50
0.00000000
  1
# 12
  0
POINT
  8
3
 10
1551.82975693
 20
246.67414246
  0
POINT
  8
3
 10
1537.15376418
 20
246.11222659
  0
POINT
  8
3
 10
1522.48238711
 20
245.39707088
  0
POINT
  8
3
 10
1507.82791089
 20
244.44154471
  0
POINT
  8
3
 10
1493.20262070
 20
243.15851746
  0
POINT
  8
2
 10
1479.59422226
 20
241.62433777
  0
TEXT
  8
2
 10
1479.59422226
 20
241.62433777
 40
10.00000000
 50
0.00000000
  1
# 13
  0
POINT
  8
3
 10
1472.15450508
 20
240.65313449
  0
POINT
  8
3
 10
1457.31872084
 20
238.44060033
  0
POINT
  8
3
 10
1442.54155017
 20
235.86797319
  0
POINT
  8
2
 10
1435.17478867
 20
234.44660339
  0
TEXT
  8
2
 10
1435.17478867
 20
234.44660339
 40
10.00000000
 50
0.00000000
  1
# 14
  0
POINT
  8
3
 10
1425.71397324
 20
274.83271179
  0
POINT
  8
3
 10
1416.86985703
 20
315.35956726
  0
POINT
  8
3
 10
1412.24574580
 20
335.57691289
  0
POINT
  8
2
 10
1407.44700546
 20
355.75483093
  0
TEXT
  8
2
 10
1407.44700546
 20
355.75483093
 40
10.00000000
 50
0.00000000
  1
# 15
  0
POINT
  8
2
 10
1408.26536484
 20
365.27387390
  0
TEXT
  8
2
 10
1408.26536484
 20
365.27387390
 40
10.00000000
 50
0.00000000
  1
# 16
  0
POINT
  8
4
 10
1446.19871445
 20
567.42322693
 30
7.50000000
 50
269.99922142
  0
TEXT
  8
1
 10
1446.19871445
 20
567.42322693
 40
10.00000000
 50
0.00000000
  1
# 17
  0
POINT
  8
4
 10
1638.93717880
 20
567.42151794
 30
7.50000000
 50
269.99939628
  0
TEXT
  8
1
 10
1638.93717880
 20
567.42151794
 40
10.00000000
 50
0.00000000
  1
# 18
  0
POINT
  8
4
 10
1479.59422226
 20
241.62433777
 30
7.50000000
 50
96.93487133
  0
TEXT
  8
1
 10
1479.59422226
 20
241.62433777
 40
10.00000000
 50
0.00000000
  1
# 19
  0
ENDBLK
  0
BLOCK
  8
1
  2
2
 70
64
 10
0.0
 20
0.0
  0
LINE
  8
7
 10
1079.27720024
 20
1504.26656294
 11
1402.82511184
 21
1504.26656294
  0
TEXT
  8
1
 10
0.00000000
 20
0.00000000
 40
20.00000000
 50
0.00000000
  1
Size: 46
  0
TEXT
  8
1
 10
1241.05115604
 20
1519.26656294
 40
20.00000000
 50
0.00000000
  1
Piece Name: AKIL.P
  0
TEXT
  8
1
 10
1241.05115604
 20
1519.26656294
 40
20.00000000
 50
0.00000000
  1
Quantity: 1
  0
TEXT
  8
1
 10
1241.05115604
 20
1519.26656294
 40
20.00000000
 50
0.00000000
  1
Rotation: 0
  0
TEXT
  8
1
 10
1241.05115604
 20
1519.26656294
 40
20.00000000
 50
0.00000000
  1
Tilt: 0
  0
TEXT
  8
1
 10
1241.05115604
 20
1519.26656294
 40
20.00000000
 50
0.00000000
  1
Fold: N
  0
TEXT
  8
1
 10
1241.05115604
 20
1519.26656294
 40
20.00000000
 50
0.00000000
  1
Material: 1
  0
POLYLINE
  8
1
 66
1
 70
1
  0
VERTEX
  8
1
 10
1089.86082459
 20
1436.90242720
  0
VERTEX
  8
1
 10
1089.76262101
 20
1456.97433234
  0
VERTEX
  8
1
 10
1089.84495545
 20
1477.04500532
  0
VERTEX
  8
1
 10
1090.10838281
 20
1497.13581191
  0
VERTEX
  8
1
 10
1090.55162049
 20
1517.22347212
  0
VERTEX
  8
1
 10
1091.17202088
 20
1537.26743421
  0
VERTEX
  8
1
 10
1091.97044373
 20
1557.30635786
  0
VERTEX
  8
1
 10
1131.97068787
 20
1557.30538130
  0
VERTEX
  8
1
 10
1324.71263123
 20
1557.30281782
  0
VERTEX
  8
1
 10
1364.71275330
 20
1557.30196333
  0
VERTEX
  8
1
 10
1367.60274860
 20
1540.76614941
  0
VERTEX
  8
1
 10
1372.06611352
 20
1525.43583317
  0
VERTEX
  8
1
 10
1374.94144776
 20
1518.23453294
  0
VERTEX
  8
1
 10
1378.27449022
 20
1511.34876266
  0
VERTEX
  8
1
 10
1382.08669617
 20
1504.78324084
  0
VERTEX
  8
1
 10
1386.39952088
 20
1498.54268599
  0
VERTEX
  8
1
 10
1392.16938789
 20
1491.56838524
  0
VERTEX
  8
1
 10
1398.58707263
 20
1485.03845720
  0
VERTEX
  8
1
 10
1405.56685156
 20
1478.93404929
  0
VERTEX
  8
1
 10
1413.02300115
 20
1473.23630893
  0
VERTEX
  8
1
 10
1429.02151814
 20
1462.98542047
  0
VERTEX
  8
1
 10
1445.89683534
 20
1454.13497114
  0
VERTEX
  8
1
 10
1463.15349606
 20
1446.48702315
  0
VERTEX
  8
1
 10
1480.59315500
 20
1439.85381383
  0
VERTEX
  8
1
 10
1498.20607745
 20
1433.98920441
  0
VERTEX
  8
1
 10
1515.98252869
 20
1428.64705610
  0
VERTEX
  8
1
 10
1533.93674002
 20
1423.62997064
  0
VERTEX
  8
1
 10
1552.03003648
 20
1418.97675736
  0
VERTEX
  8
1
 10
1570.24728412
 20
1414.77420248
  0
VERTEX
  8
1
 10
1588.57334901
 20
1411.10909224
  0
VERTEX
  8
1
 10
1606.99446003
 20
1408.02740146
  0
VERTEX
  8
1
 10
1625.48466074
 20
1405.41468240
  0
VERTEX
  8
1
 10
1644.01932765
 20
1403.11547685
  0
VERTEX
  8
1
 10
1662.57383729
 20
1400.97432661
  0
VERTEX
  8
1
 10
1699.69286598
 20
1396.82015455
  0
VERTEX
  8
1
 10
1718.26573153
 20
1394.87654402
  0
VERTEX
  8
1
 10
1736.85844422
 20
1393.09102583
  0
VERTEX
  8
1
 10
1716.35630799
 20
1345.14717817
  0
VERTEX
  8
1
 10
1698.23471971
 20
1347.07658035
  0
VERTEX
  8
1
 10
1680.14630271
 20
1349.22451122
  0
VERTEX
  8
1
 10
1662.08836443
 20
1351.58499627
  0
VERTEX
  8
1
 10
1644.05821229
 20
1354.15206099
  0
VERTEX
  8
1
 10
1626.05494302
 20
1356.92371477
  0
VERTEX
  8
1
 10
1608.08484507
 20
1359.91389739
  0
VERTEX
  8
1
 10
1590.15599616
 20
1363.14053242
  0
VERTEX
  8
1
 10
1572.27647401
 20
1366.62154341
  0
VERTEX
  8
1
 10
1554.45066844
 20
1370.36046685
  0
VERTEX
  8
1
 10
1536.66821037
 20
1374.30329247
  0
VERTEX
  8
1
 10
1501.17710877
 20
1382.52706099
  0
VERTEX
  8
1
 10
1464.31650789
 20
1391.23337199
  0
VERTEX
  8
1
 10
1445.91620698
 20
1395.70953864
  0
VERTEX
  8
1
 10
1427.55088807
 20
1400.33443403
  0
VERTEX
  8
1
 10
1391.15669308
 20
1409.88442155
  0
VERTEX
  8
1
 10
1372.93912107
 20
1414.56030781
  0
VERTEX
  8
1
 10
1354.66050721
 20
1418.96041059
  0
VERTEX
  8
1
 10
1336.17270006
 20
1422.98719922
  0
VERTEX
  8
1
 10
1317.59901617
 20
1426.62823470
  0
VERTEX
  8
1
 10
1298.95143302
 20
1429.93651779
  0
VERTEX
  8
1
 10
1280.24192811
 20
1432.96504927
  0
VERTEX
  8
1
 10
1264.42066333
 20
1434.59260074
  0
VERTEX
  8
1
 10
1248.59016211
 20
1435.91887297
  0
VERTEX
  8
1
 10
1232.74899605
 20
1436.88929659
  0
VERTEX
  8
1
 10
1216.89573670
 20
1437.44930220
  0
VERTEX
  8
1
 10
1201.02652675
 20
1437.58068232
  0
VERTEX
  8
1
 10
1185.14807612
 20
1437.41064321
  0
VERTEX
  8
1
 10
1153.38059998
 20
1436.82137251
  0
VERTEX
  8
1
 10
1137.49879880
 20
1436.69328003
  0
VERTEX
  8
1
 10
1121.61918851
 20
1436.70048568
  0
SEQEND
  0
POLYLINE
  8
84
 66
1
 70
1
  0
VERTEX
  8
84
 10
1089.86082459
 20
1436.90242720
  0
VERTEX
  8
84
 10
1089.76262101
 20
1456.97433234
  0
VERTEX
  8
84
 10
1089.84495545
 20
1477.04500532
  0
VERTEX
  8
84
 10
1090.10838281
 20
1497.13581191
  0
VERTEX
  8
84
 10
1090.55162049
 20
1517.22347212
  0
VERTEX
  8
84
 10
1091.17202088
 20
1537.26743421
  0
VERTEX
  8
84
 10
1091.97044373
 20
1557.30635786
  0
VERTEX
  8
84
 10
1131.97068787
 20
1557.30538130
  0
VERTEX
  8
84
 10
1324.71263123
 20
1557.30281782
  0
VERTEX
  8
84
 10
1364.71275330
 20
1557.30196333
  0
VERTEX
  8
84
 10
1367.60274860
 20
1540.76614941
  0
VERTEX
  8
84
 10
1372.06611352
 20
1525.43583317
  0
VERTEX
  8
84
 10
1374.94144776
 20
1518.23453294
  0
VERTEX
  8
84
 10
1378.27449022
 20
1511.34876266
  0
VERTEX
  8
84
 10
1382.08669617
 20
1504.78324084
  0
VERTEX
  8
84
 10
1386.39952088
 20
1498.54268599
  0
VERTEX
  8
84
 10
1392.16938789
 20
1491.56838524
  0
VERTEX
  8
84
 10
1398.58707263
 20
1485.03845720
  0
VERTEX
  8
84
 10
1405.56685156
 20
1478.93404929
  0
VERTEX
  8
84
 10
1413.02300115
 20
1473.23630893
  0
VERTEX
  8
84
 10
1429.02151814
 20
1462.98542047
  0
VERTEX
  8
84
 10
1445.89683534
 20
1454.13497114
  0
VERTEX
  8
84
 10
1463.15349606
 20
1446.48702315
  0
VERTEX
  8
84
 10
1480.59315500
 20
1439.85381383
  0
VERTEX
  8
84
 10
1498.20607745
 20
1433.98920441
  0
VERTEX
  8
84
 10
1515.98252869
 20
1428.64705610
  0
VERTEX
  8
84
 10
1533.93674002
 20
1423.62997064
  0
VERTEX
  8
84
 10
1552.03003648
 20
1418.97675736
  0
VERTEX
  8
84
 10
1570.24728412
 20
1414.77420248
  0
VERTEX
  8
84
 10
1588.57334901
 20
1411.10909224
  0
VERTEX
  8
84
 10
1606.99446003
 20
1408.02740146
  0
VERTEX
  8
84
 10
1625.48466074
 20
1405.41468240
  0
VERTEX
  8
84
 10
1644.01932765
 20
1403.11547685
  0
VERTEX
  8
84
 10
1662.57383729
 20
1400.97432661
  0
VERTEX
  8
84
 10
1699.69286598
 20
1396.82015455
  0
VERTEX
  8
84
 10
1718.26573153
 20
1394.87654402
  0
VERTEX
  8
84
 10
1736.85844422
 20
1393.09102583
  0
VERTEX
  8
84
 10
1716.35630799
 20
1345.14717817
  0
VERTEX
  8
84
 10
1698.23471971
 20
1347.07658035
  0
VERTEX
  8
84
 10
1680.14630271
 20
1349.22451122
  0
VERTEX
  8
84
 10
1662.08836443
 20
1351.58499627
  0
VERTEX
  8
84
 10
1644.05821229
 20
1354.15206099
  0
VERTEX
  8
84
 10
1626.05494302
 20
1356.92371477
  0
VERTEX
  8
84
 10
1608.08484507
 20
1359.91389739
  0
VERTEX
  8
84
 10
1590.15599616
 20
1363.14053242
  0
VERTEX
  8
84
 10
1572.27647401
 20
1366.62154341
  0
VERTEX
  8
84
 10
1554.45066844
 20
1370.36046685
  0
VERTEX
  8
84
 10
1536.66821037
 20
1374.30329247
  0
VERTEX
  8
84
 10
1501.17710877
 20
1382.52706099
  0
VERTEX
  8
84
 10
1464.31650789
 20
1391.23337199
  0
VERTEX
  8
84
 10
1445.91620698
 20
1395.70953864
  0
VERTEX
  8
84
 10
1427.55088807
 20
1400.33443403
  0
VERTEX
  8
84
 10
1391.15669308
 20
1409.88442155
  0
VERTEX
  8
84
 10
1372.93912107
 20
1414.56030781
  0
VERTEX
  8
84
 10
1354.66050721
 20
1418.96041059
  0
VERTEX
  8
84
 10
1336.17270006
 20
1422.98719922
  0
VERTEX
  8
84
 10
1317.59901617
 20
1426.62823470
  0
VERTEX
  8
84
 10
1298.95143302
 20
1429.93651779
  0
VERTEX
  8
84
 10
1280.24192811
 20
1432.96504927
  0
VERTEX
  8
84
 10
1264.42066333
 20
1434.59260074
  0
VERTEX
  8
84
 10
1248.59016211
 20
1435.91887297
  0
VERTEX
  8
84
 10
1232.74899605
 20
1436.88929659
  0
VERTEX
  8
84
 10
1216.89573670
 20
1437.44930220
  0
VERTEX
  8
84
 10
1201.02652675
 20
1437.58068232
  0
VERTEX
  8
84
 10
1185.14807612
 20
1437.41064321
  0
VERTEX
  8
84
 10
1153.38059998
 20
1436.82137251
  0
VERTEX
  8
84
 10
1137.49879880
 20
1436.69328003
  0
VERTEX
  8
84
 10
1121.61918851
 20
1436.70048568
  0
SEQEND
  0
POINT
  8
2
 10
1089.86082459
 20
1436.90242720
  0
TEXT
  8
2
 10
1089.86082459
 20
1436.90242720
 40
10.00000000
 50
0.00000000
  1
# 20
  0
POINT
  8
3
 10
1089.76262101
 20
1456.97433234
  0
POINT
  8
3
 10
1089.84495545
 20
1477.04500532
  0
POINT
  8
3
 10
1090.10838281
 20
1497.13581191
  0
POINT
  8
3
 10
1090.55162049
 20
1517.22347212
  0
POINT
  8
3
 10
1091.17202088
 20
1537.26743421
  0
POINT
  8
2
 10
1091.97044373
 20
1557.30635786
  0
TEXT
  8
2
 10
1091.97044373
 20
1557.30635786
 40
10.00000000
 50
0.00000000
  1
# 21
  0
POINT
  8
2
 10
1131.97068787
 20
1557.30538130
  0
TEXT
  8
2
 10
1131.97068787
 20
1557.30538130
 40
10.00000000
 50
0.00000000
  1
# 22
  0
POINT
  8
2
 10
1324.71263123
 20
1557.30281782
  0
TEXT
  8
2
 10
1324.71263123
 20
1557.30281782
 40
10.00000000
 50
0.00000000
  1
# 23
  0
POINT
  8
2
 10
1364.71275330
 20
1557.30196333
  0
TEXT
  8
2
 10
1364.71275330
 20
1557.30196333
 40
10.00000000
 50
0.00000000
  1
# 24
  0
POINT
  8
3
 10
1367.60274860
 20
1540.76614941
  0
POINT
  8
3
 10
1372.06611352
 20
1525.43583317
  0
POINT
  8
3
 10
1374.94144776
 20
1518.23453294
  0
POINT
  8
3
 10
1378.27449022
 20
1511.34876266
  0
POINT
  8
3
 10
1382.08669617
 20
1504.78324084
  0
POINT
  8
3
 10
1386.39952088
 20
1498.54268599
  0
POINT
  8
3
 10
1392.16938789
 20
1491.56838524
  0
POINT
  8
3
 10
1398.58707263
 20
1485.03845720
  0
POINT
  8
3
 10
1405.56685156
 20
1478.93404929
  0
POINT
  8
3
 10
1413.02300115
 20
1473.23630893
  0
POINT
  8
3
 10
1429.02151814
 20
1462.98542047
  0
POINT
  8
3
 10
1445.89683534
 20
1454.13497114
  0
POINT
  8
3
 10
1463.15349606
 20
1446.48702315
  0
POINT
  8
3
 10
1480.59315500
 20
1439.85381383
  0
POINT
  8
3
 10
1498.20607745
 20
1433.98920441
  0
POINT
  8
3
 10
1515.98252869
 20
1428.64705610
  0
POINT
  8
3
 10
1533.93674002
 20
1423.62997064
  0
POINT
  8
3
 10
1552.03003648
 20
1418.97675736
  0
POINT
  8
3
 10
1570.24728412
 20
1414.77420248
  0
POINT
  8
3
 10
1588.57334901
 20
1411.10909224
  0
POINT
  8
3
 10
1606.99446003
 20
1408.02740146
  0
POINT
  8
3
 10
1625.48466074
 20
1405.41468240
  0
POINT
  8
3
 10
1644.01932765
 20
1403.11547685
  0
POINT
  8
3
 10
1662.57383729
 20
1400.97432661
  0
POINT
  8
3
 10
1699.69286598
 20
1396.82015455
  0
POINT
  8
3
 10
1718.26573153
 20
1394.87654402
  0
POINT
  8
2
 10
1736.85844422
 20
1393.09102583
  0
TEXT
  8
2
 10
1736.85844422
 20
1393.09102583
 40
10.00000000
 50
0.00000000
  1
# 25
  0
POINT
  8
2
 10
1716.35630799
 20
1345.14717817
  0
TEXT
  8
2
 10
1716.35630799
 20
1345.14717817
 40
10.00000000
 50
0.00000000
  1
# 26
  0
POINT
  8
3
 10
1698.23471971
 20
1347.07658035
  0
POINT
  8
3
 10
1680.14630271
 20
1349.22451122
  0
POINT
  8
3
 10
1662.08836443
 20
1351.58499627
  0
POINT
  8
3
 10
1644.05821229
 20
1354.15206099
  0
POINT
  8
3
 10
1626.05494302
 20
1356.92371477
  0
POINT
  8
3
 10
1608.08484507
 20
1359.91389739
  0
POINT
  8
3
 10
1590.15599616
 20
1363.14053242
  0
POINT
  8
3
 10
1572.27647401
 20
1366.62154341
  0
POINT
  8
3
 10
1554.45066844
 20
1370.36046685
  0
POINT
  8
3
 10
1536.66821037
 20
1374.30329247
  0
POINT
  8
3
 10
1501.17710877
 20
1382.52706099
  0
POINT
  8
3
 10
1464.31650789
 20
1391.23337199
  0
POINT
  8
3
 10
1445.91620698
 20
1395.70953864
  0
POINT
  8
3
 10
1427.55088807
 20
1400.33443403
  0
POINT
  8
3
 10
1391.15669308
 20
1409.88442155
  0
POINT
  8
3
 10
1372.93912107
 20
1414.56030781
  0
POINT
  8
3
 10
1354.66050721
 20
1418.96041059
  0
POINT
  8
3
 10
1336.17270006
 20
1422.98719922
  0
POINT
  8
3
 10
1317.59901617
 20
1426.62823470
  0
POINT
  8
3
 10
1298.95143302
 20
1429.93651779
  0
POINT
  8
2
 10
1280.24192811
 20
1432.96504927
  0
TEXT
  8
2
 10
1280.24192811
 20
1432.96504927
 40
10.00000000
 50
0.00000000
  1
# 27
  0
POINT
  8
3
 10
1264.42066333
 20
1434.59260074
  0
POINT
  8
3
 10
1248.59016211
 20
1435.91887297
  0
POINT
  8
3
 10
1232.74899605
 20
1436.88929659
  0
POINT
  8
3
 10
1216.89573670
 20
1437.44930220
  0
POINT
  8
3
 10
1201.02652675
 20
1437.58068232
  0
POINT
  8
3
 10
1185.14807612
 20
1437.41064321
  0
POINT
  8
3
 10
1153.38059998
 20
1436.82137251
  0
POINT
  8
3
 10
1137.49879880
 20
1436.69328003
  0
POINT
  8
3
 10
1121.61918851
 20
1436.70048568
  0
POINT
  8
4
 10
1131.97068787
 20
1557.30538130
 30
7.50000000
 50
269.99891957
  0
TEXT
  8
1
 10
1131.97068787
 20
1557.30538130
 40
10.00000000
 50
0.00000000
  1
# 28
  0
POINT
  8
4
 10
1324.71263123
 20
1557.30281782
 30
7.50000000
 50
269.99900700
  0
TEXT
  8
1
 10
1324.71263123
 20
1557.30281782
 40
10.00000000
 50
0.00000000
  1
# 29
  0
POINT
  8
4
 10
1501.17710877
 20
1382.52706099
 30
7.50000000
 50
436.95402498
  0
TEXT
  8
1
 10
1501.17710877
 20
1382.52706099
 40
10.00000000
 50
0.00000000
  1
# 30
  0
POINT
  8
4
 10
1280.24192811
 20
1432.96504927
 30
7.50000000
 50
442.46589599
  0
TEXT
  8
1
 10
1280.24192811
 20
1432.96504927
 40
10.00000000
 50
0.00000000
  1
# 31
  0
ENDBLK
  0
BLOCK
  8
1
  2
3
 70
64
 10
0.0
 20
0.0
  0
LINE
  8
7
 10
25.82833863
 20
382.28072815
 11
63.16256714
 21
382.28072815
  0
TEXT
  8
1
 10
0.00000000
 20
0.00000000
 40
20.00000000
 50
0.00000000
  1
Size: 46
  0
TEXT
  8
1
 10
44.49545288
 20
389.78072815
 40
10.00000000
 50
0.00000000
  1
Piece Name: AKIL.T
  0
TEXT
  8
1
 10
44.49545288
 20
389.78072815
 40
10.00000000
 50
0.00000000
  1
Quantity: 1
  0
TEXT
  8
1
 10
44.49545288
 20
389.78072815
 40
10.00000000
 50
0.00000000
  1
Rotation: 0
  0
TEXT
  8
1
 10
44.49545288
 20
389.78072815
 40
10.00000000
 50
0.00000000
  1
Tilt: 0
  0
TEXT
  8
1
 10
44.49545288
 20
389.78072815
 40
10.00000000
 50
0.00000000
  1
Fold: N
  0
TEXT
  8
1
 10
44.49545288
 20
389.78072815
 40
10.00000000
 50
0.00000000
  1
Material: 1
  0
POLYLINE
  8
1
 66
1
 70
1
  0
VERTEX
  8
1
 10
42.32343750
 20
215.68750916
  0
VERTEX
  8
1
 10
36.77219791
 20
249.76734351
  0
VERTEX
  8
1
 10
31.38361816
 20
283.87964783
  0
VERTEX
  8
1
 10
26.03824890
 20
318.00999764
  0
VERTEX
  8
1
 10
23.62912062
 20
335.10504149
  0
VERTEX
  8
1
 10
21.57575684
 20
352.23572693
  0
VERTEX
  8
1
 10
19.98349738
 20
369.40735386
  0
VERTEX
  8
1
 10
18.83682829
 20
386.62246696
  0
VERTEX
  8
1
 10
18.09075140
 20
403.87713545
  0
VERTEX
  8
1
 10
17.70026855
 20
421.16742859
  0
VERTEX
  8
1
 10
41.64509277
 20
421.38446960
  0
VERTEX
  8
1
 10
67.72810059
 20
421.93757019
  0
VERTEX
  8
1
 10
68.43655447
 20
404.94937840
  0
VERTEX
  8
1
 10
69.36889323
 20
387.98165084
  0
VERTEX
  8
1
 10
70.50775217
 20
371.02955690
  0
VERTEX
  8
1
 10
71.83576660
 20
354.08826599
  0
VERTEX
  8
1
 10
73.34707784
 20
337.15691184
  0
VERTEX
  8
1
 10
75.08225505
 20
320.24602034
  0
VERTEX
  8
1
 10
77.09338847
 20
303.37008223
  0
VERTEX
  8
1
 10
79.43256836
 20
286.54358826
  0
VERTEX
  8
1
 10
82.13994536
 20
269.77991251
  0
VERTEX
  8
1
 10
85.21000376
 20
253.07532636
  0
VERTEX
  8
1
 10
88.62538376
 20
236.42500054
  0
VERTEX
  8
1
 10
92.36872559
 20
219.82410583
  0
SEQEND
  0
POLYLINE
  8
84
 66
1
 70
1
  0
VERTEX
  8
84
 10
42.32343750
 20
215.68750916
  0
VERTEX
  8
84
 10
36.77219791
 20
249.76734351
  0
VERTEX
  8
84
 10
31.38361816
 20
283.87964783
  0
VERTEX
  8
84
 10
26.03824890
 20
318.00999764
  0
VERTEX
  8
84
 10
23.62912062
 20
335.10504149
  0
VERTEX
  8
84
 10
21.57575684
 20
352.23572693
  0
VERTEX
  8
84
 10
19.98349738
 20
369.40735386
  0
VERTEX
  8
84
 10
18.83682829
 20
386.62246696
  0
VERTEX
  8
84
 10
18.09075140
 20
403.87713545
  0
VERTEX
  8
84
 10
17.70026855
 20
421.16742859
  0
VERTEX
  8
84
 10
41.64509277
 20
421.38446960
  0
VERTEX
  8
84
 10
67.72810059
 20
421.93757019
  0
VERTEX
  8
84
 10
68.43655447
 20
404.94937840
  0
VERTEX
  8
84
 10
69.36889323
 20
387.98165084
  0
VERTEX
  8
84
 10
70.50775217
 20
371.02955690
  0
VERTEX
  8
84
 10
71.83576660
 20
354.08826599
  0
VERTEX
  8
84
 10
73.34707784
 20
337.15691184
  0
VERTEX
  8
84
 10
75.08225505
 20
320.24602034
  0
VERTEX
  8
84
 10
77.09338847
 20
303.37008223
  0
VERTEX
  8
84
 10
79.43256836
 20
286.54358826
  0
VERTEX
  8
84
 10
82.13994536
 20
269.77991251
  0
VERTEX
  8
84
 10
85.21000376
 20
253.07532636
  0
VERTEX
  8
84
 10
88.62538376
 20
236.42500054
  0
VERTEX
  8
84
 10
92.36872559
 20
219.82410583
  0
SEQEND
  0
POINT
  8
2
 10
42.32343750
 20
215.68750916
  0
TEXT
  8
2
 10
42.32343750
 20
215.68750916
 40
10.00000000
 50
0.00000000
  1
# 32
  0
POINT
  8
3
 10
36.77219791
 20
249.76734351
  0
POINT
  8
3
 10
31.38361816
 20
283.87964783
  0
POINT
  8
3
 10
26.03824890
 20
318.00999764
  0
POINT
  8
3
 10
23.62912062
 20
335.10504149
  0
POINT
  8
3
 10
21.57575684
 20
352.23572693
  0
POINT
  8
3
 10
19.98349738
 20
369.40735386
  0
POINT
  8
3
 10
18.83682829
 20
386.62246696
  0
POINT
  8
3
 10
18.09075140
 20
403.87713545
  0
POINT
  8
2
 10
17.70026855
 20
421.16742859
  0
TEXT
  8
2
 10
17.70026855
 20
421.16742859
 40
10.00000000
 50
0.00000000
  1
# 33
  0
POINT
  8
2
 10
41.64509277
 20
421.38446960
  0
TEXT
  8
2
 10
41.64509277
 20
421.38446960
 40
10.00000000
 50
0.00000000
  1
# 34
  0
POINT
  8
2
 10
67.72810059
 20
421.93757019
  0
TEXT
  8
2
 10
67.72810059
 20
421.93757019
 40
10.00000000
 50
0.00000000
  1
# 35
  0
POINT
  8
3
 10
68.43655447
 20
404.94937840
  0
POINT
  8
3
 10
69.36889323
 20
387.98165084
  0
POINT
  8
3
 10
70.50775217
 20
371.02955690
  0
POINT
  8
3
 10
71.83576660
 20
354.08826599
  0
POINT
  8
3
 10
73.34707784
 20
337.15691184
  0
POINT
  8
3
 10
75.08225505
 20
320.24602034
  0
POINT
  8
3
 10
77.09338847
 20
303.37008223
  0
POINT
  8
3
 10
79.43256836
 20
286.54358826
  0
POINT
  8
3
 10
82.13994536
 20
269.77991251
  0
POINT
  8
3
 10
85.21000376
 20
253.07532636
  0
POINT
  8
3
 10
88.62538376
 20
236.42500054
  0
POINT
  8
2
 10
92.36872559
 20
219.82410583
  0
TEXT
  8
2
 10
92.36872559
 20
219.82410583
 40
10.00000000
 50
0.00000000
  1
# 36
  0
POINT
  8
13
 10
43.79353027
 20
373.49695740
  0
TEXT
  8
13
 10
43.79353027
 20
373.49695740
 40
10.00000000
 50
0.00000000
  1
# 37
  0
POINT
  8
13
 10
52.40437012
 20
286.06348572
  0
TEXT
  8
13
 10
52.40437012
 20
286.06348572
 40
10.00000000
 50
0.00000000
  1
# 38
  0
POINT
  8
4
 10
41.64509277
 20
421.38446960
 30
7.50000000
 50
270.86706240
  0
TEXT
  8
1
 10
41.64509277
 20
421.38446960
 40
10.00000000
 50
0.00000000
  1
# 39
  0
ENDBLK
  0
BLOCK
  8
1
  2
4
 70
64
 10
0.0
 20
0.0
  0
LINE
  8
7
 10
393.31115759
 20
1011.74121159
 11
717.06433142
 21
1011.74121159
  0
TEXT
  8
1
 10
0.00000000
 20
0.00000000
 40
10.00000000
 50
0.00000000
  1
Size: 46
  0
TEXT
  8
1
 10
555.18774451
 20
1026.74121159
 40
20.00000000
 50
0.00000000
  1
Piece Name: AKIL.DC
  0
TEXT
  8
1
 10
555.18774451
 20
1026.74121159
 40
20.00000000
 50
0.00000000
  1
Quantity: 1
  0
TEXT
  8
1
 10
555.18774451
 20
1026.74121159
 40
20.00000000
 50
0.00000000
  1
Rotation: 0
  0
TEXT
  8
1
 10
555.18774451
 20
1026.74121159
 40
20.00000000
 50
0.00000000
  1
Tilt: 0
  0
TEXT
  8
1
 10
555.18774451
 20
1026.74121159
 40
20.00000000
 50
0.00000000
  1
Fold: N
  0
TEXT
  8
1
 10
555.18774451
 20
1026.74121159
 40
20.00000000
 50
0.00000000
  1
Material: 1
  0
POLYLINE
  8
1
 66
1
 70
1
  0
VERTEX
  8
1
 10
159.62074661
 20
916.81233537
  0
VERTEX
  8
1
 10
151.42616653
 20
961.70552384
  0
VERTEX
  8
1
 10
138.15517044
 20
1031.99971330
  0
VERTEX
  8
1
 10
128.04652786
 20
1083.97041642
  0
VERTEX
  8
1
 10
121.70595169
 20
1118.56001603
  0
VERTEX
  8
1
 10
145.76869583
 20
1127.23726213
  0
VERTEX
  8
1
 10
202.20668411
 20
1129.14741838
  0
VERTEX
  8
1
 10
230.42942720
 20
1130.24727503
  0
VERTEX
  8
1
 10
244.54165245
 20
1130.70068269
  0
VERTEX
  8
1
 10
258.65517044
 20
1130.98701799
  0
VERTEX
  8
1
 10
272.76377264
 20
1131.04638594
  0
VERTEX
  8
1
 10
286.87402780
 20
1130.88752806
  0
VERTEX
  8
1
 10
300.98575516
 20
1130.53610558
  0
VERTEX
  8
1
 10
315.09877396
 20
1130.01777970
  0
VERTEX
  8
1
 10
329.62532827
 20
1128.31526445
  0
VERTEX
  8
1
 10
344.12265996
 20
1126.43440736
  0
VERTEX
  8
1
 10
358.59706232
 20
1124.39729943
  0
VERTEX
  8
1
 10
373.05482864
 20
1122.22603166
  0
VERTEX
  8
1
 10
387.50732238
 20
1119.92645197
  0
VERTEX
  8
1
 10
401.93056001
 20
1117.44831563
  0
VERTEX
  8
1
 10
416.30564143
 20
1114.72527875
  0
VERTEX
  8
1
 10
430.61366653
 20
1111.69099748
  0
VERTEX
  8
1
 10
444.82575027
 20
1108.30591269
  0
VERTEX
  8
1
 10
458.96566524
 20
1104.61503571
  0
VERTEX
  8
1
 10
473.04701250
 20
1100.68934299
  0
VERTEX
  8
1
 10
487.08339310
 20
1096.59981095
  0
VERTEX
  8
1
 10
515.10860624
 20
1088.20815437
  0
VERTEX
  8
1
 10
529.12872879
 20
1084.05369105
  0
VERTEX
  8
1
 10
543.18300247
 20
1080.02327287
  0
VERTEX
  8
1
 10
557.14941912
 20
1076.20500646
  0
VERTEX
  8
1
 10
571.15590028
 20
1072.52700679
  0
VERTEX
  8
1
 10
599.22963333
 20
1065.38252580
  0
VERTEX
  8
1
 10
627.32084021
 20
1058.31543438
  0
VERTEX
  8
1
 10
641.39177940
 20
1054.89567448
  0
VERTEX
  8
1
 10
655.49672318
 20
1051.62581193
  0
VERTEX
  8
1
 10
669.64440865
 20
1048.54446109
  0
VERTEX
  8
1
 10
683.82775672
 20
1045.62244935
  0
VERTEX
  8
1
 10
698.03559046
 20
1042.81369117
  0
VERTEX
  8
1
 10
712.25673294
 20
1040.07210099
  0
VERTEX
  8
1
 10
740.71534850
 20
1034.68777985
  0
VERTEX
  8
1
 10
754.95716905
 20
1032.06565314
  0
VERTEX
  8
1
 10
769.21229935
 20
1029.51069963
  0
VERTEX
  8
1
 10
758.36610794
 20
1008.70576799
  0
VERTEX
  8
1
 10
750.00938509
 20
990.67924044
  0
VERTEX
  8
1
 10
742.31239700
 20
972.35603654
  0
VERTEX
  8
1
 10
735.23891068
 20
953.98250138
  0
VERTEX
  8
1
 10
721.32040954
 20
959.15750264
  0
VERTEX
  8
1
 10
707.29716717
 20
963.92252337
  0
VERTEX
  8
1
 10
693.16288737
 20
968.28815078
  0
VERTEX
  8
1
 10
678.91127396
 20
972.26497209
  0
VERTEX
  8
1
 10
664.54117724
 20
975.85629283
  0
VERTEX
  8
1
 10
650.06635347
 20
979.03768627
  0
VERTEX
  8
1
 10
635.50568917
 20
981.77739425
  0
VERTEX
  8
1
 10
620.87807083
 20
984.04365861
  0
VERTEX
  8
1
 10
606.18071314
 20
985.81358063
  0
VERTEX
  8
1
 10
591.42886563
 20
987.08770643
  0
VERTEX
  8
1
 10
576.61622033
 20
987.87664303
  0
VERTEX
  8
1
 10
561.73646927
 20
988.19099748
  0
VERTEX
  8
1
 10
553.71039930
 20
988.18967070
  0
VERTEX
  8
1
 10
545.91813954
 20
987.50813561
  0
VERTEX
  8
1
 10
538.33362864
 20
986.14053513
  0
VERTEX
  8
1
 10
530.93080521
 20
984.08101213
  0
VERTEX
  8
1
 10
523.68988214
 20
981.32279572
  0
VERTEX
  8
1
 10
516.68345594
 20
977.88224627
  0
VERTEX
  8
1
 10
509.98991336
 20
973.77698062
  0
VERTEX
  8
1
 10
503.68764114
 20
969.02461564
  0
VERTEX
  8
1
 10
497.88850594
 20
963.67881140
  0
VERTEX
  8
1
 10
492.67966656
 20
957.78645666
  0
VERTEX
  8
1
 10
488.18605714
 20
951.42472621
  0
VERTEX
  8
1
 10
484.53261185
 20
944.67079484
  0
VERTEX
  8
1
 10
481.81305968
 20
937.57353936
  0
VERTEX
  8
1
 10
480.01982587
 20
930.13449686
  0
VERTEX
  8
1
 10
479.11115887
 20
922.32787642
  0
VERTEX
  8
1
 10
479.04530716
 20
914.12788713
  0
VERTEX
  8
1
 10
462.33396612
 20
915.44128336
  0
VERTEX
  8
1
 10
445.61790918
 20
916.67696030
  0
VERTEX
  8
1
 10
412.17226028
 20
918.96681535
  0
VERTEX
  8
1
 10
395.44017195
 20
920.03838223
  0
VERTEX
  8
1
 10
378.70336622
 20
921.03220681
  0
VERTEX
  8
1
 10
361.96138351
 20
921.90953439
  0
VERTEX
  8
1
 10
345.21376419
 20
922.63161027
  0
VERTEX
  8
1
 10
328.46342780
 20
923.16820563
  0
VERTEX
  8
1
 10
311.70715074
 20
923.52378448
  0
VERTEX
  8
1
 10
294.94508617
 20
923.71126084
  0
VERTEX
  8
1
 10
278.17738724
 20
923.74354875
  0
VERTEX
  8
1
 10
262.59725952
 20
924.48714735
  0
VERTEX
  8
1
 10
247.02065248
 20
924.87218046
  0
VERTEX
  8
1
 10
231.44756612
 20
924.89864809
  0
VERTEX
  8
1
 10
215.88247091
 20
924.56669705
  0
VERTEX
  8
1
 10
200.32089435
 20
923.87638643
  0
VERTEX
  8
1
 10
184.76283646
 20
922.82771623
  0
SEQEND
  0
POLYLINE
  8
84
 66
1
 70
1
  0
VERTEX
  8
84
 10
159.62074661
 20
916.81233537
  0
VERTEX
  8
84
 10
151.42616653
 20
961.70552384
  0
VERTEX
  8
84
 10
138.15517044
 20
1031.99971330
  0
VERTEX
  8
84
 10
128.04652786
 20
1083.97041642
  0
VERTEX
  8
84
 10
121.70595169
 20
1118.56001603
  0
VERTEX
  8
84
 10
145.76869583
 20
1127.23726213
  0
VERTEX
  8
84
 10
202.20668411
 20
1129.14741838
  0
VERTEX
  8
84
 10
230.42942720
 20
1130.24727503
  0
VERTEX
  8
84
 10
244.54165245
 20
1130.70068269
  0
VERTEX
  8
84
 10
258.65517044
 20
1130.98701799
  0
VERTEX
  8
84
 10
272.76377264
 20
1131.04638594
  0
VERTEX
  8
84
 10
286.87402780
 20
1130.88752806
  0
VERTEX
  8
84
 10
300.98575516
 20
1130.53610558
  0
VERTEX
  8
84
 10
315.09877396
 20
1130.01777970
  0
VERTEX
  8
84
 10
329.62532827
 20
1128.31526445
  0
VERTEX
  8
84
 10
344.12265996
 20
1126.43440736
  0
VERTEX
  8
84
 10
358.59706232
 20
1124.39729943
  0
VERTEX
  8
84
 10
373.05482864
 20
1122.22603166
  0
VERTEX
  8
84
 10
387.50732238
 20
1119.92645197
  0
VERTEX
  8
84
 10
401.93056001
 20
1117.44831563
  0
VERTEX
  8
84
 10
416.30564143
 20
1114.72527875
  0
VERTEX
  8
84
 10
430.61366653
 20
1111.69099748
  0
VERTEX
  8
84
 10
444.82575027
 20
1108.30591269
  0
VERTEX
  8
84
 10
458.96566524
 20
1104.61503571
  0
VERTEX
  8
84
 10
473.04701250
 20
1100.68934299
  0
VERTEX
  8
84
 10
487.08339310
 20
1096.59981095
  0
VERTEX
  8
84
 10
515.10860624
 20
1088.20815437
  0
VERTEX
  8
84
 10
529.12872879
 20
1084.05369105
  0
VERTEX
  8
84
 10
543.18300247
 20
1080.02327287
  0
VERTEX
  8
84
 10
557.14941912
 20
1076.20500646
  0
VERTEX
  8
84
 10
571.15590028
 20
1072.52700679
  0
VERTEX
  8
84
 10
599.22963333
 20
1065.38252580
  0
VERTEX
  8
84
 10
627.32084021
 20
1058.31543438
  0
VERTEX
  8
84
 10
641.39177940
 20
1054.89567448
  0
VERTEX
  8
84
 10
655.49672318
 20
1051.62581193
  0
VERTEX
  8
84
 10
669.64440865
 20
1048.54446109
  0
VERTEX
  8
84
 10
683.82775672
 20
1045.62244935
  0
VERTEX
  8
84
 10
698.03559046
 20
1042.81369117
  0
VERTEX
  8
84
 10
712.25673294
 20
1040.07210099
  0
VERTEX
  8
84
 10
740.71534850
 20
1034.68777985
  0
VERTEX
  8
84
 10
754.95716905
 20
1032.06565314
  0
VERTEX
  8
84
 10
769.21229935
 20
1029.51069963
  0
VERTEX
  8
84
 10
758.36610794
 20
1008.70576799
  0
VERTEX
  8
84
 10
750.00938509
 20
990.67924044
  0
VERTEX
  8
84
 10
742.31239700
 20
972.35603654
  0
VERTEX
  8
84
 10
735.23891068
 20
953.98250138
  0
VERTEX
  8
84
 10
721.32040954
 20
959.15750264
  0
VERTEX
  8
84
 10
707.29716717
 20
963.92252337
  0
VERTEX
  8
84
 10
693.16288737
 20
968.28815078
  0
VERTEX
  8
84
 10
678.91127396
 20
972.26497209
  0
VERTEX
  8
84
 10
664.54117724
 20
975.85629283
  0
VERTEX
  8
84
 10
650.06635347
 20
979.03768627
  0
VERTEX
  8
84
 10
635.50568917
 20
981.77739425
  0
VERTEX
  8
84
 10
620.87807083
 20
984.04365861
  0
VERTEX
  8
84
 10
606.18071314
 20
985.81358063
  0
VERTEX
  8
84
 10
591.42886563
 20
987.08770643
  0
VERTEX
  8
84
 10
576.61622033
 20
987.87664303
  0
VERTEX
  8
84
 10
561.73646927
 20
988.19099748
  0
VERTEX
  8
84
 10
553.71039930
 20
988.18967070
  0
VERTEX
  8
84
 10
545.91813954
 20
987.50813561
  0
VERTEX
  8
84
 10
538.33362864
 20
986.14053513
  0
VERTEX
  8
84
 10
530.93080521
 20
984.08101213
  0
VERTEX
  8
84
 10
523.68988214
 20
981.32279572
  0
VERTEX
  8
84
 10
516.68345594
 20
977.88224627
  0
VERTEX
  8
84
 10
509.98991336
 20
973.77698062
  0
VERTEX
  8
84
 10
503.68764114
 20
969.02461564
  0
VERTEX
  8
84
 10
497.88850594
 20
963.67881140
  0
VERTEX
  8
84
 10
492.67966656
 20
957.78645666
  0
VERTEX
  8
84
 10
488.18605714
 20
951.42472621
  0
VERTEX
  8
84
 10
484.53261185
 20
944.67079484
  0
VERTEX
  8
84
 10
481.81305968
 20
937.57353936
  0
VERTEX
  8
84
 10
480.01982587
 20
930.13449686
  0
VERTEX
  8
84
 10
479.11115887
 20
922.32787642
  0
VERTEX
  8
84
 10
479.04530716
 20
914.12788713
  0
VERTEX
  8
84
 10
462.33396612
 20
915.44128336
  0
VERTEX
  8
84
 10
445.61790918
 20
916.67696030
  0
VERTEX
  8
84
 10
412.17226028
 20
918.96681535
  0
VERTEX
  8
84
 10
395.44017195
 20
920.03838223
  0
VERTEX
  8
84
 10
378.70336622
 20
921.03220681
  0
VERTEX
  8
84
 10
361.96138351
 20
921.90953439
  0
VERTEX
  8
84
 10
345.21376419
 20
922.63161027
  0
VERTEX
  8
84
 10
328.46342780
 20
923.16820563
  0
VERTEX
  8
84
 10
311.70715074
 20
923.52378448
  0
VERTEX
  8
84
 10
294.94508617
 20
923.71126084
  0
VERTEX
  8
84
 10
278.17738724
 20
923.74354875
  0
VERTEX
  8
84
 10
262.59725952
 20
924.48714735
  0
VERTEX
  8
84
 10
247.02065248
 20
924.87218046
  0
VERTEX
  8
84
 10
231.44756612
 20
924.89864809
  0
VERTEX
  8
84
 10
215.88247091
 20
924.56669705
  0
VERTEX
  8
84
 10
200.32089435
 20
923.87638643
  0
VERTEX
  8
84
 10
184.76283646
 20
922.82771623
  0
SEQEND
  0
POINT
  8
2
 10
159.62074661
 20
916.81233537
  0
TEXT
  8
2
 10
159.62074661
 20
916.81233537
 40
10.00000000
 50
0.00000000
  1
# 40
  0
POINT
  8
3
 10
151.42616653
 20
961.70552384
  0
POINT
  8
3
 10
138.15517044
 20
1031.99971330
  0
POINT
  8
3
 10
128.04652786
 20
1083.97041642
  0
POINT
  8
2
 10
121.70595169
 20
1118.56001603
  0
TEXT
  8
2
 10
121.70595169
 20
1118.56001603
 40
10.00000000
 50
0.00000000
  1
# 41
  0
POINT
  8
2
 10
145.76869583
 20
1127.23726213
  0
TEXT
  8
2
 10
145.76869583
 20
1127.23726213
 40
10.00000000
 50
0.00000000
  1
# 42
  0
POINT
  8
3
 10
202.20668411
 20
1129.14741838
  0
POINT
  8
3
 10
230.42942720
 20
1130.24727503
  0
POINT
  8
3
 10
244.54165245
 20
1130.70068269
  0
POINT
  8
3
 10
258.65517044
 20
1130.98701799
  0
POINT
  8
3
 10
272.76377264
 20
1131.04638594
  0
POINT
  8
3
 10
286.87402780
 20
1130.88752806
  0
POINT
  8
3
 10
300.98575516
 20
1130.53610558
  0
POINT
  8
2
 10
315.09877396
 20
1130.01777970
  0
TEXT
  8
2
 10
315.09877396
 20
1130.01777970
 40
10.00000000
 50
0.00000000
  1
# 43
  0
POINT
  8
3
 10
329.62532827
 20
1128.31526445
  0
POINT
  8
3
 10
344.12265996
 20
1126.43440736
  0
POINT
  8
3
 10
358.59706232
 20
1124.39729943
  0
POINT
  8
3
 10
373.05482864
 20
1122.22603166
  0
POINT
  8
3
 10
387.50732238
 20
1119.92645197
  0
POINT
  8
3
 10
401.93056001
 20
1117.44831563
  0
POINT
  8
3
 10
416.30564143
 20
1114.72527875
  0
POINT
  8
3
 10
430.61366653
 20
1111.69099748
  0
POINT
  8
3
 10
444.82575027
 20
1108.30591269
  0
POINT
  8
3
 10
458.96566524
 20
1104.61503571
  0
POINT
  8
3
 10
473.04701250
 20
1100.68934299
  0
POINT
  8
3
 10
487.08339310
 20
1096.59981095
  0
POINT
  8
3
 10
515.10860624
 20
1088.20815437
  0
POINT
  8
3
 10
529.12872879
 20
1084.05369105
  0
POINT
  8
3
 10
543.18300247
 20
1080.02327287
  0
POINT
  8
3
 10
557.14941912
 20
1076.20500646
  0
POINT
  8
3
 10
571.15590028
 20
1072.52700679
  0
POINT
  8
3
 10
599.22963333
 20
1065.38252580
  0
POINT
  8
3
 10
627.32084021
 20
1058.31543438
  0
POINT
  8
3
 10
641.39177940
 20
1054.89567448
  0
POINT
  8
3
 10
655.49672318
 20
1051.62581193
  0
POINT
  8
3
 10
669.64440865
 20
1048.54446109
  0
POINT
  8
3
 10
683.82775672
 20
1045.62244935
  0
POINT
  8
3
 10
698.03559046
 20
1042.81369117
  0
POINT
  8
3
 10
712.25673294
 20
1040.07210099
  0
POINT
  8
3
 10
740.71534850
 20
1034.68777985
  0
POINT
  8
3
 10
754.95716905
 20
1032.06565314
  0
POINT
  8
2
 10
769.21229935
 20
1029.51069963
  0
TEXT
  8
2
 10
769.21229935
 20
1029.51069963
 40
10.00000000
 50
0.00000000
  1
# 44
  0
POINT
  8
3
 10
758.36610794
 20
1008.70576799
  0
POINT
  8
3
 10
750.00938509
 20
990.67924044
  0
POINT
  8
3
 10
742.31239700
 20
972.35603654
  0
POINT
  8
2
 10
735.23891068
 20
953.98250138
  0
TEXT
  8
2
 10
735.23891068
 20
953.98250138
 40
10.00000000
 50
0.00000000
  1
# 45
  0
POINT
  8
3
 10
721.32040954
 20
959.15750264
  0
POINT
  8
3
 10
707.29716717
 20
963.92252337
  0
POINT
  8
3
 10
693.16288737
 20
968.28815078
  0
POINT
  8
3
 10
678.91127396
 20
972.26497209
  0
POINT
  8
3
 10
664.54117724
 20
975.85629283
  0
POINT
  8
3
 10
650.06635347
 20
979.03768627
  0
POINT
  8
3
 10
635.50568917
 20
981.77739425
  0
POINT
  8
3
 10
620.87807083
 20
984.04365861
  0
POINT
  8
3
 10
606.18071314
 20
985.81358063
  0
POINT
  8
3
 10
591.42886563
 20
987.08770643
  0
POINT
  8
3
 10
576.61622033
 20
987.87664303
  0
POINT
  8
2
 10
561.73646927
 20
988.19099748
  0
TEXT
  8
2
 10
561.73646927
 20
988.19099748
 40
10.00000000
 50
0.00000000
  1
# 46
  0
POINT
  8
3
 10
553.71039930
 20
988.18967070
  0
POINT
  8
3
 10
545.91813954
 20
987.50813561
  0
POINT
  8
3
 10
538.33362864
 20
986.14053513
  0
POINT
  8
3
 10
530.93080521
 20
984.08101213
  0
POINT
  8
3
 10
523.68988214
 20
981.32279572
  0
POINT
  8
3
 10
516.68345594
 20
977.88224627
  0
POINT
  8
3
 10
509.98991336
 20
973.77698062
  0
POINT
  8
3
 10
503.68764114
 20
969.02461564
  0
POINT
  8
3
 10
497.88850594
 20
963.67881140
  0
POINT
  8
3
 10
492.67966656
 20
957.78645666
  0
POINT
  8
3
 10
488.18605714
 20
951.42472621
  0
POINT
  8
3
 10
484.53261185
 20
944.67079484
  0
POINT
  8
3
 10
481.81305968
 20
937.57353936
  0
POINT
  8
3
 10
480.01982587
 20
930.13449686
  0
POINT
  8
3
 10
479.11115887
 20
922.32787642
  0
POINT
  8
2
 10
479.04530716
 20
914.12788713
  0
TEXT
  8
2
 10
479.04530716
 20
914.12788713
 40
10.00000000
 50
0.00000000
  1
# 47
  0
POINT
  8
3
 10
462.33396612
 20
915.44128336
  0
POINT
  8
3
 10
445.61790918
 20
916.67696030
  0
POINT
  8
3
 10
412.17226028
 20
918.96681535
  0
POINT
  8
3
 10
395.44017195
 20
920.03838223
  0
POINT
  8
3
 10
378.70336622
 20
921.03220681
  0
POINT
  8
3
 10
361.96138351
 20
921.90953439
  0
POINT
  8
3
 10
345.21376419
 20
922.63161027
  0
POINT
  8
3
 10
328.46342780
 20
923.16820563
  0
POINT
  8
3
 10
311.70715074
 20
923.52378448
  0
POINT
  8
3
 10
294.94508617
 20
923.71126084
  0
POINT
  8
2
 10
278.17738724
 20
923.74354875
  0
TEXT
  8
2
 10
278.17738724
 20
923.74354875
 40
10.00000000
 50
0.00000000
  1
# 48
  0
POINT
  8
3
 10
262.59725952
 20
924.48714735
  0
POINT
  8
3
 10
247.02065248
 20
924.87218046
  0
POINT
  8
3
 10
231.44756612
 20
924.89864809
  0
POINT
  8
3
 10
215.88247091
 20
924.56669705
  0
POINT
  8
3
 10
200.32089435
 20
923.87638643
  0
POINT
  8
2
 10
184.76283646
 20
922.82771623
  0
TEXT
  8
2
 10
184.76283646
 20
922.82771623
 40
10.00000000
 50
0.00000000
  1
# 49
  0
POINT
  8
4
 10
315.09877396
 20
1130.01777970
 30
7.50000000
 50
265.60603633
  0
TEXT
  8
1
 10
315.09877396
 20
1130.01777970
 40
10.00000000
 50
0.00000000
  1
# 50
  0
POINT
  8
4
 10
543.18300247
 20
1080.02327287
 30
7.50000000
 50
253.99841766
  0
TEXT
  8
1
 10
543.18300247
 20
1080.02327287
 40
10.00000000
 50
0.00000000
  1
# 51
  0
ENDBLK
  0
BLOCK
  8
1
  2
5
 70
64
 10
0.0
 20
0.0
  0
LINE
  8
7
 10
550.01813636
 20
378.80195312
 11
867.64313636
 21
378.80195312
  0
TEXT
  8
1
 10
0.00000000
 20
0.00000000
 40
20.00000000
 50
0.00000000
  1
Size: 46
  0
TEXT
  8
1
 10
708.83063636
 20
393.80195312
 40
20.00000000
 50
0.00000000
  1
Piece Name: AKIL.DE
  0
TEXT
  8
1
 10
708.83063636
 20
393.80195312
 40
20.00000000
 50
0.00000000
  1
Quantity: 1
  0
TEXT
  8
1
 10
708.83063636
 20
393.80195312
 40
20.00000000
 50
0.00000000
  1
Rotation: 0
  0
TEXT
  8
1
 10
708.83063636
 20
393.80195312
 40
20.00000000
 50
0.00000000
  1
Tilt: 0
  0
TEXT
  8
1
 10
708.83063636
 20
393.80195312
 40
20.00000000
 50
0.00000000
  1
Fold: N
  0
TEXT
  8
1
 10
708.83063636
 20
393.80195312
 40
20.00000000
 50
0.00000000
  1
Material: 1
  0
POLYLINE
  8
1
 66
1
 70
1
  0
VERTEX
  8
1
 10
682.17641068
 20
359.79521484
  0
VERTEX
  8
1
 10
652.18422318
 20
362.42900391
  0
VERTEX
  8
1
 10
452.98500443
 20
362.63798828
  0
VERTEX
  8
1
 10
448.45766068
 20
456.05693359
  0
VERTEX
  8
1
 10
451.03187943
 20
555.99541016
  0
VERTEX
  8
1
 10
486.16078568
 20
555.99541016
  0
VERTEX
  8
1
 10
678.89906693
 20
555.99345703
  0
VERTEX
  8
1
 10
715.41469193
 20
555.99248047
  0
VERTEX
  8
1
 10
718.31427870
 20
539.80839820
  0
VERTEX
  8
1
 10
722.72372560
 20
524.77787205
  0
VERTEX
  8
1
 10
725.54551268
 20
517.70393215
  0
VERTEX
  8
1
 10
728.80580410
 20
510.92886885
  0
VERTEX
  8
1
 10
732.52494629
 20
504.45617801
  0
VERTEX
  8
1
 10
736.72328568
 20
498.28935547
  0
VERTEX
  8
1
 10
742.51652286
 20
491.16689085
  0
VERTEX
  8
1
 10
748.97076499
 20
484.49213231
  0
VERTEX
  8
1
 10
756.00030942
 20
478.25035471
  0
VERTEX
  8
1
 10
763.51945350
 20
472.42683290
  0
VERTEX
  8
1
 10
771.44249457
 20
467.00684175
  0
VERTEX
  8
1
 10
779.68372997
 20
461.97565611
  0
VERTEX
  8
1
 10
796.77797318
 20
453.02080078
  0
VERTEX
  8
1
 10
814.51386256
 20
445.30344297
  0
VERTEX
  8
1
 10
832.47198920
 20
438.72039237
  0
VERTEX
  8
1
 10
850.62217033
 20
432.98188191
  0
VERTEX
  8
1
 10
868.93422318
 20
427.79814453
  0
VERTEX
  8
1
 10
886.99141209
 20
423.03292010
  0
VERTEX
  8
1
 10
905.15902341
 20
418.55536101
  0
VERTEX
  8
1
 10
923.42126585
 20
414.39914486
  0
VERTEX
  8
1
 10
941.76234818
 20
410.59794922
  0
VERTEX
  8
1
 10
960.25258044
 20
407.15973979
  0
VERTEX
  8
1
 10
978.79795323
 20
404.08224385
  0
VERTEX
  8
1
 10
997.38997661
 20
401.33388965
  0
VERTEX
  8
1
 10
1016.02016068
 20
398.88310547
  0
VERTEX
  8
1
 10
1032.89963975
 20
396.90158199
  0
VERTEX
  8
1
 10
1049.80578832
 20
395.14660315
  0
VERTEX
  8
1
 10
1066.74099807
 20
393.62706297
  0
VERTEX
  8
1
 10
1083.70766068
 20
392.35185547
  0
VERTEX
  8
1
 10
1071.24672318
 20
363.22587891
  0
VERTEX
  8
1
 10
1063.35289893
 20
345.48844284
  0
VERTEX
  8
1
 10
1055.73109818
 20
327.64384766
  0
VERTEX
  8
1
 10
1049.66418742
 20
311.70039946
  0
VERTEX
  8
1
 10
1044.13344193
 20
295.54326172
  0
VERTEX
  8
1
 10
1030.29605066
 20
300.40190883
  0
VERTEX
  8
1
 10
1016.35816207
 20
304.81545777
  0
VERTEX
  8
1
 10
1002.31181966
 20
308.79554541
  0
VERTEX
  8
1
 10
988.14906693
 20
312.35380859
  0
VERTEX
  8
1
 10
973.86964771
 20
315.49363653
  0
VERTEX
  8
1
 10
959.48976607
 20
318.18851307
  0
VERTEX
  8
1
 10
945.03328486
 20
320.40353737
  0
VERTEX
  8
1
 10
930.52406693
 20
322.10380859
  0
VERTEX
  8
1
 10
916.01181220
 20
323.26028778
  0
VERTEX
  8
1
 10
901.46288105
 20
323.88105404
  0
VERTEX
  8
1
 10
886.86934752
 20
323.97769952
  0
VERTEX
  8
1
 10
872.22328568
 20
323.56181641
  0
VERTEX
  8
1
 10
857.63230509
 20
323.17205347
  0
VERTEX
  8
1
 10
850.79513000
 20
322.25628517
  0
VERTEX
  8
1
 10
844.24095998
 20
320.84688786
  0
VERTEX
  8
1
 10
837.95289122
 20
318.93408318
  0
VERTEX
  8
1
 10
831.91401991
 20
316.50809278
  0
VERTEX
  8
1
 10
826.10744225
 20
313.55913831
  0
VERTEX
  8
1
 10
820.51625443
 20
310.07744141
  0
VERTEX
  8
1
 10
814.05421858
 20
305.16229426
  0
VERTEX
  8
1
 10
808.06299916
 20
299.55842457
  0
VERTEX
  8
1
 10
802.72321206
 20
293.37031330
  0
VERTEX
  8
1
 10
798.21547318
 20
286.70244141
  0
VERTEX
  8
1
 10
794.09639024
 20
278.18505835
  0
VERTEX
  8
1
 10
791.35168444
 20
269.08132928
  0
VERTEX
  8
1
 10
789.90020114
 20
259.34430861
  0
VERTEX
  8
1
 10
789.66078568
 20
248.92705078
  0
VERTEX
  8
1
 10
774.17834922
 20
249.36619254
  0
VERTEX
  8
1
 10
758.69629111
 20
249.67799575
  0
VERTEX
  8
1
 10
743.21405841
 20
249.85944367
  0
VERTEX
  8
1
 10
727.73109818
 20
249.90751953
  0
VERTEX
  8
1
 10
710.81940187
 20
249.80649299
  0
VERTEX
  8
1
 10
693.90810121
 20
249.55325739
  0
VERTEX
  8
1
 10
676.99911934
 20
249.15830521
  0
VERTEX
  8
1
 10
660.09437943
 20
248.63212891
  0
VERTEX
  8
1
 10
643.18731279
 20
247.98255038
  0
VERTEX
  8
1
 10
626.28577557
 20
247.20862465
  0
VERTEX
  8
1
 10
609.38912622
 20
246.30685144
  0
VERTEX
  8
1
 10
592.49672318
 20
245.27373047
  0
VERTEX
  8
1
 10
591.55531693
 20
245.24052734
  0
VERTEX
  8
1
 10
576.83111742
 20
244.67244433
  0
VERTEX
  8
1
 10
562.11142333
 20
243.95476231
  0
VERTEX
  8
1
 10
547.40859791
 20
242.99812686
  0
VERTEX
  8
1
 10
532.73500443
 20
241.71318359
  0
VERTEX
  8
1
 10
518.92250443
 20
240.15556641
  0
VERTEX
  8
1
 10
511.95773388
 20
239.25383329
  0
VERTEX
  8
1
 10
498.06753826
 20
237.20489450
  0
VERTEX
  8
1
 10
485.28518220
 20
235.02175578
  0
VERTEX
  8
1
 10
478.91078568
 20
233.82548828
  0
VERTEX
  8
1
 10
470.55141068
 20
269.50810547
  0
VERTEX
  8
1
 10
461.70766068
 20
310.03251953
  0
VERTEX
  8
1
 10
457.16827764
 20
329.87997507
  0
VERTEX
  8
1
 10
452.45766068
 20
349.68876953
  0
VERTEX
  8
1
 10
452.81703568
 20
355.86455078
  0
VERTEX
  8
1
 10
652.18812943
 20
357.01982422
  0
SEQEND
  0
POLYLINE
  8
84
 66
1
 70
1
  0
VERTEX
  8
84
 10
682.17641068
 20
359.79521484
  0
VERTEX
  8
84
 10
652.18422318
 20
362.42900391
  0
VERTEX
  8
84
 10
452.98500443
 20
362.63798828
  0
VERTEX
  8
84
 10
448.45766068
 20
456.05693359
  0
VERTEX
  8
84
 10
451.03187943
 20
555.99541016
  0
VERTEX
  8
84
 10
486.16078568
 20
555.99541016
  0
VERTEX
  8
84
 10
678.89906693
 20
555.99345703
  0
VERTEX
  8
84
 10
715.41469193
 20
555.99248047
  0
VERTEX
  8
84
 10
718.31427870
 20
539.80839820
  0
VERTEX
  8
84
 10
722.72372560
 20
524.77787205
  0
VERTEX
  8
84
 10
725.54551268
 20
517.70393215
  0
VERTEX
  8
84
 10
728.80580410
 20
510.92886885
  0
VERTEX
  8
84
 10
732.52494629
 20
504.45617801
  0
VERTEX
  8
84
 10
736.72328568
 20
498.28935547
  0
VERTEX
  8
84
 10
742.51652286
 20
491.16689085
  0
VERTEX
  8
84
 10
748.97076499
 20
484.49213231
  0
VERTEX
  8
84
 10
756.00030942
 20
478.25035471
  0
VERTEX
  8
84
 10
763.51945350
 20
472.42683290
  0
VERTEX
  8
84
 10
771.44249457
 20
467.00684175
  0
VERTEX
  8
84
 10
779.68372997
 20
461.97565611
  0
VERTEX
  8
84
 10
796.77797318
 20
453.02080078
  0
VERTEX
  8
84
 10
814.51386256
 20
445.30344297
  0
VERTEX
  8
84
 10
832.47198920
 20
438.72039237
  0
VERTEX
  8
84
 10
850.62217033
 20
432.98188191
  0
VERTEX
  8
84
 10
868.93422318
 20
427.79814453
  0
VERTEX
  8
84
 10
886.99141209
 20
423.03292010
  0
VERTEX
  8
84
 10
905.15902341
 20
418.55536101
  0
VERTEX
  8
84
 10
923.42126585
 20
414.39914486
  0
VERTEX
  8
84
 10
941.76234818
 20
410.59794922
  0
VERTEX
  8
84
 10
960.25258044
 20
407.15973979
  0
VERTEX
  8
84
 10
978.79795323
 20
404.08224385
  0
VERTEX
  8
84
 10
997.38997661
 20
401.33388965
  0
VERTEX
  8
84
 10
1016.02016068
 20
398.88310547
  0
VERTEX
  8
84
 10
1032.89963975
 20
396.90158199
  0
VERTEX
  8
84
 10
1049.80578832
 20
395.14660315
  0
VERTEX
  8
84
 10
1066.74099807
 20
393.62706297
  0
VERTEX
  8
84
 10
1083.70766068
 20
392.35185547
  0
VERTEX
  8
84
 10
1071.24672318
 20
363.22587891
  0
VERTEX
  8
84
 10
1063.35289893
 20
345.48844284
  0
VERTEX
  8
84
 10
1055.73109818
 20
327.64384766
  0
VERTEX
  8
84
 10
1049.66418742
 20
311.70039946
  0
VERTEX
  8
84
 10
1044.13344193
 20
295.54326172
  0
VERTEX
  8
84
 10
1030.29605066
 20
300.40190883
  0
VERTEX
  8
84
 10
1016.35816207
 20
304.81545777
  0
VERTEX
  8
84
 10
1002.31181966
 20
308.79554541
  0
VERTEX
  8
84
 10
988.14906693
 20
312.35380859
  0
VERTEX
  8
84
 10
973.86964771
 20
315.49363653
  0
VERTEX
  8
84
 10
959.48976607
 20
318.18851307
  0
VERTEX
  8
84
 10
945.03328486
 20
320.40353737
  0
VERTEX
  8
84
 10
930.52406693
 20
322.10380859
  0
VERTEX
  8
84
 10
916.01181220
 20
323.26028778
  0
VERTEX
  8
84
 10
901.46288105
 20
323.88105404
  0
VERTEX
  8
84
 10
886.86934752
 20
323.97769952
  0
VERTEX
  8
84
 10
872.22328568
 20
323.56181641
  0
VERTEX
  8
84
 10
857.63230509
 20
323.17205347
  0
VERTEX
  8
84
 10
850.79513000
 20
322.25628517
  0
VERTEX
  8
84
 10
844.24095998
 20
320.84688786
  0
VERTEX
  8
84
 10
837.95289122
 20
318.93408318
  0
VERTEX
  8
84
 10
831.91401991
 20
316.50809278
  0
VERTEX
  8
84
 10
826.10744225
 20
313.55913831
  0
VERTEX
  8
84
 10
820.51625443
 20
310.07744141
  0
VERTEX
  8
84
 10
814.05421858
 20
305.16229426
  0
VERTEX
  8
84
 10
808.06299916
 20
299.55842457
  0
VERTEX
  8
84
 10
802.72321206
 20
293.37031330
  0
VERTEX
  8
84
 10
798.21547318
 20
286.70244141
  0
VERTEX
  8
84
 10
794.09639024
 20
278.18505835
  0
VERTEX
  8
84
 10
791.35168444
 20
269.08132928
  0
VERTEX
  8
84
 10
789.90020114
 20
259.34430861
  0
VERTEX
  8
84
 10
789.66078568
 20
248.92705078
  0
VERTEX
  8
84
 10
774.17834922
 20
249.36619254
  0
VERTEX
  8
84
 10
758.69629111
 20
249.67799575
  0
VERTEX
  8
84
 10
743.21405841
 20
249.85944367
  0
VERTEX
  8
84
 10
727.73109818
 20
249.90751953
  0
VERTEX
  8
84
 10
710.81940187
 20
249.80649299
  0
VERTEX
  8
84
 10
693.90810121
 20
249.55325739
  0
VERTEX
  8
84
 10
676.99911934
 20
249.15830521
  0
VERTEX
  8
84
 10
660.09437943
 20
248.63212891
  0
VERTEX
  8
84
 10
643.18731279
 20
247.98255038
  0
VERTEX
  8
84
 10
626.28577557
 20
247.20862465
  0
VERTEX
  8
84
 10
609.38912622
 20
246.30685144
  0
VERTEX
  8
84
 10
592.49672318
 20
245.27373047
  0
VERTEX
  8
84
 10
591.55531693
 20
245.24052734
  0
VERTEX
  8
84
 10
576.83111742
 20
244.67244433
  0
VERTEX
  8
84
 10
562.11142333
 20
243.95476231
  0
VERTEX
  8
84
 10
547.40859791
 20
242.99812686
  0
VERTEX
  8
84
 10
532.73500443
 20
241.71318359
  0
VERTEX
  8
84
 10
518.92250443
 20
240.15556641
  0
VERTEX
  8
84
 10
511.95773388
 20
239.25383329
  0
VERTEX
  8
84
 10
498.06753826
 20
237.20489450
  0
VERTEX
  8
84
 10
485.28518220
 20
235.02175578
  0
VERTEX
  8
84
 10
478.91078568
 20
233.82548828
  0
VERTEX
  8
84
 10
470.55141068
 20
269.50810547
  0
VERTEX
  8
84
 10
461.70766068
 20
310.03251953
  0
VERTEX
  8
84
 10
457.16827764
 20
329.87997507
  0
VERTEX
  8
84
 10
452.45766068
 20
349.68876953
  0
VERTEX
  8
84
 10
452.81703568
 20
355.86455078
  0
VERTEX
  8
84
 10
652.18812943
 20
357.01982422
  0
SEQEND
  0
POINT
  8
2
 10
682.17641068
 20
359.79521484
  0
TEXT
  8
2
 10
682.17641068
 20
359.79521484
 40
10.00000000
 50
0.00000000
  1
# 52
  0
POINT
  8
2
 10
652.18422318
 20
362.42900391
  0
TEXT
  8
2
 10
652.18422318
 20
362.42900391
 40
10.00000000
 50
0.00000000
  1
# 53
  0
POINT
  8
2
 10
452.98500443
 20
362.63798828
  0
TEXT
  8
2
 10
452.98500443
 20
362.63798828
 40
10.00000000
 50
0.00000000
  1
# 54
  0
POINT
  8
2
 10
448.45766068
 20
456.05693359
  0
TEXT
  8
2
 10
448.45766068
 20
456.05693359
 40
10.00000000
 50
0.00000000
  1
# 55
  0
POINT
  8
2
 10
451.03187943
 20
555.99541016
  0
TEXT
  8
2
 10
451.03187943
 20
555.99541016
 40
10.00000000
 50
0.00000000
  1
# 56
  0
POINT
  8
2
 10
486.16078568
 20
555.99541016
  0
TEXT
  8
2
 10
486.16078568
 20
555.99541016
 40
10.00000000
 50
0.00000000
  1
# 57
  0
POINT
  8
2
 10
678.89906693
 20
555.99345703
  0
TEXT
  8
2
 10
678.89906693
 20
555.99345703
 40
10.00000000
 50
0.00000000
  1
# 58
  0
POINT
  8
2
 10
715.41469193
 20
555.99248047
  0
TEXT
  8
2
 10
715.41469193
 20
555.99248047
 40
10.00000000
 50
0.00000000
  1
# 59
  0
POINT
  8
3
 10
718.31427870
 20
539.80839820
  0
POINT
  8
3
 10
722.72372560
 20
524.77787205
  0
POINT
  8
3
 10
725.54551268
 20
517.70393215
  0
POINT
  8
3
 10
728.80580410
 20
510.92886885
  0
POINT
  8
3
 10
732.52494629
 20
504.45617801
  0
POINT
  8
3
 10
736.72328568
 20
498.28935547
  0
POINT
  8
3
 10
742.51652286
 20
491.16689085
  0
POINT
  8
3
 10
748.97076499
 20
484.49213231
  0
POINT
  8
3
 10
756.00030942
 20
478.25035471
  0
POINT
  8
3
 10
763.51945350
 20
472.42683290
  0
POINT
  8
3
 10
771.44249457
 20
467.00684175
  0
POINT
  8
3
 10
779.68372997
 20
461.97565611
  0
POINT
  8
3
 10
796.77797318
 20
453.02080078
  0
POINT
  8
3
 10
814.51386256
 20
445.30344297
  0
POINT
  8
3
 10
832.47198920
 20
438.72039237
  0
POINT
  8
3
 10
850.62217033
 20
432.98188191
  0
POINT
  8
3
 10
868.93422318
 20
427.79814453
  0
POINT
  8
3
 10
886.99141209
 20
423.03292010
  0
POINT
  8
3
 10
905.15902341
 20
418.55536101
  0
POINT
  8
3
 10
923.42126585
 20
414.39914486
  0
POINT
  8
3
 10
941.76234818
 20
410.59794922
  0
POINT
  8
3
 10
960.25258044
 20
407.15973979
  0
POINT
  8
3
 10
978.79795323
 20
404.08224385
  0
POINT
  8
3
 10
997.38997661
 20
401.33388965
  0
POINT
  8
3
 10
1016.02016068
 20
398.88310547
  0
POINT
  8
3
 10
1032.89963975
 20
396.90158199
  0
POINT
  8
3
 10
1049.80578832
 20
395.14660315
  0
POINT
  8
3
 10
1066.74099807
 20
393.62706297
  0
POINT
  8
2
 10
1083.70766068
 20
392.35185547
  0
TEXT
  8
2
 10
1083.70766068
 20
392.35185547
 40
10.00000000
 50
0.00000000
  1
# 60
  0
POINT
  8
3
 10
1071.24672318
 20
363.22587891
  0
POINT
  8
3
 10
1063.35289893
 20
345.48844284
  0
POINT
  8
3
 10
1055.73109818
 20
327.64384766
  0
POINT
  8
3
 10
1049.66418742
 20
311.70039946
  0
POINT
  8
2
 10
1044.13344193
 20
295.54326172
  0
TEXT
  8
2
 10
1044.13344193
 20
295.54326172
 40
10.00000000
 50
0.00000000
  1
# 61
  0
POINT
  8
3
 10
1030.29605066
 20
300.40190883
  0
POINT
  8
3
 10
1016.35816207
 20
304.81545777
  0
POINT
  8
3
 10
1002.31181966
 20
308.79554541
  0
POINT
  8
3
 10
988.14906693
 20
312.35380859
  0
POINT
  8
3
 10
973.86964771
 20
315.49363653
  0
POINT
  8
3
 10
959.48976607
 20
318.18851307
  0
POINT
  8
3
 10
945.03328486
 20
320.40353737
  0
POINT
  8
3
 10
930.52406693
 20
322.10380859
  0
POINT
  8
3
 10
916.01181220
 20
323.26028778
  0
POINT
  8
3
 10
901.46288105
 20
323.88105404
  0
POINT
  8
3
 10
886.86934752
 20
323.97769952
  0
POINT
  8
2
 10
872.22328568
 20
323.56181641
  0
TEXT
  8
2
 10
872.22328568
 20
323.56181641
 40
10.00000000
 50
0.00000000
  1
# 62
  0
POINT
  8
3
 10
857.63230509
 20
323.17205347
  0
POINT
  8
3
 10
850.79513000
 20
322.25628517
  0
POINT
  8
3
 10
844.24095998
 20
320.84688786
  0
POINT
  8
3
 10
837.95289122
 20
318.93408318
  0
POINT
  8
3
 10
831.91401991
 20
316.50809278
  0
POINT
  8
3
 10
826.10744225
 20
313.55913831
  0
POINT
  8
3
 10
820.51625443
 20
310.07744141
  0
POINT
  8
3
 10
814.05421858
 20
305.16229426
  0
POINT
  8
3
 10
808.06299916
 20
299.55842457
  0
POINT
  8
3
 10
802.72321206
 20
293.37031330
  0
POINT
  8
3
 10
798.21547318
 20
286.70244141
  0
POINT
  8
3
 10
794.09639024
 20
278.18505835
  0
POINT
  8
3
 10
791.35168444
 20
269.08132928
  0
POINT
  8
3
 10
789.90020114
 20
259.34430861
  0
POINT
  8
2
 10
789.66078568
 20
248.92705078
  0
TEXT
  8
2
 10
789.66078568
 20
248.92705078
 40
10.00000000
 50
0.00000000
  1
# 63
  0
POINT
  8
3
 10
774.17834922
 20
249.36619254
  0
POINT
  8
3
 10
758.69629111
 20
249.67799575
  0
POINT
  8
3
 10
743.21405841
 20
249.85944367
  0
POINT
  8
3
 10
727.73109818
 20
249.90751953
  0
POINT
  8
3
 10
710.81940187
 20
249.80649299
  0
POINT
  8
3
 10
693.90810121
 20
249.55325739
  0
POINT
  8
3
 10
676.99911934
 20
249.15830521
  0
POINT
  8
3
 10
660.09437943
 20
248.63212891
  0
POINT
  8
3
 10
643.18731279
 20
247.98255038
  0
POINT
  8
3
 10
626.28577557
 20
247.20862465
  0
POINT
  8
3
 10
609.38912622
 20
246.30685144
  0
POINT
  8
2
 10
592.49672318
 20
245.27373047
  0
TEXT
  8
2
 10
592.49672318
 20
245.27373047
 40
10.00000000
 50
0.00000000
  1
# 64
  0
POINT
  8
3
 10
591.55531693
 20
245.24052734
  0
POINT
  8
3
 10
576.83111742
 20
244.67244433
  0
POINT
  8
3
 10
562.11142333
 20
243.95476231
  0
POINT
  8
3
 10
547.40859791
 20
242.99812686
  0
POINT
  8
3
 10
532.73500443
 20
241.71318359
  0
POINT
  8
2
 10
518.92250443
 20
240.15556641
  0
TEXT
  8
2
 10
518.92250443
 20
240.15556641
 40
10.00000000
 50
0.00000000
  1
# 65
  0
POINT
  8
3
 10
511.95773388
 20
239.25383329
  0
POINT
  8
3
 10
498.06753826
 20
237.20489450
  0
POINT
  8
3
 10
485.28518220
 20
235.02175578
  0
POINT
  8
2
 10
478.91078568
 20
233.82548828
  0
TEXT
  8
2
 10
478.91078568
 20
233.82548828
 40
10.00000000
 50
0.00000000
  1
# 66
  0
POINT
  8
3
 10
470.55141068
 20
269.50810547
  0
POINT
  8
3
 10
461.70766068
 20
310.03251953
  0
POINT
  8
3
 10
457.16827764
 20
329.87997507
  0
POINT
  8
2
 10
452.45766068
 20
349.68876953
  0
TEXT
  8
2
 10
452.45766068
 20
349.68876953
 40
10.00000000
 50
0.00000000
  1
# 67
  0
POINT
  8
2
 10
452.81703568
 20
355.86455078
  0
TEXT
  8
2
 10
452.81703568
 20
355.86455078
 40
10.00000000
 50
0.00000000
  1
# 68
  0
POINT
  8
2
 10
652.18812943
 20
357.01982422
  0
TEXT
  8
2
 10
652.18812943
 20
357.01982422
 40
10.00000000
 50
0.00000000
  1
# 69
  0
ENDBLK
  0
BLOCK
  8
1
  2
6
 70
64
 10
0.0
 20
0.0
  0
LINE
  8
7
 10
107.01606263
 20
1509.21454205
 11
424.41882174
 21
1509.21454205
  0
TEXT
  8
1
 10
0.00000000
 20
0.00000000
 40
20.00000000
 50
0.00000000
  1
Size: 46
  0
TEXT
  8
1
 10
265.71744218
 20
1524.21454205
 40
20.00000000
 50
0.00000000
  1
Piece Name: AKIL.PE
  0
TEXT
  8
1
 10
265.71744218
 20
1524.21454205
 40
20.00000000
 50
0.00000000
  1
Quantity: 1
  0
TEXT
  8
1
 10
265.71744218
 20
1524.21454205
 40
20.00000000
 50
0.00000000
  1
Rotation: 0
  0
TEXT
  8
1
 10
265.71744218
 20
1524.21454205
 40
20.00000000
 50
0.00000000
  1
Tilt: 0
  0
TEXT
  8
1
 10
265.71744218
 20
1524.21454205
 40
20.00000000
 50
0.00000000
  1
Fold: N
  0
TEXT
  8
1
 10
265.71744218
 20
1524.21454205
 40
20.00000000
 50
0.00000000
  1
Material: 1
  0
POLYLINE
  8
1
 66
1
 70
1
  0
VERTEX
  8
1
 10
738.26174101
 20
1357.91540875
  0
VERTEX
  8
1
 10
721.10737849
 20
1359.74938983
  0
VERTEX
  8
1
 10
703.98357073
 20
1361.78466653
  0
VERTEX
  8
1
 10
686.88795486
 20
1364.01650941
  0
VERTEX
  8
1
 10
669.81816801
 20
1366.44018903
  0
VERTEX
  8
1
 10
651.87363654
 20
1369.19751594
  0
VERTEX
  8
1
 10
633.96284212
 20
1372.17770635
  0
VERTEX
  8
1
 10
616.09351069
 20
1375.39622428
  0
VERTEX
  8
1
 10
598.27336820
 20
1378.86853375
  0
VERTEX
  8
1
 10
580.48766386
 20
1382.60036782
  0
VERTEX
  8
1
 10
562.74504931
 20
1386.53438702
  0
VERTEX
  8
1
 10
527.33330473
 20
1394.73840680
  0
VERTEX
  8
1
 10
490.50930818
 20
1403.43584178
  0
VERTEX
  8
1
 10
472.12730278
 20
1407.90773323
  0
VERTEX
  8
1
 10
453.78020414
 20
1412.52807965
  0
VERTEX
  8
1
 10
417.32416812
 20
1422.09430559
  0
VERTEX
  8
1
 10
399.07567489
 20
1426.77816760
  0
VERTEX
  8
1
 10
380.76604398
 20
1431.18567243
  0
VERTEX
  8
1
 10
362.16856186
 20
1435.23515400
  0
VERTEX
  8
1
 10
343.48431341
 20
1438.89471577
  0
VERTEX
  8
1
 10
324.72538459
 20
1442.21785279
  0
VERTEX
  8
1
 10
305.90386137
 20
1445.25806012
  0
VERTEX
  8
1
 10
289.96115485
 20
1446.90508486
  0
VERTEX
  8
1
 10
274.00905613
 20
1448.24701706
  0
VERTEX
  8
1
 10
258.04610044
 20
1449.22804623
  0
VERTEX
  8
1
 10
242.07082304
 20
1449.79236188
  0
VERTEX
  8
1
 10
226.15816749
 20
1449.92177381
  0
VERTEX
  8
1
 10
210.23621499
 20
1449.74922609
  0
VERTEX
  8
1
 10
178.38185819
 20
1449.16272321
  0
VERTEX
  8
1
 10
163.75516145
 20
1449.04688066
  0
VERTEX
  8
1
 10
149.13039534
 20
1449.04870131
  0
VERTEX
  8
1
 10
119.88161405
 20
1449.21326032
  0
VERTEX
  8
1
 10
119.80082728
 20
1466.77881741
  0
VERTEX
  8
1
 10
119.86769804
 20
1484.34338727
  0
VERTEX
  8
1
 10
120.12468148
 20
1504.38955170
  0
VERTEX
  8
1
 10
120.57265409
 20
1524.43237653
  0
VERTEX
  8
1
 10
121.81923612
 20
1559.64758649
  0
VERTEX
  8
1
 10
156.99330839
 20
1559.64673200
  0
VERTEX
  8
1
 10
349.73528227
 20
1559.64416852
  0
VERTEX
  8
1
 10
386.25115141
 20
1559.64343610
  0
VERTEX
  8
1
 10
389.12762198
 20
1543.69408816
  0
VERTEX
  8
1
 10
393.47401521
 20
1528.87118281
  0
VERTEX
  8
1
 10
396.25061001
 20
1521.89451839
  0
VERTEX
  8
1
 10
399.45729808
 20
1515.21431134
  0
VERTEX
  8
1
 10
403.11495030
 20
1508.83551057
  0
VERTEX
  8
1
 10
407.24443754
 20
1502.76306500
  0
VERTEX
  8
1
 10
413.13466700
 20
1495.54434680
  0
VERTEX
  8
1
 10
419.71575547
 20
1488.79872110
  0
VERTEX
  8
1
 10
426.89500024
 20
1482.50420620
  0
VERTEX
  8
1
 10
434.57969859
 20
1476.63882041
  0
VERTEX
  8
1
 10
451.09464522
 20
1466.10750930
  0
VERTEX
  8
1
 10
468.51897367
 20
1457.02893414
  0
VERTEX
  8
1
 10
486.03242555
 20
1449.29773647
  0
VERTEX
  8
1
 10
503.71003927
 20
1442.57474397
  0
VERTEX
  8
1
 10
521.55200789
 20
1436.62013684
  0
VERTEX
  8
1
 10
539.55852445
 20
1431.19409528
  0
VERTEX
  8
1
 10
557.63527449
 20
1426.13585526
  0
VERTEX
  8
1
 10
575.85745037
 20
1421.44894553
  0
VERTEX
  8
1
 10
594.20738497
 20
1417.21883919
  0
VERTEX
  8
1
 10
612.66741117
 20
1413.53100934
  0
VERTEX
  8
1
 10
631.17113420
 20
1410.43785914
  0
VERTEX
  8
1
 10
649.74272918
 20
1407.81385168
  0
VERTEX
  8
1
 10
668.35811657
 20
1405.50359273
  0
VERTEX
  8
1
 10
686.99321684
 20
1403.35168805
  0
VERTEX
  8
1
 10
720.77972998
 20
1399.56382527
  0
VERTEX
  8
1
 10
737.68462169
 20
1397.78335368
  0
VERTEX
  8
1
 10
754.60634550
 20
1396.13708844
  0
SEQEND
  0
POLYLINE
  8
84
 66
1
 70
1
  0
VERTEX
  8
84
 10
738.26174101
 20
1357.91540875
  0
VERTEX
  8
84
 10
721.10737849
 20
1359.74938983
  0
VERTEX
  8
84
 10
703.98357073
 20
1361.78466653
  0
VERTEX
  8
84
 10
686.88795486
 20
1364.01650941
  0
VERTEX
  8
84
 10
669.81816801
 20
1366.44018903
  0
VERTEX
  8
84
 10
651.87363654
 20
1369.19751594
  0
VERTEX
  8
84
 10
633.96284212
 20
1372.17770635
  0
VERTEX
  8
84
 10
616.09351069
 20
1375.39622428
  0
VERTEX
  8
84
 10
598.27336820
 20
1378.86853375
  0
VERTEX
  8
84
 10
580.48766386
 20
1382.60036782
  0
VERTEX
  8
84
 10
562.74504931
 20
1386.53438702
  0
VERTEX
  8
84
 10
527.33330473
 20
1394.73840680
  0
VERTEX
  8
84
 10
490.50930818
 20
1403.43584178
  0
VERTEX
  8
84
 10
472.12730278
 20
1407.90773323
  0
VERTEX
  8
84
 10
453.78020414
 20
1412.52807965
  0
VERTEX
  8
84
 10
417.32416812
 20
1422.09430559
  0
VERTEX
  8
84
 10
399.07567489
 20
1426.77816760
  0
VERTEX
  8
84
 10
380.76604398
 20
1431.18567243
  0
VERTEX
  8
84
 10
362.16856186
 20
1435.23515400
  0
VERTEX
  8
84
 10
343.48431341
 20
1438.89471577
  0
VERTEX
  8
84
 10
324.72538459
 20
1442.21785279
  0
VERTEX
  8
84
 10
305.90386137
 20
1445.25806012
  0
VERTEX
  8
84
 10
289.96115485
 20
1446.90508486
  0
VERTEX
  8
84
 10
274.00905613
 20
1448.24701706
  0
VERTEX
  8
84
 10
258.04610044
 20
1449.22804623
  0
VERTEX
  8
84
 10
242.07082304
 20
1449.79236188
  0
VERTEX
  8
84
 10
226.15816749
 20
1449.92177381
  0
VERTEX
  8
84
 10
210.23621499
 20
1449.74922609
  0
VERTEX
  8
84
 10
178.38185819
 20
1449.16272321
  0
VERTEX
  8
84
 10
163.75516145
 20
1449.04688066
  0
VERTEX
  8
84
 10
149.13039534
 20
1449.04870131
  0
VERTEX
  8
84
 10
119.88161405
 20
1449.21326032
  0
VERTEX
  8
84
 10
119.80082728
 20
1466.77881741
  0
VERTEX
  8
84
 10
119.86769804
 20
1484.34338727
  0
VERTEX
  8
84
 10
120.12468148
 20
1504.38955170
  0
VERTEX
  8
84
 10
120.57265409
 20
1524.43237653
  0
VERTEX
  8
84
 10
121.81923612
 20
1559.64758649
  0
VERTEX
  8
84
 10
156.99330839
 20
1559.64673200
  0
VERTEX
  8
84
 10
349.73528227
 20
1559.64416852
  0
VERTEX
  8
84
 10
386.25115141
 20
1559.64343610
  0
VERTEX
  8
84
 10
389.12762198
 20
1543.69408816
  0
VERTEX
  8
84
 10
393.47401521
 20
1528.87118281
  0
VERTEX
  8
84
 10
396.25061001
 20
1521.89451839
  0
VERTEX
  8
84
 10
399.45729808
 20
1515.21431134
  0
VERTEX
  8
84
 10
403.11495030
 20
1508.83551057
  0
VERTEX
  8
84
 10
407.24443754
 20
1502.76306500
  0
VERTEX
  8
84
 10
413.13466700
 20
1495.54434680
  0
VERTEX
  8
84
 10
419.71575547
 20
1488.79872110
  0
VERTEX
  8
84
 10
426.89500024
 20
1482.50420620
  0
VERTEX
  8
84
 10
434.57969859
 20
1476.63882041
  0
VERTEX
  8
84
 10
451.09464522
 20
1466.10750930
  0
VERTEX
  8
84
 10
468.51897367
 20
1457.02893414
  0
VERTEX
  8
84
 10
486.03242555
 20
1449.29773647
  0
VERTEX
  8
84
 10
503.71003927
 20
1442.57474397
  0
VERTEX
  8
84
 10
521.55200789
 20
1436.62013684
  0
VERTEX
  8
84
 10
539.55852445
 20
1431.19409528
  0
VERTEX
  8
84
 10
557.63527449
 20
1426.13585526
  0
VERTEX
  8
84
 10
575.85745037
 20
1421.44894553
  0
VERTEX
  8
84
 10
594.20738497
 20
1417.21883919
  0
VERTEX
  8
84
 10
612.66741117
 20
1413.53100934
  0
VERTEX
  8
84
 10
631.17113420
 20
1410.43785914
  0
VERTEX
  8
84
 10
649.74272918
 20
1407.81385168
  0
VERTEX
  8
84
 10
668.35811657
 20
1405.50359273
  0
VERTEX
  8
84
 10
686.99321684
 20
1403.35168805
  0
VERTEX
  8
84
 10
720.77972998
 20
1399.56382527
  0
VERTEX
  8
84
 10
737.68462169
 20
1397.78335368
  0
VERTEX
  8
84
 10
754.60634550
 20
1396.13708844
  0
SEQEND
  0
POINT
  8
2
 10
738.26174101
 20
1357.91540875
  0
TEXT
  8
2
 10
738.26174101
 20
1357.91540875
 40
10.00000000
 50
0.00000000
  1
# 70
  0
POINT
  8
3
 10
721.10737849
 20
1359.74938983
  0
POINT
  8
3
 10
703.98357073
 20
1361.78466653
  0
POINT
  8
3
 10
686.88795486
 20
1364.01650941
  0
POINT
  8
3
 10
669.81816801
 20
1366.44018903
  0
POINT
  8
3
 10
651.87363654
 20
1369.19751594
  0
POINT
  8
3
 10
633.96284212
 20
1372.17770635
  0
POINT
  8
3
 10
616.09351069
 20
1375.39622428
  0
POINT
  8
3
 10
598.27336820
 20
1378.86853375
  0
POINT
  8
3
 10
580.48766386
 20
1382.60036782
  0
POINT
  8
3
 10
562.74504931
 20
1386.53438702
  0
POINT
  8
3
 10
527.33330473
 20
1394.73840680
  0
POINT
  8
3
 10
490.50930818
 20
1403.43584178
  0
POINT
  8
3
 10
472.12730278
 20
1407.90773323
  0
POINT
  8
3
 10
453.78020414
 20
1412.52807965
  0
POINT
  8
3
 10
417.32416812
 20
1422.09430559
  0
POINT
  8
3
 10
399.07567489
 20
1426.77816760
  0
POINT
  8
3
 10
380.76604398
 20
1431.18567243
  0
POINT
  8
3
 10
362.16856186
 20
1435.23515400
  0
POINT
  8
3
 10
343.48431341
 20
1438.89471577
  0
POINT
  8
3
 10
324.72538459
 20
1442.21785279
  0
POINT
  8
2
 10
305.90386137
 20
1445.25806012
  0
TEXT
  8
2
 10
305.90386137
 20
1445.25806012
 40
10.00000000
 50
0.00000000
  1
# 71
  0
POINT
  8
3
 10
289.96115485
 20
1446.90508486
  0
POINT
  8
3
 10
274.00905613
 20
1448.24701706
  0
POINT
  8
3
 10
258.04610044
 20
1449.22804623
  0
POINT
  8
3
 10
242.07082304
 20
1449.79236188
  0
POINT
  8
3
 10
226.15816749
 20
1449.92177381
  0
POINT
  8
3
 10
210.23621499
 20
1449.74922609
  0
POINT
  8
3
 10
178.38185819
 20
1449.16272321
  0
POINT
  8
3
 10
163.75516145
 20
1449.04688066
  0
POINT
  8
3
 10
149.13039534
 20
1449.04870131
  0
POINT
  8
2
 10
119.88161405
 20
1449.21326032
  0
TEXT
  8
2
 10
119.88161405
 20
1449.21326032
 40
10.00000000
 50
0.00000000
  1
# 72
  0
POINT
  8
3
 10
119.80082728
 20
1466.77881741
  0
POINT
  8
3
 10
119.86769804
 20
1484.34338727
  0
POINT
  8
3
 10
120.12468148
 20
1504.38955170
  0
POINT
  8
3
 10
120.57265409
 20
1524.43237653
  0
POINT
  8
2
 10
121.81923612
 20
1559.64758649
  0
TEXT
  8
2
 10
121.81923612
 20
1559.64758649
 40
10.00000000
 50
0.00000000
  1
# 73
  0
POINT
  8
2
 10
156.99330839
 20
1559.64673200
  0
TEXT
  8
2
 10
156.99330839
 20
1559.64673200
 40
10.00000000
 50
0.00000000
  1
# 74
  0
POINT
  8
2
 10
349.73528227
 20
1559.64416852
  0
TEXT
  8
2
 10
349.73528227
 20
1559.64416852
 40
10.00000000
 50
0.00000000
  1
# 75
  0
POINT
  8
2
 10
386.25115141
 20
1559.64343610
  0
TEXT
  8
2
 10
386.25115141
 20
1559.64343610
 40
10.00000000
 50
0.00000000
  1
# 76
  0
POINT
  8
3
 10
389.12762198
 20
1543.69408816
  0
POINT
  8
3
 10
393.47401521
 20
1528.87118281
  0
POINT
  8
3
 10
396.25061001
 20
1521.89451839
  0
POINT
  8
3
 10
399.45729808
 20
1515.21431134
  0
POINT
  8
3
 10
403.11495030
 20
1508.83551057
  0
POINT
  8
3
 10
407.24443754
 20
1502.76306500
  0
POINT
  8
3
 10
413.13466700
 20
1495.54434680
  0
POINT
  8
3
 10
419.71575547
 20
1488.79872110
  0
POINT
  8
3
 10
426.89500024
 20
1482.50420620
  0
POINT
  8
3
 10
434.57969859
 20
1476.63882041
  0
POINT
  8
3
 10
451.09464522
 20
1466.10750930
  0
POINT
  8
3
 10
468.51897367
 20
1457.02893414
  0
POINT
  8
3
 10
486.03242555
 20
1449.29773647
  0
POINT
  8
3
 10
503.71003927
 20
1442.57474397
  0
POINT
  8
3
 10
521.55200789
 20
1436.62013684
  0
POINT
  8
3
 10
539.55852445
 20
1431.19409528
  0
POINT
  8
3
 10
557.63527449
 20
1426.13585526
  0
POINT
  8
3
 10
575.85745037
 20
1421.44894553
  0
POINT
  8
3
 10
594.20738497
 20
1417.21883919
  0
POINT
  8
3
 10
612.66741117
 20
1413.53100934
  0
POINT
  8
3
 10
631.17113420
 20
1410.43785914
  0
POINT
  8
3
 10
649.74272918
 20
1407.81385168
  0
POINT
  8
3
 10
668.35811657
 20
1405.50359273
  0
POINT
  8
3
 10
686.99321684
 20
1403.35168805
  0
POINT
  8
3
 10
720.77972998
 20
1399.56382527
  0
POINT
  8
3
 10
737.68462169
 20
1397.78335368
  0
POINT
  8
2
 10
754.60634550
 20
1396.13708844
  0
TEXT
  8
2
 10
754.60634550
 20
1396.13708844
 40
10.00000000
 50
0.00000000
  1
# 77
  0
ENDBLK
  0
BLOCK
  8
1
  2
7
 70
64
 10
0.0
 20
0.0
  0
LINE
  8
7
 10
130.83452082
 20
376.12993774
 11
164.23143244
 21
376.12993774
  0
TEXT
  8
1
 10
0.00000000
 20
0.00000000
 40
20.00000000
 50
0.00000000
  1
Size: 46
  0
TEXT
  8
1
 10
147.53297663
 20
379.87993774
 40
5.00000000
 50
0.00000000
  1
Piece Name: AKIL.TE
  0
TEXT
  8
1
 10
147.53297663
 20
379.87993774
 40
5.00000000
 50
0.00000000
  1
Quantity: 1
  0
TEXT
  8
1
 10
147.53297663
 20
379.87993774
 40
5.00000000
 50
0.00000000
  1
Rotation: 0
  0
TEXT
  8
1
 10
147.53297663
 20
379.87993774
 40
5.00000000
 50
0.00000000
  1
Tilt: 0
  0
TEXT
  8
1
 10
147.53297663
 20
379.87993774
 40
5.00000000
 50
0.00000000
  1
Fold: N
  0
TEXT
  8
1
 10
147.53297663
 20
379.87993774
 40
5.00000000
 50
0.00000000
  1
Material: 1
  0
POLYLINE
  8
1
 66
1
 70
1
  0
VERTEX
  8
1
 10
148.28838501
 20
213.21364746
  0
VERTEX
  8
1
 10
143.00269639
 20
245.67996926
  0
VERTEX
  8
1
 10
137.86675415
 20
278.17629395
  0
VERTEX
  8
1
 10
132.52915979
 20
312.21646810
  0
VERTEX
  8
1
 10
130.12637181
 20
329.26687862
  0
VERTEX
  8
1
 10
128.08452759
 20
346.35366211
  0
VERTEX
  8
1
 10
126.58189121
 20
362.57697827
  0
VERTEX
  8
1
 10
125.48453883
 20
378.84009368
  0
VERTEX
  8
1
 10
124.75056585
 20
395.13932070
  0
VERTEX
  8
1
 10
124.33806763
 20
411.47097168
  0
VERTEX
  8
1
 10
144.71880493
 20
411.65572510
  0
VERTEX
  8
1
 10
167.46050415
 20
412.13796387
  0
VERTEX
  8
1
 10
168.14284688
 20
395.96877611
  0
VERTEX
  8
1
 10
169.03264893
 20
379.81856248
  0
VERTEX
  8
1
 10
170.11385662
 20
363.68281639
  0
VERTEX
  8
1
 10
171.37041626
 20
347.55703125
  0
VERTEX
  8
1
 10
172.87900033
 20
330.56800388
  0
VERTEX
  8
1
 10
174.61718240
 20
313.59980218
  0
VERTEX
  8
1
 10
176.63756001
 20
296.66719133
  0
VERTEX
  8
1
 10
178.99273071
 20
279.78493652
  0
VERTEX
  8
1
 10
181.55237973
 20
263.95201699
  0
VERTEX
  8
1
 10
184.43935038
 20
248.17233693
  0
VERTEX
  8
1
 10
187.63780123
 20
232.44144935
  0
VERTEX
  8
1
 10
191.13189087
 20
216.75490723
  0
SEQEND
  0
POLYLINE
  8
84
 66
1
 70
1
  0
VERTEX
  8
84
 10
148.28838501
 20
213.21364746
  0
VERTEX
  8
84
 10
143.00269639
 20
245.67996926
  0
VERTEX
  8
84
 10
137.86675415
 20
278.17629395
  0
VERTEX
  8
84
 10
132.52915979
 20
312.21646810
  0
VERTEX
  8
84
 10
130.12637181
 20
329.26687862
  0
VERTEX
  8
84
 10
128.08452759
 20
346.35366211
  0
VERTEX
  8
84
 10
126.58189121
 20
362.57697827
  0
VERTEX
  8
84
 10
125.48453883
 20
378.84009368
  0
VERTEX
  8
84
 10
124.75056585
 20
395.13932070
  0
VERTEX
  8
84
 10
124.33806763
 20
411.47097168
  0
VERTEX
  8
84
 10
144.71880493
 20
411.65572510
  0
VERTEX
  8
84
 10
167.46050415
 20
412.13796387
  0
VERTEX
  8
84
 10
168.14284688
 20
395.96877611
  0
VERTEX
  8
84
 10
169.03264893
 20
379.81856248
  0
VERTEX
  8
84
 10
170.11385662
 20
363.68281639
  0
VERTEX
  8
84
 10
171.37041626
 20
347.55703125
  0
VERTEX
  8
84
 10
172.87900033
 20
330.56800388
  0
VERTEX
  8
84
 10
174.61718240
 20
313.59980218
  0
VERTEX
  8
84
 10
176.63756001
 20
296.66719133
  0
VERTEX
  8
84
 10
178.99273071
 20
279.78493652
  0
VERTEX
  8
84
 10
181.55237973
 20
263.95201699
  0
VERTEX
  8
84
 10
184.43935038
 20
248.17233693
  0
VERTEX
  8
84
 10
187.63780123
 20
232.44144935
  0
VERTEX
  8
84
 10
191.13189087
 20
216.75490723
  0
SEQEND
  0
POINT
  8
2
 10
148.28838501
 20
213.21364746
  0
TEXT
  8
2
 10
148.28838501
 20
213.21364746
 40
10.00000000
 50
0.00000000
  1
# 78
  0
POINT
  8
3
 10
143.00269639
 20
245.67996926
  0
POINT
  8
3
 10
137.86675415
 20
278.17629395
  0
POINT
  8
3
 10
132.52915979
 20
312.21646810
  0
POINT
  8
3
 10
130.12637181
 20
329.26687862
  0
POINT
  8
3
 10
128.08452759
 20
346.35366211
  0
POINT
  8
3
 10
126.58189121
 20
362.57697827
  0
POINT
  8
3
 10
125.48453883
 20
378.84009368
  0
POINT
  8
3
 10
124.75056585
 20
395.13932070
  0
POINT
  8
2
 10
124.33806763
 20
411.47097168
  0
TEXT
  8
2
 10
124.33806763
 20
411.47097168
 40
10.00000000
 50
0.00000000
  1
# 79
  0
POINT
  8
2
 10
144.71880493
 20
411.65572510
  0
TEXT
  8
2
 10
144.71880493
 20
411.65572510
 40
10.00000000
 50
0.00000000
  1
# 80
  0
POINT
  8
2
 10
167.46050415
 20
412.13796387
  0
TEXT
  8
2
 10
167.46050415
 20
412.13796387
 40
10.00000000
 50
0.00000000
  1
# 81
  0
POINT
  8
3
 10
168.14284688
 20
395.96877611
  0
POINT
  8
3
 10
169.03264893
 20
379.81856248
  0
POINT
  8
3
 10
170.11385662
 20
363.68281639
  0
POINT
  8
3
 10
171.37041626
 20
347.55703125
  0
POINT
  8
3
 10
172.87900033
 20
330.56800388
  0
POINT
  8
3
 10
174.61718240
 20
313.59980218
  0
POINT
  8
3
 10
176.63756001
 20
296.66719133
  0
POINT
  8
3
 10
178.99273071
 20
279.78493652
  0
POINT
  8
3
 10
181.55237973
 20
263.95201699
  0
POINT
  8
3
 10
184.43935038
 20
248.17233693
  0
POINT
  8
3
 10
187.63780123
 20
232.44144935
  0
POINT
  8
2
 10
191.13189087
 20
216.75490723
  0
TEXT
  8
2
 10
191.13189087
 20
216.75490723
 40
10.00000000
 50
0.00000000
  1
# 82
  0
POINT
  8
13
 10
146.81621704
 20
367.26790771
  0
TEXT
  8
13
 10
146.81621704
 20
367.26790771
 40
10.00000000
 50
0.00000000
  1
# 83
  0
POINT
  8
13
 10
155.42705688
 20
279.83449707
  0
TEXT
  8
13
 10
155.42705688
 20
279.83449707
 40
10.00000000
 50
0.00000000
  1
# 84
  0
ENDBLK
  0
BLOCK
  8
1
  2
8
 70
64
 10
0.0
 20
0.0
  0
LINE
  8
7
 10
63.25169434
 20
1261.85591369
 11
138.25083984
 21
1261.85591369
  0
TEXT
  8
1
 10
0.00000000
 20
0.00000000
 40
5.00000000
 50
0.00000000
  1
Size: 46
  0
TEXT
  8
1
 10
100.75126709
 20
1265.60591369
 40
5.00000000
 50
0.00000000
  1
Piece Name: AKIL.VG
  0
TEXT
  8
1
 10
100.75126709
 20
1265.60591369
 40
5.00000000
 50
0.00000000
  1
Quantity: 1
  0
TEXT
  8
1
 10
100.75126709
 20
1265.60591369
 40
5.00000000
 50
0.00000000
  1
Rotation: 0
  0
TEXT
  8
1
 10
100.75126709
 20
1265.60591369
 40
5.00000000
 50
0.00000000
  1
Tilt: 0
  0
TEXT
  8
1
 10
100.75126709
 20
1265.60591369
 40
5.00000000
 50
0.00000000
  1
Fold: N
  0
TEXT
  8
1
 10
100.75126709
 20
1265.60591369
 40
5.00000000
 50
0.00000000
  1
Material: 1
  0
POLYLINE
  8
1
 66
1
 70
1
  0
VERTEX
  8
1
 10
25.74974365
 20
1278.11195617
  0
VERTEX
  8
1
 10
175.74803467
 20
1278.11195617
  0
VERTEX
  8
1
 10
175.74803467
 20
1213.08778624
  0
VERTEX
  8
1
 10
25.74974365
 20
1213.08778624
  0
SEQEND
  0
POLYLINE
  8
84
 66
1
 70
1
  0
VERTEX
  8
84
 10
25.74974365
 20
1278.11195617
  0
VERTEX
  8
84
 10
175.74803467
 20
1278.11195617
  0
VERTEX
  8
84
 10
175.74803467
 20
1213.08778624
  0
VERTEX
  8
84
 10
25.74974365
 20
1213.08778624
  0
SEQEND
  0
POINT
  8
2
 10
25.74974365
 20
1278.11195617
  0
TEXT
  8
2
 10
25.74974365
 20
1278.11195617
 40
10.00000000
 50
0.00000000
  1
# 85
  0
POINT
  8
2
 10
175.74803467
 20
1278.11195617
  0
TEXT
  8
2
 10
175.74803467
 20
1278.11195617
 40
10.00000000
 50
0.00000000
  1
# 86
  0
POINT
  8
2
 10
175.74803467
 20
1213.08778624
  0
TEXT
  8
2
 10
175.74803467
 20
1213.08778624
 40
10.00000000
 50
0.00000000
  1
# 87
  0
POINT
  8
2
 10
25.74974365
 20
1213.08778624
  0
TEXT
  8
2
 10
25.74974365
 20
1213.08778624
 40
10.00000000
 50
0.00000000
  1
# 88
  0
ENDBLK
  0
BLOCK
  8
1
  2
9
 70
64
 10
0.0
 20
0.0
  0
LINE
  8
7
 10
105.09487545
 20
648.76282959
 11
226.09109127
 21
648.76282959
  0
TEXT
  8
1
 10
0.00000000
 20
0.00000000
 40
5.00000000
 50
0.00000000
  1
Size: 46
  0
TEXT
  8
1
 10
165.59298336
 20
656.26282959
 40
10.00000000
 50
0.00000000
  1
Piece Name: AKIL.PRE
  0
TEXT
  8
1
 10
165.59298336
 20
656.26282959
 40
10.00000000
 50
0.00000000
  1
Quantity: 1
  0
TEXT
  8
1
 10
165.59298336
 20
656.26282959
 40
10.00000000
 50
0.00000000
  1
Rotation: 0
  0
TEXT
  8
1
 10
165.59298336
 20
656.26282959
 40
10.00000000
 50
0.00000000
  1
Tilt: 0
  0
TEXT
  8
1
 10
165.59298336
 20
656.26282959
 40
10.00000000
 50
0.00000000
  1
Fold: N
  0
TEXT
  8
1
 10
165.59298336
 20
656.26282959
 40
10.00000000
 50
0.00000000
  1
Material: 1
  0
POLYLINE
  8
1
 66
1
 70
1
  0
VERTEX
  8
1
 10
59.81693115
 20
623.15957642
  0
VERTEX
  8
1
 10
42.79886475
 20
652.11550903
  0
VERTEX
  8
1
 10
59.56278076
 20
680.05569458
  0
VERTEX
  8
1
 10
269.79129639
 20
680.05569458
  0
VERTEX
  8
1
 10
276.98367920
 20
671.71597290
  0
VERTEX
  8
1
 10
280.19437815
 20
667.18848253
  0
VERTEX
  8
1
 10
282.76053467
 20
662.35049438
  0
VERTEX
  8
1
 10
284.26711934
 20
657.16248032
  0
VERTEX
  8
1
 10
284.79129639
 20
651.60574341
  0
VERTEX
  8
1
 10
284.29323199
 20
646.03684543
  0
VERTEX
  8
1
 10
282.78763428
 20
640.84890747
  0
VERTEX
  8
1
 10
280.19215628
 20
636.02438844
  0
VERTEX
  8
1
 10
276.95072021
 20
631.50894165
  0
VERTEX
  8
1
 10
269.79129639
 20
623.15957642
  0
SEQEND
  0
POLYLINE
  8
84
 66
1
 70
1
  0
VERTEX
  8
84
 10
59.81693115
 20
623.15957642
  0
VERTEX
  8
84
 10
42.79886475
 20
652.11550903
  0
VERTEX
  8
84
 10
59.56278076
 20
680.05569458
  0
VERTEX
  8
84
 10
269.79129639
 20
680.05569458
  0
VERTEX
  8
84
 10
276.98367920
 20
671.71597290
  0
VERTEX
  8
84
 10
280.19437815
 20
667.18848253
  0
VERTEX
  8
84
 10
282.76053467
 20
662.35049438
  0
VERTEX
  8
84
 10
284.26711934
 20
657.16248032
  0
VERTEX
  8
84
 10
284.79129639
 20
651.60574341
  0
VERTEX
  8
84
 10
284.29323199
 20
646.03684543
  0
VERTEX
  8
84
 10
282.78763428
 20
640.84890747
  0
VERTEX
  8
84
 10
280.19215628
 20
636.02438844
  0
VERTEX
  8
84
 10
276.95072021
 20
631.50894165
  0
VERTEX
  8
84
 10
269.79129639
 20
623.15957642
  0
SEQEND
  0
POINT
  8
2
 10
59.81693115
 20
623.15957642
  0
TEXT
  8
2
 10
59.81693115
 20
623.15957642
 40
10.00000000
 50
0.00000000
  1
# 89
  0
POINT
  8
2
 10
42.79886475
 20
652.11550903
  0
TEXT
  8
2
 10
42.79886475
 20
652.11550903
 40
10.00000000
 50
0.00000000
  1
# 90
  0
POINT
  8
2
 10
59.56278076
 20
680.05569458
  0
TEXT
  8
2
 10
59.56278076
 20
680.05569458
 40
10.00000000
 50
0.00000000
  1
# 91
  0
POINT
  8
2
 10
269.79129639
 20
680.05569458
  0
TEXT
  8
2
 10
269.79129639
 20
680.05569458
 40
10.00000000
 50
0.00000000
  1
# 92
  0
POINT
  8
3
 10
276.98367920
 20
671.71597290
  0
POINT
  8
3
 10
280.19437815
 20
667.18848253
  0
POINT
  8
3
 10
282.76053467
 20
662.35049438
  0
POINT
  8
3
 10
284.26711934
 20
657.16248032
  0
POINT
  8
2
 10
284.79129639
 20
651.60574341
  0
TEXT
  8
2
 10
284.79129639
 20
651.60574341
 40
10.00000000
 50
0.00000000
  1
# 93
  0
POINT
  8
3
 10
284.29323199
 20
646.03684543
  0
POINT
  8
3
 10
282.78763428
 20
640.84890747
  0
POINT
  8
3
 10
280.19215628
 20
636.02438844
  0
POINT
  8
3
 10
276.95072021
 20
631.50894165
  0
POINT
  8
2
 10
269.79129639
 20
623.15957642
  0
TEXT
  8
2
 10
269.79129639
 20
623.15957642
 40
10.00000000
 50
0.00000000
  1
# 94
  0
ENDBLK
  0
BLOCK
  8
1
  2
10
 70
64
 10
0.0
 20
0.0
  0
LINE
  8
7
 10
1243.00539223
 20
897.06389160
 11
1565.82620827
 21
897.06389160
  0
TEXT
  8
1
 10
0.00000000
 20
0.00000000
 40
10.00000000
 50
0.00000000
  1
Size: 46
  0
TEXT
  8
1
 10
1404.41580025
 20
912.06389160
 40
20.00000000
 50
0.00000000
  1
Piece Name: AKIL.TRC
  0
TEXT
  8
1
 10
1404.41580025
 20
912.06389160
 40
20.00000000
 50
0.00000000
  1
Quantity: 1
  0
TEXT
  8
1
 10
1404.41580025
 20
912.06389160
 40
20.00000000
 50
0.00000000
  1
Rotation: 0
  0
TEXT
  8
1
 10
1404.41580025
 20
912.06389160
 40
20.00000000
 50
0.00000000
  1
Tilt: 0
  0
TEXT
  8
1
 10
1404.41580025
 20
912.06389160
 40
20.00000000
 50
0.00000000
  1
Fold: N
  0
TEXT
  8
1
 10
1404.41580025
 20
912.06389160
 40
20.00000000
 50
0.00000000
  1
Material: 1
  0
POLYLINE
  8
1
 66
1
 70
1
  0
VERTEX
  8
1
 10
1345.40220985
 20
903.23785400
  0
VERTEX
  8
1
 10
1236.39342079
 20
906.67016602
  0
VERTEX
  8
1
 10
1093.30498085
 20
906.87054443
  0
VERTEX
  8
1
 10
1093.30742226
 20
1039.05572510
  0
VERTEX
  8
1
 10
1100.76547490
 20
1038.25488956
  0
VERTEX
  8
1
 10
1115.69633422
 20
1036.81968087
  0
VERTEX
  8
1
 10
1130.64702591
 20
1035.60641019
  0
VERTEX
  8
1
 10
1138.12974892
 20
1035.08300781
  0
VERTEX
  8
1
 10
1148.72345691
 20
1034.43772485
  0
VERTEX
  8
1
 10
1169.92368676
 20
1033.48232903
  0
VERTEX
  8
1
 10
1185.53341754
 20
1033.06474118
  0
VERTEX
  8
1
 10
1201.15239790
 20
1032.88909260
  0
VERTEX
  8
1
 10
1216.78062782
 20
1032.95538330
  0
VERTEX
  8
1
 10
1233.66244567
 20
1033.58104361
  0
VERTEX
  8
1
 10
1250.53479178
 20
1034.34637768
  0
VERTEX
  8
1
 10
1267.39834203
 20
1035.25160274
  0
VERTEX
  8
1
 10
1284.25377235
 20
1036.29693604
  0
VERTEX
  8
1
 10
1301.10167340
 20
1037.48247721
  0
VERTEX
  8
1
 10
1317.94010229
 20
1038.80769821
  0
VERTEX
  8
1
 10
1334.76703126
 20
1040.27194731
  0
VERTEX
  8
1
 10
1351.58043251
 20
1041.87457275
  0
VERTEX
  8
1
 10
1368.37831999
 20
1043.61502359
  0
VERTEX
  8
1
 10
1385.16132863
 20
1045.49340958
  0
VERTEX
  8
1
 10
1401.93013432
 20
1047.50994796
  0
VERTEX
  8
1
 10
1418.68541298
 20
1049.66485596
  0
VERTEX
  8
1
 10
1421.10706310
 20
1040.16318657
  0
VERTEX
  8
1
 10
1424.12110287
 20
1030.98804446
  0
VERTEX
  8
1
 10
1427.71722445
 20
1022.09854321
  0
VERTEX
  8
1
 10
1431.88512001
 20
1013.45379639
  0
VERTEX
  8
1
 10
1436.61625602
 20
1005.04860139
  0
VERTEX
  8
1
 10
1441.93858970
 20
996.96931235
  0
VERTEX
  8
1
 10
1447.88299224
 20
989.33838106
  0
VERTEX
  8
1
 10
1454.48033485
 20
982.27825928
  0
VERTEX
  8
1
 10
1461.71678835
 20
975.90446783
  0
VERTEX
  8
1
 10
1469.51402684
 20
970.20777846
  0
VERTEX
  8
1
 10
1477.75254541
 20
965.17560195
  0
VERTEX
  8
1
 10
1486.31283913
 20
960.79534912
  0
VERTEX
  8
1
 10
1495.19045432
 20
957.02325790
  0
VERTEX
  8
1
 10
1504.31488131
 20
953.90755079
  0
VERTEX
  8
1
 10
1513.72661729
 20
951.45249394
  0
VERTEX
  8
1
 10
1523.46615944
 20
949.66235352
  0
VERTEX
  8
1
 10
1537.42574204
 20
947.33003260
  0
VERTEX
  8
1
 10
1551.39029118
 20
945.59334291
  0
VERTEX
  8
1
 10
1565.38057123
 20
944.43008369
  0
VERTEX
  8
1
 10
1579.41734657
 20
943.81805420
  0
VERTEX
  8
1
 10
1593.54214817
 20
943.75035524
  0
VERTEX
  8
1
 10
1607.67199172
 20
944.28115706
  0
VERTEX
  8
1
 10
1621.74432928
 20
945.47733433
  0
VERTEX
  8
1
 10
1635.69661293
 20
947.40576172
  0
VERTEX
  8
1
 10
1649.37292747
 20
950.09412031
  0
VERTEX
  8
1
 10
1662.89006710
 20
953.54713345
  0
VERTEX
  8
1
 10
1676.26860953
 20
957.74279995
  0
VERTEX
  8
1
 10
1689.52913246
 20
962.65911865
  0
VERTEX
  8
1
 10
1694.73081844
 20
949.87171750
  0
VERTEX
  8
1
 10
1700.27376137
 20
937.23803711
  0
VERTEX
  8
1
 10
1706.16464041
 20
924.75952708
  0
VERTEX
  8
1
 10
1712.35725746
 20
912.42492676
  0
VERTEX
  8
1
 10
1718.79051459
 20
900.21488406
  0
VERTEX
  8
1
 10
1725.39339027
 20
888.09661865
  0
VERTEX
  8
1
 10
1732.10923428
 20
876.04098867
  0
VERTEX
  8
1
 10
1738.94612465
 20
864.05218506
  0
VERTEX
  8
1
 10
1732.30467215
 20
856.74878390
  0
VERTEX
  8
1
 10
1726.84700356
 20
848.73394775
  0
VERTEX
  8
1
 10
1722.58034981
 20
839.88828792
  0
VERTEX
  8
1
 10
1719.28010902
 20
830.55303955
  0
VERTEX
  8
1
 10
1716.69822388
 20
821.07555926
  0
VERTEX
  8
1
 10
1714.94075356
 20
811.45880127
  0
VERTEX
  8
1
 10
1713.75423012
 20
791.85260010
  0
VERTEX
  8
1
 10
1713.30842934
 20
772.20855713
  0
VERTEX
  8
1
 10
1152.97056923
 20
772.21124268
  0
VERTEX
  8
1
 10
1093.30937538
 20
783.26885986
  0
VERTEX
  8
1
 10
1093.30449257
 20
899.31158447
  0
VERTEX
  8
1
 10
1236.39195595
 20
900.19348145
  0
SEQEND
  0
POLYLINE
  8
84
 66
1
 70
1
  0
VERTEX
  8
84
 10
1345.40220985
 20
903.23785400
  0
VERTEX
  8
84
 10
1236.39342079
 20
906.67016602
  0
VERTEX
  8
84
 10
1093.30498085
 20
906.87054443
  0
VERTEX
  8
84
 10
1093.30742226
 20
1039.05572510
  0
VERTEX
  8
84
 10
1100.76547490
 20
1038.25488956
  0
VERTEX
  8
84
 10
1115.69633422
 20
1036.81968087
  0
VERTEX
  8
84
 10
1130.64702591
 20
1035.60641019
  0
VERTEX
  8
84
 10
1138.12974892
 20
1035.08300781
  0
VERTEX
  8
84
 10
1148.72345691
 20
1034.43772485
  0
VERTEX
  8
84
 10
1169.92368676
 20
1033.48232903
  0
VERTEX
  8
84
 10
1185.53341754
 20
1033.06474118
  0
VERTEX
  8
84
 10
1201.15239790
 20
1032.88909260
  0
VERTEX
  8
84
 10
1216.78062782
 20
1032.95538330
  0
VERTEX
  8
84
 10
1233.66244567
 20
1033.58104361
  0
VERTEX
  8
84
 10
1250.53479178
 20
1034.34637768
  0
VERTEX
  8
84
 10
1267.39834203
 20
1035.25160274
  0
VERTEX
  8
84
 10
1284.25377235
 20
1036.29693604
  0
VERTEX
  8
84
 10
1301.10167340
 20
1037.48247721
  0
VERTEX
  8
84
 10
1317.94010229
 20
1038.80769821
  0
VERTEX
  8
84
 10
1334.76703126
 20
1040.27194731
  0
VERTEX
  8
84
 10
1351.58043251
 20
1041.87457275
  0
VERTEX
  8
84
 10
1368.37831999
 20
1043.61502359
  0
VERTEX
  8
84
 10
1385.16132863
 20
1045.49340958
  0
VERTEX
  8
84
 10
1401.93013432
 20
1047.50994796
  0
VERTEX
  8
84
 10
1418.68541298
 20
1049.66485596
  0
VERTEX
  8
84
 10
1421.10706310
 20
1040.16318657
  0
VERTEX
  8
84
 10
1424.12110287
 20
1030.98804446
  0
VERTEX
  8
84
 10
1427.71722445
 20
1022.09854321
  0
VERTEX
  8
84
 10
1431.88512001
 20
1013.45379639
  0
VERTEX
  8
84
 10
1436.61625602
 20
1005.04860139
  0
VERTEX
  8
84
 10
1441.93858970
 20
996.96931235
  0
VERTEX
  8
84
 10
1447.88299224
 20
989.33838106
  0
VERTEX
  8
84
 10
1454.48033485
 20
982.27825928
  0
VERTEX
  8
84
 10
1461.71678835
 20
975.90446783
  0
VERTEX
  8
84
 10
1469.51402684
 20
970.20777846
  0
VERTEX
  8
84
 10
1477.75254541
 20
965.17560195
  0
VERTEX
  8
84
 10
1486.31283913
 20
960.79534912
  0
VERTEX
  8
84
 10
1495.19045432
 20
957.02325790
  0
VERTEX
  8
84
 10
1504.31488131
 20
953.90755079
  0
VERTEX
  8
84
 10
1513.72661729
 20
951.45249394
  0
VERTEX
  8
84
 10
1523.46615944
 20
949.66235352
  0
VERTEX
  8
84
 10
1537.42574204
 20
947.33003260
  0
VERTEX
  8
84
 10
1551.39029118
 20
945.59334291
  0
VERTEX
  8
84
 10
1565.38057123
 20
944.43008369
  0
VERTEX
  8
84
 10
1579.41734657
 20
943.81805420
  0
VERTEX
  8
84
 10
1593.54214817
 20
943.75035524
  0
VERTEX
  8
84
 10
1607.67199172
 20
944.28115706
  0
VERTEX
  8
84
 10
1621.74432928
 20
945.47733433
  0
VERTEX
  8
84
 10
1635.69661293
 20
947.40576172
  0
VERTEX
  8
84
 10
1649.37292747
 20
950.09412031
  0
VERTEX
  8
84
 10
1662.89006710
 20
953.54713345
  0
VERTEX
  8
84
 10
1676.26860953
 20
957.74279995
  0
VERTEX
  8
84
 10
1689.52913246
 20
962.65911865
  0
VERTEX
  8
84
 10
1694.73081844
 20
949.87171750
  0
VERTEX
  8
84
 10
1700.27376137
 20
937.23803711
  0
VERTEX
  8
84
 10
1706.16464041
 20
924.75952708
  0
VERTEX
  8
84
 10
1712.35725746
 20
912.42492676
  0
VERTEX
  8
84
 10
1718.79051459
 20
900.21488406
  0
VERTEX
  8
84
 10
1725.39339027
 20
888.09661865
  0
VERTEX
  8
84
 10
1732.10923428
 20
876.04098867
  0
VERTEX
  8
84
 10
1738.94612465
 20
864.05218506
  0
VERTEX
  8
84
 10
1732.30467215
 20
856.74878390
  0
VERTEX
  8
84
 10
1726.84700356
 20
848.73394775
  0
VERTEX
  8
84
 10
1722.58034981
 20
839.88828792
  0
VERTEX
  8
84
 10
1719.28010902
 20
830.55303955
  0
VERTEX
  8
84
 10
1716.69822388
 20
821.07555926
  0
VERTEX
  8
84
 10
1714.94075356
 20
811.45880127
  0
VERTEX
  8
84
 10
1713.75423012
 20
791.85260010
  0
VERTEX
  8
84
 10
1713.30842934
 20
772.20855713
  0
VERTEX
  8
84
 10
1152.97056923
 20
772.21124268
  0
VERTEX
  8
84
 10
1093.30937538
 20
783.26885986
  0
VERTEX
  8
84
 10
1093.30449257
 20
899.31158447
  0
VERTEX
  8
84
 10
1236.39195595
 20
900.19348145
  0
SEQEND
  0
POINT
  8
2
 10
1345.40220985
 20
903.23785400
  0
TEXT
  8
2
 10
1345.40220985
 20
903.23785400
 40
10.00000000
 50
0.00000000
  1
# 95
  0
POINT
  8
2
 10
1236.39342079
 20
906.67016602
  0
TEXT
  8
2
 10
1236.39342079
 20
906.67016602
 40
10.00000000
 50
0.00000000
  1
# 96
  0
POINT
  8
2
 10
1093.30498085
 20
906.87054443
  0
TEXT
  8
2
 10
1093.30498085
 20
906.87054443
 40
10.00000000
 50
0.00000000
  1
# 97
  0
POINT
  8
2
 10
1093.30742226
 20
1039.05572510
  0
TEXT
  8
2
 10
1093.30742226
 20
1039.05572510
 40
10.00000000
 50
0.00000000
  1
# 98
  0
POINT
  8
3
 10
1100.76547490
 20
1038.25488956
  0
POINT
  8
3
 10
1115.69633422
 20
1036.81968087
  0
POINT
  8
3
 10
1130.64702591
 20
1035.60641019
  0
POINT
  8
2
 10
1138.12974892
 20
1035.08300781
  0
TEXT
  8
2
 10
1138.12974892
 20
1035.08300781
 40
10.00000000
 50
0.00000000
  1
# 99
  0
POINT
  8
3
 10
1148.72345691
 20
1034.43772485
  0
POINT
  8
3
 10
1169.92368676
 20
1033.48232903
  0
POINT
  8
3
 10
1185.53341754
 20
1033.06474118
  0
POINT
  8
3
 10
1201.15239790
 20
1032.88909260
  0
POINT
  8
2
 10
1216.78062782
 20
1032.95538330
  0
TEXT
  8
2
 10
1216.78062782
 20
1032.95538330
 40
10.00000000
 50
0.00000000
  1
# 100
  0
POINT
  8
3
 10
1233.66244567
 20
1033.58104361
  0
POINT
  8
3
 10
1250.53479178
 20
1034.34637768
  0
POINT
  8
3
 10
1267.39834203
 20
1035.25160274
  0
POINT
  8
3
 10
1284.25377235
 20
1036.29693604
  0
POINT
  8
3
 10
1301.10167340
 20
1037.48247721
  0
POINT
  8
3
 10
1317.94010229
 20
1038.80769821
  0
POINT
  8
3
 10
1334.76703126
 20
1040.27194731
  0
POINT
  8
3
 10
1351.58043251
 20
1041.87457275
  0
POINT
  8
3
 10
1368.37831999
 20
1043.61502359
  0
POINT
  8
3
 10
1385.16132863
 20
1045.49340958
  0
POINT
  8
3
 10
1401.93013432
 20
1047.50994796
  0
POINT
  8
2
 10
1418.68541298
 20
1049.66485596
  0
TEXT
  8
2
 10
1418.68541298
 20
1049.66485596
 40
10.00000000
 50
0.00000000
  1
# 101
  0
POINT
  8
3
 10
1421.10706310
 20
1040.16318657
  0
POINT
  8
3
 10
1424.12110287
 20
1030.98804446
  0
POINT
  8
3
 10
1427.71722445
 20
1022.09854321
  0
POINT
  8
3
 10
1431.88512001
 20
1013.45379639
  0
POINT
  8
3
 10
1436.61625602
 20
1005.04860139
  0
POINT
  8
3
 10
1441.93858970
 20
996.96931235
  0
POINT
  8
3
 10
1447.88299224
 20
989.33838106
  0
POINT
  8
3
 10
1454.48033485
 20
982.27825928
  0
POINT
  8
3
 10
1461.71678835
 20
975.90446783
  0
POINT
  8
3
 10
1469.51402684
 20
970.20777846
  0
POINT
  8
3
 10
1477.75254541
 20
965.17560195
  0
POINT
  8
3
 10
1486.31283913
 20
960.79534912
  0
POINT
  8
3
 10
1495.19045432
 20
957.02325790
  0
POINT
  8
3
 10
1504.31488131
 20
953.90755079
  0
POINT
  8
3
 10
1513.72661729
 20
951.45249394
  0
POINT
  8
2
 10
1523.46615944
 20
949.66235352
  0
TEXT
  8
2
 10
1523.46615944
 20
949.66235352
 40
10.00000000
 50
0.00000000
  1
# 102
  0
POINT
  8
3
 10
1537.42574204
 20
947.33003260
  0
POINT
  8
3
 10
1551.39029118
 20
945.59334291
  0
POINT
  8
3
 10
1565.38057123
 20
944.43008369
  0
POINT
  8
3
 10
1579.41734657
 20
943.81805420
  0
POINT
  8
3
 10
1593.54214817
 20
943.75035524
  0
POINT
  8
3
 10
1607.67199172
 20
944.28115706
  0
POINT
  8
3
 10
1621.74432928
 20
945.47733433
  0
POINT
  8
3
 10
1635.69661293
 20
947.40576172
  0
POINT
  8
3
 10
1649.37292747
 20
950.09412031
  0
POINT
  8
3
 10
1662.89006710
 20
953.54713345
  0
POINT
  8
3
 10
1676.26860953
 20
957.74279995
  0
POINT
  8
2
 10
1689.52913246
 20
962.65911865
  0
TEXT
  8
2
 10
1689.52913246
 20
962.65911865
 40
10.00000000
 50
0.00000000
  1
# 103
  0
POINT
  8
3
 10
1694.73081844
 20
949.87171750
  0
POINT
  8
3
 10
1700.27376137
 20
937.23803711
  0
POINT
  8
3
 10
1706.16464041
 20
924.75952708
  0
POINT
  8
3
 10
1712.35725746
 20
912.42492676
  0
POINT
  8
3
 10
1718.79051459
 20
900.21488406
  0
POINT
  8
3
 10
1725.39339027
 20
888.09661865
  0
POINT
  8
3
 10
1732.10923428
 20
876.04098867
  0
POINT
  8
2
 10
1738.94612465
 20
864.05218506
  0
TEXT
  8
2
 10
1738.94612465
 20
864.05218506
 40
10.00000000
 50
0.00000000
  1
# 104
  0
POINT
  8
3
 10
1732.30467215
 20
856.74878390
  0
POINT
  8
3
 10
1726.84700356
 20
848.73394775
  0
POINT
  8
3
 10
1722.58034981
 20
839.88828792
  0
POINT
  8
3
 10
1719.28010902
 20
830.55303955
  0
POINT
  8
3
 10
1716.69822388
 20
821.07555926
  0
POINT
  8
3
 10
1714.94075356
 20
811.45880127
  0
POINT
  8
3
 10
1713.75423012
 20
791.85260010
  0
POINT
  8
2
 10
1713.30842934
 20
772.20855713
  0
TEXT
  8
2
 10
1713.30842934
 20
772.20855713
 40
10.00000000
 50
0.00000000
  1
# 105
  0
POINT
  8
2
 10
1152.97056923
 20
772.21124268
  0
TEXT
  8
2
 10
1152.97056923
 20
772.21124268
 40
10.00000000
 50
0.00000000
  1
# 106
  0
POINT
  8
2
 10
1093.30937538
 20
783.26885986
  0
TEXT
  8
2
 10
1093.30937538
 20
783.26885986
 40
10.00000000
 50
0.00000000
  1
# 107
  0
POINT
  8
2
 10
1093.30449257
 20
899.31158447
  0
TEXT
  8
2
 10
1093.30449257
 20
899.31158447
 40
10.00000000
 50
0.00000000
  1
# 108
  0
POINT
  8
2
 10
1236.39195595
 20
900.19348145
  0
TEXT
  8
2
 10
1236.39195595
 20
900.19348145
 40
10.00000000
 50
0.00000000
  1
# 109
  0
POINT
  8
4
 10
1236.39342079
 20
906.67016602
 30
7.50000000
 50
449.05815640
  0
TEXT
  8
1
 10
1236.39342079
 20
906.67016602
 40
10.00000000
 50
0.00000000
  1
# 110
  0
POINT
  8
4
 10
1138.12974892
 20
1035.08300781
 30
7.50000000
 50
266.25654841
  0
TEXT
  8
1
 10
1138.12974892
 20
1035.08300781
 40
10.00000000
 50
0.00000000
  1
# 111
  0
POINT
  8
4
 10
1152.97056923
 20
772.21124268
 30
7.50000000
 50
444.74983090
  0
TEXT
  8
1
 10
1152.97056923
 20
772.21124268
 40
10.00000000
 50
0.00000000
  1
# 112
  0
POINT
  8
4
 10
1236.39195595
 20
900.19348145
 30
7.50000000
 50
270.97641757
  0
TEXT
  8
1
 10
1236.39195595
 20
900.19348145
 40
10.00000000
 50
0.00000000
  1
# 113
  0
ENDBLK
  0
BLOCK
  8
1
  2
11
 70
64
 10
0.0
 20
0.0
  0
LINE
  8
7
 10
240.65254639
 20
158.74992065
 11
280.65254639
 21
158.74992065
  0
TEXT
  8
1
 10
0.00000000
 20
0.00000000
 40
20.00000000
 50
0.00000000
  1
Size: 46
  0
TEXT
  8
1
 10
260.65254639
 20
162.49992065
 40
5.00000000
 50
0.00000000
  1
Piece Name: AKIL.VIC
  0
TEXT
  8
1
 10
260.65254639
 20
162.49992065
 40
5.00000000
 50
0.00000000
  1
Quantity: 1
  0
TEXT
  8
1
 10
260.65254639
 20
162.49992065
 40
5.00000000
 50
0.00000000
  1
Rotation: 0
  0
TEXT
  8
1
 10
260.65254639
 20
162.49992065
 40
5.00000000
 50
0.00000000
  1
Tilt: 0
  0
TEXT
  8
1
 10
260.65254639
 20
162.49992065
 40
5.00000000
 50
0.00000000
  1
Fold: N
  0
TEXT
  8
1
 10
260.65254639
 20
162.49992065
 40
5.00000000
 50
0.00000000
  1
Material: 1
  0
POLYLINE
  8
1
 66
1
 70
1
  0
VERTEX
  8
1
 10
220.65096436
 20
23.74998169
  0
VERTEX
  8
1
 10
220.65096436
 20
173.74985962
  0
VERTEX
  8
1
 10
300.65096436
 20
173.74985962
  0
VERTEX
  8
1
 10
300.65096436
 20
23.74998169
  0
SEQEND
  0
POLYLINE
  8
84
 66
1
 70
1
  0
VERTEX
  8
84
 10
220.65096436
 20
23.74998169
  0
VERTEX
  8
84
 10
220.65096436
 20
173.74985962
  0
VERTEX
  8
84
 10
300.65096436
 20
173.74985962
  0
VERTEX
  8
84
 10
300.65096436
 20
23.74998169
  0
SEQEND
  0
POINT
  8
2
 10
220.65096436
 20
23.74998169
  0
TEXT
  8
2
 10
220.65096436
 20
23.74998169
 40
10.00000000
 50
0.00000000
  1
# 114
  0
POINT
  8
2
 10
220.65096436
 20
173.74985962
  0
TEXT
  8
2
 10
220.65096436
 20
173.74985962
 40
10.00000000
 50
0.00000000
  1
# 115
  0
POINT
  8
2
 10
300.65096436
 20
173.74985962
  0
TEXT
  8
2
 10
300.65096436
 20
173.74985962
 40
10.00000000
 50
0.00000000
  1
# 116
  0
POINT
  8
2
 10
300.65096436
 20
23.74998169
  0
TEXT
  8
2
 10
300.65096436
 20
23.74998169
 40
10.00000000
 50
0.00000000
  1
# 117
  0
ENDBLK
  0
BLOCK
  8
1
  2
12
 70
64
 10
0.0
 20
0.0
  0
LINE
  8
7
 10
63.25026367
 20
567.87513428
 11
138.25026367
 21
567.87513428
  0
TEXT
  8
1
 10
0.00000000
 20
0.00000000
 40
5.00000000
 50
0.00000000
  1
Size: 46
  0
TEXT
  8
1
 10
100.75026367
 20
571.62513428
 40
5.00000000
 50
0.00000000
  1
Piece Name: AKIL.VIF
  0
TEXT
  8
1
 10
100.75026367
 20
571.62513428
 40
5.00000000
 50
0.00000000
  1
Quantity: 1
  0
TEXT
  8
1
 10
100.75026367
 20
571.62513428
 40
5.00000000
 50
0.00000000
  1
Rotation: 0
  0
TEXT
  8
1
 10
100.75026367
 20
571.62513428
 40
5.00000000
 50
0.00000000
  1
Tilt: 0
  0
TEXT
  8
1
 10
100.75026367
 20
571.62513428
 40
5.00000000
 50
0.00000000
  1
Fold: N
  0
TEXT
  8
1
 10
100.75026367
 20
571.62513428
 40
5.00000000
 50
0.00000000
  1
Material: 1
  0
POLYLINE
  8
1
 66
1
 70
1
  0
VERTEX
  8
1
 10
25.75000000
 20
590.37514954
  0
VERTEX
  8
1
 10
175.75000000
 20
590.37514954
  0
VERTEX
  8
1
 10
175.75000000
 20
500.37508850
  0
VERTEX
  8
1
 10
25.75000000
 20
500.37508850
  0
SEQEND
  0
POLYLINE
  8
84
 66
1
 70
1
  0
VERTEX
  8
84
 10
25.75000000
 20
590.37514954
  0
VERTEX
  8
84
 10
175.75000000
 20
590.37514954
  0
VERTEX
  8
84
 10
175.75000000
 20
500.37508850
  0
VERTEX
  8
84
 10
25.75000000
 20
500.37508850
  0
SEQEND
  0
POINT
  8
2
 10
25.75000000
 20
590.37514954
  0
TEXT
  8
2
 10
25.75000000
 20
590.37514954
 40
10.00000000
 50
0.00000000
  1
# 118
  0
POINT
  8
2
 10
175.75000000
 20
590.37514954
  0
TEXT
  8
2
 10
175.75000000
 20
590.37514954
 40
10.00000000
 50
0.00000000
  1
# 119
  0
POINT
  8
2
 10
175.75000000
 20
500.37508850
  0
TEXT
  8
2
 10
175.75000000
 20
500.37508850
 40
10.00000000
 50
0.00000000
  1
# 120
  0
POINT
  8
2
 10
25.75000000
 20
500.37508850
  0
TEXT
  8
2
 10
25.75000000
 20
500.37508850
 40
10.00000000
 50
0.00000000
  1
# 121
  0
ENDBLK
  0
ENDSEC
  0
SECTION
  2
ENTITIES
  0
LINE
  8
9
 10
0.00000000
 20
0.00000000
 11
0.00000000
 21
0.00000000
  0
LINE
  8
10
 10
0.00000000
 20
0.00000000
 11
0.00000000
 21
0.00000000
  0
INSERT
  8
1
  2
1
 10
0.0
 20
0.0
  0
INSERT
  8
1
  2
2
 10
0.0
 20
0.0
  0
INSERT
  8
1
  2
3
 10
0.0
 20
0.0
  0
INSERT
  8
1
  2
4
 10
0.0
 20
0.0
  0
INSERT
  8
1
  2
5
 10
0.0
 20
0.0
  0
INSERT
  8
1
  2
6
 10
0.0
 20
0.0
  0
INSERT
  8
1
  2
7
 10
0.0
 20
0.0
  0
INSERT
  8
1
  2
8
 10
0.0
 20
0.0
  0
INSERT
  8
1
  2
9
 10
0.0
 20
0.0
  0
INSERT
  8
1
  2
10
 10
0.0
 20
0.0
  0
INSERT
  8
1
  2
11
 10
0.0
 20
0.0
  0
INSERT
  8
1
  2
12
 10
0.0
 20
0.0
  0
TEXT
  8
1
 10
0.00000000
 20
0.00000000
 40
10.00000000
 50
0.00000000
  1
Style Name: ASTM D 6673
  0
TEXT
  8
1
 10
0.00000000
 20
0.00000000
 40
10.00000000
 50
0.00000000
  1
Grade Rule Table: KIL
  0
TEXT
  8
1
 10
0.00000000
 20
0.00000000
 40
10.00000000
 50
0.00000000
  1
Sample Size: 46
  0
TEXT
  8
1
 10
0.00000000
 20
0.00000000
 40
10.00000000
 50
0.00000000
  1
Units: METRIC
  0
TEXT
  8
1
 10
0.00000000
 20
0.00000000
 40
10.00000000
 50
0.00000000
  1
Creation Date: 12-1-2025
  0
TEXT
  8
1
 10
0.00000000
 20
0.00000000
 40
10.00000000
 50
0.00000000
  1
Creation Time: 21:2
  0
TEXT
  8
1
 10
0.00000000
 20
0.00000000
 40
10.00000000
 50
0.00000000
  1
Author: Audaces; Audaces Vesturio 2015
  0
TEXT
  8
1
 10
0.00000000
 20
0.00000000
 40
10.00000000
 50
0.00000000
  1
Curve Tolerance: 0.025
  0
TEXT
  8
1
 10
0.00000000
 20
0.00000000
 40
10.00000000
 50
0.00000000
  1
ASTM/PDE: 1
  0
ENDSEC
  0
EOF
